<svg height="676" style="" viewBox="0 338 603 338" width="1206" xmlns="http://www.w3.org/2000/svg" xmlns:xlink="http://www.w3.org/1999/xlink"><linearGradient id="a" style=""><stop offset="0" style="stop-color:#fff"/><stop offset="1" style="stop-color:#fff;stop-opacity:0"/></linearGradient><clipPath id="b" style=""><path d="m396 1550h51.3v51.3h-51.3z" style=""/></clipPath><clipPath id="c" style=""><path d="m396 1385h51.3v51.3h-51.3z" style=""/></clipPath><clipPath id="d" style=""><path d="m396 1220h51.3v51.3h-51.3z" style=""/></clipPath><radialGradient id="e" cx="421.65" cy="1575.65" gradientUnits="userSpaceOnUse" r="25.65" style="" xlink:href="#a"/><radialGradient id="f" cx="421.65" cy="1410.65" gradientUnits="userSpaceOnUse" r="25.65" style="" xlink:href="#a"/><radialGradient id="g" cx="421.65" cy="1245.65" gradientUnits="userSpaceOnUse" r="25.65" style="" xlink:href="#a"/><g style="" transform="matrix(.133 0 0 -.133 0 676)"><path d="m0 .0391h4535v2551h-4535z" style=""/><path d="m269 490c.024 13.6 11 24.6 24.6 24.6s24.6-11 24.6-24.6-11-24.6-24.6-24.6-24.6 11-24.6 24.6m-293-222c0 13.6 11 24.6 24.6 24.6 13.5 0 24.6-11 24.6-24.6s-11-24.6-24.6-24.6-24.6 11-24.6 24.6m586-1.15c0 13.6 11 24.6 24.6 24.6s24.6-11 24.6-24.6-11-24.6-24.6-24.6-24.6 11-24.6 24.6m-515-33.7c11.3 5.01 16.4 18.3 11.4 29.6l-10.9 24.7h42.9v-193h-86.5c-10.7 37.5-14 76.7-9.79 115zm179-4.75v57h102c5.27 0 37.2-6.09 37.2-30 0-19.8-24.5-27-44.7-27zm-139-307c0 13.6 11 24.6 24.6 24.6s24.6-11 24.6-24.6-11-24.6-24.6-24.6-24.6 11-24.6 24.6m364-1.13c0 13.6 11 24.6 24.6 24.6s24.6-11 24.6-24.6-11-24.6-24.6-24.6-24.6 11-24.6 24.6m7.6 55.7c-12.1 2.59-24-5.1-26.6-17.2l-12.3-57.6c-80.3-36.4-172-35.9-252 1.2l-12.3 57.6c-2.58 12.1-14.5 19.8-26.6 17.2l-50.8-10.9c-9.43 9.73-18.2 20.1-26.3 31h247c2.81 0 4.66.504 4.66 3.06v87.5c0 2.54-1.86 3.06-4.66 3.06h-72.3v55.4h78.2c7.12 0 38.2-2.03 48.1-41.7 3.1-12.2 9.93-51.9 14.6-64.6 4.65-14.2 23.6-42.7 43.7-42.7h128c-8.55-11.5-17.9-22.3-28-32.4zm137 231c1.74-17.4 1.95-35 .637-52.5h-31c-3.11 0-4.35-2.04-4.35-5.09v-14.2c0-33.6-18.9-40.9-35.5-42.7-15.8-1.77-33.3 6.62-35.4 16.3-9.32 52.4-24.8 63.6-49.4 82.9 30.4 19.3 62.1 47.8 62.1 85.9 0 41.2-28.2 67.2-47.5 79.9-27 17.8-56.9 21.4-65 21.4h-321c44.4 49.6 104 83.2 169 95.5l37.8-39.7c8.56-8.96 22.7-9.3 31.7-.726l42.3 40.5c87.4-16.4 163-70.3 207-148l-29-65.5c-5.01-11.3.097-24.6 11.4-29.6zm72.3-1.07-1 10.1 29.9 27.9c6.05 5.65 3.79 17.1-3.98 19.9l-38.2 14.3-3 9.84 23.8 33.1c4.84 6.72.383 17.4-7.78 18.8l-40.3 6.54-4.84 9.04 16.9 37.1c3.47 7.56-2.95 17.2-11.3 16.9l-40.9-1.44-6.45 7.84 9.39 39.8c1.89 8.07-6.3 16.3-14.4 14.4l-39.8-9.36-7.84 6.43 1.43 40.9c.332 8.27-9.35 14.7-16.9 11.3l-37.1-16.9-9.04 4.85-6.57 40.2c-1.32 8.16-12.1 12.6-18.8 7.78l-33.1-23.8-9.83 2.98-14.3 38.2c-2.89 7.79-14.3 10-19.9 3.99l-27.8-29.9-10.1.992-21.5 34.7c-4.36 7.04-16 7.04-20.3 0l-21.5-34.7-10.1-.992-27.9 29.9c-5.64 6.04-17.1 3.8-19.9-3.99l-14.3-38.2-9.83-2.98-33.1 23.8c-6.72 4.85-17.5.371-18.8-7.78l-6.56-40.3-9.04-4.84-37.1 16.9c-7.54 3.44-17.2-3.02-16.9-11.3l1.44-40.8-7.84-6.46-39.8 9.39c-8.08 1.88-16.3-6.3-14.4-14.4l9.36-39.8-6.44-7.84-40.8 1.44c-8.24.234-14.7-9.36-11.3-16.9l16.9-37.1-4.85-9.04-40.3-6.54c-8.16-1.33-12.6-12.1-7.76-18.8l23.8-33.1-3-9.84-38.2-14.3c-7.75-2.89-10-14.3-3.96-20l29.9-27.8-1-10.1-34.7-21.5c-7.03-4.36-7.03-16 0-20.3l34.7-21.5 1-10.1-29.9-27.9c-6.07-5.64-3.79-17 3.96-19.9l38.2-14.3 3-9.86-23.8-33.1c-4.84-6.73-.395-17.5 7.79-18.8l40.2-6.53 4.85-9.04-16.9-37.1c-3.45-7.56 3.05-17.3 11.3-16.9l40.8 1.43 6.46-7.84-9.36-39.8c-1.89-8.06 6.3-16.3 14.4-14.4l39.8 9.38 7.84-6.42-1.44-40.9c-.308-8.26 9.38-14.8 16.9-11.3l37.1 16.9 9.04-4.83 6.56-40.2c1.32-8.18 12.1-12.6 18.8-7.78l33.1 23.8 9.84-3 14.3-38.2c2.88-7.74 14.3-10 19.9-3.96l27.9 29.9 10.1-1.02 21.5-34.7c4.34-6.99 16-7.01 20.3 0l21.5 34.7 10.1 1.02 27.9-29.9c5.65-6.07 17.1-3.77 19.9 3.96l14.3 38.2 9.85 3 33.1-23.8c6.72-4.82 17.5-.394 18.8 7.78l6.57 40.2 9.04 4.83 37.1-16.9c7.55-3.46 17.2 3 16.9 11.3l-1.43 40.9 7.84 6.42 39.8-9.38c8.11-1.9 16.3 6.31 14.4 14.4l-9.38 39.8 6.45 7.84 40.8-1.43c8.26-.332 14.8 9.36 11.3 16.9l-16.9 37.1 4.84 9.04 40.2 6.53c8.2 1.32 12.6 12.1 7.78 18.8l-23.8 33.1 3 9.86 38.2 14.3c7.78 2.91 10 14.3 3.96 19.9l-29.8 27.9.985 10.1 34.7 21.5c7.04 4.33 7.04 16 .012 20.3z" style="fill:#383232"/><path d="m0 2275h4535v276h-4535z" style="fill:#1c1c1c"/><g style="fill:#fff"><path d="m215 2451h-10.5l-13.1-47.1c-3.17-11.4-3.17-11.6-5.75-21.3-1.88-6.89-4.03-15.2-4.59-20.4h-.156c-.719 6.03-3.88 18.4-6.31 27l-17 61.8h-12.2l-12.3-44.5c-1.02-3.45-9.62-34.8-10.6-44.1h-.141c-.578 5.61-4.16 19.5-4.73 22l-6.17 23-12.1 43.7h-12.2l28.2-99.7h11.9l13.5 48.8c3.59 12.8 9.05 32.5 9.91 40.1h.156s1-7.47 7.75-32l15.7-56.9h12.6l28.2 99.7" style=""/><path d="m278 2351v43.2c0 8.77-1.86 22-19.2 22-9.91 0-16.5-5.59-20-9.91v44.4h-10.6v-99.7h10.9v35.8c0 8.9 3.3 20.8 14.2 20.8 13.4 0 13.8-9.32 13.8-14.4v-42.2h10.9" style=""/><path d="m351 2415h-10.8c-6.59-17-17.7-45.1-18.2-55.4h-.141c-.719 8.48-8.34 27.4-9.48 30.3l-10.2 25.1h-11.3l26.7-63.8-5.03-13.1c-3.16-7.17-5.31-7.89-7.91-7.89-2 0-6.61.42-11.1 2.16l.875-9.35c.86-.14 5.59-1.15 10.2-1.15 3.45 0 10.2 0 16.4 15.8l30 77.3" style=""/><path d="m461 2351v99.7h-10.6v-42c-6.61 5.45-14.1 7.47-20.3 7.47-13.6 0-24.8-14.7-24.8-33.3 0-18.5 10.6-33.3 24.3-33.3 5.31 0 13.4 1.72 20.5 8.77v-7.33zm-10.9 17c-3.44-6.17-8.47-9.76-14.8-9.76-8.75 0-19.1 6.75-19.1 24.6 0 19.1 12.2 24.8 20.5 24.8 5.61 0 10.2-2.86 13.4-7.61v-32" style=""/><path d="m538 2383c0 19.4-14.2 34.3-30.7 34.3-17 0-30.9-15.2-30.9-34.3 0-18.8 14.4-33 30.7-33 17 0 30.9 14.5 30.9 33zm-10.9 1.44c0-17.7-10.2-25.6-19.8-25.6-10.3 0-20 8.62-20 25.6 0 17.4 10.8 24.3 19.8 24.3 9.92 0 20-7.47 20-24.3" style=""/><path d="m604 2383c0 6.17-.578 14.9-5.17 22.6-5.89 9.92-16 11.1-20.1 11.1-15.5 0-28.5-14.9-28.5-33.6 0-19 13.8-33.8 30.5-33.8 6.59 0 14.5 1.88 22.4 7.61 0 .58-.437 5.33-.437 5.33s-.422 3.3-.422 3.88c-8.48-7.19-17-8.19-21.3-8.19-11.1 0-20.5 9.9-20.8 25.1zm-8.47 7.75h-34.5c2.44 9.62 9.19 17.2 17.7 17.2 4.45 0 14.4-2 16.8-17.2" style=""/><path d="m660 2369c0 7.33-4.45 11.9-5.02 12.6-5.33 5.45-9.62 6.31-18.4 8.05-5.17 1-12.5 2.44-12.5 9.62 0 8.91 10 8.91 11.9 8.91 7.61 0 13.6-1.74 20-5.33l1.72 9.34c-9.19 4.32-17 4.46-20.2 4.46-3.31 0-23.3 0-23.3-18.7 0-6.33 3.45-10.6 5.61-12.6 5.17-4.46 8.76-5.18 17.2-6.91 4.75-1 13.1-2.72 13.1-10.3 0-9.91-11.2-9.91-13.2-9.91-5.75 0-14.1 1.58-21.8 7.19l-1.73-9.77c.719-.44 10.5-6.33 23.7-6.33 18.5 0 23 11.2 23 19.7" style=""/><path d="m767 2383c0 6.17-.578 14.9-5.17 22.6-5.89 9.92-16 11.1-20.1 11.1-15.5 0-28.5-14.9-28.5-33.6 0-19 13.8-33.8 30.5-33.8 6.59 0 14.5 1.88 22.4 7.61 0 .58-.437 5.33-.437 5.33s-.422 3.3-.422 3.88c-8.48-7.19-17-8.19-21.3-8.19-11.1 0-20.5 9.9-20.8 25.1zm-8.47 7.75h-34.5c2.44 9.62 9.19 17.2 17.7 17.2 4.45 0 14.4-2 16.8-17.2" style=""/><path d="m871 2351v43.2c0 9.93-2.58 22-19.4 22-12.2 0-19-8.47-21.1-11.6-2.59 9.06-10.5 11.6-18 11.6-11.8 0-18-7.61-20.4-10.6v9.91h-10.2v-64.5h10.9v35.8c0 9.48 3.74 20.8 14.2 20.8 13.2 0 13.9-9.04 13.9-14.4v-42.2h10.9v35.8c0 9.48 3.75 20.8 14.2 20.8 13.2 0 13.9-9.04 13.9-14.4v-42.2h10.9" style=""/><path d="m950 2383c0 17.7-9.47 33.2-22.8 33.2-4.17 0-13.4-.86-22.3-8.05v42.5h-10.6v-99.7h10.9v6.47c6.61-6.33 13.6-7.91 18.7-7.91 13.7 0 26.1 13.9 26.1 33.5zm-10.9 0c0-18.7-11.8-24.8-20.5-24.8-4.03 0-6.75 1.44-9.34 3.44-3.44 3.01-4.02 5.6-4.02 8.04v29.7c2.58 4.03 7.75 8.18 14.8 8.18 8.77 0 19.1-6.59 19.1-24.6" style=""/><path d="m1016 2383c0 6.17-.58 14.9-5.17 22.6-5.89 9.92-16 11.1-20.1 11.1-15.5 0-28.5-14.9-28.5-33.6 0-19 13.8-33.8 30.5-33.8 6.59 0 14.5 1.88 22.4 7.61 0 .58-.44 5.33-.44 5.33s-.42 3.3-.42 3.88c-8.48-7.19-17-8.19-21.3-8.19-11.1 0-20.5 9.9-20.8 25.1zm-8.47 7.75h-34.5c2.44 9.62 9.19 17.2 17.7 17.2 4.45 0 14.4-2 16.8-17.2" style=""/><path d="m1082 2351v99.7h-10.6v-42c-6.61 5.45-14.1 7.47-20.3 7.47-13.6 0-24.8-14.7-24.8-33.3 0-18.5 10.6-33.3 24.3-33.3 5.32 0 13.4 1.72 20.5 8.77v-7.33zm-10.9 17c-3.43-6.17-8.46-9.76-14.8-9.76-8.75 0-19.1 6.75-19.1 24.6 0 19.1 12.2 24.8 20.5 24.8 5.61 0 10.2-2.86 13.4-7.61v-32" style=""/><path d="m1154 2351v99.7h-10.6v-42c-6.61 5.45-14.1 7.47-20.3 7.47-13.6 0-24.8-14.7-24.8-33.3 0-18.5 10.6-33.3 24.3-33.3 5.32 0 13.4 1.72 20.5 8.77v-7.33zm-10.9 17c-3.43-6.17-8.46-9.76-14.8-9.76-8.75 0-19.1 6.75-19.1 24.6 0 19.1 12.2 24.8 20.5 24.8 5.61 0 10.2-2.86 13.4-7.61v-32" style=""/><path d="m1223 2383c0 6.17-.58 14.9-5.17 22.6-5.89 9.92-16 11.1-20.1 11.1-15.5 0-28.5-14.9-28.5-33.6 0-19 13.8-33.8 30.5-33.8 6.6 0 14.5 1.88 22.4 7.61 0 .58-.44 5.33-.44 5.33s-.42 3.3-.42 3.88c-8.48-7.19-17-8.19-21.3-8.19-11.1 0-20.5 9.9-20.8 25.1zm-8.47 7.75h-34.5c2.43 9.62 9.18 17.2 17.7 17.2 4.45 0 14.4-2 16.8-17.2" style=""/><path d="m1288 2351v99.7h-10.6v-42c-6.61 5.45-14.1 7.47-20.3 7.47-13.6 0-24.8-14.7-24.8-33.3 0-18.5 10.6-33.3 24.3-33.3 5.32 0 13.4 1.72 20.5 8.77v-7.33zm-10.9 17c-3.43-6.17-8.46-9.76-14.8-9.76-8.75 0-19.1 6.75-19.1 24.6 0 19.1 12.2 24.8 20.5 24.8 5.61 0 10.2-2.86 13.4-7.61v-32" style=""/><path d="m1446 2351v43.2c0 9.93-2.58 22-19.4 22-12.2 0-19-8.47-21.1-11.6-2.6 9.06-10.5 11.6-18 11.6-11.8 0-18-7.61-20.4-10.6v9.91h-10.2v-64.5h10.9v35.8c0 9.48 3.74 20.8 14.2 20.8 13.2 0 13.9-9.04 13.9-14.4v-42.2h10.9v35.8c0 9.48 3.75 20.8 14.2 20.8 13.2 0 13.9-9.04 13.9-14.4v-42.2h10.9" style=""/><path d="m1515 2351v42.1c0 13.8-9.92 23.8-23.3 23.8-8.61 0-15.1-2.02-22.1-6.03l.88-9.49c6.31 4.6 12.9 7.19 21.2 7.19 6.61 0 12.4-5.31 12.4-15.8v-5.88c-6.47-.29-15.1-.72-23.7-3.59-9.62-3.31-15.2-8.63-15.2-15.8 0-6.32 3.75-18 16-18 7.91 0 18 2.3 23.3 6.75v-5.31zm-10.9 19.2c0-2.87 0-6.33-4.74-9.19-3.89-2.45-8.76-2.87-10.9-2.87-7.76 0-13.1 4.15-13.1 9.48 0 9.77 20 11.9 28.7 11.9v-9.34" style=""/><path d="m1571 2355-2.16 8.33c-5.01-4.45-10.3-5.03-12.9-5.03-6.33 0-7.19 6.75-7.19 11.8v36.2h19.8v8.33h-19.8v18.2h-9.9v-18.2h-12.1v-8.33h11.8v-38.6c0-8.34 1.87-18.2 11.8-18.2 9.63 0 16.2 3.32 20.7 5.61" style=""/><path d="m1622 2355-2.16 8.33c-5.01-4.45-10.3-5.03-12.9-5.03-6.33 0-7.19 6.75-7.19 11.8v36.2h19.8v8.33h-19.8v18.2h-9.9v-18.2h-12.1v-8.33h11.8v-38.6c0-8.34 1.87-18.2 11.8-18.2 9.63 0 16.2 3.32 20.7 5.61" style=""/><path d="m1684 2383c0 6.17-.58 14.9-5.17 22.6-5.89 9.92-16 11.1-20.1 11.1-15.5 0-28.5-14.9-28.5-33.6 0-19 13.8-33.8 30.5-33.8 6.6 0 14.5 1.88 22.4 7.61 0 .58-.44 5.33-.44 5.33s-.42 3.3-.42 3.88c-8.48-7.19-17-8.19-21.3-8.19-11.1 0-20.5 9.9-20.8 25.1zm-8.47 7.75h-34.5c2.43 9.62 9.18 17.2 17.7 17.2 4.45 0 14.4-2 16.8-17.2" style=""/><path d="m1734 2407v9.63c-13.1-.14-20.7-7.75-24.6-13.4v12.6h-9.93v-64.5h10.6v31.4c0 14.5 10.9 24 23.9 24.1" style=""/><path d="m1794 2430c0 11-6.75 22.3-27.2 22.3-11.2 0-19.2-4.45-23.6-7.62l3.17-8.91c8.05 7.19 16.1 7.91 20.5 7.91 7.77 0 16.1-1.88 16.1-13.5 0-6.47-3.02-9.21-5.46-11.2-8.04-7.04-15.6-19.7-15.6-35.6v-7.31h9.33v6.89c0 15.4 9.34 25.6 14.8 30 2.88 2.45 7.91 7.18 7.91 17.1zm-21.6-78.9v11.6h-11.6v-11.6z" style=""/><path d="m367 1744v75.3h-12.4l-14.1-36.8c-3.81-9.88-8.91-23.3-10.1-28.4h-.109c-.547 2.29-1.84 6.3-3.47 10.8l-17 44.9-3.69 9.44h-12.3v-75.3h8.47v67.3h.109c.656-3.48 4.98-15.3 7.81-22.7l16.1-42.2h7.92l14.4 37.8 5.22 13.8c1.08 3.16 4.02 11 4.55 13.5l.11-.1v-67.3h8.47" style=""/><path d="m430 1768c0 14.5-10.9 26.1-23.8 26.1-13.3 0-23.9-11.9-23.9-26.1 0-14.3 11.1-25.1 23.8-25.1 13 0 23.9 11 23.9 25.1zm-8.47 1.07c0-12.8-7.38-19.2-15.4-19.2-7.48 0-15.3 6.08-15.3 19.2 0 13.1 8.25 18.5 15.3 18.5 7.59 0 15.4-5.64 15.4-18.5" style=""/><path d="m472 1758c0 5.97-4.02 9.66-4.24 9.99-4.23 3.79-7.16 4.43-12.6 5.42-5.97 1.18-11 2.28-11 7.59 0 6.74 7.81 6.74 9.22 6.74 3.48 0 9.23-.44 15.4-4.13l1.3 7.05c-5.64 2.61-10.1 3.47-15.6 3.47-2.72 0-18 0-18-14.2 0-5.33 3.16-8.79 5.86-10.9 3.36-2.39 5.75-2.81 11.7-4.01 3.91-.75 10.2-2.06 10.2-7.81 0-7.49-8.58-7.49-10.2-7.49-8.78 0-14.9 4.02-16.8 5.31l-1.31-7.37c3.48-1.74 9.45-4.77 18.2-4.77 1.95 0 7.92 0 12.6 3.47 3.36 2.6 5.2 6.94 5.2 11.6" style=""/><path d="m511 1747-1.75 6.41c-2.81-2.28-6.28-3.58-9.76-3.58-4.02 0-5.53 3.25-5.53 9v27.1h15.3v6.28h-15.3v13.8h-7.48v-13.8h-9.44v-6.28h9.11v-29c0-6.5 1.52-14.1 9.02-14.1 7.59 0 13.1 2.71 15.8 4.11" style=""/><path d="m596 1748-.656 7.27c-5.53-4.34-11.4-5.86-16.9-5.86-9 0-15.1 7.81-15.1 18.4 0 8.46 4.02 18.9 15.5 18.9 5.64 0 9.33-.88 15.3-4.78l1.3 7.06c-6.41 3.69-10.1 4.66-16.7 4.66-15.1 0-23.9-13.1-23.9-25.9 0-13.4 9.88-25.3 23.4-25.3 5.86 0 11.8 1.52 17.7 5.53" style=""/><path d="m650 1768c0 14.5-10.9 26.1-23.8 26.1-13.3 0-23.9-11.9-23.9-26.1 0-14.3 11.1-25.1 23.8-25.1 13 0 23.9 11 23.9 25.1zm-8.47 1.07c0-12.8-7.38-19.2-15.4-19.2-7.48 0-15.3 6.08-15.3 19.2 0 13.1 8.25 18.5 15.3 18.5 7.59 0 15.4-5.64 15.4-18.5" style=""/><path d="m731 1744v32.3c0 7.28-1.73 17-14.9 17-6.52 0-12.2-3.05-16.2-8.91-2.81 8.25-10.4 8.91-13.9 8.91-7.81 0-12.9-4.46-15.8-8.36v7.81h-7.81v-48.8h8.47v26.6c0 7.39 2.94 16.2 11 16.2 10.1 0 10.6-7.05 10.6-11.2v-31.6h8.47v26.6c0 7.39 2.92 16.2 11 16.2 10.1 0 10.6-7.05 10.6-11.2v-31.6h8.45" style=""/><path d="m818 1744v32.3c0 7.28-1.73 17-14.9 17-6.52 0-12.2-3.05-16.2-8.91-2.81 8.25-10.4 8.91-13.9 8.91-7.81 0-12.9-4.46-15.8-8.36v7.81h-7.81v-48.8h8.47v26.6c0 7.39 2.94 16.2 11 16.2 10.1 0 10.6-7.05 10.6-11.2v-31.6h8.47v26.6c0 7.39 2.92 16.2 11 16.2 10.1 0 10.6-7.05 10.6-11.2v-31.6h8.45" style=""/><path d="m878 1768c0 14.5-10.9 26.1-23.8 26.1-13.3 0-23.9-11.9-23.9-26.1 0-14.3 11.1-25.1 23.8-25.1 13 0 23.9 11 23.9 25.1zm-8.47 1.07c0-12.8-7.38-19.2-15.4-19.2-7.48 0-15.3 6.08-15.3 19.2 0 13.1 8.25 18.5 15.3 18.5 7.59 0 15.4-5.64 15.4-18.5" style=""/><path d="m929 1744v32.3c0 7.17-1.62 17-14.9 17-9.76 0-15.1-7.4-15.7-8.25v7.7h-7.81v-48.8h8.47v26.6c0 7.17 2.72 16.2 11 16.2 10.4 0 10.5-7.7 10.5-11.2v-31.6h8.47" style=""/><path d="m1026 1768c0 13.5-7.38 25.2-17.6 25.2-4.23 0-11-1.1-17.5-6.41v32.3h-8.14v-75.3h8.47v4.98c2.61-2.37 7.27-6.17 14.6-6.17 10.8 0 20.2 10.8 20.2 25.4zm-8.45 0c0-14.1-9.13-18.8-15.7-18.8-4.23 0-7.81 1.96-10.5 6.96v24c1.74 2.61 5.64 6.41 11.6 6.41 6.41 0 14.7-4.67 14.7-18.6" style=""/><path d="m1078 1744v48.2h-8.47v-31.5c0-8.12-6.07-11.9-13-11.9-7.7 0-8.47 2.81-8.47 7.49v35.9h-8.47v-36.3c0-7.81 2.5-13 11.5-13 5.75 0 13.4 1.74 18.8 6.39v-5.2h8.14" style=""/><path d="m1140 1787-1.19 6.85c-7.6 0-13.9-2.07-17.2-3.49-2.26 1.86-5.97 3.49-10.3 3.49-9.34 0-17.2-7.82-17.2-17.7 0-4.02 1.41-7.92 3.58-10.8-3.15-4.44-3.15-8.67-3.15-9.22 0-2.83.98-5.97 2.82-8.25-5.64-3.36-6.95-8.34-6.95-11.2 0-8.14 10.8-14.7 24-14.7 13.3 0 24.1 6.41 24.1 14.8 0 15.1-18.1 15.1-22.4 15.1h-9.55c-1.4 0-6.29 0-6.29 5.75 0 1.21.43 2.94 1.2 3.91 2.28-1.62 5.86-3.14 9.87-3.14 9.77 0 17.4 8.03 17.4 17.7 0 5.2-2.39 9.22-3.57 10.8l.42-.11c2.39 0 5.44.44 8.03.44 1.95 0 6.41-.33 6.41-.33zm-18.9-10.8c0-8.47-5.11-11.5-9.77-11.5-4.01 0-9.65 2.48-9.65 11.5 0 9 5.64 11.5 9.65 11.5 4.66 0 9.77-3.05 9.77-11.5zm9.77-39.5c0-4.78-7.49-8.36-16.4-8.36-8.79 0-16.5 3.37-16.5 8.47 0 .33 0 7.37 8.45 7.37h9.77c2.39 0 14.7 0 14.7-7.48" style=""/><path d="m1223 1748-.65 7.27c-5.54-4.34-11.4-5.86-16.9-5.86-9 0-15.1 7.81-15.1 18.4 0 8.46 4.01 18.9 15.5 18.9 5.64 0 9.33-.88 15.3-4.78l1.29 7.06c-6.4 3.69-10.1 4.66-16.7 4.66-15.1 0-23.9-13.1-23.9-25.9 0-13.4 9.87-25.3 23.4-25.3 5.86 0 11.8 1.52 17.7 5.53" style=""/><path d="m1244 1744v75.3h-8.14v-75.3z" style=""/><path d="m1297 1744v31.4c0 11.1-7.93 18.7-17.9 18.7-7.05 0-11.9-1.74-17-4.66l.65-7.17c5.64 4.01 11.1 5.44 16.4 5.44 5.11 0 9.45-4.35 9.45-12.4v-4.67c-16.3-.22-30.1-4.77-30.1-14.3 0-4.68 2.92-13.5 12.4-13.5 1.52 0 11.7.22 18 5.1v-3.91zm-8.46 14.3c0-2.06 0-4.78-3.7-6.85-3.14-1.95-7.27-2.06-8.45-2.06-5.22 0-10.1 2.5-10.1 7.06 0 7.6 17.6 8.35 22.2 8.57v-6.72" style=""/><path d="m1344 1758c0 5.97-4.01 9.66-4.23 9.99-4.24 3.79-7.16 4.43-12.6 5.42-5.97 1.18-11 2.28-11 7.59 0 6.74 7.81 6.74 9.22 6.74 3.48 0 9.23-.44 15.4-4.13l1.3 7.05c-5.64 2.61-10.1 3.47-15.6 3.47-2.71 0-18 0-18-14.2 0-5.33 3.15-8.79 5.86-10.9 3.36-2.39 5.75-2.81 11.7-4.01 3.9-.75 10.2-2.06 10.2-7.81 0-7.49-8.58-7.49-10.2-7.49-8.78 0-14.9 4.02-16.8 5.31l-1.31-7.37c3.49-1.74 9.45-4.77 18.2-4.77 1.95 0 7.92 0 12.6 3.47 3.36 2.6 5.2 6.94 5.2 11.6" style=""/><path d="m1386 1758c0 5.97-4.01 9.66-4.23 9.99-4.24 3.79-7.16 4.43-12.6 5.42-5.97 1.18-11 2.28-11 7.59 0 6.74 7.81 6.74 9.22 6.74 3.48 0 9.23-.44 15.4-4.13l1.3 7.05c-5.64 2.61-10.1 3.47-15.6 3.47-2.71 0-18 0-18-14.2 0-5.33 3.15-8.79 5.86-10.9 3.36-2.39 5.75-2.81 11.7-4.01 3.9-.75 10.2-2.06 10.2-7.81 0-7.49-8.58-7.49-10.2-7.49-8.78 0-14.9 4.02-16.8 5.31l-1.31-7.37c3.49-1.74 9.45-4.77 18.2-4.77 1.95 0 7.92 0 12.6 3.47 3.36 2.6 5.2 6.94 5.2 11.6" style=""/><path d="m1434 1768c0 3.68-.11 11.8-4.34 18.3-4.45 6.74-11.1 7.93-15 7.93-12 0-21.8-11.5-21.8-25.5 0-14.3 10.4-25.7 23.4-25.7 6.85 0 13 2.6 17.2 5.64l-.64 7.05c-6.84-5.64-14-6.08-16.5-6.08-8.68 0-15.6 7.71-16 18.4zm-6.19 5.96h-26.8c1.73 8.25 7.48 13.7 13.7 13.7 5.64 0 11.7-3.69 13.1-13.7" style=""/><path d="m1476 1758c0 5.97-4.01 9.66-4.23 9.99-4.24 3.79-7.16 4.43-12.6 5.42-5.97 1.18-11 2.28-11 7.59 0 6.74 7.81 6.74 9.22 6.74 3.48 0 9.23-.44 15.4-4.13l1.3 7.05c-5.64 2.61-10.1 3.47-15.6 3.47-2.71 0-18 0-18-14.2 0-5.33 3.15-8.79 5.86-10.9 3.36-2.39 5.75-2.81 11.7-4.01 3.9-.75 10.2-2.06 10.2-7.81 0-7.49-8.58-7.49-10.2-7.49-8.78 0-14.9 4.02-16.8 5.31l-1.31-7.37c3.49-1.74 9.45-4.77 18.2-4.77 1.95 0 7.92 0 12.6 3.47 3.36 2.6 5.2 6.94 5.2 11.6" style=""/><path d="m1559 1744v31.4c0 11.1-7.93 18.7-17.9 18.7-7.05 0-11.9-1.74-17-4.66l.65-7.17c5.64 4.01 11.1 5.44 16.4 5.44 5.11 0 9.45-4.35 9.45-12.4v-4.67c-16.3-.22-30.1-4.77-30.1-14.3 0-4.68 2.92-13.5 12.4-13.5 1.52 0 11.7.22 18 5.1v-3.91zm-8.46 14.3c0-2.06 0-4.78-3.7-6.85-3.14-1.95-7.27-2.06-8.45-2.06-5.22 0-10.1 2.5-10.1 7.06 0 7.6 17.6 8.35 22.2 8.57v-6.72" style=""/><path d="m1600 1786v7.29c-9.65-.11-15.6-5.44-19-10.4v9.88h-7.61v-48.8h8.14v23.2c0 10.9 7.81 18.7 18.4 18.9" style=""/><path d="m1647 1768c0 3.68-.11 11.8-4.34 18.3-4.45 6.74-11.1 7.93-15 7.93-12 0-21.8-11.5-21.8-25.5 0-14.3 10.4-25.7 23.4-25.7 6.85 0 13 2.6 17.2 5.64l-.64 7.05c-6.84-5.64-14-6.08-16.5-6.08-8.68 0-15.6 7.71-16 18.4zm-6.19 5.96h-26.8c1.73 8.25 7.48 13.7 13.7 13.7 5.64 0 11.7-3.69 13.1-13.7" style=""/><path d="m1723 1747-1.75 6.41c-2.81-2.28-6.28-3.58-9.76-3.58-4.02 0-5.54 3.25-5.54 9v27.1h15.3v6.28h-15.3v13.8h-7.48v-13.8h-9.44v-6.28h9.11v-29c0-6.5 1.52-14.1 9.02-14.1 7.59 0 13.1 2.71 15.8 4.11" style=""/><path d="m1773 1744v32.3c0 7.17-1.62 17-14.9 17-6.72 0-11.9-3.38-15.4-7.82v33.7h-8.14v-75.3h8.47v26.6c0 7.17 2.72 16.2 11 16.2 10.4 0 10.5-7.7 10.5-11.2v-31.6h8.47" style=""/><path d="m1827 1768c0 3.68-.11 11.8-4.34 18.3-4.45 6.74-11.1 7.93-15 7.93-12 0-21.8-11.5-21.8-25.5 0-14.3 10.4-25.7 23.4-25.7 6.85 0 13 2.6 17.2 5.64l-.64 7.05c-6.84-5.64-14-6.08-16.5-6.08-8.68 0-15.6 7.71-16 18.4zm-6.19 5.96h-26.8c1.73 8.25 7.48 13.7 13.7 13.7 5.64 0 11.7-3.69 13.1-13.7" style=""/><path d="m1906 1758c0 5.97-4.01 9.66-4.23 9.99-4.24 3.79-7.16 4.43-12.6 5.42-5.97 1.18-11 2.28-11 7.59 0 6.74 7.81 6.74 9.22 6.74 3.48 0 9.23-.44 15.4-4.13l1.3 7.05c-5.64 2.61-10.1 3.47-15.6 3.47-2.71 0-18 0-18-14.2 0-5.33 3.15-8.79 5.86-10.9 3.36-2.39 5.75-2.81 11.7-4.01 3.9-.75 10.2-2.06 10.2-7.81 0-7.49-8.58-7.49-10.2-7.49-8.78 0-14.9 4.02-16.8 5.31l-1.31-7.37c3.49-1.74 9.45-4.77 18.2-4.77 1.95 0 7.92 0 12.6 3.47 3.36 2.6 5.2 6.94 5.2 11.6" style=""/><path d="m1953 1744v31.4c0 11.1-7.93 18.7-17.9 18.7-7.05 0-11.9-1.74-17-4.66l.65-7.17c5.64 4.01 11.1 5.44 16.4 5.44 5.11 0 9.45-4.35 9.45-12.4v-4.67c-16.3-.22-30.1-4.77-30.1-14.3 0-4.68 2.92-13.5 12.4-13.5 1.52 0 11.7.22 18 5.1v-3.91zm-8.46 14.3c0-2.06 0-4.78-3.7-6.85-3.14-1.95-7.27-2.06-8.45-2.06-5.22 0-10.1 2.5-10.1 7.06 0 7.6 17.6 8.35 22.2 8.57v-6.72" style=""/><path d="m2038 1744v32.3c0 7.28-1.73 17-14.9 17-6.52 0-12.2-3.05-16.2-8.91-2.81 8.25-10.4 8.91-13.9 8.91-7.81 0-12.9-4.46-15.8-8.36v7.81h-7.81v-48.8h8.47v26.6c0 7.39 2.94 16.2 11 16.2 10.1 0 10.6-7.05 10.6-11.2v-31.6h8.47v26.6c0 7.39 2.92 16.2 11 16.2 10.1 0 10.6-7.05 10.6-11.2v-31.6h8.45" style=""/><path d="m2093 1768c0 3.68-.11 11.8-4.34 18.3-4.45 6.74-11.1 7.93-15 7.93-12 0-21.8-11.5-21.8-25.5 0-14.3 10.4-25.7 23.4-25.7 6.85 0 13 2.6 17.2 5.64l-.64 7.05c-6.84-5.64-14-6.08-16.5-6.08-8.68 0-15.6 7.71-16 18.4zm-6.19 5.96h-26.8c1.73 8.25 7.48 13.7 13.7 13.7 5.64 0 11.7-3.69 13.1-13.7" style=""/><path d="m2171 1812v7.27c-1.32.33-4.68 1.2-8.69 1.2-10.2 0-18-7.7-18-18.6v-9.77h-8.03v-6.28h8.03v-41.9h8.14v41.9h11.9v6.28h-12.3v12.9c0 8.04 7.28 8.79 10.1 8.79 2.17 0 5.11-.22 8.8-1.85" style=""/><path d="m2217 1768c0 14.5-10.9 26.1-23.8 26.1-13.4 0-23.9-11.9-23.9-26.1 0-14.3 11.1-25.1 23.8-25.1 13 0 23.9 11 23.9 25.1zm-8.47 1.07c0-12.8-7.37-19.2-15.4-19.2-7.49 0-15.3 6.08-15.3 19.2 0 13.1 8.25 18.5 15.3 18.5 7.59 0 15.4-5.64 15.4-18.5" style=""/><path d="m2253 1786v7.29c-9.65-.11-15.6-5.44-19-10.4v9.88h-7.61v-48.8h8.14v23.2c0 10.9 7.81 18.7 18.4 18.9" style=""/><path d="m2343 1768c0 13.5-7.38 25.2-17.6 25.2-4.23 0-11-1.1-17.5-6.41v32.3h-8.14v-75.3h8.47v4.98c2.61-2.37 7.27-6.17 14.6-6.17 10.8 0 20.2 10.8 20.2 25.4zm-8.45 0c0-14.1-9.13-18.8-15.7-18.8-4.23 0-7.81 1.96-10.5 6.96v24c1.73 2.61 5.64 6.41 11.6 6.41 6.41 0 14.7-4.67 14.7-18.6" style=""/><path d="m2402 1768c0 14.5-10.9 26.1-23.8 26.1-13.4 0-23.9-11.9-23.9-26.1 0-14.3 11.1-25.1 23.8-25.1 13 0 23.9 11 23.9 25.1zm-8.47 1.07c0-12.8-7.37-19.2-15.4-19.2-7.49 0-15.3 6.08-15.3 19.2 0 13.1 8.25 18.5 15.3 18.5 7.59 0 15.4-5.64 15.4-18.5" style=""/><path d="m2441 1747-1.75 6.41c-2.81-2.28-6.28-3.58-9.76-3.58-4.02 0-5.54 3.25-5.54 9v27.1h15.3v6.28h-15.3v13.8h-7.48v-13.8h-9.44v-6.28h9.11v-29c0-6.5 1.52-14.1 9.02-14.1 7.59 0 13.1 2.71 15.8 4.11" style=""/><path d="m2492 1744v32.3c0 7.17-1.62 17-14.9 17-6.72 0-11.9-3.38-15.4-7.82v33.7h-8.14v-75.3h8.47v26.6c0 7.17 2.72 16.2 11 16.2 10.4 0 10.5-7.7 10.5-11.2v-31.6h8.47" style=""/><path d="m2582 1768c0 3.68-.11 11.8-4.34 18.3-4.45 6.74-11.1 7.93-15 7.93-12 0-21.8-11.5-21.8-25.5 0-14.3 10.4-25.7 23.4-25.7 6.85 0 13 2.6 17.2 5.64l-.64 7.05c-6.84-5.64-14-6.08-16.5-6.08-8.68 0-15.6 7.71-16 18.4zm-6.19 5.96h-26.8c1.73 8.25 7.48 13.7 13.7 13.7 5.64 0 11.7-3.69 13.1-13.7" style=""/><path d="m2663 1744v32.3c0 7.28-1.73 17-14.9 17-6.52 0-12.2-3.05-16.2-8.91-2.81 8.25-10.4 8.91-13.9 8.91-7.81 0-12.9-4.46-15.8-8.36v7.81h-7.81v-48.8h8.47v26.6c0 7.39 2.94 16.2 11 16.2 10.1 0 10.6-7.05 10.6-11.2v-31.6h8.47v26.6c0 7.39 2.92 16.2 11 16.2 10.1 0 10.6-7.05 10.6-11.2v-31.6h8.45" style=""/><path d="m2724 1768c0 13.5-7.38 25.2-17.6 25.2-4.23 0-11-1.1-17.5-6.41v32.3h-8.14v-75.3h8.47v4.98c2.61-2.37 7.27-6.17 14.6-6.17 10.8 0 20.2 10.8 20.2 25.4zm-8.45 0c0-14.1-9.13-18.8-15.7-18.8-4.23 0-7.81 1.96-10.5 6.96v24c1.73 2.61 5.64 6.41 11.6 6.41 6.41 0 14.7-4.67 14.7-18.6" style=""/><path d="m2777 1768c0 3.68-.11 11.8-4.34 18.3-4.45 6.74-11.1 7.93-15 7.93-12 0-21.8-11.5-21.8-25.5 0-14.3 10.4-25.7 23.4-25.7 6.85 0 13 2.6 17.2 5.64l-.64 7.05c-6.84-5.64-14-6.08-16.5-6.08-8.68 0-15.6 7.71-16 18.4zm-6.19 5.96h-26.8c1.73 8.25 7.48 13.7 13.7 13.7 5.64 0 11.7-3.69 13.1-13.7" style=""/><path d="m2827 1744v75.3h-8.14v-31.9c-5.75 4.76-11.8 5.97-15.8 5.97-10.7 0-19.2-11.3-19.2-25.3 0-14.2 8.36-25.3 18.6-25.3 3.6 0 9.99.97 16.1 6.83v-5.64zm-8.46 15.1c0-1.52-.11-3.47-3.58-6.61-2.5-2.17-5.21-3.05-8.03-3.05-6.72 0-14.6 5.11-14.6 18.6 0 14.3 9.32 18.8 15.7 18.8 4.87 0 8.12-2.5 10.5-5.97v-21.7" style=""/><path d="m2884 1744v75.3h-8.14v-31.9c-5.75 4.76-11.8 5.97-15.8 5.97-10.7 0-19.2-11.3-19.2-25.3 0-14.2 8.36-25.3 18.6-25.3 3.6 0 9.99.97 16.1 6.83v-5.64zm-8.46 15.1c0-1.52-.11-3.47-3.58-6.61-2.5-2.17-5.21-3.05-8.03-3.05-6.72 0-14.6 5.11-14.6 18.6 0 14.3 9.32 18.8 15.7 18.8 4.87 0 8.12-2.5 10.5-5.97v-21.7" style=""/><path d="m2938 1768c0 3.68-.11 11.8-4.34 18.3-4.45 6.74-11.1 7.93-15 7.93-12 0-21.8-11.5-21.8-25.5 0-14.3 10.4-25.7 23.4-25.7 6.85 0 13 2.6 17.2 5.64l-.64 7.05c-6.84-5.64-14-6.08-16.5-6.08-8.68 0-15.6 7.71-16 18.4zm-6.19 5.96h-26.8c1.73 8.25 7.48 13.7 13.7 13.7 5.64 0 11.7-3.69 13.1-13.7" style=""/><path d="m2989 1744v75.3h-8.14v-31.9c-5.75 4.76-11.8 5.97-15.8 5.97-10.7 0-19.2-11.3-19.2-25.3 0-14.2 8.36-25.3 18.6-25.3 3.6 0 9.99.97 16.1 6.83v-5.64zm-8.46 15.1c0-1.52-.11-3.47-3.58-6.61-2.5-2.17-5.21-3.05-8.03-3.05-6.72 0-14.6 5.11-14.6 18.6 0 14.3 9.32 18.8 15.7 18.8 4.87 0 8.12-2.5 10.5-5.97v-21.7" style=""/><path d="m3078 1744v31.4c0 11.1-7.93 18.7-17.9 18.7-7.05 0-11.9-1.74-17-4.66l.65-7.17c5.64 4.01 11.1 5.44 16.4 5.44 5.11 0 9.45-4.35 9.45-12.4v-4.67c-16.3-.22-30.1-4.77-30.1-14.3 0-4.68 2.92-13.5 12.4-13.5 1.52 0 11.7.22 18 5.1v-3.91zm-8.46 14.3c0-2.06 0-4.78-3.7-6.85-3.14-1.95-7.27-2.06-8.45-2.06-5.22 0-10.1 2.5-10.1 7.06 0 7.6 17.6 8.35 22.2 8.57v-6.72" style=""/><path d="m3134 1744v32.3c0 7.17-1.62 17-14.9 17-9.77 0-15.1-7.4-15.7-8.25v7.7h-7.81v-48.8h8.47v26.6c0 7.17 2.72 16.2 11 16.2 10.4 0 10.5-7.7 10.5-11.2v-31.6h8.47" style=""/><path d="m3190 1744v75.3h-8.14v-31.9c-5.75 4.76-11.8 5.97-15.8 5.97-10.7 0-19.2-11.3-19.2-25.3 0-14.2 8.36-25.3 18.6-25.3 3.6 0 9.99.97 16.1 6.83v-5.64zm-8.46 15.1c0-1.52-.11-3.47-3.58-6.61-2.5-2.17-5.21-3.05-8.03-3.05-6.72 0-14.6 5.11-14.6 18.6 0 14.3 9.32 18.8 15.7 18.8 4.87 0 8.12-2.5 10.5-5.97v-21.7" style=""/><path d="m3283 1744v48.2h-8.47v-31.5c0-8.12-6.07-11.9-13-11.9-7.7 0-8.47 2.81-8.47 7.49v35.9h-8.47v-36.3c0-7.81 2.5-13 11.5-13 5.75 0 13.4 1.74 18.8 6.39v-5.2h8.14" style=""/><path d="m3331 1758c0 5.97-4.01 9.66-4.23 9.99-4.24 3.79-7.16 4.43-12.6 5.42-5.97 1.18-11 2.28-11 7.59 0 6.74 7.81 6.74 9.22 6.74 3.48 0 9.23-.44 15.4-4.13l1.3 7.05c-5.64 2.61-10.1 3.47-15.6 3.47-2.71 0-18 0-18-14.2 0-5.33 3.15-8.79 5.86-10.9 3.36-2.39 5.75-2.81 11.7-4.01 3.9-.75 10.2-2.06 10.2-7.81 0-7.49-8.58-7.49-10.2-7.49-8.78 0-14.9 4.02-16.8 5.31l-1.31-7.37c3.49-1.74 9.45-4.77 18.2-4.77 1.95 0 7.92 0 12.6 3.47 3.36 2.6 5.2 6.94 5.2 11.6" style=""/><path d="m3379 1768c0 3.68-.11 11.8-4.34 18.3-4.45 6.74-11.1 7.93-15 7.93-12 0-21.8-11.5-21.8-25.5 0-14.3 10.4-25.7 23.4-25.7 6.85 0 13 2.6 17.2 5.64l-.64 7.05c-6.84-5.64-14-6.08-16.5-6.08-8.68 0-15.6 7.71-16 18.4zm-6.19 5.96h-26.8c1.73 8.25 7.48 13.7 13.7 13.7 5.64 0 11.7-3.69 13.1-13.7" style=""/><path d="m3418 1786v7.29c-9.65-.11-15.6-5.44-19-10.4v9.88h-7.61v-48.8h8.14v23.2c0 10.9 7.81 18.7 18.4 18.9" style=""/><path d="m3450 1765v6.29h-28.8v-6.29z" style=""/><path d="m3495 1758c0 5.97-4.01 9.66-4.23 9.99-4.24 3.79-7.16 4.43-12.6 5.42-5.97 1.18-11 2.28-11 7.59 0 6.74 7.81 6.74 9.22 6.74 3.48 0 9.23-.44 15.4-4.13l1.3 7.05c-5.64 2.61-10.1 3.47-15.6 3.47-2.71 0-18 0-18-14.2 0-5.33 3.15-8.79 5.86-10.9 3.36-2.39 5.75-2.81 11.7-4.01 3.9-.75 10.2-2.06 10.2-7.81 0-7.49-8.58-7.49-10.2-7.49-8.78 0-14.9 4.02-16.8 5.31l-1.31-7.37c3.49-1.74 9.45-4.77 18.2-4.77 1.95 0 7.92 0 12.6 3.47 3.36 2.6 5.2 6.94 5.2 11.6" style=""/><path d="m3550 1768c0 13-6.83 25.2-17.2 25.2-6.52 0-12.8-2.29-17.8-6.52v5.31h-8.14v-69.2h8.47v26c3.36-3.14 8.14-6.17 14.7-6.17 10.5 0 20.1 10.6 20.1 25.4zm-8.45 0c0-11.2-7.71-18.8-15.8-18.8-4.23 0-7.17 2.17-9.33 5.11-1.09 1.63-1.09 1.85-1.09 3.8v21.8c2.61 3.81 6.84 6.29 11.5 6.29 8.25 0 14.8-8.25 14.8-18.2" style=""/><path d="m3598 1744v31.4c0 11.1-7.93 18.7-17.9 18.7-7.05 0-11.9-1.74-17-4.66l.65-7.17c5.64 4.01 11.1 5.44 16.4 5.44 5.11 0 9.45-4.35 9.45-12.4v-4.67c-16.3-.22-30.1-4.77-30.1-14.3 0-4.68 2.92-13.5 12.4-13.5 1.52 0 11.7.22 18 5.1v-3.91zm-8.46 14.3c0-2.06 0-4.78-3.7-6.85-3.14-1.95-7.27-2.06-8.45-2.06-5.22 0-10.1 2.5-10.1 7.06 0 7.6 17.6 8.35 22.2 8.57v-6.72" style=""/><path d="m3652 1748-.65 7.27c-5.54-4.34-11.4-5.86-16.9-5.86-9 0-15.1 7.81-15.1 18.4 0 8.46 4.01 18.9 15.5 18.9 5.64 0 9.33-.88 15.3-4.78l1.29 7.06c-6.4 3.69-10.1 4.66-16.7 4.66-15.1 0-23.9-13.1-23.9-25.9 0-13.4 9.87-25.3 23.4-25.3 5.86 0 11.8 1.52 17.7 5.53" style=""/><path d="m3700 1768c0 3.68-.11 11.8-4.34 18.3-4.45 6.74-11.1 7.93-15 7.93-12 0-21.8-11.5-21.8-25.5 0-14.3 10.4-25.7 23.4-25.7 6.85 0 13 2.6 17.2 5.64l-.64 7.05c-6.84-5.64-14-6.08-16.5-6.08-8.68 0-15.6 7.71-16 18.4zm-6.19 5.96h-26.8c1.73 8.25 7.48 13.7 13.7 13.7 5.64 0 11.7-3.69 13.1-13.7" style=""/><path d="m3790 1810v9h-9.01v-9zm-.43-66.4v48.2h-8.14v-48.2zm-17.2 41.9v6.28h-13.1v13.1c0 6.94 3.9 8.57 6.62 8.57 2.28 0 4.67-.75 6.52-1.96v7.38c-.66.22-3.38 1.2-6.52 1.2-8.03 0-14.4-7.59-14.4-18.4v-9.88h-8.03v-6.28h8.03v-41.9h8.14v41.9h12.8" style=""/><path d="m3833 1786v7.29c-9.65-.11-15.6-5.44-19-10.4v9.88h-7.61v-48.8h8.14v23.2c0 10.9 7.81 18.7 18.4 18.9" style=""/><path d="m3913 1744v32.3c0 7.28-1.73 17-14.9 17-6.52 0-12.2-3.05-16.2-8.91-2.81 8.25-10.4 8.91-13.9 8.91-7.81 0-12.9-4.46-15.8-8.36v7.81h-7.81v-48.8h8.47v26.6c0 7.39 2.94 16.2 11 16.2 10.1 0 10.6-7.05 10.6-11.2v-31.6h8.47v26.6c0 7.39 2.92 16.2 11 16.2 10.1 0 10.6-7.05 10.6-11.2v-31.6h8.45" style=""/><path d="m3994 1792h-7.92l-6.95-23c-1.19-3.9-4.44-14.6-4.98-19.3h-.11c-.44 3.36-3.14 13-4.99 19.2l-7.06 23.1h-7.59l-6.19-20.4c-1.19-3.8-4.88-16.3-5.31-21.8h-.11c-.55 5.2-4.13 17.5-5.86 23.4l-5.64 18.8h-8.25l14.9-48.2h8.56l6.74 22.4c1.51 4.98 4.54 15.7 4.87 19.7h.11c.22-3.03 2.06-10.5 3.47-15.2l7.92-26.9h9.55l14.9 48.2" style=""/><path d="m4038 1744v31.4c0 11.1-7.93 18.7-17.9 18.7-7.05 0-11.9-1.74-17-4.66l.65-7.17c5.64 4.01 11.1 5.44 16.4 5.44 5.11 0 9.45-4.35 9.45-12.4v-4.67c-16.3-.22-30.1-4.77-30.1-14.3 0-4.68 2.92-13.5 12.4-13.5 1.52 0 11.7.22 18 5.1v-3.91zm-8.46 14.3c0-2.06 0-4.78-3.7-6.85-3.14-1.95-7.27-2.06-8.45-2.06-5.22 0-10.1 2.5-10.1 7.06 0 7.6 17.6 8.35 22.2 8.57v-6.72" style=""/><path d="m4078 1786v7.29c-9.65-.11-15.6-5.44-19-10.4v9.88h-7.61v-48.8h8.14v23.2c0 10.9 7.81 18.7 18.4 18.9" style=""/><path d="m4126 1768c0 3.68-.11 11.8-4.34 18.3-4.45 6.74-11.1 7.93-15 7.93-12 0-21.8-11.5-21.8-25.5 0-14.3 10.4-25.7 23.4-25.7 6.85 0 13 2.6 17.2 5.64l-.64 7.05c-6.84-5.64-14-6.08-16.5-6.08-8.68 0-15.6 7.71-16 18.4zm-6.19 5.96h-26.8c1.73 8.25 7.48 13.7 13.7 13.7 5.64 0 11.7-3.69 13.1-13.7" style=""/><path d="m4149 1783v9h-9v-9zm0-39.2v9h-9v-9z" style=""/></g><g style="clip-path:url(#b)"><path d="m396 1550h51.3v51.3h-51.3z" style="fill:url(#e)"/></g><g style="fill:#fff"><path d="m586 1548v75.3h-12.4l-14.1-36.8c-3.81-9.88-8.91-23.3-10.1-28.4h-.109c-.547 2.29-1.84 6.3-3.47 10.8l-17 44.9-3.69 9.44h-12.3v-75.3h8.47v67.3h.109c.656-3.48 4.98-15.3 7.81-22.7l16.1-42.2h7.92l14.4 37.8 5.22 13.8c1.08 3.16 4.02 11 4.55 13.5l.11-.1v-67.3h8.47" style=""/><path d="m642 1572c0 3.68-.109 11.8-4.34 18.3-4.45 6.74-11.1 7.93-15 7.93-12 0-21.8-11.5-21.8-25.5 0-14.3 10.4-25.7 23.4-25.7 6.84 0 13 2.6 17.2 5.64l-.64 7.05c-6.84-5.64-14-6.08-16.5-6.08-8.69 0-15.6 7.71-16 18.4zm-6.19 5.96h-26.8c1.73 8.25 7.48 13.7 13.7 13.7 5.64 0 11.7-3.69 13.1-13.7" style=""/><path d="m723 1548v32.3c0 7.28-1.73 17-14.9 17-6.52 0-12.2-3.05-16.2-8.91-2.81 8.25-10.4 8.91-13.9 8.91-7.81 0-12.9-4.46-15.8-8.36v7.81h-7.81v-48.8h8.47v26.6c0 7.39 2.94 16.2 11 16.2 10.1 0 10.6-7.05 10.6-11.2v-31.6h8.47v26.6c0 7.39 2.92 16.2 11 16.2 10.1 0 10.6-7.05 10.6-11.2v-31.6h8.45" style=""/><path d="m783 1572c0 14.5-10.9 26.1-23.8 26.1-13.3 0-23.9-11.9-23.9-26.1 0-14.3 11.1-25.1 23.8-25.1 13 0 23.9 11 23.9 25.1zm-8.47 1.07c0-12.8-7.38-19.2-15.4-19.2-7.48 0-15.3 6.08-15.3 19.2 0 13.1 8.25 18.5 15.3 18.5 7.59 0 15.4-5.64 15.4-18.5" style=""/><path d="m819 1590v7.29c-9.66-.11-15.6-5.44-19-10.4v9.88h-7.61v-48.8h8.14v23.2c0 10.9 7.81 18.7 18.5 18.9" style=""/><path d="m869 1596h-8.14c-14.1-34.5-14.3-39.5-14.4-42h-.109c-.656 7.26-9.33 27.4-9.77 28.4l-5.86 13.6h-8.58l21-48.2-3.91-9.77c-2.81-6.29-4.66-6.29-6.17-6.29-1.75 0-5.22.44-8.47 1.73l.656-7.04c2.38-.55 5.42-.88 7.81-.88 3.8 0 7.81 1.31 12.2 12.4l23.7 58" style=""/><path d="m960 1572c0 13.5-7.38 25.2-17.6 25.2-4.23 0-11-1.1-17.5-6.41v32.3h-8.14v-75.3h8.47v4.98c2.61-2.37 7.27-6.17 14.5-6.17 10.8 0 20.2 10.8 20.2 25.4zm-8.45 0c0-14.1-9.12-18.8-15.7-18.8-4.24 0-7.81 1.96-10.5 6.96v24c1.74 2.61 5.64 6.41 11.6 6.41 6.41 0 14.7-4.67 14.7-18.6" style=""/><path d="m1011 1548v48.2h-8.47v-31.5c0-8.12-6.07-11.9-13-11.9-7.7 0-8.47 2.81-8.47 7.49v35.9h-8.47v-36.3c0-7.81 2.5-13 11.5-13 5.75 0 13.5 1.74 18.8 6.39v-5.2h8.14" style=""/><path d="m1073 1591-1.19 6.85c-7.6 0-13.9-2.07-17.2-3.49-2.26 1.86-5.97 3.49-10.3 3.49-9.34 0-17.2-7.82-17.2-17.7 0-4.02 1.41-7.92 3.58-10.8-3.15-4.44-3.15-8.67-3.15-9.22 0-2.83.98-5.97 2.82-8.25-5.64-3.36-6.95-8.34-6.95-11.2 0-8.14 10.8-14.7 24-14.7 13.3 0 24.1 6.41 24.1 14.8 0 15.1-18.1 15.1-22.4 15.1h-9.55c-1.4 0-6.29 0-6.29 5.75 0 1.21.43 2.94 1.2 3.91 2.28-1.62 5.86-3.14 9.87-3.14 9.77 0 17.4 8.03 17.4 17.7 0 5.2-2.39 9.22-3.57 10.8l.42-.11c2.39 0 5.44.44 8.03.44 1.95 0 6.41-.33 6.41-.33zm-18.9-10.8c0-8.47-5.11-11.5-9.77-11.5-4.01 0-9.65 2.48-9.65 11.5 0 9 5.64 11.5 9.65 11.5 4.66 0 9.77-3.05 9.77-11.5zm9.77-39.5c0-4.78-7.49-8.36-16.4-8.36-8.79 0-16.5 3.37-16.5 8.47 0 .33 0 7.37 8.45 7.37h9.77c2.39 0 14.7 0 14.7-7.48" style=""/><path d="m1114 1562c0 5.97-4.01 9.66-4.23 9.99-4.24 3.79-7.16 4.43-12.6 5.42-5.97 1.18-11 2.28-11 7.59 0 6.74 7.81 6.74 9.22 6.74 3.48 0 9.23-.44 15.4-4.13l1.3 7.05c-5.64 2.61-10.1 3.47-15.6 3.47-2.71 0-18 0-18-14.2 0-5.33 3.15-8.79 5.86-10.9 3.36-2.39 5.75-2.81 11.7-4.01 3.9-.75 10.2-2.06 10.2-7.81 0-7.49-8.58-7.49-10.2-7.49-8.78 0-14.9 4.02-16.8 5.31l-1.31-7.37c3.49-1.74 9.45-4.77 18.2-4.77 1.95 0 7.92 0 12.6 3.47 3.36 2.6 5.2 6.94 5.2 11.6" style=""/><path d="m1189 1521c-5.22 5.2-19 19.2-19 54.2 0 6.07.33 18.8 4.78 31.6 4.46 12.6 10.6 19.1 14.2 22.7h-6.62c-3.47-3.25-10.8-9.88-15.7-23.2-4.34-11.6-5.09-23.1-5.09-31 0-35 15.6-49.5 20.8-54.2h6.62" style=""/><path d="m1242 1548v48.2h-8.47v-31.5c0-8.12-6.07-11.9-13-11.9-7.7 0-8.47 2.81-8.47 7.49v35.9h-8.47v-36.3c0-7.81 2.5-13 11.5-13 5.75 0 13.4 1.74 18.8 6.39v-5.2h8.14" style=""/><path d="m1291 1562c0 5.97-4.01 9.66-4.23 9.99-4.24 3.79-7.16 4.43-12.6 5.42-5.97 1.18-11 2.28-11 7.59 0 6.74 7.81 6.74 9.22 6.74 3.48 0 9.23-.44 15.4-4.13l1.3 7.05c-5.64 2.61-10.1 3.47-15.6 3.47-2.71 0-18 0-18-14.2 0-5.33 3.15-8.79 5.86-10.9 3.36-2.39 5.75-2.81 11.7-4.01 3.9-.75 10.2-2.06 10.2-7.81 0-7.49-8.58-7.49-10.2-7.49-8.78 0-14.9 4.02-16.8 5.31l-1.31-7.37c3.49-1.74 9.45-4.77 18.2-4.77 1.95 0 7.92 0 12.6 3.47 3.36 2.6 5.2 6.94 5.2 11.6" style=""/><path d="m1339 1572c0 3.68-.11 11.8-4.34 18.3-4.45 6.74-11.1 7.93-15 7.93-12 0-21.8-11.5-21.8-25.5 0-14.3 10.4-25.7 23.4-25.7 6.85 0 13 2.6 17.2 5.64l-.64 7.05c-6.84-5.64-14-6.08-16.5-6.08-8.68 0-15.6 7.71-16 18.4zm-6.19 5.96h-26.8c1.73 8.25 7.48 13.7 13.7 13.7 5.64 0 11.7-3.69 13.1-13.7" style=""/><path d="m1372 1569v6.29h-28.8v-6.29z" style=""/><path d="m1422 1548v31.4c0 11.1-7.93 18.7-17.9 18.7-7.05 0-11.9-1.74-17-4.66l.65-7.17c5.64 4.01 11.1 5.44 16.4 5.44 5.11 0 9.45-4.35 9.45-12.4v-4.67c-16.3-.22-30.1-4.77-30.1-14.3 0-4.68 2.92-13.5 12.4-13.5 1.52 0 11.7.22 18 5.1v-3.91zm-8.46 14.3c0-2.06 0-4.78-3.7-6.85-3.14-1.95-7.27-2.06-8.45-2.06-5.22 0-10.1 2.5-10.1 7.06 0 7.6 17.6 8.35 22.2 8.57v-6.72" style=""/><path d="m1469 1616v7.27c-1.32.33-4.68 1.2-8.69 1.2-10.2 0-18-7.7-18-18.6v-9.77h-8.03v-6.28h8.03v-41.9h8.14v41.9h11.9v6.28h-12.3v12.9c0 8.04 7.28 8.79 10.1 8.79 2.17 0 5.11-.22 8.8-1.85" style=""/><path d="m1500 1551-1.75 6.41c-2.81-2.28-6.28-3.58-9.76-3.58-4.02 0-5.54 3.25-5.54 9v27.1h15.3v6.28h-15.3v13.8h-7.48v-13.8h-9.44v-6.28h9.11v-29c0-6.5 1.52-14.1 9.02-14.1 7.59 0 13.1 2.71 15.8 4.11" style=""/><path d="m1549 1572c0 3.68-.11 11.8-4.34 18.3-4.45 6.74-11.1 7.93-15 7.93-12 0-21.8-11.5-21.8-25.5 0-14.3 10.4-25.7 23.4-25.7 6.85 0 13 2.6 17.2 5.64l-.64 7.05c-6.84-5.64-14-6.08-16.5-6.08-8.68 0-15.6 7.71-16 18.4zm-6.19 5.96h-26.8c1.73 8.25 7.48 13.7 13.7 13.7 5.64 0 11.7-3.69 13.1-13.7" style=""/><path d="m1587 1590v7.29c-9.65-.11-15.6-5.44-19-10.4v9.88h-7.61v-48.8h8.14v23.2c0 10.9 7.81 18.7 18.4 18.9" style=""/><path d="m1619 1569v6.29h-28.8v-6.29z" style=""/><path d="m1664 1616v7.27c-1.32.33-4.68 1.2-8.69 1.2-10.2 0-18-7.7-18-18.6v-9.77h-8.03v-6.28h8.03v-41.9h8.14v41.9h11.9v6.28h-12.3v12.9c0 8.04 7.28 8.79 10.1 8.79 2.17 0 5.11-.22 8.8-1.85" style=""/><path d="m1694 1590v7.29c-9.65-.11-15.6-5.44-19-10.4v9.88h-7.61v-48.8h8.14v23.2c0 10.9 7.81 18.7 18.4 18.9" style=""/><path d="m1741 1572c0 3.68-.11 11.8-4.34 18.3-4.45 6.74-11.1 7.93-15 7.93-12 0-21.8-11.5-21.8-25.5 0-14.3 10.4-25.7 23.4-25.7 6.85 0 13 2.6 17.2 5.64l-.64 7.05c-6.84-5.64-14-6.08-16.5-6.08-8.68 0-15.6 7.71-16 18.4zm-6.19 5.96h-26.8c1.73 8.25 7.48 13.7 13.7 13.7 5.64 0 11.7-3.69 13.1-13.7" style=""/><path d="m1790 1572c0 3.68-.11 11.8-4.34 18.3-4.45 6.74-11.1 7.93-15 7.93-12 0-21.8-11.5-21.8-25.5 0-14.3 10.4-25.7 23.4-25.7 6.85 0 13 2.6 17.2 5.64l-.64 7.05c-6.84-5.64-14-6.08-16.5-6.08-8.68 0-15.6 7.71-16 18.4zm-6.19 5.96h-26.8c1.73 8.25 7.48 13.7 13.7 13.7 5.64 0 11.7-3.69 13.1-13.7" style=""/><path d="m1813 1548v8.89h-9v-9h2.7l-2.7-13.6h4.44l4.56 13.7" style=""/><path d="m1911 1572c0 14.5-10.9 26.1-23.8 26.1-13.4 0-23.9-11.9-23.9-26.1 0-14.3 11.1-25.1 23.8-25.1 13 0 23.9 11 23.9 25.1zm-8.47 1.07c0-12.8-7.37-19.2-15.4-19.2-7.49 0-15.3 6.08-15.3 19.2 0 13.1 8.25 18.5 15.3 18.5 7.59 0 15.4-5.64 15.4-18.5" style=""/><path d="m1961 1548v48.2h-8.47v-31.5c0-8.12-6.07-11.9-13-11.9-7.7 0-8.47 2.81-8.47 7.49v35.9h-8.47v-36.3c0-7.81 2.5-13 11.5-13 5.75 0 13.4 1.74 18.8 6.39v-5.2h8.14" style=""/><path d="m2007 1551-1.75 6.41c-2.81-2.28-6.28-3.58-9.76-3.58-4.02 0-5.54 3.25-5.54 9v27.1h15.3v6.28h-15.3v13.8h-7.48v-13.8h-9.44v-6.28h9.11v-29c0-6.5 1.52-14.1 9.02-14.1 7.59 0 13.1 2.71 15.8 4.11" style=""/><path d="m2040 1569v6.29h-28.8v-6.29z" style=""/><path d="m2098 1572c0 14.5-10.9 26.1-23.8 26.1-13.4 0-23.9-11.9-23.9-26.1 0-14.3 11.1-25.1 23.8-25.1 13 0 23.9 11 23.9 25.1zm-8.47 1.07c0-12.8-7.37-19.2-15.4-19.2-7.49 0-15.3 6.08-15.3 19.2 0 13.1 8.25 18.5 15.3 18.5 7.59 0 15.4-5.64 15.4-18.5" style=""/><path d="m2139 1616v7.27c-1.32.33-4.68 1.2-8.69 1.2-10.2 0-18-7.7-18-18.6v-9.77h-8.03v-6.28h8.03v-41.9h8.14v41.9h11.9v6.28h-12.3v12.9c0 8.04 7.28 8.79 10.1 8.79 2.17 0 5.11-.22 8.8-1.85" style=""/><path d="m2164 1569v6.29h-28.8v-6.29z" style=""/><path d="m2223 1572c0 13.5-7.38 25.2-17.6 25.2-4.23 0-11-1.1-17.5-6.41v32.3h-8.14v-75.3h8.47v4.98c2.61-2.37 7.27-6.17 14.6-6.17 10.8 0 20.2 10.8 20.2 25.4zm-8.45 0c0-14.1-9.13-18.8-15.7-18.8-4.23 0-7.81 1.96-10.5 6.96v24c1.73 2.61 5.64 6.41 11.6 6.41 6.41 0 14.7-4.67 14.7-18.6" style=""/><path d="m2281 1572c0 14.5-10.9 26.1-23.8 26.1-13.4 0-23.9-11.9-23.9-26.1 0-14.3 11.1-25.1 23.8-25.1 13 0 23.9 11 23.9 25.1zm-8.47 1.07c0-12.8-7.37-19.2-15.4-19.2-7.49 0-15.3 6.08-15.3 19.2 0 13.1 8.25 18.5 15.3 18.5 7.59 0 15.4-5.64 15.4-18.5" style=""/><path d="m2332 1548v48.2h-8.47v-31.5c0-8.12-6.07-11.9-13-11.9-7.7 0-8.47 2.81-8.47 7.49v35.9h-8.47v-36.3c0-7.81 2.5-13 11.5-13 5.75 0 13.4 1.74 18.8 6.39v-5.2h8.14" style=""/><path d="m2388 1548v32.3c0 7.17-1.62 17-14.9 17-9.77 0-15.1-7.4-15.7-8.25v7.7h-7.81v-48.8h8.47v26.6c0 7.17 2.72 16.2 11 16.2 10.4 0 10.5-7.7 10.5-11.2v-31.6h8.47" style=""/><path d="m2445 1548v75.3h-8.14v-31.9c-5.75 4.76-11.8 5.97-15.8 5.97-10.7 0-19.2-11.3-19.2-25.3 0-14.2 8.36-25.3 18.6-25.3 3.6 0 9.99.97 16.1 6.83v-5.64zm-8.46 15.1c0-1.52-.11-3.47-3.58-6.61-2.5-2.17-5.21-3.05-8.03-3.05-6.72 0-14.6 5.11-14.6 18.6 0 14.3 9.32 18.8 15.7 18.8 4.87 0 8.12-2.5 10.5-5.97v-21.7" style=""/><path d="m2493 1562c0 5.97-4.01 9.66-4.23 9.99-4.24 3.79-7.16 4.43-12.6 5.42-5.97 1.18-11 2.28-11 7.59 0 6.74 7.81 6.74 9.22 6.74 3.48 0 9.23-.44 15.4-4.13l1.3 7.05c-5.64 2.61-10.1 3.47-15.6 3.47-2.71 0-18 0-18-14.2 0-5.33 3.15-8.79 5.86-10.9 3.36-2.39 5.75-2.81 11.7-4.01 3.9-.75 10.2-2.06 10.2-7.81 0-7.49-8.58-7.49-10.2-7.49-8.78 0-14.9 4.02-16.8 5.31l-1.31-7.37c3.49-1.74 9.45-4.77 18.2-4.77 1.95 0 7.92 0 12.6 3.47 3.36 2.6 5.2 6.94 5.2 11.6" style=""/><path d="m2567 1590v7.29c-9.65-.11-15.6-5.44-19-10.4v9.88h-7.61v-48.8h8.14v23.2c0 10.9 7.81 18.7 18.4 18.9" style=""/><path d="m2614 1572c0 3.68-.11 11.8-4.34 18.3-4.45 6.74-11.1 7.93-15 7.93-12 0-21.8-11.5-21.8-25.5 0-14.3 10.4-25.7 23.4-25.7 6.85 0 13 2.6 17.2 5.64l-.64 7.05c-6.84-5.64-14-6.08-16.5-6.08-8.68 0-15.6 7.71-16 18.4zm-6.19 5.96h-26.8c1.73 8.25 7.48 13.7 13.7 13.7 5.64 0 11.7-3.69 13.1-13.7" style=""/><path d="m2662 1548v31.4c0 11.1-7.93 18.7-17.9 18.7-7.05 0-11.9-1.74-17-4.66l.65-7.17c5.64 4.01 11.1 5.44 16.4 5.44 5.11 0 9.45-4.35 9.45-12.4v-4.67c-16.3-.22-30.1-4.77-30.1-14.3 0-4.68 2.92-13.5 12.4-13.5 1.52 0 11.7.22 18 5.1v-3.91zm-8.46 14.3c0-2.06 0-4.78-3.7-6.85-3.14-1.95-7.27-2.06-8.45-2.06-5.22 0-10.1 2.5-10.1 7.06 0 7.6 17.6 8.35 22.2 8.57v-6.72" style=""/><path d="m2717 1548v75.3h-8.14v-31.9c-5.75 4.76-11.8 5.97-15.8 5.97-10.7 0-19.2-11.3-19.2-25.3 0-14.2 8.36-25.3 18.6-25.3 3.6 0 9.99.97 16.1 6.83v-5.64zm-8.46 15.1c0-1.52-.11-3.47-3.58-6.61-2.5-2.17-5.21-3.05-8.03-3.05-6.72 0-14.6 5.11-14.6 18.6 0 14.3 9.32 18.8 15.7 18.8 4.87 0 8.12-2.5 10.5-5.97v-21.7" style=""/><path d="m2766 1562c0 5.97-4.01 9.66-4.23 9.99-4.24 3.79-7.16 4.43-12.6 5.42-5.97 1.18-11 2.28-11 7.59 0 6.74 7.81 6.74 9.22 6.74 3.48 0 9.23-.44 15.4-4.13l1.3 7.05c-5.64 2.61-10.1 3.47-15.6 3.47-2.71 0-18 0-18-14.2 0-5.33 3.15-8.79 5.86-10.9 3.36-2.39 5.75-2.81 11.7-4.01 3.9-.75 10.2-2.06 10.2-7.81 0-7.49-8.58-7.49-10.2-7.49-8.78 0-14.9 4.02-16.8 5.31l-1.31-7.37c3.49-1.74 9.45-4.77 18.2-4.77 1.95 0 7.92 0 12.6 3.47 3.36 2.6 5.2 6.94 5.2 11.6" style=""/><path d="m2849 1548v31.4c0 11.1-7.93 18.7-17.9 18.7-7.05 0-11.9-1.74-17-4.66l.65-7.17c5.64 4.01 11.1 5.44 16.4 5.44 5.11 0 9.45-4.35 9.45-12.4v-4.67c-16.3-.22-30.1-4.77-30.1-14.3 0-4.68 2.92-13.5 12.4-13.5 1.52 0 11.7.22 18 5.1v-3.91zm-8.46 14.3c0-2.06 0-4.78-3.7-6.85-3.14-1.95-7.27-2.06-8.45-2.06-5.22 0-10.1 2.5-10.1 7.06 0 7.6 17.6 8.35 22.2 8.57v-6.72" style=""/><path d="m2904 1548v32.3c0 7.17-1.62 17-14.9 17-9.77 0-15.1-7.4-15.7-8.25v7.7h-7.81v-48.8h8.47v26.6c0 7.17 2.72 16.2 11 16.2 10.4 0 10.5-7.7 10.5-11.2v-31.6h8.47" style=""/><path d="m2961 1548v75.3h-8.14v-31.9c-5.75 4.76-11.8 5.97-15.8 5.97-10.7 0-19.2-11.3-19.2-25.3 0-14.2 8.36-25.3 18.6-25.3 3.6 0 9.99.97 16.1 6.83v-5.64zm-8.46 15.1c0-1.52-.11-3.47-3.58-6.61-2.5-2.17-5.21-3.05-8.03-3.05-6.72 0-14.6 5.11-14.6 18.6 0 14.3 9.32 18.8 15.7 18.8 4.87 0 8.12-2.5 10.5-5.97v-21.7" style=""/><path d="m3078 1596h-7.92l-6.95-23c-1.19-3.9-4.44-14.6-4.98-19.3h-.11c-.44 3.36-3.14 13-4.99 19.2l-7.06 23.1h-7.59l-6.19-20.4c-1.19-3.8-4.88-16.3-5.31-21.8h-.11c-.55 5.2-4.13 17.5-5.86 23.4l-5.64 18.8h-8.25l14.9-48.2h8.56l6.74 22.4c1.51 4.98 4.54 15.7 4.87 19.7h.11c.22-3.03 2.06-10.5 3.47-15.2l7.92-26.9h9.55l14.9 48.2" style=""/><path d="m3116 1590v7.29c-9.65-.11-15.6-5.44-19-10.4v9.88h-7.61v-48.8h8.14v23.2c0 10.9 7.81 18.7 18.4 18.9" style=""/><path d="m3135 1548v48.2h-8.14v-48.2zm.88 61.4v9.66h-9.66v-9.66z" style=""/><path d="m3180 1551-1.75 6.41c-2.81-2.28-6.28-3.58-9.76-3.58-4.02 0-5.54 3.25-5.54 9v27.1h15.3v6.28h-15.3v13.8h-7.48v-13.8h-9.44v-6.28h9.11v-29c0-6.5 1.52-14.1 9.02-14.1 7.59 0 13.1 2.71 15.8 4.11" style=""/><path d="m3229 1572c0 3.68-.11 11.8-4.34 18.3-4.45 6.74-11.1 7.93-15 7.93-12 0-21.8-11.5-21.8-25.5 0-14.3 10.4-25.7 23.4-25.7 6.85 0 13 2.6 17.2 5.64l-.64 7.05c-6.84-5.64-14-6.08-16.5-6.08-8.68 0-15.6 7.71-16 18.4zm-6.19 5.96h-26.8c1.73 8.25 7.48 13.7 13.7 13.7 5.64 0 11.7-3.69 13.1-13.7" style=""/><path d="m3271 1562c0 5.97-4.01 9.66-4.23 9.99-4.24 3.79-7.16 4.43-12.6 5.42-5.97 1.18-11 2.28-11 7.59 0 6.74 7.81 6.74 9.22 6.74 3.48 0 9.23-.44 15.4-4.13l1.3 7.05c-5.64 2.61-10.1 3.47-15.6 3.47-2.71 0-18 0-18-14.2 0-5.33 3.15-8.79 5.86-10.9 3.36-2.39 5.75-2.81 11.7-4.01 3.9-.75 10.2-2.06 10.2-7.81 0-7.49-8.58-7.49-10.2-7.49-8.78 0-14.9 4.02-16.8 5.31l-1.31-7.37c3.49-1.74 9.45-4.77 18.2-4.77 1.95 0 7.92 0 12.6 3.47 3.36 2.6 5.2 6.94 5.2 11.6" style=""/><path d="m3294 1548v8.89h-9v-9h2.7l-2.7-13.6h4.44l4.56 13.7" style=""/><path d="m3361 1548v9h-9v-9z" style=""/><path d="m3391 1548v9h-9v-9z" style=""/><path d="m3421 1548v9h-9v-9z" style=""/><path d="m3466 1575c0 35-15.6 49.5-20.8 54.2h-6.61c5.2-5.21 19-19.2 19-54.2 0-6.08-.33-18.8-4.76-31.6-4.46-12.6-10.6-19.1-14.2-22.7h6.61c3.48 3.25 10.8 9.87 15.7 23.2 4.35 11.6 5.11 23.1 5.11 31" style=""/><path d="m3494 1587v9h-9v-9zm0-39.1v8.89h-9v-9h2.7l-2.7-13.6h4.44l4.56 13.7" style=""/></g><g style="clip-path:url(#c)"><path d="m396 1385h51.3v51.3h-51.3z" style="fill:url(#f)"/></g><g style="fill:#fff"><path d="m574 1420c0 21-14.6 38.3-33.3 38.3h-28.4v-75.3h28.5c18.5 0 33.2 16.5 33.2 37zm-9.33 0c0-18.4-11.3-30.9-26.5-30.9h-16.6v63.2h16.6c15.2 0 26.5-13.1 26.5-32.2" style=""/><path d="m624 1383v31.4c0 11.1-7.92 18.7-17.9 18.7-7.05 0-11.9-1.74-17-4.66l.656-7.17c5.64 4.01 11.1 5.44 16.4 5.44 5.11 0 9.45-4.35 9.45-12.4v-4.67c-16.3-.22-30.1-4.77-30.1-14.3 0-4.68 2.92-13.5 12.4-13.5 1.52 0 11.7.22 18 5.1v-3.91zm-8.45 14.3c0-2.06 0-4.78-3.7-6.85-3.14-1.95-7.27-2.06-8.45-2.06-5.22 0-10.1 2.5-10.1 7.06 0 7.6 17.6 8.35 22.2 8.57v-6.72" style=""/><path d="m669 1386-1.75 6.41c-2.81-2.28-6.28-3.58-9.76-3.58-4.02 0-5.53 3.25-5.53 9v27.1h15.3v6.28h-15.3v13.8h-7.48v-13.8h-9.44v-6.28h9.11v-29c0-6.5 1.52-14.1 9.02-14.1 7.59 0 13.1 2.71 15.8 4.11" style=""/><path d="m716 1383v31.4c0 11.1-7.92 18.7-17.9 18.7-7.05 0-11.9-1.74-17-4.66l.656-7.17c5.64 4.01 11.1 5.44 16.4 5.44 5.11 0 9.45-4.35 9.45-12.4v-4.67c-16.3-.22-30.1-4.77-30.1-14.3 0-4.68 2.92-13.5 12.4-13.5 1.52 0 11.7.22 18 5.1v-3.91zm-8.45 14.3c0-2.06 0-4.78-3.7-6.85-3.14-1.95-7.27-2.06-8.45-2.06-5.22 0-10.1 2.5-10.1 7.06 0 7.6 17.6 8.35 22.2 8.57v-6.72" style=""/><path d="m796 1425v7.29c-9.66-.11-15.6-5.44-19-10.4v9.88h-7.61v-48.8h8.14v23.2c0 10.9 7.81 18.7 18.5 18.9" style=""/><path d="m842 1383v31.4c0 11.1-7.92 18.7-17.9 18.7-7.05 0-11.9-1.74-17-4.66l.656-7.17c5.64 4.01 11.1 5.44 16.4 5.44 5.11 0 9.45-4.35 9.45-12.4v-4.67c-16.3-.22-30.1-4.77-30.1-14.3 0-4.68 2.92-13.5 12.4-13.5 1.52 0 11.7.22 18 5.1v-3.91zm-8.45 14.3c0-2.06 0-4.78-3.7-6.85-3.14-1.95-7.27-2.06-8.45-2.06-5.22 0-10.1 2.5-10.1 7.06 0 7.6 17.6 8.35 22.2 8.57v-6.72" style=""/><path d="m896 1387-.656 7.27c-5.53-4.34-11.4-5.86-16.9-5.86-9 0-15.1 7.81-15.1 18.4 0 8.46 4.02 18.9 15.5 18.9 5.64 0 9.33-.88 15.3-4.78l1.3 7.06c-6.41 3.69-10.1 4.66-16.7 4.66-15.1 0-23.9-13.1-23.9-25.9 0-13.4 9.88-25.3 23.4-25.3 5.86 0 11.8 1.52 17.7 5.53" style=""/><path d="m944 1407c0 3.68-.109 11.8-4.34 18.3-4.45 6.74-11.1 7.93-15 7.93-12 0-21.8-11.5-21.8-25.5 0-14.3 10.4-25.7 23.4-25.7 6.84 0 13 2.6 17.2 5.64l-.64 7.05c-6.84-5.64-14-6.08-16.5-6.08-8.69 0-15.6 7.71-16 18.4zm-6.19 5.96h-26.8c1.73 8.25 7.48 13.7 13.7 13.7 5.64 0 11.7-3.69 13.1-13.7" style=""/><path d="m987 1397c0 5.97-4.02 9.66-4.24 9.99-4.23 3.79-7.16 4.43-12.6 5.42-5.97 1.18-11 2.28-11 7.59 0 6.74 7.81 6.74 9.22 6.74 3.48 0 9.23-.44 15.4-4.13l1.3 7.05c-5.64 2.61-10.1 3.47-15.6 3.47-2.72 0-18 0-18-14.2 0-5.33 3.16-8.79 5.86-10.9 3.36-2.39 5.75-2.81 11.7-4.01 3.91-.75 10.2-2.06 10.2-7.81 0-7.49-8.58-7.49-10.2-7.49-8.78 0-14.9 4.02-16.8 5.31l-1.31-7.37c3.48-1.74 9.45-4.77 18.2-4.77 1.95 0 7.92 0 12.6 3.47 3.36 2.6 5.2 6.94 5.2 11.6" style=""/><path d="m1009 1422v9h-9v-9zm0-39.1v8.89h-9v-9h2.7l-2.7-13.6h4.44l4.56 13.7" style=""/></g><g style="clip-path:url(#d)"><path d="m396 1220h51.3v51.3h-51.3z" style="fill:url(#g)"/></g><g style="fill:#fff"><path d="m556 1218v7.16l-29-.22h-5.31v68.4h-9.66v-75.3h43.9" style=""/><path d="m612 1242c0 14.5-10.9 26.1-23.8 26.1-13.3 0-23.9-11.9-23.9-26.1 0-14.3 11.1-25.1 23.8-25.1 13 0 23.9 11 23.9 25.1zm-8.47 1.07c0-12.8-7.38-19.2-15.4-19.2-7.48 0-15.3 6.08-15.3 19.2 0 13.1 8.25 18.5 15.3 18.5 7.59 0 15.4-5.64 15.4-18.5" style=""/><path d="m668 1261-1.19 6.85c-7.59 0-13.9-2.07-17.2-3.49-2.26 1.86-5.97 3.49-10.3 3.49-9.34 0-17.2-7.82-17.2-17.7 0-4.02 1.41-7.92 3.58-10.8-3.16-4.44-3.16-8.67-3.16-9.22 0-2.83.985-5.97 2.83-8.25-5.64-3.36-6.95-8.34-6.95-11.2 0-8.14 10.8-14.7 24-14.7 13.3 0 24.1 6.41 24.1 14.8 0 15.1-18.1 15.1-22.4 15.1h-9.55c-1.41 0-6.3 0-6.3 5.75 0 1.21.438 2.94 1.2 3.91 2.28-1.62 5.86-3.14 9.88-3.14 9.77 0 17.4 8.03 17.4 17.7 0 5.2-2.39 9.22-3.58 10.8l.422-.11c2.39 0 5.44.44 8.03.44 1.95 0 6.41-.33 6.41-.33zm-18.9-10.8c0-8.47-5.11-11.5-9.77-11.5-4.02 0-9.66 2.48-9.66 11.5 0 9 5.64 11.5 9.66 11.5 4.66 0 9.77-3.05 9.77-11.5zm9.77-39.5c0-4.78-7.48-8.36-16.4-8.36-8.78 0-16.5 3.37-16.5 8.47 0 .33 0 7.37 8.45 7.37h9.76c2.39 0 14.7 0 14.7-7.48" style=""/><path d="m687 1218v48.2h-8.14v-48.2zm.875 61.4v9.66h-9.66v-9.66z" style=""/><path d="m741 1222-.656 7.27c-5.53-4.34-11.4-5.86-16.9-5.86-9 0-15.1 7.81-15.1 18.4 0 8.46 4.02 18.9 15.5 18.9 5.64 0 9.33-.88 15.3-4.78l1.3 7.06c-6.41 3.69-10.1 4.66-16.7 4.66-15.1 0-23.9-13.1-23.9-25.9 0-13.4 9.88-25.3 23.4-25.3 5.86 0 11.8 1.52 17.7 5.53" style=""/><path d="m826 1242c0 3.68-.109 11.8-4.34 18.3-4.45 6.74-11.1 7.93-15 7.93-12 0-21.8-11.5-21.8-25.5 0-14.3 10.4-25.7 23.4-25.7 6.84 0 13 2.6 17.2 5.64l-.64 7.05c-6.84-5.64-14-6.08-16.5-6.08-8.69 0-15.6 7.71-16 18.4zm-6.19 5.96h-26.8c1.73 8.25 7.48 13.7 13.7 13.7 5.64 0 11.7-3.69 13.1-13.7" style=""/><path d="m864 1260v7.29c-9.66-.11-15.6-5.44-19-10.4v9.88h-7.61v-48.8h8.14v23.2c0 10.9 7.81 18.7 18.5 18.9" style=""/><path d="m901 1260v7.29c-9.66-.11-15.6-5.44-19-10.4v9.88h-7.61v-48.8h8.14v23.2c0 10.9 7.81 18.7 18.5 18.9" style=""/><path d="m955 1242c0 14.5-10.9 26.1-23.8 26.1-13.3 0-23.9-11.9-23.9-26.1 0-14.3 11.1-25.1 23.8-25.1 13 0 23.9 11 23.9 25.1zm-8.47 1.07c0-12.8-7.38-19.2-15.4-19.2-7.48 0-15.3 6.08-15.3 19.2 0 13.1 8.25 18.5 15.3 18.5 7.59 0 15.4-5.64 15.4-18.5" style=""/><path d="m990 1260v7.29c-9.66-.11-15.6-5.44-19-10.4v9.88h-7.61v-48.8h8.14v23.2c0 10.9 7.81 18.7 18.5 18.9" style=""/><path d="m1032 1232c0 5.97-4.01 9.66-4.23 9.99-4.24 3.79-7.16 4.43-12.6 5.42-5.97 1.18-11 2.28-11 7.59 0 6.74 7.81 6.74 9.22 6.74 3.48 0 9.23-.44 15.4-4.13l1.3 7.05c-5.64 2.61-10.1 3.47-15.6 3.47-2.71 0-18 0-18-14.2 0-5.33 3.16-8.79 5.86-10.9 3.36-2.39 5.75-2.81 11.7-4.01 3.9-.75 10.2-2.06 10.2-7.81 0-7.49-8.58-7.49-10.2-7.49-8.78 0-14.9 4.02-16.8 5.31l-1.31-7.37c3.48-1.74 9.45-4.77 18.2-4.77 1.95 0 7.92 0 12.6 3.47 3.36 2.6 5.2 6.94 5.2 11.6" style=""/><path d="m1054 1257v9h-9v-9zm0-39.1v8.89h-9v-9h2.7l-2.7-13.6h4.44l4.56 13.7" style=""/><path d="m367 1022v75.3h-12.4l-14.1-36.8c-3.81-9.88-8.91-23.3-10.1-28.4h-.109c-.547 2.29-1.84 6.3-3.47 10.8l-17 44.9-3.69 9.44h-12.3v-75.3h8.47v67.3h.109c.656-3.48 4.98-15.3 7.81-22.7l16.1-42.2h7.92l14.4 37.8 5.22 13.8c1.08 3.16 4.02 11 4.55 13.5l.11-.1v-67.3h8.47" style=""/><path d="m430 1046c0 14.5-10.9 26.1-23.8 26.1-13.3 0-23.9-11.9-23.9-26.1 0-14.3 11.1-25.1 23.8-25.1 13 0 23.9 11 23.9 25.1zm-8.47 1.07c0-12.8-7.38-19.2-15.4-19.2-7.48 0-15.3 6.08-15.3 19.2 0 13.1 8.25 18.5 15.3 18.5 7.59 0 15.4-5.64 15.4-18.5" style=""/><path d="m472 1036c0 5.97-4.02 9.66-4.24 9.99-4.23 3.79-7.16 4.43-12.6 5.42-5.97 1.18-11 2.28-11 7.59 0 6.74 7.81 6.74 9.22 6.74 3.48 0 9.23-.44 15.4-4.13l1.3 7.05c-5.64 2.61-10.1 3.47-15.6 3.47-2.72 0-18 0-18-14.2 0-5.33 3.16-8.79 5.86-10.9 3.36-2.39 5.75-2.81 11.7-4.01 3.91-.75 10.2-2.06 10.2-7.81 0-7.49-8.58-7.49-10.2-7.49-8.78 0-14.9 4.02-16.8 5.31l-1.31-7.37c3.48-1.74 9.45-4.77 18.2-4.77 1.95 0 7.92 0 12.6 3.47 3.36 2.6 5.2 6.94 5.2 11.6" style=""/><path d="m511 1025-1.75 6.41c-2.81-2.28-6.28-3.58-9.76-3.58-4.02 0-5.53 3.25-5.53 9v27.1h15.3v6.28h-15.3v13.8h-7.48v-13.8h-9.44v-6.28h9.11v-29c0-6.5 1.52-14.1 9.02-14.1 7.59 0 13.1 2.71 15.8 4.11" style=""/><path d="m602 1046c0 14.5-10.9 26.1-23.8 26.1-13.3 0-23.9-11.9-23.9-26.1 0-14.3 11.1-25.1 23.8-25.1 13 0 23.9 11 23.9 25.1zm-8.47 1.07c0-12.8-7.38-19.2-15.4-19.2-7.48 0-15.3 6.08-15.3 19.2 0 13.1 8.25 18.5 15.3 18.5 7.59 0 15.4-5.64 15.4-18.5" style=""/><path d="m643 1090v7.27c-1.31.33-4.67 1.2-8.69 1.2-10.2 0-18-7.7-18-18.6v-9.77h-8.03v-6.28h8.03v-41.9h8.14v41.9h11.9v6.28h-12.3v12.9c0 8.04 7.28 8.79 10.1 8.79 2.17 0 5.11-.22 8.8-1.85" style=""/><path d="m711 1025-1.75 6.41c-2.81-2.28-6.28-3.58-9.76-3.58-4.02 0-5.53 3.25-5.53 9v27.1h15.3v6.28h-15.3v13.8h-7.48v-13.8h-9.44v-6.28h9.11v-29c0-6.5 1.52-14.1 9.02-14.1 7.59 0 13.1 2.71 15.8 4.11" style=""/><path d="m762 1022v32.3c0 7.17-1.62 17-14.9 17-6.72 0-11.9-3.38-15.4-7.82v33.7h-8.14v-75.3h8.47v26.6c0 7.17 2.72 16.2 11 16.2 10.4 0 10.5-7.7 10.5-11.2v-31.6h8.47" style=""/><path d="m816 1046c0 3.68-.109 11.8-4.34 18.3-4.45 6.74-11.1 7.93-15 7.93-12 0-21.8-11.5-21.8-25.5 0-14.3 10.4-25.7 23.4-25.7 6.84 0 13 2.6 17.2 5.64l-.64 7.05c-6.84-5.64-14-6.08-16.5-6.08-8.69 0-15.6 7.71-16 18.4zm-6.19 5.96h-26.8c1.73 8.25 7.48 13.7 13.7 13.7 5.64 0 11.7-3.69 13.1-13.7" style=""/><path d="m908 1046c0 13.5-7.38 25.2-17.6 25.2-4.23 0-11-1.1-17.5-6.41v32.3h-8.14v-75.3h8.47v4.98c2.61-2.37 7.27-6.17 14.5-6.17 10.8 0 20.2 10.8 20.2 25.4zm-8.45 0c0-14.1-9.12-18.8-15.7-18.8-4.24 0-7.81 1.96-10.5 6.96v24c1.74 2.61 5.64 6.41 11.6 6.41 6.41 0 14.7-4.67 14.7-18.6" style=""/><path d="m959 1022v48.2h-8.47v-31.5c0-8.12-6.08-11.9-13-11.9-7.7 0-8.47 2.81-8.47 7.49v35.9h-8.47v-36.3c0-7.81 2.5-13 11.5-13 5.75 0 13.5 1.74 18.8 6.39v-5.2h8.14" style=""/><path d="m1022 1065-1.19 6.85c-7.6 0-13.9-2.07-17.2-3.49-2.26 1.86-5.97 3.49-10.3 3.49-9.34 0-17.2-7.82-17.2-17.7 0-4.02 1.41-7.92 3.58-10.8-3.16-4.44-3.16-8.67-3.16-9.22 0-2.83.985-5.97 2.83-8.25-5.64-3.36-6.95-8.34-6.95-11.2 0-8.14 10.8-14.7 24-14.7 13.3 0 24.1 6.41 24.1 14.8 0 15.1-18.1 15.1-22.4 15.1h-9.55c-1.41 0-6.3 0-6.3 5.75 0 1.21.438 2.94 1.2 3.91 2.28-1.62 5.86-3.14 9.88-3.14 9.77 0 17.4 8.03 17.4 17.7 0 5.2-2.39 9.22-3.57 10.8l.42-.11c2.39 0 5.44.44 8.03.44 1.95 0 6.41-.33 6.41-.33zm-18.9-10.8c0-8.47-5.11-11.5-9.77-11.5-4.02 0-9.66 2.48-9.66 11.5 0 9 5.64 11.5 9.66 11.5 4.66 0 9.77-3.05 9.77-11.5zm9.77-39.5c0-4.78-7.49-8.36-16.4-8.36-8.78 0-16.5 3.37-16.5 8.47 0 .33 0 7.37 8.45 7.37h9.76c2.39 0 14.7 0 14.7-7.48" style=""/><path d="m1062 1036c0 5.97-4.01 9.66-4.23 9.99-4.24 3.79-7.16 4.43-12.6 5.42-5.97 1.18-11 2.28-11 7.59 0 6.74 7.81 6.74 9.22 6.74 3.48 0 9.23-.44 15.4-4.13l1.3 7.05c-5.64 2.61-10.1 3.47-15.6 3.47-2.71 0-18 0-18-14.2 0-5.33 3.15-8.79 5.86-10.9 3.36-2.39 5.75-2.81 11.7-4.01 3.9-.75 10.2-2.06 10.2-7.81 0-7.49-8.58-7.49-10.2-7.49-8.78 0-14.9 4.02-16.8 5.31l-1.31-7.37c3.49-1.74 9.45-4.77 18.2-4.77 1.95 0 7.92 0 12.6 3.47 3.36 2.6 5.2 6.94 5.2 11.6" style=""/><path d="m1145 1022v31.4c0 11.1-7.93 18.7-17.9 18.7-7.05 0-11.9-1.74-17-4.66l.65-7.17c5.64 4.01 11.1 5.44 16.4 5.44 5.11 0 9.45-4.35 9.45-12.4v-4.67c-16.3-.22-30.1-4.77-30.1-14.3 0-4.68 2.92-13.5 12.4-13.5 1.52 0 11.7.22 18 5.1v-3.91zm-8.46 14.3c0-2.06 0-4.78-3.7-6.85-3.14-1.95-7.27-2.06-8.45-2.06-5.22 0-10.1 2.5-10.1 7.06 0 7.6 17.6 8.35 22.2 8.57v-6.72" style=""/><path d="m1186 1064v7.29c-9.65-.11-15.6-5.44-19-10.4v9.88h-7.61v-48.8h8.14v23.2c0 10.9 7.81 18.7 18.4 18.9" style=""/><path d="m1233 1046c0 3.68-.11 11.8-4.34 18.3-4.45 6.74-11.1 7.93-15 7.93-12 0-21.8-11.5-21.8-25.5 0-14.3 10.4-25.7 23.4-25.7 6.85 0 13 2.6 17.2 5.64l-.64 7.05c-6.84-5.64-14-6.08-16.5-6.08-8.68 0-15.6 7.71-16 18.4zm-6.19 5.96h-26.8c1.73 8.25 7.48 13.7 13.7 13.7 5.64 0 11.7-3.69 13.1-13.7" style=""/><path d="m1350 1022v32.3c0 7.28-1.73 17-14.9 17-6.52 0-12.2-3.05-16.2-8.91-2.81 8.25-10.4 8.91-13.9 8.91-7.81 0-12.9-4.46-15.8-8.36v7.81h-7.81v-48.8h8.47v26.6c0 7.39 2.94 16.2 11 16.2 10.1 0 10.6-7.05 10.6-11.2v-31.6h8.47v26.6c0 7.39 2.92 16.2 11 16.2 10.1 0 10.6-7.05 10.6-11.2v-31.6h8.45" style=""/><path d="m1410 1046c0 14.5-10.9 26.1-23.8 26.1-13.4 0-23.9-11.9-23.9-26.1 0-14.3 11.1-25.1 23.8-25.1 13 0 23.9 11 23.9 25.1zm-8.47 1.07c0-12.8-7.37-19.2-15.4-19.2-7.49 0-15.3 6.08-15.3 19.2 0 13.1 8.25 18.5 15.3 18.5 7.59 0 15.4-5.64 15.4-18.5" style=""/><path d="m1446 1064v7.29c-9.65-.11-15.6-5.44-19-10.4v9.88h-7.61v-48.8h8.14v23.2c0 10.9 7.81 18.7 18.4 18.9" style=""/><path d="m1493 1046c0 3.68-.11 11.8-4.34 18.3-4.45 6.74-11.1 7.93-15 7.93-12 0-21.8-11.5-21.8-25.5 0-14.3 10.4-25.7 23.4-25.7 6.85 0 13 2.6 17.2 5.64l-.64 7.05c-6.84-5.64-14-6.08-16.5-6.08-8.68 0-15.6 7.71-16 18.4zm-6.19 5.96h-26.8c1.73 8.25 7.48 13.7 13.7 13.7 5.64 0 11.7-3.69 13.1-13.7" style=""/><path d="m1580 1022v75.3h-8.14v-31.9c-5.75 4.76-11.8 5.97-15.8 5.97-10.7 0-19.2-11.3-19.2-25.3 0-14.2 8.36-25.3 18.6-25.3 3.6 0 9.99.97 16.1 6.83v-5.64zm-8.46 15.1c0-1.52-.11-3.47-3.58-6.61-2.5-2.17-5.21-3.05-8.03-3.05-6.72 0-14.6 5.11-14.6 18.6 0 14.3 9.32 18.8 15.7 18.8 4.87 0 8.12-2.5 10.5-5.97v-21.7" style=""/><path d="m1606 1022v48.2h-8.14v-48.2zm.88 61.4v9.66h-9.66v-9.66z" style=""/><path d="m1695 1088v9h-9v-9zm-.44-66.4v48.2h-8.12v-48.2zm-17.2 41.9v6.28h-13.1v13.1c0 6.94 3.9 8.57 6.62 8.57 2.27 0 4.55-.65 6.5-1.85v7.38c-2.39.87-3.14 1.09-6.5 1.09-8.03 0-14.4-7.59-14.4-18.4v-58h8.14v41.9zm-27.4 26.1v7.27c-2.28.76-4.98 1.2-7.48 1.2-9.11 0-16.2-7.59-16.2-18.6v-9.77h-8.03v-6.28h8.03v-41.9h8.14v41.9h12.8v6.28h-13.1v13c0 7.6 5.54 8.68 8.25 8.68 1.73 0 4.45-.22 7.59-1.85" style=""/><path d="m1749 1026-.65 7.27c-5.54-4.34-11.4-5.86-16.9-5.86-9 0-15.1 7.81-15.1 18.4 0 8.46 4.01 18.9 15.5 18.9 5.64 0 9.33-.88 15.3-4.78l1.29 7.06c-6.4 3.69-10.1 4.66-16.7 4.66-15.1 0-23.9-13.1-23.9-25.9 0-13.4 9.87-25.3 23.4-25.3 5.86 0 11.8 1.52 17.7 5.53" style=""/><path d="m1800 1022v48.2h-8.47v-31.5c0-8.12-6.07-11.9-13-11.9-7.7 0-8.47 2.81-8.47 7.49v35.9h-8.47v-36.3c0-7.81 2.5-13 11.5-13 5.75 0 13.4 1.74 18.8 6.39v-5.2h8.14" style=""/><path d="m1826 1022v75.3h-8.14v-75.3z" style=""/><path d="m1871 1025-1.75 6.41c-2.81-2.28-6.28-3.58-9.76-3.58-4.02 0-5.54 3.25-5.54 9v27.1h15.3v6.28h-15.3v13.8h-7.48v-13.8h-9.44v-6.28h9.11v-29c0-6.5 1.52-14.1 9.02-14.1 7.59 0 13.1 2.71 15.8 4.11" style=""/><path d="m1947 1025-1.75 6.41c-2.81-2.28-6.28-3.58-9.76-3.58-4.02 0-5.54 3.25-5.54 9v27.1h15.3v6.28h-15.3v13.8h-7.48v-13.8h-9.44v-6.28h9.11v-29c0-6.5 1.52-14.1 9.02-14.1 7.59 0 13.1 2.71 15.8 4.11" style=""/><path d="m2000 1046c0 14.5-10.9 26.1-23.8 26.1-13.4 0-23.9-11.9-23.9-26.1 0-14.3 11.1-25.1 23.8-25.1 13 0 23.9 11 23.9 25.1zm-8.47 1.07c0-12.8-7.37-19.2-15.4-19.2-7.49 0-15.3 6.08-15.3 19.2 0 13.1 8.25 18.5 15.3 18.5 7.59 0 15.4-5.64 15.4-18.5" style=""/><path d="m2088 1022v75.3h-8.14v-31.9c-5.75 4.76-11.8 5.97-15.8 5.97-10.7 0-19.2-11.3-19.2-25.3 0-14.2 8.36-25.3 18.6-25.3 3.6 0 9.99.97 16.1 6.83v-5.64zm-8.46 15.1c0-1.52-.11-3.47-3.58-6.61-2.5-2.17-5.21-3.05-8.03-3.05-6.72 0-14.6 5.11-14.6 18.6 0 14.3 9.32 18.8 15.7 18.8 4.87 0 8.12-2.5 10.5-5.97v-21.7" style=""/><path d="m2114 1022v48.2h-8.14v-48.2zm.88 61.4v9.66h-9.66v-9.66z" style=""/><path d="m2162 1036c0 5.97-4.01 9.66-4.23 9.99-4.24 3.79-7.16 4.43-12.6 5.42-5.97 1.18-11 2.28-11 7.59 0 6.74 7.81 6.74 9.22 6.74 3.48 0 9.23-.44 15.4-4.13l1.3 7.05c-5.64 2.61-10.1 3.47-15.6 3.47-2.71 0-18 0-18-14.2 0-5.33 3.15-8.79 5.86-10.9 3.36-2.39 5.75-2.81 11.7-4.01 3.9-.75 10.2-2.06 10.2-7.81 0-7.49-8.58-7.49-10.2-7.49-8.78 0-14.9 4.02-16.8 5.31l-1.31-7.37c3.49-1.74 9.45-4.77 18.2-4.77 1.95 0 7.92 0 12.6 3.47 3.36 2.6 5.2 6.94 5.2 11.6" style=""/><path d="m2210 1026-.65 7.27c-5.54-4.34-11.4-5.86-16.9-5.86-9 0-15.1 7.81-15.1 18.4 0 8.46 4.01 18.9 15.5 18.9 5.64 0 9.33-.88 15.3-4.78l1.29 7.06c-6.4 3.69-10.1 4.66-16.7 4.66-15.1 0-23.9-13.1-23.9-25.9 0-13.4 9.87-25.3 23.4-25.3 5.86 0 11.8 1.52 17.7 5.53" style=""/><path d="m2265 1046c0 14.5-10.9 26.1-23.8 26.1-13.4 0-23.9-11.9-23.9-26.1 0-14.3 11.1-25.1 23.8-25.1 13 0 23.9 11 23.9 25.1zm-8.47 1.07c0-12.8-7.37-19.2-15.4-19.2-7.49 0-15.3 6.08-15.3 19.2 0 13.1 8.25 18.5 15.3 18.5 7.59 0 15.4-5.64 15.4-18.5" style=""/><path d="m2316 1070h-8.14l-8.56-22.6c-2.28-5.97-5.64-14.8-6.52-19.9h-.11c-.65 3.91-3.47 11.4-4.56 14.3l-10.5 28.1h-8.46l18.7-48.2h9.54l18.7 48.2" style=""/><path d="m2363 1046c0 3.68-.11 11.8-4.34 18.3-4.45 6.74-11.1 7.93-15 7.93-12 0-21.8-11.5-21.8-25.5 0-14.3 10.4-25.7 23.4-25.7 6.85 0 13 2.6 17.2 5.64l-.64 7.05c-6.84-5.64-14-6.08-16.5-6.08-8.68 0-15.6 7.71-16 18.4zm-6.19 5.96h-26.8c1.73 8.25 7.48 13.7 13.7 13.7 5.64 0 11.7-3.69 13.1-13.7" style=""/><path d="m2402 1064v7.29c-9.65-.11-15.6-5.44-19-10.4v9.88h-7.61v-48.8h8.14v23.2c0 10.9 7.81 18.7 18.4 18.9" style=""/><path d="m2485 1022v31.4c0 11.1-7.93 18.7-17.9 18.7-7.05 0-11.9-1.74-17-4.66l.65-7.17c5.64 4.01 11.1 5.44 16.4 5.44 5.11 0 9.45-4.35 9.45-12.4v-4.67c-16.3-.22-30.1-4.77-30.1-14.3 0-4.68 2.92-13.5 12.4-13.5 1.52 0 11.7.22 18 5.1v-3.91zm-8.46 14.3c0-2.06 0-4.78-3.7-6.85-3.14-1.95-7.27-2.06-8.45-2.06-5.22 0-10.1 2.5-10.1 7.06 0 7.6 17.6 8.35 22.2 8.57v-6.72" style=""/><path d="m2540 1022v32.3c0 7.17-1.62 17-14.9 17-9.77 0-15.1-7.4-15.7-8.25v7.7h-7.81v-48.8h8.47v26.6c0 7.17 2.72 16.2 11 16.2 10.4 0 10.5-7.7 10.5-11.2v-31.6h8.47" style=""/><path d="m2596 1022v75.3h-8.14v-31.9c-5.75 4.76-11.8 5.97-15.8 5.97-10.7 0-19.2-11.3-19.2-25.3 0-14.2 8.36-25.3 18.6-25.3 3.6 0 9.99.97 16.1 6.83v-5.64zm-8.46 15.1c0-1.52-.11-3.47-3.58-6.61-2.5-2.17-5.21-3.05-8.03-3.05-6.72 0-14.6 5.11-14.6 18.6 0 14.3 9.32 18.8 15.7 18.8 4.87 0 8.12-2.5 10.5-5.97v-21.7" style=""/><path d="m2689 1022v75.3h-8.14v-31.9c-5.75 4.76-11.8 5.97-15.8 5.97-10.7 0-19.2-11.3-19.2-25.3 0-14.2 8.36-25.3 18.6-25.3 3.6 0 9.99.97 16.1 6.83v-5.64zm-8.46 15.1c0-1.52-.11-3.47-3.58-6.61-2.5-2.17-5.21-3.05-8.03-3.05-6.72 0-14.6 5.11-14.6 18.6 0 14.3 9.32 18.8 15.7 18.8 4.87 0 8.12-2.5 10.5-5.97v-21.7" style=""/><path d="m2744 1046c0 3.68-.11 11.8-4.34 18.3-4.45 6.74-11.1 7.93-15 7.93-12 0-21.8-11.5-21.8-25.5 0-14.3 10.4-25.7 23.4-25.7 6.85 0 13 2.6 17.2 5.64l-.64 7.05c-6.84-5.64-14-6.08-16.5-6.08-8.68 0-15.6 7.71-16 18.4zm-6.19 5.96h-26.8c1.73 8.25 7.48 13.7 13.7 13.7 5.64 0 11.7-3.69 13.1-13.7" style=""/><path d="m2799 1046c0 13.5-7.38 25.2-17.6 25.2-4.23 0-11-1.1-17.5-6.41v32.3h-8.14v-75.3h8.47v4.98c2.61-2.37 7.27-6.17 14.6-6.17 10.8 0 20.2 10.8 20.2 25.4zm-8.45 0c0-14.1-9.13-18.8-15.7-18.8-4.23 0-7.81 1.96-10.5 6.96v24c1.73 2.61 5.64 6.41 11.6 6.41 6.41 0 14.7-4.67 14.7-18.6" style=""/><path d="m2850 1022v48.2h-8.47v-31.5c0-8.12-6.07-11.9-13-11.9-7.7 0-8.47 2.81-8.47 7.49v35.9h-8.47v-36.3c0-7.81 2.5-13 11.5-13 5.75 0 13.4 1.74 18.8 6.39v-5.2h8.14" style=""/><path d="m2913 1065-1.19 6.85c-7.6 0-13.9-2.07-17.2-3.49-2.26 1.86-5.97 3.49-10.3 3.49-9.34 0-17.2-7.82-17.2-17.7 0-4.02 1.41-7.92 3.58-10.8-3.15-4.44-3.15-8.67-3.15-9.22 0-2.83.98-5.97 2.82-8.25-5.64-3.36-6.95-8.34-6.95-11.2 0-8.14 10.8-14.7 24-14.7 13.3 0 24.1 6.41 24.1 14.8 0 15.1-18.1 15.1-22.4 15.1h-9.55c-1.4 0-6.29 0-6.29 5.75 0 1.21.43 2.94 1.2 3.91 2.28-1.62 5.86-3.14 9.87-3.14 9.77 0 17.4 8.03 17.4 17.7 0 5.2-2.39 9.22-3.57 10.8l.42-.11c2.39 0 5.44.44 8.03.44 1.95 0 6.41-.33 6.41-.33zm-18.9-10.8c0-8.47-5.11-11.5-9.77-11.5-4.01 0-9.65 2.48-9.65 11.5 0 9 5.64 11.5 9.65 11.5 4.66 0 9.77-3.05 9.77-11.5zm9.77-39.5c0-4.78-7.49-8.36-16.4-8.36-8.79 0-16.5 3.37-16.5 8.47 0 .33 0 7.37 8.45 7.37h9.77c2.39 0 14.7 0 14.7-7.48" style=""/><path d="m2968 1022v48.2h-8.14v-48.2zm.88 61.4v9.66h-9.66v-9.66z" style=""/><path d="m3024 1022v32.3c0 7.17-1.62 17-14.9 17-9.77 0-15.1-7.4-15.7-8.25v7.7h-7.81v-48.8h8.47v26.6c0 7.17 2.72 16.2 11 16.2 10.4 0 10.5-7.7 10.5-11.2v-31.6h8.47" style=""/><path d="m3114 1046c0 3.68-.11 11.8-4.34 18.3-4.45 6.74-11.1 7.93-15 7.93-12 0-21.8-11.5-21.8-25.5 0-14.3 10.4-25.7 23.4-25.7 6.85 0 13 2.6 17.2 5.64l-.64 7.05c-6.84-5.64-14-6.08-16.5-6.08-8.68 0-15.6 7.71-16 18.4zm-6.19 5.96h-26.8c1.73 8.25 7.48 13.7 13.7 13.7 5.64 0 11.7-3.69 13.1-13.7" style=""/><path d="m3195 1022v32.3c0 7.28-1.73 17-14.9 17-6.52 0-12.2-3.05-16.2-8.91-2.81 8.25-10.4 8.91-13.9 8.91-7.81 0-12.9-4.46-15.8-8.36v7.81h-7.81v-48.8h8.47v26.6c0 7.39 2.94 16.2 11 16.2 10.1 0 10.6-7.05 10.6-11.2v-31.6h8.47v26.6c0 7.39 2.92 16.2 11 16.2 10.1 0 10.6-7.05 10.6-11.2v-31.6h8.45" style=""/><path d="m3256 1046c0 13.5-7.38 25.2-17.6 25.2-4.23 0-11-1.1-17.5-6.41v32.3h-8.14v-75.3h8.47v4.98c2.61-2.37 7.27-6.17 14.6-6.17 10.8 0 20.2 10.8 20.2 25.4zm-8.45 0c0-14.1-9.13-18.8-15.7-18.8-4.23 0-7.81 1.96-10.5 6.96v24c1.73 2.61 5.64 6.41 11.6 6.41 6.41 0 14.7-4.67 14.7-18.6" style=""/><path d="m3309 1046c0 3.68-.11 11.8-4.34 18.3-4.45 6.74-11.1 7.93-15 7.93-12 0-21.8-11.5-21.8-25.5 0-14.3 10.4-25.7 23.4-25.7 6.85 0 13 2.6 17.2 5.64l-.64 7.05c-6.84-5.64-14-6.08-16.5-6.08-8.68 0-15.6 7.71-16 18.4zm-6.19 5.96h-26.8c1.73 8.25 7.48 13.7 13.7 13.7 5.64 0 11.7-3.69 13.1-13.7" style=""/><path d="m3359 1022v75.3h-8.14v-31.9c-5.75 4.76-11.8 5.97-15.8 5.97-10.7 0-19.2-11.3-19.2-25.3 0-14.2 8.36-25.3 18.6-25.3 3.6 0 9.99.97 16.1 6.83v-5.64zm-8.46 15.1c0-1.52-.11-3.47-3.58-6.61-2.5-2.17-5.21-3.05-8.03-3.05-6.72 0-14.6 5.11-14.6 18.6 0 14.3 9.32 18.8 15.7 18.8 4.87 0 8.12-2.5 10.5-5.97v-21.7" style=""/><path d="m3416 1022v75.3h-8.14v-31.9c-5.75 4.76-11.8 5.97-15.8 5.97-10.7 0-19.2-11.3-19.2-25.3 0-14.2 8.36-25.3 18.6-25.3 3.6 0 9.99.97 16.1 6.83v-5.64zm-8.46 15.1c0-1.52-.11-3.47-3.58-6.61-2.5-2.17-5.21-3.05-8.03-3.05-6.72 0-14.6 5.11-14.6 18.6 0 14.3 9.32 18.8 15.7 18.8 4.87 0 8.12-2.5 10.5-5.97v-21.7" style=""/><path d="m3470 1046c0 3.68-.11 11.8-4.34 18.3-4.45 6.74-11.1 7.93-15 7.93-12 0-21.8-11.5-21.8-25.5 0-14.3 10.4-25.7 23.4-25.7 6.85 0 13 2.6 17.2 5.64l-.64 7.05c-6.84-5.64-14-6.08-16.5-6.08-8.68 0-15.6 7.71-16 18.4zm-6.19 5.96h-26.8c1.73 8.25 7.48 13.7 13.7 13.7 5.64 0 11.7-3.69 13.1-13.7" style=""/><path d="m3521 1022v75.3h-8.14v-31.9c-5.75 4.76-11.8 5.97-15.8 5.97-10.7 0-19.2-11.3-19.2-25.3 0-14.2 8.36-25.3 18.6-25.3 3.6 0 9.99.97 16.1 6.83v-5.64zm-8.46 15.1c0-1.52-.11-3.47-3.58-6.61-2.5-2.17-5.21-3.05-8.03-3.05-6.72 0-14.6 5.11-14.6 18.6 0 14.3 9.32 18.8 15.7 18.8 4.87 0 8.12-2.5 10.5-5.97v-21.7" style=""/><path d="m3616 1088v9h-9.01v-9zm-.43-66.4v48.2h-8.14v-48.2zm-17.2 41.9v6.28h-13.1v13.1c0 6.94 3.9 8.57 6.62 8.57 2.28 0 4.67-.75 6.52-1.96v7.38c-.66.22-3.38 1.2-6.52 1.2-8.03 0-14.4-7.59-14.4-18.4v-9.88h-8.03v-6.28h8.03v-41.9h8.14v41.9h12.8" style=""/><path d="m3660 1064v7.29c-9.65-.11-15.6-5.44-19-10.4v9.88h-7.61v-48.8h8.14v23.2c0 10.9 7.81 18.7 18.4 18.9" style=""/><path d="m3739 1022v32.3c0 7.28-1.73 17-14.9 17-6.52 0-12.2-3.05-16.2-8.91-2.81 8.25-10.4 8.91-13.9 8.91-7.81 0-12.9-4.46-15.8-8.36v7.81h-7.81v-48.8h8.47v26.6c0 7.39 2.94 16.2 11 16.2 10.1 0 10.6-7.05 10.6-11.2v-31.6h8.47v26.6c0 7.39 2.92 16.2 11 16.2 10.1 0 10.6-7.05 10.6-11.2v-31.6h8.45" style=""/><path d="m3821 1070h-7.92l-6.95-23c-1.19-3.9-4.44-14.6-4.98-19.3h-.11c-.44 3.36-3.14 13-4.99 19.2l-7.06 23.1h-7.59l-6.19-20.4c-1.19-3.8-4.88-16.3-5.31-21.8h-.11c-.55 5.2-4.13 17.5-5.86 23.4l-5.64 18.8h-8.25l14.9-48.2h8.56l6.74 22.4c1.51 4.98 4.54 15.7 4.87 19.7h.11c.22-3.03 2.06-10.5 3.47-15.2l7.92-26.9h9.55l14.9 48.2" style=""/><path d="m3864 1022v31.4c0 11.1-7.93 18.7-17.9 18.7-7.05 0-11.9-1.74-17-4.66l.65-7.17c5.64 4.01 11.1 5.44 16.4 5.44 5.11 0 9.45-4.35 9.45-12.4v-4.67c-16.3-.22-30.1-4.77-30.1-14.3 0-4.68 2.92-13.5 12.4-13.5 1.52 0 11.7.22 18 5.1v-3.91zm-8.46 14.3c0-2.06 0-4.78-3.7-6.85-3.14-1.95-7.27-2.06-8.45-2.06-5.22 0-10.1 2.5-10.1 7.06 0 7.6 17.6 8.35 22.2 8.57v-6.72" style=""/><path d="m3905 1064v7.29c-9.65-.11-15.6-5.44-19-10.4v9.88h-7.61v-48.8h8.14v23.2c0 10.9 7.81 18.7 18.4 18.9" style=""/><path d="m3952 1046c0 3.68-.11 11.8-4.34 18.3-4.45 6.74-11.1 7.93-15 7.93-12 0-21.8-11.5-21.8-25.5 0-14.3 10.4-25.7 23.4-25.7 6.85 0 13 2.6 17.2 5.64l-.64 7.05c-6.84-5.64-14-6.08-16.5-6.08-8.68 0-15.6 7.71-16 18.4zm-6.19 5.96h-26.8c1.73 8.25 7.48 13.7 13.7 13.7 5.64 0 11.7-3.69 13.1-13.7" style=""/><path d="m328 891-.656 7.26c-5.53-4.34-11.4-5.86-16.9-5.86-9 0-15.1 7.81-15.1 18.5 0 8.45 4.02 18.9 15.5 18.9 5.64 0 9.33-.875 15.3-4.78l1.3 7.06c-6.41 3.69-10.1 4.66-16.7 4.66-15.1 0-23.9-13.1-23.9-25.9 0-13.5 9.88-25.3 23.4-25.3 5.86 0 11.8 1.52 17.7 5.53" style=""/><path d="m383 911c0 14.5-10.9 26.1-23.8 26.1-13.3 0-23.9-11.9-23.9-26.1 0-14.3 11.1-25.1 23.8-25.1 13 0 23.9 11 23.9 25.1zm-8.47 1.08c0-12.8-7.38-19.2-15.4-19.2-7.48 0-15.3 6.08-15.3 19.2s8.25 18.5 15.3 18.5c7.59 0 15.4-5.64 15.4-18.5" style=""/><path d="m463 887v32.3c0 7.28-1.73 17-14.9 17-6.52 0-12.2-3.05-16.2-8.91-2.81 8.25-10.4 8.91-13.9 8.91-7.81 0-12.9-4.45-15.8-8.36v7.81h-7.81v-48.8h8.47v26.6c0 7.39 2.94 16.2 11 16.2 10.1 0 10.6-7.05 10.6-11.2v-31.6h8.47v26.6c0 7.39 2.92 16.2 11 16.2 10.1 0 10.6-7.05 10.6-11.2v-31.6h8.45" style=""/><path d="m525 911c0 13-6.83 25.2-17.2 25.2-6.52 0-12.8-2.28-17.8-6.52v5.31h-8.14v-69.2h8.47v26c3.36-3.14 8.14-6.17 14.7-6.17 10.5 0 20.1 10.6 20.1 25.4zm-8.45 0c0-11.2-7.7-18.8-15.8-18.8-4.23 0-7.17 2.17-9.33 5.11-1.09 1.62-1.09 1.84-1.09 3.8v21.8c2.61 3.81 6.84 6.3 11.5 6.3 8.25 0 14.8-8.25 14.8-18.2" style=""/><path d="m573 887v31.4c0 11.1-7.92 18.7-17.9 18.7-7.05 0-11.9-1.74-17-4.66l.656-7.17c5.64 4.02 11.1 5.44 16.4 5.44 5.11 0 9.45-4.34 9.45-12.4v-4.67c-16.3-.219-30.1-4.76-30.1-14.3 0-4.67 2.92-13.5 12.4-13.5 1.52 0 11.7.218 18 5.09v-3.91zm-8.45 14.3c0-2.06 0-4.78-3.7-6.84-3.14-1.95-7.27-2.06-8.45-2.06-5.22 0-10.1 2.5-10.1 7.06 0 7.59 17.6 8.34 22.2 8.56v-6.72" style=""/><path d="m614 929v7.28c-9.66-.109-15.6-5.44-19-10.4v9.88h-7.61v-48.8h8.14v23.2c0 10.9 7.81 18.7 18.5 18.9" style=""/><path d="m661 911c0 3.69-.109 11.8-4.34 18.3-4.45 6.73-11.1 7.92-15 7.92-12 0-21.8-11.5-21.8-25.5 0-14.3 10.4-25.7 23.4-25.7 6.84 0 13 2.59 17.2 5.64l-.64 7.05c-6.84-5.64-14-6.08-16.5-6.08-8.69 0-15.6 7.7-16 18.3zm-6.19 5.97h-26.8c1.73 8.25 7.48 13.7 13.7 13.7 5.64 0 11.7-3.69 13.1-13.7" style=""/><path d="m712 887v75.3h-8.14v-31.9c-5.75 4.77-11.8 5.97-15.8 5.97-10.7 0-19.2-11.3-19.2-25.3 0-14.2 8.36-25.3 18.7-25.3 3.59 0 9.98.968 16.1 6.83v-5.64zm-8.47 15.1c0-1.52-.109-3.47-3.58-6.61-2.5-2.17-5.2-3.05-8.03-3.05-6.72 0-14.6 5.11-14.6 18.6 0 14.3 9.33 18.8 15.7 18.8 4.88 0 8.12-2.5 10.5-5.97v-21.7" style=""/><path d="m793 890-1.75 6.41c-2.81-2.28-6.28-3.58-9.76-3.58-4.02 0-5.53 3.25-5.53 9v27.1h15.3v6.28h-15.3v13.8h-7.48v-13.8h-9.44v-6.28h9.11v-29c0-6.5 1.52-14.1 9.02-14.1 7.59 0 13.1 2.7 15.8 4.11" style=""/><path d="m848 911c0 14.5-10.9 26.1-23.8 26.1-13.3 0-23.9-11.9-23.9-26.1 0-14.3 11.1-25.1 23.8-25.1 13 0 23.9 11 23.9 25.1zm-8.47 1.08c0-12.8-7.38-19.2-15.4-19.2-7.48 0-15.3 6.08-15.3 19.2s8.25 18.5 15.3 18.5c7.59 0 15.4-5.64 15.4-18.5" style=""/><path d="m935 887v48.2h-8.47v-31.5c0-8.12-6.08-11.9-13-11.9-7.7 0-8.47 2.81-8.47 7.48v35.9h-8.47v-36.3c0-7.81 2.5-13 11.5-13 5.75 0 13.5 1.73 18.8 6.39v-5.2h8.14" style=""/><path d="m983 901c0 5.97-4.02 9.66-4.24 9.98-4.23 3.8-7.16 4.44-12.6 5.42-5.97 1.19-11 2.28-11 7.59 0 6.73 7.81 6.73 9.22 6.73 3.48 0 9.23-.437 15.4-4.12l1.3 7.05c-5.64 2.61-10.1 3.47-15.6 3.47-2.72 0-18 0-18-14.2 0-5.33 3.16-8.8 5.86-10.9 3.36-2.39 5.75-2.81 11.7-4.02 3.91-.75 10.2-2.06 10.2-7.81 0-7.48-8.58-7.48-10.2-7.48-8.78 0-14.9 4.02-16.8 5.31l-1.31-7.38c3.48-1.73 9.45-4.76 18.2-4.76 1.95 0 7.92 0 12.6 3.47 3.36 2.59 5.2 6.94 5.2 11.6" style=""/><path d="m1031 911c0 3.69-.11 11.8-4.34 18.3-4.45 6.73-11.1 7.92-15 7.92-12 0-21.8-11.5-21.8-25.5 0-14.3 10.4-25.7 23.4-25.7 6.85 0 13 2.59 17.2 5.64l-.64 7.05c-6.84-5.64-14-6.08-16.5-6.08-8.68 0-15.6 7.7-15.9 18.3zm-6.19 5.97h-26.8c1.73 8.25 7.48 13.7 13.7 13.7 5.64 0 11.7-3.69 13.1-13.7" style=""/><path d="m1069 929v7.28c-9.65-.109-15.6-5.44-19-10.4v9.88h-7.61v-48.8h8.14v23.2c0 10.9 7.81 18.7 18.4 18.9" style=""/><path d="m1102 908v6.3h-28.8v-6.3z" style=""/><path d="m1147 901c0 5.97-4.01 9.66-4.23 9.98-4.24 3.8-7.16 4.44-12.6 5.42-5.97 1.19-11 2.28-11 7.59 0 6.73 7.81 6.73 9.22 6.73 3.48 0 9.23-.437 15.4-4.12l1.3 7.05c-5.64 2.61-10.1 3.47-15.6 3.47-2.71 0-18 0-18-14.2 0-5.33 3.15-8.8 5.86-10.9 3.36-2.39 5.75-2.81 11.7-4.02 3.9-.75 10.2-2.06 10.2-7.81 0-7.48-8.58-7.48-10.2-7.48-8.78 0-14.9 4.02-16.8 5.31l-1.31-7.38c3.49-1.73 9.45-4.76 18.2-4.76 1.95 0 7.92 0 12.6 3.47 3.36 2.59 5.2 6.94 5.2 11.6" style=""/><path d="m1202 911c0 13-6.83 25.2-17.2 25.2-6.52 0-12.8-2.28-17.8-6.52v5.31h-8.14v-69.2h8.47v26c3.36-3.14 8.14-6.17 14.7-6.17 10.5 0 20.1 10.6 20.1 25.4zm-8.45 0c0-11.2-7.71-18.8-15.8-18.8-4.23 0-7.17 2.17-9.33 5.11-1.09 1.62-1.09 1.84-1.09 3.8v21.8c2.61 3.81 6.84 6.3 11.5 6.3 8.25 0 14.8-8.25 14.8-18.2" style=""/><path d="m1250 887v31.4c0 11.1-7.93 18.7-17.9 18.7-7.05 0-11.9-1.74-17-4.66l.65-7.17c5.64 4.02 11.1 5.44 16.4 5.44 5.11 0 9.45-4.34 9.45-12.4v-4.67c-16.3-.219-30.1-4.76-30.1-14.3 0-4.67 2.92-13.5 12.4-13.5 1.52 0 11.7.218 18 5.09v-3.91zm-8.46 14.3c0-2.06 0-4.78-3.7-6.84-3.14-1.95-7.27-2.06-8.45-2.06-5.22 0-10.1 2.5-10.1 7.06 0 7.59 17.6 8.34 22.2 8.56v-6.72" style=""/><path d="m1303 891-.65 7.26c-5.54-4.34-11.4-5.86-16.9-5.86-9 0-15.1 7.81-15.1 18.5 0 8.45 4.01 18.9 15.5 18.9 5.64 0 9.33-.875 15.3-4.78l1.29 7.06c-6.4 3.69-10.1 4.66-16.7 4.66-15.1 0-23.9-13.1-23.9-25.9 0-13.5 9.87-25.3 23.4-25.3 5.86 0 11.8 1.52 17.7 5.53" style=""/><path d="m1352 911c0 3.69-.11 11.8-4.34 18.3-4.45 6.73-11.1 7.92-15 7.92-12 0-21.8-11.5-21.8-25.5 0-14.3 10.4-25.7 23.4-25.7 6.85 0 13 2.59 17.2 5.64l-.64 7.05c-6.84-5.64-14-6.08-16.5-6.08-8.68 0-15.6 7.7-16 18.3zm-6.19 5.97h-26.8c1.73 8.25 7.48 13.7 13.7 13.7 5.64 0 11.7-3.69 13.1-13.7" style=""/><path d="m1431 901c0 5.97-4.01 9.66-4.23 9.98-4.24 3.8-7.16 4.44-12.6 5.42-5.97 1.19-11 2.28-11 7.59 0 6.73 7.81 6.73 9.22 6.73 3.48 0 9.23-.437 15.4-4.12l1.3 7.05c-5.64 2.61-10.1 3.47-15.6 3.47-2.71 0-18 0-18-14.2 0-5.33 3.15-8.8 5.86-10.9 3.36-2.39 5.75-2.81 11.7-4.02 3.9-.75 10.2-2.06 10.2-7.81 0-7.48-8.58-7.48-10.2-7.48-8.78 0-14.9 4.02-16.8 5.31l-1.31-7.38c3.49-1.73 9.45-4.76 18.2-4.76 1.95 0 7.92 0 12.6 3.47 3.36 2.59 5.2 6.94 5.2 11.6" style=""/><path d="m1484 911c0 14.5-10.9 26.1-23.8 26.1-13.4 0-23.9-11.9-23.9-26.1 0-14.3 11.1-25.1 23.8-25.1 13 0 23.9 11 23.9 25.1zm-8.47 1.08c0-12.8-7.37-19.2-15.4-19.2-7.49 0-15.3 6.08-15.3 19.2s8.25 18.5 15.3 18.5c7.59 0 15.4-5.64 15.4-18.5" style=""/><path d="m1526 955v7.27c-1.32.328-4.68 1.2-8.69 1.2-10.2 0-18-7.7-18-18.6v-9.77h-8.03v-6.28h8.03v-41.9h8.14v41.9h11.9v6.28h-12.3v12.9c0 8.03 7.28 8.78 10.1 8.78 2.17 0 5.11-.219 8.8-1.84" style=""/><path d="m1557 890-1.75 6.41c-2.81-2.28-6.28-3.58-9.76-3.58-4.02 0-5.54 3.25-5.54 9v27.1h15.3v6.28h-15.3v13.8h-7.48v-13.8h-9.44v-6.28h9.11v-29c0-6.5 1.52-14.1 9.02-14.1 7.59 0 13.1 2.7 15.8 4.11" style=""/><path d="m1630 935h-7.92l-6.95-23c-1.19-3.91-4.44-14.6-4.98-19.3h-.11c-.44 3.36-3.14 13-4.99 19.2l-7.06 23.1h-7.59l-6.19-20.4c-1.19-3.8-4.88-16.3-5.31-21.8h-.11c-.55 5.2-4.13 17.5-5.86 23.4l-5.64 18.8h-8.25l14.9-48.2h8.56l6.74 22.4c1.51 4.98 4.54 15.7 4.87 19.7h.11c.22-3.03 2.06-10.5 3.47-15.2l7.92-26.9h9.55l14.9 48.2" style=""/><path d="m1673 887v31.4c0 11.1-7.93 18.7-17.9 18.7-7.05 0-11.9-1.74-17-4.66l.65-7.17c5.64 4.02 11.1 5.44 16.4 5.44 5.11 0 9.45-4.34 9.45-12.4v-4.67c-16.3-.219-30.1-4.76-30.1-14.3 0-4.67 2.92-13.5 12.4-13.5 1.52 0 11.7.218 18 5.09v-3.91zm-8.46 14.3c0-2.06 0-4.78-3.7-6.84-3.14-1.95-7.27-2.06-8.45-2.06-5.22 0-10.1 2.5-10.1 7.06 0 7.59 17.6 8.34 22.2 8.56v-6.72" style=""/><path d="m1714 929v7.28c-9.65-.109-15.6-5.44-19-10.4v9.88h-7.61v-48.8h8.14v23.2c0 10.9 7.81 18.7 18.4 18.9" style=""/><path d="m1761 911c0 3.69-.11 11.8-4.34 18.3-4.45 6.73-11.1 7.92-15 7.92-12 0-21.8-11.5-21.8-25.5 0-14.3 10.4-25.7 23.4-25.7 6.85 0 13 2.59 17.2 5.64l-.64 7.05c-6.84-5.64-14-6.08-16.5-6.08-8.68 0-15.6 7.7-16 18.3zm-6.19 5.97h-26.8c1.73 8.25 7.48 13.7 13.7 13.7 5.64 0 11.7-3.69 13.1-13.7" style=""/><path d="m1784 887v9h-9v-9z" style=""/><path d="m350 751-21.5 35.4c11.2 3.25 18.4 11 18.4 19.8 0 10.7-11.8 20.2-27.3 20.2h-26.1v-75.3h9.33v34.4h17.1l20.4-34.4zm-11.8 55.1c0-7.7-6.95-14.1-19.8-14.1h-15.6v28.2h15.6c12.6 0 19.8-6.41 19.8-14.1" style=""/><path d="m398 751v48.2h-8.47v-31.5c0-8.12-6.08-11.9-13-11.9-7.7 0-8.47 2.81-8.47 7.48v35.9h-8.47v-36.3c0-7.81 2.5-13 11.5-13 5.75 0 13.5 1.73 18.8 6.39v-5.2h8.14" style=""/><path d="m446 765c0 5.97-4.02 9.66-4.24 9.98-4.23 3.8-7.16 4.44-12.6 5.42-5.97 1.19-11 2.28-11 7.59 0 6.73 7.81 6.73 9.22 6.73 3.48 0 9.23-.437 15.4-4.12l1.3 7.05c-5.64 2.61-10.1 3.47-15.6 3.47-2.72 0-18 0-18-14.2 0-5.33 3.16-8.8 5.86-10.9 3.36-2.39 5.75-2.81 11.7-4.02 3.91-.75 10.2-2.06 10.2-7.81 0-7.48-8.58-7.48-10.2-7.48-8.78 0-14.9 4.02-16.8 5.31l-1.31-7.38c3.48-1.73 9.45-4.76 18.2-4.76 1.95 0 7.92 0 12.6 3.47 3.36 2.59 5.2 6.94 5.2 11.6" style=""/><path d="m485 754-1.75 6.41c-2.81-2.28-6.28-3.58-9.76-3.58-4.02 0-5.53 3.25-5.53 9v27.1h15.3v6.28h-15.3v13.8h-7.48v-13.8h-9.44v-6.28h9.11v-29c0-6.5 1.52-14.1 9.02-14.1 7.59 0 13.1 2.7 15.8 4.11" style=""/><path d="m540 751v48.2h-8.14v-48.2zm.875 61.4v9.66h-9.66v-9.66z" style=""/><path d="m588 765c0 5.97-4.02 9.66-4.24 9.98-4.23 3.8-7.16 4.44-12.6 5.42-5.97 1.19-11 2.28-11 7.59 0 6.73 7.81 6.73 9.22 6.73 3.48 0 9.23-.437 15.4-4.12l1.3 7.05c-5.64 2.61-10.1 3.47-15.6 3.47-2.72 0-18 0-18-14.2 0-5.33 3.16-8.8 5.86-10.9 3.36-2.39 5.75-2.81 11.7-4.02 3.91-.75 10.2-2.06 10.2-7.81 0-7.48-8.58-7.48-10.2-7.48-8.78 0-14.9 4.02-16.8 5.31l-1.31-7.38c3.48-1.73 9.45-4.76 18.2-4.76 1.95 0 7.92 0 12.6 3.47 3.36 2.59 5.2 6.94 5.2 11.6" style=""/><path d="m697 799h-7.92l-6.95-23c-1.19-3.91-4.44-14.6-4.98-19.3h-.109c-.438 3.36-3.14 13-4.98 19.2l-7.06 23.1h-7.59l-6.19-20.4c-1.19-3.8-4.88-16.3-5.31-21.8h-.109c-.547 5.2-4.12 17.5-5.86 23.4l-5.64 18.8h-8.25l14.9-48.2h8.56l6.74 22.4c1.52 4.98 4.55 15.7 4.88 19.7h.109c.219-3.03 2.06-10.5 3.47-15.2l7.92-26.9h9.55l14.9 48.2" style=""/><path d="m742 775c0 3.69-.109 11.8-4.34 18.3-4.45 6.73-11.1 7.92-15 7.92-12 0-21.8-11.5-21.8-25.5 0-14.3 10.4-25.7 23.4-25.7 6.84 0 13 2.59 17.2 5.64l-.64 7.05c-6.84-5.64-14-6.08-16.5-6.08-8.69 0-15.6 7.7-16 18.3zm-6.19 5.97h-26.8c1.73 8.25 7.48 13.7 13.7 13.7 5.64 0 11.7-3.69 13.1-13.7" style=""/><path d="m762 751v75.3h-8.14v-75.3z" style=""/><path d="m788 751v75.3h-8.14v-75.3z" style=""/><path d="m884 775c0 13-6.83 25.2-17.2 25.2-6.52 0-12.8-2.28-17.8-6.52v5.31h-8.14v-69.2h8.47v26c3.36-3.14 8.14-6.17 14.7-6.17 10.5 0 20.1 10.6 20.1 25.4zm-8.45 0c0-11.2-7.7-18.8-15.8-18.8-4.23 0-7.17 2.17-9.33 5.11-1.09 1.62-1.09 1.84-1.09 3.8v21.8c2.61 3.81 6.84 6.3 11.5 6.3 8.25 0 14.8-8.25 14.8-18.2" style=""/><path d="m942 775c0 14.5-10.9 26.1-23.8 26.1-13.3 0-23.9-11.9-23.9-26.1 0-14.3 11.1-25.1 23.8-25.1 13 0 23.9 11 23.9 25.1zm-8.47 1.08c0-12.8-7.38-19.2-15.4-19.2-7.48 0-15.3 6.08-15.3 19.2s8.25 18.5 15.3 18.5c7.59 0 15.4-5.64 15.4-18.5" style=""/><path d="m985 765c0 5.97-4.02 9.66-4.24 9.98-4.23 3.8-7.16 4.44-12.6 5.42-5.97 1.19-11 2.28-11 7.59 0 6.73 7.81 6.73 9.22 6.73 3.48 0 9.23-.437 15.4-4.12l1.3 7.05c-5.64 2.61-10.1 3.47-15.6 3.47-2.72 0-18 0-18-14.2 0-5.33 3.16-8.8 5.86-10.9 3.36-2.39 5.75-2.81 11.7-4.02 3.91-.75 10.2-2.06 10.2-7.81 0-7.48-8.58-7.48-10.2-7.48-8.78 0-14.9 4.02-16.8 5.31l-1.31-7.38c3.48-1.73 9.45-4.76 18.2-4.76 1.95 0 7.92 0 12.6 3.47 3.36 2.59 5.2 6.94 5.2 11.6" style=""/><path d="m1000 751v48.2h-8.14v-48.2zm.88 61.4v9.66h-9.66v-9.66z" style=""/><path d="m1049 754-1.75 6.41c-2.81-2.28-6.28-3.58-9.76-3.58-4.02 0-5.54 3.25-5.54 9v27.1h15.3v6.28h-15.3v13.8h-7.48v-13.8h-9.44v-6.28h9.11v-29c0-6.5 1.52-14.1 9.02-14.1 7.59 0 13.1 2.7 15.8 4.11" style=""/><path d="m1070 751v48.2h-8.14v-48.2zm.88 61.4v9.66h-9.66v-9.66z" style=""/><path d="m1130 775c0 14.5-10.9 26.1-23.8 26.1-13.4 0-23.9-11.9-23.9-26.1 0-14.3 11.1-25.1 23.8-25.1 13 0 23.9 11 23.9 25.1zm-8.47 1.08c0-12.8-7.37-19.2-15.4-19.2-7.49 0-15.3 6.08-15.3 19.2s8.25 18.5 15.3 18.5c7.59 0 15.4-5.64 15.4-18.5" style=""/><path d="m1180 751v32.3c0 7.17-1.62 17-14.9 17-9.77 0-15.1-7.39-15.7-8.25v7.7h-7.81v-48.8h8.47v26.6c0 7.17 2.72 16.2 11 16.2 10.4 0 10.5-7.7 10.5-11.2v-31.6h8.47" style=""/><path d="m1235 775c0 3.69-.11 11.8-4.34 18.3-4.45 6.73-11.1 7.92-15 7.92-12 0-21.8-11.5-21.8-25.5 0-14.3 10.4-25.7 23.4-25.7 6.85 0 13 2.59 17.2 5.64l-.64 7.05c-6.84-5.64-14-6.08-16.5-6.08-8.68 0-15.6 7.7-16 18.3zm-6.19 5.97h-26.8c1.73 8.25 7.48 13.7 13.7 13.7 5.64 0 11.7-3.69 13.1-13.7" style=""/><path d="m1285 751v75.3h-8.14v-31.9c-5.75 4.77-11.8 5.97-15.8 5.97-10.7 0-19.2-11.3-19.2-25.3 0-14.2 8.36-25.3 18.6-25.3 3.6 0 9.99.968 16.1 6.83v-5.64zm-8.46 15.1c0-1.52-.11-3.47-3.58-6.61-2.5-2.17-5.21-3.05-8.03-3.05-6.72 0-14.6 5.11-14.6 18.6 0 14.3 9.32 18.8 15.7 18.8 4.87 0 8.12-2.5 10.5-5.97v-21.7" style=""/><path d="m1365 754-1.75 6.41c-2.81-2.28-6.28-3.58-9.76-3.58-4.02 0-5.54 3.25-5.54 9v27.1h15.3v6.28h-15.3v13.8h-7.48v-13.8h-9.44v-6.28h9.11v-29c0-6.5 1.52-14.1 9.02-14.1 7.59 0 13.1 2.7 15.8 4.11" style=""/><path d="m1419 775c0 14.5-10.9 26.1-23.8 26.1-13.4 0-23.9-11.9-23.9-26.1 0-14.3 11.1-25.1 23.8-25.1 13 0 23.9 11 23.9 25.1zm-8.47 1.08c0-12.8-7.37-19.2-15.4-19.2-7.49 0-15.3 6.08-15.3 19.2s8.25 18.5 15.3 18.5c7.59 0 15.4-5.64 15.4-18.5" style=""/><path d="m1477 804v9h-2.72l2.72 13.6h-4.45l-4.55-13.7v-8.89zm21 0v9h-2.7l2.7 13.6h-4.45l-4.55-13.7v-8.89h9" style=""/><path d="m1548 765c0 5.97-4.01 9.66-4.23 9.98-4.24 3.8-7.16 4.44-12.6 5.42-5.97 1.19-11 2.28-11 7.59 0 6.73 7.81 6.73 9.22 6.73 3.48 0 9.23-.437 15.4-4.12l1.3 7.05c-5.64 2.61-10.1 3.47-15.6 3.47-2.71 0-18 0-18-14.2 0-5.33 3.15-8.8 5.86-10.9 3.36-2.39 5.75-2.81 11.7-4.02 3.9-.75 10.2-2.06 10.2-7.81 0-7.48-8.58-7.48-10.2-7.48-8.78 0-14.9 4.02-16.8 5.31l-1.31-7.38c3.49-1.73 9.45-4.76 18.2-4.76 1.95 0 7.92 0 12.6 3.47 3.36 2.59 5.2 6.94 5.2 11.6" style=""/><path d="m1602 775c0 14.5-10.9 26.1-23.8 26.1-13.4 0-23.9-11.9-23.9-26.1 0-14.3 11.1-25.1 23.8-25.1 13 0 23.9 11 23.9 25.1zm-8.47 1.08c0-12.8-7.37-19.2-15.4-19.2-7.49 0-15.3 6.08-15.3 19.2s8.25 18.5 15.3 18.5c7.59 0 15.4-5.64 15.4-18.5" style=""/><path d="m1622 751v75.3h-8.14v-75.3z" style=""/><path d="m1679 799h-8.14l-8.56-22.6c-2.28-5.97-5.64-14.8-6.52-19.9h-.11c-.65 3.91-3.47 11.4-4.56 14.3l-10.5 28.1h-8.46l18.7-48.2h9.54l18.7 48.2" style=""/><path d="m1727 775c0 3.69-.11 11.8-4.34 18.3-4.45 6.73-11.1 7.92-15 7.92-12 0-21.8-11.5-21.8-25.5 0-14.3 10.4-25.7 23.4-25.7 6.85 0 13 2.59 17.2 5.64l-.64 7.05c-6.84-5.64-14-6.08-16.5-6.08-8.68 0-15.6 7.7-16 18.3zm-6.19 5.97h-26.8c1.73 8.25 7.48 13.7 13.7 13.7 5.64 0 11.7-3.69 13.1-13.7" style=""/><path d="m1750 817v8.89h-9v-9h2.7l-2.7-13.6h4.44zm21 0v8.89h-9v-9h2.7l-2.7-13.6h4.44l4.56 13.7" style=""/><path d="m1855 765c0 5.97-4.01 9.66-4.23 9.98-4.24 3.8-7.16 4.44-12.6 5.42-5.97 1.19-11 2.28-11 7.59 0 6.73 7.81 6.73 9.22 6.73 3.48 0 9.23-.437 15.4-4.12l1.3 7.05c-5.64 2.61-10.1 3.47-15.6 3.47-2.71 0-18 0-18-14.2 0-5.33 3.15-8.8 5.86-10.9 3.36-2.39 5.75-2.81 11.7-4.02 3.9-.75 10.2-2.06 10.2-7.81 0-7.48-8.58-7.48-10.2-7.48-8.78 0-14.9 4.02-16.8 5.31l-1.31-7.38c3.49-1.73 9.45-4.76 18.2-4.76 1.95 0 7.92 0 12.6 3.47 3.36 2.59 5.2 6.94 5.2 11.6" style=""/><path d="m1909 775c0 14.5-10.9 26.1-23.8 26.1-13.4 0-23.9-11.9-23.9-26.1 0-14.3 11.1-25.1 23.8-25.1 13 0 23.9 11 23.9 25.1zm-8.47 1.08c0-12.8-7.37-19.2-15.4-19.2-7.49 0-15.3 6.08-15.3 19.2s8.25 18.5 15.3 18.5c7.59 0 15.4-5.64 15.4-18.5" style=""/><path d="m1989 751v32.3c0 7.28-1.73 17-14.9 17-6.52 0-12.2-3.05-16.2-8.91-2.81 8.25-10.4 8.91-13.9 8.91-7.81 0-12.9-4.45-15.8-8.36v7.81h-7.81v-48.8h8.47v26.6c0 7.39 2.94 16.2 11 16.2 10.1 0 10.6-7.05 10.6-11.2v-31.6h8.47v26.6c0 7.39 2.92 16.2 11 16.2 10.1 0 10.6-7.05 10.6-11.2v-31.6h8.45" style=""/><path d="m2044 775c0 3.69-.11 11.8-4.34 18.3-4.45 6.73-11.1 7.92-15 7.92-12 0-21.8-11.5-21.8-25.5 0-14.3 10.4-25.7 23.4-25.7 6.85 0 13 2.59 17.2 5.64l-.64 7.05c-6.84-5.64-14-6.08-16.5-6.08-8.68 0-15.6 7.7-16 18.3zm-6.19 5.97h-26.8c1.73 8.25 7.48 13.7 13.7 13.7 5.64 0 11.7-3.69 13.1-13.7" style=""/><path d="m2133 775c0 14.5-10.9 26.1-23.8 26.1-13.4 0-23.9-11.9-23.9-26.1 0-14.3 11.1-25.1 23.8-25.1 13 0 23.9 11 23.9 25.1zm-8.47 1.08c0-12.8-7.37-19.2-15.4-19.2-7.49 0-15.3 6.08-15.3 19.2s8.25 18.5 15.3 18.5c7.59 0 15.4-5.64 15.4-18.5" style=""/><path d="m2174 819v7.27c-1.32.328-4.68 1.2-8.69 1.2-10.2 0-18-7.7-18-18.6v-9.77h-8.03v-6.28h8.03v-41.9h8.14v41.9h11.9v6.28h-12.3v12.9c0 8.03 7.28 8.78 10.1 8.78 2.17 0 5.11-.219 8.8-1.84" style=""/><path d="m2240 754-1.75 6.41c-2.81-2.28-6.28-3.58-9.76-3.58-4.02 0-5.54 3.25-5.54 9v27.1h15.3v6.28h-15.3v13.8h-7.48v-13.8h-9.44v-6.28h9.11v-29c0-6.5 1.52-14.1 9.02-14.1 7.59 0 13.1 2.7 15.8 4.11" style=""/><path d="m2290 751v32.3c0 7.17-1.62 17-14.9 17-6.72 0-11.9-3.38-15.4-7.81v33.7h-8.14v-75.3h8.47v26.6c0 7.17 2.72 16.2 11 16.2 10.4 0 10.5-7.7 10.5-11.2v-31.6h8.47" style=""/><path d="m2345 775c0 3.69-.11 11.8-4.34 18.3-4.45 6.73-11.1 7.92-15 7.92-12 0-21.8-11.5-21.8-25.5 0-14.3 10.4-25.7 23.4-25.7 6.85 0 13 2.59 17.2 5.64l-.64 7.05c-6.84-5.64-14-6.08-16.5-6.08-8.68 0-15.6 7.7-16 18.3zm-6.19 5.97h-26.8c1.73 8.25 7.48 13.7 13.7 13.7 5.64 0 11.7-3.69 13.1-13.7" style=""/><path d="m2425 751v32.3c0 7.28-1.73 17-14.9 17-6.52 0-12.2-3.05-16.2-8.91-2.81 8.25-10.4 8.91-13.9 8.91-7.81 0-12.9-4.45-15.8-8.36v7.81h-7.81v-48.8h8.47v26.6c0 7.39 2.94 16.2 11 16.2 10.1 0 10.6-7.05 10.6-11.2v-31.6h8.47v26.6c0 7.39 2.92 16.2 11 16.2 10.1 0 10.6-7.05 10.6-11.2v-31.6h8.45" style=""/><path d="m2486 751v48.2h-8.14v-48.2zm.88 61.4v9.66h-9.66v-9.66z" style=""/><path d="m2542 751v32.3c0 7.17-1.62 17-14.9 17-9.77 0-15.1-7.39-15.7-8.25v7.7h-7.81v-48.8h8.47v26.6c0 7.17 2.72 16.2 11 16.2 10.4 0 10.5-7.7 10.5-11.2v-31.6h8.47" style=""/><path d="m2631 775c0 3.69-.11 11.8-4.34 18.3-4.45 6.73-11.1 7.92-15 7.92-12 0-21.8-11.5-21.8-25.5 0-14.3 10.4-25.7 23.4-25.7 6.85 0 13 2.59 17.2 5.64l-.64 7.05c-6.84-5.64-14-6.08-16.5-6.08-8.68 0-15.6 7.7-16 18.3zm-6.19 5.97h-26.8c1.73 8.25 7.48 13.7 13.7 13.7 5.64 0 11.7-3.69 13.1-13.7" style=""/><path d="m2712 751v32.3c0 7.28-1.73 17-14.9 17-6.52 0-12.2-3.05-16.2-8.91-2.81 8.25-10.4 8.91-13.9 8.91-7.81 0-12.9-4.45-15.8-8.36v7.81h-7.81v-48.8h8.47v26.6c0 7.39 2.94 16.2 11 16.2 10.1 0 10.6-7.05 10.6-11.2v-31.6h8.47v26.6c0 7.39 2.92 16.2 11 16.2 10.1 0 10.6-7.05 10.6-11.2v-31.6h8.45" style=""/><path d="m2773 775c0 13.5-7.38 25.2-17.6 25.2-4.23 0-11-1.09-17.5-6.41v32.3h-8.14v-75.3h8.47v4.98c2.61-2.38 7.27-6.17 14.6-6.17 10.8 0 20.2 10.8 20.2 25.4zm-8.45 0c0-14.1-9.13-18.8-15.7-18.8-4.23 0-7.81 1.95-10.5 6.95v24c1.73 2.61 5.64 6.41 11.6 6.41 6.41 0 14.7-4.67 14.7-18.5" style=""/><path d="m2826 775c0 3.69-.11 11.8-4.34 18.3-4.45 6.73-11.1 7.92-15 7.92-12 0-21.8-11.5-21.8-25.5 0-14.3 10.4-25.7 23.4-25.7 6.85 0 13 2.59 17.2 5.64l-.64 7.05c-6.84-5.64-14-6.08-16.5-6.08-8.68 0-15.6 7.7-16 18.3zm-6.19 5.97h-26.8c1.73 8.25 7.48 13.7 13.7 13.7 5.64 0 11.7-3.69 13.1-13.7" style=""/><path d="m2876 751v75.3h-8.14v-31.9c-5.75 4.77-11.8 5.97-15.8 5.97-10.7 0-19.2-11.3-19.2-25.3 0-14.2 8.36-25.3 18.6-25.3 3.6 0 9.99.968 16.1 6.83v-5.64zm-8.46 15.1c0-1.52-.11-3.47-3.58-6.61-2.5-2.17-5.21-3.05-8.03-3.05-6.72 0-14.6 5.11-14.6 18.6 0 14.3 9.32 18.8 15.7 18.8 4.87 0 8.12-2.5 10.5-5.97v-21.7" style=""/><path d="m2933 751v75.3h-8.14v-31.9c-5.75 4.77-11.8 5.97-15.8 5.97-10.7 0-19.2-11.3-19.2-25.3 0-14.2 8.36-25.3 18.6-25.3 3.6 0 9.99.968 16.1 6.83v-5.64zm-8.46 15.1c0-1.52-.11-3.47-3.58-6.61-2.5-2.17-5.21-3.05-8.03-3.05-6.72 0-14.6 5.11-14.6 18.6 0 14.3 9.32 18.8 15.7 18.8 4.87 0 8.12-2.5 10.5-5.97v-21.7" style=""/><path d="m2987 775c0 3.69-.11 11.8-4.34 18.3-4.45 6.73-11.1 7.92-15 7.92-12 0-21.8-11.5-21.8-25.5 0-14.3 10.4-25.7 23.4-25.7 6.85 0 13 2.59 17.2 5.64l-.64 7.05c-6.84-5.64-14-6.08-16.5-6.08-8.68 0-15.6 7.7-16 18.3zm-6.19 5.97h-26.8c1.73 8.25 7.48 13.7 13.7 13.7 5.64 0 11.7-3.69 13.1-13.7" style=""/><path d="m3037 751v75.3h-8.14v-31.9c-5.75 4.77-11.8 5.97-15.8 5.97-10.7 0-19.2-11.3-19.2-25.3 0-14.2 8.36-25.3 18.6-25.3 3.6 0 9.99.968 16.1 6.83v-5.64zm-8.46 15.1c0-1.52-.11-3.47-3.58-6.61-2.5-2.17-5.21-3.05-8.03-3.05-6.72 0-14.6 5.11-14.6 18.6 0 14.3 9.32 18.8 15.7 18.8 4.87 0 8.12-2.5 10.5-5.97v-21.7" style=""/><path d="m3077 772v6.3h-28.8v-6.3z" style=""/><path d="m3122 765c0 5.97-4.01 9.66-4.23 9.98-4.24 3.8-7.16 4.44-12.6 5.42-5.97 1.19-11 2.28-11 7.59 0 6.73 7.81 6.73 9.22 6.73 3.48 0 9.23-.437 15.4-4.12l1.3 7.05c-5.64 2.61-10.1 3.47-15.6 3.47-2.71 0-18 0-18-14.2 0-5.33 3.15-8.8 5.86-10.9 3.36-2.39 5.75-2.81 11.7-4.02 3.9-.75 10.2-2.06 10.2-7.81 0-7.48-8.58-7.48-10.2-7.48-8.78 0-14.9 4.02-16.8 5.31l-1.31-7.38c3.49-1.73 9.45-4.76 18.2-4.76 1.95 0 7.92 0 12.6 3.47 3.36 2.59 5.2 6.94 5.2 11.6" style=""/><path d="m3177 775c0 13-6.83 25.2-17.2 25.2-6.52 0-12.8-2.28-17.8-6.52v5.31h-8.14v-69.2h8.47v26c3.36-3.14 8.14-6.17 14.7-6.17 10.5 0 20.1 10.6 20.1 25.4zm-8.45 0c0-11.2-7.71-18.8-15.8-18.8-4.23 0-7.17 2.17-9.33 5.11-1.09 1.62-1.09 1.84-1.09 3.8v21.8c2.61 3.81 6.84 6.3 11.5 6.3 8.25 0 14.8-8.25 14.8-18.2" style=""/><path d="m3225 751v31.4c0 11.1-7.93 18.7-17.9 18.7-7.05 0-11.9-1.74-17-4.66l.65-7.17c5.64 4.02 11.1 5.44 16.4 5.44 5.11 0 9.45-4.34 9.45-12.4v-4.67c-16.3-.219-30.1-4.76-30.1-14.3 0-4.67 2.92-13.5 12.4-13.5 1.52 0 11.7.218 18 5.09v-3.91zm-8.46 14.3c0-2.06 0-4.78-3.7-6.84-3.14-1.95-7.27-2.06-8.45-2.06-5.22 0-10.1 2.5-10.1 7.06 0 7.59 17.6 8.34 22.2 8.56v-6.72" style=""/><path d="m3279 755-.65 7.26c-5.54-4.34-11.4-5.86-16.9-5.86-9 0-15.1 7.81-15.1 18.5 0 8.45 4.01 18.9 15.5 18.9 5.64 0 9.33-.875 15.3-4.78l1.29 7.06c-6.4 3.69-10.1 4.66-16.7 4.66-15.1 0-23.9-13.1-23.9-25.9 0-13.5 9.87-25.3 23.4-25.3 5.86 0 11.8 1.52 17.7 5.53" style=""/><path d="m3327 775c0 3.69-.11 11.8-4.34 18.3-4.45 6.73-11.1 7.92-15 7.92-12 0-21.8-11.5-21.8-25.5 0-14.3 10.4-25.7 23.4-25.7 6.85 0 13 2.59 17.2 5.64l-.64 7.05c-6.84-5.64-14-6.08-16.5-6.08-8.68 0-15.6 7.7-16 18.3zm-6.19 5.97h-26.8c1.73 8.25 7.48 13.7 13.7 13.7 5.64 0 11.7-3.69 13.1-13.7" style=""/><path d="m3401 754-1.75 6.41c-2.81-2.28-6.28-3.58-9.76-3.58-4.02 0-5.54 3.25-5.54 9v27.1h15.3v6.28h-15.3v13.8h-7.48v-13.8h-9.44v-6.28h9.11v-29c0-6.5 1.52-14.1 9.02-14.1 7.59 0 13.1 2.7 15.8 4.11" style=""/><path d="m3451 751v32.3c0 7.17-1.62 17-14.9 17-6.72 0-11.9-3.38-15.4-7.81v33.7h-8.14v-75.3h8.47v26.6c0 7.17 2.72 16.2 11 16.2 10.4 0 10.5-7.7 10.5-11.2v-31.6h8.47" style=""/><path d="m3506 775c0 3.69-.11 11.8-4.34 18.3-4.45 6.73-11.1 7.92-15 7.92-12 0-21.8-11.5-21.8-25.5 0-14.3 10.4-25.7 23.4-25.7 6.85 0 13 2.59 17.2 5.64l-.64 7.05c-6.84-5.64-14-6.08-16.5-6.08-8.68 0-15.6 7.7-16 18.3zm-6.19 5.97h-26.8c1.73 8.25 7.48 13.7 13.7 13.7 5.64 0 11.7-3.69 13.1-13.7" style=""/><path d="m3583 765c0 5.97-4.01 9.66-4.23 9.98-4.24 3.8-7.16 4.44-12.6 5.42-5.97 1.19-11 2.28-11 7.59 0 6.73 7.81 6.73 9.22 6.73 3.48 0 9.23-.437 15.4-4.12l1.3 7.05c-5.64 2.61-10.1 3.47-15.6 3.47-2.71 0-18 0-18-14.2 0-5.33 3.15-8.8 5.86-10.9 3.36-2.39 5.75-2.81 11.7-4.02 3.9-.75 10.2-2.06 10.2-7.81 0-7.48-8.58-7.48-10.2-7.48-8.78 0-14.9 4.02-16.8 5.31l-1.31-7.38c3.49-1.73 9.45-4.76 18.2-4.76 1.95 0 7.92 0 12.6 3.47 3.36 2.59 5.2 6.94 5.2 11.6" style=""/><path d="m3630 751v31.4c0 11.1-7.93 18.7-17.9 18.7-7.05 0-11.9-1.74-17-4.66l.65-7.17c5.64 4.02 11.1 5.44 16.4 5.44 5.11 0 9.45-4.34 9.45-12.4v-4.67c-16.3-.219-30.1-4.76-30.1-14.3 0-4.67 2.92-13.5 12.4-13.5 1.52 0 11.7.218 18 5.09v-3.91zm-8.46 14.3c0-2.06 0-4.78-3.7-6.84-3.14-1.95-7.27-2.06-8.45-2.06-5.22 0-10.1 2.5-10.1 7.06 0 7.59 17.6 8.34 22.2 8.56v-6.72" style=""/><path d="m3715 751v32.3c0 7.28-1.73 17-14.9 17-6.52 0-12.2-3.05-16.2-8.91-2.81 8.25-10.4 8.91-13.9 8.91-7.81 0-12.9-4.45-15.8-8.36v7.81h-7.81v-48.8h8.47v26.6c0 7.39 2.94 16.2 11 16.2 10.1 0 10.6-7.05 10.6-11.2v-31.6h8.47v26.6c0 7.39 2.92 16.2 11 16.2 10.1 0 10.6-7.05 10.6-11.2v-31.6h8.45" style=""/><path d="m3770 775c0 3.69-.11 11.8-4.34 18.3-4.45 6.73-11.1 7.92-15 7.92-12 0-21.8-11.5-21.8-25.5 0-14.3 10.4-25.7 23.4-25.7 6.85 0 13 2.59 17.2 5.64l-.64 7.05c-6.84-5.64-14-6.08-16.5-6.08-8.68 0-15.6 7.7-16 18.3zm-6.19 5.97h-26.8c1.73 8.25 7.48 13.7 13.7 13.7 5.64 0 11.7-3.69 13.1-13.7" style=""/><path d="m3879 799h-7.92l-6.95-23c-1.19-3.91-4.44-14.6-4.98-19.3h-.11c-.44 3.36-3.14 13-4.99 19.2l-7.06 23.1h-7.59l-6.19-20.4c-1.19-3.8-4.88-16.3-5.31-21.8h-.11c-.55 5.2-4.13 17.5-5.86 23.4l-5.64 18.8h-8.25l14.9-48.2h8.56l6.74 22.4c1.51 4.98 4.54 15.7 4.87 19.7h.11c.22-3.03 2.06-10.5 3.47-15.2l7.92-26.9h9.55l14.9 48.2" style=""/><path d="m3923 751v31.4c0 11.1-7.93 18.7-17.9 18.7-7.05 0-11.9-1.74-17-4.66l.65-7.17c5.64 4.02 11.1 5.44 16.4 5.44 5.11 0 9.45-4.34 9.45-12.4v-4.67c-16.3-.219-30.1-4.76-30.1-14.3 0-4.67 2.92-13.5 12.4-13.5 1.52 0 11.7.218 18 5.09v-3.91zm-8.46 14.3c0-2.06 0-4.78-3.7-6.84-3.14-1.95-7.27-2.06-8.45-2.06-5.22 0-10.1 2.5-10.1 7.06 0 7.59 17.6 8.34 22.2 8.56v-6.72" style=""/><path d="m3976 799h-8.14c-14.1-34.5-14.3-39.5-14.4-42h-.11c-.66 7.26-9.33 27.5-9.77 28.4l-5.86 13.6h-8.57l21-48.2-3.9-9.77c-2.82-6.3-4.66-6.3-6.18-6.3-1.75 0-5.21.437-8.46 1.73l.65-7.05c2.38-.547 5.42-.875 7.81-.875 3.8 0 7.82 1.31 12.2 12.4l23.7 58" style=""/><path d="m4030 751v48.2h-8.14v-48.2zm.88 61.4v9.66h-9.66v-9.66z" style=""/><path d="m4075 754-1.75 6.41c-2.81-2.28-6.28-3.58-9.76-3.58-4.02 0-5.54 3.25-5.54 9v27.1h15.3v6.28h-15.3v13.8h-7.48v-13.8h-9.44v-6.28h9.11v-29c0-6.5 1.52-14.1 9.02-14.1 7.59 0 13.1 2.7 15.8 4.11" style=""/><path d="m4160 751v75.3h-8.14v-31.9c-5.75 4.77-11.8 5.97-15.8 5.97-10.7 0-19.2-11.3-19.2-25.3 0-14.2 8.36-25.3 18.6-25.3 3.6 0 9.99.968 16.1 6.83v-5.64zm-8.46 15.1c0-1.52-.11-3.47-3.58-6.61-2.5-2.17-5.21-3.05-8.03-3.05-6.72 0-14.6 5.11-14.6 18.6 0 14.3 9.32 18.8 15.7 18.8 4.87 0 8.12-2.5 10.5-5.97v-21.7" style=""/><path d="m4186 751v48.2h-8.14v-48.2zm.88 61.4v9.66h-9.66v-9.66z" style=""/><path d="m4242 751v75.3h-8.14v-31.9c-5.75 4.77-11.8 5.97-15.8 5.97-10.7 0-19.2-11.3-19.2-25.3 0-14.2 8.36-25.3 18.6-25.3 3.6 0 9.99.968 16.1 6.83v-5.64zm-8.46 15.1c0-1.52-.11-3.47-3.58-6.61-2.5-2.17-5.21-3.05-8.03-3.05-6.72 0-14.6 5.11-14.6 18.6 0 14.3 9.32 18.8 15.7 18.8 4.87 0 8.12-2.5 10.5-5.97v-21.7" style=""/><path d="m300 616v48.2h-8.14v-48.2zm.875 61.4v9.66h-9.66v-9.66z" style=""/><path d="m357 616v32.3c0 7.17-1.62 17-14.9 17-9.76 0-15.1-7.39-15.7-8.25v7.7h-7.81v-48.8h8.47v26.6c0 7.17 2.72 16.2 11 16.2 10.4 0 10.5-7.7 10.5-11.2v-31.6h8.47" style=""/><path d="m438 619-1.75 6.41c-2.81-2.28-6.28-3.58-9.76-3.58-4.02 0-5.53 3.25-5.53 9v27.1h15.3v6.28h-15.3v13.8h-7.48v-13.8h-9.44v-6.28h9.11v-29c0-6.5 1.52-14.1 9.02-14.1 7.59 0 13.1 2.7 15.8 4.11" style=""/><path d="m489 616v32.3c0 7.17-1.62 17-14.9 17-6.72 0-11.9-3.38-15.4-7.81v33.7h-8.14v-75.3h8.47v26.6c0 7.17 2.72 16.2 11 16.2 10.4 0 10.5-7.7 10.5-11.2v-31.6h8.47" style=""/><path d="m543 640c0 3.69-.109 11.8-4.34 18.3-4.45 6.73-11.1 7.92-15 7.92-12 0-21.8-11.5-21.8-25.5 0-14.3 10.4-25.7 23.4-25.7 6.84 0 13 2.59 17.2 5.64l-.64 7.05c-6.84-5.64-14-6.08-16.5-6.08-8.69 0-15.6 7.7-16 18.3zm-6.19 5.97h-26.8c1.73 8.25 7.48 13.7 13.7 13.7 5.64 0 11.7-3.69 13.1-13.7" style=""/><path d="m630 616v48.2h-8.47v-31.5c0-8.12-6.08-11.9-13-11.9-7.7 0-8.47 2.81-8.47 7.48v35.9h-8.47v-36.3c0-7.81 2.5-13 11.5-13 5.75 0 13.5 1.73 18.8 6.39v-5.2h8.14" style=""/><path d="m678 630c0 5.97-4.02 9.66-4.24 9.98-4.23 3.8-7.16 4.44-12.6 5.42-5.97 1.19-11 2.28-11 7.59 0 6.73 7.81 6.73 9.22 6.73 3.48 0 9.23-.437 15.4-4.12l1.3 7.05c-5.64 2.61-10.1 3.47-15.6 3.47-2.72 0-18 0-18-14.2 0-5.33 3.16-8.8 5.86-10.9 3.36-2.39 5.75-2.81 11.7-4.02 3.91-.75 10.2-2.06 10.2-7.81 0-7.48-8.58-7.48-10.2-7.48-8.78 0-14.9 4.02-16.8 5.31l-1.31-7.38c3.48-1.73 9.45-4.76 18.2-4.76 1.95 0 7.92 0 12.6 3.47 3.36 2.59 5.2 6.94 5.2 11.6" style=""/><path d="m726 640c0 3.69-.109 11.8-4.34 18.3-4.45 6.73-11.1 7.92-15 7.92-12 0-21.8-11.5-21.8-25.5 0-14.3 10.4-25.7 23.4-25.7 6.84 0 13 2.59 17.2 5.64l-.64 7.05c-6.84-5.64-14-6.08-16.5-6.08-8.69 0-15.6 7.7-16 18.3zm-6.19 5.97h-26.8c1.73 8.25 7.48 13.7 13.7 13.7 5.64 0 11.7-3.69 13.1-13.7" style=""/><path d="m764 658v7.28c-9.66-.109-15.6-5.44-19-10.4v9.88h-7.61v-48.8h8.14v23.2c0 10.9 7.81 18.7 18.5 18.9" style=""/><path d="m797 637v6.3h-28.8v-6.3z" style=""/><path d="m842 630c0 5.97-4.02 9.66-4.24 9.98-4.23 3.8-7.16 4.44-12.6 5.42-5.97 1.19-11 2.28-11 7.59 0 6.73 7.81 6.73 9.22 6.73 3.48 0 9.23-.437 15.4-4.12l1.3 7.05c-5.64 2.61-10.1 3.47-15.6 3.47-2.72 0-18 0-18-14.2 0-5.33 3.16-8.8 5.86-10.9 3.36-2.39 5.75-2.81 11.7-4.02 3.91-.75 10.2-2.06 10.2-7.81 0-7.48-8.58-7.48-10.2-7.48-8.78 0-14.9 4.02-16.8 5.31l-1.31-7.38c3.48-1.73 9.45-4.76 18.2-4.76 1.95 0 7.92 0 12.6 3.47 3.36 2.59 5.2 6.94 5.2 11.6" style=""/><path d="m897 640c0 13-6.83 25.2-17.2 25.2-6.52 0-12.8-2.28-17.8-6.52v5.31h-8.14v-69.2h8.47v26c3.36-3.14 8.14-6.17 14.7-6.17 10.5 0 20.1 10.6 20.1 25.4zm-8.45 0c0-11.2-7.7-18.8-15.8-18.8-4.23 0-7.17 2.17-9.33 5.11-1.09 1.62-1.09 1.84-1.09 3.8v21.8c2.61 3.81 6.84 6.3 11.5 6.3 8.25 0 14.8-8.25 14.8-18.2" style=""/><path d="m945 616v31.4c0 11.1-7.92 18.7-17.9 18.7-7.05 0-11.9-1.74-17-4.66l.656-7.17c5.64 4.02 11.1 5.44 16.4 5.44 5.11 0 9.45-4.34 9.45-12.4v-4.67c-16.3-.219-30.1-4.76-30.1-14.3 0-4.67 2.92-13.5 12.4-13.5 1.52 0 11.7.218 18 5.09v-3.91zm-8.45 14.3c0-2.06 0-4.78-3.7-6.84-3.14-1.95-7.27-2.06-8.45-2.06-5.22 0-10.1 2.5-10.1 7.06 0 7.59 17.6 8.34 22.2 8.56v-6.72" style=""/><path d="m999 620-.656 7.26c-5.53-4.34-11.4-5.86-16.9-5.86-9 0-15.1 7.81-15.1 18.5 0 8.45 4.02 18.9 15.5 18.9 5.64 0 9.33-.875 15.3-4.78l1.3 7.06c-6.41 3.69-10.1 4.66-16.7 4.66-15.1 0-23.9-13.1-23.9-25.9 0-13.5 9.88-25.3 23.4-25.3 5.86 0 11.8 1.52 17.7 5.53" style=""/><path d="m1047 640c0 3.69-.11 11.8-4.34 18.3-4.45 6.73-11.1 7.92-15 7.92-12 0-21.8-11.5-21.8-25.5 0-14.3 10.4-25.7 23.4-25.7 6.85 0 13 2.59 17.2 5.64l-.64 7.05c-6.84-5.64-14-6.08-16.5-6.08-8.68 0-15.6 7.7-16 18.3zm-6.19 5.97h-26.8c1.73 8.25 7.48 13.7 13.7 13.7 5.64 0 11.7-3.69 13.1-13.7" style=""/><path d="m1139 640c0 13-6.83 25.2-17.2 25.2-6.52 0-12.8-2.28-17.8-6.52v5.31h-8.14v-69.2h8.47v26c3.36-3.14 8.14-6.17 14.7-6.17 10.5 0 20.1 10.6 20.1 25.4zm-8.45 0c0-11.2-7.71-18.8-15.8-18.8-4.23 0-7.17 2.17-9.33 5.11-1.09 1.62-1.09 1.84-1.09 3.8v21.8c2.61 3.81 6.84 6.3 11.5 6.3 8.25 0 14.8-8.25 14.8-18.2" style=""/><path d="m1175 658v7.28c-9.65-.109-15.6-5.44-19-10.4v9.88h-7.61v-48.8h8.14v23.2c0 10.9 7.81 18.7 18.4 18.9" style=""/><path d="m1229 640c0 14.5-10.9 26.1-23.8 26.1-13.4 0-23.9-11.9-23.9-26.1 0-14.3 11.1-25.1 23.8-25.1 13 0 23.9 11 23.9 25.1zm-8.47 1.08c0-12.8-7.37-19.2-15.4-19.2-7.49 0-15.3 6.08-15.3 19.2s8.25 18.5 15.3 18.5c7.59 0 15.4-5.64 15.4-18.5" style=""/><path d="m1285 659-1.19 6.84c-7.6 0-13.9-2.06-17.2-3.48-2.26 1.86-5.97 3.48-10.3 3.48-9.34 0-17.2-7.81-17.2-17.7 0-4.02 1.41-7.92 3.58-10.8-3.15-4.44-3.15-8.67-3.15-9.22 0-2.83.98-5.97 2.82-8.25-5.64-3.36-6.95-8.34-6.95-11.2 0-8.14 10.8-14.7 24-14.7 13.3 0 24.1 6.41 24.1 14.8 0 15.1-18.1 15.1-22.4 15.1h-9.55c-1.4 0-6.29 0-6.29 5.75 0 1.2.43 2.94 1.2 3.91 2.28-1.62 5.86-3.14 9.87-3.14 9.77 0 17.4 8.03 17.4 17.7 0 5.2-2.39 9.22-3.57 10.8l.42-.109c2.39 0 5.44.437 8.03.437 1.95 0 6.41-.328 6.41-.328zm-18.9-10.8c0-8.47-5.11-11.5-9.77-11.5-4.01 0-9.65 2.48-9.65 11.5 0 9 5.64 11.5 9.65 11.5 4.66 0 9.77-3.05 9.77-11.5zm9.77-39.5c0-4.78-7.49-8.36-16.4-8.36-8.79 0-16.5 3.38-16.5 8.47 0 .328 0 7.38 8.45 7.38h9.77c2.39 0 14.7 0 14.7-7.48" style=""/><path d="m1322 658v7.28c-9.65-.109-15.6-5.44-19-10.4v9.88h-7.61v-48.8h8.14v23.2c0 10.9 7.81 18.7 18.4 18.9" style=""/><path d="m1368 616v31.4c0 11.1-7.93 18.7-17.9 18.7-7.05 0-11.9-1.74-17-4.66l.65-7.17c5.64 4.02 11.1 5.44 16.4 5.44 5.11 0 9.45-4.34 9.45-12.4v-4.67c-16.3-.219-30.1-4.76-30.1-14.3 0-4.67 2.92-13.5 12.4-13.5 1.52 0 11.7.218 18 5.09v-3.91zm-8.46 14.3c0-2.06 0-4.78-3.7-6.84-3.14-1.95-7.27-2.06-8.45-2.06-5.22 0-10.1 2.5-10.1 7.06 0 7.59 17.6 8.34 22.2 8.56v-6.72" style=""/><path d="m1453 616v32.3c0 7.28-1.73 17-14.9 17-6.52 0-12.2-3.05-16.2-8.91-2.81 8.25-10.4 8.91-13.9 8.91-7.81 0-12.9-4.45-15.8-8.36v7.81h-7.81v-48.8h8.47v26.6c0 7.39 2.94 16.2 11 16.2 10.1 0 10.6-7.05 10.6-11.2v-31.6h8.47v26.6c0 7.39 2.92 16.2 11 16.2 10.1 0 10.6-7.05 10.6-11.2v-31.6h8.45" style=""/><path d="m1502 630c0 5.97-4.01 9.66-4.23 9.98-4.24 3.8-7.16 4.44-12.6 5.42-5.97 1.19-11 2.28-11 7.59 0 6.73 7.81 6.73 9.22 6.73 3.48 0 9.23-.437 15.4-4.12l1.3 7.05c-5.64 2.61-10.1 3.47-15.6 3.47-2.71 0-18 0-18-14.2 0-5.33 3.15-8.8 5.86-10.9 3.36-2.39 5.75-2.81 11.7-4.02 3.9-.75 10.2-2.06 10.2-7.81 0-7.48-8.58-7.48-10.2-7.48-8.78 0-14.9 4.02-16.8 5.31l-1.31-7.38c3.49-1.73 9.45-4.76 18.2-4.76 1.95 0 7.92 0 12.6 3.47 3.36 2.59 5.2 6.94 5.2 11.6" style=""/><path d="m1525 616v9h-9v-9z" style=""/></g></g></svg>