<svg height="676" style="" viewBox="0 338 603 338" width="1206" xmlns="http://www.w3.org/2000/svg"><g style="" transform="matrix(1.33 0 0 -1.33 0 676)"><g style="stroke-width:.1"><path d="m0 .00391h453.5v255.1h-453.5z" style=""/><path d="m26.9 49c.0024 1.36 1.1 2.46 2.46 2.46s2.46-1.1 2.46-2.46-1.1-2.46-2.46-2.46-2.46 1.1-2.46 2.46m-29.3-22.2c0 1.36 1.1 2.46 2.46 2.46 1.35 0 2.46-1.1 2.46-2.46s-1.1-2.46-2.46-2.46-2.46 1.1-2.46 2.46m58.6-.115c0 1.36 1.1 2.46 2.46 2.46s2.46-1.1 2.46-2.46-1.1-2.46-2.46-2.46-2.46 1.1-2.46 2.46m-51.5-3.37c1.13.501 1.64 1.83 1.14 2.96l-1.09 2.47h4.29v-19.3h-8.65c-1.07 3.75-1.4 7.67-.979 11.5zm17.9-.475v5.7h10.2c.527 0 3.72-.609 3.72-3 0-1.98-2.45-2.7-4.47-2.7zm-13.9-30.7c0 1.36 1.1 2.46 2.46 2.46s2.46-1.1 2.46-2.46-1.1-2.46-2.46-2.46-2.46 1.1-2.46 2.46m36.4-.113c0 1.36 1.1 2.46 2.46 2.46s2.46-1.1 2.46-2.46-1.1-2.46-2.46-2.46-2.46 1.1-2.46 2.46m.76 5.57c-1.21.259-2.4-.51-2.66-1.72l-1.23-5.76c-8.03-3.64-17.2-3.59-25.2.12l-1.23 5.76c-.258 1.21-1.45 1.98-2.66 1.72l-5.08-1.09c-.943.973-1.82 2.01-2.63 3.1h24.7c.281 0 .466.0504.466.306v8.75c0 .254-.186.306-.466.306h-7.23v5.54h7.82c.712 0 3.82-.203 4.81-4.17.31-1.22.993-5.19 1.46-6.46.465-1.42 2.36-4.27 4.37-4.27h12.8c-.855-1.15-1.79-2.23-2.8-3.24zm13.7 23.1c.174-1.74.195-3.5.0637-5.25h-3.1c-.311 0-.435-.204-.435-.509v-1.42c0-3.36-1.89-4.09-3.55-4.27-1.58-.177-3.33.662-3.54 1.63-.932 5.24-2.48 6.36-4.94 8.29 3.04 1.93 6.21 4.78 6.21 8.59 0 4.12-2.82 6.72-4.75 7.99-2.7 1.78-5.69 2.14-6.5 2.14h-32.1c4.44 4.96 10.4 8.32 16.9 9.55l3.78-3.97c.856-.896 2.27-.93 3.17-.0726l4.23 4.05c8.74-1.64 16.3-7.03 20.7-14.8l-2.9-6.55c-.501-1.13.0097-2.46 1.14-2.96zm7.23-.107-.1 1.01 2.99 2.79c.605.565.379 1.71-.398 1.99l-3.82 1.43-.3.984 2.38 3.31c.484.672.0383 1.74-.778 1.88l-4.03.654-.484.904 1.69 3.71c.347.756-.295 1.72-1.13 1.69l-4.09-.144-.645.784.939 3.98c.189.807-.63 1.63-1.44 1.44l-3.98-.936-.784.643.143 4.09c.0332.827-.935 1.47-1.69 1.13l-3.71-1.69-.904.485-.657 4.02c-.132.816-1.21 1.26-1.88.778l-3.31-2.38-.983.298-1.43 3.82c-.289.779-1.43 1-1.99.399l-2.78-2.99-1.01.0992-2.15 3.47c-.436.704-1.6.704-2.03 0l-2.15-3.47-1.01-.0992-2.79 2.99c-.564.604-1.71.38-1.99-.399l-1.43-3.82-.983-.298-3.31 2.38c-.672.485-1.75.0371-1.88-.778l-.656-4.03-.904-.484-3.71 1.69c-.754.344-1.72-.302-1.69-1.13l.144-4.08-.784-.646-3.98.939c-.808.188-1.63-.63-1.44-1.44l.936-3.98-.644-.784-4.08.144c-.824.0234-1.47-.936-1.13-1.69l1.69-3.71-.485-.904-4.03-.654c-.816-.133-1.26-1.21-.776-1.88l2.38-3.31-.3-.984-3.82-1.43c-.775-.289-1-1.43-.396-2l2.99-2.78-.1-1.01-3.47-2.15c-.703-.436-.703-1.6 0-2.03l3.47-2.15.1-1.01-2.99-2.79c-.607-.564-.379-1.7.396-1.99l3.82-1.43.3-.986-2.38-3.31c-.484-.673-.0395-1.75.779-1.88l4.02-.653.485-.904-1.69-3.71c-.345-.756.305-1.73 1.13-1.69l4.08.143.646-.784-.936-3.98c-.189-.806.63-1.63 1.44-1.44l3.98.938.784-.642-.144-4.09c-.0308-.826.938-1.48 1.69-1.13l3.71 1.69.904-.483.656-4.02c.132-.818 1.21-1.26 1.88-.778l3.31 2.38.984-.3 1.43-3.82c.288-.774 1.43-1 1.99-.396l2.79 2.99 1.01-.102 2.15-3.47c.434-.699 1.6-.701 2.03 0l2.15 3.47 1.01.102 2.79-2.99c.565-.607 1.71-.377 1.99.396l1.43 3.82.985.3 3.31-2.38c.672-.482 1.75-.0394 1.88.778l.657 4.02.904.483 3.71-1.69c.755-.346 1.72.3 1.69 1.13l-.143 4.09.784.642 3.98-.938c.811-.19 1.63.631 1.44 1.44l-.938 3.98.645.784 4.08-.143c.826-.0332 1.48.936 1.13 1.69l-1.69 3.71.484.904 4.02.653c.82.132 1.26 1.21.778 1.88l-2.38 3.31.3.986 3.82 1.43c.778.291 1 1.43.396 1.99l-2.98 2.79.0985 1.01 3.47 2.15c.704.433.704 1.6.0012 2.03z" style="fill:#383232"/><path d="m0 227.5h453.5v27.6h-453.5z" style="fill:#1c1c1c"/><g style="fill:#fff"><path d="m17 235.1v9.97h-1.23v-4.35h-4.78v4.35h-1.24v-9.97h1.24v4.76h4.78v-4.76z" style=""/><path d="m24.1 235.1v4.21c0 1.38-.992 2.38-2.33 2.38-.861 0-1.51-.202-2.21-.603l.0875-.949c.631.46 1.29.719 2.12.719.661 0 1.24-.531 1.24-1.58v-.588c-.647-.029-1.51-.072-2.37-.359-.962-.331-1.52-.863-1.52-1.58 0-.632.375-1.8 1.6-1.8.791 0 1.8.23 2.33.675v-.531zm-1.09 1.92c0-.287 0-.633-.474-.919-.389-.245-.876-.287-1.09-.287-.776 0-1.31.415-1.31.948 0 .977 2 1.19 2.87 1.19v-.934" style=""/><path d="m29.3 240.7v.963c-1.31-.014-2.07-.775-2.46-1.34v1.26h-.992v-6.45h1.06v3.14c0 1.45 1.09 2.4 2.39 2.41" style=""/><path d="m35.6 235.1v9.97h-1.06v-4.2c-.661.545-1.41.747-2.03.747-1.36 0-2.48-1.47-2.48-3.33 0-1.85 1.06-3.33 2.43-3.33.531 0 1.34.172 2.05.877v-.733zm-1.09 1.7c-.344-.617-.847-.976-1.48-.976-.875 0-1.91.675-1.91 2.46 0 1.91 1.22 2.48 2.05 2.48.561 0 1.02-.286 1.34-.761v-3.2" style=""/><path d="m46 241.5h-1.05l-.862-2.92c-.2-.691-.603-2.04-.661-2.66h-.014c-.0422.345-.272 1.31-.575 2.33l-.947 3.25h-.992l-.819-2.82c-.258-.891-.603-2.13-.647-2.73h-.0141c-.014.273-.172 1.03-.445 2l-1.02 3.55h-1.09l1.92-6.38h1.11c.545 1.81 1.38 4.54 1.46 5.54h.0156c.0281-.589.316-1.62.416-1.95l1.02-3.59h1.26l1.92 6.38" style=""/><path d="m51.6 235.1v4.21c0 1.38-.992 2.38-2.33 2.38-.861 0-1.51-.202-2.21-.603l.0875-.949c.631.46 1.29.719 2.12.719.661 0 1.24-.531 1.24-1.58v-.588c-.647-.029-1.51-.072-2.37-.359-.962-.331-1.52-.863-1.52-1.58 0-.632.375-1.8 1.6-1.8.791 0 1.8.23 2.33.675v-.531zm-1.09 1.92c0-.287 0-.633-.474-.919-.389-.245-.876-.287-1.09-.287-.776 0-1.31.415-1.31.948 0 .977 2 1.19 2.87 1.19v-.934" style=""/><path d="m56.8 240.7v.963c-1.31-.014-2.07-.775-2.46-1.34v1.26h-.992v-6.45h1.06v3.14c0 1.45 1.09 2.4 2.39 2.41" style=""/><path d="m62.7 238.3c0 .617-.0578 1.49-.517 2.26-.589.992-1.6 1.11-2.01 1.11-1.55 0-2.85-1.49-2.85-3.36 0-1.9 1.38-3.38 3.05-3.38.659 0 1.45.188 2.24.761 0 .058-.0437.533-.0437.533s-.0422.33-.0422.388c-.848-.719-1.7-.819-2.13-.819-1.11 0-2.05.99-2.08 2.51zm-.847.775h-3.45c.244.962.919 1.72 1.77 1.72.445 0 1.44-.2 1.68-1.72" style=""/><path d="m73 236.9c0 .733-.445 1.19-.502 1.26-.533.545-.962.631-1.84.805-.517.1-1.25.244-1.25.962 0 .891 1 .891 1.19.891.761 0 1.36-.174 2-.533l.172.934c-.919.432-1.7.446-2.02.446-.331 0-2.33 0-2.33-1.87 0-.633.345-1.06.561-1.26.517-.446.876-.518 1.72-.691.475-.1 1.31-.272 1.31-1.03 0-.991-1.12-.991-1.32-.991-.575 0-1.41.158-2.18.719l-.173-.977c.0719-.044 1.05-.633 2.37-.633 1.85 0 2.3 1.12 2.3 1.97" style=""/><path d="m79.3 235.1v6.38h-1.09v-4.11c0-1.09-.762-1.62-1.7-1.62-1.01 0-1.11.373-1.11 1v4.73h-1.09v-4.78c0-1.03.33-1.74 1.51-1.74.403 0 1.54.072 2.41.863v-.719h1.06" style=""/><path d="m87.1 238.3c0 1.74-.919 3.32-2.25 3.32-.589 0-1.51-.186-2.26-.819v.675h-1.06v-9.16h1.09v3.43c.488-.445 1.09-.791 1.87-.791 1.38 0 2.61 1.39 2.61 3.35zm-1.09-.014c0-1.44-.992-2.47-2.05-2.47-.403 0-.675.144-.934.344-.359.317-.402.575-.402.804v2.96c.33.489.877.804 1.47.804 1.06 0 1.92-1.08 1.92-2.44" style=""/><path d="m94.3 238.3c0 1.74-.919 3.32-2.25 3.32-.589 0-1.51-.186-2.26-.819v.675h-1.06v-9.16h1.09v3.43c.488-.445 1.09-.791 1.87-.791 1.38 0 2.61 1.39 2.61 3.35zm-1.09-.014c0-1.44-.992-2.47-2.05-2.47-.403 0-.675.144-.934.344-.359.317-.402.575-.402.804v2.96c.33.489.877.804 1.47.804 1.06 0 1.92-1.08 1.92-2.44" style=""/><path d="m101.8 238.3c0 1.94-1.42 3.43-3.07 3.43-1.7 0-3.09-1.52-3.09-3.43 0-1.88 1.44-3.3 3.07-3.3 1.7 0 3.09 1.45 3.09 3.3zm-1.09.144c0-1.77-1.02-2.56-1.98-2.56-1.03 0-2 .862-2 2.56 0 1.74 1.08 2.43 1.98 2.43.992 0 2-.747 2-2.43" style=""/><path d="m106.5 240.7v.963c-1.31-.014-2.07-.775-2.46-1.34v1.26h-.993v-6.45h1.06v3.14c0 1.45 1.09 2.4 2.39 2.41" style=""/><path d="m111.4 235.5-.216.833c-.501-.445-1.03-.503-1.29-.503-.633 0-.719.675-.719 1.18v3.62h1.98v.833h-1.98v1.82h-.99v-1.82h-1.21v-.833h1.18v-3.86c0-.834.187-1.82 1.18-1.82.963 0 1.62.332 2.07.561" style=""/><path d="m30.3 202.1v7.53h-.966v-7.53z" style=""/><path d="m35 202.4-.175.641c-.281-.228-.628-.358-.976-.358-.402 0-.553.325-.553.9v2.71h1.53v.628h-1.53v1.38h-.748v-1.38h-.944v-.628h.911v-2.9c0-.65.152-1.41.902-1.41.759 0 1.31.271 1.58.411" style=""/><path d="m40.6 202.1v4.82h-.814v-4.82zm.0875 6.14v.966h-.966v-.966z" style=""/><path d="m45.5 203.5c0 .597-.402.966-.424.999-.423.379-.716.443-1.26.542-.597.118-1.1.228-1.1.759 0 .674.781.674.922.674.348 0 .923-.044 1.54-.413l.13.705c-.564.261-1.01.347-1.56.347-.272 0-1.8 0-1.8-1.42 0-.533.316-.879.586-1.09.336-.239.575-.281 1.17-.401.391-.075 1.02-.206 1.02-.781 0-.749-.858-.749-1.02-.749-.878 0-1.49.402-1.68.531l-.131-.737c.348-.174.945-.477 1.82-.477.195 0 .792 0 1.26.347.336.26.52.694.52 1.16" style=""/><path d="m51.1 202.1v4.82h-.814v-4.82zm.0875 6.14v.966h-.966v-.966z" style=""/><path d="m59.7 202.1v3.23c0 .728-.173 1.7-1.49 1.7-.652 0-1.22-.305-1.62-.891-.281.825-1.04.891-1.39.891-.781 0-1.29-.446-1.58-.836v.781h-.781v-4.88h.847v2.66c0 .739.294 1.62 1.1 1.62 1.01 0 1.06-.705 1.06-1.12v-3.16h.847v2.66c0 .739.292 1.62 1.1 1.62 1.01 0 1.06-.705 1.06-1.12v-3.16h.845" style=""/><path d="m65.8 204.5c0 1.3-.683 2.52-1.72 2.52-.652 0-1.28-.229-1.78-.652v.531h-.814v-6.92h.847v2.6c.336-.314.814-.617 1.47-.617 1.05 0 2.01 1.06 2.01 2.54zm-.845 0c0-1.12-.77-1.88-1.58-1.88-.423 0-.717.217-.933.511-.109.163-.109.185-.109.38v2.18c.261.381.684.629 1.15.629.825 0 1.48-.825 1.48-1.82" style=""/><path d="m71.1 204.5c0 .368-.0109 1.18-.434 1.83-.445.674-1.11.793-1.5.793-1.2 0-2.18-1.15-2.18-2.55 0-1.43 1.04-2.57 2.34-2.57.684 0 1.3.26 1.72.564l-.064.705c-.684-.564-1.4-.608-1.65-.608-.869 0-1.56.771-1.6 1.84zm-.619.596h-2.68c.173.825.748 1.37 1.37 1.37.564 0 1.17-.369 1.31-1.37" style=""/><path d="m74.9 206.3v.729c-.966-.011-1.56-.544-1.9-1.04v.988h-.761v-4.88h.814v2.32c0 1.09.781 1.87 1.85 1.89" style=""/><path d="m79.6 202.1v3.14c0 1.11-.792 1.87-1.79 1.87-.705 0-1.19-.174-1.7-.466l.0656-.717c.564.401 1.11.544 1.64.544.511 0 .945-.435.945-1.24v-.467c-1.63-.022-3.01-.477-3.01-1.43 0-.468.292-1.35 1.24-1.35.152 0 1.17.022 1.8.51v-.391zm-.845 1.43c0-.206 0-.478-.37-.685-.314-.195-.727-.206-.845-.206-.522 0-1.01.25-1.01.706 0 .76 1.76.835 2.22.857v-.672" style=""/><path d="m84 202.4-.175.641c-.281-.228-.628-.358-.976-.358-.402 0-.553.325-.553.9v2.71h1.53v.628h-1.53v1.38h-.748v-1.38h-.944v-.628h.911v-2.9c0-.65.152-1.41.902-1.41.759 0 1.31.271 1.58.411" style=""/><path d="m86 202.1v4.82h-.814v-4.82zm.0875 6.14v.966h-.966v-.966z" style=""/><path d="m91.7 206.9h-.814l-.856-2.26c-.228-.597-.564-1.48-.652-1.99h-.0109c-.0657.391-.347 1.14-.456 1.43l-1.05 2.81h-.847l1.87-4.82h.955l1.87 4.82" style=""/><path d="m96.5 204.5c0 .368-.0109 1.18-.434 1.83-.445.674-1.11.793-1.5.793-1.2 0-2.18-1.15-2.18-2.55 0-1.43 1.04-2.57 2.34-2.57.684 0 1.3.26 1.72.564l-.064.705c-.684-.564-1.4-.608-1.65-.608-.869 0-1.56.771-1.6 1.84zm-.619.596h-2.68c.173.825.748 1.37 1.37 1.37.564 0 1.17-.369 1.31-1.37" style=""/><path d="m104.1 202.4-.175.641c-.281-.228-.628-.358-.976-.358-.402 0-.554.325-.554.9v2.71h1.53v.628h-1.53v1.38h-.748v-1.38h-.944v-.628h.911v-2.9c0-.65.152-1.41.902-1.41.759 0 1.31.271 1.58.411" style=""/><path d="m109.1 202.1v3.23c0 .717-.162 1.7-1.49 1.7-.672 0-1.19-.338-1.54-.782v3.37h-.814v-7.53h.847v2.66c0 .717.272 1.62 1.1 1.62 1.04 0 1.05-.77 1.05-1.12v-3.16h.847" style=""/><path d="m114.4 202.1v3.14c0 1.11-.793 1.87-1.79 1.87-.705 0-1.19-.174-1.7-.466l.065-.717c.564.401 1.11.544 1.64.544.511 0 .945-.435.945-1.24v-.467c-1.63-.022-3.01-.477-3.01-1.43 0-.468.292-1.35 1.24-1.35.152 0 1.17.022 1.8.51v-.391zm-.846 1.43c0-.206 0-.478-.37-.685-.314-.195-.727-.206-.845-.206-.522 0-1.01.25-1.01.706 0 .76 1.76.835 2.22.857v-.672" style=""/><path d="m118.9 202.4-.175.641c-.281-.228-.628-.358-.976-.358-.402 0-.554.325-.554.9v2.71h1.53v.628h-1.53v1.38h-.748v-1.38h-.944v-.628h.911v-2.9c0-.65.152-1.41.902-1.41.759 0 1.31.271 1.58.411" style=""/><path d="m129.5 202.1-2.15 3.54c1.12.325 1.84 1.1 1.84 1.98 0 1.07-1.18 2.02-2.74 2.02h-2.61v-7.53h.933v3.44h1.71l2.04-3.44zm-1.18 5.51c0-.771-.696-1.41-1.98-1.41h-1.56v2.82h1.56c1.26 0 1.98-.64 1.98-1.41" style=""/><path d="m134.3 202.1v4.82h-.847v-3.15c0-.812-.607-1.19-1.3-1.19-.77 0-.847.281-.847.749v3.59h-.847v-3.63c0-.781.25-1.3 1.15-1.3.575 0 1.34.174 1.88.639v-.52h.814" style=""/><path d="m139.1 203.5c0 .597-.401.966-.423.999-.424.379-.716.443-1.26.542-.597.118-1.1.228-1.1.759 0 .674.781.674.922.674.348 0 .923-.044 1.54-.413l.13.705c-.564.261-1.01.347-1.56.347-.271 0-1.8 0-1.8-1.42 0-.533.315-.879.586-1.09.336-.239.575-.281 1.17-.401.39-.075 1.02-.206 1.02-.781 0-.749-.858-.749-1.02-.749-.878 0-1.49.402-1.68.531l-.131-.737c.349-.174.945-.477 1.82-.477.195 0 .792 0 1.26.347.336.26.52.694.52 1.16" style=""/><path d="m143 202.4-.175.641c-.281-.228-.628-.358-.976-.358-.402 0-.554.325-.554.9v2.71h1.53v.628h-1.53v1.38h-.748v-1.38h-.944v-.628h.911v-2.9c0-.65.152-1.41.902-1.41.759 0 1.31.271 1.58.411" style=""/><path d="m150.9 203.5c0 .597-.401.966-.423.999-.424.379-.716.443-1.26.542-.597.118-1.1.228-1.1.759 0 .674.781.674.922.674.348 0 .923-.044 1.54-.413l.13.705c-.564.261-1.01.347-1.56.347-.271 0-1.8 0-1.8-1.42 0-.533.315-.879.586-1.09.336-.239.575-.281 1.17-.401.39-.075 1.02-.206 1.02-.781 0-.749-.858-.749-1.02-.749-.878 0-1.49.402-1.68.531l-.131-.737c.349-.174.945-.477 1.82-.477.195 0 .792 0 1.26.347.336.26.52.694.52 1.16" style=""/><path d="m155.9 202.1v4.82h-.847v-3.15c0-.812-.607-1.19-1.3-1.19-.77 0-.847.281-.847.749v3.59h-.847v-3.63c0-.781.25-1.3 1.15-1.3.575 0 1.34.174 1.88.639v-.52h.814" style=""/><path d="m162 204.5c0 1.3-.683 2.52-1.72 2.52-.652 0-1.28-.229-1.78-.652v.531h-.814v-6.92h.847v2.6c.336-.314.814-.617 1.47-.617 1.05 0 2.01 1.06 2.01 2.54zm-.845 0c0-1.12-.771-1.88-1.58-1.88-.423 0-.717.217-.933.511-.109.163-.109.185-.109.38v2.18c.261.381.684.629 1.15.629.825 0 1.48-.825 1.48-1.82" style=""/><path d="m167.6 204.5c0 1.3-.683 2.52-1.72 2.52-.652 0-1.28-.229-1.78-.652v.531h-.814v-6.92h.847v2.6c.336-.314.814-.617 1.47-.617 1.05 0 2.01 1.06 2.01 2.54zm-.845 0c0-1.12-.771-1.88-1.58-1.88-.423 0-.717.217-.933.511-.109.163-.109.185-.109.38v2.18c.261.381.684.629 1.15.629.825 0 1.48-.825 1.48-1.82" style=""/><path d="m173.5 204.5c0 1.45-1.09 2.61-2.38 2.61-1.34 0-2.39-1.19-2.39-2.61 0-1.43 1.11-2.51 2.38-2.51 1.3 0 2.39 1.1 2.39 2.51zm-.847.107c0-1.28-.737-1.92-1.54-1.92-.749 0-1.53.608-1.53 1.92 0 1.31.825 1.85 1.53 1.85.759 0 1.54-.564 1.54-1.85" style=""/><path d="m177 206.3v.729c-.965-.011-1.56-.544-1.9-1.04v.988h-.761v-4.88h.814v2.32c0 1.09.781 1.87 1.84 1.89" style=""/><path d="m180.9 202.4-.175.641c-.281-.228-.628-.358-.976-.358-.402 0-.554.325-.554.9v2.71h1.53v.628h-1.53v1.38h-.748v-1.38h-.944v-.628h.911v-2.9c0-.65.152-1.41.902-1.41.759 0 1.31.271 1.58.411" style=""/><path d="m185.1 203.5c0 .597-.401.966-.423.999-.424.379-.716.443-1.26.542-.597.118-1.1.228-1.1.759 0 .674.781.674.922.674.348 0 .923-.044 1.54-.413l.13.705c-.564.261-1.01.347-1.56.347-.271 0-1.8 0-1.8-1.42 0-.533.315-.879.586-1.09.336-.239.575-.281 1.17-.401.39-.075 1.02-.206 1.02-.781 0-.749-.858-.749-1.02-.749-.878 0-1.49.402-1.68.531l-.131-.737c.349-.174.945-.477 1.82-.477.195 0 .792 0 1.26.347.336.26.52.694.52 1.16" style=""/><path d="m193.5 204.5c0 .368-.011 1.18-.434 1.83-.445.674-1.11.793-1.5.793-1.2 0-2.18-1.15-2.18-2.55 0-1.43 1.04-2.57 2.34-2.57.685 0 1.3.26 1.72.564l-.064.705c-.684-.564-1.4-.608-1.65-.608-.868 0-1.56.771-1.6 1.84zm-.619.596h-2.68c.173.825.748 1.37 1.37 1.37.564 0 1.17-.369 1.31-1.37" style=""/><path d="m201.6 202.1v3.23c0 .728-.173 1.7-1.49 1.7-.652 0-1.22-.305-1.62-.891-.281.825-1.04.891-1.39.891-.781 0-1.29-.446-1.58-.836v.781h-.781v-4.88h.847v2.66c0 .739.294 1.62 1.1 1.62 1.01 0 1.06-.705 1.06-1.12v-3.16h.847v2.66c0 .739.292 1.62 1.1 1.62 1.01 0 1.06-.705 1.06-1.12v-3.16h.845" style=""/><path d="m204.2 202.1v4.82h-.814v-4.82zm.088 6.14v.966h-.966v-.966z" style=""/><path d="m208.7 202.4-.175.641c-.281-.228-.628-.358-.976-.358-.402 0-.554.325-.554.9v2.71h1.53v.628h-1.53v1.38h-.748v-1.38h-.944v-.628h.911v-2.9c0-.65.152-1.41.902-1.41.759 0 1.31.271 1.58.411" style=""/><path d="m210.8 202.1v4.82h-.814v-4.82zm.088 6.14v.966h-.966v-.966z" style=""/><path d="m216.4 202.1v3.23c0 .717-.162 1.7-1.49 1.7-.977 0-1.51-.74-1.57-.825v.77h-.781v-4.88h.847v2.66c0 .717.272 1.62 1.1 1.62 1.04 0 1.05-.77 1.05-1.12v-3.16h.847" style=""/><path d="m222.6 206.4-.119.685c-.76 0-1.39-.207-1.72-.349-.226.186-.597.349-1.03.349-.934 0-1.72-.782-1.72-1.77 0-.402.141-.792.358-1.08-.315-.444-.315-.867-.315-.922 0-.283.098-.597.282-.825-.564-.336-.695-.834-.695-1.12 0-.814 1.08-1.47 2.4-1.47 1.33 0 2.41.641 2.41 1.48 0 1.51-1.81 1.51-2.24 1.51h-.955c-.14 0-.629 0-.629.575 0 .121.043.294.12.391.228-.162.586-.314.987-.314.977 0 1.74.803 1.74 1.77 0 .52-.239.922-.357 1.08l.042-.011c.239 0 .544.044.803.044.195 0 .641-.033.641-.033zm-1.89-1.08c0-.847-.511-1.15-.977-1.15-.401 0-.965.248-.965 1.15 0 .9.564 1.15.965 1.15.466 0 .977-.305.977-1.15zm.977-3.95c0-.478-.749-.836-1.64-.836-.879 0-1.65.337-1.65.847 0 .033 0 .737.845.737h.977c.239 0 1.47 0 1.47-.748" style=""/><path d="m230.9 202.5-.065.727c-.554-.434-1.14-.586-1.69-.586-.9 0-1.51.781-1.51 1.84 0 .846.401 1.89 1.55 1.89.564 0 .933-.088 1.53-.478l.129.706c-.64.369-1.01.466-1.67.466-1.51 0-2.39-1.31-2.39-2.59 0-1.34.987-2.53 2.34-2.53.586 0 1.18.152 1.77.553" style=""/><path d="m236.3 204.5c0 1.45-1.09 2.61-2.38 2.61-1.34 0-2.39-1.19-2.39-2.61 0-1.43 1.11-2.51 2.38-2.51 1.3 0 2.39 1.1 2.39 2.51zm-.847.107c0-1.28-.737-1.92-1.54-1.92-.749 0-1.53.608-1.53 1.92 0 1.31.825 1.85 1.53 1.85.759 0 1.54-.564 1.54-1.85" style=""/><path d="m241.7 202.1v7.53h-.814v-3.19c-.575.476-1.18.597-1.58.597-1.07 0-1.92-1.13-1.92-2.53 0-1.42.836-2.53 1.86-2.53.36 0 .999.097 1.61.683v-.564zm-.846 1.51c0-.152-.011-.347-.358-.661-.25-.217-.521-.305-.803-.305-.672 0-1.46.511-1.46 1.86 0 1.43.932 1.88 1.57 1.88.487 0 .812-.25 1.05-.597v-2.17" style=""/><path d="m247.1 204.5c0 .368-.011 1.18-.434 1.83-.445.674-1.11.793-1.5.793-1.2 0-2.18-1.15-2.18-2.55 0-1.43 1.04-2.57 2.34-2.57.685 0 1.3.26 1.72.564l-.064.705c-.684-.564-1.4-.608-1.65-.608-.868 0-1.56.771-1.6 1.84zm-.619.596h-2.68c.173.825.748 1.37 1.37 1.37.564 0 1.17-.369 1.31-1.37" style=""/><path d="m254.9 208.9v.727c-.132.033-.468.12-.869.12-1.02 0-1.8-.77-1.8-1.86v-.977h-.803v-.628h.803v-4.19h.814v4.19h1.19v.628h-1.23v1.29c0 .804.728.879 1.01.879.217 0 .511-.022.88-.185" style=""/><path d="m259.6 204.5c0 1.45-1.09 2.61-2.38 2.61-1.34 0-2.39-1.19-2.39-2.61 0-1.43 1.11-2.51 2.38-2.51 1.3 0 2.39 1.1 2.39 2.51zm-.847.107c0-1.28-.737-1.92-1.54-1.92-.749 0-1.53.608-1.53 1.92 0 1.31.825 1.85 1.53 1.85.759 0 1.54-.564 1.54-1.85" style=""/><path d="m263.1 206.3v.729c-.965-.011-1.56-.544-1.9-1.04v.988h-.761v-4.88h.814v2.32c0 1.09.781 1.87 1.84 1.89" style=""/><path d="m270.6 202.4-.175.641c-.281-.228-.628-.358-.976-.358-.402 0-.554.325-.554.9v2.71h1.53v.628h-1.53v1.38h-.748v-1.38h-.944v-.628h.911v-2.9c0-.65.152-1.41.902-1.41.759 0 1.31.271 1.58.411" style=""/><path d="m275.6 202.1v3.23c0 .717-.162 1.7-1.49 1.7-.672 0-1.19-.338-1.54-.782v3.37h-.814v-7.53h.847v2.66c0 .717.272 1.62 1.1 1.62 1.04 0 1.05-.77 1.05-1.12v-3.16h.847" style=""/><path d="m281 204.5c0 .368-.011 1.18-.434 1.83-.445.674-1.11.793-1.5.793-1.2 0-2.18-1.15-2.18-2.55 0-1.43 1.04-2.57 2.34-2.57.685 0 1.3.26 1.72.564l-.064.705c-.684-.564-1.4-.608-1.65-.608-.868 0-1.56.771-1.6 1.84zm-.619.596h-2.68c.173.825.748 1.37 1.37 1.37.564 0 1.17-.369 1.31-1.37" style=""/><path d="m289.4 202.1v3.14c0 1.11-.793 1.87-1.79 1.87-.705 0-1.19-.174-1.7-.466l.065-.717c.564.401 1.11.544 1.64.544.511 0 .945-.435.945-1.24v-.467c-1.63-.022-3.01-.477-3.01-1.43 0-.468.292-1.35 1.24-1.35.152 0 1.17.022 1.8.51v-.391zm-.846 1.43c0-.206 0-.478-.37-.685-.314-.195-.727-.206-.845-.206-.522 0-1.01.25-1.01.706 0 .76 1.76.835 2.22.857v-.672" style=""/><path d="m293.5 206.3v.729c-.965-.011-1.56-.544-1.9-1.04v.988h-.761v-4.88h.814v2.32c0 1.09.781 1.87 1.84 1.89" style=""/><path d="m298.2 202.5-.065.727c-.554-.434-1.14-.586-1.69-.586-.9 0-1.51.781-1.51 1.84 0 .846.401 1.89 1.55 1.89.564 0 .933-.088 1.53-.478l.129.706c-.64.369-1.01.466-1.67.466-1.51 0-2.39-1.31-2.39-2.59 0-1.34.987-2.53 2.34-2.53.586 0 1.18.152 1.77.553" style=""/><path d="m303.2 202.1v3.23c0 .717-.162 1.7-1.49 1.7-.672 0-1.19-.338-1.54-.782v3.37h-.814v-7.53h.847v2.66c0 .717.272 1.62 1.1 1.62 1.04 0 1.05-.77 1.05-1.12v-3.16h.847" style=""/><path d="m305.9 202.1v4.82h-.814v-4.82zm.088 6.14v.966h-.966v-.966z" style=""/><path d="m310.4 202.4-.175.641c-.281-.228-.628-.358-.976-.358-.402 0-.554.325-.554.9v2.71h1.53v.628h-1.53v1.38h-.748v-1.38h-.944v-.628h.911v-2.9c0-.65.152-1.41.902-1.41.759 0 1.31.271 1.58.411" style=""/><path d="m315.2 204.5c0 .368-.011 1.18-.434 1.83-.445.674-1.11.793-1.5.793-1.2 0-2.18-1.15-2.18-2.55 0-1.43 1.04-2.57 2.34-2.57.685 0 1.3.26 1.72.564l-.064.705c-.684-.564-1.4-.608-1.65-.608-.868 0-1.56.771-1.6 1.84zm-.619.596h-2.68c.173.825.748 1.37 1.37 1.37.564 0 1.17-.369 1.31-1.37" style=""/><path d="m320.1 202.5-.065.727c-.554-.434-1.14-.586-1.69-.586-.9 0-1.51.781-1.51 1.84 0 .846.401 1.89 1.55 1.89.564 0 .933-.088 1.53-.478l.129.706c-.64.369-1.01.466-1.67.466-1.51 0-2.39-1.31-2.39-2.59 0-1.34.987-2.53 2.34-2.53.586 0 1.18.152 1.77.553" style=""/><path d="m324 202.4-.175.641c-.281-.228-.628-.358-.976-.358-.402 0-.554.325-.554.9v2.71h1.53v.628h-1.53v1.38h-.748v-1.38h-.944v-.628h.911v-2.9c0-.65.152-1.41.902-1.41.759 0 1.31.271 1.58.411" style=""/><path d="m329 202.1v4.82h-.847v-3.15c0-.812-.607-1.19-1.3-1.19-.77 0-.847.281-.847.749v3.59h-.847v-3.63c0-.781.25-1.3 1.15-1.3.575 0 1.34.174 1.88.639v-.52h.814" style=""/><path d="m333.5 206.3v.729c-.965-.011-1.56-.544-1.9-1.04v.988h-.761v-4.88h.814v2.32c0 1.09.781 1.87 1.84 1.89" style=""/><path d="m338.2 204.5c0 .368-.011 1.18-.434 1.83-.445.674-1.11.793-1.5.793-1.2 0-2.18-1.15-2.18-2.55 0-1.43 1.04-2.57 2.34-2.57.685 0 1.3.26 1.72.564l-.064.705c-.684-.564-1.4-.608-1.65-.608-.868 0-1.56.771-1.6 1.84zm-.619.596h-2.68c.173.825.748 1.37 1.37 1.37.564 0 1.17-.369 1.31-1.37" style=""/><path d="m346.9 202.1v4.82h-.847v-3.15c0-.812-.607-1.19-1.3-1.19-.77 0-.847.281-.847.749v3.59h-.847v-3.63c0-.781.25-1.3 1.15-1.3.575 0 1.34.174 1.88.639v-.52h.814" style=""/><path d="m351.7 203.5c0 .597-.401.966-.423.999-.424.379-.716.443-1.26.542-.597.118-1.1.228-1.1.759 0 .674.781.674.922.674.348 0 .923-.044 1.54-.413l.13.705c-.564.261-1.01.347-1.56.347-.271 0-1.8 0-1.8-1.42 0-.533.315-.879.586-1.09.336-.239.575-.281 1.17-.401.39-.075 1.02-.206 1.02-.781 0-.749-.858-.749-1.02-.749-.878 0-1.49.402-1.68.531l-.131-.737c.349-.174.945-.477 1.82-.477.195 0 .792 0 1.26.347.336.26.52.694.52 1.16" style=""/><path d="m356.5 204.5c0 .368-.011 1.18-.434 1.83-.445.674-1.11.793-1.5.793-1.2 0-2.18-1.15-2.18-2.55 0-1.43 1.04-2.57 2.34-2.57.685 0 1.3.26 1.72.564l-.064.705c-.684-.564-1.4-.608-1.65-.608-.868 0-1.56.771-1.6 1.84zm-.619.596h-2.68c.173.825.748 1.37 1.37 1.37.564 0 1.17-.369 1.31-1.37" style=""/><path d="m361.6 202.1v7.53h-.814v-3.19c-.575.476-1.18.597-1.58.597-1.07 0-1.92-1.13-1.92-2.53 0-1.42.836-2.53 1.86-2.53.36 0 .999.097 1.61.683v-.564zm-.846 1.51c0-.152-.011-.347-.358-.661-.25-.217-.521-.305-.803-.305-.672 0-1.46.511-1.46 1.86 0 1.43.932 1.88 1.57 1.88.487 0 .812-.25 1.05-.597v-2.17" style=""/><path d="m367.8 202.1v4.82h-.814v-4.82zm.088 6.14v.966h-.966v-.966z" style=""/><path d="m373.4 202.1v3.23c0 .717-.162 1.7-1.49 1.7-.977 0-1.51-.74-1.57-.825v.77h-.781v-4.88h.847v2.66c0 .717.272 1.62 1.1 1.62 1.04 0 1.05-.77 1.05-1.12v-3.16h.847" style=""/><path d="m381.6 202.4-.175.641c-.281-.228-.628-.358-.976-.358-.402 0-.554.325-.554.9v2.71h1.53v.628h-1.53v1.38h-.748v-1.38h-.944v-.628h.911v-2.9c0-.65.152-1.41.902-1.41.759 0 1.31.271 1.58.411" style=""/><path d="m386.6 202.1v3.23c0 .717-.162 1.7-1.49 1.7-.672 0-1.19-.338-1.54-.782v3.37h-.814v-7.53h.847v2.66c0 .717.272 1.62 1.1 1.62 1.04 0 1.05-.77 1.05-1.12v-3.16h.847" style=""/><path d="m392.1 204.5c0 .368-.011 1.18-.434 1.83-.445.674-1.11.793-1.5.793-1.2 0-2.18-1.15-2.18-2.55 0-1.43 1.04-2.57 2.34-2.57.685 0 1.3.26 1.72.564l-.064.705c-.684-.564-1.4-.608-1.65-.608-.868 0-1.56.771-1.6 1.84zm-.619.596h-2.68c.173.825.748 1.37 1.37 1.37.564 0 1.17-.369 1.31-1.37" style=""/><path d="m32.8 190.9c0 .368-.0109 1.18-.434 1.83-.445.674-1.11.793-1.5.793-1.2 0-2.18-1.15-2.18-2.55 0-1.43 1.04-2.57 2.34-2.57.684 0 1.3.26 1.72.564l-.064.705c-.684-.564-1.4-.608-1.65-.608-.869 0-1.56.771-1.6 1.84zm-.619.596h-2.68c.173.825.748 1.37 1.37 1.37.564 0 1.17-.369 1.31-1.37" style=""/><path d="m40.9 188.5v3.23c0 .728-.173 1.7-1.49 1.7-.652 0-1.22-.305-1.62-.891-.281.825-1.04.891-1.39.891-.781 0-1.29-.446-1.58-.836v.781h-.781v-4.88h.847v2.66c0 .739.294 1.62 1.1 1.62 1.01 0 1.06-.705 1.06-1.12v-3.16h.847v2.66c0 .739.292 1.62 1.1 1.62 1.01 0 1.06-.705 1.06-1.12v-3.16h.845" style=""/><path d="m47.1 190.9c0 1.35-.738 2.52-1.76 2.52-.423 0-1.1-.11-1.75-.641v3.23h-.814v-7.53h.847v.498c.261-.237.727-.617 1.45-.617 1.08 0 2.02 1.08 2.02 2.54zm-.845 0c0-1.41-.912-1.88-1.57-1.88-.424 0-.781.196-1.05.696v2.4c.174.261.564.641 1.16.641.641 0 1.47-.467 1.47-1.86" style=""/><path d="m52.3 190.9c0 .368-.0109 1.18-.434 1.83-.445.674-1.11.793-1.5.793-1.2 0-2.18-1.15-2.18-2.55 0-1.43 1.04-2.57 2.34-2.57.684 0 1.3.26 1.72.564l-.064.705c-.684-.564-1.4-.608-1.65-.608-.869 0-1.56.771-1.6 1.84zm-.619.596h-2.68c.173.825.748 1.37 1.37 1.37.564 0 1.17-.369 1.31-1.37" style=""/><path d="m57.3 188.5v7.53h-.814v-3.19c-.575.476-1.18.597-1.58.597-1.07 0-1.92-1.13-1.92-2.53 0-1.42.836-2.53 1.87-2.53.359 0 .998.097 1.61.683v-.564zm-.847 1.51c0-.152-.0109-.347-.358-.661-.25-.217-.52-.305-.803-.305-.672 0-1.46.511-1.46 1.86 0 1.43.933 1.88 1.57 1.88.488 0 .812-.25 1.05-.597v-2.17" style=""/><path d="m63 188.5v7.53h-.814v-3.19c-.575.476-1.18.597-1.58.597-1.07 0-1.92-1.13-1.92-2.53 0-1.42.836-2.53 1.87-2.53.359 0 .998.097 1.61.683v-.564zm-.847 1.51c0-.152-.0109-.347-.358-.661-.25-.217-.52-.305-.803-.305-.672 0-1.46.511-1.46 1.86 0 1.43.933 1.88 1.57 1.88.488 0 .812-.25 1.05-.597v-2.17" style=""/><path d="m68.4 190.9c0 .368-.0109 1.18-.434 1.83-.445.674-1.11.793-1.5.793-1.2 0-2.18-1.15-2.18-2.55 0-1.43 1.04-2.57 2.34-2.57.684 0 1.3.26 1.72.564l-.064.705c-.684-.564-1.4-.608-1.65-.608-.869 0-1.56.771-1.6 1.84zm-.619.596h-2.68c.173.825.748 1.37 1.37 1.37.564 0 1.17-.369 1.31-1.37" style=""/><path d="m73.5 188.5v7.53h-.814v-3.19c-.575.476-1.18.597-1.58.597-1.07 0-1.92-1.13-1.92-2.53 0-1.42.836-2.53 1.87-2.53.359 0 .998.097 1.61.683v-.564zm-.847 1.51c0-.152-.0109-.347-.358-.661-.25-.217-.52-.305-.803-.305-.672 0-1.46.511-1.46 1.86 0 1.43.933 1.88 1.57 1.88.488 0 .812-.25 1.05-.597v-2.17" style=""/><path d="m83.2 190.9c0 1.3-.683 2.52-1.72 2.52-.652 0-1.28-.229-1.78-.652v.531h-.814v-6.92h.847v2.6c.336-.314.814-.617 1.47-.617 1.05 0 2.01 1.06 2.01 2.54zm-.845 0c0-1.12-.77-1.88-1.58-1.88-.423 0-.717.217-.933.511-.109.163-.109.185-.109.38v2.18c.261.381.684.629 1.15.629.825 0 1.48-.825 1.48-1.82" style=""/><path d="m86.9 192.7v.729c-.966-.011-1.56-.544-1.9-1.04v.988h-.761v-4.88h.814v2.32c0 1.09.781 1.87 1.85 1.89" style=""/><path d="m92.2 190.9c0 1.45-1.09 2.61-2.38 2.61-1.33 0-2.39-1.19-2.39-2.61 0-1.43 1.11-2.51 2.38-2.51 1.3 0 2.39 1.1 2.39 2.51zm-.847.107c0-1.28-.738-1.92-1.54-1.92-.748 0-1.53.608-1.53 1.92 0 1.31.825 1.85 1.53 1.85.759 0 1.54-.564 1.54-1.85" style=""/><path d="m94.6 187.9v5.46h-.814v-5.56c0-.727-.619-.782-.814-.782-.303 0-.564.108-.803.336l-.228-.661c.522-.304 1.02-.37 1.3-.37.683 0 1.36.566 1.36 1.58zm0 6.78v.966h-.966v-.966z" style=""/><path d="m100 190.9c0 .368-.0109 1.18-.434 1.83-.445.674-1.11.793-1.5.793-1.2 0-2.18-1.15-2.18-2.55 0-1.43 1.04-2.57 2.34-2.57.684 0 1.3.26 1.72.564l-.064.705c-.684-.564-1.4-.608-1.65-.608-.869 0-1.56.771-1.6 1.84zm-.619.596h-2.68c.173.825.748 1.37 1.37 1.37.564 0 1.17-.369 1.31-1.37" style=""/><path d="m104.8 188.9-.065.727c-.554-.434-1.14-.586-1.69-.586-.9 0-1.51.781-1.51 1.84 0 .846.401 1.89 1.55 1.89.564 0 .933-.088 1.53-.478l.129.706c-.64.369-1.01.466-1.67.466-1.51 0-2.39-1.31-2.39-2.59 0-1.34.987-2.53 2.34-2.53.586 0 1.18.152 1.77.553" style=""/><path d="m108.8 188.8-.175.641c-.281-.228-.628-.358-.976-.358-.402 0-.554.325-.554.9v2.71h1.53v.628h-1.53v1.38h-.748v-1.38h-.944v-.628h.911v-2.9c0-.65.152-1.41.902-1.41.759 0 1.31.271 1.58.411" style=""/><path d="m111.1 188.5v.9h-.9v-.9z" style=""/><path d="m138.2 163.9-2.83 7.53h-.955l-2.83-7.53h.803l.836 2.21h3.16l.825-2.21zm-2.06 2.82h-2.69c.553 1.55.152.411.705 1.96.228.641.564 1.56.641 1.96h.011c.021-.151.096-.421.346-1.14l.988-2.79" style=""/><path d="m142.1 168.1v.729c-.965-.011-1.56-.544-1.9-1.04v.988h-.761v-4.88h.814v2.32c0 1.09.781 1.87 1.84 1.89" style=""/><path d="m146.8 164.3-.065.727c-.554-.434-1.14-.586-1.69-.586-.9 0-1.51.781-1.51 1.84 0 .846.401 1.89 1.55 1.89.564 0 .933-.088 1.53-.478l.129.706c-.64.369-1.01.466-1.67.466-1.51 0-2.39-1.31-2.39-2.59 0-1.34.987-2.53 2.34-2.53.586 0 1.18.152 1.77.553" style=""/><path d="m151.8 163.9v3.23c0 .717-.162 1.7-1.49 1.7-.672 0-1.19-.338-1.54-.782v3.37h-.814v-7.53h.847v2.66c0 .717.272 1.62 1.1 1.62 1.04 0 1.05-.77 1.05-1.12v-3.16h.847" style=""/><path d="m154.5 163.9v4.82h-.814v-4.82zm.088 6.14v.966h-.966v-.966z" style=""/><path d="m159 164.2-.175.641c-.281-.228-.628-.358-.976-.358-.402 0-.554.325-.554.9v2.71h1.53v.628h-1.53v1.38h-.748v-1.38h-.944v-.628h.911v-2.9c0-.65.152-1.41.902-1.41.759 0 1.31.271 1.58.411" style=""/><path d="m163.8 166.3c0 .368-.011 1.18-.434 1.83-.445.674-1.11.793-1.5.793-1.2 0-2.18-1.15-2.18-2.55 0-1.43 1.04-2.57 2.34-2.57.685 0 1.3.26 1.72.564l-.064.705c-.684-.564-1.4-.608-1.65-.608-.868 0-1.56.771-1.6 1.84zm-.619.596h-2.68c.173.825.748 1.37 1.37 1.37.564 0 1.17-.369 1.31-1.37" style=""/><path d="m168.7 164.3-.065.727c-.554-.434-1.14-.586-1.69-.586-.9 0-1.51.781-1.51 1.84 0 .846.401 1.89 1.55 1.89.564 0 .933-.088 1.53-.478l.129.706c-.64.369-1.01.466-1.67.466-1.51 0-2.39-1.31-2.39-2.59 0-1.34.987-2.53 2.34-2.53.586 0 1.18.152 1.77.553" style=""/><path d="m172.6 164.2-.175.641c-.281-.228-.628-.358-.976-.358-.402 0-.554.325-.554.9v2.71h1.53v.628h-1.53v1.38h-.748v-1.38h-.944v-.628h.911v-2.9c0-.65.152-1.41.902-1.41.759 0 1.31.271 1.58.411" style=""/><path d="m177.6 163.9v4.82h-.847v-3.15c0-.812-.607-1.19-1.3-1.19-.77 0-.847.281-.847.749v3.59h-.847v-3.63c0-.781.25-1.3 1.15-1.3.575 0 1.34.174 1.88.639v-.52h.814" style=""/><path d="m182.1 168.1v.729c-.965-.011-1.56-.544-1.9-1.04v.988h-.761v-4.88h.814v2.32c0 1.09.781 1.87 1.84 1.89" style=""/><path d="m186.8 166.3c0 .368-.011 1.18-.434 1.83-.445.674-1.11.793-1.5.793-1.2 0-2.18-1.15-2.18-2.55 0-1.43 1.04-2.57 2.34-2.57.685 0 1.3.26 1.72.564l-.064.705c-.684-.564-1.4-.608-1.65-.608-.868 0-1.56.771-1.6 1.84zm-.619.596h-2.68c.173.825.748 1.37 1.37 1.37.564 0 1.17-.369 1.31-1.37" style=""/></g></g><path d="m201.4 159.8v13.5" style="fill:none;stroke:#fff;stroke-miterlimit:10;stroke-width:.398"/><g style="fill:#fff;stroke-width:.1"><path d="m259.8 166c0 .706-.336 1.23-.575 1.49-.509.542-.867.64-1.87.889-.629.153-.803.195-1.13.478-.076.065-.381.379-.381.856 0 .641.586 1.29 1.58 1.29.913 0 1.43-.358 1.84-.695l.162.869c-.597.357-1.19.542-1.99.542-1.51 0-2.45-1.06-2.45-2.14 0-.465.151-.922.586-1.38.456-.487.933-.619 1.57-.77.922-.228 1.03-.261 1.34-.531.217-.185.456-.543.456-1.01 0-.715-.597-1.43-1.58-1.43-.445 0-1.42.11-2.33.88l-.163-.88c.955-.596 1.82-.748 2.51-.748 1.43 0 2.43 1.1 2.43 2.29" style=""/><path d="m264.1 164.2-.175.641c-.281-.228-.628-.358-.976-.358-.402 0-.554.325-.554.9v2.71h1.53v.628h-1.53v1.38h-.748v-1.38h-.944v-.628h.911v-2.9c0-.65.152-1.41.902-1.41.759 0 1.31.271 1.58.411" style=""/><path d="m268.8 163.9v3.14c0 1.11-.793 1.87-1.79 1.87-.705 0-1.19-.174-1.7-.466l.065-.717c.564.401 1.11.544 1.64.544.511 0 .945-.435.945-1.24v-.467c-1.63-.022-3.01-.477-3.01-1.43 0-.468.292-1.35 1.24-1.35.152 0 1.17.022 1.8.51v-.391zm-.846 1.43c0-.206 0-.478-.37-.685-.314-.195-.727-.206-.845-.206-.522 0-1.01.25-1.01.706 0 .76 1.76.835 2.22.857v-.672" style=""/><path d="m273.3 164.2-.175.641c-.281-.228-.628-.358-.976-.358-.402 0-.554.325-.554.9v2.71h1.53v.628h-1.53v1.38h-.748v-1.38h-.944v-.628h.911v-2.9c0-.65.152-1.41.902-1.41.759 0 1.31.271 1.58.411" style=""/><path d="m278.3 163.9v4.82h-.847v-3.15c0-.812-.607-1.19-1.3-1.19-.77 0-.847.281-.847.749v3.59h-.847v-3.63c0-.781.25-1.3 1.15-1.3.575 0 1.34.174 1.88.639v-.52h.814" style=""/><path d="m283.2 165.3c0 .597-.401.966-.423.999-.424.379-.716.443-1.26.542-.597.118-1.1.228-1.1.759 0 .674.781.674.922.674.348 0 .923-.044 1.54-.413l.13.705c-.564.261-1.01.347-1.56.347-.271 0-1.8 0-1.8-1.42 0-.533.315-.879.586-1.09.336-.239.575-.281 1.17-.401.39-.075 1.02-.206 1.02-.781 0-.749-.858-.749-1.02-.749-.878 0-1.49.402-1.68.531l-.131-.737c.349-.174.945-.477 1.82-.477.195 0 .792 0 1.26.347.336.26.52.694.52 1.16" style=""/></g><path d="m117.3 159.6h219" style="fill:none;stroke:#fff;stroke-miterlimit:10;stroke-width:.398"/><path d="m117.3 157.2h219" style="fill:none;stroke:#fff;stroke-miterlimit:10;stroke-width:.398"/><g style="fill:#fff;stroke-width:.1"><path d="m154.2 147.5-2.83 7.53h-.955l-2.83-7.53h.803l.836 2.21h3.16l.825-2.21zm-2.06 2.82h-2.69c.553 1.55.152.411.705 1.96.228.641.564 1.56.641 1.96h.011c.021-.151.096-.421.346-1.14l.988-2.79" style=""/><path d="m161.3 147.5-2.15 3.54c1.12.325 1.84 1.1 1.84 1.98 0 1.07-1.18 2.02-2.74 2.02h-2.61v-7.53h.933v3.44h1.71l2.04-3.44zm-1.18 5.51c0-.771-.696-1.41-1.98-1.41h-1.56v2.82h1.56c1.26 0 1.98-.64 1.98-1.41" style=""/><path d="m170 147.5v7.53h-1.24l-1.41-3.68c-.382-.988-.891-2.33-1.01-2.84h-.011c-.054.229-.184.63-.347 1.08l-1.7 4.49-.369.944h-1.23v-7.53h.847v6.73h.011c.066-.348.499-1.53.781-2.27l1.61-4.22h.792l1.44 3.78.522 1.38c.108.316.402 1.1.455 1.35l.011-.01v-6.73h.846" style=""/></g><path d="m201.4 143.5v13.5" style="fill:none;stroke:#fff;stroke-miterlimit:10;stroke-width:.398"/><path d="m201.6 143.5h134.7v13.5h-134.7z" style="fill:#204537;stroke-width:.1"/><g style="fill:#fff;stroke-width:.1"><path d="m260.4 149.5c0 .943-.944 1.71-2.09 1.9.988.25 1.8.878 1.8 1.7 0 .999-1.16 1.89-2.7 1.89h-2.57v-7.53h2.86c1.56 0 2.7.977 2.7 2.04zm-1.14 3.59c0-.651-.771-1.39-2.27-1.39h-1.26v2.68h1.37c1.2 0 2.16-.576 2.16-1.29zm.261-3.58c0-.812-.957-1.44-2.13-1.44h-1.66v2.97h1.57c1.15 0 2.21-.662 2.21-1.53" style=""/><path d="m265.7 147.5v4.82h-.847v-3.15c0-.812-.607-1.19-1.3-1.19-.77 0-.847.281-.847.749v3.59h-.847v-3.63c0-.781.25-1.3 1.15-1.3.575 0 1.34.174 1.88.639v-.52h.814" style=""/><path d="m268.4 147.5v4.82h-.814v-4.82zm.088 6.14v.966h-.966v-.966z" style=""/><path d="m271 147.5v7.53h-.814v-7.53z" style=""/><path d="m275.5 147.8-.175.641c-.281-.228-.628-.358-.976-.358-.402 0-.554.325-.554.9v2.71h1.53v.628h-1.53v1.38h-.748v-1.38h-.944v-.628h.911v-2.9c0-.65.152-1.41.902-1.41.759 0 1.31.271 1.58.411" style=""/><path d="m278.8 149.6v.629h-2.88v-.629z" style=""/><path d="m281.2 147.5v4.82h-.814v-4.82zm.088 6.14v.966h-.966v-.966z" style=""/><path d="m286.8 147.5v3.23c0 .717-.162 1.7-1.49 1.7-.977 0-1.51-.74-1.57-.825v.77h-.781v-4.88h.847v2.66c0 .717.272 1.62 1.1 1.62 1.04 0 1.05-.77 1.05-1.12v-3.16h.847" style=""/><path d="m148.1 134v7.53h-1.24l-1.41-3.68c-.382-.988-.891-2.33-1.01-2.84h-.011c-.054.229-.184.63-.347 1.08l-1.7 4.49-.369.944h-1.23v-7.53h.847v6.73h.011c.066-.348.499-1.53.781-2.27l1.61-4.22h.792l1.44 3.78.522 1.38c.108.316.402 1.1.455 1.35l.011-.01v-6.73h.846" style=""/><path d="m154.7 136c0 .706-.336 1.23-.575 1.49-.509.542-.867.64-1.87.889-.629.153-.803.195-1.13.478-.076.065-.381.379-.381.856 0 .641.586 1.29 1.58 1.29.913 0 1.43-.358 1.84-.695l.162.869c-.597.357-1.19.542-1.99.542-1.51 0-2.45-1.06-2.45-2.14 0-.465.151-.922.586-1.38.456-.487.933-.619 1.57-.77.922-.228 1.03-.261 1.34-.531.217-.185.456-.543.456-1.01 0-.715-.597-1.43-1.58-1.43-.445 0-1.42.11-2.33.88l-.163-.88c.955-.596 1.82-.748 2.51-.748 1.43 0 2.43 1.1 2.43 2.29" style=""/><path d="m161.7 139.3c0 1.16-1.08 2.19-2.57 2.19h-2.7v-7.53h.966v3.14h1.81c1.35 0 2.5.987 2.5 2.2zm-.88 0c0-.858-.683-1.57-1.93-1.57h-1.53v3.16h1.53c1.19 0 1.93-.662 1.93-1.58" style=""/><path d="m167.4 135.9v.662h-1.08v4.6h-.988l-2.74-4.6v-.662h2.88v-1.86h.856v1.86zm-1.87.662h-2.09c.564.933 2.08 3.5 2.09 4.12z" style=""/><path d="m172.8 136c0 .988-.761 1.66-1.5 1.89.825.445 1.2 1.18 1.2 1.87 0 .933-.9 1.65-1.98 1.65-.836 0-1.63-.433-2.08-1.19l.39-.586c.315.761 1.02 1.15 1.68 1.15.564 0 1.1-.326 1.1-1.02 0-.663-.446-1.3-1.11-1.46-.064-.011-.086-.011-.856-.075v-.662h.77c1.17 0 1.41-1.01 1.41-1.55 0-.847-.5-1.54-1.34-1.54-.749 0-1.6.38-2.08 1.12l-.119-.652c.792-1.02 1.79-1.13 2.22-1.13 1.32 0 2.28 1.05 2.28 2.19" style=""/><path d="m178.2 137.5c0 .856-.043 1.86-.5 2.74-.445.814-1.19 1.07-1.75 1.07-.641 0-1.4-.292-1.84-1.26-.36-.792-.413-1.69-.413-2.56 0-.858.042-1.65.369-2.44.434-1.04 1.26-1.33 1.88-1.33.792 0 1.48.445 1.82 1.19.325.704.434 1.42.434 2.58zm-.846.129c0-.715 0-1.4-.196-2.08-.283-.987-.858-1.16-1.2-1.16-.565 0-1.01.413-1.23 1.19-.173.619-.184 1.2-.184 2.05 0 .685 0 1.34.184 1.93.066.207.337 1.1 1.22 1.1.846 0 1.13-.825 1.2-1.02.207-.608.207-1.33.207-2.01" style=""/></g><path d="m201.4 129.9v13.5" style="fill:none;stroke:#fff;stroke-miterlimit:10;stroke-width:.398"/><path d="m201.6 129.9h134.7v13.5h-134.7z" style="fill:#204537;stroke-width:.1"/><g style="fill:#fff;stroke-width:.1"><path d="m260.4 136c0 .943-.944 1.71-2.09 1.9.988.25 1.8.878 1.8 1.7 0 .999-1.16 1.89-2.7 1.89h-2.57v-7.53h2.86c1.56 0 2.7.977 2.7 2.04zm-1.14 3.59c0-.651-.771-1.39-2.27-1.39h-1.26v2.68h1.37c1.2 0 2.16-.576 2.16-1.29zm.261-3.58c0-.812-.957-1.44-2.13-1.44h-1.66v2.97h1.57c1.15 0 2.21-.662 2.21-1.53" style=""/><path d="m265.7 134v4.82h-.847v-3.15c0-.812-.607-1.19-1.3-1.19-.77 0-.847.281-.847.749v3.59h-.847v-3.63c0-.781.25-1.3 1.15-1.3.575 0 1.34.174 1.88.639v-.52h.814" style=""/><path d="m268.4 134v4.82h-.814v-4.82zm.088 6.14v.966h-.966v-.966z" style=""/><path d="m271 134v7.53h-.814v-7.53z" style=""/><path d="m275.5 134.3-.175.641c-.281-.228-.628-.358-.976-.358-.402 0-.554.325-.554.9v2.71h1.53v.628h-1.53v1.38h-.748v-1.38h-.944v-.628h.911v-2.9c0-.65.152-1.41.902-1.41.759 0 1.31.271 1.58.411" style=""/><path d="m278.8 136.1v.629h-2.88v-.629z" style=""/><path d="m281.2 134v4.82h-.814v-4.82zm.088 6.14v.966h-.966v-.966z" style=""/><path d="m286.8 134v3.23c0 .717-.162 1.7-1.49 1.7-.977 0-1.51-.74-1.57-.825v.77h-.781v-4.88h.847v2.66c0 .717.272 1.62 1.1 1.62 1.04 0 1.05-.77 1.05-1.12v-3.16h.847" style=""/><path d="m155.9 120.4-2.83 7.53h-.955l-2.83-7.53h.803l.836 2.21h3.16l.825-2.21zm-2.06 2.82h-2.69c.553 1.55.152.411.705 1.96.228.641.564 1.56.641 1.96h.011c.021-.151.096-.421.346-1.14l.988-2.79" style=""/><path d="m162.2 127.9h-.847l-1.44-3.71c-.173-.444-.986-2.54-1.08-3.04h-.011c-.086.435-.553 1.63-.651 1.89l-1.88 4.86h-1.01l2.96-7.53h.999z" style=""/><path d="m169.1 120.4-2.15 3.54c1.12.325 1.84 1.1 1.84 1.98 0 1.07-1.18 2.02-2.74 2.02h-2.61v-7.53h.933v3.44h1.71l2.04-3.44zm-1.18 5.51c0-.771-.696-1.41-1.98-1.41h-1.56v2.82h1.56c1.26 0 1.98-.64 1.98-1.41" style=""/></g><path d="m201.4 116.4v13.5" style="fill:none;stroke:#fff;stroke-miterlimit:10;stroke-width:.398"/><path d="m201.6 116.4h134.7v13.5h-134.7z" style="fill:#454120;stroke-width:.1"/><g style="fill:#fff;stroke-width:.1"><path d="m242.8 127.2v.706h-4.69v-7.5h.966v3.42h3.28v.663h-3.28v2.72h1.42c.13 0 .259-.011.39-.011h1.91" style=""/><path d="m248.1 122.8c0 1.45-1.09 2.61-2.38 2.61-1.34 0-2.39-1.19-2.39-2.61 0-1.43 1.11-2.51 2.38-2.51 1.3 0 2.39 1.1 2.39 2.51zm-.847.107c0-1.28-.737-1.92-1.54-1.92-.749 0-1.53.608-1.53 1.92 0 1.31.825 1.85 1.53 1.85.759 0 1.54-.564 1.54-1.85" style=""/><path d="m251.6 124.6v.729c-.965-.011-1.56-.544-1.9-1.04v.988h-.761v-4.88h.814v2.32c0 1.09.781 1.87 1.84 1.89" style=""/><path d="m256.9 120.4-2.06 2.95 1.82 1.86h-.977l-2.2-2.26v4.97h-.781v-7.53h.748v1.53l.869.901 1.69-2.43h.891" style=""/><path d="m264.4 117.7c-.522.52-1.9 1.92-1.9 5.42 0 .607.033 1.88.478 3.16.446 1.26 1.06 1.91 1.42 2.27h-.662c-.347-.325-1.08-.988-1.57-2.32-.434-1.16-.509-2.31-.509-3.1 0-3.5 1.56-4.95 2.08-5.42h.662" style=""/><path d="m269.5 120.4v3.14c0 1.11-.793 1.87-1.79 1.87-.705 0-1.19-.174-1.7-.466l.065-.717c.564.401 1.11.544 1.64.544.511 0 .945-.435.945-1.24v-.467c-1.63-.022-3.01-.477-3.01-1.43 0-.468.292-1.35 1.24-1.35.152 0 1.17.022 1.8.51v-.391zm-.846 1.43c0-.206 0-.478-.37-.685-.314-.195-.727-.206-.845-.206-.522 0-1.01.25-1.01.706 0 .76 1.76.835 2.22.857v-.672" style=""/><path d="m275.1 125.2h-.814l-.856-2.26c-.228-.597-.564-1.48-.652-1.99h-.011c-.065.391-.347 1.14-.456 1.43l-1.05 2.81h-.846l1.87-4.82h.954l1.87 4.82" style=""/><path d="m278.8 124.6v.729c-.965-.011-1.56-.544-1.9-1.04v.988h-.761v-4.88h.814v2.32c0 1.09.781 1.87 1.84 1.89" style=""/><path d="m282.1 122.5v.629h-2.88v-.629z" style=""/><path d="m286.2 124.6v.729c-.965-.011-1.56-.544-1.9-1.04v.988h-.761v-4.88h.814v2.32c0 1.09.781 1.87 1.84 1.89" style=""/><path d="m291.1 120.4v4.82h-.847v-3.15c0-.812-.607-1.19-1.3-1.19-.77 0-.847.281-.847.749v3.59h-.847v-3.63c0-.781.25-1.3 1.15-1.3.575 0 1.34.174 1.88.639v-.52h.814" style=""/><path d="m296 121.8c0 .597-.401.966-.423.999-.424.379-.716.443-1.26.542-.597.118-1.1.228-1.1.759 0 .674.781.674.922.674.348 0 .923-.044 1.54-.413l.13.705c-.564.261-1.01.347-1.56.347-.271 0-1.8 0-1.8-1.42 0-.533.315-.879.586-1.09.336-.239.575-.281 1.17-.401.39-.075 1.02-.206 1.02-.781 0-.749-.858-.749-1.02-.749-.878 0-1.49.402-1.68.531l-.131-.737c.349-.174.945-.477 1.82-.477.195 0 .792 0 1.26.347.336.26.52.694.52 1.16" style=""/><path d="m300 120.7-.175.641c-.281-.228-.628-.358-.976-.358-.402 0-.554.325-.554.9v2.71h1.53v.628h-1.53v1.38h-.748v-1.38h-.944v-.628h.911v-2.9c0-.65.152-1.41.902-1.41.759 0 1.31.271 1.58.411" style=""/><path d="m303.6 123.1c0 3.5-1.56 4.95-2.08 5.42h-.661c.52-.521 1.9-1.92 1.9-5.42 0-.608-.033-1.88-.476-3.16-.446-1.26-1.06-1.91-1.42-2.27h.661c.348.325 1.08.987 1.57 2.32.435 1.16.511 2.31.511 3.1" style=""/><path d="m150.7 106.9-2.15 3.54c1.12.325 1.84 1.1 1.84 1.98 0 1.07-1.18 2.02-2.74 2.02h-2.61v-7.53h.933v3.44h1.71l2.04-3.44zm-1.18 5.51c0-.771-.696-1.41-1.98-1.41h-1.56v2.82h1.56c1.26 0 1.98-.64 1.98-1.41" style=""/><path d="m153.1 106.9v7.53h-.966v-7.53z" style=""/><path d="m159.5 109c0 .706-.336 1.23-.575 1.49-.509.542-.867.64-1.87.889-.629.153-.803.195-1.13.478-.076.065-.381.379-.381.856 0 .641.586 1.29 1.58 1.29.913 0 1.43-.358 1.84-.695l.162.869c-.597.357-1.19.542-1.99.542-1.51 0-2.45-1.06-2.45-2.14 0-.465.151-.922.586-1.38.456-.487.933-.619 1.57-.77.922-.228 1.03-.261 1.34-.531.217-.185.456-.543.456-1.01 0-.715-.597-1.43-1.58-1.43-.445 0-1.42.11-2.33.88l-.163-.88c.955-.596 1.82-.748 2.51-.748 1.43 0 2.43 1.1 2.43 2.29" style=""/><path d="m166.6 107.4-.064.75c-.316-.218-.63-.424-.999-.533-.347-.119-.726-.13-1.1-.13-.704 0-1.34.38-1.79.933-.5.64-.739 1.44-.739 2.26s.239 1.63.739 2.27c.444.553 1.08.933 1.79.933.327 0 .663-.033.977-.13.327-.098.63-.261.912-.456l.152.89c-.325.13-.662.239-1.01.303-.336.066-.683.088-1.03.088-.954 0-1.83-.434-2.47-1.14-.672-.761-1.02-1.75-1.02-2.76s.348-2 1.02-2.75c.641-.706 1.52-1.14 2.47-1.14.38 0 .761.011 1.13.119.369.097.705.292 1.03.488" style=""/><path d="m170.1 109v.629h-2.88v-.629z" style=""/><path d="m177.9 114.4h-.847l-1.44-3.71c-.173-.444-.986-2.54-1.08-3.04h-.011c-.086.435-.553 1.63-.651 1.89l-1.88 4.86h-1.01l2.96-7.53h.999z" style=""/></g><path d="m201.4 102.8v13.5" style="fill:none;stroke:#fff;stroke-miterlimit:10;stroke-width:.398"/><path d="m201.6 102.8h134.7v13.5h-134.7z" style="fill:#454120;stroke-width:.1"/><g style="fill:#fff;stroke-width:.1"><path d="m216.9 113.7v.706h-4.69v-7.5h.966v3.42h3.28v.663h-3.28v2.72h1.42c.13 0 .259-.011.39-.011h1.91" style=""/><path d="m222.2 109.3c0 1.45-1.09 2.61-2.38 2.61-1.34 0-2.39-1.19-2.39-2.61 0-1.43 1.11-2.51 2.38-2.51 1.3 0 2.39 1.1 2.39 2.51zm-.847.107c0-1.28-.737-1.92-1.54-1.92-.749 0-1.53.608-1.53 1.92 0 1.31.825 1.85 1.53 1.85.759 0 1.54-.564 1.54-1.85" style=""/><path d="m225.7 111.1v.729c-.965-.011-1.56-.544-1.9-1.04v.988h-.761v-4.88h.814v2.32c0 1.09.781 1.87 1.84 1.89" style=""/><path d="m231.1 106.9-2.06 2.95 1.82 1.86h-.977l-2.2-2.26v4.97h-.781v-7.53h.748v1.53l.869.901 1.69-2.43h.891" style=""/><path d="m238.5 104.2c-.522.52-1.9 1.92-1.9 5.42 0 .607.033 1.88.478 3.16.446 1.26 1.06 1.91 1.42 2.27h-.662c-.347-.325-1.08-.988-1.57-2.32-.434-1.16-.509-2.31-.509-3.1 0-3.5 1.56-4.95 2.08-5.42h.662" style=""/><path d="m242.7 111.1v.729c-.965-.011-1.56-.544-1.9-1.04v.988h-.761v-4.88h.814v2.32c0 1.09.781 1.87 1.84 1.89" style=""/><path d="m244.6 106.9v4.82h-.814v-4.82zm.088 6.14v.966h-.966v-.966z" style=""/><path d="m249.4 108.3c0 .597-.401.966-.423.999-.424.379-.716.443-1.26.542-.597.118-1.1.228-1.1.759 0 .674.781.674.922.674.348 0 .923-.044 1.54-.413l.13.705c-.564.261-1.01.347-1.56.347-.271 0-1.8 0-1.8-1.42 0-.533.315-.879.586-1.09.336-.239.575-.281 1.17-.401.39-.075 1.02-.206 1.02-.781 0-.749-.858-.749-1.02-.749-.878 0-1.49.402-1.68.531l-.131-.737c.349-.174.945-.477 1.82-.477.195 0 .792 0 1.26.347.336.26.52.694.52 1.16" style=""/><path d="m254.2 107.3-.065.727c-.554-.434-1.14-.586-1.69-.586-.9 0-1.51.781-1.51 1.84 0 .846.401 1.89 1.55 1.89.564 0 .933-.088 1.53-.478l.129.706c-.64.369-1.01.466-1.67.466-1.51 0-2.39-1.31-2.39-2.59 0-1.34.987-2.53 2.34-2.53.586 0 1.18.152 1.77.553" style=""/><path d="m259.3 111.7h-.814l-.856-2.26c-.228-.597-.564-1.48-.652-1.99h-.011c-.065.391-.347 1.14-.456 1.43l-1.05 2.81h-.846l1.87-4.82h.954l1.87 4.82" style=""/><path d="m262.6 109v.629h-2.88v-.629z" style=""/><path d="m266.7 111.1v.729c-.965-.011-1.56-.544-1.9-1.04v.988h-.761v-4.88h.814v2.32c0 1.09.781 1.87 1.84 1.89" style=""/><path d="m271.6 106.9v4.82h-.847v-3.15c0-.812-.607-1.19-1.3-1.19-.77 0-.847.281-.847.749v3.59h-.847v-3.63c0-.781.25-1.3 1.15-1.3.575 0 1.34.174 1.88.639v-.52h.814" style=""/><path d="m276.5 108.3c0 .597-.401.966-.423.999-.424.379-.716.443-1.26.542-.597.118-1.1.228-1.1.759 0 .674.781.674.922.674.348 0 .923-.044 1.54-.413l.13.705c-.564.261-1.01.347-1.56.347-.271 0-1.8 0-1.8-1.42 0-.533.315-.879.586-1.09.336-.239.575-.281 1.17-.401.39-.075 1.02-.206 1.02-.781 0-.749-.858-.749-1.02-.749-.878 0-1.49.402-1.68.531l-.131-.737c.349-.174.945-.477 1.82-.477.195 0 .792 0 1.26.347.336.26.52.694.52 1.16" style=""/><path d="m280.3 107.2-.175.641c-.281-.228-.628-.358-.976-.358-.402 0-.554.325-.554.9v2.71h1.53v.628h-1.53v1.38h-.748v-1.38h-.944v-.628h.911v-2.9c0-.65.152-1.41.902-1.41.759 0 1.31.271 1.58.411" style=""/><path d="m283.7 109v.629h-2.88v-.629z" style=""/><path d="m287.9 107.2-.175.641c-.281-.228-.628-.358-.976-.358-.402 0-.554.325-.554.9v2.71h1.53v.628h-1.53v1.38h-.748v-1.38h-.944v-.628h.911v-2.9c0-.65.152-1.41.902-1.41.759 0 1.31.271 1.58.411" style=""/><path d="m293.4 109.3c0 1.45-1.09 2.61-2.38 2.61-1.34 0-2.39-1.19-2.39-2.61 0-1.43 1.11-2.51 2.38-2.51 1.3 0 2.39 1.1 2.39 2.51zm-.847.107c0-1.28-.737-1.92-1.54-1.92-.749 0-1.53.608-1.53 1.92 0 1.31.825 1.85 1.53 1.85.759 0 1.54-.564 1.54-1.85" style=""/><path d="m299.1 109.3c0 1.45-1.09 2.61-2.38 2.61-1.34 0-2.39-1.19-2.39-2.61 0-1.43 1.11-2.51 2.38-2.51 1.3 0 2.39 1.1 2.39 2.51zm-.847.107c0-1.28-.737-1.92-1.54-1.92-.749 0-1.53.608-1.53 1.92 0 1.31.825 1.85 1.53 1.85.759 0 1.54-.564 1.54-1.85" style=""/><path d="m301.2 106.9v7.53h-.814v-7.53z" style=""/><path d="m306.6 107.3-.065.727c-.554-.434-1.14-.586-1.69-.586-.9 0-1.51.781-1.51 1.84 0 .846.401 1.89 1.55 1.89.564 0 .933-.088 1.53-.478l.129.706c-.64.369-1.01.466-1.67.466-1.51 0-2.39-1.31-2.39-2.59 0-1.34.987-2.53 2.34-2.53.586 0 1.18.152 1.77.553" style=""/><path d="m311.6 106.9v3.23c0 .717-.162 1.7-1.49 1.7-.672 0-1.19-.338-1.54-.782v3.37h-.814v-7.53h.847v2.66c0 .717.272 1.62 1.1 1.62 1.04 0 1.05-.77 1.05-1.12v-3.16h.847" style=""/><path d="m317 106.9v3.14c0 1.11-.793 1.87-1.79 1.87-.705 0-1.19-.174-1.7-.466l.065-.717c.564.401 1.11.544 1.64.544.511 0 .945-.435.945-1.24v-.467c-1.63-.022-3.01-.477-3.01-1.43 0-.468.292-1.35 1.24-1.35.152 0 1.17.022 1.8.51v-.391zm-.846 1.43c0-.206 0-.478-.37-.685-.314-.195-.727-.206-.845-.206-.522 0-1.01.25-1.01.706 0 .76 1.76.835 2.22.857v-.672" style=""/><path d="m319.5 106.9v4.82h-.814v-4.82zm.088 6.14v.966h-.966v-.966z" style=""/><path d="m325.1 106.9v3.23c0 .717-.162 1.7-1.49 1.7-.977 0-1.51-.74-1.57-.825v.77h-.781v-4.88h.847v2.66c0 .717.272 1.62 1.1 1.62 1.04 0 1.05-.77 1.05-1.12v-3.16h.847" style=""/><path d="m329.5 109.6c0 3.5-1.56 4.95-2.08 5.42h-.661c.52-.521 1.9-1.92 1.9-5.42 0-.608-.033-1.88-.476-3.16-.446-1.26-1.06-1.91-1.42-2.27h.661c.348.325 1.08.987 1.57 2.32.435 1.16.511 2.31.511 3.1" style=""/><path d="m142.4 95.3c0 .988-.761 1.66-1.5 1.89.825.445 1.2 1.18 1.2 1.87 0 .933-.9 1.65-1.98 1.65-.836 0-1.63-.433-2.08-1.19l.39-.586c.315.761 1.02 1.15 1.68 1.15.564 0 1.1-.326 1.1-1.02 0-.662-.446-1.3-1.11-1.45-.064-.0109-.086-.0109-.856-.075v-.662h.77c1.17 0 1.41-1.01 1.41-1.55 0-.847-.5-1.54-1.34-1.54-.749 0-1.6.38-2.08 1.12l-.119-.652c.792-1.02 1.79-1.13 2.22-1.13 1.32 0 2.28 1.05 2.28 2.19" style=""/><path d="m147.7 93.3v.77h-1.98c-.13 0-.261-.0109-.391-.0109h-1.18c.347.305 1.17 1.12 1.51 1.43.207.195.761.65.967.845.488.489 1.07 1.06 1.07 1.99 0 1.25-.878 2.33-2.31 2.33-1.24 0-1.84-.845-2.1-1.78.13-.184.185-.248.207-.281.02-.0219.129-.162.237-.316.217.836.522 1.68 1.51 1.68 1.02 0 1.57-.814 1.57-1.66 0-.922-.619-1.54-1.26-2.19l-.835-.77-1.35-1.35v-.694h4.33" style=""/><path d="m151.3 95.4v.63h-2.88v-.63z" style=""/><path d="m157.1 95.7c0 1.35-.738 2.52-1.76 2.52-.423 0-1.1-.109-1.75-.641v3.23h-.814v-7.53h.847v.498c.261-.238.727-.617 1.46-.617 1.08 0 2.02 1.08 2.02 2.54zm-.845 0c0-1.41-.913-1.88-1.57-1.88-.423 0-.781.195-1.05.695v2.4c.173.261.564.641 1.16.641.641 0 1.47-.467 1.47-1.85" style=""/><path d="m159.3 93.3v4.82h-.814v-4.82zm.088 6.14v.966h-.966v-.966z" style=""/><path d="m163.8 93.6-.175.641c-.281-.228-.628-.358-.976-.358-.402 0-.554.325-.554.9v2.71h1.53v.628h-1.53v1.38h-.748v-1.38h-.944v-.628h.911v-2.9c0-.65.152-1.41.902-1.41.759 0 1.31.27 1.58.411" style=""/><path d="m174 98.6c0 1.16-1.08 2.19-2.57 2.19h-2.7v-7.53h.966v3.14h1.81c1.35 0 2.5.988 2.5 2.2zm-.88 0c0-.858-.683-1.57-1.93-1.57h-1.53v3.16h1.53c1.19 0 1.93-.662 1.93-1.58" style=""/><path d="m176.7 93.3v7.53h-.966v-7.53z" style=""/><path d="m184.1 93.8-.064.75c-.316-.217-.63-.423-.999-.533-.347-.119-.726-.13-1.1-.13-.704 0-1.34.38-1.79.933-.5.641-.739 1.44-.739 2.26 0 .814.239 1.63.739 2.27.444.553 1.08.933 1.79.933.327 0 .663-.033.977-.13.327-.098.63-.261.912-.456l.152.89c-.325.13-.662.239-1.01.303-.336.066-.683.088-1.03.088-.954 0-1.83-.434-2.47-1.14-.672-.761-1.02-1.75-1.02-2.76s.348-2 1.02-2.75c.641-.706 1.52-1.14 2.47-1.14.38 0 .761.0109 1.13.119.369.0969.705.292 1.03.488" style=""/></g><path d="m201.4 89.3v13.5" style="fill:none;stroke:#fff;stroke-miterlimit:10;stroke-width:.398"/><path d="m201.6 89.3h134.7v13.5h-134.7z" style="fill:#454120;stroke-width:.1"/><g style="fill:#fff;stroke-width:.1"><path d="m237.5 93.3v7.53h-.847v-6.76h-.011l-.727 1.49-2.66 5.27h-1.35v-7.53h.846v6.76h.01l.729-1.49 2.66-5.27z" style=""/><path d="m243.8 95.7c0 1.45-1.09 2.61-2.38 2.61-1.34 0-2.39-1.19-2.39-2.61 0-1.43 1.11-2.51 2.38-2.51 1.3 0 2.39 1.1 2.39 2.51zm-.847.108c0-1.28-.737-1.92-1.54-1.92-.749 0-1.53.608-1.53 1.92s.825 1.85 1.53 1.85c.759 0 1.54-.564 1.54-1.85" style=""/><path d="m253 95.7c0 1.35-.738 2.52-1.76 2.52-.423 0-1.1-.109-1.75-.641v3.23h-.814v-7.53h.847v.498c.261-.238.727-.617 1.46-.617 1.08 0 2.02 1.08 2.02 2.54zm-.845 0c0-1.41-.913-1.88-1.57-1.88-.423 0-.781.195-1.05.695v2.4c.173.261.564.641 1.16.641.641 0 1.47-.467 1.47-1.85" style=""/><path d="m258.1 93.3v4.82h-.847v-3.15c0-.812-.607-1.19-1.3-1.19-.77 0-.847.281-.847.748v3.59h-.847v-3.63c0-.781.25-1.3 1.15-1.3.575 0 1.34.173 1.88.639v-.52h.814" style=""/><path d="m260.7 93.3v4.82h-.814v-4.82zm.088 6.14v.966h-.966v-.966z" style=""/><path d="m263.3 93.3v7.53h-.814v-7.53z" style=""/><path d="m267.8 93.6-.175.641c-.281-.228-.628-.358-.976-.358-.402 0-.554.325-.554.9v2.71h1.53v.628h-1.53v1.38h-.748v-1.38h-.944v-.628h.911v-2.9c0-.65.152-1.41.902-1.41.759 0 1.31.27 1.58.411" style=""/><path d="m271.2 95.4v.63h-2.88v-.63z" style=""/><path d="m273.5 93.3v4.82h-.814v-4.82zm.088 6.14v.966h-.966v-.966z" style=""/><path d="m279.1 93.3v3.23c0 .717-.162 1.7-1.49 1.7-.977 0-1.51-.739-1.57-.825v.77h-.781v-4.88h.847v2.66c0 .717.272 1.62 1.1 1.62 1.04 0 1.05-.77 1.05-1.12v-3.16h.847" style=""/><path d="m287.3 93.6-.175.641c-.281-.228-.628-.358-.976-.358-.402 0-.554.325-.554.9v2.71h1.53v.628h-1.53v1.38h-.748v-1.38h-.944v-.628h.911v-2.9c0-.65.152-1.41.902-1.41.759 0 1.31.27 1.58.411" style=""/><path d="m292 93.3v3.14c0 1.11-.793 1.87-1.79 1.87-.705 0-1.19-.174-1.7-.466l.065-.717c.564.402 1.11.544 1.64.544.511 0 .945-.434.945-1.24v-.467c-1.63-.0219-3.01-.476-3.01-1.43 0-.467.292-1.35 1.24-1.35.152 0 1.17.0218 1.8.509v-.391zm-.846 1.43c0-.206 0-.478-.37-.684-.314-.195-.727-.206-.845-.206-.522 0-1.01.25-1.01.706 0 .759 1.76.834 2.22.856v-.672" style=""/><path d="m296.1 97.5v.728c-.965-.0109-1.56-.544-1.9-1.04v.988h-.761v-4.88h.814v2.32c0 1.09.781 1.87 1.84 1.89" style=""/><path d="m301.6 97.6-.119.684c-.76 0-1.39-.206-1.72-.348-.226.186-.597.348-1.03.348-.934 0-1.72-.781-1.72-1.77 0-.402.141-.792.358-1.08-.315-.444-.315-.867-.315-.922 0-.283.098-.597.282-.825-.564-.336-.695-.834-.695-1.12 0-.814 1.08-1.47 2.4-1.47 1.33 0 2.41.641 2.41 1.48 0 1.51-1.81 1.51-2.24 1.51h-.955c-.14 0-.629 0-.629.575 0 .12.043.294.12.391.228-.162.586-.314.987-.314.977 0 1.74.803 1.74 1.77 0 .52-.239.922-.357 1.08l.042-.0109c.239 0 .544.0437.803.0437.195 0 .641-.0328.641-.0328zm-1.89-1.08c0-.847-.511-1.15-.977-1.15-.401 0-.965.248-.965 1.15 0 .9.564 1.15.965 1.15.466 0 .977-.305.977-1.15zm.977-3.95c0-.478-.749-.836-1.64-.836-.879 0-1.65.338-1.65.847 0 .0328 0 .738.845.738h.977c.239 0 1.47 0 1.47-.748" style=""/><path d="m306.3 95.7c0 .369-.011 1.18-.434 1.83-.445.673-1.11.792-1.5.792-1.2 0-2.18-1.15-2.18-2.55 0-1.43 1.04-2.57 2.34-2.57.685 0 1.3.259 1.72.564l-.064.705c-.684-.564-1.4-.608-1.65-.608-.868 0-1.56.77-1.6 1.83zm-.619.597h-2.68c.173.825.748 1.37 1.37 1.37.564 0 1.17-.369 1.31-1.37" style=""/><path d="m310.2 93.6-.175.641c-.281-.228-.628-.358-.976-.358-.402 0-.554.325-.554.9v2.71h1.53v.628h-1.53v1.38h-.748v-1.38h-.944v-.628h.911v-2.9c0-.65.152-1.41.902-1.41.759 0 1.31.27 1.58.411" style=""/><path d="m131.5 79.8v.63h-1.36v6.73h-.217c-.639-.661-1.54-.694-2.06-.716v-.63c.357.011.879.0329 1.42.261v-5.64h-1.36v-.63h3.57" style=""/><path d="m137.3 82.2c0 1.39-.717 2.6-1.76 2.6-.349 0-1.17-.0859-1.84-.9.141 1.75.999 2.62 2 2.62.413 0 .759-.0765 1.14-.228v.639c-.553.217-.998.217-1.15.217-1.53 0-2.9-1.53-2.9-3.86 0-3.07 1.35-3.73 2.27-3.73.652 0 1.12.25 1.54.738.489.555.695 1.05.695 1.91zm-.89 0c0-.369 0-.869-.261-1.31-.185-.303-.466-.672-1.08-.672-1.15 0-1.31 1.6-1.34 1.95 0 .152 0 .173.011.303 0 .803.488 1.67 1.39 1.67.52 0 .825-.272 1.04-.674.228-.402.25-.781.25-1.27" style=""/><path d="m149 79.7v.728c-.586-.184-1.1-.195-1.25-.195-.488 0-.802.173-1.13.402.998.867 1.63 2.07 1.99 3.34l-.674.195c-.27-.977-.65-1.62-.726-1.74-.424-.726-.846-1.13-1.11-1.33-.325.347-1.2 1.37-1.69 2.4 1.05.933 1.64 1.63 1.64 2.34 0 .825-.532 1.7-1.4 1.7-.922 0-1.5-.988-1.5-2.15 0-.705.184-1.36.292-1.68.033-.0766.033-.109.033-.109s-.011-.0313-.097-.119c-.066-.0656-.12-.108-.239-.217-.217-.184-.727-.619-.803-.705-.347-.38-.488-.781-.488-1.2 0-.977.835-1.82 1.98-1.82 1.06 0 1.83.445 2.16.63.652-.498 1.23-.63 1.75-.63.131 0 .608 0 1.26.162zm-3.7 6.15c0-.553-.489-1.09-1.15-1.69-.293.759-.293 1.52-.293 1.6 0 .814.445 1.12.781 1.12.575 0 .662-.761.662-1.03zm.141-5.21c-.683-.359-1.3-.412-1.6-.412-.771 0-1.15.65-1.15 1.2 0 .412.184.717.368.891.011.0219.63.553.707.619.52-1.04 1.55-2.18 1.67-2.3" style=""/><path d="m158.3 81.8c0 .988-.761 1.65-1.49 1.9.966.316 1.33 1.03 1.33 1.61 0 1.02-.922 1.9-2.09 1.9-1.22 0-2.1-.9-2.1-1.9 0-.575.369-1.29 1.33-1.61-.781-.27-1.49-.955-1.49-1.9 0-1.18.999-2.19 2.25-2.19 1.29 0 2.26 1.04 2.26 2.19zm-.912 3.5c0-.781-.553-1.28-1.33-1.28-.836 0-1.35.531-1.35 1.28 0 .748.531 1.27 1.34 1.27.857 0 1.34-.566 1.34-1.27zm.033-3.49c0-1.05-.672-1.54-1.37-1.54-.749 0-1.38.52-1.38 1.54 0 1.14.782 1.55 1.37 1.55.629 0 1.38-.434 1.38-1.55" style=""/><path d="m161.8 81.9v.63h-2.88v-.63z" style=""/><path d="m167.6 82.2c0 1.35-.738 2.52-1.76 2.52-.423 0-1.1-.109-1.75-.641v3.23h-.814v-7.53h.847v.498c.261-.238.727-.617 1.46-.617 1.08 0 2.02 1.08 2.02 2.54zm-.845 0c0-1.41-.913-1.88-1.57-1.88-.423 0-.781.195-1.05.695v2.4c.173.261.564.641 1.16.641.641 0 1.47-.467 1.47-1.85" style=""/><path d="m169.7 79.8v4.82h-.814v-4.82zm.088 6.14v.966h-.966v-.966z" style=""/><path d="m174.3 80.1-.175.641c-.281-.228-.628-.358-.976-.358-.402 0-.554.325-.554.9v2.71h1.53v.628h-1.53v1.38h-.748v-1.38h-.944v-.628h.911v-2.9c0-.65.152-1.41.902-1.41.759 0 1.31.27 1.58.411" style=""/><path d="m184.5 85.1c0 1.16-1.08 2.19-2.57 2.19h-2.7v-7.53h.966v3.14h1.81c1.35 0 2.5.988 2.5 2.2zm-.88 0c0-.858-.683-1.57-1.93-1.57h-1.53v3.16h1.53c1.19 0 1.93-.662 1.93-1.58" style=""/><path d="m187.2 79.8v7.53h-.966v-7.53z" style=""/><path d="m194.6 80.3-.064.75c-.316-.217-.63-.423-.999-.533-.347-.119-.726-.13-1.1-.13-.704 0-1.34.38-1.79.933-.5.641-.739 1.44-.739 2.26 0 .814.239 1.63.739 2.27.444.553 1.08.933 1.79.933.327 0 .663-.0328.977-.13.327-.0984.63-.261.912-.456l.152.891c-.325.13-.662.239-1.01.303-.336.0657-.683.0875-1.03.0875-.954 0-1.83-.434-2.47-1.14-.672-.761-1.02-1.75-1.02-2.76s.348-2 1.02-2.75c.641-.706 1.52-1.14 2.47-1.14.38 0 .761.0109 1.13.119.369.0969.705.292 1.03.488" style=""/></g><path d="m201.4 75.7v13.5" style="fill:none;stroke:#fff;stroke-miterlimit:10;stroke-width:.398"/><path d="m201.6 75.7h134.7v13.5h-134.7z" style="fill:#452020;stroke-width:.1"/><g style="fill:#fff;stroke-width:.1"><path d="m236.3 79.8v7.53h-.847v-6.76h-.011l-.727 1.49-2.66 5.27h-1.35v-7.53h.846v6.76h.01l.729-1.49 2.66-5.27z" style=""/><path d="m242.5 82.2c0 1.45-1.09 2.61-2.38 2.61-1.34 0-2.39-1.19-2.39-2.61 0-1.43 1.11-2.51 2.38-2.51 1.3 0 2.39 1.1 2.39 2.51zm-.847.108c0-1.28-.737-1.92-1.54-1.92-.749 0-1.53.608-1.53 1.92s.825 1.85 1.53 1.85c.759 0 1.54-.564 1.54-1.85" style=""/><path d="m251.9 79.8v.716l-2.9-.0218h-.531v6.84h-.966v-7.53h4.39" style=""/><path d="m257.8 79.8v.716l-2.9-.0218h-.531v6.84h-.966v-7.53h4.39" style=""/><path d="m264.2 87.3h-.847l-1.44-3.71c-.173-.444-.986-2.54-1.08-3.04h-.011c-.086.434-.553 1.63-.651 1.89l-1.88 4.86h-1.01l2.96-7.53h.999z" style=""/><path d="m272.8 79.8v7.53h-1.24l-1.41-3.68c-.382-.988-.891-2.33-1.01-2.84h-.011c-.054.228-.184.63-.347 1.08l-1.7 4.49-.369.944h-1.23v-7.53h.847v6.73h.011c.066-.348.499-1.53.781-2.27l1.61-4.22h.792l1.44 3.78.522 1.38c.108.316.402 1.1.455 1.35l.011-.0094v-6.73h.846" style=""/><path d="m281.5 81.2c0 .597-.401.966-.423.998-.424.38-.716.444-1.26.542-.597.119-1.1.228-1.1.759 0 .673.781.673.922.673.348 0 .923-.0437 1.54-.412l.13.705c-.564.261-1.01.347-1.56.347-.271 0-1.8 0-1.8-1.42 0-.533.315-.88.586-1.09.336-.239.575-.281 1.17-.402.39-.075 1.02-.206 1.02-.781 0-.748-.858-.748-1.02-.748-.878 0-1.49.402-1.68.531l-.131-.738c.349-.173.945-.476 1.82-.476.195 0 .792 0 1.26.347.336.259.52.694.52 1.16" style=""/><path d="m286.4 79.8v4.82h-.847v-3.15c0-.812-.607-1.19-1.3-1.19-.77 0-.847.281-.847.748v3.59h-.847v-3.63c0-.781.25-1.3 1.15-1.3.575 0 1.34.173 1.88.639v-.52h.814" style=""/><path d="m292.6 82.2c0 1.3-.683 2.52-1.72 2.52-.652 0-1.28-.228-1.78-.652v.531h-.814v-6.92h.847v2.6c.336-.314.814-.617 1.47-.617 1.05 0 2.01 1.06 2.01 2.54zm-.845 0c0-1.12-.771-1.88-1.58-1.88-.423 0-.717.217-.933.511-.109.162-.109.184-.109.38v2.18c.261.381.684.63 1.15.63.825 0 1.48-.825 1.48-1.82" style=""/><path d="m298.2 82.2c0 1.3-.683 2.52-1.72 2.52-.652 0-1.28-.228-1.78-.652v.531h-.814v-6.92h.847v2.6c.336-.314.814-.617 1.47-.617 1.05 0 2.01 1.06 2.01 2.54zm-.845 0c0-1.12-.771-1.88-1.58-1.88-.423 0-.717.217-.933.511-.109.162-.109.184-.109.38v2.18c.261.381.684.63 1.15.63.825 0 1.48-.825 1.48-1.82" style=""/><path d="m304.1 82.2c0 1.45-1.09 2.61-2.38 2.61-1.34 0-2.39-1.19-2.39-2.61 0-1.43 1.11-2.51 2.38-2.51 1.3 0 2.39 1.1 2.39 2.51zm-.847.108c0-1.28-.737-1.92-1.54-1.92-.749 0-1.53.608-1.53 1.92s.825 1.85 1.53 1.85c.759 0 1.54-.564 1.54-1.85" style=""/><path d="m307.6 84v.728c-.965-.0109-1.56-.544-1.9-1.04v.988h-.761v-4.88h.814v2.32c0 1.09.781 1.87 1.84 1.89" style=""/><path d="m311.5 80.1-.175.641c-.281-.228-.628-.358-.976-.358-.402 0-.554.325-.554.9v2.71h1.53v.628h-1.53v1.38h-.748v-1.38h-.944v-.628h.911v-2.9c0-.65.152-1.41.902-1.41.759 0 1.31.27 1.58.411" style=""/><path d="m155.1 68.2c0 .988-.761 1.65-1.49 1.9.966.316 1.33 1.03 1.33 1.61 0 1.02-.922 1.9-2.09 1.9-1.22 0-2.1-.9-2.1-1.9 0-.575.369-1.29 1.33-1.61-.781-.27-1.49-.955-1.49-1.9 0-1.18.999-2.19 2.25-2.19 1.29 0 2.26 1.04 2.26 2.19zm-.912 3.5c0-.781-.553-1.28-1.33-1.28-.836 0-1.35.531-1.35 1.28 0 .748.531 1.27 1.34 1.27.857 0 1.34-.566 1.34-1.27zm.033-3.49c0-1.05-.672-1.54-1.37-1.54-.749 0-1.38.52-1.38 1.54 0 1.14.782 1.55 1.37 1.55.629 0 1.38-.434 1.38-1.55" style=""/><path d="m160.6 69.7c0 .856-.043 1.87-.5 2.75-.445.814-1.19 1.07-1.75 1.07-.641 0-1.4-.292-1.84-1.26-.36-.792-.413-1.69-.413-2.56 0-.858.042-1.65.369-2.44.434-1.04 1.26-1.33 1.88-1.33.792 0 1.48.445 1.82 1.19.325.705.434 1.42.434 2.58zm-.846.13c0-.716 0-1.4-.196-2.08-.283-.988-.858-1.16-1.2-1.16-.565 0-1.01.412-1.23 1.19-.173.619-.184 1.2-.184 2.05 0 .684 0 1.33.184 1.93.066.206.337 1.1 1.22 1.1.846 0 1.13-.825 1.2-1.02.207-.608.207-1.33.207-2.01" style=""/><path d="m165.9 68.4c0 1.36-.933 2.43-2.05 2.43-.434 0-.847-.162-1.16-.444v2.23h2.86v.695h-3.64v-4h.717c.185.434.586.858 1.22.858.509 0 1.1-.445 1.1-1.75 0-1.8-1.32-1.8-1.42-1.8-.726 0-1.39.424-1.7 1.01l-.358-.608c.446-.619 1.19-1.06 2.07-1.06 1.29 0 2.38 1.08 2.38 2.44" style=""/><path d="m171.1 66.2v.63h-1.36v6.73h-.217c-.639-.661-1.54-.694-2.06-.716v-.63c.357.011.879.0329 1.42.261v-5.64h-1.36v-.63h3.57" style=""/></g><path d="m201.4 62.2v13.5" style="fill:none;stroke:#fff;stroke-miterlimit:10;stroke-width:.398"/><path d="m201.6 62.2h134.7v13.5h-134.7z" style="fill:#452020;stroke-width:.1"/><g style="fill:#fff;stroke-width:.1"><path d="m236.3 66.2v7.53h-.847v-6.76h-.011l-.727 1.49-2.66 5.27h-1.35v-7.53h.846v6.76h.01l.729-1.49 2.66-5.27z" style=""/><path d="m242.5 68.6c0 1.45-1.09 2.61-2.38 2.61-1.34 0-2.39-1.19-2.39-2.61 0-1.43 1.11-2.51 2.38-2.51 1.3 0 2.39 1.1 2.39 2.51zm-.847.108c0-1.28-.737-1.92-1.54-1.92-.749 0-1.53.608-1.53 1.92s.825 1.85 1.53 1.85c.759 0 1.54-.564 1.54-1.85" style=""/><path d="m251.9 66.2v.716l-2.9-.0218h-.531v6.84h-.966v-7.53h4.39" style=""/><path d="m257.8 66.2v.716l-2.9-.0218h-.531v6.84h-.966v-7.53h4.39" style=""/><path d="m264.2 73.7h-.847l-1.44-3.71c-.173-.444-.986-2.54-1.08-3.04h-.011c-.086.434-.553 1.63-.651 1.89l-1.88 4.86h-1.01l2.96-7.53h.999z" style=""/><path d="m272.8 66.2v7.53h-1.24l-1.41-3.68c-.382-.988-.891-2.33-1.01-2.84h-.011c-.054.228-.184.63-.347 1.08l-1.7 4.49-.369.944h-1.23v-7.53h.847v6.73h.011c.066-.348.499-1.53.781-2.27l1.61-4.22h.792l1.44 3.78.522 1.38c.108.316.402 1.1.455 1.35l.011-.0094v-6.73h.846" style=""/><path d="m281.5 67.6c0 .597-.401.966-.423.998-.424.38-.716.444-1.26.542-.597.119-1.1.228-1.1.759 0 .673.781.673.922.673.348 0 .923-.0437 1.54-.412l.13.705c-.564.261-1.01.347-1.56.347-.271 0-1.8 0-1.8-1.42 0-.533.315-.88.586-1.09.336-.239.575-.281 1.17-.402.39-.075 1.02-.206 1.02-.781 0-.748-.858-.748-1.02-.748-.878 0-1.49.402-1.68.531l-.131-.738c.349-.173.945-.476 1.82-.476.195 0 .792 0 1.26.347.336.259.52.694.52 1.16" style=""/><path d="m286.4 66.2v4.82h-.847v-3.15c0-.812-.607-1.19-1.3-1.19-.77 0-.847.281-.847.748v3.59h-.847v-3.63c0-.781.25-1.3 1.15-1.3.575 0 1.34.173 1.88.639v-.52h.814" style=""/><path d="m292.6 68.6c0 1.3-.683 2.52-1.72 2.52-.652 0-1.28-.228-1.78-.652v.531h-.814v-6.92h.847v2.6c.336-.314.814-.617 1.47-.617 1.05 0 2.01 1.06 2.01 2.54zm-.845 0c0-1.12-.771-1.88-1.58-1.88-.423 0-.717.217-.933.511-.109.162-.109.184-.109.38v2.18c.261.381.684.63 1.15.63.825 0 1.48-.825 1.48-1.82" style=""/><path d="m298.2 68.6c0 1.3-.683 2.52-1.72 2.52-.652 0-1.28-.228-1.78-.652v.531h-.814v-6.92h.847v2.6c.336-.314.814-.617 1.47-.617 1.05 0 2.01 1.06 2.01 2.54zm-.845 0c0-1.12-.771-1.88-1.58-1.88-.423 0-.717.217-.933.511-.109.162-.109.184-.109.38v2.18c.261.381.684.63 1.15.63.825 0 1.48-.825 1.48-1.82" style=""/><path d="m304.1 68.6c0 1.45-1.09 2.61-2.38 2.61-1.34 0-2.39-1.19-2.39-2.61 0-1.43 1.11-2.51 2.38-2.51 1.3 0 2.39 1.1 2.39 2.51zm-.847.108c0-1.28-.737-1.92-1.54-1.92-.749 0-1.53.608-1.53 1.92s.825 1.85 1.53 1.85c.759 0 1.54-.564 1.54-1.85" style=""/><path d="m307.6 70.4v.728c-.965-.0109-1.56-.544-1.9-1.04v.988h-.761v-4.88h.814v2.32c0 1.09.781 1.87 1.84 1.89" style=""/><path d="m311.5 66.5-.175.641c-.281-.228-.628-.358-.976-.358-.402 0-.554.325-.554.9v2.71h1.53v.628h-1.53v1.38h-.748v-1.38h-.944v-.628h.911v-2.9c0-.65.152-1.41.902-1.41.759 0 1.31.27 1.58.411" style=""/><path d="m137.9 53.2-.064.75c-.316-.217-.63-.423-.999-.533-.347-.119-.726-.13-1.1-.13-.704 0-1.34.38-1.79.933-.5.641-.739 1.44-.739 2.26 0 .814.239 1.63.739 2.27.444.553 1.08.933 1.79.933.327 0 .663-.0328.977-.13.327-.0984.63-.261.912-.456l.152.891c-.325.13-.662.239-1.01.303-.336.0657-.683.0875-1.03.0875-.954 0-1.83-.434-2.47-1.14-.672-.761-1.02-1.75-1.02-2.76s.348-2 1.02-2.75c.641-.706 1.52-1.14 2.47-1.14.38 0 .761.0109 1.13.119.369.0969.705.292 1.03.488" style=""/><path d="m143.2 52.7v4.82h-.847v-3.15c0-.812-.607-1.19-1.3-1.19-.77 0-.847.281-.847.748v3.59h-.847v-3.63c0-.781.25-1.3 1.15-1.3.575 0 1.34.173 1.88.639v-.52h.814" style=""/><path d="m148 54.1c0 .597-.401.966-.423.998-.424.38-.716.444-1.26.542-.597.119-1.1.228-1.1.759 0 .673.781.673.922.673.348 0 .923-.0437 1.54-.412l.13.705c-.564.261-1.01.347-1.56.347-.271 0-1.8 0-1.8-1.42 0-.533.315-.88.586-1.09.336-.239.575-.281 1.17-.402.39-.075 1.02-.206 1.02-.781 0-.748-.858-.748-1.02-.748-.878 0-1.49.402-1.68.531l-.131-.738c.349-.173.945-.476 1.82-.476.195 0 .792 0 1.26.347.336.259.52.694.52 1.16" style=""/><path d="m151.9 53-.175.641c-.281-.228-.628-.358-.976-.358-.402 0-.554.325-.554.9v2.71h1.53v.628h-1.53v1.38h-.748v-1.38h-.944v-.628h.911v-2.9c0-.65.152-1.41.902-1.41.759 0 1.31.27 1.58.411" style=""/><path d="m157.3 55.1c0 1.45-1.09 2.61-2.38 2.61-1.34 0-2.39-1.19-2.39-2.61 0-1.43 1.11-2.51 2.38-2.51 1.3 0 2.39 1.1 2.39 2.51zm-.847.108c0-1.28-.737-1.92-1.54-1.92-.749 0-1.53.608-1.53 1.92s.825 1.85 1.53 1.85c.759 0 1.54-.564 1.54-1.85" style=""/><path d="m165.4 52.7v3.23c0 .728-.173 1.7-1.49 1.7-.652 0-1.22-.305-1.62-.891-.281.825-1.04.891-1.39.891-.781 0-1.29-.445-1.58-.836v.781h-.781v-4.88h.847v2.66c0 .739.294 1.62 1.1 1.62 1.01 0 1.06-.705 1.06-1.12v-3.16h.847v2.66c0 .739.292 1.62 1.1 1.62 1.01 0 1.06-.705 1.06-1.12v-3.16h.845" style=""/><path d="m172 52.7v7.53h-.966v-7.53z" style=""/><path d="m178.4 54.8c0 .706-.336 1.23-.575 1.49-.509.542-.867.641-1.87.889-.629.153-.803.195-1.13.478-.076.0656-.381.38-.381.856 0 .641.586 1.29 1.58 1.29.913 0 1.43-.358 1.84-.695l.162.869c-.597.358-1.19.542-1.99.542-1.51 0-2.45-1.06-2.45-2.14 0-.466.151-.922.586-1.38.456-.488.933-.619 1.57-.77.922-.228 1.03-.261 1.34-.531.217-.184.456-.542.456-1.01 0-.716-.597-1.43-1.58-1.43-.445 0-1.42.109-2.33.88l-.163-.88c.955-.597 1.82-.748 2.51-.748 1.43 0 2.43 1.1 2.43 2.29" style=""/><path d="m186 52.7-2.83 7.53h-.955l-2.83-7.53h.803l.836 2.21h3.16l.825-2.21zm-2.06 2.82h-2.69c.553 1.55.152.411.705 1.96.228.641.564 1.56.641 1.96h.011c.021-.152.096-.422.346-1.14l.988-2.79" style=""/><path d="m190.3 54.1c0 .597-.401.966-.423.998-.424.38-.716.444-1.26.542-.597.119-1.1.228-1.1.759 0 .673.781.673.922.673.348 0 .923-.0437 1.54-.412l.13.705c-.564.261-1.01.347-1.56.347-.271 0-1.8 0-1.8-1.42 0-.533.315-.88.586-1.09.336-.239.575-.281 1.17-.402.39-.075 1.02-.206 1.02-.781 0-.748-.858-.748-1.02-.748-.878 0-1.49.402-1.68.531l-.131-.738c.349-.173.945-.476 1.82-.476.195 0 .792 0 1.26.347.336.259.52.694.52 1.16" style=""/></g><path d="m201.4 48.6v13.5" style="fill:none;stroke:#fff;stroke-miterlimit:10;stroke-width:.398"/><path d="m201.6 48.6h134.7v13.5h-134.7z" style="fill:#452020;stroke-width:.1"/><g style="fill:#fff;stroke-width:.1"><path d="m236.3 52.7v7.53h-.847v-6.76h-.011l-.727 1.49-2.66 5.27h-1.35v-7.53h.846v6.76h.01l.729-1.49 2.66-5.27z" style=""/><path d="m242.5 55.1c0 1.45-1.09 2.61-2.38 2.61-1.34 0-2.39-1.19-2.39-2.61 0-1.43 1.11-2.51 2.38-2.51 1.3 0 2.39 1.1 2.39 2.51zm-.847.108c0-1.28-.737-1.92-1.54-1.92-.749 0-1.53.608-1.53 1.92s.825 1.85 1.53 1.85c.759 0 1.54-.564 1.54-1.85" style=""/><path d="m251.9 52.7v.716l-2.9-.0218h-.531v6.84h-.966v-7.53h4.39" style=""/><path d="m257.8 52.7v.716l-2.9-.0218h-.531v6.84h-.966v-7.53h4.39" style=""/><path d="m264.2 60.2h-.847l-1.44-3.71c-.173-.444-.986-2.54-1.08-3.04h-.011c-.086.434-.553 1.63-.651 1.89l-1.88 4.86h-1.01l2.96-7.53h.999z" style=""/><path d="m272.8 52.7v7.53h-1.24l-1.41-3.68c-.382-.988-.891-2.33-1.01-2.84h-.011c-.054.228-.184.63-.347 1.08l-1.7 4.49-.369.944h-1.23v-7.53h.847v6.73h.011c.066-.348.499-1.53.781-2.27l1.61-4.22h.792l1.44 3.78.522 1.38c.108.316.402 1.1.455 1.35l.011-.0094v-6.73h.846" style=""/><path d="m281.5 54.1c0 .597-.401.966-.423.998-.424.38-.716.444-1.26.542-.597.119-1.1.228-1.1.759 0 .673.781.673.922.673.348 0 .923-.0437 1.54-.412l.13.705c-.564.261-1.01.347-1.56.347-.271 0-1.8 0-1.8-1.42 0-.533.315-.88.586-1.09.336-.239.575-.281 1.17-.402.39-.075 1.02-.206 1.02-.781 0-.748-.858-.748-1.02-.748-.878 0-1.49.402-1.68.531l-.131-.738c.349-.173.945-.476 1.82-.476.195 0 .792 0 1.26.347.336.259.52.694.52 1.16" style=""/><path d="m286.4 52.7v4.82h-.847v-3.15c0-.812-.607-1.19-1.3-1.19-.77 0-.847.281-.847.748v3.59h-.847v-3.63c0-.781.25-1.3 1.15-1.3.575 0 1.34.173 1.88.639v-.52h.814" style=""/><path d="m292.6 55.1c0 1.3-.683 2.52-1.72 2.52-.652 0-1.28-.228-1.78-.652v.531h-.814v-6.92h.847v2.6c.336-.314.814-.617 1.47-.617 1.05 0 2.01 1.06 2.01 2.54zm-.845 0c0-1.12-.771-1.88-1.58-1.88-.423 0-.717.217-.933.511-.109.162-.109.184-.109.38v2.18c.261.381.684.63 1.15.63.825 0 1.48-.825 1.48-1.82" style=""/><path d="m298.2 55.1c0 1.3-.683 2.52-1.72 2.52-.652 0-1.28-.228-1.78-.652v.531h-.814v-6.92h.847v2.6c.336-.314.814-.617 1.47-.617 1.05 0 2.01 1.06 2.01 2.54zm-.845 0c0-1.12-.771-1.88-1.58-1.88-.423 0-.717.217-.933.511-.109.162-.109.184-.109.38v2.18c.261.381.684.63 1.15.63.825 0 1.48-.825 1.48-1.82" style=""/><path d="m304.1 55.1c0 1.45-1.09 2.61-2.38 2.61-1.34 0-2.39-1.19-2.39-2.61 0-1.43 1.11-2.51 2.38-2.51 1.3 0 2.39 1.1 2.39 2.51zm-.847.108c0-1.28-.737-1.92-1.54-1.92-.749 0-1.53.608-1.53 1.92s.825 1.85 1.53 1.85c.759 0 1.54-.564 1.54-1.85" style=""/><path d="m307.6 56.9v.728c-.965-.0109-1.56-.544-1.9-1.04v.988h-.761v-4.88h.814v2.32c0 1.09.781 1.87 1.84 1.89" style=""/><path d="m311.5 53-.175.641c-.281-.228-.628-.358-.976-.358-.402 0-.554.325-.554.9v2.71h1.53v.628h-1.53v1.38h-.748v-1.38h-.944v-.628h.911v-2.9c0-.65.152-1.41.902-1.41.759 0 1.31.27 1.58.411" style=""/><path d="m161.5 41.7v.9h-.9v-.9z" style=""/><path d="m161.5 37.8v.9h-.9v-.9z" style=""/><path d="m161.5 33.8v.9h-.9v-.9z" style=""/></g><path d="m201.4 29.7v18.9" style="fill:none;stroke:#fff;stroke-miterlimit:10;stroke-width:.398"/><g style="fill:#fff;stroke-width:.1"><path d="m269.4 41.7v.9h-.9v-.9z" style=""/><path d="m269.4 37.8v.9h-.9v-.9z" style=""/><path d="m269.4 33.8v.9h-.9v-.9z" style=""/></g></g></svg>