<svg height="676" style="" viewBox="0 338 603 338" width="1206" xmlns="http://www.w3.org/2000/svg"><g style="stroke-width:.1" transform="matrix(1.33 0 0 -1.33 0 676)"><path d="m0 .00391h453.5v255.1h-453.5z" style=""/><path d="m26.9 49c.0024 1.36 1.1 2.46 2.46 2.46s2.46-1.1 2.46-2.46-1.1-2.46-2.46-2.46-2.46 1.1-2.46 2.46m-29.3-22.2c0 1.36 1.1 2.46 2.46 2.46 1.35 0 2.46-1.1 2.46-2.46s-1.1-2.46-2.46-2.46-2.46 1.1-2.46 2.46m58.6-.115c0 1.36 1.1 2.46 2.46 2.46s2.46-1.1 2.46-2.46-1.1-2.46-2.46-2.46-2.46 1.1-2.46 2.46m-51.5-3.37c1.13.501 1.64 1.83 1.14 2.96l-1.09 2.47h4.29v-19.3h-8.65c-1.07 3.75-1.4 7.67-.979 11.5zm17.9-.475v5.7h10.2c.527 0 3.72-.609 3.72-3 0-1.98-2.45-2.7-4.47-2.7zm-13.9-30.7c0 1.36 1.1 2.46 2.46 2.46s2.46-1.1 2.46-2.46-1.1-2.46-2.46-2.46-2.46 1.1-2.46 2.46m36.4-.113c0 1.36 1.1 2.46 2.46 2.46s2.46-1.1 2.46-2.46-1.1-2.46-2.46-2.46-2.46 1.1-2.46 2.46m.76 5.57c-1.21.259-2.4-.51-2.66-1.72l-1.23-5.76c-8.03-3.64-17.2-3.59-25.2.12l-1.23 5.76c-.258 1.21-1.45 1.98-2.66 1.72l-5.08-1.09c-.943.973-1.82 2.01-2.63 3.1h24.7c.281 0 .466.0504.466.306v8.75c0 .254-.186.306-.466.306h-7.23v5.54h7.82c.712 0 3.82-.203 4.81-4.17.31-1.22.993-5.19 1.46-6.46.465-1.42 2.36-4.27 4.37-4.27h12.8c-.855-1.15-1.79-2.23-2.8-3.24zm13.7 23.1c.174-1.74.195-3.5.0637-5.25h-3.1c-.311 0-.435-.204-.435-.509v-1.42c0-3.36-1.89-4.09-3.55-4.27-1.58-.177-3.33.662-3.54 1.63-.932 5.24-2.48 6.36-4.94 8.29 3.04 1.93 6.21 4.78 6.21 8.59 0 4.12-2.82 6.72-4.75 7.99-2.7 1.78-5.69 2.14-6.5 2.14h-32.1c4.44 4.96 10.4 8.32 16.9 9.55l3.78-3.97c.856-.896 2.27-.93 3.17-.0726l4.23 4.05c8.74-1.64 16.3-7.03 20.7-14.8l-2.9-6.55c-.501-1.13.0097-2.46 1.14-2.96zm7.23-.107-.1 1.01 2.99 2.79c.605.565.379 1.71-.398 1.99l-3.82 1.43-.3.984 2.38 3.31c.484.672.0383 1.74-.778 1.88l-4.03.654-.484.904 1.69 3.71c.347.756-.295 1.72-1.13 1.69l-4.09-.144-.645.784.939 3.98c.189.807-.63 1.63-1.44 1.44l-3.98-.936-.784.643.143 4.09c.0332.827-.935 1.47-1.69 1.13l-3.71-1.69-.904.485-.657 4.02c-.132.816-1.21 1.26-1.88.778l-3.31-2.38-.983.298-1.43 3.82c-.289.779-1.43 1-1.99.399l-2.78-2.99-1.01.0992-2.15 3.47c-.436.704-1.6.704-2.03 0l-2.15-3.47-1.01-.0992-2.79 2.99c-.564.604-1.71.38-1.99-.399l-1.43-3.82-.983-.298-3.31 2.38c-.672.485-1.75.0371-1.88-.778l-.656-4.03-.904-.484-3.71 1.69c-.754.344-1.72-.302-1.69-1.13l.144-4.08-.784-.646-3.98.939c-.808.188-1.63-.63-1.44-1.44l.936-3.98-.644-.784-4.08.144c-.824.0234-1.47-.936-1.13-1.69l1.69-3.71-.485-.904-4.03-.654c-.816-.133-1.26-1.21-.776-1.88l2.38-3.31-.3-.984-3.82-1.43c-.775-.289-1-1.43-.396-2l2.99-2.78-.1-1.01-3.47-2.15c-.703-.436-.703-1.6 0-2.03l3.47-2.15.1-1.01-2.99-2.79c-.607-.564-.379-1.7.396-1.99l3.82-1.43.3-.986-2.38-3.31c-.484-.673-.0395-1.75.779-1.88l4.02-.653.485-.904-1.69-3.71c-.345-.756.305-1.73 1.13-1.69l4.08.143.646-.784-.936-3.98c-.189-.806.63-1.63 1.44-1.44l3.98.938.784-.642-.144-4.09c-.0308-.826.938-1.48 1.69-1.13l3.71 1.69.904-.483.656-4.02c.132-.818 1.21-1.26 1.88-.778l3.31 2.38.984-.3 1.43-3.82c.288-.774 1.43-1 1.99-.396l2.79 2.99 1.01-.102 2.15-3.47c.434-.699 1.6-.701 2.03 0l2.15 3.47 1.01.102 2.79-2.99c.565-.607 1.71-.377 1.99.396l1.43 3.82.985.3 3.31-2.38c.672-.482 1.75-.0394 1.88.778l.657 4.02.904.483 3.71-1.69c.755-.346 1.72.3 1.69 1.13l-.143 4.09.784.642 3.98-.938c.811-.19 1.63.631 1.44 1.44l-.938 3.98.645.784 4.08-.143c.826-.0332 1.48.936 1.13 1.69l-1.69 3.71.484.904 4.02.653c.82.132 1.26 1.21.778 1.88l-2.38 3.31.3.986 3.82 1.43c.778.291 1 1.43.396 1.99l-2.98 2.79.0985 1.01 3.47 2.15c.704.433.704 1.6.0012 2.03z" style="fill:#383232"/><path d="m0 215.6h453.5v39.5h-453.5z" style="fill:#1c1c1c"/><g style="fill:#fff"><path d="m16.3 235.1v.977h-1.88c-.173 0-.345-.014-.517-.014h-2.85v3.78h4.65v.862h-4.65v3.45h1.95c.172 0 .344-.014.517-.014h2.58v.905h-6.29v-9.94h6.48" style=""/><path d="m22.7 235.7c0 .044-.0438.489-.0578.547l-.0282.402c-.661-.532-1.39-.805-2.2-.805-1.19 0-1.97 1.06-1.97 2.46 0 1.19.574 2.5 2.01 2.5.962 0 1.36-.23 1.98-.647l.173.935c-.833.489-1.31.603-2.15.603-1.98 0-3.1-1.75-3.1-3.39 0-1.84 1.32-3.35 3.05-3.35.703 0 1.51.172 2.3.747" style=""/><path d="m29.7 238.3c0 1.94-1.42 3.43-3.07 3.43-1.7 0-3.09-1.52-3.09-3.43 0-1.88 1.44-3.3 3.07-3.3 1.7 0 3.09 1.45 3.09 3.3zm-1.09.144c0-1.77-1.02-2.56-1.98-2.56-1.03 0-2 .862-2 2.56 0 1.74 1.08 2.43 1.98 2.43.992 0 2-.747 2-2.43" style=""/><path d="m35.2 236.9c0 .733-.445 1.19-.502 1.26-.533.545-.962.631-1.84.805-.517.1-1.25.244-1.25.962 0 .891 1 .891 1.19.891.761 0 1.36-.174 2-.533l.172.934c-.919.432-1.7.446-2.02.446-.331 0-2.33 0-2.33-1.87 0-.633.345-1.06.561-1.26.517-.446.876-.518 1.72-.691.475-.1 1.31-.272 1.31-1.03 0-.991-1.12-.991-1.32-.991-.575 0-1.41.158-2.18.719l-.173-.977c.0719-.044 1.05-.633 2.37-.633 1.85 0 2.3 1.12 2.3 1.97" style=""/><path d="m41.7 241.5h-1.08c-.659-1.7-1.77-4.51-1.82-5.54h-.0141c-.0719.848-.834 2.74-.948 3.03l-1.02 2.51h-1.13l2.67-6.38-.503-1.31c-.316-.717-.531-.789-.791-.789-.2 0-.661.042-1.11.216l.0875-.935c.086-.014.559-.115 1.02-.115.345 0 1.02 0 1.64 1.58l3 7.73" style=""/><path d="m47 236.9c0 .733-.445 1.19-.502 1.26-.533.545-.962.631-1.84.805-.517.1-1.25.244-1.25.962 0 .891 1 .891 1.19.891.761 0 1.36-.174 2-.533l.172.934c-.919.432-1.7.446-2.02.446-.331 0-2.33 0-2.33-1.87 0-.633.345-1.06.561-1.26.517-.446.876-.518 1.72-.691.475-.1 1.31-.272 1.31-1.03 0-.991-1.12-.991-1.32-.991-.575 0-1.41.158-2.18.719l-.173-.977c.0719-.044 1.05-.633 2.37-.633 1.85 0 2.3 1.12 2.3 1.97" style=""/><path d="m52 235.5-.216.833c-.502-.445-1.03-.503-1.29-.503-.633 0-.719.675-.719 1.18v3.62h1.98v.833h-1.98v1.82h-.991v-1.82h-1.21v-.833h1.18v-3.86c0-.834.188-1.82 1.18-1.82.962 0 1.62.332 2.07.561" style=""/><path d="m58.2 238.3c0 .617-.0578 1.49-.517 2.26-.589.992-1.6 1.11-2.01 1.11-1.55 0-2.85-1.49-2.85-3.36 0-1.9 1.38-3.38 3.05-3.38.659 0 1.45.188 2.24.761 0 .058-.0437.533-.0437.533s-.0422.33-.0422.388c-.848-.719-1.7-.819-2.13-.819-1.11 0-2.05.99-2.08 2.51zm-.847.775h-3.45c.244.962.919 1.72 1.77 1.72.445 0 1.44-.2 1.68-1.72" style=""/><path d="m68.6 235.1v4.32c0 .993-.258 2.2-1.94 2.2-1.22 0-1.9-.847-2.11-1.16-.259.906-1.05 1.16-1.8 1.16-1.18 0-1.8-.761-2.04-1.06v.991h-1.02v-6.45h1.09v3.58c0 .948.374 2.08 1.42 2.08 1.32 0 1.39-.904 1.39-1.44v-4.22h1.09v3.58c0 .948.375 2.08 1.42 2.08 1.32 0 1.39-.904 1.39-1.44v-4.22h1.09" style=""/><path d="m11.8 222.2c0 .315-.126.631-.442.901-.306.263-.577.316-1.14.425-.323.063-.775.144-.775.567 0 .533.641.533.775.533.659 0 1.05-.208 1.31-.351l.117.631c-.559.251-.973.287-1.34.287-.206 0-1.53 0-1.53-1.19 0-.433.262-.704.361-.803.342-.297.577-.342 1.19-.459.288-.055.802-.153.802-.614 0-.586-.73-.586-.847-.586-.533 0-1.05.181-1.43.451l-.117-.659c.542-.288 1.09-.395 1.55-.395.586 0 1.52.189 1.52 1.26" style=""/><path d="m16.1 225h-.712c-.388-.992-.397-1-.712-1.83-.18-.468-.514-1.34-.559-1.68h-.0172c-.0187.153-.0453.325-.542 1.62l-.73 1.88h-.739l1.59-4h.839l1.59 4" style=""/><path d="m20.3 221v6.26h-.722v-2.65c-.505.425-1.08.497-1.37.497-.911 0-1.61-.947-1.61-2.1 0-1.16.694-2.1 1.58-2.1.27 0 .838.062 1.38.567v-.469zm-.748 1.27c0-.172 0-.191-.1-.316-.244-.325-.55-.468-.875-.468-.586 0-1.23.423-1.23 1.5 0 1.16.766 1.52 1.33 1.52.414 0 .703-.234.875-.469v-1.78" style=""/><path d="m25.2 221v.677h-1.7c-.108 0-.216-.01-.325-.01h-.991l1.48 1.34c.947.775 1.53 1.26 1.53 2.14 0 1.04-.748 1.95-1.98 1.95-.955 0-1.52-.55-1.8-1.44l.416-.523c.234 1.05.703 1.35 1.26 1.35.803 0 1.31-.614 1.31-1.35 0-.821-.577-1.34-1.24-1.94l-1.67-1.58v-.613h3.71" style=""/><path d="m28.7 224.5v.65c-.65-.009-1.24-.334-1.61-.865v.82h-.667v-4.06h.722v1.92c0 .947.739 1.52 1.56 1.53" style=""/><path d="m32.8 221v4h-.748v-2.61c0-.72-.567-.964-1.11-.964-.648 0-.712.208-.712.595v2.98h-.748v-3.02c0-.767.308-1.08.947-1.08.523 0 1.23.153 1.65.531v-.433h.722" style=""/><path d="m36.9 222.2c0 .315-.126.631-.442.901-.306.263-.577.316-1.14.425-.323.063-.775.144-.775.567 0 .533.641.533.775.533.659 0 1.05-.208 1.31-.351l.117.631c-.559.251-.973.287-1.34.287-.206 0-1.53 0-1.53-1.19 0-.433.262-.704.361-.803.342-.297.577-.342 1.19-.459.288-.055.802-.153.802-.614 0-.586-.73-.586-.847-.586-.533 0-1.05.181-1.43.451l-.117-.659c.542-.288 1.09-.395 1.55-.395.586 0 1.52.189 1.52 1.26" style=""/><path d="m40.2 221.2-.155.569c-.234-.181-.55-.289-.828-.289-.352 0-.469.316-.469.784v2.15h1.3v.559h-1.3v1.14h-.669v-1.14h-.792v-.559h.766v-2.31c0-.531.117-1.23.775-1.23.397 0 .866.079 1.37.332" style=""/><path d="m42.1 221v.766h-.777v-.775h.234l-.242-1.14h.388l.397 1.15" style=""/><path d="m50.1 221v6.26h-.722v-2.65c-.505.425-1.08.497-1.37.497-.911 0-1.61-.947-1.61-2.1 0-1.16.694-2.1 1.58-2.1.27 0 .838.062 1.38.567v-.469zm-.748 1.27c0-.172 0-.191-.1-.316-.244-.325-.55-.468-.875-.468-.586 0-1.23.423-1.23 1.5 0 1.16.766 1.52 1.33 1.52.414 0 .703-.234.875-.469v-1.78" style=""/><path d="m54.1 222.2c0 .315-.126.631-.442.901-.306.263-.577.316-1.14.425-.323.063-.775.144-.775.567 0 .533.641.533.775.533.659 0 1.05-.208 1.31-.351l.117.631c-.559.251-.973.287-1.34.287-.206 0-1.53 0-1.53-1.19 0-.433.262-.704.361-.803.342-.297.577-.342 1.19-.459.288-.055.802-.153.802-.614 0-.586-.73-.586-.847-.586-.533 0-1.05.181-1.43.451l-.117-.659c.542-.288 1.09-.395 1.55-.395.586 0 1.52.189 1.52 1.26" style=""/><path d="m55.9 221v6.26h-.722v-6.26z" style=""/><path d="m58.1 221v4h-.722v-4zm.0813 5.08v.865h-.866v-.865z" style=""/><path d="m61.8 221.2-.155.569c-.234-.181-.55-.289-.828-.289-.352 0-.469.316-.469.784v2.15h1.3v.559h-1.3v1.14h-.669v-1.14h-.792v-.559h.766v-2.31c0-.531.117-1.23.775-1.23.397 0 .866.079 1.37.332" style=""/><path d="m66 223c0 .28-.0094.964-.361 1.5-.378.568-.955.676-1.3.676-1.05 0-1.88-.964-1.88-2.12 0-1.19.884-2.14 2.01-2.14.433 0 .956.107 1.48.44l-.0531.622c-.569-.405-1.1-.476-1.42-.476-.748 0-1.33.657-1.35 1.49zm-.541.531h-2.27c.144.578.586 1.06 1.15 1.06.334 0 .947-.153 1.12-1.06" style=""/><path d="m70.4 221v.677h-1.7c-.108 0-.216-.01-.325-.01h-.991l1.48 1.34c.947.775 1.53 1.26 1.53 2.14 0 1.04-.748 1.95-1.98 1.95-.955 0-1.52-.55-1.8-1.44l.416-.523c.234 1.05.703 1.35 1.26 1.35.803 0 1.31-.614 1.31-1.35 0-.821-.577-1.34-1.24-1.94l-1.67-1.58v-.613h3.71" style=""/><path d="m74.1 222.2c0 .315-.126.631-.442.901-.306.263-.577.316-1.14.425-.323.063-.775.144-.775.567 0 .533.641.533.775.533.659 0 1.05-.208 1.31-.351l.117.631c-.559.251-.973.287-1.34.287-.206 0-1.53 0-1.53-1.19 0-.433.262-.704.361-.803.342-.297.577-.342 1.19-.459.288-.055.802-.153.802-.614 0-.586-.73-.586-.847-.586-.533 0-1.05.181-1.43.451l-.117-.659c.542-.288 1.09-.395 1.55-.395.586 0 1.52.189 1.52 1.26" style=""/><path d="m78.4 225h-.712c-.388-.992-.397-1-.712-1.83-.18-.468-.514-1.34-.559-1.68h-.0172c-.0187.153-.0453.325-.542 1.62l-.73 1.88h-.739l1.59-4h.839l1.59 4" style=""/><path d="m82.6 221v6.26h-.722v-2.65c-.505.425-1.08.497-1.37.497-.911 0-1.61-.947-1.61-2.1 0-1.16.694-2.1 1.58-2.1.27 0 .838.062 1.38.567v-.469zm-.748 1.27c0-.172 0-.191-.1-.316-.244-.325-.55-.468-.875-.468-.586 0-1.23.423-1.23 1.5 0 1.16.766 1.52 1.33 1.52.414 0 .703-.234.875-.469v-1.78" style=""/><path d="m36.7 154.8v7.53h-1.24l-1.41-3.68c-.381-.988-.891-2.33-1.01-2.84h-.0109c-.0547.229-.184.63-.347 1.08l-1.7 4.49-.369.944h-1.23v-7.53h.847v6.73h.0109c.0656-.348.498-1.53.781-2.27l1.61-4.22h.792l1.44 3.78.522 1.38c.108.316.402 1.1.455 1.35l.011-.01v-6.73h.847" style=""/><path d="m42.3 154.8v3.14c0 1.11-.792 1.87-1.79 1.87-.705 0-1.19-.174-1.7-.466l.0656-.717c.564.401 1.11.544 1.64.544.511 0 .945-.435.945-1.24v-.467c-1.63-.022-3.01-.477-3.01-1.43 0-.468.292-1.35 1.24-1.35.152 0 1.17.022 1.8.51v-.391zm-.845 1.43c0-.206 0-.478-.37-.685-.314-.195-.727-.206-.845-.206-.522 0-1.01.25-1.01.706 0 .76 1.76.835 2.22.857v-.672" style=""/><path d="m47.8 154.8v3.23c0 .717-.162 1.7-1.49 1.7-.976 0-1.51-.74-1.57-.825v.77h-.781v-4.88h.847v2.66c0 .717.272 1.62 1.1 1.62 1.04 0 1.05-.77 1.05-1.12v-3.16h.847" style=""/><path d="m53.5 154.8v4.82h-.847v-3.15c0-.812-.608-1.19-1.3-1.19-.77 0-.847.281-.847.749v3.59h-.847v-3.63c0-.781.25-1.3 1.15-1.3.575 0 1.35.174 1.88.639v-.52h.814" style=""/><path d="m58.2 161.6v.727c-.131.033-.467.12-.869.12-1.02 0-1.8-.77-1.8-1.86v-.977h-.803v-.628h.803v-4.19h.814v4.19h1.19v.628h-1.23v1.29c0 .804.728.879 1.01.879.217 0 .511-.022.88-.185" style=""/><path d="m62.2 154.8v3.14c0 1.11-.792 1.87-1.79 1.87-.705 0-1.19-.174-1.7-.466l.0656-.717c.564.401 1.11.544 1.64.544.511 0 .945-.435.945-1.24v-.467c-1.63-.022-3.01-.477-3.01-1.43 0-.468.292-1.35 1.24-1.35.152 0 1.17.022 1.8.51v-.391zm-.845 1.43c0-.206 0-.478-.37-.685-.314-.195-.727-.206-.845-.206-.522 0-1.01.25-1.01.706 0 .76 1.76.835 2.22.857v-.672" style=""/><path d="m67.5 155.2-.0656.727c-.553-.434-1.14-.586-1.69-.586-.9 0-1.51.781-1.51 1.84 0 .846.402 1.89 1.55 1.89.564 0 .933-.088 1.53-.478l.13.706c-.641.369-1.01.466-1.67.466-1.51 0-2.39-1.31-2.39-2.59 0-1.34.988-2.53 2.34-2.53.586 0 1.18.152 1.77.553" style=""/><path d="m71.4 155.1-.175.641c-.281-.228-.628-.358-.976-.358-.402 0-.553.325-.553.9v2.71h1.53v.628h-1.53v1.38h-.748v-1.38h-.944v-.628h.911v-2.9c0-.65.152-1.41.902-1.41.759 0 1.31.271 1.58.411" style=""/><path d="m76.5 154.8v4.82h-.847v-3.15c0-.812-.608-1.19-1.3-1.19-.77 0-.847.281-.847.749v3.59h-.847v-3.63c0-.781.25-1.3 1.15-1.3.575 0 1.35.174 1.88.639v-.52h.814" style=""/><path d="m80.9 159v.729c-.966-.011-1.56-.544-1.9-1.04v.988h-.761v-4.88h.814v2.32c0 1.09.781 1.87 1.85 1.89" style=""/><path d="m85.7 157.2c0 .368-.0109 1.18-.434 1.83-.445.674-1.11.793-1.5.793-1.2 0-2.18-1.15-2.18-2.55 0-1.43 1.04-2.57 2.34-2.57.684 0 1.3.26 1.72.564l-.064.705c-.684-.564-1.4-.608-1.65-.608-.869 0-1.56.771-1.6 1.84zm-.619.596h-2.68c.173.825.748 1.37 1.37 1.37.564 0 1.17-.369 1.31-1.37" style=""/><path d="m89.5 159v.729c-.966-.011-1.56-.544-1.9-1.04v.988h-.761v-4.88h.814v2.32c0 1.09.781 1.87 1.85 1.89" style=""/><path d="m93.6 156.2c0 .597-.402.966-.424.999-.423.379-.716.443-1.26.542-.597.118-1.1.228-1.1.759 0 .674.781.674.922.674.348 0 .923-.044 1.54-.413l.13.705c-.564.261-1.01.347-1.56.347-.272 0-1.8 0-1.8-1.42 0-.533.316-.879.586-1.09.336-.239.575-.281 1.17-.401.391-.075 1.02-.206 1.02-.781 0-.749-.858-.749-1.02-.749-.878 0-1.49.402-1.68.531l-.131-.737c.348-.174.945-.477 1.82-.477.195 0 .792 0 1.26.347.336.26.52.694.52 1.16" style=""/><path d="m102.7 157.2c0 1.3-.683 2.52-1.72 2.52-.652 0-1.28-.229-1.78-.652v.531h-.814v-6.92h.847v2.6c.336-.314.814-.617 1.47-.617 1.05 0 2.01 1.06 2.01 2.54zm-.845 0c0-1.12-.771-1.88-1.58-1.88-.423 0-.717.217-.933.511-.109.163-.109.185-.109.38v2.18c.261.381.684.629 1.15.629.825 0 1.48-.825 1.48-1.82" style=""/><path d="m106.4 159v.729c-.965-.011-1.56-.544-1.9-1.04v.988h-.761v-4.88h.814v2.32c0 1.09.781 1.87 1.84 1.89" style=""/><path d="m111.7 157.2c0 1.45-1.09 2.61-2.38 2.61-1.34 0-2.39-1.19-2.39-2.61 0-1.43 1.11-2.51 2.38-2.51 1.3 0 2.39 1.1 2.39 2.51zm-.847.107c0-1.28-.737-1.92-1.54-1.92-.749 0-1.53.608-1.53 1.92 0 1.31.825 1.85 1.53 1.85.759 0 1.54-.564 1.54-1.85" style=""/><path d="m116.9 159.6h-.814l-.856-2.26c-.228-.597-.564-1.48-.652-1.99h-.011c-.065.391-.347 1.14-.456 1.43l-1.05 2.81h-.846l1.87-4.82h.954l1.87 4.82" style=""/><path d="m118.8 154.8v4.82h-.814v-4.82zm.088 6.14v.966h-.966v-.966z" style=""/><path d="m124.4 154.8v7.53h-.814v-3.19c-.575.476-1.18.597-1.58.597-1.07 0-1.92-1.13-1.92-2.53 0-1.42.836-2.53 1.86-2.53.36 0 .999.097 1.61.683v-.564zm-.846 1.51c0-.152-.011-.347-.358-.661-.25-.217-.521-.305-.803-.305-.672 0-1.46.511-1.46 1.86 0 1.43.932 1.88 1.57 1.88.487 0 .812-.25 1.05-.597v-2.17" style=""/><path d="m129.8 157.2c0 .368-.011 1.18-.434 1.83-.445.674-1.11.793-1.5.793-1.2 0-2.18-1.15-2.18-2.55 0-1.43 1.04-2.57 2.34-2.57.685 0 1.3.26 1.72.564l-.064.705c-.684-.564-1.4-.608-1.65-.608-.868 0-1.56.771-1.6 1.84zm-.619.596h-2.68c.173.825.748 1.37 1.37 1.37.564 0 1.17-.369 1.31-1.37" style=""/><path d="m138.5 154.8v3.23c0 .717-.162 1.7-1.49 1.7-.672 0-1.19-.338-1.54-.782v3.37h-.814v-7.53h.847v2.66c0 .717.272 1.62 1.1 1.62 1.04 0 1.05-.77 1.05-1.12v-3.16h.847" style=""/><path d="m144 157.2c0 .368-.011 1.18-.434 1.83-.445.674-1.11.793-1.5.793-1.2 0-2.18-1.15-2.18-2.55 0-1.43 1.04-2.57 2.34-2.57.685 0 1.3.26 1.72.564l-.064.705c-.684-.564-1.4-.608-1.65-.608-.868 0-1.56.771-1.6 1.84zm-.619.596h-2.68c.173.825.748 1.37 1.37 1.37.564 0 1.17-.369 1.31-1.37" style=""/><path d="m148.7 154.8v3.14c0 1.11-.793 1.87-1.79 1.87-.705 0-1.19-.174-1.7-.466l.065-.717c.564.401 1.11.544 1.64.544.511 0 .945-.435.945-1.24v-.467c-1.63-.022-3.01-.477-3.01-1.43 0-.468.292-1.35 1.24-1.35.152 0 1.17.022 1.8.51v-.391zm-.846 1.43c0-.206 0-.478-.37-.685-.314-.195-.727-.206-.845-.206-.522 0-1.01.25-1.01.706 0 .76 1.76.835 2.22.857v-.672" style=""/><path d="m154.2 154.8v7.53h-.814v-3.19c-.575.476-1.18.597-1.58.597-1.07 0-1.92-1.13-1.92-2.53 0-1.42.836-2.53 1.86-2.53.36 0 .999.097 1.61.683v-.564zm-.846 1.51c0-.152-.011-.347-.358-.661-.25-.217-.521-.305-.803-.305-.672 0-1.46.511-1.46 1.86 0 1.43.932 1.88 1.57 1.88.487 0 .812-.25 1.05-.597v-2.17" style=""/><path d="m159.7 157.2c0 .368-.011 1.18-.434 1.83-.445.674-1.11.793-1.5.793-1.2 0-2.18-1.15-2.18-2.55 0-1.43 1.04-2.57 2.34-2.57.685 0 1.3.26 1.72.564l-.064.705c-.684-.564-1.4-.608-1.65-.608-.868 0-1.56.771-1.6 1.84zm-.619.596h-2.68c.173.825.748 1.37 1.37 1.37.564 0 1.17-.369 1.31-1.37" style=""/><path d="m163.5 159v.729c-.965-.011-1.56-.544-1.9-1.04v.988h-.761v-4.88h.814v2.32c0 1.09.781 1.87 1.84 1.89" style=""/><path d="m167.7 156.2c0 .597-.401.966-.423.999-.424.379-.716.443-1.26.542-.597.118-1.1.228-1.1.759 0 .674.781.674.922.674.348 0 .923-.044 1.54-.413l.13.705c-.564.261-1.01.347-1.56.347-.271 0-1.8 0-1.8-1.42 0-.533.315-.879.586-1.09.336-.239.575-.281 1.17-.401.39-.075 1.02-.206 1.02-.781 0-.749-.858-.749-1.02-.749-.878 0-1.49.402-1.68.531l-.131-.737c.349-.174.945-.477 1.82-.477.195 0 .792 0 1.26.347.336.26.52.694.52 1.16" style=""/><path d="m176 154.8v3.14c0 1.11-.793 1.87-1.79 1.87-.705 0-1.19-.174-1.7-.466l.065-.717c.564.401 1.11.544 1.64.544.511 0 .945-.435.945-1.24v-.467c-1.63-.022-3.01-.477-3.01-1.43 0-.468.292-1.35 1.24-1.35.152 0 1.17.022 1.8.51v-.391zm-.846 1.43c0-.206 0-.478-.37-.685-.314-.195-.727-.206-.845-.206-.522 0-1.01.25-1.01.706 0 .76 1.76.835 2.22.857v-.672" style=""/><path d="m181.5 154.8v3.23c0 .717-.162 1.7-1.49 1.7-.977 0-1.51-.74-1.57-.825v.77h-.781v-4.88h.847v2.66c0 .717.272 1.62 1.1 1.62 1.04 0 1.05-.77 1.05-1.12v-3.16h.847" style=""/><path d="m187.2 154.8v7.53h-.814v-3.19c-.575.476-1.18.597-1.58.597-1.07 0-1.92-1.13-1.92-2.53 0-1.42.836-2.53 1.86-2.53.36 0 .999.097 1.61.683v-.564zm-.846 1.51c0-.152-.011-.347-.358-.661-.25-.217-.521-.305-.803-.305-.672 0-1.46.511-1.46 1.86 0 1.43.932 1.88 1.57 1.88.487 0 .812-.25 1.05-.597v-2.17" style=""/><path d="m193.4 154.8v7.53h-.814v-7.53z" style=""/><path d="m196 154.8v4.82h-.814v-4.82zm.088 6.14v.966h-.966v-.966z" style=""/><path d="m202.1 157.2c0 1.35-.738 2.52-1.76 2.52-.423 0-1.1-.11-1.75-.641v3.23h-.814v-7.53h.847v.498c.261-.237.727-.617 1.46-.617 1.08 0 2.02 1.08 2.02 2.54zm-.845 0c0-1.41-.913-1.88-1.57-1.88-.423 0-.781.196-1.05.696v2.4c.173.261.564.641 1.16.641.641 0 1.47-.467 1.47-1.86" style=""/><path d="m205.8 159v.729c-.965-.011-1.56-.544-1.9-1.04v.988h-.761v-4.88h.814v2.32c0 1.09.781 1.87 1.84 1.89" style=""/><path d="m210.4 154.8v3.14c0 1.11-.793 1.87-1.79 1.87-.705 0-1.19-.174-1.7-.466l.065-.717c.564.401 1.11.544 1.64.544.511 0 .945-.435.945-1.24v-.467c-1.63-.022-3.01-.477-3.01-1.43 0-.468.292-1.35 1.24-1.35.152 0 1.17.022 1.8.51v-.391zm-.846 1.43c0-.206 0-.478-.37-.685-.314-.195-.727-.206-.845-.206-.522 0-1.01.25-1.01.706 0 .76 1.76.835 2.22.857v-.672" style=""/><path d="m214.4 159v.729c-.965-.011-1.56-.544-1.9-1.04v.988h-.761v-4.88h.814v2.32c0 1.09.781 1.87 1.84 1.89" style=""/><path d="m216.4 154.8v4.82h-.814v-4.82zm.088 6.14v.966h-.966v-.966z" style=""/><path d="m221.8 157.2c0 .368-.011 1.18-.434 1.83-.445.674-1.11.793-1.5.793-1.2 0-2.18-1.15-2.18-2.55 0-1.43 1.04-2.57 2.34-2.57.685 0 1.3.26 1.72.564l-.064.705c-.684-.564-1.4-.608-1.65-.608-.868 0-1.56.771-1.6 1.84zm-.619.596h-2.68c.173.825.748 1.37 1.37 1.37.564 0 1.17-.369 1.31-1.37" style=""/><path d="m226 156.2c0 .597-.401.966-.423.999-.424.379-.716.443-1.26.542-.597.118-1.1.228-1.1.759 0 .674.781.674.922.674.348 0 .923-.044 1.54-.413l.13.705c-.564.261-1.01.347-1.56.347-.271 0-1.8 0-1.8-1.42 0-.533.315-.879.586-1.09.336-.239.575-.281 1.17-.401.39-.075 1.02-.206 1.02-.781 0-.749-.858-.749-1.02-.749-.878 0-1.49.402-1.68.531l-.131-.737c.349-.174.945-.477 1.82-.477.195 0 .792 0 1.26.347.336.26.52.694.52 1.16" style=""/><path d="m233.5 155.1-.175.641c-.281-.228-.628-.358-.976-.358-.402 0-.554.325-.554.9v2.71h1.53v.628h-1.53v1.38h-.748v-1.38h-.944v-.628h.911v-2.9c0-.65.152-1.41.902-1.41.759 0 1.31.271 1.58.411" style=""/><path d="m239 157.2c0 1.45-1.09 2.61-2.38 2.61-1.34 0-2.39-1.19-2.39-2.61 0-1.43 1.11-2.51 2.38-2.51 1.3 0 2.39 1.1 2.39 2.51zm-.847.107c0-1.28-.737-1.92-1.54-1.92-.749 0-1.53.608-1.53 1.92 0 1.31.825 1.85 1.53 1.85.759 0 1.54-.564 1.54-1.85" style=""/><path d="m250.7 154.8v3.23c0 .728-.173 1.7-1.49 1.7-.652 0-1.22-.305-1.62-.891-.281.825-1.04.891-1.39.891-.781 0-1.29-.446-1.58-.836v.781h-.781v-4.88h.847v2.66c0 .739.294 1.62 1.1 1.62 1.01 0 1.06-.705 1.06-1.12v-3.16h.847v2.66c0 .739.292 1.62 1.1 1.62 1.01 0 1.06-.705 1.06-1.12v-3.16h.845" style=""/><path d="m256 154.8v3.14c0 1.11-.793 1.87-1.79 1.87-.705 0-1.19-.174-1.7-.466l.065-.717c.564.401 1.11.544 1.64.544.511 0 .945-.435.945-1.24v-.467c-1.63-.022-3.01-.477-3.01-1.43 0-.468.292-1.35 1.24-1.35.152 0 1.17.022 1.8.51v-.391zm-.846 1.43c0-.206 0-.478-.37-.685-.314-.195-.727-.206-.845-.206-.522 0-1.01.25-1.01.706 0 .76 1.76.835 2.22.857v-.672" style=""/><path d="m261.6 154.8v3.23c0 .717-.162 1.7-1.49 1.7-.977 0-1.51-.74-1.57-.825v.77h-.781v-4.88h.847v2.66c0 .717.272 1.62 1.1 1.62 1.04 0 1.05-.77 1.05-1.12v-3.16h.847" style=""/><path d="m264.2 154.8v4.82h-.814v-4.82zm.088 6.14v.966h-.966v-.966z" style=""/><path d="m270.3 157.2c0 1.3-.683 2.52-1.72 2.52-.652 0-1.28-.229-1.78-.652v.531h-.814v-6.92h.847v2.6c.336-.314.814-.617 1.47-.617 1.05 0 2.01 1.06 2.01 2.54zm-.845 0c0-1.12-.771-1.88-1.58-1.88-.423 0-.717.217-.933.511-.109.163-.109.185-.109.38v2.18c.261.381.684.629 1.15.629.825 0 1.48-.825 1.48-1.82" style=""/><path d="m275.5 154.8v4.82h-.847v-3.15c0-.812-.607-1.19-1.3-1.19-.77 0-.847.281-.847.749v3.59h-.847v-3.63c0-.781.25-1.3 1.15-1.3.575 0 1.34.174 1.88.639v-.52h.814" style=""/><path d="m278.1 154.8v7.53h-.814v-7.53z" style=""/><path d="m283.4 154.8v3.14c0 1.11-.793 1.87-1.79 1.87-.705 0-1.19-.174-1.7-.466l.065-.717c.564.401 1.11.544 1.64.544.511 0 .945-.435.945-1.24v-.467c-1.63-.022-3.01-.477-3.01-1.43 0-.468.292-1.35 1.24-1.35.152 0 1.17.022 1.8.51v-.391zm-.846 1.43c0-.206 0-.478-.37-.685-.314-.195-.727-.206-.845-.206-.522 0-1.01.25-1.01.706 0 .76 1.76.835 2.22.857v-.672" style=""/><path d="m287.9 155.1-.175.641c-.281-.228-.628-.358-.976-.358-.402 0-.554.325-.554.9v2.71h1.53v.628h-1.53v1.38h-.748v-1.38h-.944v-.628h.911v-2.9c0-.65.152-1.41.902-1.41.759 0 1.31.271 1.58.411" style=""/><path d="m292.7 157.2c0 .368-.011 1.18-.434 1.83-.445.674-1.11.793-1.5.793-1.2 0-2.18-1.15-2.18-2.55 0-1.43 1.04-2.57 2.34-2.57.685 0 1.3.26 1.72.564l-.064.705c-.684-.564-1.4-.608-1.65-.608-.868 0-1.56.771-1.6 1.84zm-.619.596h-2.68c.173.825.748 1.37 1.37 1.37.564 0 1.17-.369 1.31-1.37" style=""/><path d="m301.1 154.8v3.14c0 1.11-.793 1.87-1.79 1.87-.705 0-1.19-.174-1.7-.466l.065-.717c.564.401 1.11.544 1.64.544.511 0 .945-.435.945-1.24v-.467c-1.63-.022-3.01-.477-3.01-1.43 0-.468.292-1.35 1.24-1.35.152 0 1.17.022 1.8.51v-.391zm-.846 1.43c0-.206 0-.478-.37-.685-.314-.195-.727-.206-.845-.206-.522 0-1.01.25-1.01.706 0 .76 1.76.835 2.22.857v-.672" style=""/><path d="m303.6 154.8v7.53h-.814v-7.53z" style=""/><path d="m306.2 154.8v7.53h-.814v-7.53z" style=""/><path d="m314.4 155.1-.175.641c-.281-.228-.628-.358-.976-.358-.402 0-.554.325-.554.9v2.71h1.53v.628h-1.53v1.38h-.748v-1.38h-.944v-.628h.911v-2.9c0-.65.152-1.41.902-1.41.759 0 1.31.271 1.58.411" style=""/><path d="m319.4 154.8v3.23c0 .717-.162 1.7-1.49 1.7-.672 0-1.19-.338-1.54-.782v3.37h-.814v-7.53h.847v2.66c0 .717.272 1.62 1.1 1.62 1.04 0 1.05-.77 1.05-1.12v-3.16h.847" style=""/><path d="m324.8 157.2c0 .368-.011 1.18-.434 1.83-.445.674-1.11.793-1.5.793-1.2 0-2.18-1.15-2.18-2.55 0-1.43 1.04-2.57 2.34-2.57.685 0 1.3.26 1.72.564l-.064.705c-.684-.564-1.4-.608-1.65-.608-.868 0-1.56.771-1.6 1.84zm-.619.596h-2.68c.173.825.748 1.37 1.37 1.37.564 0 1.17-.369 1.31-1.37" style=""/><path d="m332.4 152.1c-.522.52-1.9 1.92-1.9 5.42 0 .607.033 1.88.478 3.16.446 1.26 1.06 1.91 1.42 2.27h-.662c-.347-.325-1.08-.988-1.57-2.32-.434-1.16-.509-2.31-.509-3.1 0-3.5 1.56-4.95 2.08-5.42h.662" style=""/><path d="m337.8 154.8v4.82h-.847v-3.15c0-.812-.607-1.19-1.3-1.19-.77 0-.847.281-.847.749v3.59h-.847v-3.63c0-.781.25-1.3 1.15-1.3.575 0 1.34.174 1.88.639v-.52h.814" style=""/><path d="m342.6 156.2c0 .597-.401.966-.423.999-.424.379-.716.443-1.26.542-.597.118-1.1.228-1.1.759 0 .674.781.674.922.674.348 0 .923-.044 1.54-.413l.13.705c-.564.261-1.01.347-1.56.347-.271 0-1.8 0-1.8-1.42 0-.533.315-.879.586-1.09.336-.239.575-.281 1.17-.401.39-.075 1.02-.206 1.02-.781 0-.749-.858-.749-1.02-.749-.878 0-1.49.402-1.68.531l-.131-.737c.349-.174.945-.477 1.82-.477.195 0 .792 0 1.26.347.336.26.52.694.52 1.16" style=""/><path d="m347.6 154.8v4.82h-.847v-3.15c0-.812-.607-1.19-1.3-1.19-.77 0-.847.281-.847.749v3.59h-.847v-3.63c0-.781.25-1.3 1.15-1.3.575 0 1.34.174 1.88.639v-.52h.814" style=""/><path d="m352.9 154.8v3.14c0 1.11-.793 1.87-1.79 1.87-.705 0-1.19-.174-1.7-.466l.065-.717c.564.401 1.11.544 1.64.544.511 0 .945-.435.945-1.24v-.467c-1.63-.022-3.01-.477-3.01-1.43 0-.468.292-1.35 1.24-1.35.152 0 1.17.022 1.8.51v-.391zm-.846 1.43c0-.206 0-.478-.37-.685-.314-.195-.727-.206-.845-.206-.522 0-1.01.25-1.01.706 0 .76 1.76.835 2.22.857v-.672" style=""/><path d="m355.5 154.8v7.53h-.814v-7.53z" style=""/><path d="m358.1 154.8v7.53h-.814v-7.53z" style=""/><path d="m363.8 159.6h-.814c-1.41-3.45-1.43-3.95-1.44-4.2h-.011c-.066.726-.933 2.74-.977 2.84l-.586 1.36h-.857l2.1-4.82-.39-.977c-.282-.629-.466-.629-.618-.629-.175 0-.521.044-.846.173l.065-.704c.238-.055.542-.088.781-.088.38 0 .782.131 1.22 1.24l2.37 5.8" style=""/><path d="m36 141.2v3.23c0 .728-.173 1.7-1.49 1.7-.652 0-1.22-.305-1.62-.891-.281.825-1.04.891-1.39.891-.781 0-1.29-.446-1.58-.836v.781h-.781v-4.88h.847v2.66c0 .739.294 1.62 1.1 1.62 1.01 0 1.06-.705 1.06-1.12v-3.16h.847v2.66c0 .739.292 1.62 1.1 1.62 1.01 0 1.06-.705 1.06-1.12v-3.16h.845" style=""/><path d="m41.5 143.6c0 .368-.0109 1.18-.434 1.83-.445.674-1.11.793-1.5.793-1.2 0-2.18-1.15-2.18-2.55 0-1.43 1.04-2.57 2.34-2.57.684 0 1.3.26 1.72.564l-.064.705c-.684-.564-1.4-.608-1.65-.608-.869 0-1.56.771-1.6 1.84zm-.619.596h-2.68c.173.825.748 1.37 1.37 1.37.564 0 1.17-.369 1.31-1.37" style=""/><path d="m49.6 141.2v3.23c0 .728-.173 1.7-1.49 1.7-.652 0-1.22-.305-1.62-.891-.281.825-1.04.891-1.39.891-.781 0-1.29-.446-1.58-.836v.781h-.781v-4.88h.847v2.66c0 .739.294 1.62 1.1 1.62 1.01 0 1.06-.705 1.06-1.12v-3.16h.847v2.66c0 .739.292 1.62 1.1 1.62 1.01 0 1.06-.705 1.06-1.12v-3.16h.845" style=""/><path d="m55.6 143.6c0 1.45-1.09 2.61-2.38 2.61-1.33 0-2.39-1.19-2.39-2.61 0-1.43 1.11-2.51 2.38-2.51 1.3 0 2.39 1.1 2.39 2.51zm-.847.107c0-1.28-.738-1.92-1.54-1.92-.748 0-1.53.608-1.53 1.92 0 1.31.825 1.85 1.53 1.85.759 0 1.54-.564 1.54-1.85" style=""/><path d="m59.2 145.4v.729c-.966-.011-1.56-.544-1.9-1.04v.988h-.761v-4.88h.814v2.32c0 1.09.781 1.87 1.85 1.89" style=""/><path d="m64.2 146h-.814c-1.41-3.45-1.43-3.95-1.44-4.2h-.0109c-.0656.726-.933 2.74-.977 2.84l-.586 1.36h-.858l2.1-4.82-.391-.977c-.281-.629-.466-.629-.617-.629-.175 0-.522.044-.847.173l.0656-.704c.238-.055.542-.088.781-.088.38 0 .781.131 1.22 1.24l2.37 5.8" style=""/><path d="m67.4 143.3v.629h-2.88v-.629z" style=""/><path d="m75.8 141.2v3.23c0 .728-.173 1.7-1.49 1.7-.652 0-1.22-.305-1.62-.891-.281.825-1.04.891-1.39.891-.781 0-1.29-.446-1.58-.836v.781h-.781v-4.88h.847v2.66c0 .739.294 1.62 1.1 1.62 1.01 0 1.06-.705 1.06-1.12v-3.16h.847v2.66c0 .739.292 1.62 1.1 1.62 1.01 0 1.06-.705 1.06-1.12v-3.16h.845" style=""/><path d="m81.1 141.2v3.14c0 1.11-.792 1.87-1.79 1.87-.705 0-1.19-.174-1.7-.466l.0656-.717c.564.401 1.11.544 1.64.544.511 0 .945-.435.945-1.24v-.467c-1.63-.022-3.01-.477-3.01-1.43 0-.468.292-1.35 1.24-1.35.152 0 1.17.022 1.8.51v-.391zm-.845 1.43c0-.206 0-.478-.37-.685-.314-.195-.727-.206-.845-.206-.522 0-1.01.25-1.01.706 0 .76 1.76.835 2.22.857v-.672" style=""/><path d="m87.2 143.6c0 1.3-.683 2.52-1.72 2.52-.652 0-1.28-.229-1.78-.652v.531h-.814v-6.92h.847v2.6c.336-.314.814-.617 1.47-.617 1.05 0 2.01 1.06 2.01 2.54zm-.845 0c0-1.12-.77-1.88-1.58-1.88-.423 0-.717.217-.933.511-.109.163-.109.185-.109.38v2.18c.261.381.684.629 1.15.629.825 0 1.48-.825 1.48-1.82" style=""/><path d="m92.8 143.6c0 1.3-.683 2.52-1.72 2.52-.652 0-1.28-.229-1.78-.652v.531h-.814v-6.92h.847v2.6c.336-.314.814-.617 1.47-.617 1.05 0 2.01 1.06 2.01 2.54zm-.845 0c0-1.12-.77-1.88-1.58-1.88-.423 0-.717.217-.933.511-.109.163-.109.185-.109.38v2.18c.261.381.684.629 1.15.629.825 0 1.48-.825 1.48-1.82" style=""/><path d="m98 143.6c0 .368-.0109 1.18-.434 1.83-.445.674-1.11.793-1.5.793-1.2 0-2.18-1.15-2.18-2.55 0-1.43 1.04-2.57 2.34-2.57.684 0 1.3.26 1.72.564l-.064.705c-.684-.564-1.4-.608-1.65-.608-.869 0-1.56.771-1.6 1.84zm-.619.596h-2.68c.173.825.748 1.37 1.37 1.37.564 0 1.17-.369 1.31-1.37" style=""/><path d="m103.1 141.2v7.53h-.814v-3.19c-.575.476-1.18.597-1.58.597-1.07 0-1.92-1.13-1.92-2.53 0-1.42.836-2.53 1.87-2.53.36 0 .999.097 1.61.683v-.564zm-.846 1.51c0-.152-.011-.347-.358-.661-.25-.217-.521-.305-.803-.305-.672 0-1.46.511-1.46 1.86 0 1.43.932 1.88 1.57 1.88.487 0 .812-.25 1.05-.597v-2.17" style=""/><path d="m107.4 143.9c0 3.5-1.56 4.95-2.08 5.42h-.661c.52-.521 1.9-1.92 1.9-5.42 0-.608-.033-1.88-.476-3.16-.446-1.26-1.06-1.91-1.42-2.27h.661c.348.325 1.08.987 1.57 2.32.435 1.16.511 2.31.511 3.1" style=""/><path d="m115.4 145.4v.729c-.965-.011-1.56-.544-1.9-1.04v.988h-.761v-4.88h.814v2.32c0 1.09.781 1.87 1.84 1.89" style=""/><path d="m120.1 143.6c0 .368-.011 1.18-.434 1.83-.445.674-1.11.793-1.5.793-1.2 0-2.18-1.15-2.18-2.55 0-1.43 1.04-2.57 2.34-2.57.685 0 1.3.26 1.72.564l-.064.705c-.684-.564-1.4-.608-1.65-.608-.868 0-1.56.771-1.6 1.84zm-.619.596h-2.68c.173.825.748 1.37 1.37 1.37.564 0 1.17-.369 1.31-1.37" style=""/><path d="m125.8 145.5-.119.685c-.76 0-1.39-.207-1.72-.349-.226.186-.597.349-1.03.349-.934 0-1.72-.782-1.72-1.77 0-.402.141-.792.358-1.08-.315-.444-.315-.867-.315-.922 0-.283.098-.597.282-.825-.564-.336-.695-.834-.695-1.12 0-.814 1.08-1.47 2.4-1.47 1.33 0 2.41.641 2.41 1.48 0 1.51-1.81 1.51-2.24 1.51h-.955c-.14 0-.629 0-.629.575 0 .121.043.294.12.391.228-.162.586-.314.987-.314.977 0 1.74.803 1.74 1.77 0 .52-.239.922-.357 1.08l.042-.011c.239 0 .544.044.803.044.195 0 .641-.033.641-.033zm-1.89-1.08c0-.847-.511-1.15-.977-1.15-.401 0-.965.248-.965 1.15 0 .9.564 1.15.965 1.15.466 0 .977-.305.977-1.15zm.977-3.95c0-.478-.749-.836-1.64-.836-.879 0-1.65.337-1.65.847 0 .033 0 .737.845.737h.977c.239 0 1.47 0 1.47-.748" style=""/><path d="m127.6 141.2v4.82h-.814v-4.82zm.088 6.14v.966h-.966v-.966z" style=""/><path d="m132.4 142.6c0 .597-.401.966-.423.999-.424.379-.716.443-1.26.542-.597.118-1.1.228-1.1.759 0 .674.781.674.922.674.348 0 .923-.044 1.54-.413l.13.705c-.564.261-1.01.347-1.56.347-.271 0-1.8 0-1.8-1.42 0-.533.315-.879.586-1.09.336-.239.575-.281 1.17-.401.39-.075 1.02-.206 1.02-.781 0-.749-.858-.749-1.02-.749-.878 0-1.49.402-1.68.531l-.131-.737c.349-.174.945-.477 1.82-.477.195 0 .792 0 1.26.347.336.26.52.694.52 1.16" style=""/><path d="m136.3 141.5-.175.641c-.281-.228-.628-.358-.976-.358-.402 0-.554.325-.554.9v2.71h1.53v.628h-1.53v1.38h-.748v-1.38h-.944v-.628h.911v-2.9c0-.65.152-1.41.902-1.41.759 0 1.31.271 1.58.411" style=""/><path d="m141.2 143.6c0 .368-.011 1.18-.434 1.83-.445.674-1.11.793-1.5.793-1.2 0-2.18-1.15-2.18-2.55 0-1.43 1.04-2.57 2.34-2.57.685 0 1.3.26 1.72.564l-.064.705c-.684-.564-1.4-.608-1.65-.608-.868 0-1.56.771-1.6 1.84zm-.619.596h-2.68c.173.825.748 1.37 1.37 1.37.564 0 1.17-.369 1.31-1.37" style=""/><path d="m145 145.4v.729c-.965-.011-1.56-.544-1.9-1.04v.988h-.761v-4.88h.814v2.32c0 1.09.781 1.87 1.84 1.89" style=""/><path d="m149.1 142.6c0 .597-.401.966-.423.999-.424.379-.716.443-1.26.542-.597.118-1.1.228-1.1.759 0 .674.781.674.922.674.348 0 .923-.044 1.54-.413l.13.705c-.564.261-1.01.347-1.56.347-.271 0-1.8 0-1.8-1.42 0-.533.315-.879.586-1.09.336-.239.575-.281 1.17-.401.39-.075 1.02-.206 1.02-.781 0-.749-.858-.749-1.02-.749-.878 0-1.49.402-1.68.531l-.131-.737c.349-.174.945-.477 1.82-.477.195 0 .792 0 1.26.347.336.26.52.694.52 1.16" style=""/><path d="m157.4 141.2v3.14c0 1.11-.793 1.87-1.79 1.87-.705 0-1.19-.174-1.7-.466l.065-.717c.564.401 1.11.544 1.64.544.511 0 .945-.435.945-1.24v-.467c-1.63-.022-3.01-.477-3.01-1.43 0-.468.292-1.35 1.24-1.35.152 0 1.17.022 1.8.51v-.391zm-.846 1.43c0-.206 0-.478-.37-.685-.314-.195-.727-.206-.845-.206-.522 0-1.01.25-1.01.706 0 .76 1.76.835 2.22.857v-.672" style=""/><path d="m163 141.2v3.23c0 .717-.162 1.7-1.49 1.7-.977 0-1.51-.74-1.57-.825v.77h-.781v-4.88h.847v2.66c0 .717.272 1.62 1.1 1.62 1.04 0 1.05-.77 1.05-1.12v-3.16h.847" style=""/><path d="m168.6 141.2v7.53h-.814v-3.19c-.575.476-1.18.597-1.58.597-1.07 0-1.92-1.13-1.92-2.53 0-1.42.836-2.53 1.86-2.53.36 0 .999.097 1.61.683v-.564zm-.846 1.51c0-.152-.011-.347-.358-.661-.25-.217-.521-.305-.803-.305-.672 0-1.46.511-1.46 1.86 0 1.43.932 1.88 1.57 1.88.487 0 .812-.25 1.05-.597v-2.17" style=""/><path d="m177 148v.727c-.132.033-.468.12-.869.12-1.02 0-1.8-.77-1.8-1.86v-.977h-.803v-.628h.803v-4.19h.814v4.19h1.19v.628h-1.23v1.29c0 .804.728.879 1.01.879.217 0 .511-.022.88-.185" style=""/><path d="m181.2 141.2v4.82h-.847v-3.15c0-.812-.607-1.19-1.3-1.19-.77 0-.847.281-.847.749v3.59h-.847v-3.63c0-.781.25-1.3 1.15-1.3.575 0 1.34.174 1.88.639v-.52h.814" style=""/><path d="m186.9 141.2v3.23c0 .717-.162 1.7-1.49 1.7-.977 0-1.51-.74-1.57-.825v.77h-.781v-4.88h.847v2.66c0 .717.272 1.62 1.1 1.62 1.04 0 1.05-.77 1.05-1.12v-3.16h.847" style=""/><path d="m192.3 141.6-.065.727c-.554-.434-1.14-.586-1.69-.586-.9 0-1.51.781-1.51 1.84 0 .846.401 1.89 1.55 1.89.564 0 .933-.088 1.53-.478l.129.706c-.64.369-1.01.466-1.67.466-1.51 0-2.39-1.31-2.39-2.59 0-1.34.987-2.53 2.34-2.53.586 0 1.18.152 1.77.553" style=""/><path d="m196.3 141.5-.175.641c-.281-.228-.628-.358-.976-.358-.402 0-.554.325-.554.9v2.71h1.53v.628h-1.53v1.38h-.748v-1.38h-.944v-.628h.911v-2.9c0-.65.152-1.41.902-1.41.759 0 1.31.271 1.58.411" style=""/><path d="m198.3 141.2v4.82h-.814v-4.82zm.088 6.14v.966h-.966v-.966z" style=""/><path d="m204.3 143.6c0 1.45-1.09 2.61-2.38 2.61-1.34 0-2.39-1.19-2.39-2.61 0-1.43 1.11-2.51 2.38-2.51 1.3 0 2.39 1.1 2.39 2.51zm-.847.107c0-1.28-.737-1.92-1.54-1.92-.749 0-1.53.608-1.53 1.92 0 1.31.825 1.85 1.53 1.85.759 0 1.54-.564 1.54-1.85" style=""/><path d="m209.4 141.2v3.23c0 .717-.162 1.7-1.49 1.7-.977 0-1.51-.74-1.57-.825v.77h-.781v-4.88h.847v2.66c0 .717.272 1.62 1.1 1.62 1.04 0 1.05-.77 1.05-1.12v-3.16h.847" style=""/><path d="m214.2 142.6c0 .597-.401.966-.423.999-.424.379-.716.443-1.26.542-.597.118-1.1.228-1.1.759 0 .674.781.674.922.674.348 0 .923-.044 1.54-.413l.13.705c-.564.261-1.01.347-1.56.347-.271 0-1.8 0-1.8-1.42 0-.533.315-.879.586-1.09.336-.239.575-.281 1.17-.401.39-.075 1.02-.206 1.02-.781 0-.749-.858-.749-1.02-.749-.878 0-1.49.402-1.68.531l-.131-.737c.349-.174.945-.477 1.82-.477.195 0 .792 0 1.26.347.336.26.52.694.52 1.16" style=""/><path d="m216.5 141.2v.9h-.9v-.9z" style=""/><path d="m34.7 130.2v5h-.847v-5.01c0-1.43-.911-2.15-1.82-2.15-.891 0-1.78.684-1.78 2.15v5.01h-.966v-5c0-1.58 1.27-2.77 2.73-2.77 1.45 0 2.68 1.19 2.68 2.77" style=""/><path d="m39.8 129.1c0 .597-.402.966-.424.999-.423.379-.716.443-1.26.542-.597.118-1.1.228-1.1.759 0 .674.781.674.922.674.348 0 .923-.044 1.54-.413l.13.705c-.564.261-1.01.347-1.56.347-.272 0-1.8 0-1.8-1.42 0-.533.316-.879.586-1.09.336-.239.575-.281 1.17-.401.391-.075 1.02-.206 1.02-.781 0-.749-.858-.749-1.02-.749-.878 0-1.49.402-1.68.531l-.131-.737c.348-.174.945-.477 1.82-.477.195 0 .792 0 1.26.347.336.26.52.694.52 1.16" style=""/><path d="m44.7 127.7v4.82h-.847v-3.15c0-.812-.608-1.19-1.3-1.19-.77 0-.847.281-.847.749v3.59h-.847v-3.63c0-.781.25-1.3 1.15-1.3.575 0 1.35.174 1.88.639v-.52h.814" style=""/><path d="m50.1 127.7v3.14c0 1.11-.792 1.87-1.79 1.87-.705 0-1.19-.174-1.7-.466l.0656-.717c.564.401 1.11.544 1.64.544.511 0 .945-.435.945-1.24v-.467c-1.63-.022-3.01-.477-3.01-1.43 0-.468.292-1.35 1.24-1.35.152 0 1.17.022 1.8.51v-.391zm-.845 1.43c0-.206 0-.478-.37-.685-.314-.195-.727-.206-.845-.206-.522 0-1.01.25-1.01.706 0 .76 1.76.835 2.22.857v-.672" style=""/><path d="m52.6 127.7v7.53h-.814v-7.53z" style=""/><path d="m55.2 127.7v7.53h-.814v-7.53z" style=""/><path d="m60.9 132.5h-.814c-1.41-3.45-1.43-3.95-1.44-4.2h-.0109c-.0656.726-.933 2.74-.977 2.84l-.586 1.36h-.858l2.1-4.82-.391-.977c-.281-.629-.466-.629-.617-.629-.175 0-.522.044-.847.173l.0656-.704c.238-.055.542-.088.781-.088.38 0 .781.131 1.22 1.24l2.37 5.8" style=""/><path d="m71.2 128.2-.0641.75c-.316-.218-.63-.424-.998-.533-.347-.119-.727-.13-1.1-.13-.705 0-1.35.38-1.79.933-.5.64-.739 1.44-.739 2.26s.239 1.63.739 2.27c.444.553 1.08.933 1.79.933.326 0 .662-.033.976-.13.327-.098.63-.261.912-.456l.152.89c-.325.13-.662.239-1.01.303-.336.066-.683.088-1.03.088-.955 0-1.83-.434-2.47-1.14-.672-.761-1.02-1.75-1.02-2.76s.348-2 1.02-2.75c.641-.706 1.52-1.14 2.47-1.14.38 0 .761.011 1.13.119.369.097.705.292 1.03.488" style=""/><path d="m76.6 135.6c0 .121-.0969.218-.217.218-.152 0-.195-.108-.227-.218l-3.7-10.2c-.0547-.141-.0547-.195-.0547-.195 0-.121.0969-.217.217-.217.152 0 .195.107.228.217l3.7 10.2c.0532.142.0532.195.0532.195" style=""/><path d="m83.6 128.2-.0641.75c-.316-.218-.63-.424-.998-.533-.347-.119-.727-.13-1.1-.13-.705 0-1.35.38-1.79.933-.5.64-.739 1.44-.739 2.26s.239 1.63.739 2.27c.444.553 1.08.933 1.79.933.326 0 .662-.033.976-.13.327-.098.63-.261.912-.456l.152.89c-.325.13-.662.239-1.01.303-.336.066-.683.088-1.03.088-.955 0-1.83-.434-2.47-1.14-.672-.761-1.02-1.75-1.02-2.76s.348-2 1.02-2.75c.641-.706 1.52-1.14 2.47-1.14.38 0 .761.011 1.13.119.369.097.705.292 1.03.488" style=""/><path d="m92 130.4c0 .217-.206.217-.358.217h-3.03v3.04c0 .153 0 .36-.217.36s-.217-.207-.217-.36v-3.04h-3.04c-.152 0-.358 0-.358-.217 0-.218.206-.218.358-.218h3.04v-3.04c0-.152 0-.358.217-.358s.217.206.217.358v3.04h3.03c.152 0 .358 0 .358.218" style=""/><path d="m100.5 130.4c0 .217-.206.217-.357.217h-3.03v3.04c0 .153 0 .36-.217.36s-.217-.207-.217-.36v-3.04h-3.04c-.152 0-.358 0-.358-.217 0-.218.206-.218.358-.218h3.04v-3.04c0-.152 0-.358.217-.358s.217.206.217.358v3.04h3.03c.151 0 .357 0 .357.218" style=""/><path d="m103.2 127.7v.9h-.9v-.9z" style=""/><path d="m36.7 114.1v7.53h-1.24l-1.41-3.68c-.381-.988-.891-2.33-1.01-2.84h-.0109c-.0547.229-.184.63-.347 1.08l-1.7 4.49-.369.944h-1.23v-7.53h.847v6.73h.0109c.0656-.348.498-1.53.781-2.27l1.61-4.22h.792l1.44 3.78.522 1.38c.108.316.402 1.1.455 1.35l.011-.01v-6.73h.847" style=""/><path d="m42.3 114.1v3.14c0 1.11-.792 1.87-1.79 1.87-.705 0-1.19-.174-1.7-.466l.0656-.717c.564.401 1.11.544 1.64.544.511 0 .945-.435.945-1.24v-.467c-1.63-.022-3.01-.477-3.01-1.43 0-.468.292-1.35 1.24-1.35.152 0 1.17.022 1.8.51v-.391zm-.845 1.43c0-.206 0-.478-.37-.685-.314-.195-.727-.206-.845-.206-.522 0-1.01.25-1.01.706 0 .76 1.76.835 2.22.857v-.672" style=""/><path d="m47.8 114.1v3.23c0 .717-.162 1.7-1.49 1.7-.976 0-1.51-.74-1.57-.825v.77h-.781v-4.88h.847v2.66c0 .717.272 1.62 1.1 1.62 1.04 0 1.05-.77 1.05-1.12v-3.16h.847" style=""/><path d="m53.5 114.1v4.82h-.847v-3.15c0-.812-.608-1.19-1.3-1.19-.77 0-.847.281-.847.749v3.59h-.847v-3.63c0-.781.25-1.3 1.15-1.3.575 0 1.35.174 1.88.639v-.52h.814" style=""/><path d="m58.2 120.9v.727c-.131.033-.467.12-.869.12-1.02 0-1.8-.77-1.8-1.86v-.977h-.803v-.628h.803v-4.19h.814v4.19h1.19v.628h-1.23v1.29c0 .804.728.879 1.01.879.217 0 .511-.022.88-.185" style=""/><path d="m62.2 114.1v3.14c0 1.11-.792 1.87-1.79 1.87-.705 0-1.19-.174-1.7-.466l.0656-.717c.564.401 1.11.544 1.64.544.511 0 .945-.435.945-1.24v-.467c-1.63-.022-3.01-.477-3.01-1.43 0-.468.292-1.35 1.24-1.35.152 0 1.17.022 1.8.51v-.391zm-.845 1.43c0-.206 0-.478-.37-.685-.314-.195-.727-.206-.845-.206-.522 0-1.01.25-1.01.706 0 .76 1.76.835 2.22.857v-.672" style=""/><path d="m67.5 114.5-.0656.727c-.553-.434-1.14-.586-1.69-.586-.9 0-1.51.781-1.51 1.84 0 .846.402 1.89 1.55 1.89.564 0 .933-.088 1.53-.478l.13.706c-.641.369-1.01.466-1.67.466-1.51 0-2.39-1.31-2.39-2.59 0-1.34.988-2.53 2.34-2.53.586 0 1.18.152 1.77.553" style=""/><path d="m71.4 114.4-.175.641c-.281-.228-.628-.358-.976-.358-.402 0-.553.325-.553.9v2.71h1.53v.628h-1.53v1.38h-.748v-1.38h-.944v-.628h.911v-2.9c0-.65.152-1.41.902-1.41.759 0 1.31.271 1.58.411" style=""/><path d="m76.5 114.1v4.82h-.847v-3.15c0-.812-.608-1.19-1.3-1.19-.77 0-.847.281-.847.749v3.59h-.847v-3.63c0-.781.25-1.3 1.15-1.3.575 0 1.35.174 1.88.639v-.52h.814" style=""/><path d="m80.9 118.3v.729c-.966-.011-1.56-.544-1.9-1.04v.988h-.761v-4.88h.814v2.32c0 1.09.781 1.87 1.85 1.89" style=""/><path d="m85.7 116.5c0 .368-.0109 1.18-.434 1.83-.445.674-1.11.793-1.5.793-1.2 0-2.18-1.15-2.18-2.55 0-1.43 1.04-2.57 2.34-2.57.684 0 1.3.26 1.72.564l-.064.705c-.684-.564-1.4-.608-1.65-.608-.869 0-1.56.771-1.6 1.84zm-.619.596h-2.68c.173.825.748 1.37 1.37 1.37.564 0 1.17-.369 1.31-1.37" style=""/><path d="m89.5 118.3v.729c-.966-.011-1.56-.544-1.9-1.04v.988h-.761v-4.88h.814v2.32c0 1.09.781 1.87 1.85 1.89" style=""/><path d="m93.6 115.5c0 .597-.402.966-.424.999-.423.379-.716.443-1.26.542-.597.118-1.1.228-1.1.759 0 .674.781.674.922.674.348 0 .923-.044 1.54-.413l.13.705c-.564.261-1.01.347-1.56.347-.272 0-1.8 0-1.8-1.42 0-.533.316-.879.586-1.09.336-.239.575-.281 1.17-.401.391-.075 1.02-.206 1.02-.781 0-.749-.858-.749-1.02-.749-.878 0-1.49.402-1.68.531l-.131-.737c.348-.174.945-.477 1.82-.477.195 0 .792 0 1.26.347.336.26.52.694.52 1.16" style=""/><path d="m101.9 114.1v3.14c0 1.11-.793 1.87-1.79 1.87-.705 0-1.19-.174-1.7-.466l.0656-.717c.564.401 1.11.544 1.64.544.511 0 .945-.435.945-1.24v-.467c-1.63-.022-3.01-.477-3.01-1.43 0-.468.292-1.35 1.24-1.35.152 0 1.17.022 1.8.51v-.391zm-.846 1.43c0-.206 0-.478-.37-.685-.314-.195-.727-.206-.845-.206-.522 0-1.01.25-1.01.706 0 .76 1.76.835 2.22.857v-.672" style=""/><path d="m104.5 114.1v7.53h-.814v-7.53z" style=""/><path d="m109.3 115.5c0 .597-.401.966-.423.999-.424.379-.716.443-1.26.542-.597.118-1.1.228-1.1.759 0 .674.781.674.922.674.348 0 .923-.044 1.54-.413l.13.705c-.564.261-1.01.347-1.56.347-.271 0-1.8 0-1.8-1.42 0-.533.315-.879.586-1.09.336-.239.575-.281 1.17-.401.39-.075 1.02-.206 1.02-.781 0-.749-.858-.749-1.02-.749-.878 0-1.49.402-1.68.531l-.131-.737c.349-.174.945-.477 1.82-.477.195 0 .792 0 1.26.347.336.26.52.694.52 1.16" style=""/><path d="m114.7 116.5c0 1.45-1.09 2.61-2.38 2.61-1.34 0-2.39-1.19-2.39-2.61 0-1.43 1.11-2.51 2.38-2.51 1.3 0 2.39 1.1 2.39 2.51zm-.847.107c0-1.28-.737-1.92-1.54-1.92-.749 0-1.53.608-1.53 1.92 0 1.31.825 1.85 1.53 1.85.759 0 1.54-.564 1.54-1.85" style=""/><path d="m122.3 114.4-.175.641c-.281-.228-.628-.358-.976-.358-.402 0-.554.325-.554.9v2.71h1.53v.628h-1.53v1.38h-.748v-1.38h-.944v-.628h.911v-2.9c0-.65.152-1.41.902-1.41.759 0 1.31.271 1.58.411" style=""/><path d="m127.1 116.5c0 .368-.011 1.18-.434 1.83-.445.674-1.11.793-1.5.793-1.2 0-2.18-1.15-2.18-2.55 0-1.43 1.04-2.57 2.34-2.57.685 0 1.3.26 1.72.564l-.064.705c-.684-.564-1.4-.608-1.65-.608-.868 0-1.56.771-1.6 1.84zm-.619.596h-2.68c.173.825.748 1.37 1.37 1.37.564 0 1.17-.369 1.31-1.37" style=""/><path d="m132.1 114.1v3.23c0 .717-.162 1.7-1.49 1.7-.977 0-1.51-.74-1.57-.825v.77h-.781v-4.88h.847v2.66c0 .717.272 1.62 1.1 1.62 1.04 0 1.05-.77 1.05-1.12v-3.16h.847" style=""/><path d="m137.8 114.1v7.53h-.814v-3.19c-.575.476-1.18.597-1.58.597-1.07 0-1.92-1.13-1.92-2.53 0-1.42.836-2.53 1.86-2.53.36 0 .999.097 1.61.683v-.564zm-.846 1.51c0-.152-.011-.347-.358-.661-.25-.217-.521-.305-.803-.305-.672 0-1.46.511-1.46 1.86 0 1.43.932 1.88 1.57 1.88.487 0 .812-.25 1.05-.597v-2.17" style=""/><path d="m146 114.4-.175.641c-.281-.228-.628-.358-.976-.358-.402 0-.554.325-.554.9v2.71h1.53v.628h-1.53v1.38h-.748v-1.38h-.944v-.628h.911v-2.9c0-.65.152-1.41.902-1.41.759 0 1.31.271 1.58.411" style=""/><path d="m151.4 116.5c0 1.45-1.09 2.61-2.38 2.61-1.34 0-2.39-1.19-2.39-2.61 0-1.43 1.11-2.51 2.38-2.51 1.3 0 2.39 1.1 2.39 2.51zm-.847.107c0-1.28-.737-1.92-1.54-1.92-.749 0-1.53.608-1.53 1.92 0 1.31.825 1.85 1.53 1.85.759 0 1.54-.564 1.54-1.85" style=""/><path d="m160.6 116.5c0 1.3-.683 2.52-1.72 2.52-.652 0-1.28-.229-1.78-.652v.531h-.814v-6.92h.847v2.6c.336-.314.814-.617 1.47-.617 1.05 0 2.01 1.06 2.01 2.54zm-.845 0c0-1.12-.771-1.88-1.58-1.88-.423 0-.717.217-.933.511-.109.163-.109.185-.109.38v2.18c.261.381.684.629 1.15.629.825 0 1.48-.825 1.48-1.82" style=""/><path d="m164.2 118.3v.729c-.965-.011-1.56-.544-1.9-1.04v.988h-.761v-4.88h.814v2.32c0 1.09.781 1.87 1.84 1.89" style=""/><path d="m169.5 116.5c0 1.45-1.09 2.61-2.38 2.61-1.34 0-2.39-1.19-2.39-2.61 0-1.43 1.11-2.51 2.38-2.51 1.3 0 2.39 1.1 2.39 2.51zm-.847.107c0-1.28-.737-1.92-1.54-1.92-.749 0-1.53.608-1.53 1.92 0 1.31.825 1.85 1.53 1.85.759 0 1.54-.564 1.54-1.85" style=""/><path d="m174.7 118.9h-.814l-.856-2.26c-.228-.597-.564-1.48-.652-1.99h-.011c-.065.391-.347 1.14-.456 1.43l-1.05 2.81h-.846l1.87-4.82h.954l1.87 4.82" style=""/><path d="m176.6 114.1v4.82h-.814v-4.82zm.088 6.14v.966h-.966v-.966z" style=""/><path d="m182.2 114.1v7.53h-.814v-3.19c-.575.476-1.18.597-1.58.597-1.07 0-1.92-1.13-1.92-2.53 0-1.42.836-2.53 1.86-2.53.36 0 .999.097 1.61.683v-.564zm-.846 1.51c0-.152-.011-.347-.358-.661-.25-.217-.521-.305-.803-.305-.672 0-1.46.511-1.46 1.86 0 1.43.932 1.88 1.57 1.88.487 0 .812-.25 1.05-.597v-2.17" style=""/><path d="m187.7 116.5c0 .368-.011 1.18-.434 1.83-.445.674-1.11.793-1.5.793-1.2 0-2.18-1.15-2.18-2.55 0-1.43 1.04-2.57 2.34-2.57.685 0 1.3.26 1.72.564l-.064.705c-.684-.564-1.4-.608-1.65-.608-.868 0-1.56.771-1.6 1.84zm-.619.596h-2.68c.173.825.748 1.37 1.37 1.37.564 0 1.17-.369 1.31-1.37" style=""/><path d="m196.4 114.1v7.53h-.814v-3.19c-.575.476-1.18.597-1.58.597-1.07 0-1.92-1.13-1.92-2.53 0-1.42.836-2.53 1.86-2.53.36 0 .999.097 1.61.683v-.564zm-.846 1.51c0-.152-.011-.347-.358-.661-.25-.217-.521-.305-.803-.305-.672 0-1.46.511-1.46 1.86 0 1.43.932 1.88 1.57 1.88.487 0 .812-.25 1.05-.597v-2.17" style=""/><path d="m201.8 116.5c0 .368-.011 1.18-.434 1.83-.445.674-1.11.793-1.5.793-1.2 0-2.18-1.15-2.18-2.55 0-1.43 1.04-2.57 2.34-2.57.685 0 1.3.26 1.72.564l-.064.705c-.684-.564-1.4-.608-1.65-.608-.868 0-1.56.771-1.6 1.84zm-.619.596h-2.68c.173.825.748 1.37 1.37 1.37.564 0 1.17-.369 1.31-1.37" style=""/><path d="m206 115.5c0 .597-.401.966-.423.999-.424.379-.716.443-1.26.542-.597.118-1.1.228-1.1.759 0 .674.781.674.922.674.348 0 .923-.044 1.54-.413l.13.705c-.564.261-1.01.347-1.56.347-.271 0-1.8 0-1.8-1.42 0-.533.315-.879.586-1.09.336-.239.575-.281 1.17-.401.39-.075 1.02-.206 1.02-.781 0-.749-.858-.749-1.02-.749-.878 0-1.49.402-1.68.531l-.131-.737c.349-.174.945-.477 1.82-.477.195 0 .792 0 1.26.347.336.26.52.694.52 1.16" style=""/><path d="m210.8 114.5-.065.727c-.554-.434-1.14-.586-1.69-.586-.9 0-1.51.781-1.51 1.84 0 .846.401 1.89 1.55 1.89.564 0 .933-.088 1.53-.478l.129.706c-.64.369-1.01.466-1.67.466-1.51 0-2.39-1.31-2.39-2.59 0-1.34.987-2.53 2.34-2.53.586 0 1.18.152 1.77.553" style=""/><path d="m214.7 118.3v.729c-.965-.011-1.56-.544-1.9-1.04v.988h-.761v-4.88h.814v2.32c0 1.09.781 1.87 1.84 1.89" style=""/><path d="m216.6 114.1v4.82h-.814v-4.82zm.088 6.14v.966h-.966v-.966z" style=""/><path d="m222.7 116.5c0 1.3-.683 2.52-1.72 2.52-.652 0-1.28-.229-1.78-.652v.531h-.814v-6.92h.847v2.6c.336-.314.814-.617 1.47-.617 1.05 0 2.01 1.06 2.01 2.54zm-.845 0c0-1.12-.771-1.88-1.58-1.88-.423 0-.717.217-.933.511-.109.163-.109.185-.109.38v2.18c.261.381.684.629 1.15.629.825 0 1.48-.825 1.48-1.82" style=""/><path d="m226.7 114.4-.175.641c-.281-.228-.628-.358-.976-.358-.402 0-.554.325-.554.9v2.71h1.53v.628h-1.53v1.38h-.748v-1.38h-.944v-.628h.911v-2.9c0-.65.152-1.41.902-1.41.759 0 1.31.271 1.58.411" style=""/><path d="m228.8 114.1v4.82h-.814v-4.82zm.088 6.14v.966h-.966v-.966z" style=""/><path d="m234.8 116.5c0 1.45-1.09 2.61-2.38 2.61-1.34 0-2.39-1.19-2.39-2.61 0-1.43 1.11-2.51 2.38-2.51 1.3 0 2.39 1.1 2.39 2.51zm-.847.107c0-1.28-.737-1.92-1.54-1.92-.749 0-1.53.608-1.53 1.92 0 1.31.825 1.85 1.53 1.85.759 0 1.54-.564 1.54-1.85" style=""/><path d="m239.8 114.1v3.23c0 .717-.162 1.7-1.49 1.7-.977 0-1.51-.74-1.57-.825v.77h-.781v-4.88h.847v2.66c0 .717.272 1.62 1.1 1.62 1.04 0 1.05-.77 1.05-1.12v-3.16h.847" style=""/><path d="m244.7 115.5c0 .597-.401.966-.423.999-.424.379-.716.443-1.26.542-.597.118-1.1.228-1.1.759 0 .674.781.674.922.674.348 0 .923-.044 1.54-.413l.13.705c-.564.261-1.01.347-1.56.347-.271 0-1.8 0-1.8-1.42 0-.533.315-.879.586-1.09.336-.239.575-.281 1.17-.401.39-.075 1.02-.206 1.02-.781 0-.749-.858-.749-1.02-.749-.878 0-1.49.402-1.68.531l-.131-.737c.349-.174.945-.477 1.82-.477.195 0 .792 0 1.26.347.336.26.52.694.52 1.16" style=""/><path d="m250.3 114.1v4.82h-.814v-4.82zm.088 6.14v.966h-.966v-.966z" style=""/><path d="m255.9 114.1v3.23c0 .717-.162 1.7-1.49 1.7-.977 0-1.51-.74-1.57-.825v.77h-.781v-4.88h.847v2.66c0 .717.272 1.62 1.1 1.62 1.04 0 1.05-.77 1.05-1.12v-3.16h.847" style=""/><path d="m268.2 114.1v3.23c0 .728-.173 1.7-1.49 1.7-.652 0-1.22-.305-1.62-.891-.281.825-1.04.891-1.39.891-.781 0-1.29-.446-1.58-.836v.781h-.781v-4.88h.847v2.66c0 .739.294 1.62 1.1 1.62 1.01 0 1.06-.705 1.06-1.12v-3.16h.847v2.66c0 .739.292 1.62 1.1 1.62 1.01 0 1.06-.705 1.06-1.12v-3.16h.845" style=""/><path d="m273.5 114.1v3.14c0 1.11-.793 1.87-1.79 1.87-.705 0-1.19-.174-1.7-.466l.065-.717c.564.401 1.11.544 1.64.544.511 0 .945-.435.945-1.24v-.467c-1.63-.022-3.01-.477-3.01-1.43 0-.468.292-1.35 1.24-1.35.152 0 1.17.022 1.8.51v-.391zm-.846 1.43c0-.206 0-.478-.37-.685-.314-.195-.727-.206-.845-.206-.522 0-1.01.25-1.01.706 0 .76 1.76.835 2.22.857v-.672" style=""/><path d="m278.9 114.5-.065.727c-.554-.434-1.14-.586-1.69-.586-.9 0-1.51.781-1.51 1.84 0 .846.401 1.89 1.55 1.89.564 0 .933-.088 1.53-.478l.129.706c-.64.369-1.01.466-1.67.466-1.51 0-2.39-1.31-2.39-2.59 0-1.34.987-2.53 2.34-2.53.586 0 1.18.152 1.77.553" style=""/><path d="m283.9 114.1v3.23c0 .717-.162 1.7-1.49 1.7-.672 0-1.19-.338-1.54-.782v3.37h-.814v-7.53h.847v2.66c0 .717.272 1.62 1.1 1.62 1.04 0 1.05-.77 1.05-1.12v-3.16h.847" style=""/><path d="m286.6 114.1v4.82h-.814v-4.82zm.088 6.14v.966h-.966v-.966z" style=""/><path d="m292.2 114.1v3.23c0 .717-.162 1.7-1.49 1.7-.977 0-1.51-.74-1.57-.825v.77h-.781v-4.88h.847v2.66c0 .717.272 1.62 1.1 1.62 1.04 0 1.05-.77 1.05-1.12v-3.16h.847" style=""/><path d="m297.6 116.5c0 .368-.011 1.18-.434 1.83-.445.674-1.11.793-1.5.793-1.2 0-2.18-1.15-2.18-2.55 0-1.43 1.04-2.57 2.34-2.57.685 0 1.3.26 1.72.564l-.064.705c-.684-.564-1.4-.608-1.65-.608-.868 0-1.56.771-1.6 1.84zm-.619.596h-2.68c.173.825.748 1.37 1.37 1.37.564 0 1.17-.369 1.31-1.37" style=""/><path d="m305.1 118.3v.729c-.965-.011-1.56-.544-1.9-1.04v.988h-.761v-4.88h.814v2.32c0 1.09.781 1.87 1.84 1.89" style=""/><path d="m309.8 116.5c0 .368-.011 1.18-.434 1.83-.445.674-1.11.793-1.5.793-1.2 0-2.18-1.15-2.18-2.55 0-1.43 1.04-2.57 2.34-2.57.685 0 1.3.26 1.72.564l-.064.705c-.684-.564-1.4-.608-1.65-.608-.868 0-1.56.771-1.6 1.84zm-.619.596h-2.68c.173.825.748 1.37 1.37 1.37.564 0 1.17-.369 1.31-1.37" style=""/><path d="m314.6 114.1v3.14c0 1.11-.793 1.87-1.79 1.87-.705 0-1.19-.174-1.7-.466l.065-.717c.564.401 1.11.544 1.64.544.511 0 .945-.435.945-1.24v-.467c-1.63-.022-3.01-.477-3.01-1.43 0-.468.292-1.35 1.24-1.35.152 0 1.17.022 1.8.51v-.391zm-.846 1.43c0-.206 0-.478-.37-.685-.314-.195-.727-.206-.845-.206-.522 0-1.01.25-1.01.706 0 .76 1.76.835 2.22.857v-.672" style=""/><path d="m320.1 114.1v7.53h-.814v-3.19c-.575.476-1.18.597-1.58.597-1.07 0-1.92-1.13-1.92-2.53 0-1.42.836-2.53 1.86-2.53.36 0 .999.097 1.61.683v-.564zm-.846 1.51c0-.152-.011-.347-.358-.661-.25-.217-.521-.305-.803-.305-.672 0-1.46.511-1.46 1.86 0 1.43.932 1.88 1.57 1.88.487 0 .812-.25 1.05-.597v-2.17" style=""/><path d="m325.4 114.1v3.14c0 1.11-.793 1.87-1.79 1.87-.705 0-1.19-.174-1.7-.466l.065-.717c.564.401 1.11.544 1.64.544.511 0 .945-.435.945-1.24v-.467c-1.63-.022-3.01-.477-3.01-1.43 0-.468.292-1.35 1.24-1.35.152 0 1.17.022 1.8.51v-.391zm-.846 1.43c0-.206 0-.478-.37-.685-.314-.195-.727-.206-.845-.206-.522 0-1.01.25-1.01.706 0 .76 1.76.835 2.22.857v-.672" style=""/><path d="m331.5 116.5c0 1.35-.738 2.52-1.76 2.52-.423 0-1.1-.11-1.75-.641v3.23h-.814v-7.53h.847v.498c.261-.237.727-.617 1.46-.617 1.08 0 2.02 1.08 2.02 2.54zm-.845 0c0-1.41-.913-1.88-1.57-1.88-.423 0-.781.196-1.05.696v2.4c.173.261.564.641 1.16.641.641 0 1.47-.467 1.47-1.86" style=""/><path d="m333.6 114.1v7.53h-.814v-7.53z" style=""/><path d="m339 116.5c0 .368-.011 1.18-.434 1.83-.445.674-1.11.793-1.5.793-1.2 0-2.18-1.15-2.18-2.55 0-1.43 1.04-2.57 2.34-2.57.685 0 1.3.26 1.72.564l-.064.705c-.684-.564-1.4-.608-1.65-.608-.868 0-1.56.771-1.6 1.84zm-.619.596h-2.68c.173.825.748 1.37 1.37 1.37.564 0 1.17-.369 1.31-1.37" style=""/><path d="m346.6 111.4c-.522.52-1.9 1.92-1.9 5.42 0 .607.033 1.88.478 3.16.446 1.26 1.06 1.91 1.42 2.27h-.662c-.347-.325-1.08-.988-1.57-2.32-.434-1.16-.509-2.31-.509-3.1 0-3.5 1.56-4.95 2.08-5.42h.662" style=""/><path d="m351.8 116.5c0 .368-.011 1.18-.434 1.83-.445.674-1.11.793-1.5.793-1.2 0-2.18-1.15-2.18-2.55 0-1.43 1.04-2.57 2.34-2.57.685 0 1.3.26 1.72.564l-.064.705c-.684-.564-1.4-.608-1.65-.608-.868 0-1.56.771-1.6 1.84zm-.619.596h-2.68c.173.825.748 1.37 1.37 1.37.564 0 1.17-.369 1.31-1.37" style=""/><path d="m354.1 114.1v.9h-.9v-.9z" style=""/><path d="m360.4 118.4-.119.685c-.76 0-1.39-.207-1.72-.349-.226.186-.597.349-1.03.349-.934 0-1.72-.782-1.72-1.77 0-.402.141-.792.358-1.08-.315-.444-.315-.867-.315-.922 0-.283.098-.597.282-.825-.564-.336-.695-.834-.695-1.12 0-.814 1.08-1.47 2.4-1.47 1.33 0 2.41.641 2.41 1.48 0 1.51-1.81 1.51-2.24 1.51h-.955c-.14 0-.629 0-.629.575 0 .121.043.294.12.391.228-.162.586-.314.987-.314.977 0 1.74.803 1.74 1.77 0 .52-.239.922-.357 1.08l.042-.011c.239 0 .544.044.803.044.195 0 .641-.033.641-.033zm-1.89-1.08c0-.847-.511-1.15-.977-1.15-.401 0-.965.248-.965 1.15 0 .9.564 1.15.965 1.15.466 0 .977-.305.977-1.15zm.977-3.95c0-.478-.749-.836-1.64-.836-.879 0-1.65.337-1.65.847 0 .033 0 .737.845.737h.977c.239 0 1.47 0 1.47-.748" style=""/><path d="m362.6 114.1v.9h-.9v-.9z" style=""/><path d="m375.6 114.1-3.07 3.97 2.62 3.56h-1.04l-2.04-2.83-2.1 2.83h-1.13l2.77-3.56-2.92-3.97h1.04l2.34 3.32 2.41-3.32h1.13" style=""/><path d="m384.1 114.1v7.53h-1.24l-1.41-3.68c-.382-.988-.891-2.33-1.01-2.84h-.011c-.054.229-.184.63-.347 1.08l-1.7 4.49-.369.944h-1.23v-7.53h.847v6.73h.011c.066-.348.499-1.53.781-2.27l1.61-4.22h.792l1.44 3.78.522 1.38c.108.316.402 1.1.455 1.35l.011-.01v-6.73h.846" style=""/><path d="m390.7 114.1v.716l-2.9-.022h-.531v6.84h-.966v-7.53h4.39" style=""/><path d="m394.2 116.2v.629h-2.88v-.629z" style=""/><path d="m400 116.5c0 1.35-.738 2.52-1.76 2.52-.423 0-1.1-.11-1.75-.641v3.23h-.814v-7.53h.847v.498c.261-.237.727-.617 1.46-.617 1.08 0 2.02 1.08 2.02 2.54zm-.845 0c0-1.41-.913-1.88-1.57-1.88-.423 0-.781.196-1.05.696v2.4c.173.261.564.641 1.16.641.641 0 1.47-.467 1.47-1.86" style=""/><path d="m404.9 114.1v3.14c0 1.11-.793 1.87-1.79 1.87-.705 0-1.19-.174-1.7-.466l.065-.717c.564.401 1.11.544 1.64.544.511 0 .945-.435.945-1.24v-.467c-1.63-.022-3.01-.477-3.01-1.43 0-.468.292-1.35 1.24-1.35.152 0 1.17.022 1.8.51v-.391zm-.846 1.43c0-.206 0-.478-.37-.685-.314-.195-.727-.206-.845-.206-.522 0-1.01.25-1.01.706 0 .76 1.76.835 2.22.857v-.672" style=""/><path d="m409.6 115.5c0 .597-.401.966-.423.999-.424.379-.716.443-1.26.542-.597.118-1.1.228-1.1.759 0 .674.781.674.922.674.348 0 .923-.044 1.54-.413l.13.705c-.564.261-1.01.347-1.56.347-.271 0-1.8 0-1.8-1.42 0-.533.315-.879.586-1.09.336-.239.575-.281 1.17-.401.39-.075 1.02-.206 1.02-.781 0-.749-.858-.749-1.02-.749-.878 0-1.49.402-1.68.531l-.131-.737c.349-.174.945-.477 1.82-.477.195 0 .792 0 1.26.347.336.26.52.694.52 1.16" style=""/><path d="m414.4 116.5c0 .368-.011 1.18-.434 1.83-.445.674-1.11.793-1.5.793-1.2 0-2.18-1.15-2.18-2.55 0-1.43 1.04-2.57 2.34-2.57.685 0 1.3.26 1.72.564l-.064.705c-.684-.564-1.4-.608-1.65-.608-.868 0-1.56.771-1.6 1.84zm-.619.596h-2.68c.173.825.748 1.37 1.37 1.37.564 0 1.17-.369 1.31-1.37" style=""/><path d="m419.4 114.1v7.53h-.814v-3.19c-.575.476-1.18.597-1.58.597-1.07 0-1.92-1.13-1.92-2.53 0-1.42.836-2.53 1.86-2.53.36 0 .999.097 1.61.683v-.564zm-.846 1.51c0-.152-.011-.347-.358-.661-.25-.217-.521-.305-.803-.305-.672 0-1.46.511-1.46 1.86 0 1.43.932 1.88 1.57 1.88.487 0 .812-.25 1.05-.597v-2.17" style=""/><path d="m423.8 116.8c0 3.5-1.56 4.95-2.08 5.42h-.661c.52-.521 1.9-1.92 1.9-5.42 0-.608-.033-1.88-.476-3.16-.446-1.26-1.06-1.91-1.42-2.27h.661c.348.325 1.08.987 1.57 2.32.435 1.16.511 2.31.511 3.1" style=""/><path d="m32.1 107.4v.727c-.131.033-.467.12-.869.12-1.02 0-1.8-.77-1.8-1.86v-.977h-.803v-.628h.803v-4.19h.814v4.19h1.19v.628h-1.23v1.29c0 .804.728.879 1.01.879.217 0 .511-.022.88-.185" style=""/><path d="m36.8 103c0 1.45-1.09 2.61-2.38 2.61-1.33 0-2.39-1.19-2.39-2.61 0-1.43 1.11-2.51 2.38-2.51 1.3 0 2.39 1.1 2.39 2.51zm-.847.107c0-1.28-.738-1.92-1.54-1.92-.748 0-1.53.608-1.53 1.92 0 1.31.825 1.85 1.53 1.85.759 0 1.54-.564 1.54-1.85" style=""/><path d="m40.3 104.8v.729c-.966-.011-1.56-.544-1.9-1.04v.988h-.761v-4.88h.814v2.32c0 1.09.781 1.87 1.85 1.89" style=""/><path d="m48.3 100.6v3.23c0 .728-.173 1.7-1.49 1.7-.652 0-1.22-.305-1.62-.891-.281.825-1.04.891-1.39.891-.781 0-1.29-.446-1.58-.836v.781h-.781v-4.88h.847v2.66c0 .739.294 1.62 1.1 1.62 1.01 0 1.06-.705 1.06-1.12v-3.16h.847v2.66c0 .739.292 1.62 1.1 1.62 1.01 0 1.06-.705 1.06-1.12v-3.16h.845" style=""/><path d="m53.6 100.6v3.14c0 1.11-.792 1.87-1.79 1.87-.705 0-1.19-.174-1.7-.466l.0656-.717c.564.401 1.11.544 1.64.544.511 0 .945-.435.945-1.24v-.467c-1.63-.022-3.01-.477-3.01-1.43 0-.468.292-1.35 1.24-1.35.152 0 1.17.022 1.8.51v-.391zm-.845 1.43c0-.206 0-.478-.37-.685-.314-.195-.727-.206-.845-.206-.522 0-1.01.25-1.01.706 0 .76 1.76.835 2.22.857v-.672" style=""/><path d="m58.1 100.9-.175.641c-.281-.228-.628-.358-.976-.358-.402 0-.553.325-.553.9v2.71h1.53v.628h-1.53v1.38h-.748v-1.38h-.944v-.628h.911v-2.9c0-.65.152-1.41.902-1.41.759 0 1.31.271 1.58.411" style=""/><path d="m62.3 102c0 .597-.402.966-.424.999-.423.379-.716.443-1.26.542-.597.118-1.1.228-1.1.759 0 .674.781.674.922.674.348 0 .923-.044 1.54-.413l.13.705c-.564.261-1.01.347-1.56.347-.272 0-1.8 0-1.8-1.42 0-.533.316-.879.586-1.09.336-.239.575-.281 1.17-.401.391-.075 1.02-.206 1.02-.781 0-.749-.858-.749-1.02-.749-.878 0-1.49.402-1.68.531l-.131-.737c.348-.174.945-.477 1.82-.477.195 0 .792 0 1.26.347.336.26.52.694.52 1.16" style=""/><path d="m64.6 100.6v.9h-.9v-.9z" style=""/></g><g style="fill:#fa6c00"><path d="m32.2 88.4c0 .597-.402.966-.424.998-.423.38-.716.444-1.26.542-.597.119-1.1.228-1.1.759 0 .673.781.673.922.673.348 0 .923-.0437 1.54-.412l.13.705c-.564.261-1.01.347-1.56.347-.272 0-1.8 0-1.8-1.42 0-.533.316-.88.586-1.09.336-.239.575-.281 1.17-.402.391-.075 1.02-.206 1.02-.781 0-.748-.858-.748-1.02-.748-.878 0-1.49.402-1.68.531l-.131-.738c.348-.173.945-.476 1.82-.476.195 0 .792 0 1.26.347.336.259.52.694.52 1.16" style=""/><path d="m37.3 91.8h-.814l-.856-2.26c-.228-.597-.564-1.48-.652-1.99h-.0109c-.0657.391-.347 1.14-.456 1.43l-1.05 2.81h-.847l1.87-4.82h.955l1.87 4.82" style=""/><path d="m42.3 87v7.53h-.814v-3.19c-.575.477-1.18.597-1.58.597-1.07 0-1.92-1.13-1.92-2.53 0-1.42.836-2.53 1.87-2.53.359 0 .998.0968 1.61.683v-.564zm-.847 1.51c0-.152-.0109-.347-.358-.661-.25-.217-.52-.305-.803-.305-.672 0-1.46.511-1.46 1.86 0 1.43.933 1.88 1.57 1.88.488 0 .812-.25 1.05-.597v-2.17" style=""/><path d="m48.1 87v.77h-1.98c-.13 0-.261-.0109-.391-.0109h-1.18c.347.305 1.17 1.12 1.51 1.43.206.195.761.65.967.845.488.489 1.07 1.06 1.07 1.99 0 1.25-.878 2.33-2.31 2.33-1.24 0-1.85-.845-2.1-1.78.13-.184.184-.248.206-.281.0203-.0219.13-.162.238-.316.217.836.522 1.68 1.51 1.68 1.02 0 1.57-.814 1.57-1.66 0-.922-.619-1.54-1.26-2.19l-.836-.77-1.35-1.35v-.694h4.33" style=""/><path d="m52.1 91.2v.728c-.966-.0109-1.56-.544-1.9-1.04v.988h-.761v-4.88h.814v2.32c0 1.09.781 1.87 1.85 1.89" style=""/><path d="m57.1 87v4.82h-.847v-3.15c0-.812-.608-1.19-1.3-1.19-.77 0-.847.281-.847.748v3.59h-.847v-3.63c0-.781.25-1.3 1.15-1.3.575 0 1.35.173 1.88.639v-.52h.814" style=""/><path d="m61.9 88.4c0 .597-.402.966-.424.998-.423.38-.716.444-1.26.542-.597.119-1.1.228-1.1.759 0 .673.781.673.922.673.348 0 .923-.0437 1.54-.412l.13.705c-.564.261-1.01.347-1.56.347-.272 0-1.8 0-1.8-1.42 0-.533.316-.88.586-1.09.336-.239.575-.281 1.17-.402.391-.075 1.02-.206 1.02-.781 0-.748-.858-.748-1.02-.748-.878 0-1.49.402-1.68.531l-.131-.738c.348-.173.945-.476 1.82-.476.195 0 .792 0 1.26.347.336.259.52.694.52 1.16" style=""/><path d="m65.8 87.3-.175.641c-.281-.228-.628-.358-.976-.358-.402 0-.553.325-.553.9v2.71h1.53v.628h-1.53v1.38h-.748v-1.38h-.944v-.628h.911v-2.9c0-.65.152-1.41.902-1.41.759 0 1.31.27 1.58.411" style=""/></g><g style="fill:#fff"><path d="m75.1 91.3-.119.684c-.759 0-1.39-.206-1.72-.348-.226.186-.597.348-1.03.348-.934 0-1.72-.781-1.72-1.77 0-.402.141-.792.358-1.08-.316-.444-.316-.867-.316-.922 0-.283.0985-.597.283-.825-.564-.336-.695-.834-.695-1.12 0-.814 1.08-1.47 2.4-1.47 1.33 0 2.41.641 2.41 1.48 0 1.51-1.81 1.51-2.24 1.51h-.955c-.141 0-.63 0-.63.575 0 .12.0438.294.12.391.228-.162.586-.314.988-.314.977 0 1.74.803 1.74 1.77 0 .52-.239.922-.358 1.08l.0422-.0109c.239 0 .544.0437.803.0437.195 0 .641-.0328.641-.0328zm-1.89-1.08c0-.847-.511-1.15-.977-1.15-.402 0-.966.248-.966 1.15 0 .9.564 1.15.966 1.15.466 0 .977-.305.977-1.15zm.977-3.95c0-.478-.748-.836-1.64-.836-.878 0-1.65.338-1.65.847 0 .0328 0 .738.845.738h.976c.239 0 1.47 0 1.47-.748" style=""/><path d="m79.7 89.4c0 .369-.0109 1.18-.434 1.83-.445.673-1.11.792-1.5.792-1.2 0-2.18-1.15-2.18-2.55 0-1.43 1.04-2.57 2.34-2.57.684 0 1.3.259 1.72.564l-.064.705c-.684-.564-1.4-.608-1.65-.608-.869 0-1.56.77-1.6 1.83zm-.619.597h-2.68c.173.825.748 1.37 1.37 1.37.564 0 1.17-.369 1.31-1.37" style=""/><path d="m84.8 87v3.23c0 .717-.162 1.7-1.49 1.7-.976 0-1.51-.739-1.57-.825v.77h-.781v-4.88h.847v2.66c0 .717.272 1.62 1.1 1.62 1.04 0 1.05-.77 1.05-1.12v-3.16h.847" style=""/><path d="m90.2 89.4c0 .369-.0109 1.18-.434 1.83-.445.673-1.11.792-1.5.792-1.2 0-2.18-1.15-2.18-2.55 0-1.43 1.04-2.57 2.34-2.57.684 0 1.3.259 1.72.564l-.064.705c-.684-.564-1.4-.608-1.65-.608-.869 0-1.56.77-1.6 1.83zm-.619.597h-2.68c.173.825.748 1.37 1.37 1.37.564 0 1.17-.369 1.31-1.37" style=""/><path d="m94 91.2v.728c-.966-.0109-1.56-.544-1.9-1.04v.988h-.761v-4.88h.814v2.32c0 1.09.781 1.87 1.85 1.89" style=""/><path d="m98.7 87v3.14c0 1.11-.792 1.87-1.79 1.87-.705 0-1.19-.174-1.7-.466l.0656-.717c.564.402 1.11.544 1.64.544.511 0 .945-.434.945-1.24v-.467c-1.63-.0219-3.01-.476-3.01-1.43 0-.467.292-1.35 1.24-1.35.152 0 1.17.0218 1.8.509v-.391zm-.845 1.43c0-.206 0-.478-.37-.684-.314-.195-.727-.206-.845-.206-.522 0-1.01.25-1.01.706 0 .759 1.76.834 2.22.856v-.672" style=""/><path d="m103.1 87.3-.175.641c-.281-.228-.628-.358-.976-.358-.402 0-.554.325-.554.9v2.71h1.53v.628h-1.53v1.38h-.748v-1.38h-.944v-.628h.911v-2.9c0-.65.152-1.41.902-1.41.759 0 1.31.27 1.58.411" style=""/><path d="m108 89.4c0 .369-.011 1.18-.434 1.83-.445.673-1.11.792-1.5.792-1.2 0-2.18-1.15-2.18-2.55 0-1.43 1.04-2.57 2.34-2.57.685 0 1.3.259 1.72.564l-.064.705c-.684-.564-1.4-.608-1.65-.608-.868 0-1.56.77-1.6 1.83zm-.619.597h-2.68c.173.825.748 1.37 1.37 1.37.564 0 1.17-.369 1.31-1.37" style=""/><path d="m112.2 88.4c0 .597-.401.966-.423.998-.424.38-.716.444-1.26.542-.597.119-1.1.228-1.1.759 0 .673.781.673.922.673.348 0 .923-.0437 1.54-.412l.13.705c-.564.261-1.01.347-1.56.347-.271 0-1.8 0-1.8-1.42 0-.533.315-.88.586-1.09.336-.239.575-.281 1.17-.402.39-.075 1.02-.206 1.02-.781 0-.748-.858-.748-1.02-.748-.878 0-1.49.402-1.68.531l-.131-.738c.349-.173.945-.476 1.82-.476.195 0 .792 0 1.26.347.336.259.52.694.52 1.16" style=""/><path d="m122.8 87-2.15 3.54c1.12.325 1.84 1.1 1.84 1.98 0 1.07-1.18 2.02-2.74 2.02h-2.61v-7.53h.933v3.44h1.71l2.04-3.44zm-1.18 5.51c0-.77-.696-1.41-1.98-1.41h-1.56v2.82h1.56c1.26 0 1.98-.641 1.98-1.41" style=""/><path d="m127.6 87v4.82h-.847v-3.15c0-.812-.607-1.19-1.3-1.19-.77 0-.847.281-.847.748v3.59h-.847v-3.63c0-.781.25-1.3 1.15-1.3.575 0 1.34.173 1.88.639v-.52h.814" style=""/><path d="m132.4 88.4c0 .597-.401.966-.423.998-.424.38-.716.444-1.26.542-.597.119-1.1.228-1.1.759 0 .673.781.673.922.673.348 0 .923-.0437 1.54-.412l.13.705c-.564.261-1.01.347-1.56.347-.271 0-1.8 0-1.8-1.42 0-.533.315-.88.586-1.09.336-.239.575-.281 1.17-.402.39-.075 1.02-.206 1.02-.781 0-.748-.858-.748-1.02-.748-.878 0-1.49.402-1.68.531l-.131-.738c.349-.173.945-.476 1.82-.476.195 0 .792 0 1.26.347.336.259.52.694.52 1.16" style=""/><path d="m136.3 87.3-.175.641c-.281-.228-.628-.358-.976-.358-.402 0-.554.325-.554.9v2.71h1.53v.628h-1.53v1.38h-.748v-1.38h-.944v-.628h.911v-2.9c0-.65.152-1.41.902-1.41.759 0 1.31.27 1.58.411" style=""/><path d="m144.7 87.4-.065.726c-.554-.434-1.14-.586-1.69-.586-.9 0-1.51.781-1.51 1.85 0 .845.401 1.89 1.55 1.89.564 0 .933-.0875 1.53-.478l.129.706c-.64.369-1.01.466-1.67.466-1.51 0-2.39-1.31-2.39-2.59 0-1.35.987-2.53 2.34-2.53.586 0 1.18.152 1.77.553" style=""/><path d="m150.2 89.4c0 1.45-1.09 2.61-2.38 2.61-1.34 0-2.39-1.19-2.39-2.61 0-1.43 1.11-2.51 2.38-2.51 1.3 0 2.39 1.1 2.39 2.51zm-.847.108c0-1.28-.737-1.92-1.54-1.92-.749 0-1.53.608-1.53 1.92s.825 1.85 1.53 1.85c.759 0 1.54-.564 1.54-1.85" style=""/><path d="m155.6 87v7.53h-.814v-3.19c-.575.477-1.18.597-1.58.597-1.07 0-1.92-1.13-1.92-2.53 0-1.42.836-2.53 1.86-2.53.36 0 .999.0968 1.61.683v-.564zm-.846 1.51c0-.152-.011-.347-.358-.661-.25-.217-.521-.305-.803-.305-.672 0-1.46.511-1.46 1.86 0 1.43.932 1.88 1.57 1.88.487 0 .812-.25 1.05-.597v-2.17" style=""/><path d="m161 89.4c0 .369-.011 1.18-.434 1.83-.445.673-1.11.792-1.5.792-1.2 0-2.18-1.15-2.18-2.55 0-1.43 1.04-2.57 2.34-2.57.685 0 1.3.259 1.72.564l-.064.705c-.684-.564-1.4-.608-1.65-.608-.868 0-1.56.77-1.6 1.83zm-.619.597h-2.68c.173.825.748 1.37 1.37 1.37.564 0 1.17-.369 1.31-1.37" style=""/><path d="m168.6 87.3-.175.641c-.281-.228-.628-.358-.976-.358-.402 0-.554.325-.554.9v2.71h1.53v.628h-1.53v1.38h-.748v-1.38h-.944v-.628h.911v-2.9c0-.65.152-1.41.902-1.41.759 0 1.31.27 1.58.411" style=""/><path d="m174 89.4c0 1.45-1.09 2.61-2.38 2.61-1.34 0-2.39-1.19-2.39-2.61 0-1.43 1.11-2.51 2.38-2.51 1.3 0 2.39 1.1 2.39 2.51zm-.847.108c0-1.28-.737-1.92-1.54-1.92-.749 0-1.53.608-1.53 1.92s.825 1.85 1.53 1.85c.759 0 1.54-.564 1.54-1.85" style=""/><path d="m182.4 87v3.14c0 1.11-.793 1.87-1.79 1.87-.705 0-1.19-.174-1.7-.466l.065-.717c.564.402 1.11.544 1.64.544.511 0 .945-.434.945-1.24v-.467c-1.63-.0219-3.01-.476-3.01-1.43 0-.467.292-1.35 1.24-1.35.152 0 1.17.0218 1.8.509v-.391zm-.846 1.43c0-.206 0-.478-.37-.684-.314-.195-.727-.206-.845-.206-.522 0-1.01.25-1.01.706 0 .759 1.76.834 2.22.856v-.672" style=""/><path d="m187.7 87.4-.065.726c-.554-.434-1.14-.586-1.69-.586-.9 0-1.51.781-1.51 1.85 0 .845.401 1.89 1.55 1.89.564 0 .933-.0875 1.53-.478l.129.706c-.64.369-1.01.466-1.67.466-1.51 0-2.39-1.31-2.39-2.59 0-1.35.987-2.53 2.34-2.53.586 0 1.18.152 1.77.553" style=""/><path d="m192.6 87.4-.065.726c-.554-.434-1.14-.586-1.69-.586-.9 0-1.51.781-1.51 1.85 0 .845.401 1.89 1.55 1.89.564 0 .933-.0875 1.53-.478l.129.706c-.64.369-1.01.466-1.67.466-1.51 0-2.39-1.31-2.39-2.59 0-1.35.987-2.53 2.34-2.53.586 0 1.18.152 1.77.553" style=""/><path d="m197.4 89.4c0 .369-.011 1.18-.434 1.83-.445.673-1.11.792-1.5.792-1.2 0-2.18-1.15-2.18-2.55 0-1.43 1.04-2.57 2.34-2.57.685 0 1.3.259 1.72.564l-.064.705c-.684-.564-1.4-.608-1.65-.608-.868 0-1.56.77-1.6 1.83zm-.619.597h-2.68c.173.825.748 1.37 1.37 1.37.564 0 1.17-.369 1.31-1.37" style=""/><path d="m201.7 88.4c0 .597-.401.966-.423.998-.424.38-.716.444-1.26.542-.597.119-1.1.228-1.1.759 0 .673.781.673.922.673.348 0 .923-.0437 1.54-.412l.13.705c-.564.261-1.01.347-1.56.347-.271 0-1.8 0-1.8-1.42 0-.533.315-.88.586-1.09.336-.239.575-.281 1.17-.402.39-.075 1.02-.206 1.02-.781 0-.748-.858-.748-1.02-.748-.878 0-1.49.402-1.68.531l-.131-.738c.349-.173.945-.476 1.82-.476.195 0 .792 0 1.26.347.336.259.52.694.52 1.16" style=""/><path d="m205.8 88.4c0 .597-.401.966-.423.998-.424.38-.716.444-1.26.542-.597.119-1.1.228-1.1.759 0 .673.781.673.922.673.348 0 .923-.0437 1.54-.412l.13.705c-.564.261-1.01.347-1.56.347-.271 0-1.8 0-1.8-1.42 0-.533.315-.88.586-1.09.336-.239.575-.281 1.17-.402.39-.075 1.02-.206 1.02-.781 0-.748-.858-.748-1.02-.748-.878 0-1.49.402-1.68.531l-.131-.738c.349-.173.945-.476 1.82-.476.195 0 .792 0 1.26.347.336.259.52.694.52 1.16" style=""/><path d="m213.3 91.2v.728c-.965-.0109-1.56-.544-1.9-1.04v.988h-.761v-4.88h.814v2.32c0 1.09.781 1.87 1.84 1.89" style=""/><path d="m218 89.4c0 .369-.011 1.18-.434 1.83-.445.673-1.11.792-1.5.792-1.2 0-2.18-1.15-2.18-2.55 0-1.43 1.04-2.57 2.34-2.57.685 0 1.3.259 1.72.564l-.064.705c-.684-.564-1.4-.608-1.65-.608-.868 0-1.56.77-1.6 1.83zm-.619.597h-2.68c.173.825.748 1.37 1.37 1.37.564 0 1.17-.369 1.31-1.37" style=""/><path d="m223.6 91.3-.119.684c-.76 0-1.39-.206-1.72-.348-.226.186-.597.348-1.03.348-.934 0-1.72-.781-1.72-1.77 0-.402.141-.792.358-1.08-.315-.444-.315-.867-.315-.922 0-.283.098-.597.282-.825-.564-.336-.695-.834-.695-1.12 0-.814 1.08-1.47 2.4-1.47 1.33 0 2.41.641 2.41 1.48 0 1.51-1.81 1.51-2.24 1.51h-.955c-.14 0-.629 0-.629.575 0 .12.043.294.12.391.228-.162.586-.314.987-.314.977 0 1.74.803 1.74 1.77 0 .52-.239.922-.357 1.08l.042-.0109c.239 0 .544.0437.803.0437.195 0 .641-.0328.641-.0328zm-1.89-1.08c0-.847-.511-1.15-.977-1.15-.401 0-.965.248-.965 1.15 0 .9.564 1.15.965 1.15.466 0 .977-.305.977-1.15zm.977-3.95c0-.478-.749-.836-1.64-.836-.879 0-1.65.338-1.65.847 0 .0328 0 .738.845.738h.977c.239 0 1.47 0 1.47-.748" style=""/><path d="m225.5 87v4.82h-.814v-4.82zm.088 6.14v.966h-.966v-.966z" style=""/><path d="m230.3 88.4c0 .597-.401.966-.423.998-.424.38-.716.444-1.26.542-.597.119-1.1.228-1.1.759 0 .673.781.673.922.673.348 0 .923-.0437 1.54-.412l.13.705c-.564.261-1.01.347-1.56.347-.271 0-1.8 0-1.8-1.42 0-.533.315-.88.586-1.09.336-.239.575-.281 1.17-.402.39-.075 1.02-.206 1.02-.781 0-.748-.858-.748-1.02-.748-.878 0-1.49.402-1.68.531l-.131-.738c.349-.173.945-.476 1.82-.476.195 0 .792 0 1.26.347.336.259.52.694.52 1.16" style=""/><path d="m234.2 87.3-.175.641c-.281-.228-.628-.358-.976-.358-.402 0-.554.325-.554.9v2.71h1.53v.628h-1.53v1.38h-.748v-1.38h-.944v-.628h.911v-2.9c0-.65.152-1.41.902-1.41.759 0 1.31.27 1.58.411" style=""/><path d="m239 89.4c0 .369-.011 1.18-.434 1.83-.445.673-1.11.792-1.5.792-1.2 0-2.18-1.15-2.18-2.55 0-1.43 1.04-2.57 2.34-2.57.685 0 1.3.259 1.72.564l-.064.705c-.684-.564-1.4-.608-1.65-.608-.868 0-1.56.77-1.6 1.83zm-.619.597h-2.68c.173.825.748 1.37 1.37 1.37.564 0 1.17-.369 1.31-1.37" style=""/><path d="m242.9 91.2v.728c-.965-.0109-1.56-.544-1.9-1.04v.988h-.761v-4.88h.814v2.32c0 1.09.781 1.87 1.84 1.89" style=""/><path d="m247 88.4c0 .597-.401.966-.423.998-.424.38-.716.444-1.26.542-.597.119-1.1.228-1.1.759 0 .673.781.673.922.673.348 0 .923-.0437 1.54-.412l.13.705c-.564.261-1.01.347-1.56.347-.271 0-1.8 0-1.8-1.42 0-.533.315-.88.586-1.09.336-.239.575-.281 1.17-.402.39-.075 1.02-.206 1.02-.781 0-.748-.858-.748-1.02-.748-.878 0-1.49.402-1.68.531l-.131-.738c.349-.173.945-.476 1.82-.476.195 0 .792 0 1.26.347.336.259.52.694.52 1.16" style=""/><path d="m255.6 87v7.53h-.814v-3.19c-.575.477-1.18.597-1.58.597-1.07 0-1.92-1.13-1.92-2.53 0-1.42.836-2.53 1.86-2.53.36 0 .999.0968 1.61.683v-.564zm-.846 1.51c0-.152-.011-.347-.358-.661-.25-.217-.521-.305-.803-.305-.672 0-1.46.511-1.46 1.86 0 1.43.932 1.88 1.57 1.88.487 0 .812-.25 1.05-.597v-2.17" style=""/><path d="m261 89.4c0 .369-.011 1.18-.434 1.83-.445.673-1.11.792-1.5.792-1.2 0-2.18-1.15-2.18-2.55 0-1.43 1.04-2.57 2.34-2.57.685 0 1.3.259 1.72.564l-.064.705c-.684-.564-1.4-.608-1.65-.608-.868 0-1.56.77-1.6 1.83zm-.619.597h-2.68c.173.825.748 1.37 1.37 1.37.564 0 1.17-.369 1.31-1.37" style=""/><path d="m265.3 88.4c0 .597-.401.966-.423.998-.424.38-.716.444-1.26.542-.597.119-1.1.228-1.1.759 0 .673.781.673.922.673.348 0 .923-.0437 1.54-.412l.13.705c-.564.261-1.01.347-1.56.347-.271 0-1.8 0-1.8-1.42 0-.533.315-.88.586-1.09.336-.239.575-.281 1.17-.402.39-.075 1.02-.206 1.02-.781 0-.748-.858-.748-1.02-.748-.878 0-1.49.402-1.68.531l-.131-.738c.349-.173.945-.476 1.82-.476.195 0 .792 0 1.26.347.336.259.52.694.52 1.16" style=""/><path d="m270.1 87.4-.065.726c-.554-.434-1.14-.586-1.69-.586-.9 0-1.51.781-1.51 1.85 0 .845.401 1.89 1.55 1.89.564 0 .933-.0875 1.53-.478l.129.706c-.64.369-1.01.466-1.67.466-1.51 0-2.39-1.31-2.39-2.59 0-1.35.987-2.53 2.34-2.53.586 0 1.18.152 1.77.553" style=""/><path d="m273.9 91.2v.728c-.965-.0109-1.56-.544-1.9-1.04v.988h-.761v-4.88h.814v2.32c0 1.09.781 1.87 1.84 1.89" style=""/><path d="m275.8 87v4.82h-.814v-4.82zm.088 6.14v.966h-.966v-.966z" style=""/><path d="m281.9 89.4c0 1.35-.738 2.52-1.76 2.52-.423 0-1.1-.109-1.75-.641v3.23h-.814v-7.53h.847v.498c.261-.238.727-.617 1.46-.617 1.08 0 2.02 1.08 2.02 2.54zm-.845 0c0-1.41-.913-1.88-1.57-1.88-.423 0-.781.195-1.05.695v2.4c.173.261.564.641 1.16.641.641 0 1.47-.467 1.47-1.85" style=""/><path d="m287.2 89.4c0 .369-.011 1.18-.434 1.83-.445.673-1.11.792-1.5.792-1.2 0-2.18-1.15-2.18-2.55 0-1.43 1.04-2.57 2.34-2.57.685 0 1.3.259 1.72.564l-.064.705c-.684-.564-1.4-.608-1.65-.608-.868 0-1.56.77-1.6 1.83zm-.619.597h-2.68c.173.825.748 1.37 1.37 1.37.564 0 1.17-.369 1.31-1.37" style=""/><path d="m292.2 87v7.53h-.814v-3.19c-.575.477-1.18.597-1.58.597-1.07 0-1.92-1.13-1.92-2.53 0-1.42.836-2.53 1.86-2.53.36 0 .999.0968 1.61.683v-.564zm-.846 1.51c0-.152-.011-.347-.358-.661-.25-.217-.521-.305-.803-.305-.672 0-1.46.511-1.46 1.86 0 1.43.932 1.88 1.57 1.88.487 0 .812-.25 1.05-.597v-2.17" style=""/><path d="m298.5 87v4.82h-.814v-4.82zm.088 6.14v.966h-.966v-.966z" style=""/><path d="m304.1 87v3.23c0 .717-.162 1.7-1.49 1.7-.977 0-1.51-.739-1.57-.825v.77h-.781v-4.88h.847v2.66c0 .717.272 1.62 1.1 1.62 1.04 0 1.05-.77 1.05-1.12v-3.16h.847" style=""/><path d="m314.1 89c0 .706-.336 1.23-.575 1.49-.509.542-.867.641-1.87.889-.629.153-.803.195-1.13.478-.076.0656-.381.38-.381.856 0 .641.586 1.29 1.58 1.29.913 0 1.43-.358 1.84-.695l.162.869c-.597.358-1.19.542-1.99.542-1.51 0-2.45-1.06-2.45-2.14 0-.466.151-.922.586-1.38.456-.488.933-.619 1.57-.77.922-.228 1.03-.261 1.34-.531.217-.184.456-.542.456-1.01 0-.716-.597-1.43-1.58-1.43-.445 0-1.42.109-2.33.88l-.163-.88c.955-.597 1.82-.748 2.51-.748 1.43 0 2.43 1.1 2.43 2.29" style=""/><path d="m321.8 94.5h-.847l-1.44-3.71c-.173-.444-.986-2.54-1.08-3.04h-.011c-.086.434-.553 1.63-.651 1.89l-1.88 4.86h-1.01l2.96-7.53h.999z" style=""/><path d="m329.2 90.7c0 2.1-1.46 3.83-3.33 3.83h-2.84v-7.53h2.85c1.85 0 3.32 1.65 3.32 3.7zm-.933 0c0-1.85-1.13-3.09-2.65-3.09h-1.66v6.32h1.66c1.52 0 2.65-1.31 2.65-3.22" style=""/><path d="m338.5 93.6v.9h-.901v-.9zm-.043-6.64v4.82h-.814v-4.82zm-1.72 4.19v.628h-1.31v1.31c0 .694.39.856.662.856.228 0 .467-.075.652-.195v.738c-.066.0219-.338.12-.652.12-.803 0-1.44-.759-1.44-1.85v-.988h-.803v-.628h.803v-4.19h.814v4.19h1.28" style=""/><path d="m341.1 87v7.53h-.814v-7.53z" style=""/><path d="m346.5 89.4c0 .369-.011 1.18-.434 1.83-.445.673-1.11.792-1.5.792-1.2 0-2.18-1.15-2.18-2.55 0-1.43 1.04-2.57 2.34-2.57.685 0 1.3.259 1.72.564l-.064.705c-.684-.564-1.4-.608-1.65-.608-.868 0-1.56.77-1.6 1.83zm-.619.597h-2.68c.173.825.748 1.37 1.37 1.37.564 0 1.17-.369 1.31-1.37" style=""/><path d="m350.7 88.4c0 .597-.401.966-.423.998-.424.38-.716.444-1.26.542-.597.119-1.1.228-1.1.759 0 .673.781.673.922.673.348 0 .923-.0437 1.54-.412l.13.705c-.564.261-1.01.347-1.56.347-.271 0-1.8 0-1.8-1.42 0-.533.315-.88.586-1.09.336-.239.575-.281 1.17-.402.39-.075 1.02-.206 1.02-.781 0-.748-.858-.748-1.02-.748-.878 0-1.49.402-1.68.531l-.131-.738c.349-.173.945-.476 1.82-.476.195 0 .792 0 1.26.347.336.259.52.694.52 1.16" style=""/><path d="m353 87v.9h-.9v-.9z" style=""/></g><g style="fill:#fa6c00"><path d="m36 73.5v3.23c0 .728-.173 1.7-1.49 1.7-.652 0-1.22-.305-1.62-.891-.281.825-1.04.891-1.39.891-.781 0-1.29-.445-1.58-.836v.781h-.781v-4.88h.847v2.66c0 .739.294 1.62 1.1 1.62 1.01 0 1.06-.705 1.06-1.12v-3.16h.847v2.66c0 .739.292 1.62 1.1 1.62 1.01 0 1.06-.705 1.06-1.12v-3.16h.845" style=""/><path d="m40 75.6v.63h-2.88v-.63z" style=""/><path d="m42.3 73.5v7.53h-.814v-7.53z" style=""/><path d="m47.6 73.5v3.14c0 1.11-.792 1.87-1.79 1.87-.705 0-1.19-.174-1.7-.466l.0656-.717c.564.402 1.11.544 1.64.544.511 0 .945-.434.945-1.24v-.467c-1.63-.0219-3.01-.476-3.01-1.43 0-.467.292-1.35 1.24-1.35.152 0 1.17.0218 1.8.509v-.391zm-.845 1.43c0-.206 0-.478-.37-.684-.314-.195-.727-.206-.845-.206-.522 0-1.01.25-1.01.706 0 .759 1.76.834 2.22.856v-.672" style=""/><path d="m53.7 75.9c0 1.35-.738 2.52-1.76 2.52-.423 0-1.1-.109-1.75-.641v3.23h-.814v-7.53h.847v.498c.261-.238.727-.617 1.45-.617 1.08 0 2.02 1.08 2.02 2.54zm-.845 0c0-1.41-.912-1.88-1.57-1.88-.424 0-.781.195-1.05.695v2.4c.174.261.564.641 1.16.641.641 0 1.47-.467 1.47-1.85" style=""/><path d="m58 74.9c0 .597-.402.966-.424.998-.423.38-.716.444-1.26.542-.597.119-1.1.228-1.1.759 0 .673.781.673.922.673.348 0 .923-.0437 1.54-.412l.13.705c-.564.261-1.01.347-1.56.347-.272 0-1.8 0-1.8-1.42 0-.533.316-.88.586-1.09.336-.239.575-.281 1.17-.402.391-.075 1.02-.206 1.02-.781 0-.748-.858-.748-1.02-.748-.878 0-1.49.402-1.68.531l-.131-.738c.348-.173.945-.476 1.82-.476.195 0 .792 0 1.26.347.336.259.52.694.52 1.16" style=""/><path d="m63.1 81.4c0 .12-.0969.217-.217.217-.152 0-.195-.108-.227-.217l-3.7-10.2c-.0547-.141-.0547-.195-.0547-.195 0-.12.0969-.217.217-.217.152 0 .195.108.228.217l3.7 10.2c.0532.142.0532.195.0532.195" style=""/><path d="m68.5 73.5v7.53h-.814v-3.19c-.575.477-1.18.597-1.58.597-1.07 0-1.92-1.13-1.92-2.53 0-1.42.836-2.53 1.87-2.53.359 0 .998.0968 1.61.683v-.564zm-.847 1.51c0-.152-.0109-.347-.358-.661-.25-.217-.52-.305-.803-.305-.672 0-1.46.511-1.46 1.86 0 1.43.933 1.88 1.57 1.88.488 0 .812-.25 1.05-.597v-2.17" style=""/><path d="m73.3 74.9c0 .597-.402.966-.424.998-.423.38-.716.444-1.26.542-.597.119-1.1.228-1.1.759 0 .673.781.673.922.673.348 0 .923-.0437 1.54-.412l.13.705c-.564.261-1.01.347-1.56.347-.272 0-1.8 0-1.8-1.42 0-.533.316-.88.586-1.09.336-.239.575-.281 1.17-.402.391-.075 1.02-.206 1.02-.781 0-.748-.858-.748-1.02-.748-.878 0-1.49.402-1.68.531l-.131-.738c.348-.173.945-.476 1.82-.476.195 0 .792 0 1.26.347.336.259.52.694.52 1.16" style=""/><path d="m75.3 73.5v7.53h-.814v-7.53z" style=""/><path d="m77.9 73.5v4.82h-.814v-4.82zm.0875 6.14v.966h-.966v-.966z" style=""/><path d="m82.4 73.8-.175.641c-.281-.228-.628-.358-.976-.358-.402 0-.553.325-.553.9v2.71h1.53v.628h-1.53v1.38h-.748v-1.38h-.944v-.628h.911v-2.9c0-.65.152-1.41.902-1.41.759 0 1.31.27 1.58.411" style=""/><path d="m87.2 75.9c0 .369-.0109 1.18-.434 1.83-.445.673-1.11.792-1.5.792-1.2 0-2.18-1.15-2.18-2.55 0-1.43 1.04-2.57 2.34-2.57.684 0 1.3.259 1.72.564l-.064.705c-.684-.564-1.4-.608-1.65-.608-.869 0-1.56.77-1.6 1.83zm-.619.597h-2.68c.173.825.748 1.37 1.37 1.37.564 0 1.17-.369 1.31-1.37" style=""/><path d="m92.5 73.5v.77h-1.98c-.13 0-.261-.0109-.391-.0109h-1.18c.347.305 1.17 1.12 1.51 1.43.206.195.761.65.967.845.488.489 1.07 1.06 1.07 1.99 0 1.25-.878 2.33-2.31 2.33-1.24 0-1.85-.845-2.1-1.78.13-.184.184-.248.206-.281.0203-.0219.13-.162.238-.316.217.836.522 1.68 1.51 1.68 1.02 0 1.57-.814 1.57-1.66 0-.922-.619-1.54-1.26-2.19l-.836-.77-1.35-1.35v-.694h4.33" style=""/><path d="m96.9 74.9c0 .597-.402.966-.424.998-.423.38-.716.444-1.26.542-.597.119-1.1.228-1.1.759 0 .673.781.673.922.673.348 0 .923-.0437 1.54-.412l.13.705c-.564.261-1.01.347-1.56.347-.272 0-1.8 0-1.8-1.42 0-.533.316-.88.586-1.09.336-.239.575-.281 1.17-.402.391-.075 1.02-.206 1.02-.781 0-.748-.858-.748-1.02-.748-.878 0-1.49.402-1.68.531l-.131-.738c.348-.173.945-.476 1.82-.476.195 0 .792 0 1.26.347.336.259.52.694.52 1.16" style=""/><path d="m102 78.3h-.814l-.856-2.26c-.228-.597-.564-1.48-.652-1.99h-.0109c-.0657.391-.347 1.14-.456 1.43l-1.05 2.81h-.847l1.87-4.82h.954l1.87 4.82" style=""/><path d="m106.9 73.5v7.53h-.814v-3.19c-.575.477-1.18.597-1.58.597-1.07 0-1.92-1.13-1.92-2.53 0-1.42.836-2.53 1.86-2.53.36 0 .999.0968 1.61.683v-.564zm-.846 1.51c0-.152-.011-.347-.358-.661-.25-.217-.521-.305-.803-.305-.672 0-1.46.511-1.46 1.86 0 1.43.932 1.88 1.57 1.88.487 0 .812-.25 1.05-.597v-2.17" style=""/></g><g style="fill:#fff"><path d="m116 73.9-.065.726c-.554-.434-1.14-.586-1.69-.586-.9 0-1.51.781-1.51 1.85 0 .845.401 1.89 1.55 1.89.564 0 .933-.0875 1.53-.478l.129.706c-.64.369-1.01.466-1.67.466-1.51 0-2.39-1.31-2.39-2.59 0-1.35.987-2.53 2.34-2.53.586 0 1.18.152 1.77.553" style=""/><path d="m121.5 75.9c0 1.45-1.09 2.61-2.38 2.61-1.34 0-2.39-1.19-2.39-2.61 0-1.43 1.11-2.51 2.38-2.51 1.3 0 2.39 1.1 2.39 2.51zm-.847.108c0-1.28-.737-1.92-1.54-1.92-.749 0-1.53.608-1.53 1.92s.825 1.85 1.53 1.85c.759 0 1.54-.564 1.54-1.85" style=""/><path d="m126.5 73.5v3.23c0 .717-.162 1.7-1.49 1.7-.977 0-1.51-.739-1.57-.825v.77h-.781v-4.88h.847v2.66c0 .717.272 1.62 1.1 1.62 1.04 0 1.05-.77 1.05-1.12v-3.16h.847" style=""/><path d="m132.3 78.3h-.814l-.856-2.26c-.228-.597-.564-1.48-.652-1.99h-.011c-.065.391-.347 1.14-.456 1.43l-1.05 2.81h-.846l1.87-4.82h.954l1.87 4.82" style=""/><path d="m137 75.9c0 .369-.011 1.18-.434 1.83-.445.673-1.11.792-1.5.792-1.2 0-2.18-1.15-2.18-2.55 0-1.43 1.04-2.57 2.34-2.57.685 0 1.3.259 1.72.564l-.064.705c-.684-.564-1.4-.608-1.65-.608-.868 0-1.56.77-1.6 1.83zm-.619.597h-2.68c.173.825.748 1.37 1.37 1.37.564 0 1.17-.369 1.31-1.37" style=""/><path d="m140.8 77.7v.728c-.965-.0109-1.56-.544-1.9-1.04v.988h-.761v-4.88h.814v2.32c0 1.09.781 1.87 1.84 1.89" style=""/><path d="m144.7 73.8-.175.641c-.281-.228-.628-.358-.976-.358-.402 0-.554.325-.554.9v2.71h1.53v.628h-1.53v1.38h-.748v-1.38h-.944v-.628h.911v-2.9c0-.65.152-1.41.902-1.41.759 0 1.31.27 1.58.411" style=""/><path d="m148.9 74.9c0 .597-.401.966-.423.998-.424.38-.716.444-1.26.542-.597.119-1.1.228-1.1.759 0 .673.781.673.922.673.348 0 .923-.0437 1.54-.412l.13.705c-.564.261-1.01.347-1.56.347-.271 0-1.8 0-1.8-1.42 0-.533.315-.88.586-1.09.336-.239.575-.281 1.17-.402.39-.075 1.02-.206 1.02-.781 0-.748-.858-.748-1.02-.748-.878 0-1.49.402-1.68.531l-.131-.738c.349-.173.945-.476 1.82-.476.195 0 .792 0 1.26.347.336.259.52.694.52 1.16" style=""/><path d="m156.6 80.3v.727c-.132.0328-.468.12-.869.12-1.02 0-1.8-.77-1.8-1.86v-.977h-.803v-.628h.803v-4.19h.814v4.19h1.19v.628h-1.23v1.29c0 .803.728.878 1.01.878.217 0 .511-.0219.88-.184" style=""/><path d="m159.6 77.7v.728c-.965-.0109-1.56-.544-1.9-1.04v.988h-.761v-4.88h.814v2.32c0 1.09.781 1.87 1.84 1.89" style=""/><path d="m165 75.9c0 1.45-1.09 2.61-2.38 2.61-1.34 0-2.39-1.19-2.39-2.61 0-1.43 1.11-2.51 2.38-2.51 1.3 0 2.39 1.1 2.39 2.51zm-.847.108c0-1.28-.737-1.92-1.54-1.92-.749 0-1.53.608-1.53 1.92s.825 1.85 1.53 1.85c.759 0 1.54-.564 1.54-1.85" style=""/><path d="m173 73.5v3.23c0 .728-.173 1.7-1.49 1.7-.652 0-1.22-.305-1.62-.891-.281.825-1.04.891-1.39.891-.781 0-1.29-.445-1.58-.836v.781h-.781v-4.88h.847v2.66c0 .739.294 1.62 1.1 1.62 1.01 0 1.06-.705 1.06-1.12v-3.16h.847v2.66c0 .739.292 1.62 1.1 1.62 1.01 0 1.06-.705 1.06-1.12v-3.16h.845" style=""/><path d="m184.6 80.3v.706h-6.6v-.706h1.45c.13 0 .26.0109.391.0109h.977v-6.77h.965v6.77h.966c.129 0 .259-.0109.39-.0109h1.45" style=""/><path d="m188.6 75.9c0 .369-.011 1.18-.434 1.83-.445.673-1.11.792-1.5.792-1.2 0-2.18-1.15-2.18-2.55 0-1.43 1.04-2.57 2.34-2.57.685 0 1.3.259 1.72.564l-.064.705c-.684-.564-1.4-.608-1.65-.608-.868 0-1.56.77-1.6 1.83zm-.619.597h-2.68c.173.825.748 1.37 1.37 1.37.564 0 1.17-.369 1.31-1.37" style=""/><path d="m194 73.5-2.17 2.48 1.98 2.33h-.889l-1.45-1.79-1.5 1.79h-.9l2.04-2.33-2.1-2.48h.889l1.57 2.04 1.63-2.04z" style=""/><path d="m198.4 73.5v3.14c0 1.11-.793 1.87-1.79 1.87-.705 0-1.19-.174-1.7-.466l.065-.717c.564.402 1.11.544 1.64.544.511 0 .945-.434.945-1.24v-.467c-1.63-.0219-3.01-.476-3.01-1.43 0-.467.292-1.35 1.24-1.35.152 0 1.17.0218 1.8.509v-.391zm-.846 1.43c0-.206 0-.478-.37-.684-.314-.195-.727-.206-.845-.206-.522 0-1.01.25-1.01.706 0 .759 1.76.834 2.22.856v-.672" style=""/><path d="m203.2 74.9c0 .597-.401.966-.423.998-.424.38-.716.444-1.26.542-.597.119-1.1.228-1.1.759 0 .673.781.673.922.673.348 0 .923-.0437 1.54-.412l.13.705c-.564.261-1.01.347-1.56.347-.271 0-1.8 0-1.8-1.42 0-.533.315-.88.586-1.09.336-.239.575-.281 1.17-.402.39-.075 1.02-.206 1.02-.781 0-.748-.858-.748-1.02-.748-.878 0-1.49.402-1.68.531l-.131-.738c.349-.173.945-.476 1.82-.476.195 0 .792 0 1.26.347.336.259.52.694.52 1.16" style=""/><path d="m209.1 73.5v7.53h-.966v-7.53z" style=""/><path d="m214.8 73.5v3.23c0 .717-.162 1.7-1.49 1.7-.977 0-1.51-.739-1.57-.825v.77h-.781v-4.88h.847v2.66c0 .717.272 1.62 1.1 1.62 1.04 0 1.05-.77 1.05-1.12v-3.16h.847" style=""/><path d="m219.7 74.9c0 .597-.401.966-.423.998-.424.38-.716.444-1.26.542-.597.119-1.1.228-1.1.759 0 .673.781.673.922.673.348 0 .923-.0437 1.54-.412l.13.705c-.564.261-1.01.347-1.56.347-.271 0-1.8 0-1.8-1.42 0-.533.315-.88.586-1.09.336-.239.575-.281 1.17-.402.39-.075 1.02-.206 1.02-.781 0-.748-.858-.748-1.02-.748-.878 0-1.49.402-1.68.531l-.131-.738c.349-.173.945-.476 1.82-.476.195 0 .792 0 1.26.347.336.259.52.694.52 1.16" style=""/><path d="m223.5 73.8-.175.641c-.281-.228-.628-.358-.976-.358-.402 0-.554.325-.554.9v2.71h1.53v.628h-1.53v1.38h-.748v-1.38h-.944v-.628h.911v-2.9c0-.65.152-1.41.902-1.41.759 0 1.31.27 1.58.411" style=""/><path d="m227.4 77.7v.728c-.965-.0109-1.56-.544-1.9-1.04v.988h-.761v-4.88h.814v2.32c0 1.09.781 1.87 1.84 1.89" style=""/><path d="m232.3 73.5v4.82h-.847v-3.15c0-.812-.607-1.19-1.3-1.19-.77 0-.847.281-.847.748v3.59h-.847v-3.63c0-.781.25-1.3 1.15-1.3.575 0 1.34.173 1.88.639v-.52h.814" style=""/><path d="m240.9 73.5v3.23c0 .728-.173 1.7-1.49 1.7-.652 0-1.22-.305-1.62-.891-.281.825-1.04.891-1.39.891-.781 0-1.29-.445-1.58-.836v.781h-.781v-4.88h.847v2.66c0 .739.294 1.62 1.1 1.62 1.01 0 1.06-.705 1.06-1.12v-3.16h.847v2.66c0 .739.292 1.62 1.1 1.62 1.01 0 1.06-.705 1.06-1.12v-3.16h.845" style=""/><path d="m246.4 75.9c0 .369-.011 1.18-.434 1.83-.445.673-1.11.792-1.5.792-1.2 0-2.18-1.15-2.18-2.55 0-1.43 1.04-2.57 2.34-2.57.685 0 1.3.259 1.72.564l-.064.705c-.684-.564-1.4-.608-1.65-.608-.868 0-1.56.77-1.6 1.83zm-.619.597h-2.68c.173.825.748 1.37 1.37 1.37.564 0 1.17-.369 1.31-1.37" style=""/><path d="m251.4 73.5v3.23c0 .717-.162 1.7-1.49 1.7-.977 0-1.51-.739-1.57-.825v.77h-.781v-4.88h.847v2.66c0 .717.272 1.62 1.1 1.62 1.04 0 1.05-.77 1.05-1.12v-3.16h.847" style=""/><path d="m256 73.8-.175.641c-.281-.228-.628-.358-.976-.358-.402 0-.554.325-.554.9v2.71h1.53v.628h-1.53v1.38h-.748v-1.38h-.944v-.628h.911v-2.9c0-.65.152-1.41.902-1.41.759 0 1.31.27 1.58.411" style=""/><path d="m260.2 74.9c0 .597-.401.966-.423.998-.424.38-.716.444-1.26.542-.597.119-1.1.228-1.1.759 0 .673.781.673.922.673.348 0 .923-.0437 1.54-.412l.13.705c-.564.261-1.01.347-1.56.347-.271 0-1.8 0-1.8-1.42 0-.533.315-.88.586-1.09.336-.239.575-.281 1.17-.402.39-.075 1.02-.206 1.02-.781 0-.748-.858-.748-1.02-.748-.878 0-1.49.402-1.68.531l-.131-.738c.349-.173.945-.476 1.82-.476.195 0 .792 0 1.26.347.336.259.52.694.52 1.16" style=""/><path d="m271.3 77.2c0 2.1-1.46 3.83-3.33 3.83h-2.84v-7.53h2.85c1.85 0 3.32 1.65 3.32 3.7zm-.933 0c0-1.85-1.13-3.09-2.65-3.09h-1.66v6.32h1.66c1.52 0 2.65-1.31 2.65-3.22" style=""/><path d="m277.4 75.6c0 .706-.336 1.23-.575 1.49-.509.542-.867.641-1.87.889-.629.153-.803.195-1.13.478-.076.0656-.381.38-.381.856 0 .641.586 1.29 1.58 1.29.913 0 1.43-.358 1.84-.695l.162.869c-.597.358-1.19.542-1.99.542-1.51 0-2.45-1.06-2.45-2.14 0-.466.151-.922.586-1.38.456-.488.933-.619 1.57-.77.922-.228 1.03-.261 1.34-.531.217-.184.456-.542.456-1.01 0-.716-.597-1.43-1.58-1.43-.445 0-1.42.109-2.33.88l-.163-.88c.955-.597 1.82-.748 2.51-.748 1.43 0 2.43 1.1 2.43 2.29" style=""/><path d="m283.5 73.5v.716l-2.9-.0218h-.531v6.84h-.966v-7.53h4.39" style=""/><path d="m285.7 73.5v4.82h-.814v-4.82zm.088 6.14v.966h-.966v-.966z" style=""/><path d="m290.2 73.8-.175.641c-.281-.228-.628-.358-.976-.358-.402 0-.554.325-.554.9v2.71h1.53v.628h-1.53v1.38h-.748v-1.38h-.944v-.628h.911v-2.9c0-.65.152-1.41.902-1.41.759 0 1.31.27 1.58.411" style=""/><path d="m295 75.9c0 .369-.011 1.18-.434 1.83-.445.673-1.11.792-1.5.792-1.2 0-2.18-1.15-2.18-2.55 0-1.43 1.04-2.57 2.34-2.57.685 0 1.3.259 1.72.564l-.064.705c-.684-.564-1.4-.608-1.65-.608-.868 0-1.56.77-1.6 1.83zm-.619.597h-2.68c.173.825.748 1.37 1.37 1.37.564 0 1.17-.369 1.31-1.37" style=""/><path d="m302.6 73.8-.175.641c-.281-.228-.628-.358-.976-.358-.402 0-.554.325-.554.9v2.71h1.53v.628h-1.53v1.38h-.748v-1.38h-.944v-.628h.911v-2.9c0-.65.152-1.41.902-1.41.759 0 1.31.27 1.58.411" style=""/><path d="m308 75.9c0 1.45-1.09 2.61-2.38 2.61-1.34 0-2.39-1.19-2.39-2.61 0-1.43 1.11-2.51 2.38-2.51 1.3 0 2.39 1.1 2.39 2.51zm-.847.108c0-1.28-.737-1.92-1.54-1.92-.749 0-1.53.608-1.53 1.92s.825 1.85 1.53 1.85c.759 0 1.54-.564 1.54-1.85" style=""/><path d="m317.4 75.6c0 .706-.336 1.23-.575 1.49-.509.542-.867.641-1.87.889-.629.153-.803.195-1.13.478-.076.0656-.381.38-.381.856 0 .641.586 1.29 1.58 1.29.913 0 1.43-.358 1.84-.695l.162.869c-.597.358-1.19.542-1.99.542-1.51 0-2.45-1.06-2.45-2.14 0-.466.151-.922.586-1.38.456-.488.933-.619 1.57-.77.922-.228 1.03-.261 1.34-.531.217-.184.456-.542.456-1.01 0-.716-.597-1.43-1.58-1.43-.445 0-1.42.109-2.33.88l-.163-.88c.955-.597 1.82-.748 2.51-.748 1.43 0 2.43 1.1 2.43 2.29" style=""/><path d="m325.2 81h-.847l-1.44-3.71c-.173-.444-.986-2.54-1.08-3.04h-.011c-.086.434-.553 1.63-.651 1.89l-1.88 4.86h-1.01l2.96-7.53h.999z" style=""/><path d="m332.6 77.2c0 2.1-1.46 3.83-3.33 3.83h-2.84v-7.53h2.85c1.85 0 3.32 1.65 3.32 3.7zm-.933 0c0-1.85-1.13-3.09-2.65-3.09h-1.66v6.32h1.66c1.52 0 2.65-1.31 2.65-3.22" style=""/><path d="m335.2 73.5v.9h-.9v-.9z" style=""/></g></g></svg>