<svg height="676" style="" viewBox="0 338 603 338" width="1206" xmlns="http://www.w3.org/2000/svg"><g style="stroke-width:.1" transform="matrix(1.33 0 0 -1.33 0 676)"><path d="m0 .00391h453.5v255.1h-453.5z" style=""/><path d="m26.9 49c.0024 1.36 1.1 2.46 2.46 2.46s2.46-1.1 2.46-2.46-1.1-2.46-2.46-2.46-2.46 1.1-2.46 2.46m-29.3-22.2c0 1.36 1.1 2.46 2.46 2.46 1.35 0 2.46-1.1 2.46-2.46s-1.1-2.46-2.46-2.46-2.46 1.1-2.46 2.46m58.6-.115c0 1.36 1.1 2.46 2.46 2.46s2.46-1.1 2.46-2.46-1.1-2.46-2.46-2.46-2.46 1.1-2.46 2.46m-51.5-3.37c1.13.501 1.64 1.83 1.14 2.96l-1.09 2.47h4.29v-19.3h-8.65c-1.07 3.75-1.4 7.67-.979 11.5zm17.9-.475v5.7h10.2c.527 0 3.72-.609 3.72-3 0-1.98-2.45-2.7-4.47-2.7zm-13.9-30.7c0 1.36 1.1 2.46 2.46 2.46s2.46-1.1 2.46-2.46-1.1-2.46-2.46-2.46-2.46 1.1-2.46 2.46m36.4-.113c0 1.36 1.1 2.46 2.46 2.46s2.46-1.1 2.46-2.46-1.1-2.46-2.46-2.46-2.46 1.1-2.46 2.46m.76 5.57c-1.21.259-2.4-.51-2.66-1.72l-1.23-5.76c-8.03-3.64-17.2-3.59-25.2.12l-1.23 5.76c-.258 1.21-1.45 1.98-2.66 1.72l-5.08-1.09c-.943.973-1.82 2.01-2.63 3.1h24.7c.281 0 .466.0504.466.306v8.75c0 .254-.186.306-.466.306h-7.23v5.54h7.82c.712 0 3.82-.203 4.81-4.17.31-1.22.993-5.19 1.46-6.46.465-1.42 2.36-4.27 4.37-4.27h12.8c-.855-1.15-1.79-2.23-2.8-3.24zm13.7 23.1c.174-1.74.195-3.5.0637-5.25h-3.1c-.311 0-.435-.204-.435-.509v-1.42c0-3.36-1.89-4.09-3.55-4.27-1.58-.177-3.33.662-3.54 1.63-.932 5.24-2.48 6.36-4.94 8.29 3.04 1.93 6.21 4.78 6.21 8.59 0 4.12-2.82 6.72-4.75 7.99-2.7 1.78-5.69 2.14-6.5 2.14h-32.1c4.44 4.96 10.4 8.32 16.9 9.55l3.78-3.97c.856-.896 2.27-.93 3.17-.0726l4.23 4.05c8.74-1.64 16.3-7.03 20.7-14.8l-2.9-6.55c-.501-1.13.0097-2.46 1.14-2.96zm7.23-.107-.1 1.01 2.99 2.79c.605.565.379 1.71-.398 1.99l-3.82 1.43-.3.984 2.38 3.31c.484.672.0383 1.74-.778 1.88l-4.03.654-.484.904 1.69 3.71c.347.756-.295 1.72-1.13 1.69l-4.09-.144-.645.784.939 3.98c.189.807-.63 1.63-1.44 1.44l-3.98-.936-.784.643.143 4.09c.0332.827-.935 1.47-1.69 1.13l-3.71-1.69-.904.485-.657 4.02c-.132.816-1.21 1.26-1.88.778l-3.31-2.38-.983.298-1.43 3.82c-.289.779-1.43 1-1.99.399l-2.78-2.99-1.01.0992-2.15 3.47c-.436.704-1.6.704-2.03 0l-2.15-3.47-1.01-.0992-2.79 2.99c-.564.604-1.71.38-1.99-.399l-1.43-3.82-.983-.298-3.31 2.38c-.672.485-1.75.0371-1.88-.778l-.656-4.03-.904-.484-3.71 1.69c-.754.344-1.72-.302-1.69-1.13l.144-4.08-.784-.646-3.98.939c-.808.188-1.63-.63-1.44-1.44l.936-3.98-.644-.784-4.08.144c-.824.0234-1.47-.936-1.13-1.69l1.69-3.71-.485-.904-4.03-.654c-.816-.133-1.26-1.21-.776-1.88l2.38-3.31-.3-.984-3.82-1.43c-.775-.289-1-1.43-.396-2l2.99-2.78-.1-1.01-3.47-2.15c-.703-.436-.703-1.6 0-2.03l3.47-2.15.1-1.01-2.99-2.79c-.607-.564-.379-1.7.396-1.99l3.82-1.43.3-.986-2.38-3.31c-.484-.673-.0395-1.75.779-1.88l4.02-.653.485-.904-1.69-3.71c-.345-.756.305-1.73 1.13-1.69l4.08.143.646-.784-.936-3.98c-.189-.806.63-1.63 1.44-1.44l3.98.938.784-.642-.144-4.09c-.0308-.826.938-1.48 1.69-1.13l3.71 1.69.904-.483.656-4.02c.132-.818 1.21-1.26 1.88-.778l3.31 2.38.984-.3 1.43-3.82c.288-.774 1.43-1 1.99-.396l2.79 2.99 1.01-.102 2.15-3.47c.434-.699 1.6-.701 2.03 0l2.15 3.47 1.01.102 2.79-2.99c.565-.607 1.71-.377 1.99.396l1.43 3.82.985.3 3.31-2.38c.672-.482 1.75-.0394 1.88.778l.657 4.02.904.483 3.71-1.69c.755-.346 1.72.3 1.69 1.13l-.143 4.09.784.642 3.98-.938c.811-.19 1.63.631 1.44 1.44l-.938 3.98.645.784 4.08-.143c.826-.0332 1.48.936 1.13 1.69l-1.69 3.71.484.904 4.02.653c.82.132 1.26 1.21.778 1.88l-2.38 3.31.3.986 3.82 1.43c.778.291 1 1.43.396 1.99l-2.98 2.79.0985 1.01 3.47 2.15c.704.433.704 1.6.0012 2.03z" style="fill:#383232"/><path d="m0 215.6h453.5v39.5h-453.5z" style="fill:#1c1c1c"/><g style="fill:#fff"><path d="m16.3 235.1v.977h-1.88c-.173 0-.345-.014-.517-.014h-2.85v3.78h4.65v.862h-4.65v3.45h1.95c.172 0 .344-.014.517-.014h2.58v.905h-6.29v-9.94h6.48" style=""/><path d="m22.7 235.7c0 .044-.0438.489-.0578.547l-.0282.402c-.661-.532-1.39-.805-2.2-.805-1.19 0-1.97 1.06-1.97 2.46 0 1.19.574 2.5 2.01 2.5.962 0 1.36-.23 1.98-.647l.173.935c-.833.489-1.31.603-2.15.603-1.98 0-3.1-1.75-3.1-3.39 0-1.84 1.32-3.35 3.05-3.35.703 0 1.51.172 2.3.747" style=""/><path d="m29.7 238.3c0 1.94-1.42 3.43-3.07 3.43-1.7 0-3.09-1.52-3.09-3.43 0-1.88 1.44-3.3 3.07-3.3 1.7 0 3.09 1.45 3.09 3.3zm-1.09.144c0-1.77-1.02-2.56-1.98-2.56-1.03 0-2 .862-2 2.56 0 1.74 1.08 2.43 1.98 2.43.992 0 2-.747 2-2.43" style=""/><path d="m35.2 236.9c0 .733-.445 1.19-.502 1.26-.533.545-.962.631-1.84.805-.517.1-1.25.244-1.25.962 0 .891 1 .891 1.19.891.761 0 1.36-.174 2-.533l.172.934c-.919.432-1.7.446-2.02.446-.331 0-2.33 0-2.33-1.87 0-.633.345-1.06.561-1.26.517-.446.876-.518 1.72-.691.475-.1 1.31-.272 1.31-1.03 0-.991-1.12-.991-1.32-.991-.575 0-1.41.158-2.18.719l-.173-.977c.0719-.044 1.05-.633 2.37-.633 1.85 0 2.3 1.12 2.3 1.97" style=""/><path d="m41.7 241.5h-1.08c-.659-1.7-1.77-4.51-1.82-5.54h-.0141c-.0719.848-.834 2.74-.948 3.03l-1.02 2.51h-1.13l2.67-6.38-.503-1.31c-.316-.717-.531-.789-.791-.789-.2 0-.661.042-1.11.216l.0875-.935c.086-.014.559-.115 1.02-.115.345 0 1.02 0 1.64 1.58l3 7.73" style=""/><path d="m47 236.9c0 .733-.445 1.19-.502 1.26-.533.545-.962.631-1.84.805-.517.1-1.25.244-1.25.962 0 .891 1 .891 1.19.891.761 0 1.36-.174 2-.533l.172.934c-.919.432-1.7.446-2.02.446-.331 0-2.33 0-2.33-1.87 0-.633.345-1.06.561-1.26.517-.446.876-.518 1.72-.691.475-.1 1.31-.272 1.31-1.03 0-.991-1.12-.991-1.32-.991-.575 0-1.41.158-2.18.719l-.173-.977c.0719-.044 1.05-.633 2.37-.633 1.85 0 2.3 1.12 2.3 1.97" style=""/><path d="m52 235.5-.216.833c-.502-.445-1.03-.503-1.29-.503-.633 0-.719.675-.719 1.18v3.62h1.98v.833h-1.98v1.82h-.991v-1.82h-1.21v-.833h1.18v-3.86c0-.834.188-1.82 1.18-1.82.962 0 1.62.332 2.07.561" style=""/><path d="m58.2 238.3c0 .617-.0578 1.49-.517 2.26-.589.992-1.6 1.11-2.01 1.11-1.55 0-2.85-1.49-2.85-3.36 0-1.9 1.38-3.38 3.05-3.38.659 0 1.45.188 2.24.761 0 .058-.0437.533-.0437.533s-.0422.33-.0422.388c-.848-.719-1.7-.819-2.13-.819-1.11 0-2.05.99-2.08 2.51zm-.847.775h-3.45c.244.962.919 1.72 1.77 1.72.445 0 1.44-.2 1.68-1.72" style=""/><path d="m68.6 235.1v4.32c0 .993-.258 2.2-1.94 2.2-1.22 0-1.9-.847-2.11-1.16-.259.906-1.05 1.16-1.8 1.16-1.18 0-1.8-.761-2.04-1.06v.991h-1.02v-6.45h1.09v3.58c0 .948.374 2.08 1.42 2.08 1.32 0 1.39-.904 1.39-1.44v-4.22h1.09v3.58c0 .948.375 2.08 1.42 2.08 1.32 0 1.39-.904 1.39-1.44v-4.22h1.09" style=""/><path d="m12.4 223c0 .28-.0094.964-.361 1.5-.378.568-.955.676-1.3.676-1.05 0-1.87-.964-1.87-2.12 0-1.19.884-2.14 2.01-2.14.433 0 .956.107 1.48.44l-.0531.622c-.569-.405-1.1-.476-1.42-.476-.748 0-1.33.657-1.35 1.49zm-.541.531h-2.27c.144.578.586 1.06 1.15 1.06.334 0 .947-.153 1.12-1.06" style=""/><path d="m19.2 221v2.68c0 .667-.181 1.42-1.27 1.42-.758 0-1.18-.461-1.4-.74-.0641.181-.253.74-1.17.74-.712 0-1.14-.415-1.35-.686v.641h-.695v-4.06h.748v2.2c0 .595.234 1.32.92 1.32.902 0 .902-.64.902-.901v-2.62h.748v2.2c0 .595.234 1.32.92 1.32.902 0 .902-.64.902-.901v-2.62h.748" style=""/><path d="m24.4 223c0 1.09-.595 2.09-1.48 2.09-.242 0-.892-.045-1.5-.523v2.68h-.722v-6.26h.748v.423c.117-.126.576-.521 1.24-.521.938 0 1.71.909 1.71 2.11zm-.748 0c0-1.16-.777-1.52-1.33-1.52-.577 0-.838.476-.883.557v1.97c.136.191.459.506.973.506.541 0 1.24-.379 1.24-1.51" style=""/><path d="m28.8 223c0 .28-.0094.964-.361 1.5-.378.568-.955.676-1.3.676-1.05 0-1.88-.964-1.88-2.12 0-1.19.884-2.14 2.01-2.14.433 0 .956.107 1.48.44l-.0531.622c-.569-.405-1.1-.476-1.42-.476-.748 0-1.33.657-1.35 1.49zm-.541.531h-2.27c.144.578.586 1.06 1.15 1.06.334 0 .947-.153 1.12-1.06" style=""/><path d="m33 221v6.26h-.722v-2.65c-.505.425-1.08.497-1.37.497-.911 0-1.61-.947-1.61-2.1 0-1.16.694-2.1 1.58-2.1.27 0 .838.062 1.38.567v-.469zm-.748 1.27c0-.172 0-.191-.1-.316-.244-.325-.55-.468-.875-.468-.586 0-1.23.423-1.23 1.5 0 1.16.766 1.52 1.33 1.52.414 0 .703-.234.875-.469v-1.78" style=""/><path d="m37.8 221v6.26h-.722v-2.65c-.505.425-1.08.497-1.37.497-.911 0-1.61-.947-1.61-2.1 0-1.16.694-2.1 1.58-2.1.27 0 .838.062 1.38.567v-.469zm-.748 1.27c0-.172 0-.191-.1-.316-.244-.325-.55-.468-.875-.468-.586 0-1.23.423-1.23 1.5 0 1.16.766 1.52 1.33 1.52.414 0 .703-.234.875-.469v-1.78" style=""/><path d="m42.4 223c0 .28-.0094.964-.361 1.5-.378.568-.955.676-1.3.676-1.05 0-1.88-.964-1.88-2.12 0-1.19.884-2.14 2.01-2.14.433 0 .956.107 1.48.44l-.0531.622c-.569-.405-1.1-.476-1.42-.476-.748 0-1.33.657-1.35 1.49zm-.541.531h-2.27c.144.578.586 1.06 1.15 1.06.334 0 .947-.153 1.12-1.06" style=""/><path d="m46.7 221v6.26h-.722v-2.65c-.505.425-1.08.497-1.37.497-.911 0-1.61-.947-1.61-2.1 0-1.16.694-2.1 1.58-2.1.27 0 .838.062 1.38.567v-.469zm-.748 1.27c0-.172 0-.191-.1-.316-.244-.325-.55-.468-.875-.468-.586 0-1.23.423-1.23 1.5 0 1.16.766 1.52 1.33 1.52.414 0 .703-.234.875-.469v-1.78" style=""/><path d="m50 222.7v.559h-2.47v-.559z" style=""/><path d="m54.5 221v2.68c0 .667-.18 1.42-1.27 1.42-.514 0-1-.244-1.32-.65v2.8h-.722v-6.26h.748v2.2c0 .595.234 1.32.92 1.32.902 0 .902-.64.902-.901v-2.62h.748" style=""/><path d="m59.1 221v2.61c0 .892-.658 1.55-1.55 1.55-.586 0-1.02-.153-1.45-.397l.0532-.639c.452.333.894.469 1.39.469.505 0 .811-.406.811-.992v-.378c-1.55-.036-2.57-.442-2.57-1.17 0-.423.28-1.14 1.06-1.14.18 0 .964.017 1.53.44v-.342zm-.748 1.26c0-.19 0-.416-.324-.605-.226-.135-.523-.17-.705-.17-.459 0-.847.215-.847.576 0 .641 1.76.667 1.88.667v-.468" style=""/><path d="m61.2 221v6.26h-.722v-6.26z" style=""/></g><g style="fill:#fa6c00"><path d="m32.2 145.1c0 .597-.402.966-.424.999-.423.379-.716.443-1.26.542-.597.118-1.1.228-1.1.759 0 .674.781.674.922.674.348 0 .923-.044 1.54-.413l.13.705c-.564.261-1.01.347-1.56.347-.272 0-1.8 0-1.8-1.42 0-.533.316-.879.586-1.09.336-.239.575-.281 1.17-.401.391-.075 1.02-.206 1.02-.781 0-.749-.858-.749-1.02-.749-.878 0-1.49.402-1.68.531l-.131-.737c.348-.174.945-.477 1.82-.477.195 0 .792 0 1.26.347.336.26.52.694.52 1.16" style=""/><path d="m37.3 148.5h-.814l-.856-2.26c-.228-.597-.564-1.48-.652-1.99h-.0109c-.0657.391-.347 1.14-.456 1.43l-1.05 2.81h-.847l1.87-4.82h.955l1.87 4.82" style=""/><path d="m42.3 143.7v7.53h-.814v-3.19c-.575.476-1.18.597-1.58.597-1.07 0-1.92-1.13-1.92-2.53 0-1.42.836-2.53 1.87-2.53.359 0 .998.097 1.61.683v-.564zm-.847 1.51c0-.152-.0109-.347-.358-.661-.25-.217-.52-.305-.803-.305-.672 0-1.46.511-1.46 1.86 0 1.43.933 1.88 1.57 1.88.488 0 .812-.25 1.05-.597v-2.17" style=""/><path d="m48.1 143.7v.77h-1.98c-.13 0-.261-.011-.391-.011h-1.18c.347.305 1.17 1.12 1.51 1.43.206.196.761.65.967.846.488.489 1.07 1.06 1.07 1.98 0 1.25-.878 2.33-2.31 2.33-1.24 0-1.85-.845-2.1-1.78.13-.185.184-.249.206-.282.0203-.022.13-.162.238-.315.217.836.522 1.68 1.51 1.68 1.02 0 1.57-.815 1.57-1.66 0-.922-.619-1.54-1.26-2.19l-.836-.77-1.35-1.35v-.694h4.33" style=""/><path d="m52.1 147.9v.729c-.966-.011-1.56-.544-1.9-1.04v.988h-.761v-4.88h.814v2.32c0 1.09.781 1.87 1.85 1.89" style=""/><path d="m57.1 143.7v4.82h-.847v-3.15c0-.812-.608-1.19-1.3-1.19-.77 0-.847.281-.847.749v3.59h-.847v-3.63c0-.781.25-1.3 1.15-1.3.575 0 1.35.174 1.88.639v-.52h.814" style=""/><path d="m61.9 145.1c0 .597-.402.966-.424.999-.423.379-.716.443-1.26.542-.597.118-1.1.228-1.1.759 0 .674.781.674.922.674.348 0 .923-.044 1.54-.413l.13.705c-.564.261-1.01.347-1.56.347-.272 0-1.8 0-1.8-1.42 0-.533.316-.879.586-1.09.336-.239.575-.281 1.17-.401.391-.075 1.02-.206 1.02-.781 0-.749-.858-.749-1.02-.749-.878 0-1.49.402-1.68.531l-.131-.737c.348-.174.945-.477 1.82-.477.195 0 .792 0 1.26.347.336.26.52.694.52 1.16" style=""/><path d="m65.8 144-.175.641c-.281-.228-.628-.358-.976-.358-.402 0-.553.325-.553.9v2.71h1.53v.628h-1.53v1.38h-.748v-1.38h-.944v-.628h.911v-2.9c0-.65.152-1.41.902-1.41.759 0 1.31.271 1.58.411" style=""/></g><g style="fill:#fff"><path d="m74.5 143.7v7.53h-.814v-3.19c-.575.476-1.18.597-1.58.597-1.07 0-1.92-1.13-1.92-2.53 0-1.42.836-2.53 1.87-2.53.359 0 .998.097 1.61.683v-.564zm-.847 1.51c0-.152-.0109-.347-.358-.661-.25-.217-.52-.305-.803-.305-.672 0-1.46.511-1.46 1.86 0 1.43.933 1.88 1.57 1.88.488 0 .812-.25 1.05-.597v-2.17" style=""/><path d="m80.5 146.1c0 1.45-1.09 2.61-2.38 2.61-1.33 0-2.39-1.19-2.39-2.61 0-1.43 1.11-2.51 2.38-2.51 1.3 0 2.39 1.1 2.39 2.51zm-.847.107c0-1.28-.738-1.92-1.54-1.92-.748 0-1.53.608-1.53 1.92 0 1.31.825 1.85 1.53 1.85.759 0 1.54-.564 1.54-1.85" style=""/><path d="m85.7 146.1c0 .368-.0109 1.18-.434 1.83-.445.674-1.11.793-1.5.793-1.2 0-2.18-1.15-2.18-2.55 0-1.43 1.04-2.57 2.34-2.57.684 0 1.3.26 1.72.564l-.064.705c-.684-.564-1.4-.608-1.65-.608-.869 0-1.56.771-1.6 1.84zm-.619.596h-2.68c.173.825.748 1.37 1.37 1.37.564 0 1.17-.369 1.31-1.37" style=""/><path d="m89.9 145.1c0 .597-.402.966-.424.999-.423.379-.716.443-1.26.542-.597.118-1.1.228-1.1.759 0 .674.781.674.922.674.348 0 .923-.044 1.54-.413l.13.705c-.564.261-1.01.347-1.56.347-.272 0-1.8 0-1.8-1.42 0-.533.316-.879.586-1.09.336-.239.575-.281 1.17-.401.391-.075 1.02-.206 1.02-.781 0-.749-.858-.749-1.02-.749-.878 0-1.49.402-1.68.531l-.131-.737c.348-.174.945-.477 1.82-.477.195 0 .792 0 1.26.347.336.26.52.694.52 1.16" style=""/><path d="m98.5 143.7v3.23c0 .717-.162 1.7-1.49 1.7-.976 0-1.51-.74-1.57-.825v.77h-.781v-4.88h.847v2.66c0 .717.272 1.62 1.1 1.62 1.04 0 1.05-.77 1.05-1.12v-3.16h.847" style=""/><path d="m104.6 146.1c0 1.45-1.09 2.61-2.38 2.61-1.34 0-2.39-1.19-2.39-2.61 0-1.43 1.11-2.51 2.38-2.51 1.3 0 2.39 1.1 2.39 2.51zm-.847.107c0-1.28-.737-1.92-1.54-1.92-.749 0-1.53.608-1.53 1.92 0 1.31.825 1.85 1.53 1.85.759 0 1.54-.564 1.54-1.85" style=""/><path d="m108.5 144-.175.641c-.281-.228-.628-.358-.976-.358-.402 0-.554.325-.554.9v2.71h1.53v.628h-1.53v1.38h-.748v-1.38h-.944v-.628h.911v-2.9c0-.65.152-1.41.902-1.41.759 0 1.31.271 1.58.411" style=""/><path d="m117.2 143.7v7.53h-.814v-3.19c-.575.476-1.18.597-1.58.597-1.07 0-1.92-1.13-1.92-2.53 0-1.42.836-2.53 1.86-2.53.36 0 .999.097 1.61.683v-.564zm-.846 1.51c0-.152-.011-.347-.358-.661-.25-.217-.521-.305-.803-.305-.672 0-1.46.511-1.46 1.86 0 1.43.932 1.88 1.57 1.88.487 0 .812-.25 1.05-.597v-2.17" style=""/><path d="m119.8 143.7v4.82h-.814v-4.82zm.088 6.14v.966h-.966v-.966z" style=""/><path d="m124.2 147.9v.729c-.965-.011-1.56-.544-1.9-1.04v.988h-.761v-4.88h.814v2.32c0 1.09.781 1.87 1.84 1.89" style=""/><path d="m129 146.1c0 .368-.011 1.18-.434 1.83-.445.674-1.11.793-1.5.793-1.2 0-2.18-1.15-2.18-2.55 0-1.43 1.04-2.57 2.34-2.57.685 0 1.3.26 1.72.564l-.064.705c-.684-.564-1.4-.608-1.65-.608-.868 0-1.56.771-1.6 1.84zm-.619.596h-2.68c.173.825.748 1.37 1.37 1.37.564 0 1.17-.369 1.31-1.37" style=""/><path d="m133.8 144.1-.065.727c-.554-.434-1.14-.586-1.69-.586-.9 0-1.51.781-1.51 1.84 0 .846.401 1.89 1.55 1.89.564 0 .933-.088 1.53-.478l.129.706c-.64.369-1.01.466-1.67.466-1.51 0-2.39-1.31-2.39-2.59 0-1.34.987-2.53 2.34-2.53.586 0 1.18.152 1.77.553" style=""/><path d="m137.8 144-.175.641c-.281-.228-.628-.358-.976-.358-.402 0-.554.325-.554.9v2.71h1.53v.628h-1.53v1.38h-.748v-1.38h-.944v-.628h.911v-2.9c0-.65.152-1.41.902-1.41.759 0 1.31.271 1.58.411" style=""/><path d="m139.8 143.7v7.53h-.814v-7.53z" style=""/><path d="m145.5 148.5h-.814c-1.41-3.45-1.43-3.95-1.44-4.2h-.011c-.066.726-.933 2.74-.977 2.84l-.586 1.36h-.857l2.1-4.82-.39-.977c-.282-.629-.466-.629-.618-.629-.175 0-.521.044-.846.173l.065-.704c.238-.055.542-.088.781-.088.38 0 .782.131 1.22 1.24l2.37 5.8" style=""/><path d="m154.5 146.1c0 1.45-1.09 2.61-2.38 2.61-1.34 0-2.39-1.19-2.39-2.61 0-1.43 1.11-2.51 2.38-2.51 1.3 0 2.39 1.1 2.39 2.51zm-.847.107c0-1.28-.737-1.92-1.54-1.92-.749 0-1.53.608-1.53 1.92 0 1.31.825 1.85 1.53 1.85.759 0 1.54-.564 1.54-1.85" style=""/><path d="m158 147.9v.729c-.965-.011-1.56-.544-1.9-1.04v.988h-.761v-4.88h.814v2.32c0 1.09.781 1.87 1.84 1.89" style=""/><path d="m166.4 144.1-.065.727c-.554-.434-1.14-.586-1.69-.586-.9 0-1.51.781-1.51 1.84 0 .846.401 1.89 1.55 1.89.564 0 .933-.088 1.53-.478l.129.706c-.64.369-1.01.466-1.67.466-1.51 0-2.39-1.31-2.39-2.59 0-1.34.987-2.53 2.34-2.53.586 0 1.18.152 1.77.553" style=""/><path d="m171.8 146.1c0 1.45-1.09 2.61-2.38 2.61-1.34 0-2.39-1.19-2.39-2.61 0-1.43 1.11-2.51 2.38-2.51 1.3 0 2.39 1.1 2.39 2.51zm-.847.107c0-1.28-.737-1.92-1.54-1.92-.749 0-1.53.608-1.53 1.92 0 1.31.825 1.85 1.53 1.85.759 0 1.54-.564 1.54-1.85" style=""/><path d="m176.9 143.7v3.23c0 .717-.162 1.7-1.49 1.7-.977 0-1.51-.74-1.57-.825v.77h-.781v-4.88h.847v2.66c0 .717.272 1.62 1.1 1.62 1.04 0 1.05-.77 1.05-1.12v-3.16h.847" style=""/><path d="m182.6 148.5h-.814l-.856-2.26c-.228-.597-.564-1.48-.652-1.99h-.011c-.065.391-.347 1.14-.456 1.43l-1.05 2.81h-.846l1.87-4.82h.954l1.87 4.82" style=""/><path d="m187.3 146.1c0 .368-.011 1.18-.434 1.83-.445.674-1.11.793-1.5.793-1.2 0-2.18-1.15-2.18-2.55 0-1.43 1.04-2.57 2.34-2.57.685 0 1.3.26 1.72.564l-.064.705c-.684-.564-1.4-.608-1.65-.608-.868 0-1.56.771-1.6 1.84zm-.619.596h-2.68c.173.825.748 1.37 1.37 1.37.564 0 1.17-.369 1.31-1.37" style=""/><path d="m192.4 143.7v3.23c0 .717-.162 1.7-1.49 1.7-.977 0-1.51-.74-1.57-.825v.77h-.781v-4.88h.847v2.66c0 .717.272 1.62 1.1 1.62 1.04 0 1.05-.77 1.05-1.12v-3.16h.847" style=""/><path d="m195 143.7v4.82h-.814v-4.82zm.088 6.14v.966h-.966v-.966z" style=""/><path d="m200 146.1c0 .368-.011 1.18-.434 1.83-.445.674-1.11.793-1.5.793-1.2 0-2.18-1.15-2.18-2.55 0-1.43 1.04-2.57 2.34-2.57.685 0 1.3.26 1.72.564l-.064.705c-.684-.564-1.4-.608-1.65-.608-.868 0-1.56.771-1.6 1.84zm-.619.596h-2.68c.173.825.748 1.37 1.37 1.37.564 0 1.17-.369 1.31-1.37" style=""/><path d="m205.5 143.7v3.23c0 .717-.162 1.7-1.49 1.7-.977 0-1.51-.74-1.57-.825v.77h-.781v-4.88h.847v2.66c0 .717.272 1.62 1.1 1.62 1.04 0 1.05-.77 1.05-1.12v-3.16h.847" style=""/><path d="m210 144-.175.641c-.281-.228-.628-.358-.976-.358-.402 0-.554.325-.554.9v2.71h1.53v.628h-1.53v1.38h-.748v-1.38h-.944v-.628h.911v-2.9c0-.65.152-1.41.902-1.41.759 0 1.31.271 1.58.411" style=""/><path d="m212 143.7v7.53h-.814v-7.53z" style=""/><path d="m217.8 148.5h-.814c-1.41-3.45-1.43-3.95-1.44-4.2h-.011c-.066.726-.933 2.74-.977 2.84l-.586 1.36h-.857l2.1-4.82-.39-.977c-.282-.629-.466-.629-.618-.629-.175 0-.521.044-.846.173l.065-.704c.238-.055.542-.088.781-.088.38 0 .782.131 1.22 1.24l2.37 5.8" style=""/><path d="m226.1 146.1c0 .368-.011 1.18-.434 1.83-.445.674-1.11.793-1.5.793-1.2 0-2.18-1.15-2.18-2.55 0-1.43 1.04-2.57 2.34-2.57.685 0 1.3.26 1.72.564l-.064.705c-.684-.564-1.4-.608-1.65-.608-.868 0-1.56.771-1.6 1.84zm-.619.596h-2.68c.173.825.748 1.37 1.37 1.37.564 0 1.17-.369 1.31-1.37" style=""/><path d="m231.5 143.7-2.17 2.48 1.98 2.33h-.889l-1.45-1.79-1.5 1.79h-.9l2.04-2.33-2.1-2.48h.889l1.57 2.04 1.63-2.04z" style=""/><path d="m236.7 146.1c0 1.3-.683 2.52-1.72 2.52-.652 0-1.28-.229-1.78-.652v.531h-.814v-6.92h.847v2.6c.336-.314.814-.617 1.47-.617 1.05 0 2.01 1.06 2.01 2.54zm-.845 0c0-1.12-.771-1.88-1.58-1.88-.423 0-.717.217-.933.511-.109.163-.109.185-.109.38v2.18c.261.381.684.629 1.15.629.825 0 1.48-.825 1.48-1.82" style=""/><path d="m242.5 146.1c0 1.45-1.09 2.61-2.38 2.61-1.34 0-2.39-1.19-2.39-2.61 0-1.43 1.11-2.51 2.38-2.51 1.3 0 2.39 1.1 2.39 2.51zm-.847.107c0-1.28-.737-1.92-1.54-1.92-.749 0-1.53.608-1.53 1.92 0 1.31.825 1.85 1.53 1.85.759 0 1.54-.564 1.54-1.85" style=""/><path d="m246.8 145.1c0 .597-.401.966-.423.999-.424.379-.716.443-1.26.542-.597.118-1.1.228-1.1.759 0 .674.781.674.922.674.348 0 .923-.044 1.54-.413l.13.705c-.564.261-1.01.347-1.56.347-.271 0-1.8 0-1.8-1.42 0-.533.315-.879.586-1.09.336-.239.575-.281 1.17-.401.39-.075 1.02-.206 1.02-.781 0-.749-.858-.749-1.02-.749-.878 0-1.49.402-1.68.531l-.131-.737c.349-.174.945-.477 1.82-.477.195 0 .792 0 1.26.347.336.26.52.694.52 1.16" style=""/><path d="m251.6 146.1c0 .368-.011 1.18-.434 1.83-.445.674-1.11.793-1.5.793-1.2 0-2.18-1.15-2.18-2.55 0-1.43 1.04-2.57 2.34-2.57.685 0 1.3.26 1.72.564l-.064.705c-.684-.564-1.4-.608-1.65-.608-.868 0-1.56.771-1.6 1.84zm-.619.596h-2.68c.173.825.748 1.37 1.37 1.37.564 0 1.17-.369 1.31-1.37" style=""/><path d="m259.3 150.5v.727c-.132.033-.468.12-.869.12-1.02 0-1.8-.77-1.8-1.86v-.977h-.803v-.628h.803v-4.19h.814v4.19h1.19v.628h-1.23v1.29c0 .804.728.879 1.01.879.217 0 .511-.022.88-.185" style=""/><path d="m263.4 146.1c0 .368-.011 1.18-.434 1.83-.445.674-1.11.793-1.5.793-1.2 0-2.18-1.15-2.18-2.55 0-1.43 1.04-2.57 2.34-2.57.685 0 1.3.26 1.72.564l-.064.705c-.684-.564-1.4-.608-1.65-.608-.868 0-1.56.771-1.6 1.84zm-.619.596h-2.68c.173.825.748 1.37 1.37 1.37.564 0 1.17-.369 1.31-1.37" style=""/><path d="m268.1 143.7v3.14c0 1.11-.793 1.87-1.79 1.87-.705 0-1.19-.174-1.7-.466l.065-.717c.564.401 1.11.544 1.64.544.511 0 .945-.435.945-1.24v-.467c-1.63-.022-3.01-.477-3.01-1.43 0-.468.292-1.35 1.24-1.35.152 0 1.17.022 1.8.51v-.391zm-.846 1.43c0-.206 0-.478-.37-.685-.314-.195-.727-.206-.845-.206-.522 0-1.01.25-1.01.706 0 .76 1.76.835 2.22.857v-.672" style=""/><path d="m272.6 144-.175.641c-.281-.228-.628-.358-.976-.358-.402 0-.554.325-.554.9v2.71h1.53v.628h-1.53v1.38h-.748v-1.38h-.944v-.628h.911v-2.9c0-.65.152-1.41.902-1.41.759 0 1.31.271 1.58.411" style=""/><path d="m277.6 143.7v4.82h-.847v-3.15c0-.812-.607-1.19-1.3-1.19-.77 0-.847.281-.847.749v3.59h-.847v-3.63c0-.781.25-1.3 1.15-1.3.575 0 1.34.174 1.88.639v-.52h.814" style=""/><path d="m282 147.9v.729c-.965-.011-1.56-.544-1.9-1.04v.988h-.761v-4.88h.814v2.32c0 1.09.781 1.87 1.84 1.89" style=""/><path d="m286.8 146.1c0 .368-.011 1.18-.434 1.83-.445.674-1.11.793-1.5.793-1.2 0-2.18-1.15-2.18-2.55 0-1.43 1.04-2.57 2.34-2.57.685 0 1.3.26 1.72.564l-.064.705c-.684-.564-1.4-.608-1.65-.608-.868 0-1.56.771-1.6 1.84zm-.619.596h-2.68c.173.825.748 1.37 1.37 1.37.564 0 1.17-.369 1.31-1.37" style=""/><path d="m291 145.1c0 .597-.401.966-.423.999-.424.379-.716.443-1.26.542-.597.118-1.1.228-1.1.759 0 .674.781.674.922.674.348 0 .923-.044 1.54-.413l.13.705c-.564.261-1.01.347-1.56.347-.271 0-1.8 0-1.8-1.42 0-.533.315-.879.586-1.09.336-.239.575-.281 1.17-.401.39-.075 1.02-.206 1.02-.781 0-.749-.858-.749-1.02-.749-.878 0-1.49.402-1.68.531l-.131-.737c.349-.174.945-.477 1.82-.477.195 0 .792 0 1.26.347.336.26.52.694.52 1.16" style=""/><path d="m296.6 143.7v4.82h-.814v-4.82zm.088 6.14v.966h-.966v-.966z" style=""/><path d="m302.2 143.7v3.23c0 .717-.162 1.7-1.49 1.7-.977 0-1.51-.74-1.57-.825v.77h-.781v-4.88h.847v2.66c0 .717.272 1.62 1.1 1.62 1.04 0 1.05-.77 1.05-1.12v-3.16h.847" style=""/><path d="m311.2 143.7v3.14c0 1.11-.793 1.87-1.79 1.87-.705 0-1.19-.174-1.7-.466l.065-.717c.564.401 1.11.544 1.64.544.511 0 .945-.435.945-1.24v-.467c-1.63-.022-3.01-.477-3.01-1.43 0-.468.292-1.35 1.24-1.35.152 0 1.17.022 1.8.51v-.391zm-.846 1.43c0-.206 0-.478-.37-.685-.314-.195-.727-.206-.845-.206-.522 0-1.01.25-1.01.706 0 .76 1.76.835 2.22.857v-.672" style=""/><path d="m320.2 144.1-.065.727c-.554-.434-1.14-.586-1.69-.586-.9 0-1.51.781-1.51 1.84 0 .846.401 1.89 1.55 1.89.564 0 .933-.088 1.53-.478l.129.706c-.64.369-1.01.466-1.67.466-1.51 0-2.39-1.31-2.39-2.59 0-1.34.987-2.53 2.34-2.53.586 0 1.18.152 1.77.553" style=""/><path d="m325.6 146.1c0 1.45-1.09 2.61-2.38 2.61-1.34 0-2.39-1.19-2.39-2.61 0-1.43 1.11-2.51 2.38-2.51 1.3 0 2.39 1.1 2.39 2.51zm-.847.107c0-1.28-.737-1.92-1.54-1.92-.749 0-1.53.608-1.53 1.92 0 1.31.825 1.85 1.53 1.85.759 0 1.54-.564 1.54-1.85" style=""/><path d="m330.7 143.7v3.23c0 .717-.162 1.7-1.49 1.7-.977 0-1.51-.74-1.57-.825v.77h-.781v-4.88h.847v2.66c0 .717.272 1.62 1.1 1.62 1.04 0 1.05-.77 1.05-1.12v-3.16h.847" style=""/><path d="m336.4 148.5h-.814l-.856-2.26c-.228-.597-.564-1.48-.652-1.99h-.011c-.065.391-.347 1.14-.456 1.43l-1.05 2.81h-.846l1.87-4.82h.954l1.87 4.82" style=""/><path d="m341.2 146.1c0 .368-.011 1.18-.434 1.83-.445.674-1.11.793-1.5.793-1.2 0-2.18-1.15-2.18-2.55 0-1.43 1.04-2.57 2.34-2.57.685 0 1.3.26 1.72.564l-.064.705c-.684-.564-1.4-.608-1.65-.608-.868 0-1.56.771-1.6 1.84zm-.619.596h-2.68c.173.825.748 1.37 1.37 1.37.564 0 1.17-.369 1.31-1.37" style=""/><path d="m346.2 143.7v3.23c0 .717-.162 1.7-1.49 1.7-.977 0-1.51-.74-1.57-.825v.77h-.781v-4.88h.847v2.66c0 .717.272 1.62 1.1 1.62 1.04 0 1.05-.77 1.05-1.12v-3.16h.847" style=""/><path d="m348.8 143.7v4.82h-.814v-4.82zm.088 6.14v.966h-.966v-.966z" style=""/><path d="m354.3 146.1c0 .368-.011 1.18-.434 1.83-.445.674-1.11.793-1.5.793-1.2 0-2.18-1.15-2.18-2.55 0-1.43 1.04-2.57 2.34-2.57.685 0 1.3.26 1.72.564l-.064.705c-.684-.564-1.4-.608-1.65-.608-.868 0-1.56.771-1.6 1.84zm-.619.596h-2.68c.173.825.748 1.37 1.37 1.37.564 0 1.17-.369 1.31-1.37" style=""/><path d="m359.3 143.7v3.23c0 .717-.162 1.7-1.49 1.7-.977 0-1.51-.74-1.57-.825v.77h-.781v-4.88h.847v2.66c0 .717.272 1.62 1.1 1.62 1.04 0 1.05-.77 1.05-1.12v-3.16h.847" style=""/><path d="m363.8 144-.175.641c-.281-.228-.628-.358-.976-.358-.402 0-.554.325-.554.9v2.71h1.53v.628h-1.53v1.38h-.748v-1.38h-.944v-.628h.911v-2.9c0-.65.152-1.41.902-1.41.759 0 1.31.271 1.58.411" style=""/><path d="m375 148.5h-.792l-.695-2.3c-.119-.39-.444-1.46-.498-1.93h-.011c-.044.336-.314 1.3-.499 1.92l-.706 2.31h-.759l-.619-2.04c-.119-.38-.488-1.63-.531-2.18h-.011c-.055.52-.413 1.75-.586 2.34l-.564 1.88h-.825l1.49-4.82h.856l.674 2.24c.151.498.454 1.57.487 1.97h.011c.022-.303.206-1.05.347-1.52l.792-2.69h.955l1.49 4.82" style=""/><path d="m379.3 143.7v3.14c0 1.11-.793 1.87-1.79 1.87-.705 0-1.19-.174-1.7-.466l.065-.717c.564.401 1.11.544 1.64.544.511 0 .945-.435.945-1.24v-.467c-1.63-.022-3.01-.477-3.01-1.43 0-.468.292-1.35 1.24-1.35.152 0 1.17.022 1.8.51v-.391zm-.846 1.43c0-.206 0-.478-.37-.685-.314-.195-.727-.206-.845-.206-.522 0-1.01.25-1.01.706 0 .76 1.76.835 2.22.857v-.672" style=""/><path d="m384.7 148.5h-.814c-1.41-3.45-1.43-3.95-1.44-4.2h-.011c-.066.726-.933 2.74-.977 2.84l-.586 1.36h-.857l2.1-4.82-.39-.977c-.282-.629-.466-.629-.618-.629-.175 0-.521.044-.846.173l.065-.704c.238-.055.542-.088.781-.088.38 0 .782.131 1.22 1.24l2.37 5.8" style=""/><path d="m386 143.7v.9h-.9v-.9z" style=""/></g><g style="fill:#fa6c00"><path d="m32.8 132.6c0 .368-.0109 1.18-.434 1.83-.445.674-1.11.793-1.5.793-1.2 0-2.18-1.15-2.18-2.55 0-1.43 1.04-2.57 2.34-2.57.684 0 1.3.26 1.72.564l-.064.705c-.684-.564-1.4-.608-1.65-.608-.869 0-1.56.771-1.6 1.84zm-.619.596h-2.68c.173.825.748 1.37 1.37 1.37.564 0 1.17-.369 1.31-1.37" style=""/><path d="m40.9 130.2v3.23c0 .728-.173 1.7-1.49 1.7-.652 0-1.22-.305-1.62-.891-.281.825-1.04.891-1.39.891-.781 0-1.29-.446-1.58-.836v.781h-.781v-4.88h.847v2.66c0 .739.294 1.62 1.1 1.62 1.01 0 1.06-.705 1.06-1.12v-3.16h.847v2.66c0 .739.292 1.62 1.1 1.62 1.01 0 1.06-.705 1.06-1.12v-3.16h.845" style=""/><path d="m47.1 132.6c0 1.35-.738 2.52-1.76 2.52-.423 0-1.1-.11-1.75-.641v3.23h-.814v-7.53h.847v.498c.261-.237.727-.617 1.45-.617 1.08 0 2.02 1.08 2.02 2.54zm-.845 0c0-1.41-.912-1.88-1.57-1.88-.424 0-.781.196-1.05.696v2.4c.174.261.564.641 1.16.641.641 0 1.47-.467 1.47-1.86" style=""/><path d="m52.3 132.6c0 .368-.0109 1.18-.434 1.83-.445.674-1.11.793-1.5.793-1.2 0-2.18-1.15-2.18-2.55 0-1.43 1.04-2.57 2.34-2.57.684 0 1.3.26 1.72.564l-.064.705c-.684-.564-1.4-.608-1.65-.608-.869 0-1.56.771-1.6 1.84zm-.619.596h-2.68c.173.825.748 1.37 1.37 1.37.564 0 1.17-.369 1.31-1.37" style=""/><path d="m57.3 130.2v7.53h-.814v-3.19c-.575.476-1.18.597-1.58.597-1.07 0-1.92-1.13-1.92-2.53 0-1.42.836-2.53 1.87-2.53.359 0 .998.097 1.61.683v-.564zm-.847 1.51c0-.152-.0109-.347-.358-.661-.25-.217-.52-.305-.803-.305-.672 0-1.46.511-1.46 1.86 0 1.43.933 1.88 1.57 1.88.488 0 .812-.25 1.05-.597v-2.17" style=""/><path d="m63 130.2v7.53h-.814v-3.19c-.575.476-1.18.597-1.58.597-1.07 0-1.92-1.13-1.92-2.53 0-1.42.836-2.53 1.87-2.53.359 0 .998.097 1.61.683v-.564zm-.847 1.51c0-.152-.0109-.347-.358-.661-.25-.217-.52-.305-.803-.305-.672 0-1.46.511-1.46 1.86 0 1.43.933 1.88 1.57 1.88.488 0 .812-.25 1.05-.597v-2.17" style=""/><path d="m68.4 132.6c0 .368-.0109 1.18-.434 1.83-.445.674-1.11.793-1.5.793-1.2 0-2.18-1.15-2.18-2.55 0-1.43 1.04-2.57 2.34-2.57.684 0 1.3.26 1.72.564l-.064.705c-.684-.564-1.4-.608-1.65-.608-.869 0-1.56.771-1.6 1.84zm-.619.596h-2.68c.173.825.748 1.37 1.37 1.37.564 0 1.17-.369 1.31-1.37" style=""/><path d="m73.5 130.2v7.53h-.814v-3.19c-.575.476-1.18.597-1.58.597-1.07 0-1.92-1.13-1.92-2.53 0-1.42.836-2.53 1.87-2.53.359 0 .998.097 1.61.683v-.564zm-.847 1.51c0-.152-.0109-.347-.358-.661-.25-.217-.52-.305-.803-.305-.672 0-1.46.511-1.46 1.86 0 1.43.933 1.88 1.57 1.88.488 0 .812-.25 1.05-.597v-2.17" style=""/><path d="m77.4 132.3v.629h-2.88v-.629z" style=""/><path d="m82.7 130.2v3.23c0 .717-.162 1.7-1.49 1.7-.672 0-1.19-.338-1.54-.782v3.37h-.814v-7.53h.847v2.66c0 .717.272 1.62 1.1 1.62 1.04 0 1.05-.77 1.05-1.12v-3.16h.847" style=""/><path d="m88.1 130.2v3.14c0 1.11-.792 1.87-1.79 1.87-.705 0-1.19-.174-1.7-.466l.0656-.717c.564.401 1.11.544 1.64.544.511 0 .945-.435.945-1.24v-.467c-1.63-.022-3.01-.477-3.01-1.43 0-.468.292-1.35 1.24-1.35.152 0 1.17.022 1.8.51v-.391zm-.845 1.43c0-.206 0-.478-.37-.685-.314-.195-.727-.206-.845-.206-.522 0-1.01.25-1.01.706 0 .76 1.76.835 2.22.857v-.672" style=""/><path d="m90.6 130.2v7.53h-.814v-7.53z" style=""/></g><g style="fill:#fff"><path d="m102.4 135h-.792l-.695-2.3c-.119-.39-.444-1.46-.498-1.93h-.011c-.044.336-.314 1.3-.499 1.92l-.706 2.31h-.759l-.619-2.04c-.119-.38-.488-1.63-.531-2.18h-.0109c-.0547.52-.412 1.75-.586 2.34l-.564 1.88h-.825l1.49-4.82h.856l.674 2.24c.152.498.455 1.57.488 1.97h.0109c.0219-.303.206-1.05.347-1.52l.792-2.69h.955l1.49 4.82" style=""/><path d="m104.3 130.2v4.82h-.814v-4.82zm.088 6.14v.966h-.966v-.966z" style=""/><path d="m106.9 130.2v7.53h-.814v-7.53z" style=""/><path d="m109.5 130.2v7.53h-.814v-7.53z" style=""/><path d="m119.3 132.6c0 1.3-.683 2.52-1.72 2.52-.652 0-1.28-.229-1.78-.652v.531h-.814v-6.92h.847v2.6c.336-.314.814-.617 1.47-.617 1.05 0 2.01 1.06 2.01 2.54zm-.845 0c0-1.12-.771-1.88-1.58-1.88-.423 0-.717.217-.933.511-.109.163-.109.185-.109.38v2.18c.261.381.684.629 1.15.629.825 0 1.48-.825 1.48-1.82" style=""/><path d="m122.9 134.4v.729c-.965-.011-1.56-.544-1.9-1.04v.988h-.761v-4.88h.814v2.32c0 1.09.781 1.87 1.84 1.89" style=""/><path d="m128.2 132.6c0 1.45-1.09 2.61-2.38 2.61-1.34 0-2.39-1.19-2.39-2.61 0-1.43 1.11-2.51 2.38-2.51 1.3 0 2.39 1.1 2.39 2.51zm-.847.107c0-1.28-.737-1.92-1.54-1.92-.749 0-1.53.608-1.53 1.92 0 1.31.825 1.85 1.53 1.85.759 0 1.54-.564 1.54-1.85" style=""/><path d="m133.4 135h-.814l-.856-2.26c-.228-.597-.564-1.48-.652-1.99h-.011c-.065.391-.347 1.14-.456 1.43l-1.05 2.81h-.846l1.87-4.82h.954l1.87 4.82" style=""/><path d="m135.3 130.2v4.82h-.814v-4.82zm.088 6.14v.966h-.966v-.966z" style=""/><path d="m140.9 130.2v7.53h-.814v-3.19c-.575.476-1.18.597-1.58.597-1.07 0-1.92-1.13-1.92-2.53 0-1.42.836-2.53 1.86-2.53.36 0 .999.097 1.61.683v-.564zm-.846 1.51c0-.152-.011-.347-.358-.661-.25-.217-.521-.305-.803-.305-.672 0-1.46.511-1.46 1.86 0 1.43.932 1.88 1.57 1.88.487 0 .812-.25 1.05-.597v-2.17" style=""/><path d="m146.4 132.6c0 .368-.011 1.18-.434 1.83-.445.674-1.11.793-1.5.793-1.2 0-2.18-1.15-2.18-2.55 0-1.43 1.04-2.57 2.34-2.57.685 0 1.3.26 1.72.564l-.064.705c-.684-.564-1.4-.608-1.65-.608-.868 0-1.56.771-1.6 1.84zm-.619.596h-2.68c.173.825.748 1.37 1.37 1.37.564 0 1.17-.369 1.31-1.37" style=""/><path d="m153.9 130.5-.175.641c-.281-.228-.628-.358-.976-.358-.402 0-.554.325-.554.9v2.71h1.53v.628h-1.53v1.38h-.748v-1.38h-.944v-.628h.911v-2.9c0-.65.152-1.41.902-1.41.759 0 1.31.271 1.58.411" style=""/><path d="m157.8 134.4v.729c-.965-.011-1.56-.544-1.9-1.04v.988h-.761v-4.88h.814v2.32c0 1.09.781 1.87 1.84 1.89" style=""/><path d="m162.4 130.2v3.14c0 1.11-.793 1.87-1.79 1.87-.705 0-1.19-.174-1.7-.466l.065-.717c.564.401 1.11.544 1.64.544.511 0 .945-.435.945-1.24v-.467c-1.63-.022-3.01-.477-3.01-1.43 0-.468.292-1.35 1.24-1.35.152 0 1.17.022 1.8.51v-.391zm-.846 1.43c0-.206 0-.478-.37-.685-.314-.195-.727-.206-.845-.206-.522 0-1.01.25-1.01.706 0 .76 1.76.835 2.22.857v-.672" style=""/><path d="m165 130.2v4.82h-.814v-4.82zm.088 6.14v.966h-.966v-.966z" style=""/><path d="m169.5 130.5-.175.641c-.281-.228-.628-.358-.976-.358-.402 0-.554.325-.554.9v2.71h1.53v.628h-1.53v1.38h-.748v-1.38h-.944v-.628h.911v-2.9c0-.65.152-1.41.902-1.41.759 0 1.31.271 1.58.411" style=""/><path d="m173.7 131.6c0 .597-.401.966-.423.999-.424.379-.716.443-1.26.542-.597.118-1.1.228-1.1.759 0 .674.781.674.922.674.348 0 .923-.044 1.54-.413l.13.705c-.564.261-1.01.347-1.56.347-.271 0-1.8 0-1.8-1.42 0-.533.315-.879.586-1.09.336-.239.575-.281 1.17-.401.39-.075 1.02-.206 1.02-.781 0-.749-.858-.749-1.02-.749-.878 0-1.49.402-1.68.531l-.131-.737c.349-.174.945-.477 1.82-.477.195 0 .792 0 1.26.347.336.26.52.694.52 1.16" style=""/><path d="m181.2 130.5-.175.641c-.281-.228-.628-.358-.976-.358-.402 0-.554.325-.554.9v2.71h1.53v.628h-1.53v1.38h-.748v-1.38h-.944v-.628h.911v-2.9c0-.65.152-1.41.902-1.41.759 0 1.31.271 1.58.411" style=""/><path d="m186.7 132.6c0 1.45-1.09 2.61-2.38 2.61-1.34 0-2.39-1.19-2.39-2.61 0-1.43 1.11-2.51 2.38-2.51 1.3 0 2.39 1.1 2.39 2.51zm-.847.107c0-1.28-.737-1.92-1.54-1.92-.749 0-1.53.608-1.53 1.92 0 1.31.825 1.85 1.53 1.85.759 0 1.54-.564 1.54-1.85" style=""/><path d="m195.3 130.2v4.82h-.847v-3.15c0-.812-.607-1.19-1.3-1.19-.77 0-.847.281-.847.749v3.59h-.847v-3.63c0-.781.25-1.3 1.15-1.3.575 0 1.34.174 1.88.639v-.52h.814" style=""/><path d="m200 131.6c0 .597-.401.966-.423.999-.424.379-.716.443-1.26.542-.597.118-1.1.228-1.1.759 0 .674.781.674.922.674.348 0 .923-.044 1.54-.413l.13.705c-.564.261-1.01.347-1.56.347-.271 0-1.8 0-1.8-1.42 0-.533.315-.879.586-1.09.336-.239.575-.281 1.17-.401.39-.075 1.02-.206 1.02-.781 0-.749-.858-.749-1.02-.749-.878 0-1.49.402-1.68.531l-.131-.737c.349-.174.945-.477 1.82-.477.195 0 .792 0 1.26.347.336.26.52.694.52 1.16" style=""/><path d="m205 132.6c0 .368-.011 1.18-.434 1.83-.445.674-1.11.793-1.5.793-1.2 0-2.18-1.15-2.18-2.55 0-1.43 1.04-2.57 2.34-2.57.685 0 1.3.26 1.72.564l-.064.705c-.684-.564-1.4-.608-1.65-.608-.868 0-1.56.771-1.6 1.84zm-.619.596h-2.68c.173.825.748 1.37 1.37 1.37.564 0 1.17-.369 1.31-1.37" style=""/><path d="m213.4 130.6-.065.727c-.554-.434-1.14-.586-1.69-.586-.9 0-1.51.781-1.51 1.84 0 .846.401 1.89 1.55 1.89.564 0 .933-.088 1.53-.478l.129.706c-.64.369-1.01.466-1.67.466-1.51 0-2.39-1.31-2.39-2.59 0-1.34.987-2.53 2.34-2.53.586 0 1.18.152 1.77.553" style=""/><path d="m218.9 132.6c0 1.45-1.09 2.61-2.38 2.61-1.34 0-2.39-1.19-2.39-2.61 0-1.43 1.11-2.51 2.38-2.51 1.3 0 2.39 1.1 2.39 2.51zm-.847.107c0-1.28-.737-1.92-1.54-1.92-.749 0-1.53.608-1.53 1.92 0 1.31.825 1.85 1.53 1.85.759 0 1.54-.564 1.54-1.85" style=""/><path d="m226.9 130.2v3.23c0 .728-.173 1.7-1.49 1.7-.652 0-1.22-.305-1.62-.891-.281.825-1.04.891-1.39.891-.781 0-1.29-.446-1.58-.836v.781h-.781v-4.88h.847v2.66c0 .739.294 1.62 1.1 1.62 1.01 0 1.06-.705 1.06-1.12v-3.16h.847v2.66c0 .739.292 1.62 1.1 1.62 1.01 0 1.06-.705 1.06-1.12v-3.16h.845" style=""/><path d="m235.6 130.2v3.23c0 .728-.173 1.7-1.49 1.7-.652 0-1.22-.305-1.62-.891-.281.825-1.04.891-1.39.891-.781 0-1.29-.446-1.58-.836v.781h-.781v-4.88h.847v2.66c0 .739.294 1.62 1.1 1.62 1.01 0 1.06-.705 1.06-1.12v-3.16h.847v2.66c0 .739.292 1.62 1.1 1.62 1.01 0 1.06-.705 1.06-1.12v-3.16h.845" style=""/><path d="m241.7 132.6c0 1.45-1.09 2.61-2.38 2.61-1.34 0-2.39-1.19-2.39-2.61 0-1.43 1.11-2.51 2.38-2.51 1.3 0 2.39 1.1 2.39 2.51zm-.847.107c0-1.28-.737-1.92-1.54-1.92-.749 0-1.53.608-1.53 1.92 0 1.31.825 1.85 1.53 1.85.759 0 1.54-.564 1.54-1.85" style=""/><path d="m246.7 130.2v3.23c0 .717-.162 1.7-1.49 1.7-.977 0-1.51-.74-1.57-.825v.77h-.781v-4.88h.847v2.66c0 .717.272 1.62 1.1 1.62 1.04 0 1.05-.77 1.05-1.12v-3.16h.847" style=""/><path d="m255.8 130.6-.065.727c-.554-.434-1.14-.586-1.69-.586-.9 0-1.51.781-1.51 1.84 0 .846.401 1.89 1.55 1.89.564 0 .933-.088 1.53-.478l.129.706c-.64.369-1.01.466-1.67.466-1.51 0-2.39-1.31-2.39-2.59 0-1.34.987-2.53 2.34-2.53.586 0 1.18.152 1.77.553" style=""/><path d="m261.2 132.6c0 1.45-1.09 2.61-2.38 2.61-1.34 0-2.39-1.19-2.39-2.61 0-1.43 1.11-2.51 2.38-2.51 1.3 0 2.39 1.1 2.39 2.51zm-.847.107c0-1.28-.737-1.92-1.54-1.92-.749 0-1.53.608-1.53 1.92 0 1.31.825 1.85 1.53 1.85.759 0 1.54-.564 1.54-1.85" style=""/><path d="m266.3 130.2v3.23c0 .717-.162 1.7-1.49 1.7-.977 0-1.51-.74-1.57-.825v.77h-.781v-4.88h.847v2.66c0 .717.272 1.62 1.1 1.62 1.04 0 1.05-.77 1.05-1.12v-3.16h.847" style=""/><path d="m271.7 130.6-.065.727c-.554-.434-1.14-.586-1.69-.586-.9 0-1.51.781-1.51 1.84 0 .846.401 1.89 1.55 1.89.564 0 .933-.088 1.53-.478l.129.706c-.64.369-1.01.466-1.67.466-1.51 0-2.39-1.31-2.39-2.59 0-1.34.987-2.53 2.34-2.53.586 0 1.18.152 1.77.553" style=""/><path d="m276.6 132.6c0 .368-.011 1.18-.434 1.83-.445.674-1.11.793-1.5.793-1.2 0-2.18-1.15-2.18-2.55 0-1.43 1.04-2.57 2.34-2.57.685 0 1.3.26 1.72.564l-.064.705c-.684-.564-1.4-.608-1.65-.608-.868 0-1.56.771-1.6 1.84zm-.619.596h-2.68c.173.825.748 1.37 1.37 1.37.564 0 1.17-.369 1.31-1.37" style=""/><path d="m282.1 132.6c0 1.3-.683 2.52-1.72 2.52-.652 0-1.28-.229-1.78-.652v.531h-.814v-6.92h.847v2.6c.336-.314.814-.617 1.47-.617 1.05 0 2.01 1.06 2.01 2.54zm-.845 0c0-1.12-.771-1.88-1.58-1.88-.423 0-.717.217-.933.511-.109.163-.109.185-.109.38v2.18c.261.381.684.629 1.15.629.825 0 1.48-.825 1.48-1.82" style=""/><path d="m286.1 130.5-.175.641c-.281-.228-.628-.358-.976-.358-.402 0-.554.325-.554.9v2.71h1.53v.628h-1.53v1.38h-.748v-1.38h-.944v-.628h.911v-2.9c0-.65.152-1.41.902-1.41.759 0 1.31.271 1.58.411" style=""/><path d="m290.4 131.6c0 .597-.401.966-.423.999-.424.379-.716.443-1.26.542-.597.118-1.1.228-1.1.759 0 .674.781.674.922.674.348 0 .923-.044 1.54-.413l.13.705c-.564.261-1.01.347-1.56.347-.271 0-1.8 0-1.8-1.42 0-.533.315-.879.586-1.09.336-.239.575-.281 1.17-.401.39-.075 1.02-.206 1.02-.781 0-.749-.858-.749-1.02-.749-.878 0-1.49.402-1.68.531l-.131-.737c.349-.174.945-.477 1.82-.477.195 0 .792 0 1.26.347.336.26.52.694.52 1.16" style=""/><path d="m297.9 127.5c-.522.52-1.9 1.92-1.9 5.42 0 .607.033 1.88.478 3.16.446 1.26 1.06 1.91 1.42 2.27h-.662c-.347-.325-1.08-.988-1.57-2.32-.434-1.16-.509-2.31-.509-3.1 0-3.5 1.56-4.95 2.08-5.42h.662" style=""/><path d="m300 130.2v7.53h-.966v-7.53z" style=""/><path d="m306.5 130.2v.77h-1.98c-.13 0-.261-.011-.391-.011h-1.18c.347.305 1.17 1.12 1.51 1.43.207.196.761.65.967.846.488.489 1.07 1.06 1.07 1.98 0 1.25-.878 2.33-2.31 2.33-1.24 0-1.84-.845-2.1-1.78.13-.185.185-.249.207-.282.02-.022.129-.162.237-.315.217.836.522 1.68 1.51 1.68 1.02 0 1.57-.815 1.57-1.66 0-.922-.619-1.54-1.26-2.19l-.835-.77-1.35-1.35v-.694h4.33" style=""/><path d="m313.4 130.7-.064.75c-.316-.218-.63-.424-.999-.533-.347-.119-.726-.13-1.1-.13-.704 0-1.34.38-1.79.933-.5.64-.739 1.44-.739 2.26s.239 1.63.739 2.27c.444.553 1.08.933 1.79.933.327 0 .663-.033.977-.13.327-.098.63-.261.912-.456l.152.89c-.325.13-.662.239-1.01.303-.336.066-.683.088-1.03.088-.954 0-1.83-.434-2.47-1.14-.672-.761-1.02-1.75-1.02-2.76s.348-2 1.02-2.75c.641-.706 1.52-1.14 2.47-1.14.38 0 .761.011 1.13.119.369.097.705.292 1.03.488" style=""/><path d="m316 130.2v.889h-.9v-.9h.27l-.27-1.36h.444l.456 1.37" style=""/><path d="m326.1 132.2c0 .706-.336 1.23-.575 1.49-.509.542-.867.64-1.87.889-.629.153-.803.195-1.13.478-.076.065-.381.379-.381.856 0 .641.586 1.29 1.58 1.29.913 0 1.43-.358 1.84-.695l.162.869c-.597.357-1.19.542-1.99.542-1.51 0-2.45-1.06-2.45-2.14 0-.465.151-.922.586-1.38.456-.487.933-.619 1.57-.77.922-.228 1.03-.261 1.34-.531.217-.185.456-.543.456-1.01 0-.715-.597-1.43-1.58-1.43-.445 0-1.42.11-2.33.88l-.163-.88c.955-.596 1.82-.748 2.51-.748 1.43 0 2.43 1.1 2.43 2.29" style=""/><path d="m333 135.5c0 1.16-1.08 2.19-2.57 2.19h-2.7v-7.53h.966v3.14h1.81c1.35 0 2.5.987 2.5 2.2zm-.88 0c0-.858-.683-1.57-1.93-1.57h-1.53v3.16h1.53c1.19 0 1.93-.662 1.93-1.58" style=""/><path d="m335.7 130.2v7.53h-.966v-7.53z" style=""/><path d="m338.7 130.2v.889h-.9v-.9h.27l-.27-1.36h.444l.456 1.37" style=""/><path d="m350.6 133.9c0 2.1-1.46 3.83-3.33 3.83h-2.84v-7.53h2.85c1.85 0 3.32 1.65 3.32 3.7zm-.933 0c0-1.84-1.13-3.09-2.65-3.09h-1.66v6.32h1.66c1.52 0 2.65-1.31 2.65-3.22" style=""/><path d="m359.7 130.2v7.53h-1.24l-1.41-3.68c-.382-.988-.891-2.33-1.01-2.84h-.011c-.054.229-.184.63-.347 1.08l-1.7 4.49-.369.944h-1.23v-7.53h.847v6.73h.011c.066-.348.499-1.53.781-2.27l1.61-4.22h.792l1.44 3.78.522 1.38c.108.316.402 1.1.455 1.35l.011-.01v-6.73h.846" style=""/><path d="m367.7 130.2-2.83 7.53h-.955l-2.83-7.53h.803l.836 2.21h3.16l.825-2.21zm-2.06 2.82h-2.69c.553 1.55.152.411.705 1.96.228.641.564 1.56.641 1.96h.011c.021-.151.096-.421.346-1.14l.988-2.79" style=""/><path d="m370.1 130.2v.889h-.9v-.9h.27l-.27-1.36h.444l.456 1.37" style=""/><path d="m376.8 130.2v.9h-.9v-.9z" style=""/><path d="m379.8 130.2v.9h-.9v-.9z" style=""/><path d="m382.8 130.2v.9h-.9v-.9z" style=""/><path d="m387.3 132.9c0 3.5-1.56 4.95-2.08 5.42h-.661c.52-.521 1.9-1.92 1.9-5.42 0-.608-.033-1.88-.476-3.16-.446-1.26-1.06-1.91-1.42-2.27h.661c.348.325 1.08.987 1.57 2.32.435 1.16.511 2.31.511 3.1" style=""/><path d="m394.6 130.2v4.82h-.814v-4.82zm.088 6.14v.966h-.966v-.966z" style=""/><path d="m400 130.2v3.23c0 .717-.162 1.7-1.49 1.7-.977 0-1.51-.74-1.57-.825v.77h-.781v-4.88h.847v2.66c0 .717.272 1.62 1.1 1.62 1.04 0 1.05-.77 1.05-1.12v-3.16h.847" style=""/><path d="m409.2 130.2v3.14c0 1.11-.793 1.87-1.79 1.87-.705 0-1.19-.174-1.7-.466l.065-.717c.564.401 1.11.544 1.64.544.511 0 .945-.435.945-1.24v-.467c-1.63-.022-3.01-.477-3.01-1.43 0-.468.292-1.35 1.24-1.35.152 0 1.17.022 1.8.51v-.391zm-.846 1.43c0-.206 0-.478-.37-.685-.314-.195-.727-.206-.845-.206-.522 0-1.01.25-1.01.706 0 .76 1.76.835 2.22.857v-.672" style=""/><path d="m32.2 118c0 .597-.402.966-.424.999-.423.379-.716.443-1.26.542-.597.118-1.1.228-1.1.759 0 .674.781.674.922.674.348 0 .923-.044 1.54-.413l.13.705c-.564.261-1.01.347-1.56.347-.272 0-1.8 0-1.8-1.42 0-.533.316-.879.586-1.09.336-.239.575-.281 1.17-.401.391-.075 1.02-.206 1.02-.781 0-.749-.858-.749-1.02-.749-.878 0-1.49.402-1.68.531l-.131-.737c.348-.174.945-.477 1.82-.477.195 0 .792 0 1.26.347.336.26.52.694.52 1.16" style=""/><path d="m36.9 116.6v3.14c0 1.11-.792 1.87-1.79 1.87-.705 0-1.19-.174-1.7-.466l.0656-.717c.564.401 1.11.544 1.64.544.511 0 .945-.435.945-1.24v-.467c-1.63-.022-3.01-.477-3.01-1.43 0-.468.292-1.35 1.24-1.35.152 0 1.17.022 1.8.51v-.391zm-.845 1.43c0-.206 0-.478-.37-.685-.314-.195-.727-.206-.845-.206-.522 0-1.01.25-1.01.706 0 .76 1.76.835 2.22.857v-.672" style=""/><path d="m41.6 123.4v.727c-.131.033-.467.12-.869.12-1.02 0-1.8-.77-1.8-1.86v-.977h-.803v-.628h.803v-4.19h.814v4.19h1.19v.628h-1.23v1.29c0 .804.728.879 1.01.879.217 0 .511-.022.88-.185" style=""/><path d="m45.6 119c0 .368-.0109 1.18-.434 1.83-.445.674-1.11.793-1.5.793-1.2 0-2.18-1.15-2.18-2.55 0-1.43 1.04-2.57 2.34-2.57.684 0 1.3.26 1.72.564l-.064.705c-.684-.564-1.4-.608-1.65-.608-.869 0-1.56.771-1.6 1.84zm-.619.596h-2.68c.173.825.748 1.37 1.37 1.37.564 0 1.17-.369 1.31-1.37" style=""/><path d="m57.3 116.6v3.23c0 .728-.173 1.7-1.49 1.7-.652 0-1.22-.305-1.62-.891-.281.825-1.04.891-1.39.891-.781 0-1.29-.446-1.58-.836v.781h-.781v-4.88h.847v2.66c0 .739.294 1.62 1.1 1.62 1.01 0 1.06-.705 1.06-1.12v-3.16h.847v2.66c0 .739.292 1.62 1.1 1.62 1.01 0 1.06-.705 1.06-1.12v-3.16h.845" style=""/><path d="m62.6 116.6v3.14c0 1.11-.792 1.87-1.79 1.87-.705 0-1.19-.174-1.7-.466l.0656-.717c.564.401 1.11.544 1.64.544.511 0 .945-.435.945-1.24v-.467c-1.63-.022-3.01-.477-3.01-1.43 0-.468.292-1.35 1.24-1.35.152 0 1.17.022 1.8.51v-.391zm-.845 1.43c0-.206 0-.478-.37-.685-.314-.195-.727-.206-.845-.206-.522 0-1.01.25-1.01.706 0 .76 1.76.835 2.22.857v-.672" style=""/><path d="m68.2 116.6v3.23c0 .717-.162 1.7-1.49 1.7-.976 0-1.51-.74-1.57-.825v.77h-.781v-4.88h.847v2.66c0 .717.272 1.62 1.1 1.62 1.04 0 1.05-.77 1.05-1.12v-3.16h.847" style=""/><path d="m73.8 116.6v3.23c0 .717-.162 1.7-1.49 1.7-.976 0-1.51-.74-1.57-.825v.77h-.781v-4.88h.847v2.66c0 .717.272 1.62 1.1 1.62 1.04 0 1.05-.77 1.05-1.12v-3.16h.847" style=""/><path d="m79.3 119c0 .368-.0109 1.18-.434 1.83-.445.674-1.11.793-1.5.793-1.2 0-2.18-1.15-2.18-2.55 0-1.43 1.04-2.57 2.34-2.57.684 0 1.3.26 1.72.564l-.064.705c-.684-.564-1.4-.608-1.65-.608-.869 0-1.56.771-1.6 1.84zm-.619.596h-2.68c.173.825.748 1.37 1.37 1.37.564 0 1.17-.369 1.31-1.37" style=""/><path d="m83.1 120.8v.729c-.966-.011-1.56-.544-1.9-1.04v.988h-.761v-4.88h.814v2.32c0 1.09.781 1.87 1.85 1.89" style=""/><path d="m85.3 116.6v.9h-.9v-.9z" style=""/><path d="m35.3 109.9v.707h-6.6v-.707h1.45c.13 0 .259.011.391.011h.977v-6.77h.966v6.77h.966c.13 0 .259-.011.391-.011h1.45" style=""/><path d="m38.4 107.3v.729c-.966-.011-1.56-.544-1.9-1.04v.988h-.761v-4.88h.814v2.32c0 1.09.781 1.87 1.85 1.89" style=""/><path d="m43 103.1v3.14c0 1.11-.792 1.87-1.79 1.87-.705 0-1.19-.174-1.7-.466l.0656-.717c.564.401 1.11.544 1.64.544.511 0 .945-.435.945-1.24v-.467c-1.63-.022-3.01-.477-3.01-1.43 0-.468.292-1.35 1.24-1.35.152 0 1.17.022 1.8.51v-.391zm-.845 1.43c0-.206 0-.478-.37-.685-.314-.195-.727-.206-.845-.206-.522 0-1.01.25-1.01.706 0 .76 1.76.835 2.22.857v-.672" style=""/><path d="m45.5 103.1v4.82h-.814v-4.82zm.0875 6.14v.966h-.966v-.966z" style=""/><path d="m50.1 103.4-.175.641c-.281-.228-.628-.358-.976-.358-.402 0-.553.325-.553.9v2.71h1.53v.628h-1.53v1.38h-.748v-1.38h-.944v-.628h.911v-2.9c0-.65.152-1.41.902-1.41.759 0 1.31.271 1.58.411" style=""/><path d="m54.3 104.5c0 .597-.402.966-.424.999-.423.379-.716.443-1.26.542-.597.118-1.1.228-1.1.759 0 .674.781.674.922.674.348 0 .923-.044 1.54-.413l.13.705c-.564.261-1.01.347-1.56.347-.272 0-1.8 0-1.8-1.42 0-.533.316-.879.586-1.09.336-.239.575-.281 1.17-.401.391-.075 1.02-.206 1.02-.781 0-.749-.858-.749-1.02-.749-.878 0-1.49.402-1.68.531l-.131-.737c.348-.174.945-.477 1.82-.477.195 0 .792 0 1.26.347.336.26.52.694.52 1.16" style=""/><path d="m62.1 104.5c0 .597-.402.966-.424.999-.423.379-.716.443-1.26.542-.597.118-1.1.228-1.1.759 0 .674.781.674.922.674.348 0 .923-.044 1.54-.413l.13.705c-.564.261-1.01.347-1.56.347-.272 0-1.8 0-1.8-1.42 0-.533.316-.879.586-1.09.336-.239.575-.281 1.17-.401.391-.075 1.02-.206 1.02-.781 0-.749-.858-.749-1.02-.749-.878 0-1.49.402-1.68.531l-.131-.737c.348-.174.945-.477 1.82-.477.195 0 .792 0 1.26.347.336.26.52.694.52 1.16" style=""/><path d="m66 103.4-.175.641c-.281-.228-.628-.358-.976-.358-.402 0-.553.325-.553.9v2.71h1.53v.628h-1.53v1.38h-.748v-1.38h-.944v-.628h.911v-2.9c0-.65.152-1.41.902-1.41.759 0 1.31.271 1.58.411" style=""/><path d="m68 103.1v4.82h-.814v-4.82zm.0875 6.14v.966h-.966v-.966z" style=""/><path d="m70.6 103.1v7.53h-.814v-7.53z" style=""/><path d="m73.2 103.1v7.53h-.814v-7.53z" style=""/><path d="m82.5 103.1v3.23c0 .717-.162 1.7-1.49 1.7-.976 0-1.51-.74-1.57-.825v.77h-.781v-4.88h.847v2.66c0 .717.272 1.62 1.1 1.62 1.04 0 1.05-.77 1.05-1.12v-3.16h.847" style=""/><path d="m87.9 105.5c0 .368-.0109 1.18-.434 1.83-.445.674-1.11.793-1.5.793-1.2 0-2.18-1.15-2.18-2.55 0-1.43 1.04-2.57 2.34-2.57.684 0 1.3.26 1.72.564l-.064.705c-.684-.564-1.4-.608-1.65-.608-.869 0-1.56.771-1.6 1.84zm-.619.596h-2.68c.173.825.748 1.37 1.37 1.37.564 0 1.17-.369 1.31-1.37" style=""/><path d="m92.8 105.5c0 .368-.0109 1.18-.434 1.83-.445.674-1.11.793-1.5.793-1.2 0-2.18-1.15-2.18-2.55 0-1.43 1.04-2.57 2.34-2.57.684 0 1.3.26 1.72.564l-.064.705c-.684-.564-1.4-.608-1.65-.608-.869 0-1.56.771-1.6 1.84zm-.619.596h-2.68c.173.825.748 1.37 1.37 1.37.564 0 1.17-.369 1.31-1.37" style=""/><path d="m97.8 103.1v7.53h-.814v-3.19c-.575.476-1.18.597-1.58.597-1.07 0-1.92-1.13-1.92-2.53 0-1.42.836-2.53 1.87-2.53.359 0 .998.097 1.61.683v-.564zm-.847 1.51c0-.152-.0109-.347-.358-.661-.25-.217-.52-.305-.803-.305-.672 0-1.46.511-1.46 1.86 0 1.43.933 1.88 1.57 1.88.488 0 .812-.25 1.05-.597v-2.17" style=""/><path d="m106 103.4-.175.641c-.281-.228-.628-.358-.976-.358-.402 0-.554.325-.554.9v2.71h1.53v.628h-1.53v1.38h-.748v-1.38h-.944v-.628h.911v-2.9c0-.65.152-1.41.902-1.41.759 0 1.31.271 1.58.411" style=""/><path d="m111.4 105.5c0 1.45-1.09 2.61-2.38 2.61-1.34 0-2.39-1.19-2.39-2.61 0-1.43 1.11-2.51 2.38-2.51 1.3 0 2.39 1.1 2.39 2.51zm-.847.107c0-1.28-.737-1.92-1.54-1.92-.749 0-1.53.608-1.53 1.92 0 1.31.825 1.85 1.53 1.85.759 0 1.54-.564 1.54-1.85" style=""/><path d="m120.6 105.5c0 1.35-.738 2.52-1.76 2.52-.423 0-1.1-.11-1.75-.641v3.23h-.814v-7.53h.847v.498c.261-.237.727-.617 1.46-.617 1.08 0 2.02 1.08 2.02 2.54zm-.845 0c0-1.41-.913-1.88-1.57-1.88-.423 0-.781.196-1.05.696v2.4c.173.261.564.641 1.16.641.641 0 1.47-.467 1.47-1.86" style=""/><path d="m125.8 105.5c0 .368-.011 1.18-.434 1.83-.445.674-1.11.793-1.5.793-1.2 0-2.18-1.15-2.18-2.55 0-1.43 1.04-2.57 2.34-2.57.685 0 1.3.26 1.72.564l-.064.705c-.684-.564-1.4-.608-1.65-.608-.868 0-1.56.771-1.6 1.84zm-.619.596h-2.68c.173.825.748 1.37 1.37 1.37.564 0 1.17-.369 1.31-1.37" style=""/><path d="m131.5 103.1v4.82h-.814v-4.82zm.088 6.14v.966h-.966v-.966z" style=""/><path d="m140.1 103.1v3.23c0 .728-.173 1.7-1.49 1.7-.652 0-1.22-.305-1.62-.891-.281.825-1.04.891-1.39.891-.781 0-1.29-.446-1.58-.836v.781h-.781v-4.88h.847v2.66c0 .739.294 1.62 1.1 1.62 1.01 0 1.06-.705 1.06-1.12v-3.16h.847v2.66c0 .739.292 1.62 1.1 1.62 1.01 0 1.06-.705 1.06-1.12v-3.16h.845" style=""/><path d="m146.3 105.5c0 1.3-.683 2.52-1.72 2.52-.652 0-1.28-.229-1.78-.652v.531h-.814v-6.92h.847v2.6c.336-.314.814-.617 1.47-.617 1.05 0 2.01 1.06 2.01 2.54zm-.845 0c0-1.12-.771-1.88-1.58-1.88-.423 0-.717.217-.933.511-.109.163-.109.185-.109.38v2.18c.261.381.684.629 1.15.629.825 0 1.48-.825 1.48-1.82" style=""/><path d="m148.4 103.1v7.53h-.814v-7.53z" style=""/><path d="m153.8 105.5c0 .368-.011 1.18-.434 1.83-.445.674-1.11.793-1.5.793-1.2 0-2.18-1.15-2.18-2.55 0-1.43 1.04-2.57 2.34-2.57.685 0 1.3.26 1.72.564l-.064.705c-.684-.564-1.4-.608-1.65-.608-.868 0-1.56.771-1.6 1.84zm-.619.596h-2.68c.173.825.748 1.37 1.37 1.37.564 0 1.17-.369 1.31-1.37" style=""/><path d="m161.9 103.1v3.23c0 .728-.173 1.7-1.49 1.7-.652 0-1.22-.305-1.62-.891-.281.825-1.04.891-1.39.891-.781 0-1.29-.446-1.58-.836v.781h-.781v-4.88h.847v2.66c0 .739.294 1.62 1.1 1.62 1.01 0 1.06-.705 1.06-1.12v-3.16h.847v2.66c0 .739.292 1.62 1.1 1.62 1.01 0 1.06-.705 1.06-1.12v-3.16h.845" style=""/><path d="m167.3 105.5c0 .368-.011 1.18-.434 1.83-.445.674-1.11.793-1.5.793-1.2 0-2.18-1.15-2.18-2.55 0-1.43 1.04-2.57 2.34-2.57.685 0 1.3.26 1.72.564l-.064.705c-.684-.564-1.4-.608-1.65-.608-.868 0-1.56.771-1.6 1.84zm-.619.596h-2.68c.173.825.748 1.37 1.37 1.37.564 0 1.17-.369 1.31-1.37" style=""/><path d="m172.4 103.1v3.23c0 .717-.162 1.7-1.49 1.7-.977 0-1.51-.74-1.57-.825v.77h-.781v-4.88h.847v2.66c0 .717.272 1.62 1.1 1.62 1.04 0 1.05-.77 1.05-1.12v-3.16h.847" style=""/><path d="m176.9 103.4-.175.641c-.281-.228-.628-.358-.976-.358-.402 0-.554.325-.554.9v2.71h1.53v.628h-1.53v1.38h-.748v-1.38h-.944v-.628h.911v-2.9c0-.65.152-1.41.902-1.41.759 0 1.31.271 1.58.411" style=""/><path d="m181.8 105.5c0 .368-.011 1.18-.434 1.83-.445.674-1.11.793-1.5.793-1.2 0-2.18-1.15-2.18-2.55 0-1.43 1.04-2.57 2.34-2.57.685 0 1.3.26 1.72.564l-.064.705c-.684-.564-1.4-.608-1.65-.608-.868 0-1.56.771-1.6 1.84zm-.619.596h-2.68c.173.825.748 1.37 1.37 1.37.564 0 1.17-.369 1.31-1.37" style=""/><path d="m186.8 103.1v7.53h-.814v-3.19c-.575.476-1.18.597-1.58.597-1.07 0-1.92-1.13-1.92-2.53 0-1.42.836-2.53 1.86-2.53.36 0 .999.097 1.61.683v-.564zm-.846 1.51c0-.152-.011-.347-.358-.661-.25-.217-.521-.305-.803-.305-.672 0-1.46.511-1.46 1.86 0 1.43.932 1.88 1.57 1.88.487 0 .812-.25 1.05-.597v-2.17" style=""/><path d="m195.2 109.9v.727c-.132.033-.468.12-.869.12-1.02 0-1.8-.77-1.8-1.86v-.977h-.803v-.628h.803v-4.19h.814v4.19h1.19v.628h-1.23v1.29c0 .804.728.879 1.01.879.217 0 .511-.022.88-.185" style=""/><path d="m200 105.5c0 1.45-1.09 2.61-2.38 2.61-1.34 0-2.39-1.19-2.39-2.61 0-1.43 1.11-2.51 2.38-2.51 1.3 0 2.39 1.1 2.39 2.51zm-.847.107c0-1.28-.737-1.92-1.54-1.92-.749 0-1.53.608-1.53 1.92 0 1.31.825 1.85 1.53 1.85.759 0 1.54-.564 1.54-1.85" style=""/><path d="m203.4 107.3v.729c-.965-.011-1.56-.544-1.9-1.04v.988h-.761v-4.88h.814v2.32c0 1.09.781 1.87 1.84 1.89" style=""/><path d="m211.7 105.5c0 .368-.011 1.18-.434 1.83-.445.674-1.11.793-1.5.793-1.2 0-2.18-1.15-2.18-2.55 0-1.43 1.04-2.57 2.34-2.57.685 0 1.3.26 1.72.564l-.064.705c-.684-.564-1.4-.608-1.65-.608-.868 0-1.56.771-1.6 1.84zm-.619.596h-2.68c.173.825.748 1.37 1.37 1.37.564 0 1.17-.369 1.31-1.37" style=""/><path d="m216.5 103.1v3.14c0 1.11-.793 1.87-1.79 1.87-.705 0-1.19-.174-1.7-.466l.065-.717c.564.401 1.11.544 1.64.544.511 0 .945-.435.945-1.24v-.467c-1.63-.022-3.01-.477-3.01-1.43 0-.468.292-1.35 1.24-1.35.152 0 1.17.022 1.8.51v-.391zm-.846 1.43c0-.206 0-.478-.37-.685-.314-.195-.727-.206-.845-.206-.522 0-1.01.25-1.01.706 0 .76 1.76.835 2.22.857v-.672" style=""/><path d="m221.8 103.5-.065.727c-.554-.434-1.14-.586-1.69-.586-.9 0-1.51.781-1.51 1.84 0 .846.401 1.89 1.55 1.89.564 0 .933-.088 1.53-.478l.129.706c-.64.369-1.01.466-1.67.466-1.51 0-2.39-1.31-2.39-2.59 0-1.34.987-2.53 2.34-2.53.586 0 1.18.152 1.77.553" style=""/><path d="m226.9 103.1v3.23c0 .717-.162 1.7-1.49 1.7-.672 0-1.19-.338-1.54-.782v3.37h-.814v-7.53h.847v2.66c0 .717.272 1.62 1.1 1.62 1.04 0 1.05-.77 1.05-1.12v-3.16h.847" style=""/><path d="m239.1 103.1v3.23c0 .728-.173 1.7-1.49 1.7-.652 0-1.22-.305-1.62-.891-.281.825-1.04.891-1.39.891-.781 0-1.29-.446-1.58-.836v.781h-.781v-4.88h.847v2.66c0 .739.294 1.62 1.1 1.62 1.01 0 1.06-.705 1.06-1.12v-3.16h.847v2.66c0 .739.292 1.62 1.1 1.62 1.01 0 1.06-.705 1.06-1.12v-3.16h.845" style=""/><path d="m241.8 103.1v4.82h-.814v-4.82zm.088 6.14v.966h-.966v-.966z" style=""/><path d="m247.2 103.5-.065.727c-.554-.434-1.14-.586-1.69-.586-.9 0-1.51.781-1.51 1.84 0 .846.401 1.89 1.55 1.89.564 0 .933-.088 1.53-.478l.129.706c-.64.369-1.01.466-1.67.466-1.51 0-2.39-1.31-2.39-2.59 0-1.34.987-2.53 2.34-2.53.586 0 1.18.152 1.77.553" style=""/><path d="m251 107.3v.729c-.965-.011-1.56-.544-1.9-1.04v.988h-.761v-4.88h.814v2.32c0 1.09.781 1.87 1.84 1.89" style=""/><path d="m256.4 105.5c0 1.45-1.09 2.61-2.38 2.61-1.34 0-2.39-1.19-2.39-2.61 0-1.43 1.11-2.51 2.38-2.51 1.3 0 2.39 1.1 2.39 2.51zm-.847.107c0-1.28-.737-1.92-1.54-1.92-.749 0-1.53.608-1.53 1.92 0 1.31.825 1.85 1.53 1.85.759 0 1.54-.564 1.54-1.85" style=""/><path d="m261.5 103.5-.065.727c-.554-.434-1.14-.586-1.69-.586-.9 0-1.51.781-1.51 1.84 0 .846.401 1.89 1.55 1.89.564 0 .933-.088 1.53-.478l.129.706c-.64.369-1.01.466-1.67.466-1.51 0-2.39-1.31-2.39-2.59 0-1.34.987-2.53 2.34-2.53.586 0 1.18.152 1.77.553" style=""/><path d="m267 105.5c0 1.45-1.09 2.61-2.38 2.61-1.34 0-2.39-1.19-2.39-2.61 0-1.43 1.11-2.51 2.38-2.51 1.3 0 2.39 1.1 2.39 2.51zm-.847.107c0-1.28-.737-1.92-1.54-1.92-.749 0-1.53.608-1.53 1.92 0 1.31.825 1.85 1.53 1.85.759 0 1.54-.564 1.54-1.85" style=""/><path d="m272 103.1v3.23c0 .717-.162 1.7-1.49 1.7-.977 0-1.51-.74-1.57-.825v.77h-.781v-4.88h.847v2.66c0 .717.272 1.62 1.1 1.62 1.04 0 1.05-.77 1.05-1.12v-3.16h.847" style=""/><path d="m276.6 103.4-.175.641c-.281-.228-.628-.358-.976-.358-.402 0-.554.325-.554.9v2.71h1.53v.628h-1.53v1.38h-.748v-1.38h-.944v-.628h.911v-2.9c0-.65.152-1.41.902-1.41.759 0 1.31.271 1.58.411" style=""/><path d="m280.4 107.3v.729c-.965-.011-1.56-.544-1.9-1.04v.988h-.761v-4.88h.814v2.32c0 1.09.781 1.87 1.84 1.89" style=""/><path d="m285.7 105.5c0 1.45-1.09 2.61-2.38 2.61-1.34 0-2.39-1.19-2.39-2.61 0-1.43 1.11-2.51 2.38-2.51 1.3 0 2.39 1.1 2.39 2.51zm-.847.107c0-1.28-.737-1.92-1.54-1.92-.749 0-1.53.608-1.53 1.92 0 1.31.825 1.85 1.53 1.85.759 0 1.54-.564 1.54-1.85" style=""/><path d="m287.8 103.1v7.53h-.814v-7.53z" style=""/><path d="m290.4 103.1v7.53h-.814v-7.53z" style=""/><path d="m295.8 105.5c0 .368-.011 1.18-.434 1.83-.445.674-1.11.793-1.5.793-1.2 0-2.18-1.15-2.18-2.55 0-1.43 1.04-2.57 2.34-2.57.685 0 1.3.26 1.72.564l-.064.705c-.684-.564-1.4-.608-1.65-.608-.868 0-1.56.771-1.6 1.84zm-.619.596h-2.68c.173.825.748 1.37 1.37 1.37.564 0 1.17-.369 1.31-1.37" style=""/><path d="m300 107.3v.729c-.965-.011-1.56-.544-1.9-1.04v.988h-.761v-4.88h.814v2.32c0 1.09.781 1.87 1.84 1.89" style=""/><path d="m307.3 109.9v.727c-.132.033-.468.12-.869.12-1.02 0-1.8-.77-1.8-1.86v-.977h-.803v-.628h.803v-4.19h.814v4.19h1.19v.628h-1.23v1.29c0 .804.728.879 1.01.879.217 0 .511-.022.88-.185" style=""/><path d="m311.3 103.1v3.14c0 1.11-.793 1.87-1.79 1.87-.705 0-1.19-.174-1.7-.466l.065-.717c.564.401 1.11.544 1.64.544.511 0 .945-.435.945-1.24v-.467c-1.63-.022-3.01-.477-3.01-1.43 0-.468.292-1.35 1.24-1.35.152 0 1.17.022 1.8.51v-.391zm-.846 1.43c0-.206 0-.478-.37-.685-.314-.195-.727-.206-.845-.206-.522 0-1.01.25-1.01.706 0 .76 1.76.835 2.22.857v-.672" style=""/><path d="m319.8 103.1v3.23c0 .728-.173 1.7-1.49 1.7-.652 0-1.22-.305-1.62-.891-.281.825-1.04.891-1.39.891-.781 0-1.29-.446-1.58-.836v.781h-.781v-4.88h.847v2.66c0 .739.294 1.62 1.1 1.62 1.01 0 1.06-.705 1.06-1.12v-3.16h.847v2.66c0 .739.292 1.62 1.1 1.62 1.01 0 1.06-.705 1.06-1.12v-3.16h.845" style=""/><path d="m322.5 103.1v4.82h-.814v-4.82zm.088 6.14v.966h-.966v-.966z" style=""/><path d="m325.1 103.1v7.53h-.814v-7.53z" style=""/><path d="m330.8 107.9h-.814c-1.41-3.45-1.43-3.95-1.44-4.2h-.011c-.066.726-.933 2.74-.977 2.84l-.586 1.36h-.857l2.1-4.82-.39-.977c-.282-.629-.466-.629-.618-.629-.175 0-.521.044-.846.173l.065-.704c.238-.055.542-.088.781-.088.38 0 .782.131 1.22 1.24l2.37 5.8" style=""/><path d="m332.1 103.1v.889h-.9v-.9h.27l-.27-1.36h.444l.456 1.37" style=""/><path d="m344.5 103.1v3.23c0 .728-.173 1.7-1.49 1.7-.652 0-1.22-.305-1.62-.891-.281.825-1.04.891-1.39.891-.781 0-1.29-.446-1.58-.836v.781h-.781v-4.88h.847v2.66c0 .739.294 1.62 1.1 1.62 1.01 0 1.06-.705 1.06-1.12v-3.16h.847v2.66c0 .739.292 1.62 1.1 1.62 1.01 0 1.06-.705 1.06-1.12v-3.16h.845" style=""/><path d="m349.8 103.1v3.14c0 1.11-.793 1.87-1.79 1.87-.705 0-1.19-.174-1.7-.466l.065-.717c.564.401 1.11.544 1.64.544.511 0 .945-.435.945-1.24v-.467c-1.63-.022-3.01-.477-3.01-1.43 0-.468.292-1.35 1.24-1.35.152 0 1.17.022 1.8.51v-.391zm-.846 1.43c0-.206 0-.478-.37-.685-.314-.195-.727-.206-.845-.206-.522 0-1.01.25-1.01.706 0 .76 1.76.835 2.22.857v-.672" style=""/><path d="m355.4 103.1v3.23c0 .717-.162 1.7-1.49 1.7-.977 0-1.51-.74-1.57-.825v.77h-.781v-4.88h.847v2.66c0 .717.272 1.62 1.1 1.62 1.04 0 1.05-.77 1.05-1.12v-3.16h.847" style=""/><path d="m361 103.1v4.82h-.847v-3.15c0-.812-.607-1.19-1.3-1.19-.77 0-.847.281-.847.749v3.59h-.847v-3.63c0-.781.25-1.3 1.15-1.3.575 0 1.34.174 1.88.639v-.52h.814" style=""/><path d="m366.4 103.1v3.14c0 1.11-.793 1.87-1.79 1.87-.705 0-1.19-.174-1.7-.466l.065-.717c.564.401 1.11.544 1.64.544.511 0 .945-.435.945-1.24v-.467c-1.63-.022-3.01-.477-3.01-1.43 0-.468.292-1.35 1.24-1.35.152 0 1.17.022 1.8.51v-.391zm-.846 1.43c0-.206 0-.478-.37-.685-.314-.195-.727-.206-.845-.206-.522 0-1.01.25-1.01.706 0 .76 1.76.835 2.22.857v-.672" style=""/><path d="m368.9 103.1v7.53h-.814v-7.53z" style=""/><path d="m371.5 103.1v7.53h-.814v-7.53z" style=""/><path d="m377.2 107.9h-.814c-1.41-3.45-1.43-3.95-1.44-4.2h-.011c-.066.726-.933 2.74-.977 2.84l-.586 1.36h-.857l2.1-4.82-.39-.977c-.282-.629-.466-.629-.618-.629-.175 0-.521.044-.846.173l.065-.704c.238-.055.542-.088.781-.088.38 0 .782.131 1.22 1.24l2.37 5.8" style=""/><path d="m378.5 103.1v.9h-.9v-.9z" style=""/><path d="m390.4 103.1v.77h-1.37c-.13 0-.26-.011-.391-.011h-2.27v2.81h3.58v.661h-3.58v2.57h1.5c.13 0 .261-.011.39-.011h1.99v.706h-4.84v-7.5h4.99" style=""/><path d="m395.6 103.1v3.23c0 .717-.162 1.7-1.49 1.7-.977 0-1.51-.74-1.57-.825v.77h-.781v-4.88h.847v2.66c0 .717.272 1.62 1.1 1.62 1.04 0 1.05-.77 1.05-1.12v-3.16h.847" style=""/><path d="m401 103.1v3.14c0 1.11-.793 1.87-1.79 1.87-.705 0-1.19-.174-1.7-.466l.065-.717c.564.401 1.11.544 1.64.544.511 0 .945-.435.945-1.24v-.467c-1.63-.022-3.01-.477-3.01-1.43 0-.468.292-1.35 1.24-1.35.152 0 1.17.022 1.8.51v-.391zm-.846 1.43c0-.206 0-.478-.37-.685-.314-.195-.727-.206-.845-.206-.522 0-1.01.25-1.01.706 0 .76 1.76.835 2.22.857v-.672" style=""/><path d="m407 105.5c0 1.35-.738 2.52-1.76 2.52-.423 0-1.1-.11-1.75-.641v3.23h-.814v-7.53h.847v.498c.261-.237.727-.617 1.46-.617 1.08 0 2.02 1.08 2.02 2.54zm-.845 0c0-1.41-.913-1.88-1.57-1.88-.423 0-.781.196-1.05.696v2.4c.173.261.564.641 1.16.641.641 0 1.47-.467 1.47-1.86" style=""/><path d="m409.2 103.1v7.53h-.814v-7.53z" style=""/><path d="m414.6 105.5c0 .368-.011 1.18-.434 1.83-.445.674-1.11.793-1.5.793-1.2 0-2.18-1.15-2.18-2.55 0-1.43 1.04-2.57 2.34-2.57.685 0 1.3.26 1.72.564l-.064.705c-.684-.564-1.4-.608-1.65-.608-.868 0-1.56.771-1.6 1.84zm-.619.596h-2.68c.173.825.748 1.37 1.37 1.37.564 0 1.17-.369 1.31-1.37" style=""/><path d="m418.8 104.5c0 .597-.401.966-.423.999-.424.379-.716.443-1.26.542-.597.118-1.1.228-1.1.759 0 .674.781.674.922.674.348 0 .923-.044 1.54-.413l.13.705c-.564.261-1.01.347-1.56.347-.271 0-1.8 0-1.8-1.42 0-.533.315-.879.586-1.09.336-.239.575-.281 1.17-.401.39-.075 1.02-.206 1.02-.781 0-.749-.858-.749-1.02-.749-.878 0-1.49.402-1.68.531l-.131-.737c.349-.174.945-.477 1.82-.477.195 0 .792 0 1.26.347.336.26.52.694.52 1.16" style=""/><path d="m30 89.5v4.82h-.814v-4.82zm.0875 6.14v.966h-.966v-.966z" style=""/><path d="m38.7 89.5v3.23c0 .728-.173 1.7-1.49 1.7-.652 0-1.22-.305-1.62-.891-.281.825-1.04.891-1.39.891-.781 0-1.29-.445-1.58-.836v.781h-.781v-4.88h.847v2.66c0 .739.294 1.62 1.1 1.62 1.01 0 1.06-.705 1.06-1.12v-3.16h.847v2.66c0 .739.292 1.62 1.1 1.62 1.01 0 1.06-.705 1.06-1.12v-3.16h.845" style=""/><path d="m44.8 91.9c0 1.3-.683 2.52-1.72 2.52-.652 0-1.28-.228-1.78-.652v.531h-.814v-6.92h.847v2.6c.336-.314.814-.617 1.47-.617 1.05 0 2.01 1.06 2.01 2.54zm-.845 0c0-1.12-.77-1.88-1.58-1.88-.423 0-.717.217-.933.511-.109.162-.109.184-.109.38v2.18c.261.381.684.63 1.15.63.825 0 1.48-.825 1.48-1.82" style=""/><path d="m47 89.5v7.53h-.814v-7.53z" style=""/><path d="m52.4 91.9c0 .369-.0109 1.18-.434 1.83-.445.673-1.11.792-1.5.792-1.2 0-2.18-1.15-2.18-2.55 0-1.43 1.04-2.57 2.34-2.57.684 0 1.3.259 1.72.564l-.064.705c-.684-.564-1.4-.608-1.65-.608-.869 0-1.56.77-1.6 1.83zm-.619.597h-2.68c.173.825.748 1.37 1.37 1.37.564 0 1.17-.369 1.31-1.37" style=""/><path d="m60.4 89.5v3.23c0 .728-.173 1.7-1.49 1.7-.652 0-1.22-.305-1.62-.891-.281.825-1.04.891-1.39.891-.781 0-1.29-.445-1.58-.836v.781h-.781v-4.88h.847v2.66c0 .739.294 1.62 1.1 1.62 1.01 0 1.06-.705 1.06-1.12v-3.16h.847v2.66c0 .739.292 1.62 1.1 1.62 1.01 0 1.06-.705 1.06-1.12v-3.16h.845" style=""/><path d="m65.9 91.9c0 .369-.0109 1.18-.434 1.83-.445.673-1.11.792-1.5.792-1.2 0-2.18-1.15-2.18-2.55 0-1.43 1.04-2.57 2.34-2.57.684 0 1.3.259 1.72.564l-.064.705c-.684-.564-1.4-.608-1.65-.608-.869 0-1.56.77-1.6 1.83zm-.619.597h-2.68c.173.825.748 1.37 1.37 1.37.564 0 1.17-.369 1.31-1.37" style=""/><path d="m70.9 89.5v3.23c0 .717-.162 1.7-1.49 1.7-.976 0-1.51-.739-1.57-.825v.77h-.781v-4.88h.847v2.66c0 .717.272 1.62 1.1 1.62 1.04 0 1.05-.77 1.05-1.12v-3.16h.847" style=""/><path d="m75.5 89.8-.175.641c-.281-.228-.628-.358-.976-.358-.402 0-.553.325-.553.9v2.71h1.53v.628h-1.53v1.38h-.748v-1.38h-.944v-.628h.911v-2.9c0-.65.152-1.41.902-1.41.759 0 1.31.27 1.58.411" style=""/><path d="m80.2 89.5v3.14c0 1.11-.792 1.87-1.79 1.87-.705 0-1.19-.174-1.7-.466l.0656-.717c.564.402 1.11.544 1.64.544.511 0 .945-.434.945-1.24v-.467c-1.63-.0219-3.01-.476-3.01-1.43 0-.467.292-1.35 1.24-1.35.152 0 1.17.0218 1.8.509v-.391zm-.845 1.43c0-.206 0-.478-.37-.684-.314-.195-.727-.206-.845-.206-.522 0-1.01.25-1.01.706 0 .759 1.76.834 2.22.856v-.672" style=""/><path d="m84.6 89.8-.175.641c-.281-.228-.628-.358-.976-.358-.402 0-.553.325-.553.9v2.71h1.53v.628h-1.53v1.38h-.748v-1.38h-.944v-.628h.911v-2.9c0-.65.152-1.41.902-1.41.759 0 1.31.27 1.58.411" style=""/><path d="m86.7 89.5v4.82h-.814v-4.82zm.0875 6.14v.966h-.966v-.966z" style=""/><path d="m92.7 91.9c0 1.45-1.09 2.61-2.38 2.61-1.33 0-2.39-1.19-2.39-2.61 0-1.43 1.11-2.51 2.38-2.51 1.3 0 2.39 1.1 2.39 2.51zm-.847.108c0-1.28-.738-1.92-1.54-1.92-.748 0-1.53.608-1.53 1.92s.825 1.85 1.53 1.85c.759 0 1.54-.564 1.54-1.85" style=""/><path d="m97.7 89.5v3.23c0 .717-.162 1.7-1.49 1.7-.976 0-1.51-.739-1.57-.825v.77h-.781v-4.88h.847v2.66c0 .717.272 1.62 1.1 1.62 1.04 0 1.05-.77 1.05-1.12v-3.16h.847" style=""/><path d="m107.4 91.9c0 1.45-1.09 2.61-2.38 2.61-1.34 0-2.39-1.19-2.39-2.61 0-1.43 1.11-2.51 2.38-2.51 1.3 0 2.39 1.1 2.39 2.51zm-.847.108c0-1.28-.737-1.92-1.54-1.92-.749 0-1.53.608-1.53 1.92s.825 1.85 1.53 1.85c.759 0 1.54-.564 1.54-1.85" style=""/><path d="m111.6 96.3v.727c-.132.0328-.468.12-.869.12-1.02 0-1.8-.77-1.8-1.86v-.977h-.803v-.628h.803v-4.19h.814v4.19h1.19v.628h-1.23v1.29c0 .803.728.878 1.01.878.217 0 .511-.0219.88-.184" style=""/><path d="m119.9 91.9c0 1.3-.683 2.52-1.72 2.52-.652 0-1.28-.228-1.78-.652v.531h-.814v-6.92h.847v2.6c.336-.314.814-.617 1.47-.617 1.05 0 2.01 1.06 2.01 2.54zm-.845 0c0-1.12-.771-1.88-1.58-1.88-.423 0-.717.217-.933.511-.109.162-.109.184-.109.38v2.18c.261.381.684.63 1.15.63.825 0 1.48-.825 1.48-1.82" style=""/><path d="m125.8 91.9c0 1.45-1.09 2.61-2.38 2.61-1.34 0-2.39-1.19-2.39-2.61 0-1.43 1.11-2.51 2.38-2.51 1.3 0 2.39 1.1 2.39 2.51zm-.847.108c0-1.28-.737-1.92-1.54-1.92-.749 0-1.53.608-1.53 1.92s.825 1.85 1.53 1.85c.759 0 1.54-.564 1.54-1.85" style=""/><path d="m129.3 93.7v.728c-.965-.0109-1.56-.544-1.9-1.04v.988h-.761v-4.88h.814v2.32c0 1.09.781 1.87 1.84 1.89" style=""/><path d="m133.2 89.8-.175.641c-.281-.228-.628-.358-.976-.358-.402 0-.554.325-.554.9v2.71h1.53v.628h-1.53v1.38h-.748v-1.38h-.944v-.628h.911v-2.9c0-.65.152-1.41.902-1.41.759 0 1.31.27 1.58.411" style=""/><path d="m137.9 89.5v3.14c0 1.11-.793 1.87-1.79 1.87-.705 0-1.19-.174-1.7-.466l.065-.717c.564.402 1.11.544 1.64.544.511 0 .945-.434.945-1.24v-.467c-1.63-.0219-3.01-.476-3.01-1.43 0-.467.292-1.35 1.24-1.35.152 0 1.17.0218 1.8.509v-.391zm-.846 1.43c0-.206 0-.478-.37-.684-.314-.195-.727-.206-.845-.206-.522 0-1.01.25-1.01.706 0 .759 1.76.834 2.22.856v-.672" style=""/><path d="m143.9 91.9c0 1.35-.738 2.52-1.76 2.52-.423 0-1.1-.109-1.75-.641v3.23h-.814v-7.53h.847v.498c.261-.238.727-.617 1.46-.617 1.08 0 2.02 1.08 2.02 2.54zm-.845 0c0-1.41-.913-1.88-1.57-1.88-.423 0-.781.195-1.05.695v2.4c.173.261.564.641 1.16.641.641 0 1.47-.467 1.47-1.85" style=""/><path d="m146.1 89.5v7.53h-.814v-7.53z" style=""/><path d="m151.5 91.9c0 .369-.011 1.18-.434 1.83-.445.673-1.11.792-1.5.792-1.2 0-2.18-1.15-2.18-2.55 0-1.43 1.04-2.57 2.34-2.57.685 0 1.3.259 1.72.564l-.064.705c-.684-.564-1.4-.608-1.65-.608-.868 0-1.56.77-1.6 1.83zm-.619.597h-2.68c.173.825.748 1.37 1.37 1.37.564 0 1.17-.369 1.31-1.37" style=""/><path d="m160 91.9c0 .369-.011 1.18-.434 1.83-.445.673-1.11.792-1.5.792-1.2 0-2.18-1.15-2.18-2.55 0-1.43 1.04-2.57 2.34-2.57.685 0 1.3.259 1.72.564l-.064.705c-.684-.564-1.4-.608-1.65-.608-.868 0-1.56.77-1.6 1.83zm-.619.597h-2.68c.173.825.748 1.37 1.37 1.37.564 0 1.17-.369 1.31-1.37" style=""/><path d="m168 89.5v3.23c0 .728-.173 1.7-1.49 1.7-.652 0-1.22-.305-1.62-.891-.281.825-1.04.891-1.39.891-.781 0-1.29-.445-1.58-.836v.781h-.781v-4.88h.847v2.66c0 .739.294 1.62 1.1 1.62 1.01 0 1.06-.705 1.06-1.12v-3.16h.847v2.66c0 .739.292 1.62 1.1 1.62 1.01 0 1.06-.705 1.06-1.12v-3.16h.845" style=""/><path d="m174.2 91.9c0 1.35-.738 2.52-1.76 2.52-.423 0-1.1-.109-1.75-.641v3.23h-.814v-7.53h.847v.498c.261-.238.727-.617 1.46-.617 1.08 0 2.02 1.08 2.02 2.54zm-.845 0c0-1.41-.913-1.88-1.57-1.88-.423 0-.781.195-1.05.695v2.4c.173.261.564.641 1.16.641.641 0 1.47-.467 1.47-1.85" style=""/><path d="m179.4 91.9c0 .369-.011 1.18-.434 1.83-.445.673-1.11.792-1.5.792-1.2 0-2.18-1.15-2.18-2.55 0-1.43 1.04-2.57 2.34-2.57.685 0 1.3.259 1.72.564l-.064.705c-.684-.564-1.4-.608-1.65-.608-.868 0-1.56.77-1.6 1.83zm-.619.597h-2.68c.173.825.748 1.37 1.37 1.37.564 0 1.17-.369 1.31-1.37" style=""/><path d="m184.5 89.5v7.53h-.814v-3.19c-.575.477-1.18.597-1.58.597-1.07 0-1.92-1.13-1.92-2.53 0-1.42.836-2.53 1.86-2.53.36 0 .999.0968 1.61.683v-.564zm-.846 1.51c0-.152-.011-.347-.358-.661-.25-.217-.521-.305-.803-.305-.672 0-1.46.511-1.46 1.86 0 1.43.932 1.88 1.57 1.88.487 0 .812-.25 1.05-.597v-2.17" style=""/><path d="m190.1 89.5v7.53h-.814v-3.19c-.575.477-1.18.597-1.58.597-1.07 0-1.92-1.13-1.92-2.53 0-1.42.836-2.53 1.86-2.53.36 0 .999.0968 1.61.683v-.564zm-.846 1.51c0-.152-.011-.347-.358-.661-.25-.217-.521-.305-.803-.305-.672 0-1.46.511-1.46 1.86 0 1.43.932 1.88 1.57 1.88.487 0 .812-.25 1.05-.597v-2.17" style=""/><path d="m195.5 91.9c0 .369-.011 1.18-.434 1.83-.445.673-1.11.792-1.5.792-1.2 0-2.18-1.15-2.18-2.55 0-1.43 1.04-2.57 2.34-2.57.685 0 1.3.259 1.72.564l-.064.705c-.684-.564-1.4-.608-1.65-.608-.868 0-1.56.77-1.6 1.83zm-.619.597h-2.68c.173.825.748 1.37 1.37 1.37.564 0 1.17-.369 1.31-1.37" style=""/><path d="m200.6 89.5v7.53h-.814v-3.19c-.575.477-1.18.597-1.58.597-1.07 0-1.92-1.13-1.92-2.53 0-1.42.836-2.53 1.86-2.53.36 0 .999.0968 1.61.683v-.564zm-.846 1.51c0-.152-.011-.347-.358-.661-.25-.217-.521-.305-.803-.305-.672 0-1.46.511-1.46 1.86 0 1.43.932 1.88 1.57 1.88.487 0 .812-.25 1.05-.597v-2.17" style=""/><path d="m209.9 89.5v7.53h-.814v-3.19c-.575.477-1.18.597-1.58.597-1.07 0-1.92-1.13-1.92-2.53 0-1.42.836-2.53 1.86-2.53.36 0 .999.0968 1.61.683v-.564zm-.846 1.51c0-.152-.011-.347-.358-.661-.25-.217-.521-.305-.803-.305-.672 0-1.46.511-1.46 1.86 0 1.43.932 1.88 1.57 1.88.487 0 .812-.25 1.05-.597v-2.17" style=""/><path d="m214.3 93.7v.728c-.965-.0109-1.56-.544-1.9-1.04v.988h-.761v-4.88h.814v2.32c0 1.09.781 1.87 1.84 1.89" style=""/><path d="m216.2 89.5v4.82h-.814v-4.82zm.088 6.14v.966h-.966v-.966z" style=""/><path d="m221.9 94.3h-.814l-.856-2.26c-.228-.597-.564-1.48-.652-1.99h-.011c-.065.391-.347 1.14-.456 1.43l-1.05 2.81h-.846l1.87-4.82h.954l1.87 4.82" style=""/><path d="m226.7 91.9c0 .369-.011 1.18-.434 1.83-.445.673-1.11.792-1.5.792-1.2 0-2.18-1.15-2.18-2.55 0-1.43 1.04-2.57 2.34-2.57.685 0 1.3.259 1.72.564l-.064.705c-.684-.564-1.4-.608-1.65-.608-.868 0-1.56.77-1.6 1.83zm-.619.597h-2.68c.173.825.748 1.37 1.37 1.37.564 0 1.17-.369 1.31-1.37" style=""/><path d="m230.5 93.7v.728c-.965-.0109-1.56-.544-1.9-1.04v.988h-.761v-4.88h.814v2.32c0 1.09.781 1.87 1.84 1.89" style=""/><path d="m234.6 90.9c0 .597-.401.966-.423.998-.424.38-.716.444-1.26.542-.597.119-1.1.228-1.1.759 0 .673.781.673.922.673.348 0 .923-.0437 1.54-.412l.13.705c-.564.261-1.01.347-1.56.347-.271 0-1.8 0-1.8-1.42 0-.533.315-.88.586-1.09.336-.239.575-.281 1.17-.402.39-.075 1.02-.206 1.02-.781 0-.748-.858-.748-1.02-.748-.878 0-1.49.402-1.68.531l-.131-.738c.349-.173.945-.476 1.82-.476.195 0 .792 0 1.26.347.336.259.52.694.52 1.16" style=""/><path d="m236.9 89.5v.9h-.9v-.9z" style=""/></g></g></svg>