<svg height="676" style="" viewBox="0 338 603 338" width="1206" xmlns="http://www.w3.org/2000/svg" xmlns:xlink="http://www.w3.org/1999/xlink"><linearGradient id="a" style=""><stop offset="0" style="stop-color:#fff"/><stop offset="1" style="stop-color:#fff;stop-opacity:0"/></linearGradient><clipPath id="b" style=""><path d="m396 1382h51.3v51.3h-51.3z" style=""/></clipPath><clipPath id="c" style=""><path d="m396 1216h51.3v51.3h-51.3z" style=""/></clipPath><clipPath id="d" style=""><path d="m396 915h51.3v51.3h-51.3z" style=""/></clipPath><clipPath id="e" style=""><path d="m396 750h51.3v51.3h-51.3z" style=""/></clipPath><radialGradient id="f" cx="421.65" cy="1407.65" gradientUnits="userSpaceOnUse" r="25.65" style="" xlink:href="#a"/><radialGradient id="g" cx="421.65" cy="1241.65" gradientUnits="userSpaceOnUse" r="25.65" style="" xlink:href="#a"/><radialGradient id="h" cx="421.65" cy="940.65" gradientUnits="userSpaceOnUse" r="25.65" style="" xlink:href="#a"/><radialGradient id="i" cx="421.65" cy="775.65" gradientUnits="userSpaceOnUse" r="25.65" style="" xlink:href="#a"/><g style="" transform="matrix(.133 0 0 -.133 0 676)"><path d="m0 .0391h4535v2551h-4535z" style=""/><path d="m269 490c.024 13.6 11 24.6 24.6 24.6s24.6-11 24.6-24.6-11-24.6-24.6-24.6-24.6 11-24.6 24.6m-293-222c0 13.6 11 24.6 24.6 24.6 13.5 0 24.6-11 24.6-24.6s-11-24.6-24.6-24.6-24.6 11-24.6 24.6m586-1.15c0 13.6 11 24.6 24.6 24.6s24.6-11 24.6-24.6-11-24.6-24.6-24.6-24.6 11-24.6 24.6m-515-33.7c11.3 5.01 16.4 18.3 11.4 29.6l-10.9 24.7h42.9v-193h-86.5c-10.7 37.5-14 76.7-9.79 115zm179-4.75v57h102c5.27 0 37.2-6.09 37.2-30 0-19.8-24.5-27-44.7-27zm-139-307c0 13.6 11 24.6 24.6 24.6s24.6-11 24.6-24.6-11-24.6-24.6-24.6-24.6 11-24.6 24.6m364-1.13c0 13.6 11 24.6 24.6 24.6s24.6-11 24.6-24.6-11-24.6-24.6-24.6-24.6 11-24.6 24.6m7.6 55.7c-12.1 2.59-24-5.1-26.6-17.2l-12.3-57.6c-80.3-36.4-172-35.9-252 1.2l-12.3 57.6c-2.58 12.1-14.5 19.8-26.6 17.2l-50.8-10.9c-9.43 9.73-18.2 20.1-26.3 31h247c2.81 0 4.66.504 4.66 3.06v87.5c0 2.54-1.86 3.06-4.66 3.06h-72.3v55.4h78.2c7.12 0 38.2-2.03 48.1-41.7 3.1-12.2 9.93-51.9 14.6-64.6 4.65-14.2 23.6-42.7 43.7-42.7h128c-8.55-11.5-17.9-22.3-28-32.4zm137 231c1.74-17.4 1.95-35 .637-52.5h-31c-3.11 0-4.35-2.04-4.35-5.09v-14.2c0-33.6-18.9-40.9-35.5-42.7-15.8-1.77-33.3 6.62-35.4 16.3-9.32 52.4-24.8 63.6-49.4 82.9 30.4 19.3 62.1 47.8 62.1 85.9 0 41.2-28.2 67.2-47.5 79.9-27 17.8-56.9 21.4-65 21.4h-321c44.4 49.6 104 83.2 169 95.5l37.8-39.7c8.56-8.96 22.7-9.3 31.7-.726l42.3 40.5c87.4-16.4 163-70.3 207-148l-29-65.5c-5.01-11.3.097-24.6 11.4-29.6zm72.3-1.07-1 10.1 29.9 27.9c6.05 5.65 3.79 17.1-3.98 19.9l-38.2 14.3-3 9.84 23.8 33.1c4.84 6.72.383 17.4-7.78 18.8l-40.3 6.54-4.84 9.04 16.9 37.1c3.47 7.56-2.95 17.2-11.3 16.9l-40.9-1.44-6.45 7.84 9.39 39.8c1.89 8.07-6.3 16.3-14.4 14.4l-39.8-9.36-7.84 6.43 1.43 40.9c.332 8.27-9.35 14.7-16.9 11.3l-37.1-16.9-9.04 4.85-6.57 40.2c-1.32 8.16-12.1 12.6-18.8 7.78l-33.1-23.8-9.83 2.98-14.3 38.2c-2.89 7.79-14.3 10-19.9 3.99l-27.8-29.9-10.1.992-21.5 34.7c-4.36 7.04-16 7.04-20.3 0l-21.5-34.7-10.1-.992-27.9 29.9c-5.64 6.04-17.1 3.8-19.9-3.99l-14.3-38.2-9.83-2.98-33.1 23.8c-6.72 4.85-17.5.371-18.8-7.78l-6.56-40.3-9.04-4.84-37.1 16.9c-7.54 3.44-17.2-3.02-16.9-11.3l1.44-40.8-7.84-6.46-39.8 9.39c-8.08 1.88-16.3-6.3-14.4-14.4l9.36-39.8-6.44-7.84-40.8 1.44c-8.24.234-14.7-9.36-11.3-16.9l16.9-37.1-4.85-9.04-40.3-6.54c-8.16-1.33-12.6-12.1-7.76-18.8l23.8-33.1-3-9.84-38.2-14.3c-7.75-2.89-10-14.3-3.96-20l29.9-27.8-1-10.1-34.7-21.5c-7.03-4.36-7.03-16 0-20.3l34.7-21.5 1-10.1-29.9-27.9c-6.07-5.64-3.79-17 3.96-19.9l38.2-14.3 3-9.86-23.8-33.1c-4.84-6.73-.395-17.5 7.79-18.8l40.2-6.53 4.85-9.04-16.9-37.1c-3.45-7.56 3.05-17.3 11.3-16.9l40.8 1.43 6.46-7.84-9.36-39.8c-1.89-8.06 6.3-16.3 14.4-14.4l39.8 9.38 7.84-6.42-1.44-40.9c-.308-8.26 9.38-14.8 16.9-11.3l37.1 16.9 9.04-4.83 6.56-40.2c1.32-8.18 12.1-12.6 18.8-7.78l33.1 23.8 9.84-3 14.3-38.2c2.88-7.74 14.3-10 19.9-3.96l27.9 29.9 10.1-1.02 21.5-34.7c4.34-6.99 16-7.01 20.3 0l21.5 34.7 10.1 1.02 27.9-29.9c5.65-6.07 17.1-3.77 19.9 3.96l14.3 38.2 9.85 3 33.1-23.8c6.72-4.82 17.5-.394 18.8 7.78l6.57 40.2 9.04 4.83 37.1-16.9c7.55-3.46 17.2 3 16.9 11.3l-1.43 40.9 7.84 6.42 39.8-9.38c8.11-1.9 16.3 6.31 14.4 14.4l-9.38 39.8 6.45 7.84 40.8-1.43c8.26-.332 14.8 9.36 11.3 16.9l-16.9 37.1 4.84 9.04 40.2 6.53c8.2 1.32 12.6 12.1 7.78 18.8l-23.8 33.1 3 9.86 38.2 14.3c7.78 2.91 10 14.3 3.96 19.9l-29.8 27.9.985 10.1 34.7 21.5c7.04 4.33 7.04 16 .012 20.3z" style="fill:#383232"/><path d="m0 2156h4535v395h-4535z" style="fill:#1c1c1c"/><g style="fill:#fff"><path d="m163 2351v9.77h-18.8c-1.73 0-3.45-.14-5.17-.14h-28.5v37.8h46.5v8.62h-46.5v34.5h19.5c1.72 0 3.44-.14 5.17-.14h25.8v9.05h-62.9v-99.4h64.8" style=""/><path d="m227 2357c0 .44-.438 4.89-.578 5.47l-.282 4.02c-6.61-5.32-13.9-8.05-22-8.05-11.9 0-19.7 10.6-19.7 24.6 0 11.9 5.74 25 20.1 25 9.62 0 13.6-2.3 19.8-6.47l1.73 9.35c-8.33 4.89-13.1 6.03-21.5 6.03-19.8 0-31-17.5-31-33.9 0-18.4 13.2-33.5 30.5-33.5 7.03 0 15.1 1.72 23 7.47" style=""/><path d="m297 2383c0 19.4-14.2 34.3-30.7 34.3-17 0-30.9-15.2-30.9-34.3 0-18.8 14.4-33 30.7-33 17 0 30.9 14.5 30.9 33zm-10.9 1.44c0-17.7-10.2-25.6-19.8-25.6-10.3 0-20 8.62-20 25.6 0 17.4 10.8 24.3 19.8 24.3 9.92 0 20-7.47 20-24.3" style=""/><path d="m352 2369c0 7.33-4.45 11.9-5.02 12.6-5.33 5.45-9.62 6.31-18.4 8.05-5.17 1-12.5 2.44-12.5 9.62 0 8.91 10 8.91 11.9 8.91 7.61 0 13.6-1.74 20-5.33l1.72 9.34c-9.19 4.32-17 4.46-20.2 4.46-3.31 0-23.3 0-23.3-18.7 0-6.33 3.45-10.6 5.61-12.6 5.17-4.46 8.76-5.18 17.2-6.91 4.75-1 13.1-2.72 13.1-10.3 0-9.91-11.2-9.91-13.2-9.91-5.75 0-14.1 1.58-21.8 7.19l-1.73-9.77c.719-.44 10.5-6.33 23.7-6.33 18.5 0 23 11.2 23 19.7" style=""/><path d="m417 2415h-10.8c-6.59-17-17.7-45.1-18.2-55.4h-.141c-.719 8.48-8.34 27.4-9.48 30.3l-10.2 25.1h-11.3l26.7-63.8-5.03-13.1c-3.16-7.17-5.31-7.89-7.91-7.89-2 0-6.61.42-11.1 2.16l.875-9.35c.86-.14 5.59-1.15 10.2-1.15 3.45 0 10.2 0 16.4 15.8l30 77.3" style=""/><path d="m470 2369c0 7.33-4.45 11.9-5.02 12.6-5.33 5.45-9.62 6.31-18.4 8.05-5.17 1-12.5 2.44-12.5 9.62 0 8.91 10 8.91 11.9 8.91 7.61 0 13.6-1.74 20-5.33l1.72 9.34c-9.19 4.32-17 4.46-20.2 4.46-3.31 0-23.3 0-23.3-18.7 0-6.33 3.45-10.6 5.61-12.6 5.17-4.46 8.76-5.18 17.2-6.91 4.75-1 13.1-2.72 13.1-10.3 0-9.91-11.2-9.91-13.2-9.91-5.75 0-14.1 1.58-21.8 7.19l-1.73-9.77c.719-.44 10.5-6.33 23.7-6.33 18.5 0 23 11.2 23 19.7" style=""/><path d="m520 2355-2.16 8.33c-5.02-4.45-10.3-5.03-12.9-5.03-6.33 0-7.19 6.75-7.19 11.8v36.2h19.8v8.33h-19.8v18.2h-9.91v-18.2h-12.1v-8.33h11.8v-38.6c0-8.34 1.88-18.2 11.8-18.2 9.62 0 16.2 3.32 20.7 5.61" style=""/><path d="m582 2383c0 6.17-.578 14.9-5.17 22.6-5.89 9.92-16 11.1-20.1 11.1-15.5 0-28.5-14.9-28.5-33.6 0-19 13.8-33.8 30.5-33.8 6.59 0 14.5 1.88 22.4 7.61 0 .58-.437 5.33-.437 5.33s-.422 3.3-.422 3.88c-8.48-7.19-17-8.19-21.3-8.19-11.1 0-20.5 9.9-20.8 25.1zm-8.47 7.75h-34.5c2.44 9.62 9.19 17.2 17.7 17.2 4.45 0 14.4-2 16.8-17.2" style=""/><path d="m686 2351v43.2c0 9.93-2.58 22-19.4 22-12.2 0-19-8.47-21.1-11.6-2.59 9.06-10.5 11.6-18 11.6-11.8 0-18-7.61-20.4-10.6v9.91h-10.2v-64.5h10.9v35.8c0 9.48 3.74 20.8 14.2 20.8 13.2 0 13.9-9.04 13.9-14.4v-42.2h10.9v35.8c0 9.48 3.75 20.8 14.2 20.8 13.2 0 13.9-9.04 13.9-14.4v-42.2h10.9" style=""/><path d="m132 2210v6.31h-3.97l-21.9-.18h-3.42v56.4h-8.66v-62.6h38" style=""/><path d="m150 2210v40h-7.22v-40zm.813 50.8v8.65h-8.66v-8.65z" style=""/><path d="m202 2230c0 10.9-5.95 20.9-14.8 20.9-2.42 0-8.92-.45-15-5.23v26.8h-7.22v-62.6h7.48v4.23c1.17-1.26 5.76-5.21 12.4-5.21 9.38 0 17.1 9.09 17.1 21.1zm-7.48 0c0-11.6-7.77-15.2-13.3-15.2-5.77 0-8.38 4.76-8.83 5.57v19.7c1.36 1.91 4.59 5.06 9.73 5.06 5.41 0 12.4-3.79 12.4-15.1" style=""/><path d="m232 2245v6.5c-6.5-.09-12.4-3.34-16.1-8.65v8.2h-6.67v-40.6h7.22v19.2c0 9.47 7.39 15.2 15.6 15.3" style=""/><path d="m272 2210v26.1c0 8.92-6.58 15.5-15.5 15.5-5.86 0-10.2-1.53-14.5-3.97l.532-6.39c4.52 3.33 8.94 4.69 13.9 4.69 5.05 0 8.11-4.06 8.11-9.92v-3.78c-15.5-.36-25.7-4.42-25.7-11.7 0-4.23 2.8-11.4 10.6-11.4 1.8 0 9.64.17 15.3 4.4v-3.42zm-7.48 12.6c0-1.9 0-4.16-3.24-6.05-2.26-1.35-5.23-1.7-7.05-1.7-4.59 0-8.47 2.15-8.47 5.76 0 6.41 17.6 6.67 18.8 6.67v-4.68" style=""/><path d="m305 2245v6.5c-6.5-.09-12.4-3.34-16.1-8.65v8.2h-6.67v-40.6h7.22v19.2c0 9.47 7.39 15.2 15.6 15.3" style=""/><path d="m322 2210v40h-7.22v-40zm.813 50.8v8.65h-8.66v-8.65z" style=""/><path d="m368 2230c0 2.8-.094 9.64-3.61 15-3.78 5.68-9.55 6.76-13 6.76-10.5 0-18.8-9.64-18.8-21.2 0-11.9 8.84-21.4 20.1-21.4 4.33 0 9.56 1.07 14.8 4.4l-.531 6.22c-5.69-4.05-11-4.76-14.2-4.76-7.48 0-13.3 6.57-13.5 14.9zm-5.41 5.31h-22.7c1.44 5.78 5.86 10.6 11.5 10.6 3.34 0 9.47-1.53 11.2-10.6" style=""/><path d="m403 2222c0 3.15-1.26 6.31-4.42 9.01-3.06 2.63-5.77 3.16-11.4 4.25-3.23.63-7.75 1.44-7.75 5.67 0 5.33 6.41 5.33 7.75 5.33 6.59 0 10.5-2.08 13.1-3.51l1.17 6.31c-5.59 2.51-9.73 2.87-13.4 2.87-2.06 0-15.3 0-15.3-11.9 0-4.33 2.62-7.04 3.61-8.03 3.42-2.97 5.77-3.42 11.9-4.59 2.88-.55 8.02-1.53 8.02-6.14 0-5.86-7.3-5.86-8.47-5.86-5.33 0-10.5 1.81-14.3 4.51l-1.17-6.59c5.42-2.88 10.9-3.95 15.5-3.95 5.86 0 15.2 1.89 15.2 12.6" style=""/><path d="m347 1580-.641 7.5c-3.16-2.18-6.3-4.24-9.98-5.33-3.47-1.19-7.27-1.3-11-1.3-7.05 0-13.5 3.8-17.9 9.33-5 6.4-7.39 14.4-7.39 22.6s2.39 16.3 7.39 22.7c4.44 5.53 10.8 9.33 17.9 9.33 3.26 0 6.62-.33 9.76-1.3 3.27-.98 6.3-2.61 9.12-4.56l1.52 8.9c-3.25 1.3-6.62 2.39-10.1 3.03-3.36.66-6.83.88-10.3.88-9.55 0-18.3-4.34-24.7-11.4-6.72-7.61-10.2-17.5-10.2-27.6s3.48-20 10.2-27.5c6.41-7.06 15.2-11.4 24.7-11.4 3.8 0 7.61.11 11.3 1.19 3.69.97 7.05 2.92 10.3 4.88" style=""/><path d="m397 1575v31.4c0 11.1-7.92 18.7-17.9 18.7-7.05 0-11.9-1.74-17-4.66l.656-7.17c5.64 4.01 11.1 5.44 16.4 5.44 5.11 0 9.45-4.35 9.45-12.4v-4.67c-16.3-.22-30.1-4.77-30.1-14.3 0-4.68 2.92-13.5 12.4-13.5 1.52 0 11.7.22 18 5.1v-3.91zm-8.45 14.3c0-2.06 0-4.78-3.7-6.85-3.14-1.95-7.27-2.06-8.45-2.06-5.22 0-10.1 2.5-10.1 7.06 0 7.6 17.6 8.35 22.2 8.57v-6.72" style=""/><path d="m442 1578-1.75 6.41c-2.81-2.28-6.28-3.58-9.76-3.58-4.02 0-5.53 3.25-5.53 9v27.1h15.3v6.28h-15.3v13.8h-7.48v-13.8h-9.44v-6.28h9.11v-29c0-6.5 1.52-14.1 9.02-14.1 7.59 0 13.1 2.71 15.8 4.11" style=""/><path d="m490 1579-.656 7.27c-5.53-4.34-11.4-5.86-16.9-5.86-9 0-15.1 7.81-15.1 18.4 0 8.46 4.02 18.9 15.5 18.9 5.64 0 9.33-.88 15.3-4.78l1.3 7.06c-6.41 3.69-10.1 4.66-16.7 4.66-15.1 0-23.9-13.1-23.9-25.9 0-13.4 9.88-25.3 23.4-25.3 5.86 0 11.8 1.52 17.7 5.53" style=""/><path d="m540 1575v32.3c0 7.17-1.62 17-14.9 17-6.72 0-11.9-3.38-15.4-7.82v33.7h-8.14v-75.3h8.47v26.6c0 7.17 2.72 16.2 11 16.2 10.4 0 10.5-7.7 10.5-11.2v-31.6h8.47" style=""/><path d="m567 1575v48.2h-8.14v-48.2zm.875 61.4v9.66h-9.66v-9.66z" style=""/><path d="m623 1575v32.3c0 7.17-1.62 17-14.9 17-9.76 0-15.1-7.4-15.7-8.25v7.7h-7.81v-48.8h8.47v26.6c0 7.17 2.72 16.2 11 16.2 10.4 0 10.5-7.7 10.5-11.2v-31.6h8.47" style=""/><path d="m685 1618-1.19 6.85c-7.59 0-13.9-2.07-17.2-3.49-2.26 1.86-5.97 3.49-10.3 3.49-9.34 0-17.2-7.82-17.2-17.7 0-4.02 1.41-7.92 3.58-10.8-3.16-4.44-3.16-8.67-3.16-9.22 0-2.83.985-5.97 2.83-8.25-5.64-3.36-6.95-8.34-6.95-11.2 0-8.14 10.8-14.7 24-14.7 13.3 0 24.1 6.41 24.1 14.8 0 15.1-18.1 15.1-22.4 15.1h-9.55c-1.41 0-6.3 0-6.3 5.75 0 1.21.438 2.94 1.2 3.91 2.28-1.62 5.86-3.14 9.88-3.14 9.77 0 17.4 8.03 17.4 17.7 0 5.2-2.39 9.22-3.58 10.8l.422-.11c2.39 0 5.44.44 8.03.44 1.95 0 6.41-.33 6.41-.33zm-18.9-10.8c0-8.47-5.11-11.5-9.77-11.5-4.02 0-9.66 2.48-9.66 11.5 0 9 5.64 11.5 9.66 11.5 4.66 0 9.77-3.05 9.77-11.5zm9.77-39.5c0-4.78-7.48-8.36-16.4-8.36-8.78 0-16.5 3.37-16.5 8.47 0 .33 0 7.37 8.45 7.37h9.76c2.39 0 14.7 0 14.7-7.48" style=""/><path d="m770 1575v48.2h-8.47v-31.5c0-8.12-6.08-11.9-13-11.9-7.7 0-8.47 2.81-8.47 7.49v35.9h-8.47v-36.3c0-7.81 2.5-13 11.5-13 5.75 0 13.5 1.74 18.8 6.39v-5.2h8.14" style=""/><path d="m832 1599c0 13-6.83 25.2-17.2 25.2-6.52 0-12.8-2.29-17.8-6.52v5.31h-8.14v-69.2h8.47v26c3.36-3.14 8.14-6.17 14.7-6.17 10.5 0 20.1 10.6 20.1 25.4zm-8.45 0c0-11.2-7.7-18.8-15.8-18.8-4.23 0-7.17 2.17-9.33 5.11-1.09 1.63-1.09 1.85-1.09 3.8v21.8c2.61 3.81 6.84 6.29 11.5 6.29 8.25 0 14.8-8.25 14.8-18.2" style=""/><path d="m889 1575v48.2h-8.14v-48.2zm.875 61.4v9.66h-9.66v-9.66z" style=""/><path d="m945 1575v32.3c0 7.17-1.62 17-14.9 17-9.76 0-15.1-7.4-15.7-8.25v7.7h-7.81v-48.8h8.47v26.6c0 7.17 2.72 16.2 11 16.2 10.4 0 10.5-7.7 10.5-11.2v-31.6h8.47" style=""/><path d="m1036 1579-.65 7.27c-5.54-4.34-11.4-5.86-16.9-5.86-9 0-15.1 7.81-15.1 18.4 0 8.46 4.01 18.9 15.5 18.9 5.64 0 9.33-.88 15.3-4.78l1.29 7.06c-6.4 3.69-10.1 4.66-16.7 4.66-15.1 0-23.9-13.1-23.9-25.9 0-13.4 9.87-25.3 23.4-25.3 5.86 0 11.8 1.52 17.7 5.53" style=""/><path d="m1091 1599c0 14.5-10.9 26.1-23.8 26.1-13.4 0-23.9-11.9-23.9-26.1 0-14.3 11.1-25.1 23.8-25.1 13 0 23.9 11 23.9 25.1zm-8.47 1.07c0-12.8-7.37-19.2-15.4-19.2-7.49 0-15.3 6.08-15.3 19.2 0 13.1 8.25 18.5 15.3 18.5 7.59 0 15.4-5.64 15.4-18.5" style=""/><path d="m1142 1623h-8.14l-8.56-22.6c-2.28-5.97-5.64-14.8-6.52-19.9h-.11c-.65 3.91-3.47 11.4-4.56 14.3l-10.5 28.1h-8.46l18.7-48.2h9.54l18.7 48.2" style=""/><path d="m1189 1599c0 3.68-.11 11.8-4.34 18.3-4.45 6.74-11.1 7.93-15 7.93-12 0-21.8-11.5-21.8-25.5 0-14.3 10.4-25.7 23.4-25.7 6.85 0 13 2.6 17.2 5.64l-.64 7.05c-6.84-5.64-14-6.08-16.5-6.08-8.68 0-15.6 7.71-16 18.4zm-6.19 5.96h-26.8c1.73 8.25 7.48 13.7 13.7 13.7 5.64 0 11.7-3.69 13.1-13.7" style=""/><path d="m1228 1617v7.29c-9.65-.11-15.6-5.44-19-10.4v9.88h-7.61v-48.8h8.14v23.2c0 10.9 7.81 18.7 18.4 18.9" style=""/><path d="m1274 1575v31.4c0 11.1-7.93 18.7-17.9 18.7-7.05 0-11.9-1.74-17-4.66l.65-7.17c5.64 4.01 11.1 5.44 16.4 5.44 5.11 0 9.45-4.35 9.45-12.4v-4.67c-16.3-.22-30.1-4.77-30.1-14.3 0-4.68 2.92-13.5 12.4-13.5 1.52 0 11.7.22 18 5.1v-3.91zm-8.46 14.3c0-2.06 0-4.78-3.7-6.85-3.14-1.95-7.27-2.06-8.45-2.06-5.22 0-10.1 2.5-10.1 7.06 0 7.6 17.6 8.35 22.2 8.57v-6.72" style=""/><path d="m1336 1618-1.19 6.85c-7.6 0-13.9-2.07-17.2-3.49-2.26 1.86-5.97 3.49-10.3 3.49-9.34 0-17.2-7.82-17.2-17.7 0-4.02 1.41-7.92 3.58-10.8-3.15-4.44-3.15-8.67-3.15-9.22 0-2.83.98-5.97 2.82-8.25-5.64-3.36-6.95-8.34-6.95-11.2 0-8.14 10.8-14.7 24-14.7 13.3 0 24.1 6.41 24.1 14.8 0 15.1-18.1 15.1-22.4 15.1h-9.55c-1.4 0-6.29 0-6.29 5.75 0 1.21.43 2.94 1.2 3.91 2.28-1.62 5.86-3.14 9.87-3.14 9.77 0 17.4 8.03 17.4 17.7 0 5.2-2.39 9.22-3.57 10.8l.42-.11c2.39 0 5.44.44 8.03.44 1.95 0 6.41-.33 6.41-.33zm-18.9-10.8c0-8.47-5.11-11.5-9.77-11.5-4.01 0-9.65 2.48-9.65 11.5 0 9 5.64 11.5 9.65 11.5 4.66 0 9.77-3.05 9.77-11.5zm9.77-39.5c0-4.78-7.49-8.36-16.4-8.36-8.79 0-16.5 3.37-16.5 8.47 0 .33 0 7.37 8.45 7.37h9.77c2.39 0 14.7 0 14.7-7.48" style=""/><path d="m1382 1599c0 3.68-.11 11.8-4.34 18.3-4.45 6.74-11.1 7.93-15 7.93-12 0-21.8-11.5-21.8-25.5 0-14.3 10.4-25.7 23.4-25.7 6.85 0 13 2.6 17.2 5.64l-.64 7.05c-6.84-5.64-14-6.08-16.5-6.08-8.68 0-15.6 7.71-16 18.4zm-6.19 5.96h-26.8c1.73 8.25 7.48 13.7 13.7 13.7 5.64 0 11.7-3.69 13.1-13.7" style=""/><path d="m1469 1554v70.4h-8.14v-7.4c-1.07 1.43-6.4 7.4-14.9 7.4-10.9 0-20.2-10.8-20.2-25.4 0-13.8 7.92-25.2 18.3-25.2 6.06 0 11.8 2.49 16.4 6.61v-26.5zm-8.14 36.2c0-1.96 0-2.17-1.07-3.58-2.83-4.34-6.85-6.19-10.8-6.19-8.25 0-14.8 8.47-14.8 18.6 0 11.1 7.81 18.4 15.7 18.4 7.48 0 10.8-7.7 10.8-12v-15.2" style=""/><path d="m1525 1575v48.2h-8.47v-31.5c0-8.12-6.07-11.9-13-11.9-7.7 0-8.47 2.81-8.47 7.49v35.9h-8.47v-36.3c0-7.81 2.5-13 11.5-13 5.75 0 13.4 1.74 18.8 6.39v-5.2h8.14" style=""/><path d="m1552 1575v48.2h-8.14v-48.2zm.88 61.4v9.66h-9.66v-9.66z" style=""/><path d="m1606 1579-.65 7.27c-5.54-4.34-11.4-5.86-16.9-5.86-9 0-15.1 7.81-15.1 18.4 0 8.46 4.01 18.9 15.5 18.9 5.64 0 9.33-.88 15.3-4.78l1.29 7.06c-6.4 3.69-10.1 4.66-16.7 4.66-15.1 0-23.9-13.1-23.9-25.9 0-13.4 9.87-25.3 23.4-25.3 5.86 0 11.8 1.52 17.7 5.53" style=""/><path d="m1660 1575-20.6 29.5 18.2 18.6h-9.77l-22-22.6v49.7h-7.81v-75.3h7.48v15.3l8.69 9.01 16.9-24.3h8.91" style=""/><path d="m1680 1575v75.3h-8.14v-75.3z" style=""/><path d="m1737 1623h-8.14c-14.1-34.5-14.3-39.5-14.4-42h-.11c-.66 7.26-9.33 27.4-9.77 28.4l-5.86 13.6h-8.57l21-48.2-3.9-9.77c-2.82-6.29-4.66-6.29-6.18-6.29-1.75 0-5.21.44-8.46 1.73l.65-7.04c2.38-.55 5.42-.88 7.81-.88 3.8 0 7.82 1.31 12.2 12.4l23.7 58" style=""/><path d="m1750 1575v9h-9v-9z" style=""/><path d="m1866 1643v7.06h-46.9v-75h9.66v34.2h32.8v6.63h-32.8v27.2h14.2c1.3 0 2.59-.11 3.9-.11h19.1" style=""/><path d="m1912 1575v31.4c0 11.1-7.93 18.7-17.9 18.7-7.05 0-11.9-1.74-17-4.66l.65-7.17c5.64 4.01 11.1 5.44 16.4 5.44 5.11 0 9.45-4.35 9.45-12.4v-4.67c-16.3-.22-30.1-4.77-30.1-14.3 0-4.68 2.92-13.5 12.4-13.5 1.52 0 11.7.22 18 5.1v-3.91zm-8.46 14.3c0-2.06 0-4.78-3.7-6.85-3.14-1.95-7.27-2.06-8.45-2.06-5.22 0-10.1 2.5-10.1 7.06 0 7.6 17.6 8.35 22.2 8.57v-6.72" style=""/><path d="m1937 1575v48.2h-8.14v-48.2zm.88 61.4v9.66h-9.66v-9.66z" style=""/><path d="m1981 1617v7.29c-9.65-.11-15.6-5.44-19-10.4v9.88h-7.61v-48.8h8.14v23.2c0 10.9 7.81 18.7 18.4 18.9" style=""/><path d="m2000 1575v75.3h-8.14v-75.3z" style=""/><path d="m2058 1623h-8.14c-14.1-34.5-14.3-39.5-14.4-42h-.11c-.66 7.26-9.33 27.4-9.77 28.4l-5.86 13.6h-8.57l21-48.2-3.9-9.77c-2.82-6.29-4.66-6.29-6.18-6.29-1.75 0-5.21.44-8.46 1.73l.65-7.04c2.38-.55 5.42-.88 7.81-.88 3.8 0 7.82 1.31 12.2 12.4l23.7 58" style=""/><path d="m2141 1579-.65 7.27c-5.54-4.34-11.4-5.86-16.9-5.86-9 0-15.1 7.81-15.1 18.4 0 8.46 4.01 18.9 15.5 18.9 5.64 0 9.33-.88 15.3-4.78l1.29 7.06c-6.4 3.69-10.1 4.66-16.7 4.66-15.1 0-23.9-13.1-23.9-25.9 0-13.4 9.87-25.3 23.4-25.3 5.86 0 11.8 1.52 17.7 5.53" style=""/><path d="m2196 1599c0 14.5-10.9 26.1-23.8 26.1-13.4 0-23.9-11.9-23.9-26.1 0-14.3 11.1-25.1 23.8-25.1 13 0 23.9 11 23.9 25.1zm-8.47 1.07c0-12.8-7.37-19.2-15.4-19.2-7.49 0-15.3 6.08-15.3 19.2 0 13.1 8.25 18.5 15.3 18.5 7.59 0 15.4-5.64 15.4-18.5" style=""/><path d="m2276 1575v32.3c0 7.28-1.73 17-14.9 17-6.52 0-12.2-3.05-16.2-8.91-2.81 8.25-10.4 8.91-13.9 8.91-7.81 0-12.9-4.46-15.8-8.36v7.81h-7.81v-48.8h8.47v26.6c0 7.39 2.94 16.2 11 16.2 10.1 0 10.6-7.05 10.6-11.2v-31.6h8.47v26.6c0 7.39 2.92 16.2 11 16.2 10.1 0 10.6-7.05 10.6-11.2v-31.6h8.45" style=""/><path d="m2338 1599c0 13-6.83 25.2-17.2 25.2-6.52 0-12.8-2.29-17.8-6.52v5.31h-8.14v-69.2h8.47v26c3.36-3.14 8.14-6.17 14.7-6.17 10.5 0 20.1 10.6 20.1 25.4zm-8.45 0c0-11.2-7.71-18.8-15.8-18.8-4.23 0-7.17 2.17-9.33 5.11-1.09 1.63-1.09 1.85-1.09 3.8v21.8c2.61 3.81 6.84 6.29 11.5 6.29 8.25 0 14.8-8.25 14.8-18.2" style=""/><path d="m2374 1617v7.29c-9.65-.11-15.6-5.44-19-10.4v9.88h-7.61v-48.8h8.14v23.2c0 10.9 7.81 18.7 18.4 18.9" style=""/><path d="m2421 1599c0 3.68-.11 11.8-4.34 18.3-4.45 6.74-11.1 7.93-15 7.93-12 0-21.8-11.5-21.8-25.5 0-14.3 10.4-25.7 23.4-25.7 6.85 0 13 2.6 17.2 5.64l-.64 7.05c-6.84-5.64-14-6.08-16.5-6.08-8.68 0-15.6 7.71-16 18.4zm-6.19 5.96h-26.8c1.73 8.25 7.48 13.7 13.7 13.7 5.64 0 11.7-3.69 13.1-13.7" style=""/><path d="m2472 1575v32.3c0 7.17-1.62 17-14.9 17-6.72 0-11.9-3.38-15.4-7.82v33.7h-8.14v-75.3h8.47v26.6c0 7.17 2.72 16.2 11 16.2 10.4 0 10.5-7.7 10.5-11.2v-31.6h8.47" style=""/><path d="m2526 1599c0 3.68-.11 11.8-4.34 18.3-4.45 6.74-11.1 7.93-15 7.93-12 0-21.8-11.5-21.8-25.5 0-14.3 10.4-25.7 23.4-25.7 6.85 0 13 2.6 17.2 5.64l-.64 7.05c-6.84-5.64-14-6.08-16.5-6.08-8.68 0-15.6 7.71-16 18.4zm-6.19 5.96h-26.8c1.73 8.25 7.48 13.7 13.7 13.7 5.64 0 11.7-3.69 13.1-13.7" style=""/><path d="m2577 1575v32.3c0 7.17-1.62 17-14.9 17-9.77 0-15.1-7.4-15.7-8.25v7.7h-7.81v-48.8h8.47v26.6c0 7.17 2.72 16.2 11 16.2 10.4 0 10.5-7.7 10.5-11.2v-31.6h8.47" style=""/><path d="m2625 1589c0 5.97-4.01 9.66-4.23 9.99-4.24 3.79-7.16 4.43-12.6 5.42-5.97 1.18-11 2.28-11 7.59 0 6.74 7.81 6.74 9.22 6.74 3.48 0 9.23-.44 15.4-4.13l1.3 7.05c-5.64 2.61-10.1 3.47-15.6 3.47-2.71 0-18 0-18-14.2 0-5.33 3.15-8.79 5.86-10.9 3.36-2.39 5.75-2.81 11.7-4.01 3.9-.75 10.2-2.06 10.2-7.81 0-7.49-8.58-7.49-10.2-7.49-8.78 0-14.9 4.02-16.8 5.31l-1.31-7.37c3.49-1.74 9.45-4.77 18.2-4.77 1.95 0 7.92 0 12.6 3.47 3.36 2.6 5.2 6.94 5.2 11.6" style=""/><path d="m2645 1575v48.2h-8.14v-48.2zm.88 61.4v9.66h-9.66v-9.66z" style=""/><path d="m2702 1623h-8.14l-8.56-22.6c-2.28-5.97-5.64-14.8-6.52-19.9h-.11c-.65 3.91-3.47 11.4-4.56 14.3l-10.5 28.1h-8.46l18.7-48.2h9.54l18.7 48.2" style=""/><path d="m2749 1599c0 3.68-.11 11.8-4.34 18.3-4.45 6.74-11.1 7.93-15 7.93-12 0-21.8-11.5-21.8-25.5 0-14.3 10.4-25.7 23.4-25.7 6.85 0 13 2.6 17.2 5.64l-.64 7.05c-6.84-5.64-14-6.08-16.5-6.08-8.68 0-15.6 7.71-16 18.4zm-6.19 5.96h-26.8c1.73 8.25 7.48 13.7 13.7 13.7 5.64 0 11.7-3.69 13.1-13.7" style=""/><path d="m2833 1575v31.4c0 11.1-7.93 18.7-17.9 18.7-7.05 0-11.9-1.74-17-4.66l.65-7.17c5.64 4.01 11.1 5.44 16.4 5.44 5.11 0 9.45-4.35 9.45-12.4v-4.67c-16.3-.22-30.1-4.77-30.1-14.3 0-4.68 2.92-13.5 12.4-13.5 1.52 0 11.7.22 18 5.1v-3.91zm-8.46 14.3c0-2.06 0-4.78-3.7-6.85-3.14-1.95-7.27-2.06-8.45-2.06-5.22 0-10.1 2.5-10.1 7.06 0 7.6 17.6 8.35 22.2 8.57v-6.72" style=""/><path d="m2858 1575v75.3h-8.14v-75.3z" style=""/><path d="m2903 1617v7.29c-9.65-.11-15.6-5.44-19-10.4v9.88h-7.61v-48.8h8.14v23.2c0 10.9 7.81 18.7 18.4 18.9" style=""/><path d="m2950 1599c0 3.68-.11 11.8-4.34 18.3-4.45 6.74-11.1 7.93-15 7.93-12 0-21.8-11.5-21.8-25.5 0-14.3 10.4-25.7 23.4-25.7 6.85 0 13 2.6 17.2 5.64l-.64 7.05c-6.84-5.64-14-6.08-16.5-6.08-8.68 0-15.6 7.71-16 18.4zm-6.19 5.96h-26.8c1.73 8.25 7.48 13.7 13.7 13.7 5.64 0 11.7-3.69 13.1-13.7" style=""/><path d="m3000 1575v31.4c0 11.1-7.93 18.7-17.9 18.7-7.05 0-11.9-1.74-17-4.66l.65-7.17c5.64 4.01 11.1 5.44 16.4 5.44 5.11 0 9.45-4.35 9.45-12.4v-4.67c-16.3-.22-30.1-4.77-30.1-14.3 0-4.68 2.92-13.5 12.4-13.5 1.52 0 11.7.22 18 5.1v-3.91zm-8.46 14.3c0-2.06 0-4.78-3.7-6.85-3.14-1.95-7.27-2.06-8.45-2.06-5.22 0-10.1 2.5-10.1 7.06 0 7.6 17.6 8.35 22.2 8.57v-6.72" style=""/><path d="m3053 1575v75.3h-8.14v-31.9c-5.75 4.76-11.8 5.97-15.8 5.97-10.7 0-19.2-11.3-19.2-25.3 0-14.2 8.36-25.3 18.6-25.3 3.6 0 9.99.97 16.1 6.83v-5.64zm-8.46 15.1c0-1.52-.11-3.47-3.58-6.61-2.5-2.17-5.21-3.05-8.03-3.05-6.72 0-14.6 5.11-14.6 18.6 0 14.3 9.32 18.8 15.7 18.8 4.87 0 8.12-2.5 10.5-5.97v-21.7" style=""/><path d="m3110 1623h-8.14c-14.1-34.5-14.3-39.5-14.4-42h-.11c-.66 7.26-9.33 27.4-9.77 28.4l-5.86 13.6h-8.57l21-48.2-3.9-9.77c-2.82-6.29-4.66-6.29-6.18-6.29-1.75 0-5.21.44-8.46 1.73l.65-7.04c2.38-.55 5.42-.88 7.81-.88 3.8 0 7.82 1.31 12.2 12.4l23.7 58" style=""/><path d="m3123 1575v9h-9v-9z" style=""/></g><g style="clip-path:url(#b)"><path d="m396 1382h51.3v51.3h-51.3z" style="fill:url(#f)"/></g><g style="fill:#fa6c00"><path d="m572 1448v7.07h-66v-7.07h14.5c1.3 0 2.59.11 3.91.11h9.77v-67.7h9.66v67.7h9.66c1.3 0 2.59-.11 3.91-.11h14.5" style=""/><path d="m618 1404c0 14.5-10.9 26.1-23.8 26.1-13.3 0-23.9-11.9-23.9-26.1 0-14.3 11.1-25.1 23.8-25.1 13 0 23.9 11 23.9 25.1zm-8.47 1.07c0-12.8-7.38-19.2-15.4-19.2-7.48 0-15.3 6.08-15.3 19.2 0 13.1 8.25 18.5 15.3 18.5 7.59 0 15.4-5.64 15.4-18.5" style=""/><path d="m669 1384-.656 7.27c-5.53-4.34-11.4-5.86-16.9-5.86-9 0-15.1 7.81-15.1 18.4 0 8.46 4.02 18.9 15.5 18.9 5.64 0 9.33-.88 15.3-4.78l1.3 7.06c-6.41 3.69-10.1 4.66-16.7 4.66-15.1 0-23.9-13.1-23.9-25.9 0-13.4 9.88-25.3 23.4-25.3 5.86 0 11.8 1.52 17.7 5.53" style=""/><path d="m724 1380-20.6 29.5 18.2 18.6h-9.77l-22-22.6v49.7h-7.81v-75.3h7.48v15.3l8.69 9.01 16.9-24.3h8.91" style=""/><path d="m800 1417c0 22.8-15.7 40.2-33.7 40.2-18.5 0-33.9-17.7-33.9-40.2 0-23 16.1-39.8 33.8-39.8 18.1 0 33.8 17 33.8 39.8zm-9.66 1.62c0-21.2-11.7-34.4-24.1-34.4-12.8 0-24.2 13.6-24.2 34.4 0 19.9 11.9 31.7 24.1 31.7 12.6 0 24.2-12.3 24.2-31.7" style=""/><path d="m861 1400c0 7.06-3.36 12.3-5.75 14.9-5.09 5.42-8.67 6.4-18.7 8.89-6.3 1.53-8.03 1.95-11.3 4.78-.765.65-3.81 3.79-3.81 8.56 0 6.41 5.86 12.9 15.8 12.9 9.12 0 14.3-3.58 18.3-6.95l1.62 8.69c-5.97 3.57-11.9 5.42-19.9 5.42-15.1 0-24.5-10.6-24.5-21.4 0-4.65 1.52-9.22 5.86-13.8 4.56-4.87 9.33-6.19 15.7-7.7 9.22-2.28 10.3-2.61 13.3-5.31 2.17-1.85 4.56-5.43 4.56-10.1 0-7.15-5.97-14.3-15.8-14.3-4.45 0-14.2 1.1-23.3 8.8l-1.62-8.8c9.55-5.96 18.2-7.48 25.1-7.48 14.3 0 24.3 11 24.3 22.9" style=""/></g><g style="fill:#fff"><path d="m948 1380v31.4c0 11.1-7.92 18.7-17.9 18.7-7.05 0-11.9-1.74-17-4.66l.656-7.17c5.64 4.01 11.1 5.44 16.4 5.44 5.11 0 9.45-4.35 9.45-12.4v-4.67c-16.3-.22-30.1-4.77-30.1-14.3 0-4.68 2.92-13.5 12.4-13.5 1.52 0 11.7.22 18 5.1v-3.91zm-8.45 14.3c0-2.06 0-4.78-3.7-6.85-3.14-1.95-7.27-2.06-8.45-2.06-5.22 0-10.1 2.5-10.1 7.06 0 7.6 17.6 8.35 22.2 8.57v-6.72" style=""/><path d="m1031 1394c0 5.97-4.01 9.66-4.23 9.99-4.24 3.79-7.16 4.43-12.6 5.42-5.97 1.18-11 2.28-11 7.59 0 6.74 7.81 6.74 9.22 6.74 3.48 0 9.23-.44 15.4-4.13l1.3 7.05c-5.64 2.61-10.1 3.47-15.6 3.47-2.71 0-18 0-18-14.2 0-5.33 3.16-8.79 5.86-10.9 3.36-2.39 5.75-2.81 11.7-4.01 3.9-.75 10.2-2.06 10.2-7.81 0-7.49-8.58-7.49-10.2-7.49-8.78 0-14.9 4.02-16.8 5.31l-1.31-7.37c3.48-1.74 9.45-4.77 18.2-4.77 1.95 0 7.92 0 12.6 3.47 3.36 2.6 5.2 6.94 5.2 11.6" style=""/><path d="m1078 1380v31.4c0 11.1-7.93 18.7-17.9 18.7-7.05 0-11.9-1.74-17-4.66l.65-7.17c5.64 4.01 11.1 5.44 16.4 5.44 5.11 0 9.45-4.35 9.45-12.4v-4.67c-16.3-.22-30.1-4.77-30.1-14.3 0-4.68 2.92-13.5 12.4-13.5 1.52 0 11.7.22 18 5.1v-3.91zm-8.46 14.3c0-2.06 0-4.78-3.7-6.85-3.14-1.95-7.27-2.06-8.45-2.06-5.22 0-10.1 2.5-10.1 7.06 0 7.6 17.6 8.35 22.2 8.57v-6.72" style=""/><path d="m1125 1448v7.27c-1.32.33-4.68 1.2-8.69 1.2-10.2 0-18-7.7-18-18.6v-9.77h-8.03v-6.28h8.03v-41.9h8.14v41.9h11.9v6.28h-12.3v12.9c0 8.04 7.28 8.79 10.1 8.79 2.17 0 5.11-.22 8.8-1.85" style=""/><path d="m1165 1404c0 3.68-.11 11.8-4.34 18.3-4.45 6.74-11.1 7.93-15 7.93-12 0-21.8-11.5-21.8-25.5 0-14.3 10.4-25.7 23.4-25.7 6.85 0 13 2.6 17.2 5.64l-.64 7.05c-6.84-5.64-14-6.08-16.5-6.08-8.68 0-15.6 7.71-16 18.4zm-6.19 5.96h-26.8c1.73 8.25 7.48 13.7 13.7 13.7 5.64 0 11.7-3.69 13.1-13.7" style=""/><path d="m1204 1383-1.75 6.41c-2.81-2.28-6.28-3.58-9.76-3.58-4.02 0-5.54 3.25-5.54 9v27.1h15.3v6.28h-15.3v13.8h-7.48v-13.8h-9.44v-6.28h9.11v-29c0-6.5 1.52-14.1 9.02-14.1 7.59 0 13.1 2.71 15.8 4.11" style=""/><path d="m1253 1428h-8.14c-14.1-34.5-14.3-39.5-14.4-42h-.11c-.66 7.26-9.33 27.4-9.77 28.4l-5.86 13.6h-8.57l21-48.2-3.9-9.77c-2.82-6.29-4.66-6.29-6.18-6.29-1.75 0-5.21.44-8.46 1.73l.65-7.04c2.38-.55 5.42-.88 7.81-.88 3.8 0 7.82 1.31 12.2 12.4l23.7 58" style=""/><path d="m1285 1401v6.29h-28.8v-6.29z" style=""/><path d="m1329 1448v7.27c-1.32.33-4.68 1.2-8.69 1.2-10.2 0-18-7.7-18-18.6v-9.77h-8.03v-6.28h8.03v-41.9h8.14v41.9h11.9v6.28h-12.3v12.9c0 8.04 7.28 8.79 10.1 8.79 2.17 0 5.11-.22 8.8-1.85" style=""/><path d="m1376 1404c0 14.5-10.9 26.1-23.8 26.1-13.4 0-23.9-11.9-23.9-26.1 0-14.3 11.1-25.1 23.8-25.1 13 0 23.9 11 23.9 25.1zm-8.47 1.07c0-12.8-7.37-19.2-15.4-19.2-7.49 0-15.3 6.08-15.3 19.2 0 13.1 8.25 18.5 15.3 18.5 7.59 0 15.4-5.64 15.4-18.5" style=""/><path d="m1427 1384-.65 7.27c-5.54-4.34-11.4-5.86-16.9-5.86-9 0-15.1 7.81-15.1 18.4 0 8.46 4.01 18.9 15.5 18.9 5.64 0 9.33-.88 15.3-4.78l1.29 7.06c-6.4 3.69-10.1 4.66-16.7 4.66-15.1 0-23.9-13.1-23.9-25.9 0-13.4 9.87-25.3 23.4-25.3 5.86 0 11.8 1.52 17.7 5.53" style=""/><path d="m1478 1380v48.2h-8.47v-31.5c0-8.12-6.07-11.9-13-11.9-7.7 0-8.47 2.81-8.47 7.49v35.9h-8.47v-36.3c0-7.81 2.5-13 11.5-13 5.75 0 13.4 1.74 18.8 6.39v-5.2h8.14" style=""/><path d="m1526 1394c0 5.97-4.01 9.66-4.23 9.99-4.24 3.79-7.16 4.43-12.6 5.42-5.97 1.18-11 2.28-11 7.59 0 6.74 7.81 6.74 9.22 6.74 3.48 0 9.23-.44 15.4-4.13l1.3 7.05c-5.64 2.61-10.1 3.47-15.6 3.47-2.71 0-18 0-18-14.2 0-5.33 3.15-8.79 5.86-10.9 3.36-2.39 5.75-2.81 11.7-4.01 3.9-.75 10.2-2.06 10.2-7.81 0-7.49-8.58-7.49-10.2-7.49-8.78 0-14.9 4.02-16.8 5.31l-1.31-7.37c3.49-1.74 9.45-4.77 18.2-4.77 1.95 0 7.92 0 12.6 3.47 3.36 2.6 5.2 6.94 5.2 11.6" style=""/><path d="m1574 1404c0 3.68-.11 11.8-4.34 18.3-4.45 6.74-11.1 7.93-15 7.93-12 0-21.8-11.5-21.8-25.5 0-14.3 10.4-25.7 23.4-25.7 6.85 0 13 2.6 17.2 5.64l-.64 7.05c-6.84-5.64-14-6.08-16.5-6.08-8.68 0-15.6 7.71-16 18.4zm-6.19 5.96h-26.8c1.73 8.25 7.48 13.7 13.7 13.7 5.64 0 11.7-3.69 13.1-13.7" style=""/><path d="m1624 1380v75.3h-8.14v-31.9c-5.75 4.76-11.8 5.97-15.8 5.97-10.7 0-19.2-11.3-19.2-25.3 0-14.2 8.36-25.3 18.6-25.3 3.6 0 9.99.97 16.1 6.83v-5.64zm-8.46 15.1c0-1.52-.11-3.47-3.58-6.61-2.5-2.17-5.21-3.05-8.03-3.05-6.72 0-14.6 5.11-14.6 18.6 0 14.3 9.32 18.8 15.7 18.8 4.87 0 8.12-2.5 10.5-5.97v-21.7" style=""/><path d="m1705 1422v7.29c-9.65-.11-15.6-5.44-19-10.4v9.88h-7.61v-48.8h8.14v23.2c0 10.9 7.81 18.7 18.4 18.9" style=""/><path d="m1752 1404c0 3.68-.11 11.8-4.34 18.3-4.45 6.74-11.1 7.93-15 7.93-12 0-21.8-11.5-21.8-25.5 0-14.3 10.4-25.7 23.4-25.7 6.85 0 13 2.6 17.2 5.64l-.64 7.05c-6.84-5.64-14-6.08-16.5-6.08-8.68 0-15.6 7.71-16 18.4zm-6.19 5.96h-26.8c1.73 8.25 7.48 13.7 13.7 13.7 5.64 0 11.7-3.69 13.1-13.7" style=""/><path d="m1800 1380v31.4c0 11.1-7.93 18.7-17.9 18.7-7.05 0-11.9-1.74-17-4.66l.65-7.17c5.64 4.01 11.1 5.44 16.4 5.44 5.11 0 9.45-4.35 9.45-12.4v-4.67c-16.3-.22-30.1-4.77-30.1-14.3 0-4.68 2.92-13.5 12.4-13.5 1.52 0 11.7.22 18 5.1v-3.91zm-8.46 14.3c0-2.06 0-4.78-3.7-6.85-3.14-1.95-7.27-2.06-8.45-2.06-5.22 0-10.1 2.5-10.1 7.06 0 7.6 17.6 8.35 22.2 8.57v-6.72" style=""/><path d="m1825 1380v75.3h-8.14v-75.3z" style=""/><path d="m1864 1401v6.29h-28.8v-6.29z" style=""/><path d="m1907 1383-1.75 6.41c-2.81-2.28-6.28-3.58-9.76-3.58-4.02 0-5.54 3.25-5.54 9v27.1h15.3v6.28h-15.3v13.8h-7.48v-13.8h-9.44v-6.28h9.11v-29c0-6.5 1.52-14.1 9.02-14.1 7.59 0 13.1 2.71 15.8 4.11" style=""/><path d="m1927 1380v48.2h-8.14v-48.2zm.88 61.4v9.66h-9.66v-9.66z" style=""/><path d="m2013 1380v32.3c0 7.28-1.73 17-14.9 17-6.52 0-12.2-3.05-16.2-8.91-2.81 8.25-10.4 8.91-13.9 8.91-7.81 0-12.9-4.46-15.8-8.36v7.81h-7.81v-48.8h8.47v26.6c0 7.39 2.94 16.2 11 16.2 10.1 0 10.6-7.05 10.6-11.2v-31.6h8.47v26.6c0 7.39 2.92 16.2 11 16.2 10.1 0 10.6-7.05 10.6-11.2v-31.6h8.45" style=""/><path d="m2068 1404c0 3.68-.11 11.8-4.34 18.3-4.45 6.74-11.1 7.93-15 7.93-12 0-21.8-11.5-21.8-25.5 0-14.3 10.4-25.7 23.4-25.7 6.85 0 13 2.6 17.2 5.64l-.64 7.05c-6.84-5.64-14-6.08-16.5-6.08-8.68 0-15.6 7.71-16 18.4zm-6.19 5.96h-26.8c1.73 8.25 7.48 13.7 13.7 13.7 5.64 0 11.7-3.69 13.1-13.7" style=""/><path d="m2182 1417c0 22.8-15.7 40.2-33.7 40.2-18.5 0-33.9-17.7-33.9-40.2 0-23 16.1-39.8 33.8-39.8 18.1 0 33.8 17 33.8 39.8zm-9.65 1.62c0-21.2-11.7-34.4-24.1-34.4-12.8 0-24.2 13.6-24.2 34.4 0 19.9 11.9 31.7 24.1 31.7 12.6 0 24.2-12.3 24.2-31.7" style=""/><path d="m2242 1400c0 7.06-3.36 12.3-5.75 14.9-5.09 5.42-8.67 6.4-18.7 8.89-6.29 1.53-8.03 1.95-11.3 4.78-.76.65-3.81 3.79-3.81 8.56 0 6.41 5.86 12.9 15.8 12.9 9.13 0 14.3-3.58 18.4-6.95l1.62 8.69c-5.97 3.57-11.9 5.42-19.9 5.42-15.1 0-24.5-10.6-24.5-21.4 0-4.65 1.51-9.22 5.86-13.8 4.56-4.87 9.33-6.19 15.7-7.7 9.22-2.28 10.3-2.61 13.4-5.31 2.17-1.85 4.56-5.43 4.56-10.1 0-7.15-5.97-14.3-15.8-14.3-4.45 0-14.2 1.1-23.3 8.8l-1.63-8.8c9.55-5.96 18.2-7.48 25.1-7.48 14.3 0 24.3 11 24.3 22.9" style=""/><path d="m2268 1380v8.89h-9v-9h2.7l-2.7-13.6h4.44l4.56 13.7" style=""/><path d="m2332 1380v75.3h-8.14v-75.3z" style=""/><path d="m2386 1404c0 3.68-.11 11.8-4.34 18.3-4.45 6.74-11.1 7.93-15 7.93-12 0-21.8-11.5-21.8-25.5 0-14.3 10.4-25.7 23.4-25.7 6.85 0 13 2.6 17.2 5.64l-.64 7.05c-6.84-5.64-14-6.08-16.5-6.08-8.68 0-15.6 7.71-16 18.4zm-6.19 5.96h-26.8c1.73 8.25 7.48 13.7 13.7 13.7 5.64 0 11.7-3.69 13.1-13.7" style=""/><path d="m2429 1394c0 5.97-4.01 9.66-4.23 9.99-4.24 3.79-7.16 4.43-12.6 5.42-5.97 1.18-11 2.28-11 7.59 0 6.74 7.81 6.74 9.22 6.74 3.48 0 9.23-.44 15.4-4.13l1.3 7.05c-5.64 2.61-10.1 3.47-15.6 3.47-2.71 0-18 0-18-14.2 0-5.33 3.15-8.79 5.86-10.9 3.36-2.39 5.75-2.81 11.7-4.01 3.9-.75 10.2-2.06 10.2-7.81 0-7.49-8.58-7.49-10.2-7.49-8.78 0-14.9 4.02-16.8 5.31l-1.31-7.37c3.49-1.74 9.45-4.77 18.2-4.77 1.95 0 7.92 0 12.6 3.47 3.36 2.6 5.2 6.94 5.2 11.6" style=""/><path d="m2470 1394c0 5.97-4.01 9.66-4.23 9.99-4.24 3.79-7.16 4.43-12.6 5.42-5.97 1.18-11 2.28-11 7.59 0 6.74 7.81 6.74 9.22 6.74 3.48 0 9.23-.44 15.4-4.13l1.3 7.05c-5.64 2.61-10.1 3.47-15.6 3.47-2.71 0-18 0-18-14.2 0-5.33 3.15-8.79 5.86-10.9 3.36-2.39 5.75-2.81 11.7-4.01 3.9-.75 10.2-2.06 10.2-7.81 0-7.49-8.58-7.49-10.2-7.49-8.78 0-14.9 4.02-16.8 5.31l-1.31-7.37c3.49-1.74 9.45-4.77 18.2-4.77 1.95 0 7.92 0 12.6 3.47 3.36 2.6 5.2 6.94 5.2 11.6" style=""/><path d="m2582 1428h-7.92l-6.95-23c-1.19-3.9-4.44-14.6-4.98-19.3h-.11c-.44 3.36-3.14 13-4.99 19.2l-7.06 23.1h-7.59l-6.19-20.4c-1.19-3.8-4.88-16.3-5.31-21.8h-.11c-.55 5.2-4.13 17.5-5.86 23.4l-5.64 18.8h-8.25l14.9-48.2h8.56l6.74 22.4c1.51 4.98 4.54 15.7 4.87 19.7h.11c.22-3.03 2.06-10.5 3.47-15.2l7.92-26.9h9.55l14.9 48.2" style=""/><path d="m2601 1380v48.2h-8.14v-48.2zm.88 61.4v9.66h-9.66v-9.66z" style=""/><path d="m2657 1380v75.3h-8.14v-31.9c-5.75 4.76-11.8 5.97-15.8 5.97-10.7 0-19.2-11.3-19.2-25.3 0-14.2 8.36-25.3 18.6-25.3 3.6 0 9.99.97 16.1 6.83v-5.64zm-8.46 15.1c0-1.52-.11-3.47-3.58-6.61-2.5-2.17-5.21-3.05-8.03-3.05-6.72 0-14.6 5.11-14.6 18.6 0 14.3 9.32 18.8 15.7 18.8 4.87 0 8.12-2.5 10.5-5.97v-21.7" style=""/><path d="m2711 1404c0 3.68-.11 11.8-4.34 18.3-4.45 6.74-11.1 7.93-15 7.93-12 0-21.8-11.5-21.8-25.5 0-14.3 10.4-25.7 23.4-25.7 6.85 0 13 2.6 17.2 5.64l-.64 7.05c-6.84-5.64-14-6.08-16.5-6.08-8.68 0-15.6 7.71-16 18.4zm-6.19 5.96h-26.8c1.73 8.25 7.48 13.7 13.7 13.7 5.64 0 11.7-3.69 13.1-13.7" style=""/><path d="m2754 1394c0 5.97-4.01 9.66-4.23 9.99-4.24 3.79-7.16 4.43-12.6 5.42-5.97 1.18-11 2.28-11 7.59 0 6.74 7.81 6.74 9.22 6.74 3.48 0 9.23-.44 15.4-4.13l1.3 7.05c-5.64 2.61-10.1 3.47-15.6 3.47-2.71 0-18 0-18-14.2 0-5.33 3.15-8.79 5.86-10.9 3.36-2.39 5.75-2.81 11.7-4.01 3.9-.75 10.2-2.06 10.2-7.81 0-7.49-8.58-7.49-10.2-7.49-8.78 0-14.9 4.02-16.8 5.31l-1.31-7.37c3.49-1.74 9.45-4.77 18.2-4.77 1.95 0 7.92 0 12.6 3.47 3.36 2.6 5.2 6.94 5.2 11.6" style=""/><path d="m2809 1404c0 13-6.83 25.2-17.2 25.2-6.52 0-12.8-2.29-17.8-6.52v5.31h-8.14v-69.2h8.47v26c3.36-3.14 8.14-6.17 14.7-6.17 10.5 0 20.1 10.6 20.1 25.4zm-8.45 0c0-11.2-7.71-18.8-15.8-18.8-4.23 0-7.17 2.17-9.33 5.11-1.09 1.63-1.09 1.85-1.09 3.8v21.8c2.61 3.81 6.84 6.29 11.5 6.29 8.25 0 14.8-8.25 14.8-18.2" style=""/><path d="m2845 1422v7.29c-9.65-.11-15.6-5.44-19-10.4v9.88h-7.61v-48.8h8.14v23.2c0 10.9 7.81 18.7 18.4 18.9" style=""/><path d="m2892 1404c0 3.68-.11 11.8-4.34 18.3-4.45 6.74-11.1 7.93-15 7.93-12 0-21.8-11.5-21.8-25.5 0-14.3 10.4-25.7 23.4-25.7 6.85 0 13 2.6 17.2 5.64l-.64 7.05c-6.84-5.64-14-6.08-16.5-6.08-8.68 0-15.6 7.71-16 18.4zm-6.19 5.96h-26.8c1.73 8.25 7.48 13.7 13.7 13.7 5.64 0 11.7-3.69 13.1-13.7" style=""/><path d="m2940 1380v31.4c0 11.1-7.93 18.7-17.9 18.7-7.05 0-11.9-1.74-17-4.66l.65-7.17c5.64 4.01 11.1 5.44 16.4 5.44 5.11 0 9.45-4.35 9.45-12.4v-4.67c-16.3-.22-30.1-4.77-30.1-14.3 0-4.68 2.92-13.5 12.4-13.5 1.52 0 11.7.22 18 5.1v-3.91zm-8.46 14.3c0-2.06 0-4.78-3.7-6.85-3.14-1.95-7.27-2.06-8.45-2.06-5.22 0-10.1 2.5-10.1 7.06 0 7.6 17.6 8.35 22.2 8.57v-6.72" style=""/><path d="m3000 1380v75.3h-8.14v-31.9c-5.75 4.76-11.8 5.97-15.8 5.97-10.7 0-19.2-11.3-19.2-25.3 0-14.2 8.36-25.3 18.6-25.3 3.6 0 9.99.97 16.1 6.83v-5.64zm-8.46 15.1c0-1.52-.11-3.47-3.58-6.61-2.5-2.17-5.21-3.05-8.03-3.05-6.72 0-14.6 5.11-14.6 18.6 0 14.3 9.32 18.8 15.7 18.8 4.87 0 8.12-2.5 10.5-5.97v-21.7" style=""/><path d="m3077 1383-1.75 6.41c-2.81-2.28-6.28-3.58-9.76-3.58-4.02 0-5.54 3.25-5.54 9v27.1h15.3v6.28h-15.3v13.8h-7.48v-13.8h-9.44v-6.28h9.11v-29c0-6.5 1.52-14.1 9.02-14.1 7.59 0 13.1 2.71 15.8 4.11" style=""/><path d="m3127 1380v32.3c0 7.17-1.62 17-14.9 17-6.72 0-11.9-3.38-15.4-7.82v33.7h-8.14v-75.3h8.47v26.6c0 7.17 2.72 16.2 11 16.2 10.4 0 10.5-7.7 10.5-11.2v-31.6h8.47" style=""/><path d="m3181 1380v31.4c0 11.1-7.93 18.7-17.9 18.7-7.05 0-11.9-1.74-17-4.66l.65-7.17c5.64 4.01 11.1 5.44 16.4 5.44 5.11 0 9.45-4.35 9.45-12.4v-4.67c-16.3-.22-30.1-4.77-30.1-14.3 0-4.68 2.92-13.5 12.4-13.5 1.52 0 11.7.22 18 5.1v-3.91zm-8.46 14.3c0-2.06 0-4.78-3.7-6.85-3.14-1.95-7.27-2.06-8.45-2.06-5.22 0-10.1 2.5-10.1 7.06 0 7.6 17.6 8.35 22.2 8.57v-6.72" style=""/><path d="m3236 1380v32.3c0 7.17-1.62 17-14.9 17-9.77 0-15.1-7.4-15.7-8.25v7.7h-7.81v-48.8h8.47v26.6c0 7.17 2.72 16.2 11 16.2 10.4 0 10.5-7.7 10.5-11.2v-31.6h8.47" style=""/><path d="m3266 1380v8.89h-9v-9h2.7l-2.7-13.6h4.44l4.56 13.7" style=""/><path d="m3351 1394c0 5.97-4.01 9.66-4.23 9.99-4.24 3.79-7.16 4.43-12.6 5.42-5.97 1.18-11 2.28-11 7.59 0 6.74 7.81 6.74 9.22 6.74 3.48 0 9.23-.44 15.4-4.13l1.3 7.05c-5.64 2.61-10.1 3.47-15.6 3.47-2.71 0-18 0-18-14.2 0-5.33 3.15-8.79 5.86-10.9 3.36-2.39 5.75-2.81 11.7-4.01 3.9-.75 10.2-2.06 10.2-7.81 0-7.49-8.58-7.49-10.2-7.49-8.78 0-14.9 4.02-16.8 5.31l-1.31-7.37c3.49-1.74 9.45-4.77 18.2-4.77 1.95 0 7.92 0 12.6 3.47 3.36 2.6 5.2 6.94 5.2 11.6" style=""/><path d="m3398 1380v31.4c0 11.1-7.93 18.7-17.9 18.7-7.05 0-11.9-1.74-17-4.66l.65-7.17c5.64 4.01 11.1 5.44 16.4 5.44 5.11 0 9.45-4.35 9.45-12.4v-4.67c-16.3-.22-30.1-4.77-30.1-14.3 0-4.68 2.92-13.5 12.4-13.5 1.52 0 11.7.22 18 5.1v-3.91zm-8.46 14.3c0-2.06 0-4.78-3.7-6.85-3.14-1.95-7.27-2.06-8.45-2.06-5.22 0-10.1 2.5-10.1 7.06 0 7.6 17.6 8.35 22.2 8.57v-6.72" style=""/><path d="m3451 1428h-8.14c-14.1-34.5-14.3-39.5-14.4-42h-.11c-.66 7.26-9.33 27.4-9.77 28.4l-5.86 13.6h-8.57l21-48.2-3.9-9.77c-2.82-6.29-4.66-6.29-6.18-6.29-1.75 0-5.21.44-8.46 1.73l.65-7.04c2.38-.55 5.42-.88 7.81-.88 3.8 0 7.82 1.31 12.2 12.4l23.7 58" style=""/><path d="m3465 1380v8.89h-9v-9h2.7l-2.7-13.6h4.44l4.56 13.7" style=""/><path d="m3568 1448v7.06h-46.9v-75h9.66v34.2h32.8v6.63h-32.8v27.2h14.2c1.3 0 2.59-.11 3.9-.11h19.1" style=""/><path d="m3605 1422v7.29c-9.65-.11-15.6-5.44-19-10.4v9.88h-7.61v-48.8h8.14v23.2c0 10.9 7.81 18.7 18.4 18.9" style=""/><path d="m3653 1404c0 3.68-.11 11.8-4.34 18.3-4.45 6.74-11.1 7.93-15 7.93-12 0-21.8-11.5-21.8-25.5 0-14.3 10.4-25.7 23.4-25.7 6.85 0 13 2.6 17.2 5.64l-.64 7.05c-6.84-5.64-14-6.08-16.5-6.08-8.68 0-15.6 7.71-16 18.4zm-6.19 5.96h-26.8c1.73 8.25 7.48 13.7 13.7 13.7 5.64 0 11.7-3.69 13.1-13.7" style=""/><path d="m3701 1404c0 3.68-.11 11.8-4.34 18.3-4.45 6.74-11.1 7.93-15 7.93-12 0-21.8-11.5-21.8-25.5 0-14.3 10.4-25.7 23.4-25.7 6.85 0 13 2.6 17.2 5.64l-.64 7.05c-6.84-5.64-14-6.08-16.5-6.08-8.68 0-15.6 7.71-16 18.4zm-6.19 5.96h-26.8c1.73 8.25 7.48 13.7 13.7 13.7 5.64 0 11.7-3.69 13.1-13.7" style=""/><path d="m3772 1380-21.5 35.4c11.2 3.25 18.4 11 18.4 19.8 0 10.7-11.8 20.2-27.4 20.2h-26.1v-75.3h9.33v34.4h17.1l20.4-34.4zm-11.8 55.1c0-7.71-6.96-14.1-19.8-14.1h-15.6v28.2h15.6c12.6 0 19.8-6.4 19.8-14.1" style=""/><path d="m3845 1448v7.07h-66v-7.07h14.5c1.3 0 2.6.11 3.91.11h9.77v-67.7h9.65v67.7h9.66c1.29 0 2.59-.11 3.9-.11h14.5" style=""/><path d="m3923 1417c0 22.8-15.7 40.2-33.7 40.2-18.5 0-33.9-17.7-33.9-40.2 0-23 16.1-39.8 33.8-39.8 18.1 0 33.8 17 33.8 39.8zm-9.65 1.62c0-21.2-11.7-34.4-24.1-34.4-12.8 0-24.2 13.6-24.2 34.4 0 19.9 11.9 31.7 24.1 31.7 12.6 0 24.2-12.3 24.2-31.7" style=""/><path d="m3984 1400c0 7.06-3.36 12.3-5.75 14.9-5.09 5.42-8.67 6.4-18.7 8.89-6.29 1.53-8.03 1.95-11.3 4.78-.76.65-3.81 3.79-3.81 8.56 0 6.41 5.86 12.9 15.8 12.9 9.13 0 14.3-3.58 18.4-6.95l1.62 8.69c-5.97 3.57-11.9 5.42-19.9 5.42-15.1 0-24.5-10.6-24.5-21.4 0-4.65 1.51-9.22 5.86-13.8 4.56-4.87 9.33-6.19 15.7-7.7 9.22-2.28 10.3-2.61 13.4-5.31 2.17-1.85 4.56-5.43 4.56-10.1 0-7.15-5.97-14.3-15.8-14.3-4.45 0-14.2 1.1-23.3 8.8l-1.63-8.8c9.55-5.96 18.2-7.48 25.1-7.48 14.3 0 24.3 11 24.3 22.9" style=""/><path d="m4010 1380v9h-9v-9z" style=""/></g><g style="clip-path:url(#c)"><path d="m396 1216h51.3v51.3h-51.3z" style="fill:url(#g)"/></g><g style="fill:#fa6c00"><path d="m541 1228c0 5.97-4.02 9.66-4.24 9.99-4.23 3.79-7.16 4.43-12.6 5.42-5.97 1.18-11 2.28-11 7.59 0 6.74 7.81 6.74 9.22 6.74 3.48 0 9.23-.44 15.4-4.13l1.3 7.05c-5.64 2.61-10.1 3.47-15.6 3.47-2.72 0-18 0-18-14.2 0-5.33 3.16-8.79 5.86-10.9 3.36-2.39 5.75-2.81 11.7-4.01 3.91-.75 10.2-2.06 10.2-7.81 0-7.49-8.58-7.49-10.2-7.49-8.78 0-14.9 4.02-16.8 5.31l-1.31-7.37c3.48-1.74 9.45-4.77 18.2-4.77 1.95 0 7.92 0 12.6 3.47 3.36 2.6 5.2 6.94 5.2 11.6" style=""/><path d="m620 1214v32.3c0 7.28-1.73 17-14.9 17-6.52 0-12.2-3.05-16.2-8.91-2.81 8.25-10.4 8.91-13.9 8.91-7.81 0-12.9-4.46-15.8-8.36v7.81h-7.81v-48.8h8.47v26.6c0 7.39 2.94 16.2 11 16.2 10.1 0 10.6-7.05 10.6-11.2v-31.6h8.47v26.6c0 7.39 2.92 16.2 11 16.2 10.1 0 10.6-7.05 10.6-11.2v-31.6h8.45" style=""/><path d="m681 1238c0 14.5-10.9 26.1-23.8 26.1-13.3 0-23.9-11.9-23.9-26.1 0-14.3 11.1-25.1 23.8-25.1 13 0 23.9 11 23.9 25.1zm-8.47 1.07c0-12.8-7.38-19.2-15.4-19.2-7.48 0-15.3 6.08-15.3 19.2 0 13.1 8.25 18.5 15.3 18.5 7.59 0 15.4-5.64 15.4-18.5" style=""/><path d="m702 1214v75.3h-8.14v-75.3z" style=""/><path d="m747 1217-1.75 6.41c-2.81-2.28-6.28-3.58-9.76-3.58-4.02 0-5.53 3.25-5.53 9v27.1h15.3v6.28h-15.3v13.8h-7.48v-13.8h-9.44v-6.28h9.11v-29c0-6.5 1.52-14.1 9.02-14.1 7.59 0 13.1 2.71 15.8 4.11" style=""/><path d="m795 1218-.656 7.27c-5.53-4.34-11.4-5.86-16.9-5.86-9 0-15.1 7.81-15.1 18.4 0 8.46 4.02 18.9 15.5 18.9 5.64 0 9.33-.88 15.3-4.78l1.3 7.06c-6.41 3.69-10.1 4.66-16.7 4.66-15.1 0-23.9-13.1-23.9-25.9 0-13.4 9.88-25.3 23.4-25.3 5.86 0 11.8 1.52 17.7 5.53" style=""/><path d="m850 1238c0 13-6.83 25.2-17.2 25.2-6.52 0-12.8-2.29-17.8-6.52v5.31h-8.14v-69.2h8.47v26c3.36-3.14 8.14-6.17 14.7-6.17 10.5 0 20.1 10.6 20.1 25.4zm-8.45 0c0-11.2-7.7-18.8-15.8-18.8-4.23 0-7.17 2.17-9.33 5.11-1.09 1.63-1.09 1.85-1.09 3.8v21.8c2.61 3.81 6.84 6.29 11.5 6.29 8.25 0 14.8-8.25 14.8-18.2" style=""/></g><g style="fill:#fff"><path d="m963 1262h-7.92l-6.95-23c-1.19-3.9-4.44-14.6-4.98-19.3h-.109c-.438 3.36-3.14 13-4.98 19.2l-7.06 23.1h-7.59l-6.19-20.4c-1.19-3.8-4.88-16.3-5.31-21.8h-.109c-.547 5.2-4.12 17.5-5.86 23.4l-5.64 18.8h-8.25l14.9-48.2h8.56l6.74 22.4c1.52 4.98 4.55 15.7 4.88 19.7h.109c.219-3.03 2.06-10.5 3.47-15.2l7.92-26.9h9.55l14.9 48.2" style=""/><path d="m1008 1238c0 3.68-.11 11.8-4.34 18.3-4.46 6.74-11.1 7.93-15 7.93-12 0-21.8-11.5-21.8-25.5 0-14.3 10.4-25.7 23.4-25.7 6.84 0 13 2.6 17.2 5.64l-.64 7.05c-6.84-5.64-14-6.08-16.5-6.08-8.69 0-15.6 7.71-16 18.4zm-6.19 5.96h-26.8c1.73 8.25 7.48 13.7 13.7 13.7 5.64 0 11.7-3.69 13.1-13.7" style=""/><path d="m1028 1214v75.3h-8.14v-75.3z" style=""/><path d="m1054 1214v75.3h-8.14v-75.3z" style=""/><path d="m1147 1214v75.3h-8.14v-31.9c-5.75 4.76-11.8 5.97-15.8 5.97-10.7 0-19.2-11.3-19.2-25.3 0-14.2 8.36-25.3 18.6-25.3 3.6 0 9.99.97 16.1 6.83v-5.64zm-8.46 15.1c0-1.52-.11-3.47-3.58-6.61-2.5-2.17-5.21-3.05-8.03-3.05-6.72 0-14.6 5.11-14.6 18.6 0 14.3 9.32 18.8 15.7 18.8 4.87 0 8.12-2.5 10.5-5.97v-21.7" style=""/><path d="m1207 1238c0 14.5-10.9 26.1-23.8 26.1-13.4 0-23.9-11.9-23.9-26.1 0-14.3 11.1-25.1 23.8-25.1 13 0 23.9 11 23.9 25.1zm-8.47 1.07c0-12.8-7.37-19.2-15.4-19.2-7.49 0-15.3 6.08-15.3 19.2 0 13.1 8.25 18.5 15.3 18.5 7.59 0 15.4-5.64 15.4-18.5" style=""/><path d="m1259 1218-.65 7.27c-5.54-4.34-11.4-5.86-16.9-5.86-9 0-15.1 7.81-15.1 18.4 0 8.46 4.01 18.9 15.5 18.9 5.64 0 9.33-.88 15.3-4.78l1.29 7.06c-6.4 3.69-10.1 4.66-16.7 4.66-15.1 0-23.9-13.1-23.9-25.9 0-13.4 9.87-25.3 23.4-25.3 5.86 0 11.8 1.52 17.7 5.53" style=""/><path d="m1309 1214v48.2h-8.47v-31.5c0-8.12-6.07-11.9-13-11.9-7.7 0-8.47 2.81-8.47 7.49v35.9h-8.47v-36.3c0-7.81 2.5-13 11.5-13 5.75 0 13.4 1.74 18.8 6.39v-5.2h8.14" style=""/><path d="m1395 1214v32.3c0 7.28-1.73 17-14.9 17-6.52 0-12.2-3.05-16.2-8.91-2.81 8.25-10.4 8.91-13.9 8.91-7.81 0-12.9-4.46-15.8-8.36v7.81h-7.81v-48.8h8.47v26.6c0 7.39 2.94 16.2 11 16.2 10.1 0 10.6-7.05 10.6-11.2v-31.6h8.47v26.6c0 7.39 2.92 16.2 11 16.2 10.1 0 10.6-7.05 10.6-11.2v-31.6h8.45" style=""/><path d="m1450 1238c0 3.68-.11 11.8-4.34 18.3-4.45 6.74-11.1 7.93-15 7.93-12 0-21.8-11.5-21.8-25.5 0-14.3 10.4-25.7 23.4-25.7 6.85 0 13 2.6 17.2 5.64l-.64 7.05c-6.84-5.64-14-6.08-16.5-6.08-8.68 0-15.6 7.71-16 18.4zm-6.19 5.96h-26.8c1.73 8.25 7.48 13.7 13.7 13.7 5.64 0 11.7-3.69 13.1-13.7" style=""/><path d="m1500 1214v32.3c0 7.17-1.62 17-14.9 17-9.77 0-15.1-7.4-15.7-8.25v7.7h-7.81v-48.8h8.47v26.6c0 7.17 2.72 16.2 11 16.2 10.4 0 10.5-7.7 10.5-11.2v-31.6h8.47" style=""/><path d="m1546 1217-1.75 6.41c-2.81-2.28-6.28-3.58-9.76-3.58-4.02 0-5.54 3.25-5.54 9v27.1h15.3v6.28h-15.3v13.8h-7.48v-13.8h-9.44v-6.28h9.11v-29c0-6.5 1.52-14.1 9.02-14.1 7.59 0 13.1 2.71 15.8 4.11" style=""/><path d="m1594 1238c0 3.68-.11 11.8-4.34 18.3-4.45 6.74-11.1 7.93-15 7.93-12 0-21.8-11.5-21.8-25.5 0-14.3 10.4-25.7 23.4-25.7 6.85 0 13 2.6 17.2 5.64l-.64 7.05c-6.84-5.64-14-6.08-16.5-6.08-8.68 0-15.6 7.71-16 18.4zm-6.19 5.96h-26.8c1.73 8.25 7.48 13.7 13.7 13.7 5.64 0 11.7-3.69 13.1-13.7" style=""/><path d="m1645 1214v75.3h-8.14v-31.9c-5.75 4.76-11.8 5.97-15.8 5.97-10.7 0-19.2-11.3-19.2-25.3 0-14.2 8.36-25.3 18.6-25.3 3.6 0 9.99.97 16.1 6.83v-5.64zm-8.46 15.1c0-1.52-.11-3.47-3.58-6.61-2.5-2.17-5.21-3.05-8.03-3.05-6.72 0-14.6 5.11-14.6 18.6 0 14.3 9.32 18.8 15.7 18.8 4.87 0 8.12-2.5 10.5-5.97v-21.7" style=""/><path d="m1674 1214v8.89h-9v-9h2.7l-2.7-13.6h4.44l4.56 13.7" style=""/><path d="m1738 1214v48.2h-8.14v-48.2zm.88 61.4v9.66h-9.66v-9.66z" style=""/><path d="m1824 1214v32.3c0 7.28-1.73 17-14.9 17-6.52 0-12.2-3.05-16.2-8.91-2.81 8.25-10.4 8.91-13.9 8.91-7.81 0-12.9-4.46-15.8-8.36v7.81h-7.81v-48.8h8.47v26.6c0 7.39 2.94 16.2 11 16.2 10.1 0 10.6-7.05 10.6-11.2v-31.6h8.47v26.6c0 7.39 2.92 16.2 11 16.2 10.1 0 10.6-7.05 10.6-11.2v-31.6h8.45" style=""/><path d="m1885 1238c0 13-6.83 25.2-17.2 25.2-6.52 0-12.8-2.29-17.8-6.52v5.31h-8.14v-69.2h8.47v26c3.36-3.14 8.14-6.17 14.7-6.17 10.5 0 20.1 10.6 20.1 25.4zm-8.45 0c0-11.2-7.71-18.8-15.8-18.8-4.23 0-7.17 2.17-9.33 5.11-1.09 1.63-1.09 1.85-1.09 3.8v21.8c2.61 3.81 6.84 6.29 11.5 6.29 8.25 0 14.8-8.25 14.8-18.2" style=""/><path d="m1907 1214v75.3h-8.14v-75.3z" style=""/><path d="m1961 1238c0 3.68-.11 11.8-4.34 18.3-4.45 6.74-11.1 7.93-15 7.93-12 0-21.8-11.5-21.8-25.5 0-14.3 10.4-25.7 23.4-25.7 6.85 0 13 2.6 17.2 5.64l-.64 7.05c-6.84-5.64-14-6.08-16.5-6.08-8.68 0-15.6 7.71-16 18.4zm-6.19 5.96h-26.8c1.73 8.25 7.48 13.7 13.7 13.7 5.64 0 11.7-3.69 13.1-13.7" style=""/><path d="m2041 1214v32.3c0 7.28-1.73 17-14.9 17-6.52 0-12.2-3.05-16.2-8.91-2.81 8.25-10.4 8.91-13.9 8.91-7.81 0-12.9-4.46-15.8-8.36v7.81h-7.81v-48.8h8.47v26.6c0 7.39 2.94 16.2 11 16.2 10.1 0 10.6-7.05 10.6-11.2v-31.6h8.47v26.6c0 7.39 2.92 16.2 11 16.2 10.1 0 10.6-7.05 10.6-11.2v-31.6h8.45" style=""/><path d="m2096 1238c0 3.68-.11 11.8-4.34 18.3-4.45 6.74-11.1 7.93-15 7.93-12 0-21.8-11.5-21.8-25.5 0-14.3 10.4-25.7 23.4-25.7 6.85 0 13 2.6 17.2 5.64l-.64 7.05c-6.84-5.64-14-6.08-16.5-6.08-8.68 0-15.6 7.71-16 18.4zm-6.19 5.96h-26.8c1.73 8.25 7.48 13.7 13.7 13.7 5.64 0 11.7-3.69 13.1-13.7" style=""/><path d="m2146 1214v32.3c0 7.17-1.62 17-14.9 17-9.77 0-15.1-7.4-15.7-8.25v7.7h-7.81v-48.8h8.47v26.6c0 7.17 2.72 16.2 11 16.2 10.4 0 10.5-7.7 10.5-11.2v-31.6h8.47" style=""/><path d="m2192 1217-1.75 6.41c-2.81-2.28-6.28-3.58-9.76-3.58-4.02 0-5.54 3.25-5.54 9v27.1h15.3v6.28h-15.3v13.8h-7.48v-13.8h-9.44v-6.28h9.11v-29c0-6.5 1.52-14.1 9.02-14.1 7.59 0 13.1 2.71 15.8 4.11" style=""/><path d="m2240 1238c0 3.68-.11 11.8-4.34 18.3-4.45 6.74-11.1 7.93-15 7.93-12 0-21.8-11.5-21.8-25.5 0-14.3 10.4-25.7 23.4-25.7 6.85 0 13 2.6 17.2 5.64l-.64 7.05c-6.84-5.64-14-6.08-16.5-6.08-8.68 0-15.6 7.71-16 18.4zm-6.19 5.96h-26.8c1.73 8.25 7.48 13.7 13.7 13.7 5.64 0 11.7-3.69 13.1-13.7" style=""/><path d="m2291 1214v75.3h-8.14v-31.9c-5.75 4.76-11.8 5.97-15.8 5.97-10.7 0-19.2-11.3-19.2-25.3 0-14.2 8.36-25.3 18.6-25.3 3.6 0 9.99.97 16.1 6.83v-5.64zm-8.46 15.1c0-1.52-.11-3.47-3.58-6.61-2.5-2.17-5.21-3.05-8.03-3.05-6.72 0-14.6 5.11-14.6 18.6 0 14.3 9.32 18.8 15.7 18.8 4.87 0 8.12-2.5 10.5-5.97v-21.7" style=""/><path d="m2380 1214v31.4c0 11.1-7.93 18.7-17.9 18.7-7.05 0-11.9-1.74-17-4.66l.65-7.17c5.64 4.01 11.1 5.44 16.4 5.44 5.11 0 9.45-4.35 9.45-12.4v-4.67c-16.3-.22-30.1-4.77-30.1-14.3 0-4.68 2.92-13.5 12.4-13.5 1.52 0 11.7.22 18 5.1v-3.91zm-8.46 14.3c0-2.06 0-4.78-3.7-6.85-3.14-1.95-7.27-2.06-8.45-2.06-5.22 0-10.1 2.5-10.1 7.06 0 7.6 17.6 8.35 22.2 8.57v-6.72" style=""/><path d="m2436 1214v32.3c0 7.17-1.62 17-14.9 17-9.77 0-15.1-7.4-15.7-8.25v7.7h-7.81v-48.8h8.47v26.6c0 7.17 2.72 16.2 11 16.2 10.4 0 10.5-7.7 10.5-11.2v-31.6h8.47" style=""/><path d="m2492 1214v75.3h-8.14v-31.9c-5.75 4.76-11.8 5.97-15.8 5.97-10.7 0-19.2-11.3-19.2-25.3 0-14.2 8.36-25.3 18.6-25.3 3.6 0 9.99.97 16.1 6.83v-5.64zm-8.46 15.1c0-1.52-.11-3.47-3.58-6.61-2.5-2.17-5.21-3.05-8.03-3.05-6.72 0-14.6 5.11-14.6 18.6 0 14.3 9.32 18.8 15.7 18.8 4.87 0 8.12-2.5 10.5-5.97v-21.7" style=""/><path d="m2574 1217-1.75 6.41c-2.81-2.28-6.28-3.58-9.76-3.58-4.02 0-5.54 3.25-5.54 9v27.1h15.3v6.28h-15.3v13.8h-7.48v-13.8h-9.44v-6.28h9.11v-29c0-6.5 1.52-14.1 9.02-14.1 7.59 0 13.1 2.71 15.8 4.11" style=""/><path d="m2622 1238c0 3.68-.11 11.8-4.34 18.3-4.45 6.74-11.1 7.93-15 7.93-12 0-21.8-11.5-21.8-25.5 0-14.3 10.4-25.7 23.4-25.7 6.85 0 13 2.6 17.2 5.64l-.64 7.05c-6.84-5.64-14-6.08-16.5-6.08-8.68 0-15.6 7.71-16 18.4zm-6.19 5.96h-26.8c1.73 8.25 7.48 13.7 13.7 13.7 5.64 0 11.7-3.69 13.1-13.7" style=""/><path d="m2665 1228c0 5.97-4.01 9.66-4.23 9.99-4.24 3.79-7.16 4.43-12.6 5.42-5.97 1.18-11 2.28-11 7.59 0 6.74 7.81 6.74 9.22 6.74 3.48 0 9.23-.44 15.4-4.13l1.3 7.05c-5.64 2.61-10.1 3.47-15.6 3.47-2.71 0-18 0-18-14.2 0-5.33 3.15-8.79 5.86-10.9 3.36-2.39 5.75-2.81 11.7-4.01 3.9-.75 10.2-2.06 10.2-7.81 0-7.49-8.58-7.49-10.2-7.49-8.78 0-14.9 4.02-16.8 5.31l-1.31-7.37c3.49-1.74 9.45-4.77 18.2-4.77 1.95 0 7.92 0 12.6 3.47 3.36 2.6 5.2 6.94 5.2 11.6" style=""/><path d="m2703 1217-1.75 6.41c-2.81-2.28-6.28-3.58-9.76-3.58-4.02 0-5.54 3.25-5.54 9v27.1h15.3v6.28h-15.3v13.8h-7.48v-13.8h-9.44v-6.28h9.11v-29c0-6.5 1.52-14.1 9.02-14.1 7.59 0 13.1 2.71 15.8 4.11" style=""/><path d="m2752 1238c0 3.68-.11 11.8-4.34 18.3-4.45 6.74-11.1 7.93-15 7.93-12 0-21.8-11.5-21.8-25.5 0-14.3 10.4-25.7 23.4-25.7 6.85 0 13 2.6 17.2 5.64l-.64 7.05c-6.84-5.64-14-6.08-16.5-6.08-8.68 0-15.6 7.71-16 18.4zm-6.19 5.96h-26.8c1.73 8.25 7.48 13.7 13.7 13.7 5.64 0 11.7-3.69 13.1-13.7" style=""/><path d="m2802 1214v75.3h-8.14v-31.9c-5.75 4.76-11.8 5.97-15.8 5.97-10.7 0-19.2-11.3-19.2-25.3 0-14.2 8.36-25.3 18.6-25.3 3.6 0 9.99.97 16.1 6.83v-5.64zm-8.46 15.1c0-1.52-.11-3.47-3.58-6.61-2.5-2.17-5.21-3.05-8.03-3.05-6.72 0-14.6 5.11-14.6 18.6 0 14.3 9.32 18.8 15.7 18.8 4.87 0 8.12-2.5 10.5-5.97v-21.7" style=""/><path d="m2832 1214v8.89h-9v-9h2.7l-2.7-13.6h4.44l4.56 13.7" style=""/><path d="m2930 1238c0 13.5-7.38 25.2-17.6 25.2-4.23 0-11-1.1-17.5-6.41v32.3h-8.14v-75.3h8.47v4.98c2.61-2.37 7.27-6.17 14.6-6.17 10.8 0 20.2 10.8 20.2 25.4zm-8.45 0c0-14.1-9.13-18.8-15.7-18.8-4.23 0-7.81 1.96-10.5 6.96v24c1.73 2.61 5.64 6.41 11.6 6.41 6.41 0 14.7-4.67 14.7-18.6" style=""/><path d="m2982 1214v48.2h-8.47v-31.5c0-8.12-6.07-11.9-13-11.9-7.7 0-8.47 2.81-8.47 7.49v35.9h-8.47v-36.3c0-7.81 2.5-13 11.5-13 5.75 0 13.4 1.74 18.8 6.39v-5.2h8.14" style=""/><path d="m3027 1217-1.75 6.41c-2.81-2.28-6.28-3.58-9.76-3.58-4.02 0-5.54 3.25-5.54 9v27.1h15.3v6.28h-15.3v13.8h-7.48v-13.8h-9.44v-6.28h9.11v-29c0-6.5 1.52-14.1 9.02-14.1 7.59 0 13.1 2.71 15.8 4.11" style=""/><path d="m3084 1214v75.3h-8.14v-75.3z" style=""/><path d="m3138 1238c0 3.68-.11 11.8-4.34 18.3-4.45 6.74-11.1 7.93-15 7.93-12 0-21.8-11.5-21.8-25.5 0-14.3 10.4-25.7 23.4-25.7 6.85 0 13 2.6 17.2 5.64l-.64 7.05c-6.84-5.64-14-6.08-16.5-6.08-8.68 0-15.6 7.71-16 18.4zm-6.19 5.96h-26.8c1.73 8.25 7.48 13.7 13.7 13.7 5.64 0 11.7-3.69 13.1-13.7" style=""/><path d="m3180 1228c0 5.97-4.01 9.66-4.23 9.99-4.24 3.79-7.16 4.43-12.6 5.42-5.97 1.18-11 2.28-11 7.59 0 6.74 7.81 6.74 9.22 6.74 3.48 0 9.23-.44 15.4-4.13l1.3 7.05c-5.64 2.61-10.1 3.47-15.6 3.47-2.71 0-18 0-18-14.2 0-5.33 3.15-8.79 5.86-10.9 3.36-2.39 5.75-2.81 11.7-4.01 3.9-.75 10.2-2.06 10.2-7.81 0-7.49-8.58-7.49-10.2-7.49-8.78 0-14.9 4.02-16.8 5.31l-1.31-7.37c3.49-1.74 9.45-4.77 18.2-4.77 1.95 0 7.92 0 12.6 3.47 3.36 2.6 5.2 6.94 5.2 11.6" style=""/><path d="m3222 1228c0 5.97-4.01 9.66-4.23 9.99-4.24 3.79-7.16 4.43-12.6 5.42-5.97 1.18-11 2.28-11 7.59 0 6.74 7.81 6.74 9.22 6.74 3.48 0 9.23-.44 15.4-4.13l1.3 7.05c-5.64 2.61-10.1 3.47-15.6 3.47-2.71 0-18 0-18-14.2 0-5.33 3.15-8.79 5.86-10.9 3.36-2.39 5.75-2.81 11.7-4.01 3.9-.75 10.2-2.06 10.2-7.81 0-7.49-8.58-7.49-10.2-7.49-8.78 0-14.9 4.02-16.8 5.31l-1.31-7.37c3.49-1.74 9.45-4.77 18.2-4.77 1.95 0 7.92 0 12.6 3.47 3.36 2.6 5.2 6.94 5.2 11.6" style=""/><path d="m3297 1217-1.75 6.41c-2.81-2.28-6.28-3.58-9.76-3.58-4.02 0-5.54 3.25-5.54 9v27.1h15.3v6.28h-15.3v13.8h-7.48v-13.8h-9.44v-6.28h9.11v-29c0-6.5 1.52-14.1 9.02-14.1 7.59 0 13.1 2.71 15.8 4.11" style=""/><path d="m3336 1256v7.29c-9.65-.11-15.6-5.44-19-10.4v9.88h-7.61v-48.8h8.14v23.2c0 10.9 7.81 18.7 18.4 18.9" style=""/><path d="m3355 1214v48.2h-8.14v-48.2zm.88 61.4v9.66h-9.66v-9.66z" style=""/><path d="m3409 1238c0 3.68-.11 11.8-4.34 18.3-4.45 6.74-11.1 7.93-15 7.93-12 0-21.8-11.5-21.8-25.5 0-14.3 10.4-25.7 23.4-25.7 6.85 0 13 2.6 17.2 5.64l-.64 7.05c-6.84-5.64-14-6.08-16.5-6.08-8.68 0-15.6 7.71-16 18.4zm-6.19 5.96h-26.8c1.73 8.25 7.48 13.7 13.7 13.7 5.64 0 11.7-3.69 13.1-13.7" style=""/><path d="m3459 1214v75.3h-8.14v-31.9c-5.75 4.76-11.8 5.97-15.8 5.97-10.7 0-19.2-11.3-19.2-25.3 0-14.2 8.36-25.3 18.6-25.3 3.6 0 9.99.97 16.1 6.83v-5.64zm-8.46 15.1c0-1.52-.11-3.47-3.58-6.61-2.5-2.17-5.21-3.05-8.03-3.05-6.72 0-14.6 5.11-14.6 18.6 0 14.3 9.32 18.8 15.7 18.8 4.87 0 8.12-2.5 10.5-5.97v-21.7" style=""/><path d="m3550 1218-.65 7.27c-5.54-4.34-11.4-5.86-16.9-5.86-9 0-15.1 7.81-15.1 18.4 0 8.46 4.01 18.9 15.5 18.9 5.64 0 9.33-.88 15.3-4.78l1.29 7.06c-6.4 3.69-10.1 4.66-16.7 4.66-15.1 0-23.9-13.1-23.9-25.9 0-13.4 9.87-25.3 23.4-25.3 5.86 0 11.8 1.52 17.7 5.53" style=""/><path d="m3605 1238c0 14.5-10.9 26.1-23.8 26.1-13.4 0-23.9-11.9-23.9-26.1 0-14.3 11.1-25.1 23.8-25.1 13 0 23.9 11 23.9 25.1zm-8.47 1.07c0-12.8-7.37-19.2-15.4-19.2-7.49 0-15.3 6.08-15.3 19.2 0 13.1 8.25 18.5 15.3 18.5 7.59 0 15.4-5.64 15.4-18.5" style=""/><path d="m3685 1214v32.3c0 7.28-1.73 17-14.9 17-6.52 0-12.2-3.05-16.2-8.91-2.81 8.25-10.4 8.91-13.9 8.91-7.81 0-12.9-4.46-15.8-8.36v7.81h-7.81v-48.8h8.47v26.6c0 7.39 2.94 16.2 11 16.2 10.1 0 10.6-7.05 10.6-11.2v-31.6h8.47v26.6c0 7.39 2.92 16.2 11 16.2 10.1 0 10.6-7.05 10.6-11.2v-31.6h8.45" style=""/><path d="m3747 1238c0 13-6.83 25.2-17.2 25.2-6.52 0-12.8-2.29-17.8-6.52v5.31h-8.14v-69.2h8.47v26c3.36-3.14 8.14-6.17 14.7-6.17 10.5 0 20.1 10.6 20.1 25.4zm-8.45 0c0-11.2-7.71-18.8-15.8-18.8-4.23 0-7.17 2.17-9.33 5.11-1.09 1.63-1.09 1.85-1.09 3.8v21.8c2.61 3.81 6.84 6.29 11.5 6.29 8.25 0 14.8-8.25 14.8-18.2" style=""/><path d="m3799 1238c0 3.68-.11 11.8-4.34 18.3-4.45 6.74-11.1 7.93-15 7.93-12 0-21.8-11.5-21.8-25.5 0-14.3 10.4-25.7 23.4-25.7 6.85 0 13 2.6 17.2 5.64l-.64 7.05c-6.84-5.64-14-6.08-16.5-6.08-8.68 0-15.6 7.71-16 18.4zm-6.19 5.96h-26.8c1.73 8.25 7.48 13.7 13.7 13.7 5.64 0 11.7-3.69 13.1-13.7" style=""/><path d="m3839 1217-1.75 6.41c-2.81-2.28-6.28-3.58-9.76-3.58-4.02 0-5.54 3.25-5.54 9v27.1h15.3v6.28h-15.3v13.8h-7.48v-13.8h-9.44v-6.28h9.11v-29c0-6.5 1.52-14.1 9.02-14.1 7.59 0 13.1 2.71 15.8 4.11" style=""/><path d="m3859 1214v48.2h-8.14v-48.2zm.88 61.4v9.66h-9.66v-9.66z" style=""/><path d="m3904 1217-1.75 6.41c-2.81-2.28-6.28-3.58-9.76-3.58-4.02 0-5.54 3.25-5.54 9v27.1h15.3v6.28h-15.3v13.8h-7.48v-13.8h-9.44v-6.28h9.11v-29c0-6.5 1.52-14.1 9.02-14.1 7.59 0 13.1 2.71 15.8 4.11" style=""/><path d="m3958 1238c0 14.5-10.9 26.1-23.8 26.1-13.4 0-23.9-11.9-23.9-26.1 0-14.3 11.1-25.1 23.8-25.1 13 0 23.9 11 23.9 25.1zm-8.47 1.07c0-12.8-7.37-19.2-15.4-19.2-7.49 0-15.3 6.08-15.3 19.2 0 13.1 8.25 18.5 15.3 18.5 7.59 0 15.4-5.64 15.4-18.5" style=""/><path d="m3994 1256v7.29c-9.65-.11-15.6-5.44-19-10.4v9.88h-7.61v-48.8h8.14v23.2c0 10.9 7.81 18.7 18.4 18.9" style=""/><path d="m4084 1238c0 14.5-10.9 26.1-23.8 26.1-13.4 0-23.9-11.9-23.9-26.1 0-14.3 11.1-25.1 23.8-25.1 13 0 23.9 11 23.9 25.1zm-8.47 1.07c0-12.8-7.37-19.2-15.4-19.2-7.49 0-15.3 6.08-15.3 19.2 0 13.1 8.25 18.5 15.3 18.5 7.59 0 15.4-5.64 15.4-18.5" style=""/><path d="m4125 1282v7.27c-1.32.33-4.68 1.2-8.69 1.2-10.2 0-18-7.7-18-18.6v-9.77h-8.03v-6.28h8.03v-41.9h8.14v41.9h11.9v6.28h-12.3v12.9c0 8.04 7.28 8.79 10.1 8.79 2.17 0 5.11-.22 8.8-1.85" style=""/><path d="m519 1079v75.3h-8.14v-75.3z" style=""/><path d="m600 1127h-7.92l-6.95-23c-1.19-3.9-4.44-14.6-4.98-19.3h-.109c-.438 3.36-3.14 13-4.98 19.2l-7.06 23.1h-7.59l-6.19-20.4c-1.19-3.8-4.88-16.3-5.31-21.8h-.109c-.547 5.2-4.12 17.5-5.86 23.4l-5.64 18.8h-8.25l14.9-48.2h8.56l6.74 22.4c1.52 4.98 4.55 15.7 4.88 19.7h.109c.219-3.03 2.06-10.5 3.47-15.2l7.92-26.9h9.55l14.9 48.2" style=""/><path d="m622 1079v75.3h-9.66v-75.3z" style=""/><path d="m696 1132c0 11.6-10.8 21.9-25.7 21.9h-27v-75.3h9.66v31.4h18.1c13.5 0 25 9.87 25 22zm-8.8 0c0-8.58-6.83-15.7-19.3-15.7h-15.3v31.6h15.3c11.9 0 19.3-6.62 19.3-15.8" style=""/><path d="m713 1079v9h-9v-9z" style=""/></g><g style="clip-path:url(#d)"><path d="m396 915h51.3v51.3h-51.3z" style="fill:url(#h)"/></g><g style="fill:#fa6c00"><path d="m537 955v7.28c-9.66-.109-15.6-5.44-19-10.4v9.88h-7.61v-48.8h8.14v23.2c0 10.9 7.81 18.7 18.5 18.9" style=""/><path d="m575 916-1.75 6.41c-2.81-2.28-6.28-3.58-9.76-3.58-4.02 0-5.53 3.25-5.53 9v27.1h15.3v6.28h-15.3v13.8h-7.48v-13.8h-9.44v-6.28h9.11v-29c0-6.5 1.52-14.1 9.02-14.1 7.59 0 13.1 2.7 15.8 4.11" style=""/><path d="m616 981v7.27c-1.31.328-4.67 1.2-8.69 1.2-10.2 0-18-7.7-18-18.6v-9.77h-8.03v-6.28h8.03v-41.9h8.14v41.9h11.9v6.28h-12.3v12.9c0 8.03 7.28 8.78 10.1 8.78 2.17 0 5.11-.219 8.8-1.84" style=""/><path d="m689 913v32.3c0 7.28-1.73 17-14.9 17-6.52 0-12.2-3.05-16.2-8.91-2.81 8.25-10.4 8.91-13.9 8.91-7.81 0-12.9-4.45-15.8-8.36v7.81h-7.81v-48.8h8.47v26.6c0 7.39 2.94 16.2 11 16.2 10.1 0 10.6-7.05 10.6-11.2v-31.6h8.47v26.6c0 7.39 2.92 16.2 11 16.2 10.1 0 10.6-7.05 10.6-11.2v-31.6h8.45" style=""/></g><g style="fill:#fff"><path d="m779 913v31.4c0 11.1-7.92 18.7-17.9 18.7-7.05 0-11.9-1.74-17-4.66l.656-7.17c5.64 4.02 11.1 5.44 16.4 5.44 5.11 0 9.45-4.34 9.45-12.4v-4.67c-16.3-.219-30.1-4.76-30.1-14.3 0-4.67 2.92-13.5 12.4-13.5 1.52 0 11.7.218 18 5.09v-3.91zm-8.45 14.3c0-2.06 0-4.78-3.7-6.84-3.14-1.95-7.27-2.06-8.45-2.06-5.22 0-10.1 2.5-10.1 7.06 0 7.59 17.6 8.34 22.2 8.56v-6.72" style=""/><path d="m870 913v32.3c0 7.17-1.62 17-14.9 17-9.76 0-15.1-7.39-15.7-8.25v7.7h-7.81v-48.8h8.47v26.6c0 7.17 2.72 16.2 11 16.2 10.4 0 10.5-7.7 10.5-11.2v-31.6h8.47" style=""/><path d="m897 913v48.2h-8.14v-48.2zm.875 61.4v9.66h-9.66v-9.66z" style=""/><path d="m951 917-.656 7.26c-5.53-4.34-11.4-5.86-16.9-5.86-9 0-15.1 7.81-15.1 18.5 0 8.45 4.02 18.9 15.5 18.9 5.64 0 9.33-.875 15.3-4.78l1.3 7.06c-6.41 3.69-10.1 4.66-16.7 4.66-15.1 0-23.9-13.1-23.9-25.9 0-13.5 9.88-25.3 23.4-25.3 5.86 0 11.8 1.52 17.7 5.53" style=""/><path d="m999 937c0 3.69-.109 11.8-4.34 18.3-4.45 6.73-11.1 7.92-15 7.92-12 0-21.8-11.5-21.8-25.5 0-14.3 10.4-25.7 23.4-25.7 6.84 0 13 2.59 17.2 5.64l-.64 7.05c-6.84-5.64-14-6.08-16.5-6.08-8.69 0-15.6 7.7-16 18.3zm-6.19 5.97h-26.8c1.73 8.25 7.48 13.7 13.7 13.7 5.64 0 11.7-3.69 13.1-13.7" style=""/><path d="m1077 981v7.27c-1.32.328-4.68 1.2-8.69 1.2-10.2 0-18-7.7-18-18.6v-9.77h-8.03v-6.28h8.03v-41.9h8.14v41.9h11.9v6.28h-12.3v12.9c0 8.03 7.28 8.78 10.1 8.78 2.17 0 5.11-.219 8.8-1.84" style=""/><path d="m1108 955v7.28c-9.65-.109-15.6-5.44-19-10.4v9.88h-7.61v-48.8h8.14v23.2c0 10.9 7.81 18.7 18.4 18.9" style=""/><path d="m1154 913v31.4c0 11.1-7.93 18.7-17.9 18.7-7.05 0-11.9-1.74-17-4.66l.65-7.17c5.64 4.02 11.1 5.44 16.4 5.44 5.11 0 9.45-4.34 9.45-12.4v-4.67c-16.3-.219-30.1-4.76-30.1-14.3 0-4.67 2.92-13.5 12.4-13.5 1.52 0 11.7.218 18 5.09v-3.91zm-8.46 14.3c0-2.06 0-4.78-3.7-6.84-3.14-1.95-7.27-2.06-8.45-2.06-5.22 0-10.1 2.5-10.1 7.06 0 7.59 17.6 8.34 22.2 8.56v-6.72" style=""/><path d="m1239 913v32.3c0 7.28-1.73 17-14.9 17-6.52 0-12.2-3.05-16.2-8.91-2.81 8.25-10.4 8.91-13.9 8.91-7.81 0-12.9-4.45-15.8-8.36v7.81h-7.81v-48.8h8.47v26.6c0 7.39 2.94 16.2 11 16.2 10.1 0 10.6-7.05 10.6-11.2v-31.6h8.47v26.6c0 7.39 2.92 16.2 11 16.2 10.1 0 10.6-7.05 10.6-11.2v-31.6h8.45" style=""/><path d="m1294 937c0 3.69-.11 11.8-4.34 18.3-4.45 6.73-11.1 7.92-15 7.92-12 0-21.8-11.5-21.8-25.5 0-14.3 10.4-25.7 23.4-25.7 6.85 0 13 2.59 17.2 5.64l-.64 7.05c-6.84-5.64-14-6.08-16.5-6.08-8.68 0-15.6 7.7-16 18.3zm-6.19 5.97h-26.8c1.73 8.25 7.48 13.7 13.7 13.7 5.64 0 11.7-3.69 13.1-13.7" style=""/><path d="m1369 961h-7.92l-6.95-23c-1.19-3.91-4.44-14.6-4.98-19.3h-.11c-.44 3.36-3.14 13-4.99 19.2l-7.06 23.1h-7.59l-6.19-20.4c-1.19-3.8-4.88-16.3-5.31-21.8h-.11c-.55 5.2-4.13 17.5-5.86 23.4l-5.64 18.8h-8.25l14.9-48.2h8.56l6.74 22.4c1.51 4.98 4.54 15.7 4.87 19.7h.11c.22-3.03 2.06-10.5 3.47-15.2l7.92-26.9h9.55l14.9 48.2" style=""/><path d="m1420 937c0 14.5-10.9 26.1-23.8 26.1-13.4 0-23.9-11.9-23.9-26.1 0-14.3 11.1-25.1 23.8-25.1 13 0 23.9 11 23.9 25.1zm-8.47 1.08c0-12.8-7.37-19.2-15.4-19.2-7.49 0-15.3 6.08-15.3 19.2s8.25 18.5 15.3 18.5c7.59 0 15.4-5.64 15.4-18.5" style=""/><path d="m1455 955v7.28c-9.65-.109-15.6-5.44-19-10.4v9.88h-7.61v-48.8h8.14v23.2c0 10.9 7.81 18.7 18.4 18.9" style=""/><path d="m1509 913-20.6 29.5 18.2 18.7h-9.77l-22-22.6v49.7h-7.81v-75.3h7.48v15.3l8.69 9.02 16.9-24.3h8.91" style=""/><path d="m1585 981v7.27c-1.32.328-4.68 1.2-8.69 1.2-10.2 0-18-7.7-18-18.6v-9.77h-8.03v-6.28h8.03v-41.9h8.14v41.9h11.9v6.28h-12.3v12.9c0 8.03 7.28 8.78 10.1 8.78 2.17 0 5.11-.219 8.8-1.84" style=""/><path d="m1632 937c0 14.5-10.9 26.1-23.8 26.1-13.4 0-23.9-11.9-23.9-26.1 0-14.3 11.1-25.1 23.8-25.1 13 0 23.9 11 23.9 25.1zm-8.47 1.08c0-12.8-7.37-19.2-15.4-19.2-7.49 0-15.3 6.08-15.3 19.2s8.25 18.5 15.3 18.5c7.59 0 15.4-5.64 15.4-18.5" style=""/><path d="m1667 955v7.28c-9.65-.109-15.6-5.44-19-10.4v9.88h-7.61v-48.8h8.14v23.2c0 10.9 7.81 18.7 18.4 18.9" style=""/><path d="m1741 955v7.28c-9.65-.109-15.6-5.44-19-10.4v9.88h-7.61v-48.8h8.14v23.2c0 10.9 7.81 18.7 18.4 18.9" style=""/><path d="m1788 937c0 3.69-.11 11.8-4.34 18.3-4.45 6.73-11.1 7.92-15 7.92-12 0-21.8-11.5-21.8-25.5 0-14.3 10.4-25.7 23.4-25.7 6.85 0 13 2.59 17.2 5.64l-.64 7.05c-6.84-5.64-14-6.08-16.5-6.08-8.68 0-15.6 7.7-16 18.3zm-6.19 5.97h-26.8c1.73 8.25 7.48 13.7 13.7 13.7 5.64 0 11.7-3.69 13.1-13.7" style=""/><path d="m1836 913v31.4c0 11.1-7.93 18.7-17.9 18.7-7.05 0-11.9-1.74-17-4.66l.65-7.17c5.64 4.02 11.1 5.44 16.4 5.44 5.11 0 9.45-4.34 9.45-12.4v-4.67c-16.3-.219-30.1-4.76-30.1-14.3 0-4.67 2.92-13.5 12.4-13.5 1.52 0 11.7.218 18 5.09v-3.91zm-8.46 14.3c0-2.06 0-4.78-3.7-6.84-3.14-1.95-7.27-2.06-8.45-2.06-5.22 0-10.1 2.5-10.1 7.06 0 7.59 17.6 8.34 22.2 8.56v-6.72" style=""/><path d="m1861 913v75.3h-8.14v-75.3z" style=""/><path d="m1900 934v6.3h-28.8v-6.3z" style=""/><path d="m1942 916-1.75 6.41c-2.81-2.28-6.28-3.58-9.76-3.58-4.02 0-5.54 3.25-5.54 9v27.1h15.3v6.28h-15.3v13.8h-7.48v-13.8h-9.44v-6.28h9.11v-29c0-6.5 1.52-14.1 9.02-14.1 7.59 0 13.1 2.7 15.8 4.11" style=""/><path d="m1963 913v48.2h-8.14v-48.2zm.88 61.4v9.66h-9.66v-9.66z" style=""/><path d="m2049 913v32.3c0 7.28-1.73 17-14.9 17-6.52 0-12.2-3.05-16.2-8.91-2.81 8.25-10.4 8.91-13.9 8.91-7.81 0-12.9-4.45-15.8-8.36v7.81h-7.81v-48.8h8.47v26.6c0 7.39 2.94 16.2 11 16.2 10.1 0 10.6-7.05 10.6-11.2v-31.6h8.47v26.6c0 7.39 2.92 16.2 11 16.2 10.1 0 10.6-7.05 10.6-11.2v-31.6h8.45" style=""/><path d="m2103 937c0 3.69-.11 11.8-4.34 18.3-4.45 6.73-11.1 7.92-15 7.92-12 0-21.8-11.5-21.8-25.5 0-14.3 10.4-25.7 23.4-25.7 6.85 0 13 2.59 17.2 5.64l-.64 7.05c-6.84-5.64-14-6.08-16.5-6.08-8.68 0-15.6 7.7-16 18.3zm-6.19 5.97h-26.8c1.73 8.25 7.48 13.7 13.7 13.7 5.64 0 11.7-3.69 13.1-13.7" style=""/><path d="m2188 937c0 3.69-.11 11.8-4.34 18.3-4.45 6.73-11.1 7.92-15 7.92-12 0-21.8-11.5-21.8-25.5 0-14.3 10.4-25.7 23.4-25.7 6.85 0 13 2.59 17.2 5.64l-.64 7.05c-6.84-5.64-14-6.08-16.5-6.08-8.68 0-15.6 7.7-16 18.3zm-6.19 5.97h-26.8c1.73 8.25 7.48 13.7 13.7 13.7 5.64 0 11.7-3.69 13.1-13.7" style=""/><path d="m2269 913v32.3c0 7.28-1.73 17-14.9 17-6.52 0-12.2-3.05-16.2-8.91-2.81 8.25-10.4 8.91-13.9 8.91-7.81 0-12.9-4.45-15.8-8.36v7.81h-7.81v-48.8h8.47v26.6c0 7.39 2.94 16.2 11 16.2 10.1 0 10.6-7.05 10.6-11.2v-31.6h8.47v26.6c0 7.39 2.92 16.2 11 16.2 10.1 0 10.6-7.05 10.6-11.2v-31.6h8.45" style=""/><path d="m2330 937c0 13.5-7.38 25.2-17.6 25.2-4.23 0-11-1.09-17.5-6.41v32.3h-8.14v-75.3h8.47v4.98c2.61-2.38 7.27-6.17 14.6-6.17 10.8 0 20.2 10.8 20.2 25.4zm-8.45 0c0-14.1-9.13-18.8-15.7-18.8-4.23 0-7.81 1.95-10.5 6.95v24c1.73 2.61 5.64 6.41 11.6 6.41 6.41 0 14.7-4.67 14.7-18.5" style=""/><path d="m2383 937c0 3.69-.11 11.8-4.34 18.3-4.45 6.73-11.1 7.92-15 7.92-12 0-21.8-11.5-21.8-25.5 0-14.3 10.4-25.7 23.4-25.7 6.85 0 13 2.59 17.2 5.64l-.64 7.05c-6.84-5.64-14-6.08-16.5-6.08-8.68 0-15.6 7.7-16 18.3zm-6.19 5.97h-26.8c1.73 8.25 7.48 13.7 13.7 13.7 5.64 0 11.7-3.69 13.1-13.7" style=""/><path d="m2433 913v75.3h-8.14v-31.9c-5.75 4.77-11.8 5.97-15.8 5.97-10.7 0-19.2-11.3-19.2-25.3 0-14.2 8.36-25.3 18.6-25.3 3.6 0 9.99.968 16.1 6.83v-5.64zm-8.46 15.1c0-1.52-.11-3.47-3.58-6.61-2.5-2.17-5.21-3.05-8.03-3.05-6.72 0-14.6 5.11-14.6 18.6 0 14.3 9.32 18.8 15.7 18.8 4.87 0 8.12-2.5 10.5-5.97v-21.7" style=""/><path d="m2490 913v75.3h-8.14v-31.9c-5.75 4.77-11.8 5.97-15.8 5.97-10.7 0-19.2-11.3-19.2-25.3 0-14.2 8.36-25.3 18.6-25.3 3.6 0 9.99.968 16.1 6.83v-5.64zm-8.46 15.1c0-1.52-.11-3.47-3.58-6.61-2.5-2.17-5.21-3.05-8.03-3.05-6.72 0-14.6 5.11-14.6 18.6 0 14.3 9.32 18.8 15.7 18.8 4.87 0 8.12-2.5 10.5-5.97v-21.7" style=""/><path d="m2544 937c0 3.69-.11 11.8-4.34 18.3-4.45 6.73-11.1 7.92-15 7.92-12 0-21.8-11.5-21.8-25.5 0-14.3 10.4-25.7 23.4-25.7 6.85 0 13 2.59 17.2 5.64l-.64 7.05c-6.84-5.64-14-6.08-16.5-6.08-8.68 0-15.6 7.7-16 18.3zm-6.19 5.97h-26.8c1.73 8.25 7.48 13.7 13.7 13.7 5.64 0 11.7-3.69 13.1-13.7" style=""/><path d="m2594 913v75.3h-8.14v-31.9c-5.75 4.77-11.8 5.97-15.8 5.97-10.7 0-19.2-11.3-19.2-25.3 0-14.2 8.36-25.3 18.6-25.3 3.6 0 9.99.968 16.1 6.83v-5.64zm-8.46 15.1c0-1.52-.11-3.47-3.58-6.61-2.5-2.17-5.21-3.05-8.03-3.05-6.72 0-14.6 5.11-14.6 18.6 0 14.3 9.32 18.8 15.7 18.8 4.87 0 8.12-2.5 10.5-5.97v-21.7" style=""/><path d="m2684 913v31.4c0 11.1-7.93 18.7-17.9 18.7-7.05 0-11.9-1.74-17-4.66l.65-7.17c5.64 4.02 11.1 5.44 16.4 5.44 5.11 0 9.45-4.34 9.45-12.4v-4.67c-16.3-.219-30.1-4.76-30.1-14.3 0-4.67 2.92-13.5 12.4-13.5 1.52 0 11.7.218 18 5.09v-3.91zm-8.46 14.3c0-2.06 0-4.78-3.7-6.84-3.14-1.95-7.27-2.06-8.45-2.06-5.22 0-10.1 2.5-10.1 7.06 0 7.59 17.6 8.34 22.2 8.56v-6.72" style=""/><path d="m2745 937c0 13-6.83 25.2-17.2 25.2-6.52 0-12.8-2.28-17.8-6.52v5.31h-8.14v-69.2h8.47v26c3.36-3.14 8.14-6.17 14.7-6.17 10.5 0 20.1 10.6 20.1 25.4zm-8.45 0c0-11.2-7.71-18.8-15.8-18.8-4.23 0-7.17 2.17-9.33 5.11-1.09 1.62-1.09 1.84-1.09 3.8v21.8c2.61 3.81 6.84 6.3 11.5 6.3 8.25 0 14.8-8.25 14.8-18.2" style=""/><path d="m2801 937c0 13-6.83 25.2-17.2 25.2-6.52 0-12.8-2.28-17.8-6.52v5.31h-8.14v-69.2h8.47v26c3.36-3.14 8.14-6.17 14.7-6.17 10.5 0 20.1 10.6 20.1 25.4zm-8.45 0c0-11.2-7.71-18.8-15.8-18.8-4.23 0-7.17 2.17-9.33 5.11-1.09 1.62-1.09 1.84-1.09 3.8v21.8c2.61 3.81 6.84 6.3 11.5 6.3 8.25 0 14.8-8.25 14.8-18.2" style=""/><path d="m2822 913v75.3h-8.14v-75.3z" style=""/><path d="m2848 913v48.2h-8.14v-48.2zm.88 61.4v9.66h-9.66v-9.66z" style=""/><path d="m2903 917-.65 7.26c-5.54-4.34-11.4-5.86-16.9-5.86-9 0-15.1 7.81-15.1 18.5 0 8.45 4.01 18.9 15.5 18.9 5.64 0 9.33-.875 15.3-4.78l1.29 7.06c-6.4 3.69-10.1 4.66-16.7 4.66-15.1 0-23.9-13.1-23.9-25.9 0-13.5 9.87-25.3 23.4-25.3 5.86 0 11.8 1.52 17.7 5.53" style=""/><path d="m2950 913v31.4c0 11.1-7.93 18.7-17.9 18.7-7.05 0-11.9-1.74-17-4.66l.65-7.17c5.64 4.02 11.1 5.44 16.4 5.44 5.11 0 9.45-4.34 9.45-12.4v-4.67c-16.3-.219-30.1-4.76-30.1-14.3 0-4.67 2.92-13.5 12.4-13.5 1.52 0 11.7.218 18 5.09v-3.91zm-8.46 14.3c0-2.06 0-4.78-3.7-6.84-3.14-1.95-7.27-2.06-8.45-2.06-5.22 0-10.1 2.5-10.1 7.06 0 7.59 17.6 8.34 22.2 8.56v-6.72" style=""/><path d="m2994 916-1.75 6.41c-2.81-2.28-6.28-3.58-9.76-3.58-4.02 0-5.54 3.25-5.54 9v27.1h15.3v6.28h-15.3v13.8h-7.48v-13.8h-9.44v-6.28h9.11v-29c0-6.5 1.52-14.1 9.02-14.1 7.59 0 13.1 2.7 15.8 4.11" style=""/><path d="m3015 913v48.2h-8.14v-48.2zm.88 61.4v9.66h-9.66v-9.66z" style=""/><path d="m3075 937c0 14.5-10.9 26.1-23.8 26.1-13.4 0-23.9-11.9-23.9-26.1 0-14.3 11.1-25.1 23.8-25.1 13 0 23.9 11 23.9 25.1zm-8.47 1.08c0-12.8-7.37-19.2-15.4-19.2-7.49 0-15.3 6.08-15.3 19.2s8.25 18.5 15.3 18.5c7.59 0 15.4-5.64 15.4-18.5" style=""/><path d="m3125 913v32.3c0 7.17-1.62 17-14.9 17-9.77 0-15.1-7.39-15.7-8.25v7.7h-7.81v-48.8h8.47v26.6c0 7.17 2.72 16.2 11 16.2 10.4 0 10.5-7.7 10.5-11.2v-31.6h8.47" style=""/><path d="m3174 927c0 5.97-4.01 9.66-4.23 9.98-4.24 3.8-7.16 4.44-12.6 5.42-5.97 1.19-11 2.28-11 7.59 0 6.73 7.81 6.73 9.22 6.73 3.48 0 9.23-.437 15.4-4.12l1.3 7.05c-5.64 2.61-10.1 3.47-15.6 3.47-2.71 0-18 0-18-14.2 0-5.33 3.15-8.8 5.86-10.9 3.36-2.39 5.75-2.81 11.7-4.02 3.9-.75 10.2-2.06 10.2-7.81 0-7.48-8.58-7.48-10.2-7.48-8.78 0-14.9 4.02-16.8 5.31l-1.31-7.38c3.49-1.73 9.45-4.76 18.2-4.76 1.95 0 7.92 0 12.6 3.47 3.36 2.59 5.2 6.94 5.2 11.6" style=""/><path d="m3197 913v9h-9v-9z" style=""/></g><g style="clip-path:url(#e)"><path d="m396 750h51.3v51.3h-51.3z" style="fill:url(#i)"/></g><g style="fill:#fff"><path d="m556 768c0 7.06-3.36 12.3-5.75 14.9-5.09 5.42-8.67 6.41-18.7 8.89-6.3 1.53-8.03 1.95-11.3 4.78-.765.656-3.81 3.8-3.81 8.56 0 6.41 5.86 12.9 15.8 12.9 9.12 0 14.3-3.58 18.3-6.95l1.62 8.69c-5.97 3.58-11.9 5.42-19.9 5.42-15.1 0-24.5-10.6-24.5-21.4 0-4.66 1.52-9.22 5.86-13.8 4.56-4.88 9.33-6.19 15.7-7.7 9.22-2.28 10.3-2.61 13.3-5.31 2.17-1.84 4.56-5.42 4.56-10.1 0-7.16-5.97-14.3-15.8-14.3-4.45 0-14.2 1.09-23.3 8.8l-1.62-8.8c9.55-5.97 18.2-7.48 25.1-7.48 14.3 0 24.3 11 24.3 22.9" style=""/><path d="m609 748v48.2h-8.47v-31.5c0-8.12-6.08-11.9-13-11.9-7.7 0-8.47 2.81-8.47 7.48v35.9h-8.47v-36.3c0-7.81 2.5-13 11.5-13 5.75 0 13.5 1.73 18.8 6.39v-5.2h8.14" style=""/><path d="m671 772c0 13-6.83 25.2-17.2 25.2-6.52 0-12.8-2.28-17.8-6.52v5.31h-8.14v-69.2h8.47v26c3.36-3.14 8.14-6.17 14.7-6.17 10.5 0 20.1 10.6 20.1 25.4zm-8.45 0c0-11.2-7.7-18.8-15.8-18.8-4.23 0-7.17 2.17-9.33 5.11-1.09 1.62-1.09 1.84-1.09 3.8v21.8c2.61 3.81 6.84 6.3 11.5 6.3 8.25 0 14.8-8.25 14.8-18.2" style=""/><path d="m727 772c0 13-6.83 25.2-17.2 25.2-6.52 0-12.8-2.28-17.8-6.52v5.31h-8.14v-69.2h8.47v26c3.36-3.14 8.14-6.17 14.7-6.17 10.5 0 20.1 10.6 20.1 25.4zm-8.45 0c0-11.2-7.7-18.8-15.8-18.8-4.23 0-7.17 2.17-9.33 5.11-1.09 1.62-1.09 1.84-1.09 3.8v21.8c2.61 3.81 6.84 6.3 11.5 6.3 8.25 0 14.8-8.25 14.8-18.2" style=""/><path d="m786 772c0 14.5-10.9 26.1-23.8 26.1-13.3 0-23.9-11.9-23.9-26.1 0-14.3 11.1-25.1 23.8-25.1 13 0 23.9 11 23.9 25.1zm-8.47 1.08c0-12.8-7.38-19.2-15.4-19.2-7.48 0-15.3 6.08-15.3 19.2s8.25 18.5 15.3 18.5c7.59 0 15.4-5.64 15.4-18.5" style=""/><path d="m821 790v7.28c-9.66-.109-15.6-5.44-19-10.4v9.88h-7.61v-48.8h8.14v23.2c0 10.9 7.81 18.7 18.5 18.9" style=""/><path d="m859 751-1.75 6.41c-2.81-2.28-6.28-3.58-9.76-3.58-4.02 0-5.53 3.25-5.53 9v27.1h15.3v6.28h-15.3v13.8h-7.48v-13.8h-9.44v-6.28h9.11v-29c0-6.5 1.52-14.1 9.02-14.1 7.59 0 13.1 2.7 15.8 4.11" style=""/><path d="m944 752-.656 7.26c-5.53-4.34-11.4-5.86-16.9-5.86-9 0-15.1 7.81-15.1 18.5 0 8.45 4.02 18.9 15.5 18.9 5.64 0 9.33-.875 15.3-4.78l1.3 7.06c-6.41 3.69-10.1 4.66-16.7 4.66-15.1 0-23.9-13.1-23.9-25.9 0-13.5 9.88-25.3 23.4-25.3 5.86 0 11.8 1.52 17.7 5.53" style=""/><path d="m982 790v7.28c-9.66-.109-15.6-5.44-19-10.4v9.88h-7.61v-48.8h8.14v23.2c0 10.9 7.81 18.7 18.5 18.9" style=""/><path d="m1029 748v31.4c0 11.1-7.93 18.7-17.9 18.7-7.05 0-11.9-1.74-17-4.66l.656-7.17c5.64 4.02 11.1 5.44 16.4 5.44 5.11 0 9.45-4.34 9.45-12.4v-4.67c-16.3-.219-30.1-4.76-30.1-14.3 0-4.67 2.92-13.5 12.4-13.5 1.52 0 11.7.218 18 5.09v-3.91zm-8.46 14.3c0-2.06 0-4.78-3.7-6.84-3.14-1.95-7.27-2.06-8.45-2.06-5.22 0-10.1 2.5-10.1 7.06 0 7.59 17.6 8.34 22.2 8.56v-6.72" style=""/><path d="m1073 751-1.75 6.41c-2.81-2.28-6.28-3.58-9.76-3.58-4.02 0-5.54 3.25-5.54 9v27.1h15.3v6.28h-15.3v13.8h-7.48v-13.8h-9.44v-6.28h9.11v-29c0-6.5 1.52-14.1 9.02-14.1 7.59 0 13.1 2.7 15.8 4.11" style=""/><path d="m1122 772c0 3.69-.11 11.8-4.34 18.3-4.45 6.73-11.1 7.92-15 7.92-12 0-21.8-11.5-21.8-25.5 0-14.3 10.4-25.7 23.4-25.7 6.85 0 13 2.59 17.2 5.64l-.64 7.05c-6.84-5.64-14-6.08-16.5-6.08-8.68 0-15.6 7.7-16 18.3zm-6.19 5.97h-26.8c1.73 8.25 7.48 13.7 13.7 13.7 5.64 0 11.7-3.69 13.1-13.7" style=""/><path d="m1164 762c0 5.97-4.01 9.66-4.23 9.98-4.24 3.8-7.16 4.44-12.6 5.42-5.97 1.19-11 2.28-11 7.59 0 6.73 7.81 6.73 9.22 6.73 3.48 0 9.23-.437 15.4-4.12l1.3 7.05c-5.64 2.61-10.1 3.47-15.6 3.47-2.71 0-18 0-18-14.2 0-5.33 3.15-8.8 5.86-10.9 3.36-2.39 5.75-2.81 11.7-4.02 3.9-.75 10.2-2.06 10.2-7.81 0-7.48-8.58-7.48-10.2-7.48-8.78 0-14.9 4.02-16.8 5.31l-1.31-7.38c3.49-1.73 9.45-4.76 18.2-4.76 1.95 0 7.92 0 12.6 3.47 3.36 2.59 5.2 6.94 5.2 11.6" style=""/><path d="m1241 816v7.27c-1.32.328-4.68 1.2-8.69 1.2-10.2 0-18-7.7-18-18.6v-9.77h-8.03v-6.28h8.03v-41.9h8.14v41.9h11.9v6.28h-12.3v12.9c0 8.03 7.28 8.78 10.1 8.78 2.17 0 5.11-.219 8.8-1.84" style=""/><path d="m1288 772c0 14.5-10.9 26.1-23.8 26.1-13.4 0-23.9-11.9-23.9-26.1 0-14.3 11.1-25.1 23.8-25.1 13 0 23.9 11 23.9 25.1zm-8.47 1.08c0-12.8-7.37-19.2-15.4-19.2-7.49 0-15.3 6.08-15.3 19.2s8.25 18.5 15.3 18.5c7.59 0 15.4-5.64 15.4-18.5" style=""/><path d="m1323 790v7.28c-9.65-.109-15.6-5.44-19-10.4v9.88h-7.61v-48.8h8.14v23.2c0 10.9 7.81 18.7 18.4 18.9" style=""/><path d="m1440 797c0 2.28-.76 3.25-1.51 3.25-.44 0-1.42-.438-1.53-2.92-.42-7.48-8.02-11.9-15.1-11.9-6.3 0-11.7 3.36-17.4 7.16-5.86 3.91-11.7 7.81-18.8 7.81-10.1 0-18.1-7.7-18.1-17.7 0-2.39.86-3.25 1.51-3.25 1.1 0 1.52 2.06 1.52 2.5.55 9.11 9.45 12.4 15.1 12.4 6.29 0 11.7-3.36 17.4-7.16 5.86-3.91 11.7-7.81 18.8-7.81 10.1 0 18.1 7.7 18.1 17.7zm0-25.4c0 3.14-1.29 3.36-1.51 3.36-.44 0-1.42-.547-1.53-2.92-.42-7.5-8.02-11.9-15.1-11.9-6.3 0-11.7 3.36-17.4 7.16-5.86 3.91-11.7 7.81-18.8 7.81-10.1 0-18.1-7.7-18.1-17.7 0-2.39.86-3.25 1.51-3.25 1.1 0 1.52 2.06 1.52 2.5.55 9.11 9.45 12.4 15.1 12.4 6.29 0 11.7-3.36 17.4-7.16 5.86-3.91 11.7-7.81 18.8-7.81 10.3 0 18.1 8.03 18.1 17.6" style=""/><path d="m1528 767v6.62h-10.8v46h-9.88l-27.4-46v-6.62h28.8v-18.5h8.56v18.5zm-18.7 6.62h-20.9c5.64 9.33 20.8 35 20.9 41.2z" style=""/><path d="m1581 783c0 8.56-.43 18.7-5 27.5-4.45 8.14-11.9 10.7-17.5 10.7-6.41 0-14-2.92-18.4-12.6-3.6-7.92-4.13-16.9-4.13-25.6 0-8.58.42-16.5 3.69-24.4 4.34-10.4 12.6-13.3 18.8-13.3 7.92 0 14.8 4.45 18.2 11.9 3.25 7.05 4.34 14.2 4.34 25.8zm-8.46 1.3c0-7.16 0-14-1.96-20.8-2.83-9.88-8.58-11.6-12-11.6-5.65 0-10.1 4.12-12.3 11.9-1.73 6.19-1.84 12-1.84 20.5 0 6.84 0 13.3 1.84 19.3.66 2.06 3.37 11 12.2 11 8.46 0 11.3-8.25 12-10.2 2.07-6.08 2.07-13.3 2.07-20.1" style=""/><path d="m1706 748v75.3h-12.4l-14.1-36.8c-3.82-9.88-8.91-23.3-10.1-28.4h-.11c-.54 2.28-1.84 6.3-3.47 10.8l-17 44.9-3.69 9.44h-12.3v-75.3h8.47v67.3h.11c.66-3.48 4.99-15.3 7.81-22.7l16.1-42.2h7.92l14.4 37.8 5.22 13.8c1.08 3.16 4.02 11 4.55 13.5l.11-.094v-67.3h8.46" style=""/><path d="m1782 753-.64 7.5c-3.16-2.17-6.3-4.23-9.99-5.33-3.47-1.19-7.26-1.3-11-1.3-7.04 0-13.4 3.8-17.9 9.33-5 6.41-7.39 14.4-7.39 22.6 0 8.14 2.39 16.3 7.39 22.7 4.44 5.53 10.8 9.33 17.9 9.33 3.27 0 6.63-.328 9.77-1.3 3.27-.984 6.3-2.61 9.12-4.56l1.52 8.91c-3.25 1.3-6.62 2.39-10.1 3.03-3.36.657-6.83.875-10.3.875-9.54 0-18.3-4.34-24.7-11.4-6.72-7.61-10.2-17.5-10.2-27.6s3.48-20 10.2-27.5c6.41-7.06 15.2-11.4 24.7-11.4 3.8 0 7.61.109 11.3 1.19 3.69.969 7.05 2.92 10.3 4.88" style=""/><path d="m1851 773v50h-8.46v-50.1c0-14.3-9.11-21.5-18.2-21.5-8.91 0-17.8 6.84-17.8 21.5v50.1h-9.66v-50c0-15.8 12.7-27.7 27.4-27.7 14.5 0 26.8 11.9 26.8 27.7" style=""/><path d="m1901 762c0 5.97-4.01 9.66-4.23 9.98-4.24 3.8-7.16 4.44-12.6 5.42-5.97 1.19-11 2.28-11 7.59 0 6.73 7.81 6.73 9.22 6.73 3.48 0 9.23-.437 15.4-4.12l1.3 7.05c-5.64 2.61-10.1 3.47-15.6 3.47-2.71 0-18 0-18-14.2 0-5.33 3.15-8.8 5.86-10.9 3.36-2.39 5.75-2.81 11.7-4.02 3.9-.75 10.2-2.06 10.2-7.81 0-7.48-8.58-7.48-10.2-7.48-8.78 0-14.9 4.02-16.8 5.31l-1.31-7.38c3.49-1.73 9.45-4.76 18.2-4.76 1.95 0 7.92 0 12.6 3.47 3.36 2.59 5.2 6.94 5.2 11.6" style=""/><path d="m1924 748v9h-9v-9z" style=""/></g></g></svg>