<svg height="676" style="" viewBox="0 338 603 338" width="1206" xmlns="http://www.w3.org/2000/svg" xmlns:xlink="http://www.w3.org/1999/xlink"><linearGradient id="a" style=""><stop offset="0" style="stop-color:#fff"/><stop offset="1" style="stop-color:#fff;stop-opacity:0"/></linearGradient><clipPath id="b" style=""><path d="m396 1319h51.3v51.3h-51.3z" style=""/></clipPath><clipPath id="c" style=""><path d="m396 1154h51.3v51.3h-51.3z" style=""/></clipPath><clipPath id="d" style=""><path d="m396 989h51.3v51.3h-51.3z" style=""/></clipPath><clipPath id="e" style=""><path d="m396 823h51.3v51.3h-51.3z" style=""/></clipPath><radialGradient id="f" cx="421.65" cy="1344.65" gradientUnits="userSpaceOnUse" r="25.65" style="" xlink:href="#a"/><radialGradient id="g" cx="421.65" cy="1179.65" gradientUnits="userSpaceOnUse" r="25.65" style="" xlink:href="#a"/><radialGradient id="h" cx="421.65" cy="1014.65" gradientUnits="userSpaceOnUse" r="25.65" style="" xlink:href="#a"/><radialGradient id="i" cx="421.65" cy="848.65" gradientUnits="userSpaceOnUse" r="25.65" style="" xlink:href="#a"/><g style="" transform="matrix(.133 0 0 -.133 0 676)"><path d="m0 .0391h4535v2551h-4535z" style=""/><path d="m269 490c.024 13.6 11 24.6 24.6 24.6s24.6-11 24.6-24.6-11-24.6-24.6-24.6-24.6 11-24.6 24.6m-293-222c0 13.6 11 24.6 24.6 24.6 13.5 0 24.6-11 24.6-24.6s-11-24.6-24.6-24.6-24.6 11-24.6 24.6m586-1.15c0 13.6 11 24.6 24.6 24.6s24.6-11 24.6-24.6-11-24.6-24.6-24.6-24.6 11-24.6 24.6m-515-33.7c11.3 5.01 16.4 18.3 11.4 29.6l-10.9 24.7h42.9v-193h-86.5c-10.7 37.5-14 76.7-9.79 115zm179-4.75v57h102c5.27 0 37.2-6.09 37.2-30 0-19.8-24.5-27-44.7-27zm-139-307c0 13.6 11 24.6 24.6 24.6s24.6-11 24.6-24.6-11-24.6-24.6-24.6-24.6 11-24.6 24.6m364-1.13c0 13.6 11 24.6 24.6 24.6s24.6-11 24.6-24.6-11-24.6-24.6-24.6-24.6 11-24.6 24.6m7.6 55.7c-12.1 2.59-24-5.1-26.6-17.2l-12.3-57.6c-80.3-36.4-172-35.9-252 1.2l-12.3 57.6c-2.58 12.1-14.5 19.8-26.6 17.2l-50.8-10.9c-9.43 9.73-18.2 20.1-26.3 31h247c2.81 0 4.66.504 4.66 3.06v87.5c0 2.54-1.86 3.06-4.66 3.06h-72.3v55.4h78.2c7.12 0 38.2-2.03 48.1-41.7 3.1-12.2 9.93-51.9 14.6-64.6 4.65-14.2 23.6-42.7 43.7-42.7h128c-8.55-11.5-17.9-22.3-28-32.4zm137 231c1.74-17.4 1.95-35 .637-52.5h-31c-3.11 0-4.35-2.04-4.35-5.09v-14.2c0-33.6-18.9-40.9-35.5-42.7-15.8-1.77-33.3 6.62-35.4 16.3-9.32 52.4-24.8 63.6-49.4 82.9 30.4 19.3 62.1 47.8 62.1 85.9 0 41.2-28.2 67.2-47.5 79.9-27 17.8-56.9 21.4-65 21.4h-321c44.4 49.6 104 83.2 169 95.5l37.8-39.7c8.56-8.96 22.7-9.3 31.7-.726l42.3 40.5c87.4-16.4 163-70.3 207-148l-29-65.5c-5.01-11.3.097-24.6 11.4-29.6zm72.3-1.07-1 10.1 29.9 27.9c6.05 5.65 3.79 17.1-3.98 19.9l-38.2 14.3-3 9.84 23.8 33.1c4.84 6.72.383 17.4-7.78 18.8l-40.3 6.54-4.84 9.04 16.9 37.1c3.47 7.56-2.95 17.2-11.3 16.9l-40.9-1.44-6.45 7.84 9.39 39.8c1.89 8.07-6.3 16.3-14.4 14.4l-39.8-9.36-7.84 6.43 1.43 40.9c.332 8.27-9.35 14.7-16.9 11.3l-37.1-16.9-9.04 4.85-6.57 40.2c-1.32 8.16-12.1 12.6-18.8 7.78l-33.1-23.8-9.83 2.98-14.3 38.2c-2.89 7.79-14.3 10-19.9 3.99l-27.8-29.9-10.1.992-21.5 34.7c-4.36 7.04-16 7.04-20.3 0l-21.5-34.7-10.1-.992-27.9 29.9c-5.64 6.04-17.1 3.8-19.9-3.99l-14.3-38.2-9.83-2.98-33.1 23.8c-6.72 4.85-17.5.371-18.8-7.78l-6.56-40.3-9.04-4.84-37.1 16.9c-7.54 3.44-17.2-3.02-16.9-11.3l1.44-40.8-7.84-6.46-39.8 9.39c-8.08 1.88-16.3-6.3-14.4-14.4l9.36-39.8-6.44-7.84-40.8 1.44c-8.24.234-14.7-9.36-11.3-16.9l16.9-37.1-4.85-9.04-40.3-6.54c-8.16-1.33-12.6-12.1-7.76-18.8l23.8-33.1-3-9.84-38.2-14.3c-7.75-2.89-10-14.3-3.96-20l29.9-27.8-1-10.1-34.7-21.5c-7.03-4.36-7.03-16 0-20.3l34.7-21.5 1-10.1-29.9-27.9c-6.07-5.64-3.79-17 3.96-19.9l38.2-14.3 3-9.86-23.8-33.1c-4.84-6.73-.395-17.5 7.79-18.8l40.2-6.53 4.85-9.04-16.9-37.1c-3.45-7.56 3.05-17.3 11.3-16.9l40.8 1.43 6.46-7.84-9.36-39.8c-1.89-8.06 6.3-16.3 14.4-14.4l39.8 9.38 7.84-6.42-1.44-40.9c-.308-8.26 9.38-14.8 16.9-11.3l37.1 16.9 9.04-4.83 6.56-40.2c1.32-8.18 12.1-12.6 18.8-7.78l33.1 23.8 9.84-3 14.3-38.2c2.88-7.74 14.3-10 19.9-3.96l27.9 29.9 10.1-1.02 21.5-34.7c4.34-6.99 16-7.01 20.3 0l21.5 34.7 10.1 1.02 27.9-29.9c5.65-6.07 17.1-3.77 19.9 3.96l14.3 38.2 9.85 3 33.1-23.8c6.72-4.82 17.5-.394 18.8 7.78l6.57 40.2 9.04 4.83 37.1-16.9c7.55-3.46 17.2 3 16.9 11.3l-1.43 40.9 7.84 6.42 39.8-9.38c8.11-1.9 16.3 6.31 14.4 14.4l-9.38 39.8 6.45 7.84 40.8-1.43c8.26-.332 14.8 9.36 11.3 16.9l-16.9 37.1 4.84 9.04 40.2 6.53c8.2 1.32 12.6 12.1 7.78 18.8l-23.8 33.1 3 9.86 38.2 14.3c7.78 2.91 10 14.3 3.96 19.9l-29.8 27.9.985 10.1 34.7 21.5c7.04 4.33 7.04 16 .012 20.3z" style="fill:#383232"/><path d="m0 2275h4535v276h-4535z" style="fill:#1c1c1c"/><g style="fill:#fff"><path d="m155 2378c0 9.18-4.45 16.1-7.61 19.7-6.61 7.05-11.9 8.48-21.6 10.9-9.76 2.44-13.4 3.3-16.5 6.33-1.86 2-5.75 5.59-5.75 12.1 0 8.77 7.91 17.2 20.5 17.2 12.2 0 18.7-4.74 23.8-9.33l2.16 11.6c-5.89 3.16-13.1 7.05-25.9 7.05-19.2 0-31.8-13.8-31.8-28.2 0-10.2 6.19-16.8 6.91-17.5 7.03-7.19 11.9-8.47 21.1-10.8 12.2-3.02 14.2-3.58 18.8-8.33 2.44-2.58 4.59-7.17 4.59-12.2 0-9.92-8.19-19.1-20.5-19.1-10.5 0-21.7 4.17-30.2 11.9l-2.14-11.6c13.1-8.61 25.7-9.91 32.3-9.91 18.5 0 31.6 14.2 31.6 30.2" style=""/><path d="m210 2355-2.16 8.33c-5.02-4.45-10.3-5.03-12.9-5.03-6.33 0-7.19 6.75-7.19 11.8v36.2h19.8v8.33h-19.8v18.2h-9.91v-18.2h-12.1v-8.33h11.8v-38.6c0-8.34 1.88-18.2 11.8-18.2 9.62 0 16.2 3.32 20.7 5.61" style=""/><path d="m272 2351v42.1c0 13.8-9.92 23.8-23.3 23.8-8.61 0-15.1-2.02-22.1-6.03l.875-9.49c6.31 4.6 12.9 7.19 21.2 7.19 6.61 0 12.4-5.31 12.4-15.8v-5.88c-6.47-.29-15.1-.72-23.7-3.59-9.62-3.31-15.2-8.63-15.2-15.8 0-6.32 3.75-18 16-18 7.91 0 18 2.3 23.3 6.75v-5.31zm-10.9 19.2c0-2.87 0-6.33-4.74-9.19-3.89-2.45-8.76-2.87-10.9-2.87-7.76 0-13.1 4.15-13.1 9.48 0 9.77 20 11.9 28.7 11.9v-9.34" style=""/><path d="m348 2383c0 17.7-9.47 33.2-22.8 33.2-4.17 0-13.4-.86-22.3-8.05v42.5h-10.6v-99.7h10.9v6.47c6.61-6.33 13.6-7.91 18.7-7.91 13.7 0 26.1 13.9 26.1 33.5zm-10.9 0c0-18.7-11.8-24.8-20.5-24.8-4.03 0-6.75 1.44-9.34 3.44-3.44 3.01-4.02 5.6-4.02 8.04v29.7c2.58 4.03 7.75 8.18 14.8 8.18 8.77 0 19.1-6.59 19.1-24.6" style=""/><path d="m375 2351v63.8h-10.6v-63.8zm.875 81.6v12.4h-12.4v-12.4z" style=""/><path d="m408 2351v99.7h-10.6v-99.7z" style=""/><path d="m441 2351v63.8h-10.6v-63.8zm.875 81.6v12.4h-12.4v-12.4z" style=""/><path d="m499 2355-2.16 8.33c-5.02-4.45-10.3-5.03-12.9-5.03-6.33 0-7.19 6.75-7.19 11.8v36.2h19.8v8.33h-19.8v18.2h-9.91v-18.2h-12.1v-8.33h11.8v-38.6c0-8.34 1.88-18.2 11.8-18.2 9.62 0 16.2 3.32 20.7 5.61" style=""/><path d="m561 2415h-10.8c-6.59-17-17.7-45.1-18.2-55.4h-.141c-.719 8.48-8.34 27.4-9.48 30.3l-10.2 25.1h-11.3l26.7-63.8-5.03-13.1c-3.16-7.17-5.31-7.89-7.91-7.89-2 0-6.61.42-11.1 2.16l.875-9.35c.86-.14 5.59-1.15 10.2-1.15 3.45 0 10.2 0 16.4 15.8l30 77.3" style=""/><path d="m661 2369c0 7.33-4.45 11.9-5.02 12.6-5.33 5.45-9.62 6.31-18.4 8.05-5.17 1-12.5 2.44-12.5 9.62 0 8.91 10 8.91 11.9 8.91 7.61 0 13.6-1.74 20-5.33l1.72 9.34c-9.19 4.32-17 4.46-20.2 4.46-3.31 0-23.3 0-23.3-18.7 0-6.33 3.45-10.6 5.61-12.6 5.17-4.46 8.76-5.18 17.2-6.91 4.75-1 13.1-2.72 13.1-10.3 0-9.91-11.2-9.91-13.2-9.91-5.75 0-14.1 1.58-21.8 7.19l-1.73-9.77c.719-.44 10.5-6.33 23.7-6.33 18.5 0 23 11.2 23 19.7" style=""/><path d="m711 2355-2.16 8.33c-5.02-4.45-10.3-5.03-12.9-5.03-6.33 0-7.19 6.75-7.19 11.8v36.2h19.8v8.33h-19.8v18.2h-9.91v-18.2h-12.1v-8.33h11.8v-38.6c0-8.34 1.88-18.2 11.8-18.2 9.62 0 16.2 3.32 20.7 5.61" style=""/><path d="m781 2383c0 19.4-14.2 34.3-30.7 34.3-17 0-30.9-15.2-30.9-34.3 0-18.8 14.4-33 30.7-33 17 0 30.9 14.5 30.9 33zm-10.9 1.44c0-17.7-10.2-25.6-19.8-25.6-10.3 0-20 8.62-20 25.6 0 17.4 10.8 24.3 19.8 24.3 9.92 0 20-7.47 20-24.3" style=""/><path d="m827 2407v9.63c-13.1-.14-20.7-7.75-24.6-13.4v12.6h-9.92v-64.5h10.6v31.4c0 14.5 10.9 24 23.9 24.1" style=""/><path d="m891 2415h-10.8c-6.59-17-17.7-45.1-18.2-55.4h-.141c-.719 8.48-8.34 27.4-9.48 30.3l-10.2 25.1h-11.3l26.7-63.8-5.03-13.1c-3.16-7.17-5.31-7.89-7.91-7.89-2 0-6.61.42-11.1 2.16l.875-9.35c.86-.14 5.59-1.15 10.2-1.15 3.45 0 10.2 0 16.4 15.8l30 77.3" style=""/><path d="m349 1648v75.3h-8.47v-67.6h-.109l-7.27 14.9-26.6 52.7h-13.5v-75.3h8.45v67.6h.109l7.28-14.9 26.6-52.7h13.5" style=""/><path d="m412 1672c0 14.5-10.9 26.1-23.8 26.1-13.3 0-23.9-11.9-23.9-26.1 0-14.3 11.1-25.1 23.8-25.1 13 0 23.9 11 23.9 25.1zm-8.47 1.07c0-12.8-7.38-19.2-15.4-19.2-7.48 0-15.3 6.08-15.3 19.2 0 13.1 8.25 18.5 15.3 18.5 7.59 0 15.4-5.64 15.4-18.5" style=""/><path d="m451 1651-1.75 6.41c-2.81-2.28-6.28-3.58-9.76-3.58-4.02 0-5.53 3.25-5.53 9v27.1h15.3v6.28h-15.3v13.8h-7.48v-13.8h-9.44v-6.28h9.11v-29c0-6.5 1.52-14.1 9.02-14.1 7.59 0 13.1 2.71 15.8 4.11" style=""/><path d="m529 1716v7.27c-1.31.33-4.67 1.2-8.69 1.2-10.2 0-18-7.7-18-18.6v-9.77h-8.03v-6.28h8.03v-41.9h8.14v41.9h11.9v6.28h-12.3v12.9c0 8.04 7.28 8.79 10.1 8.79 2.17 0 5.11-.22 8.8-1.85" style=""/><path d="m569 1672c0 3.68-.109 11.8-4.34 18.3-4.45 6.74-11.1 7.93-15 7.93-12 0-21.8-11.5-21.8-25.5 0-14.3 10.4-25.7 23.4-25.7 6.84 0 13 2.6 17.2 5.64l-.64 7.05c-6.84-5.64-14-6.08-16.5-6.08-8.69 0-15.6 7.71-16 18.4zm-6.19 5.96h-26.8c1.73 8.25 7.48 13.7 13.7 13.7 5.64 0 11.7-3.69 13.1-13.7" style=""/><path d="m617 1648v31.4c0 11.1-7.92 18.7-17.9 18.7-7.05 0-11.9-1.74-17-4.66l.656-7.17c5.64 4.01 11.1 5.44 16.4 5.44 5.11 0 9.45-4.35 9.45-12.4v-4.67c-16.3-.22-30.1-4.77-30.1-14.3 0-4.68 2.92-13.5 12.4-13.5 1.52 0 11.7.22 18 5.1v-3.91zm-8.45 14.3c0-2.06 0-4.78-3.7-6.85-3.14-1.95-7.27-2.06-8.45-2.06-5.22 0-10.1 2.5-10.1 7.06 0 7.6 17.6 8.35 22.2 8.57v-6.72" style=""/><path d="m664 1662c0 5.97-4.02 9.66-4.24 9.99-4.23 3.79-7.16 4.43-12.6 5.42-5.97 1.18-11 2.28-11 7.59 0 6.74 7.81 6.74 9.22 6.74 3.48 0 9.23-.44 15.4-4.13l1.3 7.05c-5.64 2.61-10.1 3.47-15.6 3.47-2.72 0-18 0-18-14.2 0-5.33 3.16-8.79 5.86-10.9 3.36-2.39 5.75-2.81 11.7-4.01 3.91-.75 10.2-2.06 10.2-7.81 0-7.49-8.58-7.49-10.2-7.49-8.78 0-14.9 4.02-16.8 5.31l-1.31-7.37c3.48-1.74 9.45-4.77 18.2-4.77 1.95 0 7.92 0 12.6 3.47 3.36 2.6 5.2 6.94 5.2 11.6" style=""/><path d="m684 1648v48.2h-8.14v-48.2zm.875 61.4v9.66h-9.66v-9.66z" style=""/><path d="m745 1672c0 13.5-7.38 25.2-17.6 25.2-4.23 0-11-1.1-17.5-6.41v32.3h-8.14v-75.3h8.47v4.98c2.61-2.37 7.27-6.17 14.5-6.17 10.8 0 20.2 10.8 20.2 25.4zm-8.45 0c0-14.1-9.12-18.8-15.7-18.8-4.24 0-7.81 1.96-10.5 6.96v24c1.74 2.61 5.64 6.41 11.6 6.41 6.41 0 14.7-4.67 14.7-18.6" style=""/><path d="m766 1648v75.3h-8.14v-75.3z" style=""/><path d="m821 1672c0 3.68-.109 11.8-4.34 18.3-4.45 6.74-11.1 7.93-15 7.93-12 0-21.8-11.5-21.8-25.5 0-14.3 10.4-25.7 23.4-25.7 6.84 0 13 2.6 17.2 5.64l-.64 7.05c-6.84-5.64-14-6.08-16.5-6.08-8.69 0-15.6 7.71-16 18.4zm-6.19 5.96h-26.8c1.73 8.25 7.48 13.7 13.7 13.7 5.64 0 11.7-3.69 13.1-13.7" style=""/><path d="m896 1651-1.75 6.41c-2.81-2.28-6.28-3.58-9.76-3.58-4.02 0-5.53 3.25-5.53 9v27.1h15.3v6.28h-15.3v13.8h-7.48v-13.8h-9.44v-6.28h9.11v-29c0-6.5 1.52-14.1 9.02-14.1 7.59 0 13.1 2.71 15.8 4.11" style=""/><path d="m951 1672c0 14.5-10.9 26.1-23.8 26.1-13.3 0-23.9-11.9-23.9-26.1 0-14.3 11.1-25.1 23.8-25.1 13 0 23.9 11 23.9 25.1zm-8.47 1.07c0-12.8-7.38-19.2-15.4-19.2-7.48 0-15.3 6.08-15.3 19.2 0 13.1 8.25 18.5 15.3 18.5 7.59 0 15.4-5.64 15.4-18.5" style=""/><path d="m1038 1648v48.2h-8.47v-31.5c0-8.12-6.07-11.9-13-11.9-7.7 0-8.47 2.81-8.47 7.49v35.9h-8.47v-36.3c0-7.81 2.5-13 11.5-13 5.75 0 13.4 1.74 18.8 6.39v-5.2h8.14" style=""/><path d="m1086 1662c0 5.97-4.01 9.66-4.23 9.99-4.24 3.79-7.16 4.43-12.6 5.42-5.97 1.18-11 2.28-11 7.59 0 6.74 7.81 6.74 9.22 6.74 3.48 0 9.23-.44 15.4-4.13l1.3 7.05c-5.64 2.61-10.1 3.47-15.6 3.47-2.71 0-18 0-18-14.2 0-5.33 3.15-8.79 5.86-10.9 3.36-2.39 5.75-2.81 11.7-4.01 3.9-.75 10.2-2.06 10.2-7.81 0-7.49-8.58-7.49-10.2-7.49-8.78 0-14.9 4.02-16.8 5.31l-1.31-7.37c3.49-1.74 9.45-4.77 18.2-4.77 1.95 0 7.92 0 12.6 3.47 3.36 2.6 5.2 6.94 5.2 11.6" style=""/><path d="m1134 1672c0 3.68-.11 11.8-4.34 18.3-4.45 6.74-11.1 7.93-15 7.93-12 0-21.8-11.5-21.8-25.5 0-14.3 10.4-25.7 23.4-25.7 6.85 0 13 2.6 17.2 5.64l-.64 7.05c-6.84-5.64-14-6.08-16.5-6.08-8.68 0-15.6 7.71-16 18.4zm-6.19 5.96h-26.8c1.73 8.25 7.48 13.7 13.7 13.7 5.64 0 11.7-3.69 13.1-13.7" style=""/><path d="m1213 1662c0 5.97-4.01 9.66-4.23 9.99-4.24 3.79-7.16 4.43-12.6 5.42-5.97 1.18-11 2.28-11 7.59 0 6.74 7.81 6.74 9.22 6.74 3.48 0 9.23-.44 15.4-4.13l1.3 7.05c-5.64 2.61-10.1 3.47-15.6 3.47-2.71 0-18 0-18-14.2 0-5.33 3.15-8.79 5.86-10.9 3.36-2.39 5.75-2.81 11.7-4.01 3.9-.75 10.2-2.06 10.2-7.81 0-7.49-8.58-7.49-10.2-7.49-8.78 0-14.9 4.02-16.8 5.31l-1.31-7.37c3.49-1.74 9.45-4.77 18.2-4.77 1.95 0 7.92 0 12.6 3.47 3.36 2.6 5.2 6.94 5.2 11.6" style=""/><path d="m1251 1651-1.75 6.41c-2.81-2.28-6.28-3.58-9.76-3.58-4.02 0-5.54 3.25-5.54 9v27.1h15.3v6.28h-15.3v13.8h-7.48v-13.8h-9.44v-6.28h9.11v-29c0-6.5 1.52-14.1 9.02-14.1 7.59 0 13.1 2.71 15.8 4.11" style=""/><path d="m1299 1648v31.4c0 11.1-7.93 18.7-17.9 18.7-7.05 0-11.9-1.74-17-4.66l.65-7.17c5.64 4.01 11.1 5.44 16.4 5.44 5.11 0 9.45-4.35 9.45-12.4v-4.67c-16.3-.22-30.1-4.77-30.1-14.3 0-4.68 2.92-13.5 12.4-13.5 1.52 0 11.7.22 18 5.1v-3.91zm-8.46 14.3c0-2.06 0-4.78-3.7-6.85-3.14-1.95-7.27-2.06-8.45-2.06-5.22 0-10.1 2.5-10.1 7.06 0 7.6 17.6 8.35 22.2 8.57v-6.72" style=""/><path d="m1359 1672c0 13.5-7.38 25.2-17.6 25.2-4.23 0-11-1.1-17.5-6.41v32.3h-8.14v-75.3h8.47v4.98c2.61-2.37 7.27-6.17 14.6-6.17 10.8 0 20.2 10.8 20.2 25.4zm-8.45 0c0-14.1-9.13-18.8-15.7-18.8-4.23 0-7.81 1.96-10.5 6.96v24c1.73 2.61 5.64 6.41 11.6 6.41 6.41 0 14.7-4.67 14.7-18.6" style=""/><path d="m1381 1648v75.3h-8.14v-75.3z" style=""/><path d="m1435 1672c0 3.68-.11 11.8-4.34 18.3-4.45 6.74-11.1 7.93-15 7.93-12 0-21.8-11.5-21.8-25.5 0-14.3 10.4-25.7 23.4-25.7 6.85 0 13 2.6 17.2 5.64l-.64 7.05c-6.84-5.64-14-6.08-16.5-6.08-8.68 0-15.6 7.71-16 18.4zm-6.19 5.96h-26.8c1.73 8.25 7.48 13.7 13.7 13.7 5.64 0 11.7-3.69 13.1-13.7" style=""/><path d="m1519 1652-.65 7.27c-5.54-4.34-11.4-5.86-16.9-5.86-9 0-15.1 7.81-15.1 18.4 0 8.46 4.01 18.9 15.5 18.9 5.64 0 9.33-.88 15.3-4.78l1.29 7.06c-6.4 3.69-10.1 4.66-16.7 4.66-15.1 0-23.9-13.1-23.9-25.9 0-13.4 9.87-25.3 23.4-25.3 5.86 0 11.8 1.52 17.7 5.53" style=""/><path d="m1574 1672c0 14.5-10.9 26.1-23.8 26.1-13.4 0-23.9-11.9-23.9-26.1 0-14.3 11.1-25.1 23.8-25.1 13 0 23.9 11 23.9 25.1zm-8.47 1.07c0-12.8-7.37-19.2-15.4-19.2-7.49 0-15.3 6.08-15.3 19.2 0 13.1 8.25 18.5 15.3 18.5 7.59 0 15.4-5.64 15.4-18.5" style=""/><path d="m1654 1648v32.3c0 7.28-1.73 17-14.9 17-6.52 0-12.2-3.05-16.2-8.91-2.81 8.25-10.4 8.91-13.9 8.91-7.81 0-12.9-4.46-15.8-8.36v7.81h-7.81v-48.8h8.47v26.6c0 7.39 2.94 16.2 11 16.2 10.1 0 10.6-7.05 10.6-11.2v-31.6h8.47v26.6c0 7.39 2.92 16.2 11 16.2 10.1 0 10.6-7.05 10.6-11.2v-31.6h8.45" style=""/><path d="m1716 1672c0 13-6.83 25.2-17.2 25.2-6.52 0-12.8-2.29-17.8-6.52v5.31h-8.14v-69.2h8.47v26c3.36-3.14 8.14-6.17 14.7-6.17 10.5 0 20.1 10.6 20.1 25.4zm-8.45 0c0-11.2-7.71-18.8-15.8-18.8-4.23 0-7.17 2.17-9.33 5.11-1.09 1.63-1.09 1.85-1.09 3.8v21.8c2.61 3.81 6.84 6.29 11.5 6.29 8.25 0 14.8-8.25 14.8-18.2" style=""/><path d="m1737 1648v48.2h-8.14v-48.2zm.88 61.4v9.66h-9.66v-9.66z" style=""/><path d="m1763 1648v75.3h-8.14v-75.3z" style=""/><path d="m1817 1672c0 3.68-.11 11.8-4.34 18.3-4.45 6.74-11.1 7.93-15 7.93-12 0-21.8-11.5-21.8-25.5 0-14.3 10.4-25.7 23.4-25.7 6.85 0 13 2.6 17.2 5.64l-.64 7.05c-6.84-5.64-14-6.08-16.5-6.08-8.68 0-15.6 7.71-16 18.4zm-6.19 5.96h-26.8c1.73 8.25 7.48 13.7 13.7 13.7 5.64 0 11.7-3.69 13.1-13.7" style=""/><path d="m1856 1690v7.29c-9.65-.11-15.6-5.44-19-10.4v9.88h-7.61v-48.8h8.14v23.2c0 10.9 7.81 18.7 18.4 18.9" style=""/><path d="m1933 1716v7.27c-1.32.33-4.68 1.2-8.69 1.2-10.2 0-18-7.7-18-18.6v-9.77h-8.03v-6.28h8.03v-41.9h8.14v41.9h11.9v6.28h-12.3v12.9c0 8.04 7.28 8.79 10.1 8.79 2.17 0 5.11-.22 8.8-1.85" style=""/><path d="m1979 1672c0 14.5-10.9 26.1-23.8 26.1-13.4 0-23.9-11.9-23.9-26.1 0-14.3 11.1-25.1 23.8-25.1 13 0 23.9 11 23.9 25.1zm-8.47 1.07c0-12.8-7.37-19.2-15.4-19.2-7.49 0-15.3 6.08-15.3 19.2 0 13.1 8.25 18.5 15.3 18.5 7.59 0 15.4-5.64 15.4-18.5" style=""/><path d="m2014 1690v7.29c-9.65-.11-15.6-5.44-19-10.4v9.88h-7.61v-48.8h8.14v23.2c0 10.9 7.81 18.7 18.4 18.9" style=""/><path d="m2109 1651c0 3.38-2.72 3.38-4.45 3.38h-4.78v25.2c0 11-5.53 15.6-14.1 15.6-7.27 0-12.1-3.69-14.2-5.75 0 3.47 0 5.1-4.35 5.1h-7.92c-1.73 0-4.45 0-4.45-3.36 0-3.27 2.83-3.27 4.34-3.27h4.89v-33.5h-4.78c-1.73 0-4.45 0-4.45-3.38 0-3.25 2.83-3.25 4.34-3.25h17.2c1.52 0 4.34 0 4.34 3.25 0 3.38-2.71 3.38-4.45 3.38h-4.76v19.2c0 10.8 8.03 15 13.6 15 5.75 0 7.26-3.03 7.26-9.55v-24.6h-4.23c-1.73 0-4.44 0-4.44-3.38 0-3.25 2.92-3.25 4.44-3.25h16.6c1.51 0 4.34 0 4.34 3.25" style=""/><path d="m2161 1671c0 13.6-10.1 24.3-22.2 24.3s-22.2-10.8-22.2-24.3c0-13.8 10.3-24.1 22.2-24.1s22.2 10.4 22.2 24.1zm-7.48.76c0-10.1-6.74-18.2-14.8-18.2-8.01 0-14.8 8.14-14.8 18.2 0 9.88 7.05 16.9 14.8 16.9 7.81 0 14.8-7.05 14.8-16.9" style=""/><path d="m2219 1634c0 3.8-3.8 3.8-5.09 3.8h-34.5c-1.29 0-5.09 0-5.09-3.8 0-3.79 3.8-3.79 5.09-3.79h34.5c1.29 0 5.09 0 5.09 3.79" style=""/><path d="m2275 1662c0 11.3-14 13.6-17.5 14.1l-7.38 1.3c-3.14.44-10.5 1.73-10.5 5.97 0 2.83 3.47 6.19 13.8 6.19 9 0 10.5-3.25 10.8-6.08.11-1.85.33-3.69 3.69-3.69 3.8 0 3.8 2.28 3.8 4.45v7.49c0 1.73 0 4.45-3.25 4.45-2.61 0-3.05-1.53-3.27-2.28-4.76 2.28-9.55 2.28-11.6 2.28-18.1 0-20.6-8.91-20.6-12.8 0-9.99 11.4-11.8 21.4-13.4 5.31-.87 14-2.28 14-8.03 0-4.01-4.02-7.59-13.9-7.59-5.1 0-11.2 1.19-13.9 9.66-.55 1.95-.97 3.14-3.8 3.14-3.8 0-3.8-2.27-3.8-4.44v-10.5c0-1.74 0-4.46 3.25-4.46.99 0 2.72.11 4.02 4.13 5.33-3.91 11.1-4.13 14.1-4.13 17.1 0 20.6 9.02 20.6 14.2" style=""/><path d="m2331 1662c0 1.96 0 4.24-3.8 4.24-3.58 0-3.69-2.28-3.69-4.13-.1-6.73-6.29-7.81-8.79-7.81-8.35 0-8.35 5.64-8.35 8.36v25.8h17.8c1.63 0 4.33 0 4.33 3.27 0 3.36-2.59 3.36-4.33 3.36h-17.8v8.89c0 2.06 0 4.45-3.68 4.45-3.82 0-3.82-2.28-3.82-4.45v-8.89h-9.43c-1.74 0-4.44 0-4.44-3.36 0-3.27 2.7-3.27 4.33-3.27h9.54v-26.5c0-10.4 7.39-14.3 15.3-14.3 8.03 0 16.8 4.68 16.8 14.3" style=""/><path d="m2395 1651c0 3.27-2.83 3.27-4.34 3.27h-4.89v55.2c0 3.38-.64 4.46-4.35 4.46h-7.9c-1.75 0-4.45 0-4.45-3.36 0-3.27 2.81-3.27 4.34-3.27h4.87v-17.1c-3.57 3.16-8.03 4.89-12.7 4.89-11.8 0-22.2-10.3-22.2-24.1 0-13.4 9.76-24 21.3-24 6.08 0 10.6 2.94 13.7 6.08 0-3.9 0-5.42 4.35-5.42h7.92c1.73 0 4.45 0 4.45 3.36zm-16.7 17.7c0-6.08-4.87-15.1-13.2-15.1-7.7 0-14.2 7.7-14.2 17.4 0 10.4 7.59 17.5 15.2 17.5 6.95 0 12.3-6.08 12.3-12v-7.7" style=""/><path d="m2417 1648v8.89h-9v-9h2.7l-2.7-13.6h4.44l4.56 13.7" style=""/><path d="m2511 1696h-8.14c-14.1-34.5-14.3-39.5-14.4-42h-.11c-.66 7.26-9.33 27.4-9.77 28.4l-5.86 13.6h-8.57l21-48.2-3.9-9.77c-2.82-6.29-4.66-6.29-6.18-6.29-1.75 0-5.21.44-8.46 1.73l.65-7.04c2.38-.55 5.42-.88 7.81-.88 3.8 0 7.82 1.31 12.2 12.4l23.7 58" style=""/><path d="m2556 1672c0 3.68-.11 11.8-4.34 18.3-4.45 6.74-11.1 7.93-15 7.93-12 0-21.8-11.5-21.8-25.5 0-14.3 10.4-25.7 23.4-25.7 6.85 0 13 2.6 17.2 5.64l-.64 7.05c-6.84-5.64-14-6.08-16.5-6.08-8.68 0-15.6 7.71-16 18.4zm-6.19 5.96h-26.8c1.73 8.25 7.48 13.7 13.7 13.7 5.64 0 11.7-3.69 13.1-13.7" style=""/><path d="m2595 1651-1.75 6.41c-2.81-2.28-6.28-3.58-9.76-3.58-4.02 0-5.54 3.25-5.54 9v27.1h15.3v6.28h-15.3v13.8h-7.48v-13.8h-9.44v-6.28h9.11v-29c0-6.5 1.52-14.1 9.02-14.1 7.59 0 13.1 2.71 15.8 4.11" style=""/><path d="m2679 1648v31.4c0 11.1-7.93 18.7-17.9 18.7-7.05 0-11.9-1.74-17-4.66l.65-7.17c5.64 4.01 11.1 5.44 16.4 5.44 5.11 0 9.45-4.35 9.45-12.4v-4.67c-16.3-.22-30.1-4.77-30.1-14.3 0-4.68 2.92-13.5 12.4-13.5 1.52 0 11.7.22 18 5.1v-3.91zm-8.46 14.3c0-2.06 0-4.78-3.7-6.85-3.14-1.95-7.27-2.06-8.45-2.06-5.22 0-10.1 2.5-10.1 7.06 0 7.6 17.6 8.35 22.2 8.57v-6.72" style=""/><path d="m2704 1648v75.3h-8.14v-75.3z" style=""/><path d="m2764 1672c0 14.5-10.9 26.1-23.8 26.1-13.4 0-23.9-11.9-23.9-26.1 0-14.3 11.1-25.1 23.8-25.1 13 0 23.9 11 23.9 25.1zm-8.47 1.07c0-12.8-7.37-19.2-15.4-19.2-7.49 0-15.3 6.08-15.3 19.2 0 13.1 8.25 18.5 15.3 18.5 7.59 0 15.4-5.64 15.4-18.5" style=""/><path d="m2815 1648v32.3c0 7.17-1.62 17-14.9 17-9.77 0-15.1-7.4-15.7-8.25v7.7h-7.81v-48.8h8.47v26.6c0 7.17 2.72 16.2 11 16.2 10.4 0 10.5-7.7 10.5-11.2v-31.6h8.47" style=""/><path d="m2869 1672c0 3.68-.11 11.8-4.34 18.3-4.45 6.74-11.1 7.93-15 7.93-12 0-21.8-11.5-21.8-25.5 0-14.3 10.4-25.7 23.4-25.7 6.85 0 13 2.6 17.2 5.64l-.64 7.05c-6.84-5.64-14-6.08-16.5-6.08-8.68 0-15.6 7.71-16 18.4zm-6.19 5.96h-26.8c1.73 8.25 7.48 13.7 13.7 13.7 5.64 0 11.7-3.69 13.1-13.7" style=""/><path d="m2954 1672c0 3.68-.11 11.8-4.34 18.3-4.45 6.74-11.1 7.93-15 7.93-12 0-21.8-11.5-21.8-25.5 0-14.3 10.4-25.7 23.4-25.7 6.85 0 13 2.6 17.2 5.64l-.64 7.05c-6.84-5.64-14-6.08-16.5-6.08-8.68 0-15.6 7.71-16 18.4zm-6.19 5.96h-26.8c1.73 8.25 7.48 13.7 13.7 13.7 5.64 0 11.7-3.69 13.1-13.7" style=""/><path d="m3034 1648v32.3c0 7.28-1.73 17-14.9 17-6.52 0-12.2-3.05-16.2-8.91-2.81 8.25-10.4 8.91-13.9 8.91-7.81 0-12.9-4.46-15.8-8.36v7.81h-7.81v-48.8h8.47v26.6c0 7.39 2.94 16.2 11 16.2 10.1 0 10.6-7.05 10.6-11.2v-31.6h8.47v26.6c0 7.39 2.92 16.2 11 16.2 10.1 0 10.6-7.05 10.6-11.2v-31.6h8.45" style=""/><path d="m3096 1672c0 13.5-7.38 25.2-17.6 25.2-4.23 0-11-1.1-17.5-6.41v32.3h-8.14v-75.3h8.47v4.98c2.61-2.37 7.27-6.17 14.6-6.17 10.8 0 20.2 10.8 20.2 25.4zm-8.45 0c0-14.1-9.13-18.8-15.7-18.8-4.23 0-7.81 1.96-10.5 6.96v24c1.73 2.61 5.64 6.41 11.6 6.41 6.41 0 14.7-4.67 14.7-18.6" style=""/><path d="m3149 1672c0 3.68-.11 11.8-4.34 18.3-4.45 6.74-11.1 7.93-15 7.93-12 0-21.8-11.5-21.8-25.5 0-14.3 10.4-25.7 23.4-25.7 6.85 0 13 2.6 17.2 5.64l-.64 7.05c-6.84-5.64-14-6.08-16.5-6.08-8.68 0-15.6 7.71-16 18.4zm-6.19 5.96h-26.8c1.73 8.25 7.48 13.7 13.7 13.7 5.64 0 11.7-3.69 13.1-13.7" style=""/><path d="m3199 1648v75.3h-8.14v-31.9c-5.75 4.76-11.8 5.97-15.8 5.97-10.7 0-19.2-11.3-19.2-25.3 0-14.2 8.36-25.3 18.6-25.3 3.6 0 9.99.97 16.1 6.83v-5.64zm-8.46 15.1c0-1.52-.11-3.47-3.58-6.61-2.5-2.17-5.21-3.05-8.03-3.05-6.72 0-14.6 5.11-14.6 18.6 0 14.3 9.32 18.8 15.7 18.8 4.87 0 8.12-2.5 10.5-5.97v-21.7" style=""/><path d="m3255 1648v75.3h-8.14v-31.9c-5.75 4.76-11.8 5.97-15.8 5.97-10.7 0-19.2-11.3-19.2-25.3 0-14.2 8.36-25.3 18.6-25.3 3.6 0 9.99.97 16.1 6.83v-5.64zm-8.46 15.1c0-1.52-.11-3.47-3.58-6.61-2.5-2.17-5.21-3.05-8.03-3.05-6.72 0-14.6 5.11-14.6 18.6 0 14.3 9.32 18.8 15.7 18.8 4.87 0 8.12-2.5 10.5-5.97v-21.7" style=""/><path d="m3310 1672c0 3.68-.11 11.8-4.34 18.3-4.45 6.74-11.1 7.93-15 7.93-12 0-21.8-11.5-21.8-25.5 0-14.3 10.4-25.7 23.4-25.7 6.85 0 13 2.6 17.2 5.64l-.64 7.05c-6.84-5.64-14-6.08-16.5-6.08-8.68 0-15.6 7.71-16 18.4zm-6.19 5.96h-26.8c1.73 8.25 7.48 13.7 13.7 13.7 5.64 0 11.7-3.69 13.1-13.7" style=""/><path d="m3360 1648v75.3h-8.14v-31.9c-5.75 4.76-11.8 5.97-15.8 5.97-10.7 0-19.2-11.3-19.2-25.3 0-14.2 8.36-25.3 18.6-25.3 3.6 0 9.99.97 16.1 6.83v-5.64zm-8.46 15.1c0-1.52-.11-3.47-3.58-6.61-2.5-2.17-5.21-3.05-8.03-3.05-6.72 0-14.6 5.11-14.6 18.6 0 14.3 9.32 18.8 15.7 18.8 4.87 0 8.12-2.5 10.5-5.97v-21.7" style=""/><path d="m3453 1648v75.3h-8.14v-31.9c-5.75 4.76-11.8 5.97-15.8 5.97-10.7 0-19.2-11.3-19.2-25.3 0-14.2 8.36-25.3 18.6-25.3 3.6 0 9.99.97 16.1 6.83v-5.64zm-8.46 15.1c0-1.52-.11-3.47-3.58-6.61-2.5-2.17-5.21-3.05-8.03-3.05-6.72 0-14.6 5.11-14.6 18.6 0 14.3 9.32 18.8 15.7 18.8 4.87 0 8.12-2.5 10.5-5.97v-21.7" style=""/><path d="m3507 1672c0 3.68-.11 11.8-4.34 18.3-4.45 6.74-11.1 7.93-15 7.93-12 0-21.8-11.5-21.8-25.5 0-14.3 10.4-25.7 23.4-25.7 6.85 0 13 2.6 17.2 5.64l-.64 7.05c-6.84-5.64-14-6.08-16.5-6.08-8.68 0-15.6 7.71-16 18.4zm-6.19 5.96h-26.8c1.73 8.25 7.48 13.7 13.7 13.7 5.64 0 11.7-3.69 13.1-13.7" style=""/><path d="m3559 1696h-8.14l-8.56-22.6c-2.28-5.97-5.64-14.8-6.52-19.9h-.11c-.65 3.91-3.47 11.4-4.56 14.3l-10.5 28.1h-8.46l18.7-48.2h9.54l18.7 48.2" style=""/><path d="m3606 1672c0 3.68-.11 11.8-4.34 18.3-4.45 6.74-11.1 7.93-15 7.93-12 0-21.8-11.5-21.8-25.5 0-14.3 10.4-25.7 23.4-25.7 6.85 0 13 2.6 17.2 5.64l-.64 7.05c-6.84-5.64-14-6.08-16.5-6.08-8.68 0-15.6 7.71-16 18.4zm-6.19 5.96h-26.8c1.73 8.25 7.48 13.7 13.7 13.7 5.64 0 11.7-3.69 13.1-13.7" style=""/><path d="m3626 1648v75.3h-8.14v-75.3z" style=""/><path d="m3687 1672c0 14.5-10.9 26.1-23.8 26.1-13.4 0-23.9-11.9-23.9-26.1 0-14.3 11.1-25.1 23.8-25.1 13 0 23.9 11 23.9 25.1zm-8.47 1.07c0-12.8-7.37-19.2-15.4-19.2-7.49 0-15.3 6.08-15.3 19.2 0 13.1 8.25 18.5 15.3 18.5 7.59 0 15.4-5.64 15.4-18.5" style=""/><path d="m3742 1672c0 13-6.83 25.2-17.2 25.2-6.52 0-12.8-2.29-17.8-6.52v5.31h-8.14v-69.2h8.47v26c3.36-3.14 8.14-6.17 14.7-6.17 10.5 0 20.1 10.6 20.1 25.4zm-8.45 0c0-11.2-7.71-18.8-15.8-18.8-4.23 0-7.17 2.17-9.33 5.11-1.09 1.63-1.09 1.85-1.09 3.8v21.8c2.61 3.81 6.84 6.29 11.5 6.29 8.25 0 14.8-8.25 14.8-18.2" style=""/><path d="m3824 1648v32.3c0 7.28-1.73 17-14.9 17-6.52 0-12.2-3.05-16.2-8.91-2.81 8.25-10.4 8.91-13.9 8.91-7.81 0-12.9-4.46-15.8-8.36v7.81h-7.81v-48.8h8.47v26.6c0 7.39 2.94 16.2 11 16.2 10.1 0 10.6-7.05 10.6-11.2v-31.6h8.47v26.6c0 7.39 2.92 16.2 11 16.2 10.1 0 10.6-7.05 10.6-11.2v-31.6h8.45" style=""/><path d="m3878 1672c0 3.68-.11 11.8-4.34 18.3-4.45 6.74-11.1 7.93-15 7.93-12 0-21.8-11.5-21.8-25.5 0-14.3 10.4-25.7 23.4-25.7 6.85 0 13 2.6 17.2 5.64l-.64 7.05c-6.84-5.64-14-6.08-16.5-6.08-8.68 0-15.6 7.71-16 18.4zm-6.19 5.96h-26.8c1.73 8.25 7.48 13.7 13.7 13.7 5.64 0 11.7-3.69 13.1-13.7" style=""/><path d="m3929 1648v32.3c0 7.17-1.62 17-14.9 17-9.77 0-15.1-7.4-15.7-8.25v7.7h-7.81v-48.8h8.47v26.6c0 7.17 2.72 16.2 11 16.2 10.4 0 10.5-7.7 10.5-11.2v-31.6h8.47" style=""/><path d="m3974 1651-1.75 6.41c-2.81-2.28-6.28-3.58-9.76-3.58-4.02 0-5.54 3.25-5.54 9v27.1h15.3v6.28h-15.3v13.8h-7.48v-13.8h-9.44v-6.28h9.11v-29c0-6.5 1.52-14.1 9.02-14.1 7.59 0 13.1 2.71 15.8 4.11" style=""/><path d="m4031 1648v48.2h-8.14v-48.2zm.88 61.4v9.66h-9.66v-9.66z" style=""/><path d="m4087 1648v32.3c0 7.17-1.62 17-14.9 17-9.77 0-15.1-7.4-15.7-8.25v7.7h-7.81v-48.8h8.47v26.6c0 7.17 2.72 16.2 11 16.2 10.4 0 10.5-7.7 10.5-11.2v-31.6h8.47" style=""/><path d="m336 1556-1.19 6.85c-7.59 0-13.9-2.07-17.2-3.49-2.26 1.86-5.97 3.49-10.3 3.49-9.34 0-17.2-7.82-17.2-17.7 0-4.02 1.41-7.92 3.58-10.8-3.16-4.44-3.16-8.67-3.16-9.22 0-2.83.985-5.97 2.83-8.25-5.64-3.36-6.95-8.34-6.95-11.2 0-8.14 10.8-14.7 24-14.7 13.3 0 24.1 6.41 24.1 14.8 0 15.1-18.1 15.1-22.4 15.1h-9.55c-1.41 0-6.3 0-6.3 5.75 0 1.21.438 2.94 1.2 3.91 2.28-1.62 5.86-3.14 9.88-3.14 9.77 0 17.4 8.03 17.4 17.7 0 5.2-2.39 9.22-3.58 10.8l.422-.11c2.39 0 5.44.44 8.03.44 1.95 0 6.41-.33 6.41-.33zm-18.9-10.8c0-8.47-5.11-11.5-9.77-11.5-4.02 0-9.66 2.48-9.66 11.5 0 9 5.64 11.5 9.66 11.5 4.66 0 9.77-3.05 9.77-11.5zm9.77-39.5c0-4.78-7.48-8.36-16.4-8.36-8.78 0-16.5 3.37-16.5 8.47 0 .33 0 7.37 8.45 7.37h9.76c2.39 0 14.7 0 14.7-7.48" style=""/><path d="m383 1537c0 3.68-.109 11.8-4.34 18.3-4.45 6.74-11.1 7.93-15 7.93-12 0-21.8-11.5-21.8-25.5 0-14.3 10.4-25.7 23.4-25.7 6.84 0 13 2.6 17.2 5.64l-.64 7.05c-6.84-5.64-14-6.08-16.5-6.08-8.69 0-15.6 7.71-16 18.4zm-6.19 5.96h-26.8c1.73 8.25 7.48 13.7 13.7 13.7 5.64 0 11.7-3.69 13.1-13.7" style=""/><path d="m433 1513v32.3c0 7.17-1.62 17-14.9 17-9.76 0-15.1-7.4-15.7-8.25v7.7h-7.81v-48.8h8.47v26.6c0 7.17 2.72 16.2 11 16.2 10.4 0 10.5-7.7 10.5-11.2v-31.6h8.47" style=""/><path d="m488 1537c0 3.68-.109 11.8-4.34 18.3-4.45 6.74-11.1 7.93-15 7.93-12 0-21.8-11.5-21.8-25.5 0-14.3 10.4-25.7 23.4-25.7 6.84 0 13 2.6 17.2 5.64l-.64 7.05c-6.84-5.64-14-6.08-16.5-6.08-8.69 0-15.6 7.71-16 18.4zm-6.19 5.96h-26.8c1.73 8.25 7.48 13.7 13.7 13.7 5.64 0 11.7-3.69 13.1-13.7" style=""/><path d="m526 1555v7.29c-9.66-.11-15.6-5.44-19-10.4v9.88h-7.61v-48.8h8.14v23.2c0 10.9 7.81 18.7 18.5 18.9" style=""/><path d="m573 1513v31.4c0 11.1-7.92 18.7-17.9 18.7-7.05 0-11.9-1.74-17-4.66l.656-7.17c5.64 4.01 11.1 5.44 16.4 5.44 5.11 0 9.45-4.35 9.45-12.4v-4.67c-16.3-.22-30.1-4.77-30.1-14.3 0-4.68 2.92-13.5 12.4-13.5 1.52 0 11.7.22 18 5.1v-3.91zm-8.45 14.3c0-2.06 0-4.78-3.7-6.85-3.14-1.95-7.27-2.06-8.45-2.06-5.22 0-10.1 2.5-10.1 7.06 0 7.6 17.6 8.35 22.2 8.57v-6.72" style=""/><path d="m598 1513v75.3h-8.14v-75.3z" style=""/><path d="m627 1513v9h-9v-9z" style=""/><path d="m755 1513-28.3 75.3h-9.55l-28.3-75.3h8.03l8.36 22.1h31.6l8.25-22.1zm-20.6 28.2h-26.9c5.53 15.5 1.52 4.11 7.05 19.6 2.28 6.41 5.64 15.6 6.41 19.6h.11c.218-1.51.968-4.21 3.47-11.4l9.88-27.9" style=""/><path d="m842 1513v32.3c0 7.17-1.62 17-14.9 17-9.76 0-15.1-7.4-15.7-8.25v7.7h-7.81v-48.8h8.47v26.6c0 7.17 2.72 16.2 11 16.2 10.4 0 10.5-7.7 10.5-11.2v-31.6h8.47" style=""/><path d="m898 1513v48.2h-8.47v-31.5c0-8.12-6.08-11.9-13-11.9-7.7 0-8.47 2.81-8.47 7.49v35.9h-8.47v-36.3c0-7.81 2.5-13 11.5-13 5.75 0 13.5 1.74 18.8 6.39v-5.2h8.14" style=""/><path d="m985 1513v32.3c0 7.28-1.73 17-14.9 17-6.52 0-12.2-3.05-16.2-8.91-2.81 8.25-10.4 8.91-13.9 8.91-7.81 0-12.9-4.46-15.8-8.36v7.81h-7.81v-48.8h8.47v26.6c0 7.39 2.94 16.2 11 16.2 10.1 0 10.6-7.05 10.6-11.2v-31.6h8.47v26.6c0 7.39 2.92 16.2 11 16.2 10.1 0 10.6-7.05 10.6-11.2v-31.6h8.45" style=""/><path d="m1046 1537c0 13.5-7.38 25.2-17.6 25.2-4.23 0-11-1.1-17.5-6.41v32.3h-8.14v-75.3h8.47v4.98c2.61-2.37 7.27-6.17 14.6-6.17 10.8 0 20.2 10.8 20.2 25.4zm-8.45 0c0-14.1-9.13-18.8-15.7-18.8-4.23 0-7.81 1.96-10.5 6.96v24c1.73 2.61 5.64 6.41 11.6 6.41 6.41 0 14.7-4.67 14.7-18.6" style=""/><path d="m1099 1537c0 3.68-.11 11.8-4.34 18.3-4.45 6.74-11.1 7.93-15 7.93-12 0-21.8-11.5-21.8-25.5 0-14.3 10.4-25.7 23.4-25.7 6.85 0 13 2.6 17.2 5.64l-.64 7.05c-6.84-5.64-14-6.08-16.5-6.08-8.68 0-15.6 7.71-16 18.4zm-6.19 5.96h-26.8c1.73 8.25 7.48 13.7 13.7 13.7 5.64 0 11.7-3.69 13.1-13.7" style=""/><path d="m1137 1555v7.29c-9.65-.11-15.6-5.44-19-10.4v9.88h-7.61v-48.8h8.14v23.2c0 10.9 7.81 18.7 18.4 18.9" style=""/><path d="m1227 1537c0 14.5-10.9 26.1-23.8 26.1-13.4 0-23.9-11.9-23.9-26.1 0-14.3 11.1-25.1 23.8-25.1 13 0 23.9 11 23.9 25.1zm-8.47 1.07c0-12.8-7.37-19.2-15.4-19.2-7.49 0-15.3 6.08-15.3 19.2 0 13.1 8.25 18.5 15.3 18.5 7.59 0 15.4-5.64 15.4-18.5" style=""/><path d="m1268 1581v7.27c-1.32.33-4.68 1.2-8.69 1.2-10.2 0-18-7.7-18-18.6v-9.77h-8.03v-6.28h8.03v-41.9h8.14v41.9h11.9v6.28h-12.3v12.9c0 8.04 7.28 8.79 10.1 8.79 2.17 0 5.11-.22 8.8-1.85" style=""/><path d="m1317 1513v48.2h-8.14v-48.2zm.88 61.4v9.66h-9.66v-9.66z" style=""/><path d="m1403 1513v32.3c0 7.28-1.73 17-14.9 17-6.52 0-12.2-3.05-16.2-8.91-2.81 8.25-10.4 8.91-13.9 8.91-7.81 0-12.9-4.46-15.8-8.36v7.81h-7.81v-48.8h8.47v26.6c0 7.39 2.94 16.2 11 16.2 10.1 0 10.6-7.05 10.6-11.2v-31.6h8.47v26.6c0 7.39 2.92 16.2 11 16.2 10.1 0 10.6-7.05 10.6-11.2v-31.6h8.45" style=""/><path d="m1465 1537c0 13-6.83 25.2-17.2 25.2-6.52 0-12.8-2.29-17.8-6.52v5.31h-8.14v-69.2h8.47v26c3.36-3.14 8.14-6.17 14.7-6.17 10.5 0 20.1 10.6 20.1 25.4zm-8.45 0c0-11.2-7.71-18.8-15.8-18.8-4.23 0-7.17 2.17-9.33 5.11-1.09 1.63-1.09 1.85-1.09 3.8v21.8c2.61 3.81 6.84 6.29 11.5 6.29 8.25 0 14.8-8.25 14.8-18.2" style=""/><path d="m1523 1537c0 14.5-10.9 26.1-23.8 26.1-13.4 0-23.9-11.9-23.9-26.1 0-14.3 11.1-25.1 23.8-25.1 13 0 23.9 11 23.9 25.1zm-8.47 1.07c0-12.8-7.37-19.2-15.4-19.2-7.49 0-15.3 6.08-15.3 19.2 0 13.1 8.25 18.5 15.3 18.5 7.59 0 15.4-5.64 15.4-18.5" style=""/><path d="m1559 1555v7.29c-9.65-.11-15.6-5.44-19-10.4v9.88h-7.61v-48.8h8.14v23.2c0 10.9 7.81 18.7 18.4 18.9" style=""/><path d="m1597 1516-1.75 6.41c-2.81-2.28-6.28-3.58-9.76-3.58-4.02 0-5.54 3.25-5.54 9v27.1h15.3v6.28h-15.3v13.8h-7.48v-13.8h-9.44v-6.28h9.11v-29c0-6.5 1.52-14.1 9.02-14.1 7.59 0 13.1 2.71 15.8 4.11" style=""/><path d="m1644 1513v31.4c0 11.1-7.93 18.7-17.9 18.7-7.05 0-11.9-1.74-17-4.66l.65-7.17c5.64 4.01 11.1 5.44 16.4 5.44 5.11 0 9.45-4.35 9.45-12.4v-4.67c-16.3-.22-30.1-4.77-30.1-14.3 0-4.68 2.92-13.5 12.4-13.5 1.52 0 11.7.22 18 5.1v-3.91zm-8.46 14.3c0-2.06 0-4.78-3.7-6.85-3.14-1.95-7.27-2.06-8.45-2.06-5.22 0-10.1 2.5-10.1 7.06 0 7.6 17.6 8.35 22.2 8.57v-6.72" style=""/><path d="m1700 1513v32.3c0 7.17-1.62 17-14.9 17-9.77 0-15.1-7.4-15.7-8.25v7.7h-7.81v-48.8h8.47v26.6c0 7.17 2.72 16.2 11 16.2 10.4 0 10.5-7.7 10.5-11.2v-31.6h8.47" style=""/><path d="m1745 1516-1.75 6.41c-2.81-2.28-6.28-3.58-9.76-3.58-4.02 0-5.54 3.25-5.54 9v27.1h15.3v6.28h-15.3v13.8h-7.48v-13.8h-9.44v-6.28h9.11v-29c0-6.5 1.52-14.1 9.02-14.1 7.59 0 13.1 2.71 15.8 4.11" style=""/><path d="m1823 1581v7.27c-1.32.33-4.68 1.2-8.69 1.2-10.2 0-18-7.7-18-18.6v-9.77h-8.03v-6.28h8.03v-41.9h8.14v41.9h11.9v6.28h-12.3v12.9c0 8.04 7.28 8.79 10.1 8.79 2.17 0 5.11-.22 8.8-1.85" style=""/><path d="m1863 1537c0 3.68-.11 11.8-4.34 18.3-4.45 6.74-11.1 7.93-15 7.93-12 0-21.8-11.5-21.8-25.5 0-14.3 10.4-25.7 23.4-25.7 6.85 0 13 2.6 17.2 5.64l-.64 7.05c-6.84-5.64-14-6.08-16.5-6.08-8.68 0-15.6 7.71-16 18.4zm-6.19 5.96h-26.8c1.73 8.25 7.48 13.7 13.7 13.7 5.64 0 11.7-3.69 13.1-13.7" style=""/><path d="m1911 1513v31.4c0 11.1-7.93 18.7-17.9 18.7-7.05 0-11.9-1.74-17-4.66l.65-7.17c5.64 4.01 11.1 5.44 16.4 5.44 5.11 0 9.45-4.35 9.45-12.4v-4.67c-16.3-.22-30.1-4.77-30.1-14.3 0-4.68 2.92-13.5 12.4-13.5 1.52 0 11.7.22 18 5.1v-3.91zm-8.46 14.3c0-2.06 0-4.78-3.7-6.85-3.14-1.95-7.27-2.06-8.45-2.06-5.22 0-10.1 2.5-10.1 7.06 0 7.6 17.6 8.35 22.2 8.57v-6.72" style=""/><path d="m1955 1516-1.75 6.41c-2.81-2.28-6.28-3.58-9.76-3.58-4.02 0-5.54 3.25-5.54 9v27.1h15.3v6.28h-15.3v13.8h-7.48v-13.8h-9.44v-6.28h9.11v-29c0-6.5 1.52-14.1 9.02-14.1 7.59 0 13.1 2.71 15.8 4.11" style=""/><path d="m2006 1513v48.2h-8.47v-31.5c0-8.12-6.07-11.9-13-11.9-7.7 0-8.47 2.81-8.47 7.49v35.9h-8.47v-36.3c0-7.81 2.5-13 11.5-13 5.75 0 13.4 1.74 18.8 6.39v-5.2h8.14" style=""/><path d="m2050 1555v7.29c-9.65-.11-15.6-5.44-19-10.4v9.88h-7.61v-48.8h8.14v23.2c0 10.9 7.81 18.7 18.4 18.9" style=""/><path d="m2097 1537c0 3.68-.11 11.8-4.34 18.3-4.45 6.74-11.1 7.93-15 7.93-12 0-21.8-11.5-21.8-25.5 0-14.3 10.4-25.7 23.4-25.7 6.85 0 13 2.6 17.2 5.64l-.64 7.05c-6.84-5.64-14-6.08-16.5-6.08-8.68 0-15.6 7.71-16 18.4zm-6.19 5.96h-26.8c1.73 8.25 7.48 13.7 13.7 13.7 5.64 0 11.7-3.69 13.1-13.7" style=""/><path d="m2140 1527c0 5.97-4.01 9.66-4.23 9.99-4.24 3.79-7.16 4.43-12.6 5.42-5.97 1.18-11 2.28-11 7.59 0 6.74 7.81 6.74 9.22 6.74 3.48 0 9.23-.44 15.4-4.13l1.3 7.05c-5.64 2.61-10.1 3.47-15.6 3.47-2.71 0-18 0-18-14.2 0-5.33 3.15-8.79 5.86-10.9 3.36-2.39 5.75-2.81 11.7-4.01 3.9-.75 10.2-2.06 10.2-7.81 0-7.49-8.58-7.49-10.2-7.49-8.78 0-14.9 4.02-16.8 5.31l-1.31-7.37c3.49-1.74 9.45-4.77 18.2-4.77 1.95 0 7.92 0 12.6 3.47 3.36 2.6 5.2 6.94 5.2 11.6" style=""/><path d="m2223 1513v31.4c0 11.1-7.93 18.7-17.9 18.7-7.05 0-11.9-1.74-17-4.66l.65-7.17c5.64 4.01 11.1 5.44 16.4 5.44 5.11 0 9.45-4.35 9.45-12.4v-4.67c-16.3-.22-30.1-4.77-30.1-14.3 0-4.68 2.92-13.5 12.4-13.5 1.52 0 11.7.22 18 5.1v-3.91zm-8.46 14.3c0-2.06 0-4.78-3.7-6.85-3.14-1.95-7.27-2.06-8.45-2.06-5.22 0-10.1 2.5-10.1 7.06 0 7.6 17.6 8.35 22.2 8.57v-6.72" style=""/><path d="m2263 1555v7.29c-9.65-.11-15.6-5.44-19-10.4v9.88h-7.61v-48.8h8.14v23.2c0 10.9 7.81 18.7 18.4 18.9" style=""/><path d="m2311 1537c0 3.68-.11 11.8-4.34 18.3-4.45 6.74-11.1 7.93-15 7.93-12 0-21.8-11.5-21.8-25.5 0-14.3 10.4-25.7 23.4-25.7 6.85 0 13 2.6 17.2 5.64l-.64 7.05c-6.84-5.64-14-6.08-16.5-6.08-8.68 0-15.6 7.71-16 18.4zm-6.19 5.96h-26.8c1.73 8.25 7.48 13.7 13.7 13.7 5.64 0 11.7-3.69 13.1-13.7" style=""/><path d="m2389 1527c0 5.97-4.01 9.66-4.23 9.99-4.24 3.79-7.16 4.43-12.6 5.42-5.97 1.18-11 2.28-11 7.59 0 6.74 7.81 6.74 9.22 6.74 3.48 0 9.23-.44 15.4-4.13l1.3 7.05c-5.64 2.61-10.1 3.47-15.6 3.47-2.71 0-18 0-18-14.2 0-5.33 3.15-8.79 5.86-10.9 3.36-2.39 5.75-2.81 11.7-4.01 3.9-.75 10.2-2.06 10.2-7.81 0-7.49-8.58-7.49-10.2-7.49-8.78 0-14.9 4.02-16.8 5.31l-1.31-7.37c3.49-1.74 9.45-4.77 18.2-4.77 1.95 0 7.92 0 12.6 3.47 3.36 2.6 5.2 6.94 5.2 11.6" style=""/><path d="m2428 1516-1.75 6.41c-2.81-2.28-6.28-3.58-9.76-3.58-4.02 0-5.54 3.25-5.54 9v27.1h15.3v6.28h-15.3v13.8h-7.48v-13.8h-9.44v-6.28h9.11v-29c0-6.5 1.52-14.1 9.02-14.1 7.59 0 13.1 2.71 15.8 4.11" style=""/><path d="m2449 1513v48.2h-8.14v-48.2zm.88 61.4v9.66h-9.66v-9.66z" style=""/><path d="m2475 1513v75.3h-8.14v-75.3z" style=""/><path d="m2501 1513v75.3h-8.14v-75.3z" style=""/><path d="m2593 1513v48.2h-8.47v-31.5c0-8.12-6.07-11.9-13-11.9-7.7 0-8.47 2.81-8.47 7.49v35.9h-8.47v-36.3c0-7.81 2.5-13 11.5-13 5.75 0 13.4 1.74 18.8 6.39v-5.2h8.14" style=""/><path d="m2650 1513v32.3c0 7.17-1.62 17-14.9 17-9.77 0-15.1-7.4-15.7-8.25v7.7h-7.81v-48.8h8.47v26.6c0 7.17 2.72 16.2 11 16.2 10.4 0 10.5-7.7 10.5-11.2v-31.6h8.47" style=""/><path d="m2698 1527c0 5.97-4.01 9.66-4.23 9.99-4.24 3.79-7.16 4.43-12.6 5.42-5.97 1.18-11 2.28-11 7.59 0 6.74 7.81 6.74 9.22 6.74 3.48 0 9.23-.44 15.4-4.13l1.3 7.05c-5.64 2.61-10.1 3.47-15.6 3.47-2.71 0-18 0-18-14.2 0-5.33 3.15-8.79 5.86-10.9 3.36-2.39 5.75-2.81 11.7-4.01 3.9-.75 10.2-2.06 10.2-7.81 0-7.49-8.58-7.49-10.2-7.49-8.78 0-14.9 4.02-16.8 5.31l-1.31-7.37c3.49-1.74 9.45-4.77 18.2-4.77 1.95 0 7.92 0 12.6 3.47 3.36 2.6 5.2 6.94 5.2 11.6" style=""/><path d="m2737 1516-1.75 6.41c-2.81-2.28-6.28-3.58-9.76-3.58-4.02 0-5.54 3.25-5.54 9v27.1h15.3v6.28h-15.3v13.8h-7.48v-13.8h-9.44v-6.28h9.11v-29c0-6.5 1.52-14.1 9.02-14.1 7.59 0 13.1 2.71 15.8 4.11" style=""/><path d="m2784 1513v31.4c0 11.1-7.93 18.7-17.9 18.7-7.05 0-11.9-1.74-17-4.66l.65-7.17c5.64 4.01 11.1 5.44 16.4 5.44 5.11 0 9.45-4.35 9.45-12.4v-4.67c-16.3-.22-30.1-4.77-30.1-14.3 0-4.68 2.92-13.5 12.4-13.5 1.52 0 11.7.22 18 5.1v-3.91zm-8.46 14.3c0-2.06 0-4.78-3.7-6.85-3.14-1.95-7.27-2.06-8.45-2.06-5.22 0-10.1 2.5-10.1 7.06 0 7.6 17.6 8.35 22.2 8.57v-6.72" style=""/><path d="m2845 1537c0 13.5-7.38 25.2-17.6 25.2-4.23 0-11-1.1-17.5-6.41v32.3h-8.14v-75.3h8.47v4.98c2.61-2.37 7.27-6.17 14.6-6.17 10.8 0 20.2 10.8 20.2 25.4zm-8.45 0c0-14.1-9.13-18.8-15.7-18.8-4.23 0-7.81 1.96-10.5 6.96v24c1.73 2.61 5.64 6.41 11.6 6.41 6.41 0 14.7-4.67 14.7-18.6" style=""/><path d="m2866 1513v75.3h-8.14v-75.3z" style=""/><path d="m2920 1537c0 3.68-.11 11.8-4.34 18.3-4.45 6.74-11.1 7.93-15 7.93-12 0-21.8-11.5-21.8-25.5 0-14.3 10.4-25.7 23.4-25.7 6.85 0 13 2.6 17.2 5.64l-.64 7.05c-6.84-5.64-14-6.08-16.5-6.08-8.68 0-15.6 7.71-16 18.4zm-6.19 5.96h-26.8c1.73 8.25 7.48 13.7 13.7 13.7 5.64 0 11.7-3.69 13.1-13.7" style=""/><path d="m2943 1552v9h-9v-9zm0-39.2v9h-9v-9z" style=""/></g><g style="clip-path:url(#b)"><path d="m396 1319h51.3v51.3h-51.3z" style="fill:url(#f)"/></g><g style="fill:#fff"><path d="m553 1320c0 3.38-2.61 3.38-4.34 3.38h-14.1v55.2c0 3.38-.641 4.46-4.33 4.46h-17.2c-1.73 0-4.44 0-4.44-3.36 0-3.27 2.81-3.27 4.34-3.27h14.1v-53h-14c-1.73 0-4.44 0-4.44-3.38 0-3.25 2.81-3.25 4.34-3.25h35.7c1.62 0 4.34 0 4.34 3.25" style=""/><path d="m615 1320c0 3.27-2.7 3.27-4.34 3.27-4.55 0-5.64.53-6.5.85v23.4c0 7.71-5.86 16.8-21.5 16.8-4.67 0-15.7 0-15.7-7.92 0-3.27 2.28-5 4.88-5 1.62 0 4.67.98 4.78 5 0 .86.11.97 2.28 1.19 1.52.11 2.92.11 3.91.11 8.23 0 13.9-3.36 13.9-11.1-19.2-.33-32.6-5.75-32.6-16.2 0-7.48 6.84-14.6 17.9-14.6 4.02 0 10.8.77 15.8 4.13 2.39-3.36 7.59-3.47 11.7-3.47 3.03 0 5.42 0 5.42 3.36zm-18.3 11.2c0-2.5 0-4.78-4.23-6.74-3.91-1.84-8.8-1.84-9.66-1.84-6.74 0-11.2 3.69-11.2 7.92 0 5.31 9.34 9.33 25.1 9.77v-9.11" style=""/><path d="m672 1320c0 3.38-2.72 3.38-4.45 3.38h-4.78v25.2c0 11-5.53 15.6-14.1 15.6-7.27 0-12.1-3.69-14.2-5.75 0 3.47 0 5.1-4.34 5.1h-7.92c-1.73 0-4.45 0-4.45-3.36 0-3.27 2.83-3.27 4.34-3.27h4.89v-33.5h-4.78c-1.73 0-4.45 0-4.45-3.38 0-3.25 2.83-3.25 4.34-3.25h17.2c1.52 0 4.34 0 4.34 3.25 0 3.38-2.72 3.38-4.45 3.38h-4.76v19.2c0 10.8 8.03 15 13.6 15 5.75 0 7.27-3.03 7.27-9.55v-24.6h-4.24c-1.73 0-4.44 0-4.44-3.38 0-3.25 2.92-3.25 4.44-3.25h16.6c1.52 0 4.34 0 4.34 3.25" style=""/><path d="m728 1359c0 2.5-2.06 5.86-7.92 5.86-1.2 0-6.52-.11-11.5-3.79-1.74 1.2-5.55 3.26-10.5 3.26-10.2 0-17.9-8.14-17.9-17.4 0-4.67 1.84-8.25 3.47-10.3-1.19-1.73-2.16-4.12-2.16-7.37 0-3.8 1.52-6.52 2.48-7.82-8.03-4.89-8.03-12.3-8.03-13.4 0-9.34 11.4-16 25.3-16s25.3 6.72 25.3 16c0 4.02-1.95 9.44-7.48 12.4-1.41.76-5.97 3.16-15.7 3.16h-7.59c-.86 0-2.28 0-3.14.2-1.62 0-2.28 0-3.58 1.53-1.2 1.52-1.31 3.91-1.31 3.91 0 .42.219 1.95.657 3.03.328-.22 4.45-2.71 9.76-2.71 9.98 0 17.9 7.82 17.9 17.5 0 3.25-.985 6.39-2.83 9.44 2.28 1.3 4.89 1.73 6.3 1.84.657-2.93 3.14-3.68 4.24-3.68 1.84 0 4.34 1.29 4.34 4.43zm-19.5-12c0-6.18-4.78-11-10.4-11-5.86 0-10.4 5.11-10.4 10.9 0 6.18 4.78 11 10.4 11 5.86 0 10.4-5.1 10.4-10.8zm11.7-39c0-4.78-8.14-9.45-19-9.45-10.8 0-19 4.67-19 9.45 0 1.95.984 5.42 4.45 7.59 2.7 1.74 3.69 1.74 11.6 1.74 9.66 0 21.9 0 21.9-9.33" style=""/><path d="m782 1303c0 3.8-3.8 3.8-5.09 3.8h-34.5c-1.3 0-5.09 0-5.09-3.8 0-3.79 3.8-3.79 5.09-3.79h34.5c1.3 0 5.09 0 5.09 3.79" style=""/><path d="m837 1320c0 3.38-2.83 3.38-4.45 3.38h-11.4v35.7c0 3.38-.656 4.46-4.34 4.46h-15.4c-1.62 0-4.45 0-4.45-3.25 0-3.38 2.83-3.38 4.45-3.38h12.3v-33.5h-13.1c-1.73 0-4.44 0-4.44-3.38 0-3.25 2.81-3.25 4.44-3.25h32c1.62 0 4.45 0 4.45 3.25zm-15.4 57c0 3.05-2.39 5.42-5.44 5.42-3.03 0-5.42-2.37-5.42-5.42 0-3.03 2.39-5.42 5.42-5.42 3.05 0 5.44 2.39 5.44 5.42" style=""/><path d="m894 1331c0 1.96 0 4.24-3.8 4.24-3.58 0-3.69-2.28-3.69-4.13-.109-6.73-6.3-7.81-8.8-7.81-8.34 0-8.34 5.64-8.34 8.36v25.8h17.8c1.62 0 4.33 0 4.33 3.27 0 3.36-2.59 3.36-4.33 3.36h-17.8v8.89c0 2.06 0 4.45-3.69 4.45-3.81 0-3.81-2.28-3.81-4.45v-8.89h-9.44c-1.73 0-4.44 0-4.44-3.36 0-3.27 2.7-3.27 4.33-3.27h9.55v-26.5c0-10.4 7.39-14.3 15.3-14.3 8.03 0 16.8 4.68 16.8 14.3" style=""/><path d="m953 1329c0 3.03-3.14 3.03-3.8 3.03-1.95 0-2.81-.31-3.58-2.38-2.39-5.54-8.25-6.51-11.3-6.51-8.14 0-16.3 5.42-18 14.8h32.3c2.28 0 4.34 0 4.34 4.01 0 12.4-6.94 23-21 23-12.9 0-23.3-10.9-23.3-24.2 0-13.2 11-24.2 25-24.2 14.3 0 19.4 9.77 19.4 12.5zm-7.7 15.4h-28.9c1.52 7.93 7.92 13.9 15.5 13.9 5.64 0 12.4-2.72 13.3-13.9" style=""/><path d="m1016 1320c0 3.38-2.28 3.38-6.18 3.38v26.2c0 2.17 0 14.5-9.66 14.5-3.25 0-7.7-1.42-10.7-5.64-1.62 3.69-4.67 5.64-8.25 5.64-3.47 0-6.72-1.53-9.33-3.9-.219 3.25-2.39 3.25-4.34 3.25h-3.47c-1.62 0-4.45 0-4.45-3.25 0-3.38 2.28-3.38 6.19-3.38v-33.5c-3.91 0-6.19 0-6.19-3.38 0-3.25 2.94-3.25 4.45-3.25h9.55c1.62 0 4.45 0 4.45 3.25 0 3.38-2.28 3.38-6.19 3.38v19.4c0 9.65 4.45 14.8 8.89 14.8 2.5 0 4.02-1.85 4.02-8.89v-25.3c-2.06 0-4.76 0-4.76-3.38 0-3.25 2.92-3.25 4.44-3.25h8.14c1.62 0 4.45 0 4.45 3.25 0 3.38-2.28 3.38-6.19 3.38v19.4c0 9.65 4.45 14.8 8.91 14.8 2.48 0 4.01-1.85 4.01-8.89v-25.3c-2.06 0-4.78 0-4.78-3.38 0-3.25 2.94-3.25 4.46-3.25h8.14c1.62 0 4.43 0 4.43 3.25" style=""/><path d="m1067 1331c0 11.3-14 13.6-17.5 14.1l-7.38 1.3c-3.14.44-10.5 1.73-10.5 5.97 0 2.83 3.47 6.19 13.8 6.19 9 0 10.5-3.25 10.8-6.08.11-1.85.33-3.69 3.69-3.69 3.8 0 3.8 2.28 3.8 4.45v7.49c0 1.73 0 4.45-3.25 4.45-2.61 0-3.05-1.53-3.27-2.28-4.76 2.28-9.55 2.28-11.6 2.28-18.1 0-20.6-8.91-20.6-12.8 0-9.99 11.4-11.8 21.4-13.4 5.31-.87 14-2.28 14-8.03 0-4.01-4.02-7.59-13.9-7.59-5.1 0-11.2 1.19-13.9 9.66-.55 1.95-.97 3.14-3.8 3.14-3.8 0-3.8-2.27-3.8-4.44v-10.5c0-1.74 0-4.46 3.25-4.46.99 0 2.72.11 4.02 4.13 5.33-3.91 11.1-4.13 14.1-4.13 17.1 0 20.6 9.02 20.6 14.2" style=""/><path d="m1147 1290c-5.22 5.2-19 19.2-19 54.2 0 6.07.33 18.8 4.78 31.6 4.46 12.6 10.6 19.1 14.2 22.7h-6.62c-3.47-3.25-10.8-9.88-15.7-23.2-4.34-11.6-5.09-23.1-5.09-31 0-35 15.6-49.5 20.8-54.2h6.62" style=""/><path d="m1191 1385v7.27c-1.32.33-4.68 1.2-8.69 1.2-10.2 0-18-7.7-18-18.6v-9.77h-8.03v-6.28h8.03v-41.9h8.14v41.9h11.9v6.28h-12.3v12.9c0 8.04 7.28 8.79 10.1 8.79 2.17 0 5.11-.22 8.8-1.85" style=""/><path d="m1238 1341c0 14.5-10.9 26.1-23.8 26.1-13.4 0-23.9-11.9-23.9-26.1 0-14.3 11.1-25.1 23.8-25.1 13 0 23.9 11 23.9 25.1zm-8.47 1.07c0-12.8-7.37-19.2-15.4-19.2-7.49 0-15.3 6.08-15.3 19.2 0 13.1 8.25 18.5 15.3 18.5 7.59 0 15.4-5.64 15.4-18.5" style=""/><path d="m1273 1359v7.29c-9.65-.11-15.6-5.44-19-10.4v9.88h-7.61v-48.8h8.14v23.2c0 10.9 7.81 18.7 18.4 18.9" style=""/><path d="m1365 1340c0 13.3-9.65 24-21.2 24-5.22 0-10.1-1.95-13.8-5.33 0 3.16-.22 4.68-4.35 4.68h-7.92c-1.73 0-4.45 0-4.45-3.36 0-3.27 2.83-3.27 4.34-3.27h4.89v-57.6h-4.78c-1.73 0-4.45 0-4.45-3.36 0-3.26 2.83-3.26 4.34-3.26h17.2c1.52 0 4.34 0 4.34 3.26 0 3.36-2.71 3.36-4.45 3.36h-4.76v22.4c4.43-4.55 9.11-5.54 12.6-5.54 11.8 0 22.4 10.3 22.4 24.1zm-7.48 0c0-10.4-7.59-17.5-15.2-17.5-8.46 0-12.2 9.55-12.2 14.8v7.92c0 6.41 6.29 12.2 13.1 12.2 8.03 0 14.3-7.92 14.3-17.4" style=""/><path d="m1425 1320c0 3.27-2.7 3.27-4.34 3.27-4.55 0-5.64.53-6.5.85v23.4c0 7.71-5.86 16.8-21.5 16.8-4.67 0-15.7 0-15.7-7.92 0-3.27 2.28-5 4.88-5 1.62 0 4.67.98 4.78 5 0 .86.11.97 2.28 1.19 1.51.11 2.92.11 3.9.11 8.24 0 13.9-3.36 13.9-11.1-19.2-.33-32.6-5.75-32.6-16.2 0-7.48 6.85-14.6 17.9-14.6 4.01 0 10.8.77 15.8 4.13 2.39-3.36 7.6-3.47 11.7-3.47 3.03 0 5.42 0 5.42 3.36zm-18.3 11.2c0-2.5 0-4.78-4.23-6.74-3.91-1.84-8.8-1.84-9.66-1.84-6.73 0-11.2 3.69-11.2 7.92 0 5.31 9.34 9.33 25.1 9.77v-9.11" style=""/><path d="m1482 1320c0 3.38-2.72 3.38-4.45 3.38h-4.78v25.2c0 11-5.53 15.6-14.1 15.6-7.27 0-12.1-3.69-14.2-5.75 0 3.47 0 5.1-4.35 5.1h-7.92c-1.73 0-4.45 0-4.45-3.36 0-3.27 2.83-3.27 4.34-3.27h4.89v-33.5h-4.78c-1.73 0-4.45 0-4.45-3.38 0-3.25 2.83-3.25 4.34-3.25h17.2c1.52 0 4.34 0 4.34 3.25 0 3.38-2.71 3.38-4.45 3.38h-4.76v19.2c0 10.8 8.03 15 13.6 15 5.75 0 7.26-3.03 7.26-9.55v-24.6h-4.23c-1.73 0-4.44 0-4.44-3.38 0-3.25 2.92-3.25 4.44-3.25h16.6c1.51 0 4.34 0 4.34 3.25" style=""/><path d="m1532 1320c0 3.38-2.83 3.38-4.46 3.38h-11.4v35.7c0 3.38-.65 4.46-4.34 4.46h-15.4c-1.62 0-4.45 0-4.45-3.25 0-3.38 2.83-3.38 4.45-3.38h12.3v-33.5h-13.1c-1.74 0-4.44 0-4.44-3.38 0-3.25 2.81-3.25 4.44-3.25h32c1.63 0 4.46 0 4.46 3.25zm-15.4 57c0 3.05-2.39 5.42-5.44 5.42-3.03 0-5.42-2.37-5.42-5.42 0-3.03 2.39-5.42 5.42-5.42 3.05 0 5.44 2.39 5.44 5.42" style=""/><path d="m1592 1329c0 3.03-3.14 3.03-3.79 3.03-1.74 0-2.83-.22-3.58-2.38-.66-1.42-2.72-6.51-10.8-6.51-9.22 0-17 7.59-17 17.5 0 5.2 3.04 17.7 17.7 17.7 2.29 0 6.52 0 6.52-.99.11-3.8 2.17-5.31 4.77-5.31s4.89 1.84 4.89 5c0 7.92-11.3 7.92-16.2 7.92-18.6 0-25.2-14.8-25.2-24.3 0-13 10.2-24.1 23.9-24.1 15.1 0 18.8 10.6 18.8 12.5" style=""/><path d="m1649 1303c0 3.8-3.8 3.8-5.09 3.8h-34.5c-1.29 0-5.09 0-5.09-3.8 0-3.79 3.8-3.79 5.09-3.79h34.5c1.29 0 5.09 0 5.09 3.79" style=""/><path d="m1702 1377c0 6.51-8.69 6.51-10.4 6.51-8.69 0-17-5-17-14.4v-5.75h-10.9c-1.73 0-4.44 0-4.44-3.36 0-3.27 2.71-3.27 4.33-3.27h11v-33.5h-11c-1.62 0-4.44 0-4.44-3.27 0-3.36 2.82-3.36 4.44-3.36h29.4c1.62 0 4.45 0 4.45 3.25 0 3.38-2.83 3.38-4.45 3.38h-11v33.5h13.2c1.62 0 4.34 0 4.34 3.27 0 3.36-2.61 3.36-4.34 3.36h-13.2v5.09c0 8.47 7.27 8.47 10.5 8.47 0-.44.97-4.67 4.77-4.67 2.17 0 4.67 1.75 4.67 4.78" style=""/><path d="m1769 1320c0 3.38-2.28 3.38-6.18 3.38v26.2c0 2.17 0 14.5-9.66 14.5-3.25 0-7.7-1.42-10.7-5.64-1.63 3.69-4.68 5.64-8.25 5.64-3.47 0-6.72-1.53-9.33-3.9-.22 3.25-2.39 3.25-4.35 3.25h-3.46c-1.63 0-4.46 0-4.46-3.25 0-3.38 2.28-3.38 6.19-3.38v-33.5c-3.91 0-6.19 0-6.19-3.38 0-3.25 2.94-3.25 4.46-3.25h9.54c1.63 0 4.46 0 4.46 3.25 0 3.38-2.29 3.38-6.19 3.38v19.4c0 9.65 4.45 14.8 8.89 14.8 2.5 0 4.01-1.85 4.01-8.89v-25.3c-2.06 0-4.76 0-4.76-3.38 0-3.25 2.92-3.25 4.44-3.25h8.14c1.62 0 4.45 0 4.45 3.25 0 3.38-2.28 3.38-6.19 3.38v19.4c0 9.65 4.46 14.8 8.91 14.8 2.48 0 4.01-1.85 4.01-8.89v-25.3c-2.06 0-4.78 0-4.78-3.38 0-3.25 2.94-3.25 4.46-3.25h8.14c1.62 0 4.43 0 4.43 3.25" style=""/><path d="m1819 1331c0 1.96 0 4.24-3.8 4.24-3.58 0-3.69-2.28-3.69-4.13-.1-6.73-6.29-7.81-8.79-7.81-8.35 0-8.35 5.64-8.35 8.36v25.8h17.8c1.63 0 4.33 0 4.33 3.27 0 3.36-2.59 3.36-4.33 3.36h-17.8v8.89c0 2.06 0 4.45-3.68 4.45-3.82 0-3.82-2.28-3.82-4.45v-8.89h-9.43c-1.74 0-4.44 0-4.44-3.36 0-3.27 2.7-3.27 4.33-3.27h9.54v-26.5c0-10.4 7.39-14.3 15.3-14.3 8.03 0 16.8 4.68 16.8 14.3" style=""/><path d="m1847 1317v8.89h-9v-9h2.7l-2.7-13.6h4.44l4.56 13.7" style=""/><path d="m1946 1341c0 13.5-7.38 25.2-17.6 25.2-4.23 0-11-1.1-17.5-6.41v32.3h-8.14v-75.3h8.47v4.98c2.61-2.37 7.27-6.17 14.6-6.17 10.8 0 20.2 10.8 20.2 25.4zm-8.45 0c0-14.1-9.13-18.8-15.7-18.8-4.23 0-7.81 1.96-10.5 6.96v24c1.73 2.61 5.64 6.41 11.6 6.41 6.41 0 14.7-4.67 14.7-18.6" style=""/><path d="m2000 1317v48.2h-8.47v-31.5c0-8.12-6.07-11.9-13-11.9-7.7 0-8.47 2.81-8.47 7.49v35.9h-8.47v-36.3c0-7.81 2.5-13 11.5-13 5.75 0 13.4 1.74 18.8 6.39v-5.2h8.14" style=""/><path d="m2043 1320-1.75 6.41c-2.81-2.28-6.28-3.58-9.76-3.58-4.02 0-5.54 3.25-5.54 9v27.1h15.3v6.28h-15.3v13.8h-7.48v-13.8h-9.44v-6.28h9.11v-29c0-6.5 1.52-14.1 9.02-14.1 7.59 0 13.1 2.71 15.8 4.11" style=""/><path d="m2126 1317v31.4c0 11.1-7.93 18.7-17.9 18.7-7.05 0-11.9-1.74-17-4.66l.65-7.17c5.64 4.01 11.1 5.44 16.4 5.44 5.11 0 9.45-4.35 9.45-12.4v-4.67c-16.3-.22-30.1-4.77-30.1-14.3 0-4.68 2.92-13.5 12.4-13.5 1.52 0 11.7.22 18 5.1v-3.91zm-8.46 14.3c0-2.06 0-4.78-3.7-6.85-3.14-1.95-7.27-2.06-8.45-2.06-5.22 0-10.1 2.5-10.1 7.06 0 7.6 17.6 8.35 22.2 8.57v-6.72" style=""/><path d="m2152 1317v75.3h-8.14v-75.3z" style=""/><path d="m2200 1331c0 5.97-4.01 9.66-4.23 9.99-4.24 3.79-7.16 4.43-12.6 5.42-5.97 1.18-11 2.28-11 7.59 0 6.74 7.81 6.74 9.22 6.74 3.48 0 9.23-.44 15.4-4.13l1.3 7.05c-5.64 2.61-10.1 3.47-15.6 3.47-2.71 0-18 0-18-14.2 0-5.33 3.15-8.79 5.86-10.9 3.36-2.39 5.75-2.81 11.7-4.01 3.9-.75 10.2-2.06 10.2-7.81 0-7.49-8.58-7.49-10.2-7.49-8.78 0-14.9 4.02-16.8 5.31l-1.31-7.37c3.49-1.74 9.45-4.77 18.2-4.77 1.95 0 7.92 0 12.6 3.47 3.36 2.6 5.2 6.94 5.2 11.6" style=""/><path d="m2254 1341c0 14.5-10.9 26.1-23.8 26.1-13.4 0-23.9-11.9-23.9-26.1 0-14.3 11.1-25.1 23.8-25.1 13 0 23.9 11 23.9 25.1zm-8.47 1.07c0-12.8-7.37-19.2-15.4-19.2-7.49 0-15.3 6.08-15.3 19.2 0 13.1 8.25 18.5 15.3 18.5 7.59 0 15.4-5.64 15.4-18.5" style=""/><path d="m2332 1331c0 5.97-4.01 9.66-4.23 9.99-4.24 3.79-7.16 4.43-12.6 5.42-5.97 1.18-11 2.28-11 7.59 0 6.74 7.81 6.74 9.22 6.74 3.48 0 9.23-.44 15.4-4.13l1.3 7.05c-5.64 2.61-10.1 3.47-15.6 3.47-2.71 0-18 0-18-14.2 0-5.33 3.15-8.79 5.86-10.9 3.36-2.39 5.75-2.81 11.7-4.01 3.9-.75 10.2-2.06 10.2-7.81 0-7.49-8.58-7.49-10.2-7.49-8.78 0-14.9 4.02-16.8 5.31l-1.31-7.37c3.49-1.74 9.45-4.77 18.2-4.77 1.95 0 7.92 0 12.6 3.47 3.36 2.6 5.2 6.94 5.2 11.6" style=""/><path d="m2386 1341c0 14.5-10.9 26.1-23.8 26.1-13.4 0-23.9-11.9-23.9-26.1 0-14.3 11.1-25.1 23.8-25.1 13 0 23.9 11 23.9 25.1zm-8.47 1.07c0-12.8-7.37-19.2-15.4-19.2-7.49 0-15.3 6.08-15.3 19.2 0 13.1 8.25 18.5 15.3 18.5 7.59 0 15.4-5.64 15.4-18.5" style=""/><path d="m2467 1317v32.3c0 7.28-1.73 17-14.9 17-6.52 0-12.2-3.05-16.2-8.91-2.81 8.25-10.4 8.91-13.9 8.91-7.81 0-12.9-4.46-15.8-8.36v7.81h-7.81v-48.8h8.47v26.6c0 7.39 2.94 16.2 11 16.2 10.1 0 10.6-7.05 10.6-11.2v-31.6h8.47v26.6c0 7.39 2.92 16.2 11 16.2 10.1 0 10.6-7.05 10.6-11.2v-31.6h8.45" style=""/><path d="m2521 1341c0 3.68-.11 11.8-4.34 18.3-4.45 6.74-11.1 7.93-15 7.93-12 0-21.8-11.5-21.8-25.5 0-14.3 10.4-25.7 23.4-25.7 6.85 0 13 2.6 17.2 5.64l-.64 7.05c-6.84-5.64-14-6.08-16.5-6.08-8.68 0-15.6 7.71-16 18.4zm-6.19 5.96h-26.8c1.73 8.25 7.48 13.7 13.7 13.7 5.64 0 11.7-3.69 13.1-13.7" style=""/><path d="m2561 1320-1.75 6.41c-2.81-2.28-6.28-3.58-9.76-3.58-4.02 0-5.54 3.25-5.54 9v27.1h15.3v6.28h-15.3v13.8h-7.48v-13.8h-9.44v-6.28h9.11v-29c0-6.5 1.52-14.1 9.02-14.1 7.59 0 13.1 2.71 15.8 4.11" style=""/><path d="m2581 1317v48.2h-8.14v-48.2zm.88 61.4v9.66h-9.66v-9.66z" style=""/><path d="m2667 1317v32.3c0 7.28-1.73 17-14.9 17-6.52 0-12.2-3.05-16.2-8.91-2.81 8.25-10.4 8.91-13.9 8.91-7.81 0-12.9-4.46-15.8-8.36v7.81h-7.81v-48.8h8.47v26.6c0 7.39 2.94 16.2 11 16.2 10.1 0 10.6-7.05 10.6-11.2v-31.6h8.47v26.6c0 7.39 2.92 16.2 11 16.2 10.1 0 10.6-7.05 10.6-11.2v-31.6h8.45" style=""/><path d="m2722 1341c0 3.68-.11 11.8-4.34 18.3-4.45 6.74-11.1 7.93-15 7.93-12 0-21.8-11.5-21.8-25.5 0-14.3 10.4-25.7 23.4-25.7 6.85 0 13 2.6 17.2 5.64l-.64 7.05c-6.84-5.64-14-6.08-16.5-6.08-8.68 0-15.6 7.71-16 18.4zm-6.19 5.96h-26.8c1.73 8.25 7.48 13.7 13.7 13.7 5.64 0 11.7-3.69 13.1-13.7" style=""/><path d="m2764 1331c0 5.97-4.01 9.66-4.23 9.99-4.24 3.79-7.16 4.43-12.6 5.42-5.97 1.18-11 2.28-11 7.59 0 6.74 7.81 6.74 9.22 6.74 3.48 0 9.23-.44 15.4-4.13l1.3 7.05c-5.64 2.61-10.1 3.47-15.6 3.47-2.71 0-18 0-18-14.2 0-5.33 3.15-8.79 5.86-10.9 3.36-2.39 5.75-2.81 11.7-4.01 3.9-.75 10.2-2.06 10.2-7.81 0-7.49-8.58-7.49-10.2-7.49-8.78 0-14.9 4.02-16.8 5.31l-1.31-7.37c3.49-1.74 9.45-4.77 18.2-4.77 1.95 0 7.92 0 12.6 3.47 3.36 2.6 5.2 6.94 5.2 11.6" style=""/><path d="m2853 1331c0 11.3-14 13.6-17.5 14.1l-7.38 1.3c-3.14.44-10.5 1.73-10.5 5.97 0 2.83 3.47 6.19 13.8 6.19 9 0 10.5-3.25 10.8-6.08.11-1.85.33-3.69 3.69-3.69 3.8 0 3.8 2.28 3.8 4.45v7.49c0 1.73 0 4.45-3.25 4.45-2.61 0-3.05-1.53-3.27-2.28-4.76 2.28-9.55 2.28-11.6 2.28-18.1 0-20.6-8.91-20.6-12.8 0-9.99 11.4-11.8 21.4-13.4 5.31-.87 14-2.28 14-8.03 0-4.01-4.02-7.59-13.9-7.59-5.1 0-11.2 1.19-13.9 9.66-.55 1.95-.97 3.14-3.8 3.14-3.8 0-3.8-2.27-3.8-4.44v-10.5c0-1.74 0-4.46 3.25-4.46.99 0 2.72.11 4.02 4.13 5.33-3.91 11.1-4.13 14.1-4.13 17.1 0 20.6 9.02 20.6 14.2" style=""/><path d="m2910 1320c0 3.38-2.83 3.38-4.46 3.38h-11.4v35.7c0 3.38-.65 4.46-4.34 4.46h-15.4c-1.62 0-4.45 0-4.45-3.25 0-3.38 2.83-3.38 4.45-3.38h12.3v-33.5h-13.1c-1.74 0-4.44 0-4.44-3.38 0-3.25 2.81-3.25 4.44-3.25h32c1.63 0 4.46 0 4.46 3.25zm-15.4 57c0 3.05-2.39 5.42-5.44 5.42-3.03 0-5.42-2.37-5.42-5.42 0-3.03 2.39-5.42 5.42-5.42 3.05 0 5.44 2.39 5.44 5.42" style=""/><path d="m2970 1321v6.28c0 2.07 0 4.46-3.71 4.46-3.79 0-3.79-2.28-3.79-4.46v-4.1h-29.2l33.9 32.1c2.28 2.18 2.39 2.5 2.39 4.35 0 3.69-2.39 3.69-4.45 3.69h-36.9c-3.58 0-4.46-.88-4.46-4.46v-4.98c0-2.06 0-4.45 3.69-4.45 3.8 0 3.8 2.28 3.8 4.45v2.81h27l-33.9-32.1c-2.28-2.17-2.39-2.5-2.39-4.34 0-3.69 2.39-3.69 4.45-3.69h41.1c2.39.66 2.39 2.83 2.39 4.45" style=""/><path d="m3025 1329c0 3.03-3.14 3.03-3.79 3.03-1.96 0-2.82-.31-3.58-2.38-2.39-5.54-8.25-6.51-11.3-6.51-8.14 0-16.3 5.42-18 14.8h32.3c2.28 0 4.34 0 4.34 4.01 0 12.4-6.93 23-21 23-12.9 0-23.3-10.9-23.3-24.2 0-13.2 11-24.2 25-24.2 14.3 0 19.4 9.77 19.4 12.5zm-7.7 15.4h-28.9c1.52 7.93 7.92 13.9 15.5 13.9 5.64 0 12.4-2.72 13.3-13.9" style=""/><path d="m3089 1320c0 3.27-2.83 3.27-4.34 3.27h-4.89v55.2c0 3.38-.64 4.46-4.35 4.46h-7.9c-1.75 0-4.45 0-4.45-3.36 0-3.27 2.81-3.27 4.34-3.27h4.87v-17.1c-3.57 3.16-8.03 4.89-12.7 4.89-11.8 0-22.2-10.3-22.2-24.1 0-13.4 9.76-24 21.3-24 6.08 0 10.6 2.94 13.7 6.08 0-3.9 0-5.42 4.35-5.42h7.92c1.73 0 4.45 0 4.45 3.36zm-16.7 17.7c0-6.08-4.87-15.1-13.2-15.1-7.7 0-14.2 7.7-14.2 17.4 0 10.4 7.59 17.5 15.2 17.5 6.95 0 12.3-6.08 12.3-12v-7.7" style=""/><path d="m3110 1317v8.89h-9v-9h2.7l-2.7-13.6h4.44l4.56 13.7" style=""/><path d="m3207 1329c0 3.03-3.14 3.03-3.79 3.03-1.74 0-2.83-.22-3.58-2.38-.66-1.42-2.72-6.51-10.8-6.51-9.22 0-17 7.59-17 17.5 0 5.2 3.04 17.7 17.7 17.7 2.29 0 6.52 0 6.52-.99.11-3.8 2.17-5.31 4.77-5.31s4.89 1.84 4.89 5c0 7.92-11.3 7.92-16.2 7.92-18.6 0-25.2-14.8-25.2-24.3 0-13 10.2-24.1 23.9-24.1 15.1 0 18.8 10.6 18.8 12.5" style=""/><path d="m3265 1340c0 13.6-10.1 24.3-22.2 24.3s-22.2-10.8-22.2-24.3c0-13.8 10.3-24.1 22.2-24.1s22.2 10.4 22.2 24.1zm-7.48.76c0-10.1-6.74-18.2-14.8-18.2-8.01 0-14.8 8.14-14.8 18.2 0 9.88 7.05 16.9 14.8 16.9 7.81 0 14.8-7.05 14.8-16.9" style=""/><path d="m3324 1340c0 13.3-9.65 24-21.2 24-5.22 0-10.1-1.95-13.8-5.33 0 3.16-.22 4.68-4.35 4.68h-7.92c-1.73 0-4.45 0-4.45-3.36 0-3.27 2.83-3.27 4.34-3.27h4.89v-57.6h-4.78c-1.73 0-4.45 0-4.45-3.36 0-3.26 2.83-3.26 4.34-3.26h17.2c1.52 0 4.34 0 4.34 3.26 0 3.36-2.71 3.36-4.45 3.36h-4.76v22.4c4.43-4.55 9.11-5.54 12.6-5.54 11.8 0 22.4 10.3 22.4 24.1zm-7.48 0c0-10.4-7.59-17.5-15.2-17.5-8.46 0-12.2 9.55-12.2 14.8v7.92c0 6.41 6.29 12.2 13.1 12.2 8.03 0 14.3-7.92 14.3-17.4" style=""/><path d="m3382 1360c0 3.36-2.59 3.36-4.34 3.36h-12.7c-1.63 0-4.34 0-4.34-3.25 0-3.38 2.6-3.38 4.34-3.38h3.03l-7.81-23.1c-1.41-4.01-2.06-5.97-2.81-9.33h-.11c-.55 2.07-1.52 4.35-2.29 6.41l-10.1 26h2.72c1.62 0 4.34 0 4.34 3.27 0 3.36-2.61 3.36-4.34 3.36h-12.7c-1.74 0-4.33 0-4.33-3.36 0-3.27 2.7-3.27 4.33-3.27h3.37l15.4-38.7c.42-1.08.42-1.41.42-1.41s-2.7-9.11-4.11-11.8c-3.16-5.97-7.06-6.19-8.69-6.29 0 0 .55.98.55 2.39 0 2.71-1.95 4.67-4.67 4.67-2.92 0-4.77-1.96-4.77-4.78 0-4.57 3.69-8.89 9-8.89 10.8 0 15.7 14.3 16.2 15.5l16.8 49.4h3.25c1.64 0 4.34 0 4.34 3.27" style=""/><path d="m3406 1317v8.89h-9v-9h2.7l-2.7-13.6h4.44l4.56 13.7" style=""/><path d="m3497 1341c0 3.68-.11 11.8-4.34 18.3-4.45 6.74-11.1 7.93-15 7.93-12 0-21.8-11.5-21.8-25.5 0-14.3 10.4-25.7 23.4-25.7 6.85 0 13 2.6 17.2 5.64l-.64 7.05c-6.84-5.64-14-6.08-16.5-6.08-8.68 0-15.6 7.71-16 18.4zm-6.19 5.96h-26.8c1.73 8.25 7.48 13.7 13.7 13.7 5.64 0 11.7-3.69 13.1-13.7" style=""/><path d="m3537 1320-1.75 6.41c-2.81-2.28-6.28-3.58-9.76-3.58-4.02 0-5.54 3.25-5.54 9v27.1h15.3v6.28h-15.3v13.8h-7.48v-13.8h-9.44v-6.28h9.11v-29c0-6.5 1.52-14.1 9.02-14.1 7.59 0 13.1 2.71 15.8 4.11" style=""/><path d="m3585 1321-.65 7.27c-5.54-4.34-11.4-5.86-16.9-5.86-9 0-15.1 7.81-15.1 18.4 0 8.46 4.01 18.9 15.5 18.9 5.64 0 9.33-.88 15.3-4.78l1.29 7.06c-6.4 3.69-10.1 4.66-16.7 4.66-15.1 0-23.9-13.1-23.9-25.9 0-13.4 9.87-25.3 23.4-25.3 5.86 0 11.8 1.52 17.7 5.53" style=""/><path d="m3622 1344c0 35-15.6 49.5-20.8 54.2h-6.61c5.2-5.21 19-19.2 19-54.2 0-6.08-.33-18.8-4.76-31.6-4.46-12.6-10.6-19.1-14.2-22.7h6.61c3.48 3.25 10.8 9.87 15.7 23.2 4.35 11.6 5.11 23.1 5.11 31" style=""/><path d="m3651 1356v9h-9v-9zm0-39.1v8.89h-9v-9h2.7l-2.7-13.6h4.44l4.56 13.7" style=""/></g><g style="clip-path:url(#c)"><path d="m396 1154h51.3v51.3h-51.3z" style="fill:url(#g)"/></g><g style="fill:#fff"><path d="m558 1155c0 3.27-2.7 3.27-4.34 3.27-4.55 0-5.64.53-6.5.85v23.4c0 7.71-5.86 16.8-21.5 16.8-4.67 0-15.7 0-15.7-7.92 0-3.27 2.28-5 4.88-5 1.62 0 4.67.98 4.78 5 0 .86.11.97 2.28 1.19 1.52.11 2.92.11 3.91.11 8.23 0 13.9-3.36 13.9-11.1-19.2-.33-32.6-5.75-32.6-16.2 0-7.48 6.84-14.6 17.9-14.6 4.02 0 10.8.77 15.8 4.13 2.39-3.36 7.59-3.47 11.7-3.47 3.03 0 5.42 0 5.42 3.36zm-18.3 11.2c0-2.5 0-4.78-4.23-6.74-3.91-1.84-8.8-1.84-9.66-1.84-6.74 0-11.2 3.69-11.2 7.92 0 5.31 9.34 9.33 25.1 9.77v-9.11" style=""/><path d="m609 1166c0 11.3-14 13.6-17.5 14.1l-7.38 1.3c-3.14.44-10.5 1.73-10.5 5.97 0 2.83 3.47 6.19 13.8 6.19 9 0 10.5-3.25 10.8-6.08.109-1.85.328-3.69 3.69-3.69 3.8 0 3.8 2.28 3.8 4.45v7.49c0 1.73 0 4.45-3.25 4.45-2.61 0-3.05-1.53-3.27-2.28-4.76 2.28-9.55 2.28-11.6 2.28-18.1 0-20.6-8.91-20.6-12.8 0-9.99 11.4-11.8 21.4-13.4 5.31-.87 14-2.28 14-8.03 0-4.01-4.02-7.59-13.9-7.59-5.09 0-11.2 1.19-13.9 9.66-.547 1.95-.968 3.14-3.8 3.14-3.8 0-3.8-2.27-3.8-4.44v-10.5c0-1.74 0-4.46 3.25-4.46.984 0 2.72.11 4.02 4.13 5.33-3.91 11.1-4.13 14.1-4.13 17.1 0 20.6 9.02 20.6 14.2" style=""/><path d="m672 1155c0 3.38-2.28 3.38-6.19 3.38v26.2c0 2.17 0 14.5-9.66 14.5-3.25 0-7.7-1.42-10.7-5.64-1.62 3.69-4.67 5.64-8.25 5.64-3.47 0-6.72-1.53-9.33-3.9-.219 3.25-2.39 3.25-4.34 3.25h-3.47c-1.62 0-4.45 0-4.45-3.25 0-3.38 2.28-3.38 6.19-3.38v-33.5c-3.91 0-6.19 0-6.19-3.38 0-3.25 2.94-3.25 4.45-3.25h9.55c1.62 0 4.45 0 4.45 3.25 0 3.38-2.28 3.38-6.19 3.38v19.4c0 9.65 4.45 14.8 8.89 14.8 2.5 0 4.02-1.85 4.02-8.89v-25.3c-2.06 0-4.76 0-4.76-3.38 0-3.25 2.92-3.25 4.44-3.25h8.14c1.62 0 4.45 0 4.45 3.25 0 3.38-2.28 3.38-6.19 3.38v19.4c0 9.65 4.45 14.8 8.91 14.8 2.48 0 4.02-1.85 4.02-8.89v-25.3c-2.06 0-4.78 0-4.78-3.38 0-3.25 2.94-3.25 4.45-3.25h8.14c1.62 0 4.44 0 4.44 3.25" style=""/><path d="m693 1152v8.89h-9v-9h2.7l-2.7-13.6h4.44l4.56 13.7" style=""/><path d="m791 1164c0 3.03-3.14 3.03-3.8 3.03-1.74 0-2.83-.22-3.58-2.38-.657-1.42-2.72-6.51-10.8-6.51-9.22 0-17 7.59-17 17.5 0 5.2 3.05 17.7 17.7 17.7 2.28 0 6.52 0 6.52-.99.11-3.8 2.17-5.31 4.77-5.31 2.61 0 4.89 1.84 4.89 5 0 7.92-11.3 7.92-16.2 7.92-18.7 0-25.2-14.8-25.2-24.3 0-13 10.2-24.1 23.9-24.1 15.1 0 18.8 10.6 18.8 12.5" style=""/><path d="m848 1175c0 13.6-10.1 24.3-22.2 24.3s-22.2-10.8-22.2-24.3c0-13.8 10.3-24.1 22.2-24.1s22.2 10.4 22.2 24.1zm-7.48.76c0-10.1-6.74-18.2-14.8-18.2-8.02 0-14.8 8.14-14.8 18.2 0 9.88 7.05 16.9 14.8 16.9 7.81 0 14.8-7.05 14.8-16.9" style=""/><path d="m908 1193c0 2.17-1.3 6.73-10.3 6.73-5.53 0-12.5-1.95-18.4-8.79v3.68c0 3.38-.656 4.46-4.34 4.46h-11.9c-1.62 0-4.34 0-4.34-3.25 0-3.38 2.61-3.38 4.34-3.38h8.78v-33.5h-8.78c-1.62 0-4.34 0-4.34-3.27 0-3.36 2.61-3.36 4.34-3.36h28.3c1.64 0 4.45 0 4.45 3.25 0 3.38-2.81 3.38-4.45 3.38h-12v13.6c0 10.2 6.39 20.6 19.5 20.6.109-2.61 1.95-4.77 4.66-4.77 2.39 0 4.56 1.74 4.56 4.66" style=""/><path d="m962 1164c0 3.03-3.14 3.03-3.8 3.03-1.95 0-2.81-.31-3.58-2.38-2.39-5.54-8.25-6.51-11.3-6.51-8.14 0-16.3 5.42-18 14.8h32.3c2.28 0 4.34 0 4.34 4.01 0 12.4-6.94 23-21 23-12.9 0-23.3-10.9-23.3-24.2 0-13.2 11-24.2 25-24.2 14.3 0 19.4 9.77 19.4 12.5zm-7.7 15.4h-28.9c1.52 7.93 7.92 13.9 15.5 13.9 5.64 0 12.4-2.72 13.3-13.9" style=""/><path d="m1020 1138c0 3.8-3.8 3.8-5.09 3.8h-34.5c-1.3 0-5.09 0-5.09-3.8 0-3.79 3.8-3.79 5.09-3.79h34.5c1.29 0 5.09 0 5.09 3.79" style=""/><path d="m1075 1155c0 3.38-2.83 3.38-4.46 3.38h-11.4v35.7c0 3.38-.65 4.46-4.34 4.46h-15.4c-1.62 0-4.45 0-4.45-3.25 0-3.38 2.83-3.38 4.45-3.38h12.3v-33.5h-13.1c-1.74 0-4.44 0-4.44-3.38 0-3.25 2.81-3.25 4.44-3.25h32c1.63 0 4.46 0 4.46 3.25zm-15.4 57c0 3.05-2.39 5.42-5.44 5.42-3.03 0-5.42-2.37-5.42-5.42 0-3.03 2.39-5.42 5.42-5.42 3.05 0 5.44 2.39 5.44 5.42" style=""/><path d="m1140 1155c0 3.38-2.72 3.38-4.45 3.38h-4.78v25.2c0 11-5.53 15.6-14.1 15.6-7.27 0-12.1-3.69-14.2-5.75 0 3.47 0 5.1-4.35 5.1h-7.92c-1.73 0-4.45 0-4.45-3.36 0-3.27 2.83-3.27 4.34-3.27h4.89v-33.5h-4.78c-1.73 0-4.45 0-4.45-3.38 0-3.25 2.83-3.25 4.34-3.25h17.2c1.52 0 4.34 0 4.34 3.25 0 3.38-2.71 3.38-4.45 3.38h-4.76v19.2c0 10.8 8.03 15 13.6 15 5.75 0 7.26-3.03 7.26-9.55v-24.6h-4.23c-1.73 0-4.44 0-4.44-3.38 0-3.25 2.92-3.25 4.44-3.25h16.6c1.51 0 4.34 0 4.34 3.25" style=""/><path d="m1190 1166c0 1.96 0 4.24-3.8 4.24-3.58 0-3.69-2.28-3.69-4.13-.1-6.73-6.29-7.81-8.79-7.81-8.35 0-8.35 5.64-8.35 8.36v25.8h17.8c1.63 0 4.33 0 4.33 3.27 0 3.36-2.59 3.36-4.33 3.36h-17.8v8.89c0 2.06 0 4.45-3.68 4.45-3.82 0-3.82-2.28-3.82-4.45v-8.89h-9.43c-1.74 0-4.44 0-4.44-3.36 0-3.27 2.7-3.27 4.33-3.27h9.54v-26.5c0-10.4 7.39-14.3 15.3-14.3 8.03 0 16.8 4.68 16.8 14.3" style=""/><path d="m1251 1193c0 2.17-1.29 6.73-10.3 6.73-5.53 0-12.5-1.95-18.4-8.79v3.68c0 3.38-.65 4.46-4.34 4.46h-11.9c-1.62 0-4.34 0-4.34-3.25 0-3.38 2.61-3.38 4.34-3.38h8.78v-33.5h-8.78c-1.62 0-4.34 0-4.34-3.27 0-3.36 2.61-3.36 4.34-3.36h28.3c1.64 0 4.45 0 4.45 3.25 0 3.38-2.81 3.38-4.45 3.38h-12v13.6c0 10.2 6.39 20.6 19.5 20.6.1-2.61 1.95-4.77 4.65-4.77 2.39 0 4.56 1.74 4.56 4.66" style=""/><path d="m1305 1155c0 3.38-2.83 3.38-4.46 3.38h-11.4v35.7c0 3.38-.65 4.46-4.34 4.46h-15.4c-1.62 0-4.45 0-4.45-3.25 0-3.38 2.83-3.38 4.45-3.38h12.3v-33.5h-13.1c-1.74 0-4.44 0-4.44-3.38 0-3.25 2.81-3.25 4.44-3.25h32c1.63 0 4.46 0 4.46 3.25zm-15.4 57c0 3.05-2.39 5.42-5.44 5.42-3.03 0-5.42-2.37-5.42-5.42 0-3.03 2.39-5.42 5.42-5.42 3.05 0 5.44 2.39 5.44 5.42" style=""/><path d="m1369 1155c0 3.38-2.72 3.38-4.45 3.38h-4.78v25.2c0 11-5.53 15.6-14.1 15.6-7.27 0-12.1-3.69-14.2-5.75 0 3.47 0 5.1-4.35 5.1h-7.92c-1.73 0-4.45 0-4.45-3.36 0-3.27 2.83-3.27 4.34-3.27h4.89v-33.5h-4.78c-1.73 0-4.45 0-4.45-3.38 0-3.25 2.83-3.25 4.34-3.25h17.2c1.52 0 4.34 0 4.34 3.25 0 3.38-2.71 3.38-4.45 3.38h-4.76v19.2c0 10.8 8.03 15 13.6 15 5.75 0 7.26-3.03 7.26-9.55v-24.6h-4.23c-1.73 0-4.44 0-4.44-3.38 0-3.25 2.92-3.25 4.44-3.25h16.6c1.51 0 4.34 0 4.34 3.25" style=""/><path d="m1419 1155c0 3.38-2.83 3.38-4.46 3.38h-11.4v35.7c0 3.38-.65 4.46-4.34 4.46h-15.4c-1.62 0-4.45 0-4.45-3.25 0-3.38 2.83-3.38 4.45-3.38h12.3v-33.5h-13.1c-1.74 0-4.44 0-4.44-3.38 0-3.25 2.81-3.25 4.44-3.25h32c1.63 0 4.46 0 4.46 3.25zm-15.4 57c0 3.05-2.39 5.42-5.44 5.42-3.03 0-5.42-2.37-5.42-5.42 0-3.03 2.39-5.42 5.42-5.42 3.05 0 5.44 2.39 5.44 5.42" style=""/><path d="m1477 1166c0 11.3-14 13.6-17.5 14.1l-7.38 1.3c-3.14.44-10.5 1.73-10.5 5.97 0 2.83 3.47 6.19 13.8 6.19 9 0 10.5-3.25 10.8-6.08.11-1.85.33-3.69 3.69-3.69 3.8 0 3.8 2.28 3.8 4.45v7.49c0 1.73 0 4.45-3.25 4.45-2.61 0-3.05-1.53-3.27-2.28-4.76 2.28-9.55 2.28-11.6 2.28-18.1 0-20.6-8.91-20.6-12.8 0-9.99 11.4-11.8 21.4-13.4 5.31-.87 14-2.28 14-8.03 0-4.01-4.02-7.59-13.9-7.59-5.1 0-11.2 1.19-13.9 9.66-.55 1.95-.97 3.14-3.8 3.14-3.8 0-3.8-2.27-3.8-4.44v-10.5c0-1.74 0-4.46 3.25-4.46.99 0 2.72.11 4.02 4.13 5.33-3.91 11.1-4.13 14.1-4.13 17.1 0 20.6 9.02 20.6 14.2" style=""/><path d="m1534 1155c0 3.38-2.83 3.38-4.46 3.38h-11.4v35.7c0 3.38-.65 4.46-4.34 4.46h-15.4c-1.62 0-4.45 0-4.45-3.25 0-3.38 2.83-3.38 4.45-3.38h12.3v-33.5h-13.1c-1.74 0-4.44 0-4.44-3.38 0-3.25 2.81-3.25 4.44-3.25h32c1.63 0 4.46 0 4.46 3.25zm-15.4 57c0 3.05-2.39 5.42-5.44 5.42-3.03 0-5.42-2.37-5.42-5.42 0-3.03 2.39-5.42 5.42-5.42 3.05 0 5.44 2.39 5.44 5.42" style=""/><path d="m1593 1164c0 3.03-3.14 3.03-3.79 3.03-1.74 0-2.83-.22-3.58-2.38-.66-1.42-2.72-6.51-10.8-6.51-9.22 0-17 7.59-17 17.5 0 5.2 3.04 17.7 17.7 17.7 2.29 0 6.52 0 6.52-.99.11-3.8 2.17-5.31 4.77-5.31s4.89 1.84 4.89 5c0 7.92-11.3 7.92-16.2 7.92-18.6 0-25.2-14.8-25.2-24.3 0-13 10.2-24.1 23.9-24.1 15.1 0 18.8 10.6 18.8 12.5" style=""/><path d="m1649 1166c0 11.3-14 13.6-17.5 14.1l-7.38 1.3c-3.14.44-10.5 1.73-10.5 5.97 0 2.83 3.47 6.19 13.8 6.19 9 0 10.5-3.25 10.8-6.08.11-1.85.33-3.69 3.69-3.69 3.8 0 3.8 2.28 3.8 4.45v7.49c0 1.73 0 4.45-3.25 4.45-2.61 0-3.05-1.53-3.27-2.28-4.76 2.28-9.55 2.28-11.6 2.28-18.1 0-20.6-8.91-20.6-12.8 0-9.99 11.4-11.8 21.4-13.4 5.31-.87 14-2.28 14-8.03 0-4.01-4.02-7.59-13.9-7.59-5.1 0-11.2 1.19-13.9 9.66-.55 1.95-.97 3.14-3.8 3.14-3.8 0-3.8-2.27-3.8-4.44v-10.5c0-1.74 0-4.46 3.25-4.46.99 0 2.72.11 4.02 4.13 5.33-3.91 11.1-4.13 14.1-4.13 17.1 0 20.6 9.02 20.6 14.2" style=""/><path d="m1676 1191v9h-9v-9zm0-39.1v8.89h-9v-9h2.7l-2.7-13.6h4.44l4.56 13.7" style=""/></g><g style="clip-path:url(#d)"><path d="m396 989h51.3v51.3h-51.3z" style="fill:url(#h)"/></g><g style="fill:#fff"><path d="m552 1000c0 11.3-14 13.6-17.5 14.1l-7.38 1.3c-3.14.44-10.5 1.73-10.5 5.97 0 2.83 3.47 6.19 13.8 6.19 9 0 10.5-3.25 10.8-6.08.109-1.85.328-3.69 3.69-3.69 3.8 0 3.8 2.28 3.8 4.45v7.49c0 1.73 0 4.45-3.25 4.45-2.61 0-3.05-1.53-3.27-2.28-4.76 2.28-9.55 2.28-11.6 2.28-18.1 0-20.6-8.91-20.6-12.8 0-9.99 11.4-11.8 21.4-13.4 5.31-.87 14-2.28 14-8.03 0-4.01-4.02-7.59-13.9-7.59-5.09 0-11.2 1.19-13.9 9.66-.547 1.95-.968 3.14-3.8 3.14-3.8 0-3.8-2.27-3.8-4.44v-10.5c0-1.73 0-4.45 3.25-4.45.984 0 2.72.109 4.02 4.12 5.33-3.91 11.1-4.12 14.1-4.12 17.1 0 20.6 9.02 20.6 14.2" style=""/><path d="m608 1000c0 1.96 0 4.24-3.8 4.24-3.58 0-3.69-2.28-3.69-4.13-.109-6.73-6.3-7.81-8.8-7.81-8.34 0-8.34 5.64-8.34 8.36v25.8h17.8c1.62 0 4.33 0 4.33 3.27 0 3.36-2.59 3.36-4.33 3.36h-17.8v8.89c0 2.06 0 4.45-3.69 4.45-3.81 0-3.81-2.28-3.81-4.45v-8.89h-9.44c-1.73 0-4.44 0-4.44-3.36 0-3.27 2.7-3.27 4.33-3.27h9.55v-26.5c0-10.4 7.39-14.3 15.3-14.3 8.03 0 16.8 4.67 16.8 14.3" style=""/><path d="m672 990c0 3.27-2.7 3.27-4.34 3.27-4.55 0-5.64.531-6.5.859v23.4c0 7.71-5.86 16.8-21.5 16.8-4.67 0-15.7 0-15.7-7.92 0-3.27 2.28-5 4.88-5 1.62 0 4.67.98 4.78 5 0 .86.11.97 2.28 1.19 1.52.11 2.92.11 3.91.11 8.23 0 13.9-3.36 13.9-11.1-19.2-.33-32.6-5.75-32.6-16.2 0-7.48 6.84-14.5 17.9-14.5 4.02 0 10.8.765 15.8 4.12 2.39-3.36 7.59-3.47 11.7-3.47 3.03 0 5.42 0 5.42 3.36zm-18.3 11.2c0-2.5 0-4.78-4.23-6.74-3.91-1.84-8.8-1.84-9.66-1.84-6.74 0-11.2 3.69-11.2 7.92 0 5.31 9.34 9.33 25.1 9.77v-9.11" style=""/><path d="m726 1028c0 2.17-1.3 6.73-10.3 6.73-5.53 0-12.5-1.95-18.4-8.79v3.68c0 3.38-.656 4.46-4.34 4.46h-11.9c-1.62 0-4.34 0-4.34-3.25 0-3.38 2.61-3.38 4.34-3.38h8.78v-33.5h-8.78c-1.62 0-4.34 0-4.34-3.27 0-3.36 2.61-3.36 4.34-3.36h28.3c1.64 0 4.45 0 4.45 3.25 0 3.38-2.81 3.38-4.45 3.38h-12v13.6c0 10.2 6.39 20.6 19.5 20.6.109-2.61 1.95-4.77 4.66-4.77 2.39 0 4.56 1.74 4.56 4.66" style=""/><path d="m780 1000c0 1.96 0 4.24-3.8 4.24-3.58 0-3.69-2.28-3.69-4.13-.109-6.73-6.3-7.81-8.8-7.81-8.34 0-8.34 5.64-8.34 8.36v25.8h17.8c1.62 0 4.33 0 4.33 3.27 0 3.36-2.59 3.36-4.33 3.36h-17.8v8.89c0 2.06 0 4.45-3.69 4.45-3.81 0-3.81-2.28-3.81-4.45v-8.89h-9.44c-1.73 0-4.44 0-4.44-3.36 0-3.27 2.7-3.27 4.33-3.27h9.55v-26.5c0-10.4 7.39-14.3 15.3-14.3 8.03 0 16.8 4.67 16.8 14.3" style=""/><path d="m808 1026v9h-9v-9zm0-39.1v8.89h-9v-9h2.7l-2.7-13.6h4.44l4.56 13.7" style=""/></g><g style="clip-path:url(#e)"><path d="m396 823h51.3v51.3h-51.3z" style="fill:url(#i)"/></g><g style="fill:#fff"><path d="m553 824c0 3.38-2.61 3.38-4.34 3.38h-14.1v55.2c0 3.38-.641 4.45-4.33 4.45h-17.2c-1.73 0-4.44 0-4.44-3.36 0-3.27 2.81-3.27 4.34-3.27h14.1v-53h-14c-1.73 0-4.44 0-4.44-3.38 0-3.25 2.81-3.25 4.34-3.25h35.7c1.62 0 4.34 0 4.34 3.25" style=""/><path d="m608 824c0 3.38-2.83 3.38-4.45 3.38h-11.4v35.7c0 3.38-.656 4.45-4.34 4.45h-15.4c-1.62 0-4.45 0-4.45-3.25 0-3.38 2.83-3.38 4.45-3.38h12.3v-33.5h-13.1c-1.73 0-4.44 0-4.44-3.38 0-3.25 2.81-3.25 4.44-3.25h32c1.62 0 4.45 0 4.45 3.25zm-15.4 57c0 3.05-2.39 5.42-5.44 5.42-3.03 0-5.42-2.38-5.42-5.42 0-3.03 2.39-5.42 5.42-5.42 3.05 0 5.44 2.39 5.44 5.42" style=""/><path d="m672 824c0 3.38-2.72 3.38-4.45 3.38h-4.78v25.2c0 11-5.53 15.6-14.1 15.6-7.27 0-12.1-3.69-14.2-5.75 0 3.47 0 5.09-4.34 5.09h-7.92c-1.73 0-4.45 0-4.45-3.36 0-3.26 2.83-3.26 4.34-3.26h4.89v-33.5h-4.78c-1.73 0-4.45 0-4.45-3.38 0-3.25 2.83-3.25 4.34-3.25h17.2c1.52 0 4.34 0 4.34 3.25 0 3.38-2.72 3.38-4.45 3.38h-4.76v19.2c0 10.8 8.03 15 13.6 15 5.75 0 7.27-3.03 7.27-9.55v-24.6h-4.24c-1.73 0-4.44 0-4.44-3.38 0-3.25 2.92-3.25 4.44-3.25h16.6c1.52 0 4.34 0 4.34 3.25" style=""/><path d="m728 824c0 3.38-2.83 3.38-4.45 3.38h-3.36l-16.2 21 13.3 12.5h3.8c1.62 0 4.45 0 4.45 3.26 0 3.36-2.83 3.36-4.45 3.36h-16.7c-1.73 0-4.34 0-4.34-3.36 0-3.26 2.72-3.26 4.34-3.26h4.02l-17.6-16.5v38.2c0 3.38-.657 4.45-4.34 4.45h-7.05c-1.64 0-4.34 0-4.34-3.25 0-3.38 2.59-3.38 4.34-3.38h5.31v-53h-5.31c-1.64 0-4.34 0-4.34-3.27 0-3.36 2.59-3.36 4.34-3.36h16.7c1.62 0 4.34 0 4.34 3.25 0 3.38-2.61 3.38-4.34 3.38h-5.31v8.78l8.67 8.03 12.9-16.8c-3.91 0-6.08 0-6.08-3.38 0-3.25 2.7-3.25 4.34-3.25h12.8c1.62 0 4.45 0 4.45 3.25" style=""/><path d="m787 824c0 3.27-2.7 3.27-4.34 3.27-4.55 0-5.64.531-6.5.859v23.4c0 7.7-5.86 16.8-21.5 16.8-4.67 0-15.7 0-15.7-7.92 0-3.26 2.28-5 4.88-5 1.62 0 4.67.985 4.78 5 0 .86.11.969 2.28 1.19 1.52.109 2.92.109 3.91.109 8.23 0 13.9-3.36 13.9-11.1-19.2-.329-32.6-5.75-32.6-16.2 0-7.48 6.84-14.5 17.9-14.5 4.02 0 10.8.765 15.8 4.12 2.39-3.36 7.59-3.47 11.7-3.47 3.03 0 5.42 0 5.42 3.36zm-18.3 11.2c0-2.5 0-4.78-4.23-6.73-3.91-1.84-8.8-1.84-9.66-1.84-6.74 0-11.2 3.69-11.2 7.92 0 5.31 9.34 9.33 25.1 9.76v-9.11" style=""/><path d="m843 863c0 2.5-2.06 5.86-7.92 5.86-1.2 0-6.52-.109-11.5-3.8-1.74 1.2-5.55 3.27-10.5 3.27-10.2 0-17.9-8.14-17.9-17.4 0-4.67 1.84-8.25 3.47-10.3-1.19-1.73-2.16-4.12-2.16-7.38 0-3.8 1.52-6.52 2.48-7.81-8.03-4.89-8.03-12.3-8.03-13.5 0-9.34 11.4-16 25.3-16s25.3 6.72 25.3 16c0 4.02-1.95 9.44-7.48 12.4-1.41.765-5.97 3.16-15.7 3.16h-7.59c-.86 0-2.28 0-3.14.203-1.62 0-2.28 0-3.58 1.53-1.2 1.52-1.31 3.91-1.31 3.91 0 .422.219 1.95.657 3.03.328-.219 4.45-2.7 9.76-2.7 9.98 0 17.9 7.81 17.9 17.5 0 3.25-.985 6.39-2.83 9.44 2.28 1.3 4.89 1.73 6.3 1.84.657-2.94 3.14-3.69 4.24-3.69 1.84 0 4.34 1.3 4.34 4.44zm-19.5-12c0-6.19-4.78-11-10.4-11-5.86 0-10.4 5.11-10.4 10.9 0 6.17 4.78 11 10.4 11 5.86 0 10.4-5.09 10.4-10.8zm11.7-39c0-4.78-8.14-9.45-19-9.45-10.8 0-19 4.67-19 9.45 0 1.95.984 5.42 4.45 7.59 2.7 1.74 3.69 1.74 11.6 1.74 9.66 0 21.9 0 21.9-9.33" style=""/><path d="m895 833c0 3.03-3.14 3.03-3.8 3.03-1.95 0-2.81-.312-3.58-2.38-2.39-5.55-8.25-6.52-11.3-6.52-8.14 0-16.3 5.42-18 14.8h32.3c2.28 0 4.34 0 4.34 4.02 0 12.4-6.94 23-21 23-12.9 0-23.3-10.9-23.3-24.2 0-13.2 11-24.2 25-24.2 14.3 0 19.4 9.76 19.4 12.5zm-7.7 15.4h-28.9c1.52 7.92 7.92 13.9 15.5 13.9 5.64 0 12.4-2.72 13.3-13.9" style=""/><path d="m923 821v9h-9v-9z" style=""/><path d="m953 821v9h-9v-9z" style=""/><path d="m983 821v9h-9v-9z" style=""/></g></g></svg>