<svg height="676" style="" viewBox="0 338 603 338" width="1206" xmlns="http://www.w3.org/2000/svg"><g style="stroke-width:.1" transform="matrix(1.33 0 0 -1.33 0 676)"><path d="m0 .00391h453.5v255.1h-453.5z" style=""/><path d="m26.9 49c.0024 1.36 1.1 2.46 2.46 2.46s2.46-1.1 2.46-2.46-1.1-2.46-2.46-2.46-2.46 1.1-2.46 2.46m-29.3-22.2c0 1.36 1.1 2.46 2.46 2.46 1.35 0 2.46-1.1 2.46-2.46s-1.1-2.46-2.46-2.46-2.46 1.1-2.46 2.46m58.6-.115c0 1.36 1.1 2.46 2.46 2.46s2.46-1.1 2.46-2.46-1.1-2.46-2.46-2.46-2.46 1.1-2.46 2.46m-51.5-3.37c1.13.501 1.64 1.83 1.14 2.96l-1.09 2.47h4.29v-19.3h-8.65c-1.07 3.75-1.4 7.67-.979 11.5zm17.9-.475v5.7h10.2c.527 0 3.72-.609 3.72-3 0-1.98-2.45-2.7-4.47-2.7zm-13.9-30.7c0 1.36 1.1 2.46 2.46 2.46s2.46-1.1 2.46-2.46-1.1-2.46-2.46-2.46-2.46 1.1-2.46 2.46m36.4-.113c0 1.36 1.1 2.46 2.46 2.46s2.46-1.1 2.46-2.46-1.1-2.46-2.46-2.46-2.46 1.1-2.46 2.46m.76 5.57c-1.21.259-2.4-.51-2.66-1.72l-1.23-5.76c-8.03-3.64-17.2-3.59-25.2.12l-1.23 5.76c-.258 1.21-1.45 1.98-2.66 1.72l-5.08-1.09c-.943.973-1.82 2.01-2.63 3.1h24.7c.281 0 .466.0504.466.306v8.75c0 .254-.186.306-.466.306h-7.23v5.54h7.82c.712 0 3.82-.203 4.81-4.17.31-1.22.993-5.19 1.46-6.46.465-1.42 2.36-4.27 4.37-4.27h12.8c-.855-1.15-1.79-2.23-2.8-3.24zm13.7 23.1c.174-1.74.195-3.5.0637-5.25h-3.1c-.311 0-.435-.204-.435-.509v-1.42c0-3.36-1.89-4.09-3.55-4.27-1.58-.177-3.33.662-3.54 1.63-.932 5.24-2.48 6.36-4.94 8.29 3.04 1.93 6.21 4.78 6.21 8.59 0 4.12-2.82 6.72-4.75 7.99-2.7 1.78-5.69 2.14-6.5 2.14h-32.1c4.44 4.96 10.4 8.32 16.9 9.55l3.78-3.97c.856-.896 2.27-.93 3.17-.0726l4.23 4.05c8.74-1.64 16.3-7.03 20.7-14.8l-2.9-6.55c-.501-1.13.0097-2.46 1.14-2.96zm7.23-.107-.1 1.01 2.99 2.79c.605.565.379 1.71-.398 1.99l-3.82 1.43-.3.984 2.38 3.31c.484.672.0383 1.74-.778 1.88l-4.03.654-.484.904 1.69 3.71c.347.756-.295 1.72-1.13 1.69l-4.09-.144-.645.784.939 3.98c.189.807-.63 1.63-1.44 1.44l-3.98-.936-.784.643.143 4.09c.0332.827-.935 1.47-1.69 1.13l-3.71-1.69-.904.485-.657 4.02c-.132.816-1.21 1.26-1.88.778l-3.31-2.38-.983.298-1.43 3.82c-.289.779-1.43 1-1.99.399l-2.78-2.99-1.01.0992-2.15 3.47c-.436.704-1.6.704-2.03 0l-2.15-3.47-1.01-.0992-2.79 2.99c-.564.604-1.71.38-1.99-.399l-1.43-3.82-.983-.298-3.31 2.38c-.672.485-1.75.0371-1.88-.778l-.656-4.03-.904-.484-3.71 1.69c-.754.344-1.72-.302-1.69-1.13l.144-4.08-.784-.646-3.98.939c-.808.188-1.63-.63-1.44-1.44l.936-3.98-.644-.784-4.08.144c-.824.0234-1.47-.936-1.13-1.69l1.69-3.71-.485-.904-4.03-.654c-.816-.133-1.26-1.21-.776-1.88l2.38-3.31-.3-.984-3.82-1.43c-.775-.289-1-1.43-.396-2l2.99-2.78-.1-1.01-3.47-2.15c-.703-.436-.703-1.6 0-2.03l3.47-2.15.1-1.01-2.99-2.79c-.607-.564-.379-1.7.396-1.99l3.82-1.43.3-.986-2.38-3.31c-.484-.673-.0395-1.75.779-1.88l4.02-.653.485-.904-1.69-3.71c-.345-.756.305-1.73 1.13-1.69l4.08.143.646-.784-.936-3.98c-.189-.806.63-1.63 1.44-1.44l3.98.938.784-.642-.144-4.09c-.0308-.826.938-1.48 1.69-1.13l3.71 1.69.904-.483.656-4.02c.132-.818 1.21-1.26 1.88-.778l3.31 2.38.984-.3 1.43-3.82c.288-.774 1.43-1 1.99-.396l2.79 2.99 1.01-.102 2.15-3.47c.434-.699 1.6-.701 2.03 0l2.15 3.47 1.01.102 2.79-2.99c.565-.607 1.71-.377 1.99.396l1.43 3.82.985.3 3.31-2.38c.672-.482 1.75-.0394 1.88.778l.657 4.02.904.483 3.71-1.69c.755-.346 1.72.3 1.69 1.13l-.143 4.09.784.642 3.98-.938c.811-.19 1.63.631 1.44 1.44l-.938 3.98.645.784 4.08-.143c.826-.0332 1.48.936 1.13 1.69l-1.69 3.71.484.904 4.02.653c.82.132 1.26 1.21.778 1.88l-2.38 3.31.3.986 3.82 1.43c.778.291 1 1.43.396 1.99l-2.98 2.79.0985 1.01 3.47 2.15c.704.433.704 1.6.0012 2.03z" style="fill:#383232"/><path d="m0 227.5h453.5v27.6h-453.5z" style="fill:#1c1c1c"/><g style="fill:#fff"><path d="m15.5 237.8c0 .918-.445 1.61-.761 1.97-.661.705-1.19.848-2.16 1.09-.976.244-1.34.33-1.65.633-.186.2-.575.559-.575 1.21 0 .877.791 1.72 2.05 1.72 1.22 0 1.87-.474 2.38-.933l.216 1.16c-.589.316-1.31.705-2.59.705-1.92 0-3.18-1.38-3.18-2.82 0-1.02.619-1.68.691-1.75.703-.719 1.19-.847 2.11-1.08 1.22-.302 1.42-.358 1.88-.833.244-.258.459-.717.459-1.22 0-.992-.819-1.91-2.05-1.91-1.05 0-2.17.417-3.02 1.19l-.214-1.16c1.31-.861 2.57-.991 3.23-.991 1.85 0 3.16 1.42 3.16 3.02" style=""/><path d="m21 235.5-.216.833c-.502-.445-1.03-.503-1.29-.503-.633 0-.719.675-.719 1.18v3.62h1.98v.833h-1.98v1.82h-.991v-1.82h-1.21v-.833h1.18v-3.86c0-.834.188-1.82 1.18-1.82.962 0 1.62.332 2.07.561" style=""/><path d="m27.2 235.1v4.21c0 1.38-.992 2.38-2.33 2.38-.861 0-1.51-.202-2.21-.603l.0875-.949c.631.46 1.29.719 2.12.719.661 0 1.24-.531 1.24-1.58v-.588c-.647-.029-1.51-.072-2.37-.359-.962-.331-1.52-.863-1.52-1.58 0-.632.375-1.8 1.6-1.8.791 0 1.8.23 2.33.675v-.531zm-1.09 1.92c0-.287 0-.633-.474-.919-.389-.245-.876-.287-1.09-.287-.776 0-1.31.415-1.31.948 0 .977 2 1.19 2.87 1.19v-.934" style=""/><path d="m34.8 238.3c0 1.77-.947 3.32-2.28 3.32-.417 0-1.34-.086-2.23-.805v4.25h-1.06v-9.97h1.09v.647c.661-.633 1.36-.791 1.87-.791 1.37 0 2.61 1.39 2.61 3.35zm-1.09 0c0-1.87-1.18-2.48-2.05-2.48-.403 0-.675.144-.934.344-.344.301-.402.56-.402.804v2.97c.258.403.775.818 1.48.818.877 0 1.91-.659 1.91-2.46" style=""/><path d="m37.5 235.1v6.38h-1.06v-6.38zm.0875 8.16v1.24h-1.24v-1.24z" style=""/><path d="m40.8 235.1v9.97h-1.06v-9.97z" style=""/><path d="m44.1 235.1v6.38h-1.06v-6.38zm.0875 8.16v1.24h-1.24v-1.24z" style=""/><path d="m49.9 235.5-.216.833c-.502-.445-1.03-.503-1.29-.503-.633 0-.719.675-.719 1.18v3.62h1.98v.833h-1.98v1.82h-.991v-1.82h-1.21v-.833h1.18v-3.86c0-.834.188-1.82 1.18-1.82.962 0 1.62.332 2.07.561" style=""/><path d="m56.1 241.5h-1.08c-.659-1.7-1.77-4.51-1.82-5.54h-.0141c-.0719.848-.834 2.74-.948 3.03l-1.02 2.51h-1.13l2.67-6.38-.503-1.31c-.316-.717-.531-.789-.791-.789-.2 0-.661.042-1.11.216l.0875-.935c.086-.014.559-.115 1.02-.115.345 0 1.02 0 1.64 1.58l3 7.73" style=""/><path d="m66.1 236.9c0 .733-.445 1.19-.502 1.26-.533.545-.962.631-1.84.805-.517.1-1.25.244-1.25.962 0 .891 1 .891 1.19.891.761 0 1.36-.174 2-.533l.172.934c-.919.432-1.7.446-2.02.446-.331 0-2.33 0-2.33-1.87 0-.633.345-1.06.561-1.26.517-.446.876-.518 1.72-.691.475-.1 1.31-.272 1.31-1.03 0-.991-1.12-.991-1.32-.991-.575 0-1.41.158-2.18.719l-.173-.977c.0719-.044 1.05-.633 2.37-.633 1.85 0 2.3 1.12 2.3 1.97" style=""/><path d="m71.1 235.5-.216.833c-.502-.445-1.03-.503-1.29-.503-.633 0-.719.675-.719 1.18v3.62h1.98v.833h-1.98v1.82h-.991v-1.82h-1.21v-.833h1.18v-3.86c0-.834.188-1.82 1.18-1.82.962 0 1.62.332 2.07.561" style=""/><path d="m78.1 238.3c0 1.94-1.42 3.43-3.07 3.43-1.7 0-3.09-1.52-3.09-3.43 0-1.88 1.44-3.3 3.07-3.3 1.7 0 3.09 1.45 3.09 3.3zm-1.09.144c0-1.77-1.02-2.56-1.98-2.56-1.03 0-2 .862-2 2.56 0 1.74 1.08 2.43 1.98 2.43.992 0 2-.747 2-2.43" style=""/><path d="m82.7 240.7v.963c-1.31-.014-2.07-.775-2.46-1.34v1.26h-.992v-6.45h1.06v3.14c0 1.45 1.09 2.4 2.39 2.41" style=""/><path d="m89.1 241.5h-1.08c-.659-1.7-1.77-4.51-1.82-5.54h-.0141c-.0719.848-.834 2.74-.948 3.03l-1.02 2.51h-1.13l2.67-6.38-.503-1.31c-.316-.717-.531-.789-.791-.789-.2 0-.661.042-1.11.216l.0875-.935c.086-.014.559-.115 1.02-.115.345 0 1.02 0 1.64 1.58l3 7.73" style=""/><path d="m34.3 145.5v.77h-1.37c-.13 0-.259-.011-.391-.011h-2.27v2.81h3.58v.661h-3.58v2.57h1.5c.13 0 .261-.011.391-.011h1.99v.706h-4.84v-7.5h4.99" style=""/><path d="m42.6 145.5v3.23c0 .728-.173 1.7-1.49 1.7-.652 0-1.22-.305-1.62-.891-.281.825-1.04.891-1.39.891-.781 0-1.29-.446-1.58-.836v.781h-.781v-4.88h.847v2.66c0 .739.294 1.62 1.1 1.62 1.01 0 1.06-.705 1.06-1.12v-3.16h.847v2.66c0 .739.292 1.62 1.1 1.62 1.01 0 1.06-.705 1.06-1.12v-3.16h.845" style=""/><path d="m48.7 147.9c0 1.35-.738 2.52-1.76 2.52-.423 0-1.1-.11-1.75-.641v3.23h-.814v-7.53h.847v.498c.261-.237.727-.617 1.45-.617 1.08 0 2.02 1.08 2.02 2.54zm-.845 0c0-1.41-.912-1.88-1.57-1.88-.424 0-.781.196-1.05.696v2.4c.174.261.564.641 1.16.641.641 0 1.47-.467 1.47-1.86" style=""/><path d="m54 147.9c0 .368-.0109 1.18-.434 1.83-.445.674-1.11.793-1.5.793-1.2 0-2.18-1.15-2.18-2.55 0-1.43 1.04-2.57 2.34-2.57.684 0 1.3.26 1.72.564l-.064.705c-.684-.564-1.4-.608-1.65-.608-.869 0-1.56.771-1.6 1.84zm-.619.596h-2.68c.173.825.748 1.37 1.37 1.37.564 0 1.17-.369 1.31-1.37" style=""/><path d="m59 145.5v7.53h-.814v-3.19c-.575.476-1.18.597-1.58.597-1.07 0-1.92-1.13-1.92-2.53 0-1.42.836-2.53 1.87-2.53.359 0 .998.097 1.61.683v-.564zm-.847 1.51c0-.152-.0109-.347-.358-.661-.25-.217-.52-.305-.803-.305-.672 0-1.46.511-1.46 1.86 0 1.43.933 1.88 1.57 1.88.488 0 .812-.25 1.05-.597v-2.17" style=""/><path d="m64.6 145.5v7.53h-.814v-3.19c-.575.476-1.18.597-1.58.597-1.07 0-1.92-1.13-1.92-2.53 0-1.42.836-2.53 1.87-2.53.359 0 .998.097 1.61.683v-.564zm-.847 1.51c0-.152-.0109-.347-.358-.661-.25-.217-.52-.305-.803-.305-.672 0-1.46.511-1.46 1.86 0 1.43.933 1.88 1.57 1.88.488 0 .812-.25 1.05-.597v-2.17" style=""/><path d="m70.1 147.9c0 .368-.0109 1.18-.434 1.83-.445.674-1.11.793-1.5.793-1.2 0-2.18-1.15-2.18-2.55 0-1.43 1.04-2.57 2.34-2.57.684 0 1.3.26 1.72.564l-.064.705c-.684-.564-1.4-.608-1.65-.608-.869 0-1.56.771-1.6 1.84zm-.619.596h-2.68c.173.825.748 1.37 1.37 1.37.564 0 1.17-.369 1.31-1.37" style=""/><path d="m75.1 145.5v7.53h-.814v-3.19c-.575.476-1.18.597-1.58.597-1.07 0-1.92-1.13-1.92-2.53 0-1.42.836-2.53 1.87-2.53.359 0 .998.097 1.61.683v-.564zm-.847 1.51c0-.152-.0109-.347-.358-.661-.25-.217-.52-.305-.803-.305-.672 0-1.46.511-1.46 1.86 0 1.43.933 1.88 1.57 1.88.488 0 .812-.25 1.05-.597v-2.17" style=""/><path d="m84.4 145.5v7.53h-.814v-3.19c-.575.476-1.18.597-1.58.597-1.07 0-1.92-1.13-1.92-2.53 0-1.42.836-2.53 1.87-2.53.359 0 .998.097 1.61.683v-.564zm-.847 1.51c0-.152-.0109-.347-.358-.661-.25-.217-.52-.305-.803-.305-.672 0-1.46.511-1.46 1.86 0 1.43.933 1.88 1.57 1.88.488 0 .812-.25 1.05-.597v-2.17" style=""/><path d="m89.8 147.9c0 .368-.0109 1.18-.434 1.83-.445.674-1.11.793-1.5.793-1.2 0-2.18-1.15-2.18-2.55 0-1.43 1.04-2.57 2.34-2.57.684 0 1.3.26 1.72.564l-.064.705c-.684-.564-1.4-.608-1.65-.608-.869 0-1.56.771-1.6 1.84zm-.619.596h-2.68c.173.825.748 1.37 1.37 1.37.564 0 1.17-.369 1.31-1.37" style=""/><path d="m95 150.3h-.814l-.856-2.26c-.228-.597-.564-1.48-.652-1.99h-.0109c-.0657.391-.347 1.14-.456 1.43l-1.05 2.81h-.847l1.87-4.82h.955l1.87 4.82" style=""/><path d="m99.7 147.9c0 .368-.0109 1.18-.434 1.83-.445.674-1.11.793-1.5.793-1.2 0-2.18-1.15-2.18-2.55 0-1.43 1.04-2.57 2.34-2.57.684 0 1.3.26 1.72.564l-.064.705c-.684-.564-1.4-.608-1.65-.608-.869 0-1.56.771-1.6 1.84zm-.619.596h-2.68c.173.825.748 1.37 1.37 1.37.564 0 1.17-.369 1.31-1.37" style=""/><path d="m101.8 145.5v7.53h-.814v-7.53z" style=""/><path d="m107.8 147.9c0 1.45-1.09 2.61-2.38 2.61-1.34 0-2.39-1.19-2.39-2.61 0-1.43 1.11-2.51 2.38-2.51 1.3 0 2.39 1.1 2.39 2.51zm-.847.107c0-1.28-.737-1.92-1.54-1.92-.749 0-1.53.608-1.53 1.92 0 1.31.825 1.85 1.53 1.85.759 0 1.54-.564 1.54-1.85" style=""/><path d="m113.3 147.9c0 1.3-.683 2.52-1.72 2.52-.652 0-1.28-.229-1.78-.652v.531h-.814v-6.92h.847v2.6c.336-.314.814-.617 1.47-.617 1.05 0 2.01 1.06 2.01 2.54zm-.845 0c0-1.12-.771-1.88-1.58-1.88-.423 0-.717.217-.933.511-.109.163-.109.185-.109.38v2.18c.261.381.684.629 1.15.629.825 0 1.48-.825 1.48-1.82" style=""/><path d="m121.5 145.5v3.23c0 .728-.173 1.7-1.49 1.7-.652 0-1.22-.305-1.62-.891-.281.825-1.04.891-1.39.891-.781 0-1.29-.446-1.58-.836v.781h-.781v-4.88h.847v2.66c0 .739.294 1.62 1.1 1.62 1.01 0 1.06-.705 1.06-1.12v-3.16h.847v2.66c0 .739.292 1.62 1.1 1.62 1.01 0 1.06-.705 1.06-1.12v-3.16h.845" style=""/><path d="m126.9 147.9c0 .368-.011 1.18-.434 1.83-.445.674-1.11.793-1.5.793-1.2 0-2.18-1.15-2.18-2.55 0-1.43 1.04-2.57 2.34-2.57.685 0 1.3.26 1.72.564l-.064.705c-.684-.564-1.4-.608-1.65-.608-.868 0-1.56.771-1.6 1.84zm-.619.596h-2.68c.173.825.748 1.37 1.37 1.37.564 0 1.17-.369 1.31-1.37" style=""/><path d="m132 145.5v3.23c0 .717-.162 1.7-1.49 1.7-.977 0-1.51-.74-1.57-.825v.77h-.781v-4.88h.847v2.66c0 .717.272 1.62 1.1 1.62 1.04 0 1.05-.77 1.05-1.12v-3.16h.847" style=""/><path d="m136.5 145.8-.175.641c-.281-.228-.628-.358-.976-.358-.402 0-.554.325-.554.9v2.71h1.53v.628h-1.53v1.38h-.748v-1.38h-.944v-.628h.911v-2.9c0-.65.152-1.41.902-1.41.759 0 1.31.271 1.58.411" style=""/><path d="m145.2 145.5v3.23c0 .717-.162 1.7-1.49 1.7-.977 0-1.51-.74-1.57-.825v.77h-.781v-4.88h.847v2.66c0 .717.272 1.62 1.1 1.62 1.04 0 1.05-.77 1.05-1.12v-3.16h.847" style=""/><path d="m150.6 147.9c0 .368-.011 1.18-.434 1.83-.445.674-1.11.793-1.5.793-1.2 0-2.18-1.15-2.18-2.55 0-1.43 1.04-2.57 2.34-2.57.685 0 1.3.26 1.72.564l-.064.705c-.684-.564-1.4-.608-1.65-.608-.868 0-1.56.771-1.6 1.84zm-.619.596h-2.68c.173.825.748 1.37 1.37 1.37.564 0 1.17-.369 1.31-1.37" style=""/><path d="m155.5 147.9c0 .368-.011 1.18-.434 1.83-.445.674-1.11.793-1.5.793-1.2 0-2.18-1.15-2.18-2.55 0-1.43 1.04-2.57 2.34-2.57.685 0 1.3.26 1.72.564l-.064.705c-.684-.564-1.4-.608-1.65-.608-.868 0-1.56.771-1.6 1.84zm-.619.596h-2.68c.173.825.748 1.37 1.37 1.37.564 0 1.17-.369 1.31-1.37" style=""/><path d="m160.5 145.5v7.53h-.814v-3.19c-.575.476-1.18.597-1.58.597-1.07 0-1.92-1.13-1.92-2.53 0-1.42.836-2.53 1.86-2.53.36 0 .999.097 1.61.683v-.564zm-.846 1.51c0-.152-.011-.347-.358-.661-.25-.217-.521-.305-.803-.305-.672 0-1.46.511-1.46 1.86 0 1.43.932 1.88 1.57 1.88.487 0 .812-.25 1.05-.597v-2.17" style=""/><path d="m165.3 146.9c0 .597-.401.966-.423.999-.424.379-.716.443-1.26.542-.597.118-1.1.228-1.1.759 0 .674.781.674.922.674.348 0 .923-.044 1.54-.413l.13.705c-.564.261-1.01.347-1.56.347-.271 0-1.8 0-1.8-1.42 0-.533.315-.879.586-1.09.336-.239.575-.281 1.17-.401.39-.075 1.02-.206 1.02-.781 0-.749-.858-.749-1.02-.749-.878 0-1.49.402-1.68.531l-.131-.737c.349-.174.945-.477 1.82-.477.195 0 .792 0 1.26.347.336.26.52.694.52 1.16" style=""/><path d="m173.2 146.9c0 .597-.401.966-.423.999-.424.379-.716.443-1.26.542-.597.118-1.1.228-1.1.759 0 .674.781.674.922.674.348 0 .923-.044 1.54-.413l.13.705c-.564.261-1.01.347-1.56.347-.271 0-1.8 0-1.8-1.42 0-.533.315-.879.586-1.09.336-.239.575-.281 1.17-.401.39-.075 1.02-.206 1.02-.781 0-.749-.858-.749-1.02-.749-.878 0-1.49.402-1.68.531l-.131-.737c.349-.174.945-.477 1.82-.477.195 0 .792 0 1.26.347.336.26.52.694.52 1.16" style=""/><path d="m177 145.8-.175.641c-.281-.228-.628-.358-.976-.358-.402 0-.554.325-.554.9v2.71h1.53v.628h-1.53v1.38h-.748v-1.38h-.944v-.628h.911v-2.9c0-.65.152-1.41.902-1.41.759 0 1.31.271 1.58.411" style=""/><path d="m181.8 145.5v3.14c0 1.11-.793 1.87-1.79 1.87-.705 0-1.19-.174-1.7-.466l.065-.717c.564.401 1.11.544 1.64.544.511 0 .945-.435.945-1.24v-.467c-1.63-.022-3.01-.477-3.01-1.43 0-.468.292-1.35 1.24-1.35.152 0 1.17.022 1.8.51v-.391zm-.846 1.43c0-.206 0-.478-.37-.685-.314-.195-.727-.206-.845-.206-.522 0-1.01.25-1.01.706 0 .76 1.76.835 2.22.857v-.672" style=""/><path d="m187.8 147.9c0 1.35-.738 2.52-1.76 2.52-.423 0-1.1-.11-1.75-.641v3.23h-.814v-7.53h.847v.498c.261-.237.727-.617 1.46-.617 1.08 0 2.02 1.08 2.02 2.54zm-.845 0c0-1.41-.913-1.88-1.57-1.88-.423 0-.781.196-1.05.696v2.4c.173.261.564.641 1.16.641.641 0 1.47-.467 1.47-1.86" style=""/><path d="m190 145.5v4.82h-.814v-4.82zm.088 6.14v.966h-.966v-.966z" style=""/><path d="m192.6 145.5v7.53h-.814v-7.53z" style=""/><path d="m195.2 145.5v4.82h-.814v-4.82zm.088 6.14v.966h-.966v-.966z" style=""/><path d="m200 145.8-.175.641c-.281-.228-.628-.358-.976-.358-.402 0-.554.325-.554.9v2.71h1.53v.628h-1.53v1.38h-.748v-1.38h-.944v-.628h.911v-2.9c0-.65.152-1.41.902-1.41.759 0 1.31.271 1.58.411" style=""/><path d="m204.5 150.3h-.814c-1.41-3.45-1.43-3.95-1.44-4.2h-.011c-.066.726-.933 2.74-.977 2.84l-.586 1.36h-.857l2.1-4.82-.39-.977c-.282-.629-.466-.629-.618-.629-.175 0-.521.044-.846.173l.065-.704c.238-.055.542-.088.781-.088.38 0 .782.131 1.22 1.24l2.37 5.8" style=""/><path d="m213.5 147.9c0 1.45-1.09 2.61-2.38 2.61-1.34 0-2.39-1.19-2.39-2.61 0-1.43 1.11-2.51 2.38-2.51 1.3 0 2.39 1.1 2.39 2.51zm-.847.107c0-1.28-.737-1.92-1.54-1.92-.749 0-1.53.608-1.53 1.92 0 1.31.825 1.85 1.53 1.85.759 0 1.54-.564 1.54-1.85" style=""/><path d="m217.6 152.3v.727c-.132.033-.468.12-.869.12-1.02 0-1.8-.77-1.8-1.86v-.977h-.803v-.628h.803v-4.19h.814v4.19h1.19v.628h-1.23v1.29c0 .804.728.879 1.01.879.217 0 .511-.022.88-.185" style=""/><path d="m225.3 145.9-.065.727c-.554-.434-1.14-.586-1.69-.586-.9 0-1.51.781-1.51 1.84 0 .846.401 1.89 1.55 1.89.564 0 .933-.088 1.53-.478l.129.706c-.64.369-1.01.466-1.67.466-1.51 0-2.39-1.31-2.39-2.59 0-1.34.987-2.53 2.34-2.53.586 0 1.18.152 1.77.553" style=""/><path d="m230.3 145.5v4.82h-.847v-3.15c0-.812-.607-1.19-1.3-1.19-.77 0-.847.281-.847.749v3.59h-.847v-3.63c0-.781.25-1.3 1.15-1.3.575 0 1.34.174 1.88.639v-.52h.814" style=""/><path d="m234.8 149.7v.729c-.965-.011-1.56-.544-1.9-1.04v.988h-.761v-4.88h.814v2.32c0 1.09.781 1.87 1.84 1.89" style=""/><path d="m238.5 149.7v.729c-.965-.011-1.56-.544-1.9-1.04v.988h-.761v-4.88h.814v2.32c0 1.09.781 1.87 1.84 1.89" style=""/><path d="m243.2 147.9c0 .368-.011 1.18-.434 1.83-.445.674-1.11.793-1.5.793-1.2 0-2.18-1.15-2.18-2.55 0-1.43 1.04-2.57 2.34-2.57.685 0 1.3.26 1.72.564l-.064.705c-.684-.564-1.4-.608-1.65-.608-.868 0-1.56.771-1.6 1.84zm-.619.596h-2.68c.173.825.748 1.37 1.37 1.37.564 0 1.17-.369 1.31-1.37" style=""/><path d="m248.3 145.5v3.23c0 .717-.162 1.7-1.49 1.7-.977 0-1.51-.74-1.57-.825v.77h-.781v-4.88h.847v2.66c0 .717.272 1.62 1.1 1.62 1.04 0 1.05-.77 1.05-1.12v-3.16h.847" style=""/><path d="m252.8 145.8-.175.641c-.281-.228-.628-.358-.976-.358-.402 0-.554.325-.554.9v2.71h1.53v.628h-1.53v1.38h-.748v-1.38h-.944v-.628h.911v-2.9c0-.65.152-1.41.902-1.41.759 0 1.31.271 1.58.411" style=""/><path d="m254.9 145.5v7.53h-.814v-7.53z" style=""/><path d="m260.6 150.3h-.814c-1.41-3.45-1.43-3.95-1.44-4.2h-.011c-.066.726-.933 2.74-.977 2.84l-.586 1.36h-.857l2.1-4.82-.39-.977c-.282-.629-.466-.629-.618-.629-.175 0-.521.044-.846.173l.065-.704c.238-.055.542-.088.781-.088.38 0 .782.131 1.22 1.24l2.37 5.8" style=""/><path d="m269.1 145.5v4.82h-.847v-3.15c0-.812-.607-1.19-1.3-1.19-.77 0-.847.281-.847.749v3.59h-.847v-3.63c0-.781.25-1.3 1.15-1.3.575 0 1.34.174 1.88.639v-.52h.814" style=""/><path d="m274.8 145.5v3.23c0 .717-.162 1.7-1.49 1.7-.977 0-1.51-.74-1.57-.825v.77h-.781v-4.88h.847v2.66c0 .717.272 1.62 1.1 1.62 1.04 0 1.05-.77 1.05-1.12v-3.16h.847" style=""/><path d="m279.3 145.8-.175.641c-.281-.228-.628-.358-.976-.358-.402 0-.554.325-.554.9v2.71h1.53v.628h-1.53v1.38h-.748v-1.38h-.944v-.628h.911v-2.9c0-.65.152-1.41.902-1.41.759 0 1.31.271 1.58.411" style=""/><path d="m283.1 149.7v.729c-.965-.011-1.56-.544-1.9-1.04v.988h-.761v-4.88h.814v2.32c0 1.09.781 1.87 1.84 1.89" style=""/><path d="m287.8 145.5v3.14c0 1.11-.793 1.87-1.79 1.87-.705 0-1.19-.174-1.7-.466l.065-.717c.564.401 1.11.544 1.64.544.511 0 .945-.435.945-1.24v-.467c-1.63-.022-3.01-.477-3.01-1.43 0-.468.292-1.35 1.24-1.35.152 0 1.17.022 1.8.51v-.391zm-.846 1.43c0-.206 0-.478-.37-.685-.314-.195-.727-.206-.845-.206-.522 0-1.01.25-1.01.706 0 .76 1.76.835 2.22.857v-.672" style=""/><path d="m293.1 145.9-.065.727c-.554-.434-1.14-.586-1.69-.586-.9 0-1.51.781-1.51 1.84 0 .846.401 1.89 1.55 1.89.564 0 .933-.088 1.53-.478l.129.706c-.64.369-1.01.466-1.67.466-1.51 0-2.39-1.31-2.39-2.59 0-1.34.987-2.53 2.34-2.53.586 0 1.18.152 1.77.553" style=""/><path d="m298.6 145.5-2.06 2.95 1.82 1.86h-.977l-2.2-2.26v4.97h-.781v-7.53h.748v1.53l.869.901 1.69-2.43h.891" style=""/><path d="m303 147.9c0 .368-.011 1.18-.434 1.83-.445.674-1.11.793-1.5.793-1.2 0-2.18-1.15-2.18-2.55 0-1.43 1.04-2.57 2.34-2.57.685 0 1.3.26 1.72.564l-.064.705c-.684-.564-1.4-.608-1.65-.608-.868 0-1.56.771-1.6 1.84zm-.619.596h-2.68c.173.825.748 1.37 1.37 1.37.564 0 1.17-.369 1.31-1.37" style=""/><path d="m308 145.5v7.53h-.814v-3.19c-.575.476-1.18.597-1.58.597-1.07 0-1.92-1.13-1.92-2.53 0-1.42.836-2.53 1.86-2.53.36 0 .999.097 1.61.683v-.564zm-.846 1.51c0-.152-.011-.347-.358-.661-.25-.217-.521-.305-.803-.305-.672 0-1.46.511-1.46 1.86 0 1.43.932 1.88 1.57 1.88.487 0 .812-.25 1.05-.597v-2.17" style=""/><path d="m317.8 147.9c0 1.3-.683 2.52-1.72 2.52-.652 0-1.28-.229-1.78-.652v.531h-.814v-6.92h.847v2.6c.336-.314.814-.617 1.47-.617 1.05 0 2.01 1.06 2.01 2.54zm-.845 0c0-1.12-.771-1.88-1.58-1.88-.423 0-.717.217-.933.511-.109.163-.109.185-.109.38v2.18c.261.381.684.629 1.15.629.825 0 1.48-.825 1.48-1.82" style=""/><path d="m322.7 145.5v3.14c0 1.11-.793 1.87-1.79 1.87-.705 0-1.19-.174-1.7-.466l.065-.717c.564.401 1.11.544 1.64.544.511 0 .945-.435.945-1.24v-.467c-1.63-.022-3.01-.477-3.01-1.43 0-.468.292-1.35 1.24-1.35.152 0 1.17.022 1.8.51v-.391zm-.846 1.43c0-.206 0-.478-.37-.685-.314-.195-.727-.206-.845-.206-.522 0-1.01.25-1.01.706 0 .76 1.76.835 2.22.857v-.672" style=""/><path d="m326.7 149.7v.729c-.965-.011-1.56-.544-1.9-1.04v.988h-.761v-4.88h.814v2.32c0 1.09.781 1.87 1.84 1.89" style=""/><path d="m330.5 145.8-.175.641c-.281-.228-.628-.358-.976-.358-.402 0-.554.325-.554.9v2.71h1.53v.628h-1.53v1.38h-.748v-1.38h-.944v-.628h.911v-2.9c0-.65.152-1.41.902-1.41.759 0 1.31.271 1.58.411" style=""/><path d="m334.8 146.9c0 .597-.401.966-.423.999-.424.379-.716.443-1.26.542-.597.118-1.1.228-1.1.759 0 .674.781.674.922.674.348 0 .923-.044 1.54-.413l.13.705c-.564.261-1.01.347-1.56.347-.271 0-1.8 0-1.8-1.42 0-.533.315-.879.586-1.09.336-.239.575-.281 1.17-.401.39-.075 1.02-.206 1.02-.781 0-.749-.858-.749-1.02-.749-.878 0-1.49.402-1.68.531l-.131-.737c.349-.174.945-.477 1.82-.477.195 0 .792 0 1.26.347.336.26.52.694.52 1.16" style=""/><path d="m343.8 147.9c0 1.45-1.09 2.61-2.38 2.61-1.34 0-2.39-1.19-2.39-2.61 0-1.43 1.11-2.51 2.38-2.51 1.3 0 2.39 1.1 2.39 2.51zm-.847.107c0-1.28-.737-1.92-1.54-1.92-.749 0-1.53.608-1.53 1.92 0 1.31.825 1.85 1.53 1.85.759 0 1.54-.564 1.54-1.85" style=""/><path d="m347.9 152.3v.727c-.132.033-.468.12-.869.12-1.02 0-1.8-.77-1.8-1.86v-.977h-.803v-.628h.803v-4.19h.814v4.19h1.19v.628h-1.23v1.29c0 .804.728.879 1.01.879.217 0 .511-.022.88-.185" style=""/><path d="m355.6 145.9-.065.727c-.554-.434-1.14-.586-1.69-.586-.9 0-1.51.781-1.51 1.84 0 .846.401 1.89 1.55 1.89.564 0 .933-.088 1.53-.478l.129.706c-.64.369-1.01.466-1.67.466-1.51 0-2.39-1.31-2.39-2.59 0-1.34.987-2.53 2.34-2.53.586 0 1.18.152 1.77.553" style=""/><path d="m361 147.9c0 1.45-1.09 2.61-2.38 2.61-1.34 0-2.39-1.19-2.39-2.61 0-1.43 1.11-2.51 2.38-2.51 1.3 0 2.39 1.1 2.39 2.51zm-.847.107c0-1.28-.737-1.92-1.54-1.92-.749 0-1.53.608-1.53 1.92 0 1.31.825 1.85 1.53 1.85.759 0 1.54-.564 1.54-1.85" style=""/><path d="m369.1 145.5v3.23c0 .728-.173 1.7-1.49 1.7-.652 0-1.22-.305-1.62-.891-.281.825-1.04.891-1.39.891-.781 0-1.29-.446-1.58-.836v.781h-.781v-4.88h.847v2.66c0 .739.294 1.62 1.1 1.62 1.01 0 1.06-.705 1.06-1.12v-3.16h.847v2.66c0 .739.292 1.62 1.1 1.62 1.01 0 1.06-.705 1.06-1.12v-3.16h.845" style=""/><path d="m375.3 147.9c0 1.3-.683 2.52-1.72 2.52-.652 0-1.28-.229-1.78-.652v.531h-.814v-6.92h.847v2.6c.336-.314.814-.617 1.47-.617 1.05 0 2.01 1.06 2.01 2.54zm-.845 0c0-1.12-.771-1.88-1.58-1.88-.423 0-.717.217-.933.511-.109.163-.109.185-.109.38v2.18c.261.381.684.629 1.15.629.825 0 1.48-.825 1.48-1.82" style=""/><path d="m377.4 145.5v4.82h-.814v-4.82zm.088 6.14v.966h-.966v-.966z" style=""/><path d="m380 145.5v7.53h-.814v-7.53z" style=""/><path d="m385.3 145.5v3.14c0 1.11-.793 1.87-1.79 1.87-.705 0-1.19-.174-1.7-.466l.065-.717c.564.401 1.11.544 1.64.544.511 0 .945-.435.945-1.24v-.467c-1.63-.022-3.01-.477-3.01-1.43 0-.468.292-1.35 1.24-1.35.152 0 1.17.022 1.8.51v-.391zm-.846 1.43c0-.206 0-.478-.37-.685-.314-.195-.727-.206-.845-.206-.522 0-1.01.25-1.01.706 0 .76 1.76.835 2.22.857v-.672" style=""/><path d="m389.8 145.8-.175.641c-.281-.228-.628-.358-.976-.358-.402 0-.554.325-.554.9v2.71h1.53v.628h-1.53v1.38h-.748v-1.38h-.944v-.628h.911v-2.9c0-.65.152-1.41.902-1.41.759 0 1.31.271 1.58.411" style=""/><path d="m391.8 145.5v4.82h-.814v-4.82zm.088 6.14v.966h-.966v-.966z" style=""/><path d="m397.8 147.9c0 1.45-1.09 2.61-2.38 2.61-1.34 0-2.39-1.19-2.39-2.61 0-1.43 1.11-2.51 2.38-2.51 1.3 0 2.39 1.1 2.39 2.51zm-.847.107c0-1.28-.737-1.92-1.54-1.92-.749 0-1.53.608-1.53 1.92 0 1.31.825 1.85 1.53 1.85.759 0 1.54-.564 1.54-1.85" style=""/><path d="m402.9 145.5v3.23c0 .717-.162 1.7-1.49 1.7-.977 0-1.51-.74-1.57-.825v.77h-.781v-4.88h.847v2.66c0 .717.272 1.62 1.1 1.62 1.04 0 1.05-.77 1.05-1.12v-3.16h.847" style=""/><path d="m33.5 134.4c0 1.3-.683 2.52-1.72 2.52-.652 0-1.28-.229-1.78-.652v.531h-.814v-6.92h.847v2.6c.336-.314.814-.617 1.47-.617 1.05 0 2.01 1.06 2.01 2.54zm-.845 0c0-1.12-.77-1.88-1.58-1.88-.423 0-.717.217-.933.511-.109.163-.109.185-.109.38v2.18c.261.381.684.629 1.15.629.825 0 1.48-.825 1.48-1.82" style=""/><path d="m35.7 132v4.82h-.814v-4.82zm.0875 6.14v.966h-.966v-.966z" style=""/><path d="m41.8 134.4c0 1.3-.683 2.52-1.72 2.52-.652 0-1.28-.229-1.78-.652v.531h-.814v-6.92h.847v2.6c.336-.314.814-.617 1.47-.617 1.05 0 2.01 1.06 2.01 2.54zm-.845 0c0-1.12-.77-1.88-1.58-1.88-.423 0-.717.217-.933.511-.109.163-.109.185-.109.38v2.18c.261.381.684.629 1.15.629.825 0 1.48-.825 1.48-1.82" style=""/><path d="m47 134.4c0 .368-.0109 1.18-.434 1.83-.445.674-1.11.793-1.5.793-1.2 0-2.18-1.15-2.18-2.55 0-1.43 1.04-2.57 2.34-2.57.684 0 1.3.26 1.72.564l-.064.705c-.684-.564-1.4-.608-1.65-.608-.869 0-1.56.771-1.6 1.84zm-.619.596h-2.68c.173.825.748 1.37 1.37 1.37.564 0 1.17-.369 1.31-1.37" style=""/><path d="m49.1 132v7.53h-.814v-7.53z" style=""/><path d="m51.7 132v4.82h-.814v-4.82zm.0875 6.14v.966h-.966v-.966z" style=""/><path d="m57.3 132v3.23c0 .717-.162 1.7-1.49 1.7-.976 0-1.51-.74-1.57-.825v.77h-.781v-4.88h.847v2.66c0 .717.272 1.62 1.1 1.62 1.04 0 1.05-.77 1.05-1.12v-3.16h.847" style=""/><path d="m62.7 134.4c0 .368-.0109 1.18-.434 1.83-.445.674-1.11.793-1.5.793-1.2 0-2.18-1.15-2.18-2.55 0-1.43 1.04-2.57 2.34-2.57.684 0 1.3.26 1.72.564l-.064.705c-.684-.564-1.4-.608-1.65-.608-.869 0-1.56.771-1.6 1.84zm-.619.596h-2.68c.173.825.748 1.37 1.37 1.37.564 0 1.17-.369 1.31-1.37" style=""/><path d="m72.1 134.6v.662h-5.41v-.662z" style=""/><path d="m77.5 132v7.53h-.814v-7.53z" style=""/><path d="m80.1 132v4.82h-.814v-4.82zm.0875 6.14v.966h-.966v-.966z" style=""/><path d="m85.7 132v3.23c0 .717-.162 1.7-1.49 1.7-.976 0-1.51-.74-1.57-.825v.77h-.781v-4.88h.847v2.66c0 .717.272 1.62 1.1 1.62 1.04 0 1.05-.77 1.05-1.12v-3.16h.847" style=""/><path d="m91.8 132-2.06 2.95 1.82 1.86h-.977l-2.2-2.26v4.97h-.781v-7.53h.748v1.53l.869.901 1.69-2.43h.891" style=""/><path d="m93.7 132v4.82h-.814v-4.82zm.0875 6.14v.966h-.966v-.966z" style=""/><path d="m99.3 132v3.23c0 .717-.162 1.7-1.49 1.7-.976 0-1.51-.74-1.57-.825v.77h-.781v-4.88h.847v2.66c0 .717.272 1.62 1.1 1.62 1.04 0 1.05-.77 1.05-1.12v-3.16h.847" style=""/><path d="m105.5 136.3-.119.685c-.76 0-1.39-.207-1.72-.349-.226.186-.597.349-1.03.349-.934 0-1.72-.782-1.72-1.77 0-.402.141-.792.358-1.08-.315-.444-.315-.867-.315-.922 0-.283.098-.597.282-.825-.564-.336-.695-.834-.695-1.12 0-.814 1.08-1.47 2.4-1.47 1.33 0 2.41.641 2.41 1.48 0 1.51-1.81 1.51-2.24 1.51h-.955c-.14 0-.629 0-.629.575 0 .121.043.294.12.391.228-.162.586-.314.987-.314.977 0 1.74.803 1.74 1.77 0 .52-.239.922-.357 1.08l.042-.011c.239 0 .544.044.803.044.195 0 .641-.033.641-.033zm-1.89-1.08c0-.847-.511-1.15-.977-1.15-.401 0-.965.248-.965 1.15 0 .9.564 1.15.965 1.15.466 0 .977-.305.977-1.15zm.977-3.95c0-.478-.749-.836-1.64-.836-.879 0-1.65.337-1.65.847 0 .033 0 .737.845.737h.977c.239 0 1.47 0 1.47-.748" style=""/><path d="m107.7 132v.889h-.9v-.9h.27l-.27-1.36h.444l.456 1.37" style=""/><path d="m116 132.3-.175.641c-.281-.228-.628-.358-.976-.358-.402 0-.554.325-.554.9v2.71h1.53v.628h-1.53v1.38h-.748v-1.38h-.944v-.628h.911v-2.9c0-.65.152-1.41.902-1.41.759 0 1.31.271 1.58.411" style=""/><path d="m120.7 132v3.14c0 1.11-.793 1.87-1.79 1.87-.705 0-1.19-.174-1.7-.466l.065-.717c.564.401 1.11.544 1.64.544.511 0 .945-.435.945-1.24v-.467c-1.63-.022-3.01-.477-3.01-1.43 0-.468.292-1.35 1.24-1.35.152 0 1.17.022 1.8.51v-.391zm-.846 1.43c0-.206 0-.478-.37-.685-.314-.195-.727-.206-.845-.206-.522 0-1.01.25-1.01.706 0 .76 1.76.835 2.22.857v-.672" style=""/><path d="m124.7 136.2v.729c-.965-.011-1.56-.544-1.9-1.04v.988h-.761v-4.88h.814v2.32c0 1.09.781 1.87 1.84 1.89" style=""/><path d="m130.3 136.3-.119.685c-.76 0-1.39-.207-1.72-.349-.226.186-.597.349-1.03.349-.934 0-1.72-.782-1.72-1.77 0-.402.141-.792.358-1.08-.315-.444-.315-.867-.315-.922 0-.283.098-.597.282-.825-.564-.336-.695-.834-.695-1.12 0-.814 1.08-1.47 2.4-1.47 1.33 0 2.41.641 2.41 1.48 0 1.51-1.81 1.51-2.24 1.51h-.955c-.14 0-.629 0-.629.575 0 .121.043.294.12.391.228-.162.586-.314.987-.314.977 0 1.74.803 1.74 1.77 0 .52-.239.922-.357 1.08l.042-.011c.239 0 .544.044.803.044.195 0 .641-.033.641-.033zm-1.89-1.08c0-.847-.511-1.15-.977-1.15-.401 0-.965.248-.965 1.15 0 .9.564 1.15.965 1.15.466 0 .977-.305.977-1.15zm.977-3.95c0-.478-.749-.836-1.64-.836-.879 0-1.65.337-1.65.847 0 .033 0 .737.845.737h.977c.239 0 1.47 0 1.47-.748" style=""/><path d="m134.9 134.4c0 .368-.011 1.18-.434 1.83-.445.674-1.11.793-1.5.793-1.2 0-2.18-1.15-2.18-2.55 0-1.43 1.04-2.57 2.34-2.57.685 0 1.3.26 1.72.564l-.064.705c-.684-.564-1.4-.608-1.65-.608-.868 0-1.56.771-1.6 1.84zm-.619.596h-2.68c.173.825.748 1.37 1.37 1.37.564 0 1.17-.369 1.31-1.37" style=""/><path d="m138.9 132.3-.175.641c-.281-.228-.628-.358-.976-.358-.402 0-.554.325-.554.9v2.71h1.53v.628h-1.53v1.38h-.748v-1.38h-.944v-.628h.911v-2.9c0-.65.152-1.41.902-1.41.759 0 1.31.271 1.58.411" style=""/><path d="m146.7 133.4c0 .597-.401.966-.423.999-.424.379-.716.443-1.26.542-.597.118-1.1.228-1.1.759 0 .674.781.674.922.674.348 0 .923-.044 1.54-.413l.13.705c-.564.261-1.01.347-1.56.347-.271 0-1.8 0-1.8-1.42 0-.533.315-.879.586-1.09.336-.239.575-.281 1.17-.401.39-.075 1.02-.206 1.02-.781 0-.749-.858-.749-1.02-.749-.878 0-1.49.402-1.68.531l-.131-.737c.349-.174.945-.477 1.82-.477.195 0 .792 0 1.26.347.336.26.52.694.52 1.16" style=""/><path d="m152.2 134.4c0 1.3-.683 2.52-1.72 2.52-.652 0-1.28-.229-1.78-.652v.531h-.814v-6.92h.847v2.6c.336-.314.814-.617 1.47-.617 1.05 0 2.01 1.06 2.01 2.54zm-.845 0c0-1.12-.771-1.88-1.58-1.88-.423 0-.717.217-.933.511-.109.163-.109.185-.109.38v2.18c.261.381.684.629 1.15.629.825 0 1.48-.825 1.48-1.82" style=""/><path d="m157.5 134.4c0 .368-.011 1.18-.434 1.83-.445.674-1.11.793-1.5.793-1.2 0-2.18-1.15-2.18-2.55 0-1.43 1.04-2.57 2.34-2.57.685 0 1.3.26 1.72.564l-.064.705c-.684-.564-1.4-.608-1.65-.608-.868 0-1.56.771-1.6 1.84zm-.619.596h-2.68c.173.825.748 1.37 1.37 1.37.564 0 1.17-.369 1.31-1.37" style=""/><path d="m162.3 132.4-.065.727c-.554-.434-1.14-.586-1.69-.586-.9 0-1.51.781-1.51 1.84 0 .846.401 1.89 1.55 1.89.564 0 .933-.088 1.53-.478l.129.706c-.64.369-1.01.466-1.67.466-1.51 0-2.39-1.31-2.39-2.59 0-1.34.987-2.53 2.34-2.53.586 0 1.18.152 1.77.553" style=""/><path d="m164.3 132v4.82h-.814v-4.82zm.088 6.14v.966h-.966v-.966z" style=""/><path d="m170.2 138.6v.9h-.901v-.9zm-.043-6.64v4.82h-.814v-4.82zm-1.72 4.19v.628h-1.31v1.31c0 .694.39.857.662.857.228 0 .467-.075.652-.196v.738c-.066.022-.338.12-.652.12-.803 0-1.44-.759-1.44-1.84v-.988h-.803v-.628h.803v-4.19h.814v4.19h1.28" style=""/><path d="m175.6 132.4-.065.727c-.554-.434-1.14-.586-1.69-.586-.9 0-1.51.781-1.51 1.84 0 .846.401 1.89 1.55 1.89.564 0 .933-.088 1.53-.478l.129.706c-.64.369-1.01.466-1.67.466-1.51 0-2.39-1.31-2.39-2.59 0-1.34.987-2.53 2.34-2.53.586 0 1.18.152 1.77.553" style=""/><path d="m180.3 132v3.14c0 1.11-.793 1.87-1.79 1.87-.705 0-1.19-.174-1.7-.466l.065-.717c.564.401 1.11.544 1.64.544.511 0 .945-.435.945-1.24v-.467c-1.63-.022-3.01-.477-3.01-1.43 0-.468.292-1.35 1.24-1.35.152 0 1.17.022 1.8.51v-.391zm-.846 1.43c0-.206 0-.478-.37-.685-.314-.195-.727-.206-.845-.206-.522 0-1.01.25-1.01.706 0 .76 1.76.835 2.22.857v-.672" style=""/><path d="m184.8 132.3-.175.641c-.281-.228-.628-.358-.976-.358-.402 0-.554.325-.554.9v2.71h1.53v.628h-1.53v1.38h-.748v-1.38h-.944v-.628h.911v-2.9c0-.65.152-1.41.902-1.41.759 0 1.31.271 1.58.411" style=""/><path d="m186.8 132v4.82h-.814v-4.82zm.088 6.14v.966h-.966v-.966z" style=""/><path d="m192.8 134.4c0 1.45-1.09 2.61-2.38 2.61-1.34 0-2.39-1.19-2.39-2.61 0-1.43 1.11-2.51 2.38-2.51 1.3 0 2.39 1.1 2.39 2.51zm-.847.107c0-1.28-.737-1.92-1.54-1.92-.749 0-1.53.608-1.53 1.92 0 1.31.825 1.85 1.53 1.85.759 0 1.54-.564 1.54-1.85" style=""/><path d="m197.9 132v3.23c0 .717-.162 1.7-1.49 1.7-.977 0-1.51-.74-1.57-.825v.77h-.781v-4.88h.847v2.66c0 .717.272 1.62 1.1 1.62 1.04 0 1.05-.77 1.05-1.12v-3.16h.847" style=""/><path d="m200.8 132v.889h-.9v-.9h.27l-.27-1.36h.444l.456 1.37" style=""/><path d="m210 134.4c0 .368-.011 1.18-.434 1.83-.445.674-1.11.793-1.5.793-1.2 0-2.18-1.15-2.18-2.55 0-1.43 1.04-2.57 2.34-2.57.685 0 1.3.26 1.72.564l-.064.705c-.684-.564-1.4-.608-1.65-.608-.868 0-1.56.771-1.6 1.84zm-.619.596h-2.68c.173.825.748 1.37 1.37 1.37.564 0 1.17-.369 1.31-1.37" style=""/><path d="m213.9 132.3-.175.641c-.281-.228-.628-.358-.976-.358-.402 0-.554.325-.554.9v2.71h1.53v.628h-1.53v1.38h-.748v-1.38h-.944v-.628h.911v-2.9c0-.65.152-1.41.902-1.41.759 0 1.31.271 1.58.411" style=""/><path d="m222.4 132.4-.065.727c-.554-.434-1.14-.586-1.69-.586-.9 0-1.51.781-1.51 1.84 0 .846.401 1.89 1.55 1.89.564 0 .933-.088 1.53-.478l.129.706c-.64.369-1.01.466-1.67.466-1.51 0-2.39-1.31-2.39-2.59 0-1.34.987-2.53 2.34-2.53.586 0 1.18.152 1.77.553" style=""/><path d="m227.2 134.4c0 .368-.011 1.18-.434 1.83-.445.674-1.11.793-1.5.793-1.2 0-2.18-1.15-2.18-2.55 0-1.43 1.04-2.57 2.34-2.57.685 0 1.3.26 1.72.564l-.064.705c-.684-.564-1.4-.608-1.65-.608-.868 0-1.56.771-1.6 1.84zm-.619.596h-2.68c.173.825.748 1.37 1.37 1.37.564 0 1.17-.369 1.31-1.37" style=""/><path d="m231.2 132.3-.175.641c-.281-.228-.628-.358-.976-.358-.402 0-.554.325-.554.9v2.71h1.53v.628h-1.53v1.38h-.748v-1.38h-.944v-.628h.911v-2.9c0-.65.152-1.41.902-1.41.759 0 1.31.271 1.58.411" style=""/><path d="m236 134.4c0 .368-.011 1.18-.434 1.83-.445.674-1.11.793-1.5.793-1.2 0-2.18-1.15-2.18-2.55 0-1.43 1.04-2.57 2.34-2.57.685 0 1.3.26 1.72.564l-.064.705c-.684-.564-1.4-.608-1.65-.608-.868 0-1.56.771-1.6 1.84zm-.619.596h-2.68c.173.825.748 1.37 1.37 1.37.564 0 1.17-.369 1.31-1.37" style=""/><path d="m239.9 136.2v.729c-.965-.011-1.56-.544-1.9-1.04v.988h-.761v-4.88h.814v2.32c0 1.09.781 1.87 1.84 1.89" style=""/><path d="m244.5 132v3.14c0 1.11-.793 1.87-1.79 1.87-.705 0-1.19-.174-1.7-.466l.065-.717c.564.401 1.11.544 1.64.544.511 0 .945-.435.945-1.24v-.467c-1.63-.022-3.01-.477-3.01-1.43 0-.468.292-1.35 1.24-1.35.152 0 1.17.022 1.8.51v-.391zm-.846 1.43c0-.206 0-.478-.37-.685-.314-.195-.727-.206-.845-.206-.522 0-1.01.25-1.01.706 0 .76 1.76.835 2.22.857v-.672" style=""/><path d="m247.4 132v.9h-.9v-.9z" style=""/><path d="m34.3 118.4v.77h-1.37c-.13 0-.259-.011-.391-.011h-2.27v2.81h3.58v.661h-3.58v2.57h1.5c.13 0 .261-.011.391-.011h1.99v.706h-4.84v-7.5h4.99" style=""/><path d="m42.6 118.4v3.23c0 .728-.173 1.7-1.49 1.7-.652 0-1.22-.305-1.62-.891-.281.825-1.04.891-1.39.891-.781 0-1.29-.446-1.58-.836v.781h-.781v-4.88h.847v2.66c0 .739.294 1.62 1.1 1.62 1.01 0 1.06-.705 1.06-1.12v-3.16h.847v2.66c0 .739.292 1.62 1.1 1.62 1.01 0 1.06-.705 1.06-1.12v-3.16h.845" style=""/><path d="m48.7 120.8c0 1.35-.738 2.52-1.76 2.52-.423 0-1.1-.11-1.75-.641v3.23h-.814v-7.53h.847v.498c.261-.237.727-.617 1.45-.617 1.08 0 2.02 1.08 2.02 2.54zm-.845 0c0-1.41-.912-1.88-1.57-1.88-.424 0-.781.196-1.05.696v2.4c.174.261.564.641 1.16.641.641 0 1.47-.467 1.47-1.86" style=""/><path d="m54 120.8c0 .368-.0109 1.18-.434 1.83-.445.674-1.11.793-1.5.793-1.2 0-2.18-1.15-2.18-2.55 0-1.43 1.04-2.57 2.34-2.57.684 0 1.3.26 1.72.564l-.064.705c-.684-.564-1.4-.608-1.65-.608-.869 0-1.56.771-1.6 1.84zm-.619.596h-2.68c.173.825.748 1.37 1.37 1.37.564 0 1.17-.369 1.31-1.37" style=""/><path d="m59 118.4v7.53h-.814v-3.19c-.575.476-1.18.597-1.58.597-1.07 0-1.92-1.13-1.92-2.53 0-1.42.836-2.53 1.87-2.53.359 0 .998.097 1.61.683v-.564zm-.847 1.51c0-.152-.0109-.347-.358-.661-.25-.217-.52-.305-.803-.305-.672 0-1.46.511-1.46 1.86 0 1.43.933 1.88 1.57 1.88.488 0 .812-.25 1.05-.597v-2.17" style=""/><path d="m64.6 118.4v7.53h-.814v-3.19c-.575.476-1.18.597-1.58.597-1.07 0-1.92-1.13-1.92-2.53 0-1.42.836-2.53 1.87-2.53.359 0 .998.097 1.61.683v-.564zm-.847 1.51c0-.152-.0109-.347-.358-.661-.25-.217-.52-.305-.803-.305-.672 0-1.46.511-1.46 1.86 0 1.43.933 1.88 1.57 1.88.488 0 .812-.25 1.05-.597v-2.17" style=""/><path d="m70.1 120.8c0 .368-.0109 1.18-.434 1.83-.445.674-1.11.793-1.5.793-1.2 0-2.18-1.15-2.18-2.55 0-1.43 1.04-2.57 2.34-2.57.684 0 1.3.26 1.72.564l-.064.705c-.684-.564-1.4-.608-1.65-.608-.869 0-1.56.771-1.6 1.84zm-.619.596h-2.68c.173.825.748 1.37 1.37 1.37.564 0 1.17-.369 1.31-1.37" style=""/><path d="m75.1 118.4v7.53h-.814v-3.19c-.575.476-1.18.597-1.58.597-1.07 0-1.92-1.13-1.92-2.53 0-1.42.836-2.53 1.87-2.53.359 0 .998.097 1.61.683v-.564zm-.847 1.51c0-.152-.0109-.347-.358-.661-.25-.217-.52-.305-.803-.305-.672 0-1.46.511-1.46 1.86 0 1.43.933 1.88 1.57 1.88.488 0 .812-.25 1.05-.597v-2.17" style=""/><path d="m84.4 118.4v7.53h-.814v-3.19c-.575.476-1.18.597-1.58.597-1.07 0-1.92-1.13-1.92-2.53 0-1.42.836-2.53 1.87-2.53.359 0 .998.097 1.61.683v-.564zm-.847 1.51c0-.152-.0109-.347-.358-.661-.25-.217-.52-.305-.803-.305-.672 0-1.46.511-1.46 1.86 0 1.43.933 1.88 1.57 1.88.488 0 .812-.25 1.05-.597v-2.17" style=""/><path d="m89.8 120.8c0 .368-.0109 1.18-.434 1.83-.445.674-1.11.793-1.5.793-1.2 0-2.18-1.15-2.18-2.55 0-1.43 1.04-2.57 2.34-2.57.684 0 1.3.26 1.72.564l-.064.705c-.684-.564-1.4-.608-1.65-.608-.869 0-1.56.771-1.6 1.84zm-.619.596h-2.68c.173.825.748 1.37 1.37 1.37.564 0 1.17-.369 1.31-1.37" style=""/><path d="m94.9 123.2h-.814l-.856-2.26c-.228-.597-.564-1.48-.652-1.99h-.0109c-.0657.391-.347 1.14-.456 1.43l-1.05 2.81h-.847l1.87-4.82h.955l1.87 4.82" style=""/><path d="m99.7 120.8c0 .368-.0109 1.18-.434 1.83-.445.674-1.11.793-1.5.793-1.2 0-2.18-1.15-2.18-2.55 0-1.43 1.04-2.57 2.34-2.57.684 0 1.3.26 1.72.564l-.064.705c-.684-.564-1.4-.608-1.65-.608-.869 0-1.56.771-1.6 1.84zm-.619.596h-2.68c.173.825.748 1.37 1.37 1.37.564 0 1.17-.369 1.31-1.37" style=""/><path d="m101.7 118.4v7.53h-.814v-7.53z" style=""/><path d="m107.7 120.8c0 1.45-1.09 2.61-2.38 2.61-1.34 0-2.39-1.19-2.39-2.61 0-1.43 1.11-2.51 2.38-2.51 1.3 0 2.39 1.1 2.39 2.51zm-.847.107c0-1.28-.737-1.92-1.54-1.92-.749 0-1.53.608-1.53 1.92 0 1.31.825 1.85 1.53 1.85.759 0 1.54-.564 1.54-1.85" style=""/><path d="m113.3 120.8c0 1.3-.683 2.52-1.72 2.52-.652 0-1.28-.229-1.78-.652v.531h-.814v-6.92h.847v2.6c.336-.314.814-.617 1.47-.617 1.05 0 2.01 1.06 2.01 2.54zm-.845 0c0-1.12-.771-1.88-1.58-1.88-.423 0-.717.217-.933.511-.109.163-.109.185-.109.38v2.18c.261.381.684.629 1.15.629.825 0 1.48-.825 1.48-1.82" style=""/><path d="m121.4 118.4v3.23c0 .728-.173 1.7-1.49 1.7-.652 0-1.22-.305-1.62-.891-.281.825-1.04.891-1.39.891-.781 0-1.29-.446-1.58-.836v.781h-.781v-4.88h.847v2.66c0 .739.294 1.62 1.1 1.62 1.01 0 1.06-.705 1.06-1.12v-3.16h.847v2.66c0 .739.292 1.62 1.1 1.62 1.01 0 1.06-.705 1.06-1.12v-3.16h.845" style=""/><path d="m126.9 120.8c0 .368-.011 1.18-.434 1.83-.445.674-1.11.793-1.5.793-1.2 0-2.18-1.15-2.18-2.55 0-1.43 1.04-2.57 2.34-2.57.685 0 1.3.26 1.72.564l-.064.705c-.684-.564-1.4-.608-1.65-.608-.868 0-1.56.771-1.6 1.84zm-.619.596h-2.68c.173.825.748 1.37 1.37 1.37.564 0 1.17-.369 1.31-1.37" style=""/><path d="m131.9 118.4v3.23c0 .717-.162 1.7-1.49 1.7-.977 0-1.51-.74-1.57-.825v.77h-.781v-4.88h.847v2.66c0 .717.272 1.62 1.1 1.62 1.04 0 1.05-.77 1.05-1.12v-3.16h.847" style=""/><path d="m136.5 118.7-.175.641c-.281-.228-.628-.358-.976-.358-.402 0-.554.325-.554.9v2.71h1.53v.628h-1.53v1.38h-.748v-1.38h-.944v-.628h.911v-2.9c0-.65.152-1.41.902-1.41.759 0 1.31.271 1.58.411" style=""/><path d="m143.9 122.6v.729c-.965-.011-1.56-.544-1.9-1.04v.988h-.761v-4.88h.814v2.32c0 1.09.781 1.87 1.84 1.89" style=""/><path d="m148.6 120.8c0 .368-.011 1.18-.434 1.83-.445.674-1.11.793-1.5.793-1.2 0-2.18-1.15-2.18-2.55 0-1.43 1.04-2.57 2.34-2.57.685 0 1.3.26 1.72.564l-.064.705c-.684-.564-1.4-.608-1.65-.608-.868 0-1.56.771-1.6 1.84zm-.619.596h-2.68c.173.825.748 1.37 1.37 1.37.564 0 1.17-.369 1.31-1.37" style=""/><path d="m153.4 118.4v3.14c0 1.11-.793 1.87-1.79 1.87-.705 0-1.19-.174-1.7-.466l.065-.717c.564.401 1.11.544 1.64.544.511 0 .945-.435.945-1.24v-.467c-1.63-.022-3.01-.477-3.01-1.43 0-.468.292-1.35 1.24-1.35.152 0 1.17.022 1.8.51v-.391zm-.846 1.43c0-.206 0-.478-.37-.685-.314-.195-.727-.206-.845-.206-.522 0-1.01.25-1.01.706 0 .76 1.76.835 2.22.857v-.672" style=""/><path d="m158.7 118.8-.065.727c-.554-.434-1.14-.586-1.69-.586-.9 0-1.51.781-1.51 1.84 0 .846.401 1.89 1.55 1.89.564 0 .933-.088 1.53-.478l.129.706c-.64.369-1.01.466-1.67.466-1.51 0-2.39-1.31-2.39-2.59 0-1.34.987-2.53 2.34-2.53.586 0 1.18.152 1.77.553" style=""/><path d="m162.7 118.7-.175.641c-.281-.228-.628-.358-.976-.358-.402 0-.554.325-.554.9v2.71h1.53v.628h-1.53v1.38h-.748v-1.38h-.944v-.628h.911v-2.9c0-.65.152-1.41.902-1.41.759 0 1.31.271 1.58.411" style=""/><path d="m166.9 119.8c0 .597-.401.966-.423.999-.424.379-.716.443-1.26.542-.597.118-1.1.228-1.1.759 0 .674.781.674.922.674.348 0 .923-.044 1.54-.413l.13.705c-.564.261-1.01.347-1.56.347-.271 0-1.8 0-1.8-1.42 0-.533.315-.879.586-1.09.336-.239.575-.281 1.17-.401.39-.075 1.02-.206 1.02-.781 0-.749-.858-.749-1.02-.749-.878 0-1.49.402-1.68.531l-.131-.737c.349-.174.945-.477 1.82-.477.195 0 .792 0 1.26.347.336.26.52.694.52 1.16" style=""/><path d="m174.7 119.8c0 .597-.401.966-.423.999-.424.379-.716.443-1.26.542-.597.118-1.1.228-1.1.759 0 .674.781.674.922.674.348 0 .923-.044 1.54-.413l.13.705c-.564.261-1.01.347-1.56.347-.271 0-1.8 0-1.8-1.42 0-.533.315-.879.586-1.09.336-.239.575-.281 1.17-.401.39-.075 1.02-.206 1.02-.781 0-.749-.858-.749-1.02-.749-.878 0-1.49.402-1.68.531l-.131-.737c.349-.174.945-.477 1.82-.477.195 0 .792 0 1.26.347.336.26.52.694.52 1.16" style=""/><path d="m178.6 118.7-.175.641c-.281-.228-.628-.358-.976-.358-.402 0-.554.325-.554.9v2.71h1.53v.628h-1.53v1.38h-.748v-1.38h-.944v-.628h.911v-2.9c0-.65.152-1.41.902-1.41.759 0 1.31.271 1.58.411" style=""/><path d="m182.4 122.6v.729c-.965-.011-1.56-.544-1.9-1.04v.988h-.761v-4.88h.814v2.32c0 1.09.781 1.87 1.84 1.89" style=""/><path d="m187.7 120.8c0 1.45-1.09 2.61-2.38 2.61-1.34 0-2.39-1.19-2.39-2.61 0-1.43 1.11-2.51 2.38-2.51 1.3 0 2.39 1.1 2.39 2.51zm-.847.107c0-1.28-.737-1.92-1.54-1.92-.749 0-1.53.608-1.53 1.92 0 1.31.825 1.85 1.53 1.85.759 0 1.54-.564 1.54-1.85" style=""/><path d="m192.8 118.4v3.23c0 .717-.162 1.7-1.49 1.7-.977 0-1.51-.74-1.57-.825v.77h-.781v-4.88h.847v2.66c0 .717.272 1.62 1.1 1.62 1.04 0 1.05-.77 1.05-1.12v-3.16h.847" style=""/><path d="m199 122.7-.119.685c-.76 0-1.39-.207-1.72-.349-.226.186-.597.349-1.03.349-.934 0-1.72-.782-1.72-1.77 0-.402.141-.792.358-1.08-.315-.444-.315-.867-.315-.922 0-.283.098-.597.282-.825-.564-.336-.695-.834-.695-1.12 0-.814 1.08-1.47 2.4-1.47 1.33 0 2.41.641 2.41 1.48 0 1.51-1.81 1.51-2.24 1.51h-.955c-.14 0-.629 0-.629.575 0 .121.043.294.12.391.228-.162.586-.314.987-.314.977 0 1.74.803 1.74 1.77 0 .52-.239.922-.357 1.08l.042-.011c.239 0 .544.044.803.044.195 0 .641-.033.641-.033zm-1.89-1.08c0-.847-.511-1.15-.977-1.15-.401 0-.965.248-.965 1.15 0 .9.564 1.15.965 1.15.466 0 .977-.305.977-1.15zm.977-3.95c0-.478-.749-.836-1.64-.836-.879 0-1.65.337-1.65.847 0 .033 0 .737.845.737h.977c.239 0 1.47 0 1.47-.748" style=""/><path d="m200.9 118.4v7.53h-.814v-7.53z" style=""/><path d="m206.6 123.2h-.814c-1.41-3.45-1.43-3.95-1.44-4.2h-.011c-.066.726-.933 2.74-.977 2.84l-.586 1.36h-.857l2.1-4.82-.39-.977c-.282-.629-.466-.629-.618-.629-.175 0-.521.044-.846.173l.065-.704c.238-.055.542-.088.781-.088.38 0 .782.131 1.22 1.24l2.37 5.8" style=""/><path d="m214 118.7-.175.641c-.281-.228-.628-.358-.976-.358-.402 0-.554.325-.554.9v2.71h1.53v.628h-1.53v1.38h-.748v-1.38h-.944v-.628h.911v-2.9c0-.65.152-1.41.902-1.41.759 0 1.31.271 1.58.411" style=""/><path d="m219.5 120.8c0 1.45-1.09 2.61-2.38 2.61-1.34 0-2.39-1.19-2.39-2.61 0-1.43 1.11-2.51 2.38-2.51 1.3 0 2.39 1.1 2.39 2.51zm-.847.107c0-1.28-.737-1.92-1.54-1.92-.749 0-1.53.608-1.53 1.92 0 1.31.825 1.85 1.53 1.85.759 0 1.54-.564 1.54-1.85" style=""/><path d="m227.9 118.8-.065.727c-.554-.434-1.14-.586-1.69-.586-.9 0-1.51.781-1.51 1.84 0 .846.401 1.89 1.55 1.89.564 0 .933-.088 1.53-.478l.129.706c-.64.369-1.01.466-1.67.466-1.51 0-2.39-1.31-2.39-2.59 0-1.34.987-2.53 2.34-2.53.586 0 1.18.152 1.77.553" style=""/><path d="m233.3 120.8c0 1.45-1.09 2.61-2.38 2.61-1.34 0-2.39-1.19-2.39-2.61 0-1.43 1.11-2.51 2.38-2.51 1.3 0 2.39 1.1 2.39 2.51zm-.847.107c0-1.28-.737-1.92-1.54-1.92-.749 0-1.53.608-1.53 1.92 0 1.31.825 1.85 1.53 1.85.759 0 1.54-.564 1.54-1.85" style=""/><path d="m238.7 118.4v7.53h-.814v-3.19c-.575.476-1.18.597-1.58.597-1.07 0-1.92-1.13-1.92-2.53 0-1.42.836-2.53 1.86-2.53.36 0 .999.097 1.61.683v-.564zm-.846 1.51c0-.152-.011-.347-.358-.661-.25-.217-.521-.305-.803-.305-.672 0-1.46.511-1.46 1.86 0 1.43.932 1.88 1.57 1.88.487 0 .812-.25 1.05-.597v-2.17" style=""/><path d="m244.1 120.8c0 .368-.011 1.18-.434 1.83-.445.674-1.11.793-1.5.793-1.2 0-2.18-1.15-2.18-2.55 0-1.43 1.04-2.57 2.34-2.57.685 0 1.3.26 1.72.564l-.064.705c-.684-.564-1.4-.608-1.65-.608-.868 0-1.56.771-1.6 1.84zm-.619.596h-2.68c.173.825.748 1.37 1.37 1.37.564 0 1.17-.369 1.31-1.37" style=""/><path d="m247.5 120.5v.629h-2.88v-.629z" style=""/><path d="m252 119.8c0 .597-.401.966-.423.999-.424.379-.716.443-1.26.542-.597.118-1.1.228-1.1.759 0 .674.781.674.922.674.348 0 .923-.044 1.54-.413l.13.705c-.564.261-1.01.347-1.56.347-.271 0-1.8 0-1.8-1.42 0-.533.315-.879.586-1.09.336-.239.575-.281 1.17-.401.39-.075 1.02-.206 1.02-.781 0-.749-.858-.749-1.02-.749-.878 0-1.49.402-1.68.531l-.131-.737c.349-.174.945-.477 1.82-.477.195 0 .792 0 1.26.347.336.26.52.694.52 1.16" style=""/><path d="m254 118.4v4.82h-.814v-4.82zm.088 6.14v.966h-.966v-.966z" style=""/><path d="m259.3 118.4v.673h-1.6c-.131 0-.261-.01-.39-.01h-.922l2.89 3.73v.423h-3.88v-.639h1.51c.13 0 .261.011.391.011h.847l-2.9-3.74v-.445h4.06" style=""/><path d="m264.1 120.8c0 .368-.011 1.18-.434 1.83-.445.674-1.11.793-1.5.793-1.2 0-2.18-1.15-2.18-2.55 0-1.43 1.04-2.57 2.34-2.57.685 0 1.3.26 1.72.564l-.064.705c-.684-.564-1.4-.608-1.65-.608-.868 0-1.56.771-1.6 1.84zm-.619.596h-2.68c.173.825.748 1.37 1.37 1.37.564 0 1.17-.369 1.31-1.37" style=""/><path d="m272.6 118.8-.065.727c-.554-.434-1.14-.586-1.69-.586-.9 0-1.51.781-1.51 1.84 0 .846.401 1.89 1.55 1.89.564 0 .933-.088 1.53-.478l.129.706c-.64.369-1.01.466-1.67.466-1.51 0-2.39-1.31-2.39-2.59 0-1.34.987-2.53 2.34-2.53.586 0 1.18.152 1.77.553" style=""/><path d="m277.6 118.4v3.23c0 .717-.162 1.7-1.49 1.7-.672 0-1.19-.338-1.54-.782v3.37h-.814v-7.53h.847v2.66c0 .717.272 1.62 1.1 1.62 1.04 0 1.05-.77 1.05-1.12v-3.16h.847" style=""/><path d="m283 118.4v3.14c0 1.11-.793 1.87-1.79 1.87-.705 0-1.19-.174-1.7-.466l.065-.717c.564.401 1.11.544 1.64.544.511 0 .945-.435.945-1.24v-.467c-1.63-.022-3.01-.477-3.01-1.43 0-.468.292-1.35 1.24-1.35.152 0 1.17.022 1.8.51v-.391zm-.846 1.43c0-.206 0-.478-.37-.685-.314-.195-.727-.206-.845-.206-.522 0-1.01.25-1.01.706 0 .76 1.76.835 2.22.857v-.672" style=""/><path d="m288.5 118.4v3.23c0 .717-.162 1.7-1.49 1.7-.977 0-1.51-.74-1.57-.825v.77h-.781v-4.88h.847v2.66c0 .717.272 1.62 1.1 1.62 1.04 0 1.05-.77 1.05-1.12v-3.16h.847" style=""/><path d="m294.8 122.7-.119.685c-.76 0-1.39-.207-1.72-.349-.226.186-.597.349-1.03.349-.934 0-1.72-.782-1.72-1.77 0-.402.141-.792.358-1.08-.315-.444-.315-.867-.315-.922 0-.283.098-.597.282-.825-.564-.336-.695-.834-.695-1.12 0-.814 1.08-1.47 2.4-1.47 1.33 0 2.41.641 2.41 1.48 0 1.51-1.81 1.51-2.24 1.51h-.955c-.14 0-.629 0-.629.575 0 .121.043.294.12.391.228-.162.586-.314.987-.314.977 0 1.74.803 1.74 1.77 0 .52-.239.922-.357 1.08l.042-.011c.239 0 .544.044.803.044.195 0 .641-.033.641-.033zm-1.89-1.08c0-.847-.511-1.15-.977-1.15-.401 0-.965.248-.965 1.15 0 .9.564 1.15.965 1.15.466 0 .977-.305.977-1.15zm.977-3.95c0-.478-.749-.836-1.64-.836-.879 0-1.65.337-1.65.847 0 .033 0 .737.845.737h.977c.239 0 1.47 0 1.47-.748" style=""/><path d="m299.4 120.8c0 .368-.011 1.18-.434 1.83-.445.674-1.11.793-1.5.793-1.2 0-2.18-1.15-2.18-2.55 0-1.43 1.04-2.57 2.34-2.57.685 0 1.3.26 1.72.564l-.064.705c-.684-.564-1.4-.608-1.65-.608-.868 0-1.56.771-1.6 1.84zm-.619.596h-2.68c.173.825.748 1.37 1.37 1.37.564 0 1.17-.369 1.31-1.37" style=""/><path d="m303.7 119.8c0 .597-.401.966-.423.999-.424.379-.716.443-1.26.542-.597.118-1.1.228-1.1.759 0 .674.781.674.922.674.348 0 .923-.044 1.54-.413l.13.705c-.564.261-1.01.347-1.56.347-.271 0-1.8 0-1.8-1.42 0-.533.315-.879.586-1.09.336-.239.575-.281 1.17-.401.39-.075 1.02-.206 1.02-.781 0-.749-.858-.749-1.02-.749-.878 0-1.49.402-1.68.531l-.131-.737c.349-.174.945-.477 1.82-.477.195 0 .792 0 1.26.347.336.26.52.694.52 1.16" style=""/><path d="m305.9 118.4v.9h-.9v-.9z" style=""/><path d="m318.4 118.4v7.53h-.847v-6.76h-.011l-.727 1.49-2.66 5.27h-1.35v-7.53h.846v6.76h.01l.729-1.49 2.66-5.27z" style=""/><path d="m324.6 120.8c0 1.45-1.09 2.61-2.38 2.61-1.34 0-2.39-1.19-2.39-2.61 0-1.43 1.11-2.51 2.38-2.51 1.3 0 2.39 1.1 2.39 2.51zm-.847.107c0-1.28-.737-1.92-1.54-1.92-.749 0-1.53.608-1.53 1.92 0 1.31.825 1.85 1.53 1.85.759 0 1.54-.564 1.54-1.85" style=""/><path d="m328.6 118.7-.175.641c-.281-.228-.628-.358-.976-.358-.402 0-.554.325-.554.9v2.71h1.53v.628h-1.53v1.38h-.748v-1.38h-.944v-.628h.911v-2.9c0-.65.152-1.41.902-1.41.759 0 1.31.271 1.58.411" style=""/><path d="m336.1 118.7-.175.641c-.281-.228-.628-.358-.976-.358-.402 0-.554.325-.554.9v2.71h1.53v.628h-1.53v1.38h-.748v-1.38h-.944v-.628h.911v-2.9c0-.65.152-1.41.902-1.41.759 0 1.31.271 1.58.411" style=""/><path d="m341 120.8c0 .368-.011 1.18-.434 1.83-.445.674-1.11.793-1.5.793-1.2 0-2.18-1.15-2.18-2.55 0-1.43 1.04-2.57 2.34-2.57.685 0 1.3.26 1.72.564l-.064.705c-.684-.564-1.4-.608-1.65-.608-.868 0-1.56.771-1.6 1.84zm-.619.596h-2.68c.173.825.748 1.37 1.37 1.37.564 0 1.17-.369 1.31-1.37" style=""/><path d="m345.8 118.8-.065.727c-.554-.434-1.14-.586-1.69-.586-.9 0-1.51.781-1.51 1.84 0 .846.401 1.89 1.55 1.89.564 0 .933-.088 1.53-.478l.129.706c-.64.369-1.01.466-1.67.466-1.51 0-2.39-1.31-2.39-2.59 0-1.34.987-2.53 2.34-2.53.586 0 1.18.152 1.77.553" style=""/><path d="m350.8 118.4v3.23c0 .717-.162 1.7-1.49 1.7-.672 0-1.19-.338-1.54-.782v3.37h-.814v-7.53h.847v2.66c0 .717.272 1.62 1.1 1.62 1.04 0 1.05-.77 1.05-1.12v-3.16h.847" style=""/><path d="m356.5 118.4v3.23c0 .717-.162 1.7-1.49 1.7-.977 0-1.51-.74-1.57-.825v.77h-.781v-4.88h.847v2.66c0 .717.272 1.62 1.1 1.62 1.04 0 1.05-.77 1.05-1.12v-3.16h.847" style=""/><path d="m359.1 118.4v4.82h-.814v-4.82zm.088 6.14v.966h-.966v-.966z" style=""/><path d="m364.5 118.8-.065.727c-.554-.434-1.14-.586-1.69-.586-.9 0-1.51.781-1.51 1.84 0 .846.401 1.89 1.55 1.89.564 0 .933-.088 1.53-.478l.129.706c-.64.369-1.01.466-1.67.466-1.51 0-2.39-1.31-2.39-2.59 0-1.34.987-2.53 2.34-2.53.586 0 1.18.152 1.77.553" style=""/><path d="m369.3 118.4v3.14c0 1.11-.793 1.87-1.79 1.87-.705 0-1.19-.174-1.7-.466l.065-.717c.564.401 1.11.544 1.64.544.511 0 .945-.435.945-1.24v-.467c-1.63-.022-3.01-.477-3.01-1.43 0-.468.292-1.35 1.24-1.35.152 0 1.17.022 1.8.51v-.391zm-.846 1.43c0-.206 0-.478-.37-.685-.314-.195-.727-.206-.845-.206-.522 0-1.01.25-1.01.706 0 .76 1.76.835 2.22.857v-.672" style=""/><path d="m371.8 118.4v7.53h-.814v-7.53z" style=""/><path d="m374.4 118.4v7.53h-.814v-7.53z" style=""/><path d="m380.1 123.2h-.814c-1.41-3.45-1.43-3.95-1.44-4.2h-.011c-.066.726-.933 2.74-.977 2.84l-.586 1.36h-.857l2.1-4.82-.39-.977c-.282-.629-.466-.629-.618-.629-.175 0-.521.044-.846.173l.065-.704c.238-.055.542-.088.781-.088.38 0 .782.131 1.22 1.24l2.37 5.8" style=""/><path d="m389.2 120.8c0 1.35-.738 2.52-1.76 2.52-.423 0-1.1-.11-1.75-.641v3.23h-.814v-7.53h.847v.498c.261-.237.727-.617 1.46-.617 1.08 0 2.02 1.08 2.02 2.54zm-.845 0c0-1.41-.913-1.88-1.57-1.88-.423 0-.781.196-1.05.696v2.4c.173.261.564.641 1.16.641.641 0 1.47-.467 1.47-1.86" style=""/><path d="m392.8 122.6v.729c-.965-.011-1.56-.544-1.9-1.04v.988h-.761v-4.88h.814v2.32c0 1.09.781 1.87 1.84 1.89" style=""/><path d="m397.5 120.8c0 .368-.011 1.18-.434 1.83-.445.674-1.11.793-1.5.793-1.2 0-2.18-1.15-2.18-2.55 0-1.43 1.04-2.57 2.34-2.57.685 0 1.3.26 1.72.564l-.064.705c-.684-.564-1.4-.608-1.65-.608-.868 0-1.56.771-1.6 1.84zm-.619.596h-2.68c.173.825.748 1.37 1.37 1.37.564 0 1.17-.369 1.31-1.37" style=""/><path d="m402.3 118.4v3.14c0 1.11-.793 1.87-1.79 1.87-.705 0-1.19-.174-1.7-.466l.065-.717c.564.401 1.11.544 1.64.544.511 0 .945-.435.945-1.24v-.467c-1.63-.022-3.01-.477-3.01-1.43 0-.468.292-1.35 1.24-1.35.152 0 1.17.022 1.8.51v-.391zm-.846 1.43c0-.206 0-.478-.37-.685-.314-.195-.727-.206-.845-.206-.522 0-1.01.25-1.01.706 0 .76 1.76.835 2.22.857v-.672" style=""/><path d="m408.2 118.4-2.06 2.95 1.82 1.86h-.977l-2.2-2.26v4.97h-.781v-7.53h.748v1.53l.869.901 1.69-2.43h.891" style=""/><path d="m410.1 118.4v4.82h-.814v-4.82zm.088 6.14v.966h-.966v-.966z" style=""/><path d="m415.8 118.4v3.23c0 .717-.162 1.7-1.49 1.7-.977 0-1.51-.74-1.57-.825v.77h-.781v-4.88h.847v2.66c0 .717.272 1.62 1.1 1.62 1.04 0 1.05-.77 1.05-1.12v-3.16h.847" style=""/><path d="m422 122.7-.119.685c-.76 0-1.39-.207-1.72-.349-.226.186-.597.349-1.03.349-.934 0-1.72-.782-1.72-1.77 0-.402.141-.792.358-1.08-.315-.444-.315-.867-.315-.922 0-.283.098-.597.282-.825-.564-.336-.695-.834-.695-1.12 0-.814 1.08-1.47 2.4-1.47 1.33 0 2.41.641 2.41 1.48 0 1.51-1.81 1.51-2.24 1.51h-.955c-.14 0-.629 0-.629.575 0 .121.043.294.12.391.228-.162.586-.314.987-.314.977 0 1.74.803 1.74 1.77 0 .52-.239.922-.357 1.08l.042-.011c.239 0 .544.044.803.044.195 0 .641-.033.641-.033zm-1.89-1.08c0-.847-.511-1.15-.977-1.15-.401 0-.965.248-.965 1.15 0 .9.564 1.15.965 1.15.466 0 .977-.305.977-1.15zm.977-3.95c0-.478-.749-.836-1.64-.836-.879 0-1.65.337-1.65.847 0 .033 0 .737.845.737h.977c.239 0 1.47 0 1.47-.748" style=""/><path d="m424.1 118.4v.889h-.9v-.9h.27l-.27-1.36h.444l.456 1.37" style=""/><path d="m33.5 107.3c0 1.35-.738 2.52-1.76 2.52-.423 0-1.1-.11-1.75-.641v3.23h-.814v-7.53h.847v.498c.261-.237.727-.617 1.45-.617 1.08 0 2.02 1.08 2.02 2.54zm-.845 0c0-1.41-.912-1.88-1.57-1.88-.424 0-.781.196-1.05.696v2.4c.174.261.564.641 1.16.641.641 0 1.47-.467 1.47-1.86" style=""/><path d="m38.7 104.9v4.82h-.847v-3.15c0-.812-.608-1.19-1.3-1.19-.77 0-.847.281-.847.749v3.59h-.847v-3.63c0-.781.25-1.3 1.15-1.3.575 0 1.35.174 1.88.639v-.52h.814" style=""/><path d="m43.2 105.2-.175.641c-.281-.228-.628-.358-.976-.358-.402 0-.553.325-.553.9v2.71h1.53v.628h-1.53v1.38h-.748v-1.38h-.944v-.628h.911v-2.9c0-.65.152-1.41.902-1.41.759 0 1.31.271 1.58.411" style=""/><path d="m51.6 104.9v3.14c0 1.11-.792 1.87-1.79 1.87-.705 0-1.19-.174-1.7-.466l.0656-.717c.564.401 1.11.544 1.64.544.511 0 .945-.435.945-1.24v-.467c-1.63-.022-3.01-.477-3.01-1.43 0-.468.292-1.35 1.24-1.35.152 0 1.17.022 1.8.51v-.391zm-.845 1.43c0-.206 0-.478-.37-.685-.314-.195-.727-.206-.845-.206-.522 0-1.01.25-1.01.706 0 .76 1.76.835 2.22.857v-.672" style=""/><path d="m57.1 104.9v3.23c0 .717-.162 1.7-1.49 1.7-.976 0-1.51-.74-1.57-.825v.77h-.781v-4.88h.847v2.66c0 .717.272 1.62 1.1 1.62 1.04 0 1.05-.77 1.05-1.12v-3.16h.847" style=""/><path d="m63.4 104.9v4.82h-.814v-4.82zm.0875 6.14v.966h-.966v-.966z" style=""/><path d="m69 104.9v3.23c0 .717-.162 1.7-1.49 1.7-.976 0-1.51-.74-1.57-.825v.77h-.781v-4.88h.847v2.66c0 .717.272 1.62 1.1 1.62 1.04 0 1.05-.77 1.05-1.12v-3.16h.847" style=""/><path d="m74.5 105.3-.0656.727c-.553-.434-1.14-.586-1.69-.586-.9 0-1.51.781-1.51 1.84 0 .846.402 1.89 1.55 1.89.564 0 .933-.088 1.53-.478l.13.706c-.641.369-1.01.466-1.67.466-1.51 0-2.39-1.31-2.39-2.59 0-1.34.988-2.53 2.34-2.53.586 0 1.18.152 1.77.553" style=""/><path d="m78.3 109.1v.729c-.966-.011-1.56-.544-1.9-1.04v.988h-.761v-4.88h.814v2.32c0 1.09.781 1.87 1.85 1.89" style=""/><path d="m83 107.3c0 .368-.0109 1.18-.434 1.83-.445.674-1.11.793-1.5.793-1.2 0-2.18-1.15-2.18-2.55 0-1.43 1.04-2.57 2.34-2.57.684 0 1.3.26 1.72.564l-.064.705c-.684-.564-1.4-.608-1.65-.608-.869 0-1.56.771-1.6 1.84zm-.619.596h-2.68c.173.825.748 1.37 1.37 1.37.564 0 1.17-.369 1.31-1.37" style=""/><path d="m87.8 104.9v3.14c0 1.11-.792 1.87-1.79 1.87-.705 0-1.19-.174-1.7-.466l.0656-.717c.564.401 1.11.544 1.64.544.511 0 .945-.435.945-1.24v-.467c-1.63-.022-3.01-.477-3.01-1.43 0-.468.292-1.35 1.24-1.35.152 0 1.17.022 1.8.51v-.391zm-.845 1.43c0-.206 0-.478-.37-.685-.314-.195-.727-.206-.845-.206-.522 0-1.01.25-1.01.706 0 .76 1.76.835 2.22.857v-.672" style=""/><path d="m92.5 106.3c0 .597-.402.966-.424.999-.423.379-.716.443-1.26.542-.597.118-1.1.228-1.1.759 0 .674.781.674.922.674.348 0 .923-.044 1.54-.413l.13.705c-.564.261-1.01.347-1.56.347-.272 0-1.8 0-1.8-1.42 0-.533.316-.879.586-1.09.336-.239.575-.281 1.17-.401.391-.075 1.02-.206 1.02-.781 0-.749-.858-.749-1.02-.749-.878 0-1.49.402-1.68.531l-.131-.737c.348-.174.945-.477 1.82-.477.195 0 .792 0 1.26.347.336.26.52.694.52 1.16" style=""/><path d="m97.3 107.3c0 .368-.0109 1.18-.434 1.83-.445.674-1.11.793-1.5.793-1.2 0-2.18-1.15-2.18-2.55 0-1.43 1.04-2.57 2.34-2.57.684 0 1.3.26 1.72.564l-.064.705c-.684-.564-1.4-.608-1.65-.608-.869 0-1.56.771-1.6 1.84zm-.619.596h-2.68c.173.825.748 1.37 1.37 1.37.564 0 1.17-.369 1.31-1.37" style=""/><path d="m103 104.9v4.82h-.814v-4.82zm.088 6.14v.966h-.966v-.966z" style=""/><path d="m108.6 104.9v3.23c0 .717-.162 1.7-1.49 1.7-.977 0-1.51-.74-1.57-.825v.77h-.781v-4.88h.847v2.66c0 .717.272 1.62 1.1 1.62 1.04 0 1.05-.77 1.05-1.12v-3.16h.847" style=""/><path d="m117.7 105.3-.065.727c-.554-.434-1.14-.586-1.69-.586-.9 0-1.51.781-1.51 1.84 0 .846.401 1.89 1.55 1.89.564 0 .933-.088 1.53-.478l.129.706c-.64.369-1.01.466-1.67.466-1.51 0-2.39-1.31-2.39-2.59 0-1.34.987-2.53 2.34-2.53.586 0 1.18.152 1.77.553" style=""/><path d="m123.1 107.3c0 1.45-1.09 2.61-2.38 2.61-1.34 0-2.39-1.19-2.39-2.61 0-1.43 1.11-2.51 2.38-2.51 1.3 0 2.39 1.1 2.39 2.51zm-.847.107c0-1.28-.737-1.92-1.54-1.92-.749 0-1.53.608-1.53 1.92 0 1.31.825 1.85 1.53 1.85.759 0 1.54-.564 1.54-1.85" style=""/><path d="m128.5 104.9v7.53h-.814v-3.19c-.575.476-1.18.597-1.58.597-1.07 0-1.92-1.13-1.92-2.53 0-1.42.836-2.53 1.86-2.53.36 0 .999.097 1.61.683v-.564zm-.846 1.51c0-.152-.011-.347-.358-.661-.25-.217-.521-.305-.803-.305-.672 0-1.46.511-1.46 1.86 0 1.43.932 1.88 1.57 1.88.487 0 .812-.25 1.05-.597v-2.17" style=""/><path d="m133.9 107.3c0 .368-.011 1.18-.434 1.83-.445.674-1.11.793-1.5.793-1.2 0-2.18-1.15-2.18-2.55 0-1.43 1.04-2.57 2.34-2.57.685 0 1.3.26 1.72.564l-.064.705c-.684-.564-1.4-.608-1.65-.608-.868 0-1.56.771-1.6 1.84zm-.619.596h-2.68c.173.825.748 1.37 1.37 1.37.564 0 1.17-.369 1.31-1.37" style=""/><path d="m141.8 106.3c0 .597-.401.966-.423.999-.424.379-.716.443-1.26.542-.597.118-1.1.228-1.1.759 0 .674.781.674.922.674.348 0 .923-.044 1.54-.413l.13.705c-.564.261-1.01.347-1.56.347-.271 0-1.8 0-1.8-1.42 0-.533.315-.879.586-1.09.336-.239.575-.281 1.17-.401.39-.075 1.02-.206 1.02-.781 0-.749-.858-.749-1.02-.749-.878 0-1.49.402-1.68.531l-.131-.737c.349-.174.945-.477 1.82-.477.195 0 .792 0 1.26.347.336.26.52.694.52 1.16" style=""/><path d="m143.8 104.9v4.82h-.814v-4.82zm.088 6.14v.966h-.966v-.966z" style=""/><path d="m149.1 104.9v.673h-1.6c-.131 0-.261-.01-.39-.01h-.922l2.89 3.73v.423h-3.88v-.639h1.51c.13 0 .261.011.391.011h.847l-2.9-3.74v-.445h4.06" style=""/><path d="m153.9 107.3c0 .368-.011 1.18-.434 1.83-.445.674-1.11.793-1.5.793-1.2 0-2.18-1.15-2.18-2.55 0-1.43 1.04-2.57 2.34-2.57.685 0 1.3.26 1.72.564l-.064.705c-.684-.564-1.4-.608-1.65-.608-.868 0-1.56.771-1.6 1.84zm-.619.596h-2.68c.173.825.748 1.37 1.37 1.37.564 0 1.17-.369 1.31-1.37" style=""/><path d="m165.6 104.9v3.23c0 .728-.173 1.7-1.49 1.7-.652 0-1.22-.305-1.62-.891-.281.825-1.04.891-1.39.891-.781 0-1.29-.446-1.58-.836v.781h-.781v-4.88h.847v2.66c0 .739.294 1.62 1.1 1.62 1.01 0 1.06-.705 1.06-1.12v-3.16h.847v2.66c0 .739.292 1.62 1.1 1.62 1.01 0 1.06-.705 1.06-1.12v-3.16h.845" style=""/><path d="m170.9 104.9v3.14c0 1.11-.793 1.87-1.79 1.87-.705 0-1.19-.174-1.7-.466l.065-.717c.564.401 1.11.544 1.64.544.511 0 .945-.435.945-1.24v-.467c-1.63-.022-3.01-.477-3.01-1.43 0-.468.292-1.35 1.24-1.35.152 0 1.17.022 1.8.51v-.391zm-.846 1.43c0-.206 0-.478-.37-.685-.314-.195-.727-.206-.845-.206-.522 0-1.01.25-1.01.706 0 .76 1.76.835 2.22.857v-.672" style=""/><path d="m176.3 109.7h-.814c-1.41-3.45-1.43-3.95-1.44-4.2h-.011c-.066.726-.933 2.74-.977 2.84l-.586 1.36h-.857l2.1-4.82-.39-.977c-.282-.629-.466-.629-.618-.629-.175 0-.521.044-.846.173l.065-.704c.238-.055.542-.088.781-.088.38 0 .782.131 1.22 1.24l2.37 5.8" style=""/><path d="m184.7 105.3-.065.727c-.554-.434-1.14-.586-1.69-.586-.9 0-1.51.781-1.51 1.84 0 .846.401 1.89 1.55 1.89.564 0 .933-.088 1.53-.478l.129.706c-.64.369-1.01.466-1.67.466-1.51 0-2.39-1.31-2.39-2.59 0-1.34.987-2.53 2.34-2.53.586 0 1.18.152 1.77.553" style=""/><path d="m189.4 104.9v3.14c0 1.11-.793 1.87-1.79 1.87-.705 0-1.19-.174-1.7-.466l.065-.717c.564.401 1.11.544 1.64.544.511 0 .945-.435.945-1.24v-.467c-1.63-.022-3.01-.477-3.01-1.43 0-.468.292-1.35 1.24-1.35.152 0 1.17.022 1.8.51v-.391zm-.846 1.43c0-.206 0-.478-.37-.685-.314-.195-.727-.206-.845-.206-.522 0-1.01.25-1.01.706 0 .76 1.76.835 2.22.857v-.672" style=""/><path d="m194.9 104.9v4.82h-.847v-3.15c0-.812-.607-1.19-1.3-1.19-.77 0-.847.281-.847.749v3.59h-.847v-3.63c0-.781.25-1.3 1.15-1.3.575 0 1.34.174 1.88.639v-.52h.814" style=""/><path d="m200 106.3c0 .597-.401.966-.423.999-.424.379-.716.443-1.26.542-.597.118-1.1.228-1.1.759 0 .674.781.674.922.674.348 0 .923-.044 1.54-.413l.13.705c-.564.261-1.01.347-1.56.347-.271 0-1.8 0-1.8-1.42 0-.533.315-.879.586-1.09.336-.239.575-.281 1.17-.401.39-.075 1.02-.206 1.02-.781 0-.749-.858-.749-1.02-.749-.878 0-1.49.402-1.68.531l-.131-.737c.349-.174.945-.477 1.82-.477.195 0 .792 0 1.26.347.336.26.52.694.52 1.16" style=""/><path d="m204.6 107.3c0 .368-.011 1.18-.434 1.83-.445.674-1.11.793-1.5.793-1.2 0-2.18-1.15-2.18-2.55 0-1.43 1.04-2.57 2.34-2.57.685 0 1.3.26 1.72.564l-.064.705c-.684-.564-1.4-.608-1.65-.608-.868 0-1.56.771-1.6 1.84zm-.619.596h-2.68c.173.825.748 1.37 1.37 1.37.564 0 1.17-.369 1.31-1.37" style=""/><path d="m213 105.3-.065.727c-.554-.434-1.14-.586-1.69-.586-.9 0-1.51.781-1.51 1.84 0 .846.401 1.89 1.55 1.89.564 0 .933-.088 1.53-.478l.129.706c-.64.369-1.01.466-1.67.466-1.51 0-2.39-1.31-2.39-2.59 0-1.34.987-2.53 2.34-2.53.586 0 1.18.152 1.77.553" style=""/><path d="m218.5 107.3c0 1.45-1.09 2.61-2.38 2.61-1.34 0-2.39-1.19-2.39-2.61 0-1.43 1.11-2.51 2.38-2.51 1.3 0 2.39 1.1 2.39 2.51zm-.847.107c0-1.28-.737-1.92-1.54-1.92-.749 0-1.53.608-1.53 1.92 0 1.31.825 1.85 1.53 1.85.759 0 1.54-.564 1.54-1.85" style=""/><path d="m223.8 104.9v7.53h-.814v-3.19c-.575.476-1.18.597-1.58.597-1.07 0-1.92-1.13-1.92-2.53 0-1.42.836-2.53 1.86-2.53.36 0 .999.097 1.61.683v-.564zm-.846 1.51c0-.152-.011-.347-.358-.661-.25-.217-.521-.305-.803-.305-.672 0-1.46.511-1.46 1.86 0 1.43.932 1.88 1.57 1.88.487 0 .812-.25 1.05-.597v-2.17" style=""/><path d="m229.3 107.3c0 .368-.011 1.18-.434 1.83-.445.674-1.11.793-1.5.793-1.2 0-2.18-1.15-2.18-2.55 0-1.43 1.04-2.57 2.34-2.57.685 0 1.3.26 1.72.564l-.064.705c-.684-.564-1.4-.608-1.65-.608-.868 0-1.56.771-1.6 1.84zm-.619.596h-2.68c.173.825.748 1.37 1.37 1.37.564 0 1.17-.369 1.31-1.37" style=""/><path d="m236.9 105.2-.175.641c-.281-.228-.628-.358-.976-.358-.402 0-.554.325-.554.9v2.71h1.53v.628h-1.53v1.38h-.748v-1.38h-.944v-.628h.911v-2.9c0-.65.152-1.41.902-1.41.759 0 1.31.271 1.58.411" style=""/><path d="m242.3 107.3c0 1.45-1.09 2.61-2.38 2.61-1.34 0-2.39-1.19-2.39-2.61 0-1.43 1.11-2.51 2.38-2.51 1.3 0 2.39 1.1 2.39 2.51zm-.847.107c0-1.28-.737-1.92-1.54-1.92-.749 0-1.53.608-1.53 1.92 0 1.31.825 1.85 1.53 1.85.759 0 1.54-.564 1.54-1.85" style=""/><path d="m251 104.9v3.23c0 .717-.162 1.7-1.49 1.7-.977 0-1.51-.74-1.57-.825v.77h-.781v-4.88h.847v2.66c0 .717.272 1.62 1.1 1.62 1.04 0 1.05-.77 1.05-1.12v-3.16h.847" style=""/><path d="m257 107.3c0 1.45-1.09 2.61-2.38 2.61-1.34 0-2.39-1.19-2.39-2.61 0-1.43 1.11-2.51 2.38-2.51 1.3 0 2.39 1.1 2.39 2.51zm-.847.107c0-1.28-.737-1.92-1.54-1.92-.749 0-1.53.608-1.53 1.92 0 1.31.825 1.85 1.53 1.85.759 0 1.54-.564 1.54-1.85" style=""/><path d="m261 105.2-.175.641c-.281-.228-.628-.358-.976-.358-.402 0-.554.325-.554.9v2.71h1.53v.628h-1.53v1.38h-.748v-1.38h-.944v-.628h.911v-2.9c0-.65.152-1.41.902-1.41.759 0 1.31.271 1.58.411" style=""/><path d="m269.9 111.5v.9h-.901v-.9zm-.043-6.64v4.82h-.814v-4.82zm-1.72 4.19v.628h-1.31v1.31c0 .694.39.857.662.857.228 0 .467-.075.652-.196v.738c-.066.022-.338.12-.652.12-.803 0-1.44-.759-1.44-1.84v-.988h-.803v-.628h.803v-4.19h.814v4.19h1.28" style=""/><path d="m274.4 105.2-.175.641c-.281-.228-.628-.358-.976-.358-.402 0-.554.325-.554.9v2.71h1.53v.628h-1.53v1.38h-.748v-1.38h-.944v-.628h.911v-2.9c0-.65.152-1.41.902-1.41.759 0 1.31.271 1.58.411" style=""/><path d="m280.1 104.9v4.82h-.814v-4.82zm.088 6.14v.966h-.966v-.966z" style=""/><path d="m285.7 104.9v3.23c0 .717-.162 1.7-1.49 1.7-.977 0-1.51-.74-1.57-.825v.77h-.781v-4.88h.847v2.66c0 .717.272 1.62 1.1 1.62 1.04 0 1.05-.77 1.05-1.12v-3.16h.847" style=""/><path d="m290.2 105.2-.175.641c-.281-.228-.628-.358-.976-.358-.402 0-.554.325-.554.9v2.71h1.53v.628h-1.53v1.38h-.748v-1.38h-.944v-.628h.911v-2.9c0-.65.152-1.41.902-1.41.759 0 1.31.271 1.58.411" style=""/><path d="m295.6 107.3c0 1.45-1.09 2.61-2.38 2.61-1.34 0-2.39-1.19-2.39-2.61 0-1.43 1.11-2.51 2.38-2.51 1.3 0 2.39 1.1 2.39 2.51zm-.847.107c0-1.28-.737-1.92-1.54-1.92-.749 0-1.53.608-1.53 1.92 0 1.31.825 1.85 1.53 1.85.759 0 1.54-.564 1.54-1.85" style=""/><path d="m308 104.9v7.53h-1.24l-1.41-3.68c-.382-.988-.891-2.33-1.01-2.84h-.011c-.054.229-.184.63-.347 1.08l-1.7 4.49-.369.944h-1.23v-7.53h.847v6.73h.011c.066-.348.499-1.53.781-2.27l1.61-4.22h.792l1.44 3.78.522 1.38c.108.316.402 1.1.455 1.35l.011-.01v-6.73h.846" style=""/><path d="m315.6 105.4-.064.75c-.316-.218-.63-.424-.999-.533-.347-.119-.726-.13-1.1-.13-.704 0-1.34.38-1.79.933-.5.64-.739 1.44-.739 2.26s.239 1.63.739 2.27c.444.553 1.08.933 1.79.933.327 0 .663-.033.977-.13.327-.098.63-.261.912-.456l.152.89c-.325.13-.662.239-1.01.303-.336.066-.683.088-1.03.088-.954 0-1.83-.434-2.47-1.14-.672-.761-1.02-1.75-1.02-2.76s.348-2 1.02-2.75c.641-.706 1.52-1.14 2.47-1.14.38 0 .761.011 1.13.119.369.097.705.292 1.03.488" style=""/><path d="m322.6 107.4v5h-.846v-5.01c0-1.43-.911-2.15-1.82-2.15-.891 0-1.78.684-1.78 2.15v5.01h-.966v-5c0-1.58 1.27-2.77 2.74-2.77 1.45 0 2.68 1.19 2.68 2.77" style=""/><path d="m331.2 106.3c0 .597-.401.966-.423.999-.424.379-.716.443-1.26.542-.597.118-1.1.228-1.1.759 0 .674.781.674.922.674.348 0 .923-.044 1.54-.413l.13.705c-.564.261-1.01.347-1.56.347-.271 0-1.8 0-1.8-1.42 0-.533.315-.879.586-1.09.336-.239.575-.281 1.17-.401.39-.075 1.02-.206 1.02-.781 0-.749-.858-.749-1.02-.749-.878 0-1.49.402-1.68.531l-.131-.737c.349-.174.945-.477 1.82-.477.195 0 .792 0 1.26.347.336.26.52.694.52 1.16" style=""/><path d="m335.1 105.2-.175.641c-.281-.228-.628-.358-.976-.358-.402 0-.554.325-.554.9v2.71h1.53v.628h-1.53v1.38h-.748v-1.38h-.944v-.628h.911v-2.9c0-.65.152-1.41.902-1.41.759 0 1.31.271 1.58.411" style=""/><path d="m340.5 107.3c0 1.45-1.09 2.61-2.38 2.61-1.34 0-2.39-1.19-2.39-2.61 0-1.43 1.11-2.51 2.38-2.51 1.3 0 2.39 1.1 2.39 2.51zm-.847.107c0-1.28-.737-1.92-1.54-1.92-.749 0-1.53.608-1.53 1.92 0 1.31.825 1.85 1.53 1.85.759 0 1.54-.564 1.54-1.85" style=""/><path d="m344.1 109.1v.729c-.965-.011-1.56-.544-1.9-1.04v.988h-.761v-4.88h.814v2.32c0 1.09.781 1.87 1.84 1.89" style=""/><path d="m348.7 104.9v3.14c0 1.11-.793 1.87-1.79 1.87-.705 0-1.19-.174-1.7-.466l.065-.717c.564.401 1.11.544 1.64.544.511 0 .945-.435.945-1.24v-.467c-1.63-.022-3.01-.477-3.01-1.43 0-.468.292-1.35 1.24-1.35.152 0 1.17.022 1.8.51v-.391zm-.846 1.43c0-.206 0-.478-.37-.685-.314-.195-.727-.206-.845-.206-.522 0-1.01.25-1.01.706 0 .76 1.76.835 2.22.857v-.672" style=""/><path d="m354.8 109.2-.119.685c-.76 0-1.39-.207-1.72-.349-.226.186-.597.349-1.03.349-.934 0-1.72-.782-1.72-1.77 0-.402.141-.792.358-1.08-.315-.444-.315-.867-.315-.922 0-.283.098-.597.282-.825-.564-.336-.695-.834-.695-1.12 0-.814 1.08-1.47 2.4-1.47 1.33 0 2.41.641 2.41 1.48 0 1.51-1.81 1.51-2.24 1.51h-.955c-.14 0-.629 0-.629.575 0 .121.043.294.12.391.228-.162.586-.314.987-.314.977 0 1.74.803 1.74 1.77 0 .52-.239.922-.357 1.08l.042-.011c.239 0 .544.044.803.044.195 0 .641-.033.641-.033zm-1.89-1.08c0-.847-.511-1.15-.977-1.15-.401 0-.965.248-.965 1.15 0 .9.564 1.15.965 1.15.466 0 .977-.305.977-1.15zm.977-3.95c0-.478-.749-.836-1.64-.836-.879 0-1.65.337-1.65.847 0 .033 0 .737.845.737h.977c.239 0 1.47 0 1.47-.748" style=""/><path d="m359.5 107.3c0 .368-.011 1.18-.434 1.83-.445.674-1.11.793-1.5.793-1.2 0-2.18-1.15-2.18-2.55 0-1.43 1.04-2.57 2.34-2.57.685 0 1.3.26 1.72.564l-.064.705c-.684-.564-1.4-.608-1.65-.608-.868 0-1.56.771-1.6 1.84zm-.619.596h-2.68c.173.825.748 1.37 1.37 1.37.564 0 1.17-.369 1.31-1.37" style=""/><path d="m367.9 104.9v3.14c0 1.11-.793 1.87-1.79 1.87-.705 0-1.19-.174-1.7-.466l.065-.717c.564.401 1.11.544 1.64.544.511 0 .945-.435.945-1.24v-.467c-1.63-.022-3.01-.477-3.01-1.43 0-.468.292-1.35 1.24-1.35.152 0 1.17.022 1.8.51v-.391zm-.846 1.43c0-.206 0-.478-.37-.685-.314-.195-.727-.206-.845-.206-.522 0-1.01.25-1.01.706 0 .76 1.76.835 2.22.857v-.672" style=""/><path d="m373.4 104.9v3.23c0 .717-.162 1.7-1.49 1.7-.977 0-1.51-.74-1.57-.825v.77h-.781v-4.88h.847v2.66c0 .717.272 1.62 1.1 1.62 1.04 0 1.05-.77 1.05-1.12v-3.16h.847" style=""/><path d="m379.1 109.7h-.814c-1.41-3.45-1.43-3.95-1.44-4.2h-.011c-.066.726-.933 2.74-.977 2.84l-.586 1.36h-.857l2.1-4.82-.39-.977c-.282-.629-.466-.629-.618-.629-.175 0-.521.044-.846.173l.065-.704c.238-.055.542-.088.781-.088.38 0 .782.131 1.22 1.24l2.37 5.8" style=""/><path d="m387.1 104.9v3.23c0 .728-.173 1.7-1.49 1.7-.652 0-1.22-.305-1.62-.891-.281.825-1.04.891-1.39.891-.781 0-1.29-.446-1.58-.836v.781h-.781v-4.88h.847v2.66c0 .739.294 1.62 1.1 1.62 1.01 0 1.06-.705 1.06-1.12v-3.16h.847v2.66c0 .739.292 1.62 1.1 1.62 1.01 0 1.06-.705 1.06-1.12v-3.16h.845" style=""/><path d="m393.1 107.3c0 1.45-1.09 2.61-2.38 2.61-1.34 0-2.39-1.19-2.39-2.61 0-1.43 1.11-2.51 2.38-2.51 1.3 0 2.39 1.1 2.39 2.51zm-.847.107c0-1.28-.737-1.92-1.54-1.92-.749 0-1.53.608-1.53 1.92 0 1.31.825 1.85 1.53 1.85.759 0 1.54-.564 1.54-1.85" style=""/><path d="m396.7 109.1v.729c-.965-.011-1.56-.544-1.9-1.04v.988h-.761v-4.88h.814v2.32c0 1.09.781 1.87 1.84 1.89" style=""/><path d="m401.4 107.3c0 .368-.011 1.18-.434 1.83-.445.674-1.11.793-1.5.793-1.2 0-2.18-1.15-2.18-2.55 0-1.43 1.04-2.57 2.34-2.57.685 0 1.3.26 1.72.564l-.064.705c-.684-.564-1.4-.608-1.65-.608-.868 0-1.56.771-1.6 1.84zm-.619.596h-2.68c.173.825.748 1.37 1.37 1.37.564 0 1.17-.369 1.31-1.37" style=""/><path d="m403.8 104.9v.9h-.9v-.9z" style=""/></g></g></svg>