<?xml version="1.0" standalone="no"?>
<!DOCTYPE svg PUBLIC "-//W3C//DTD SVG 1.1//EN" "http://www.w3.org/Graphics/SVG/1.1/DTD/svg11.dtd" >
<svg>
<metadata>
Created by FontForge 20110222 at Thu Feb 13 21:42:14 2014
 By deploy user
Copyright (c) 1989, 1991 Adobe Systems Incorporated.  All Rights Reserved. Utopia is either a registered trademark or trademark of Adobe Systems Incorporated in the United States and/or other countries. Used under license. The Utopia fonts are freely available; see http://tug.org/fonts/utopia.

Copyright (c) 2008-2012 Andrey V. Panov (panov@canopus.iacp.dvo.ru).

</metadata>
<defs>
<font id="Heuristica-BoldItalic" horiz-adv-x="634" >
  <font-face 
    font-family="Heuristica"
    font-weight="700"
    font-style="italic"
    font-stretch="normal"
    units-per-em="1000"
    panose-1="2 2 7 3 6 7 5 2 2 4"
    ascent="750"
    descent="-250"
    x-height="490"
    cap-height="692"
    bbox="-500 -377 1297 1140"
    underline-thickness="50"
    underline-position="-100"
    slope="-13"
    unicode-range="U+0020-FB04"
  />
<missing-glyph horiz-adv-x="608" 
d="M170 0v692h428v-692h-428zM213 93l147 253l-147 254v-507zM233 43h302l-151 261zM233 649l151 -260l150 260h-301zM408 346l147 -253v507z" />
    <glyph glyph-name="igrave" unicode="i&#x300;" horiz-adv-x="339" 
d="M108 107l77 285q10 39 -17 42l-58 6l8 33l230 29l6 -6l-103 -381q-13 -47 11 -47q16 0 40 29.5t46 68.5l30 -17q-80 -161 -200 -161q-102 0 -70 119zM104 680q0 19 17.5 39.5t35.5 20.5q15 0 30.5 -10.5t43.5 -39.5l145 -149l-21 -30l-183 103q-33 18 -50.5 33t-17.5 33z
" />
    <glyph glyph-name="iacute" unicode="&#x456;&#x301;" horiz-adv-x="339" 
d="M108 107l77 285q10 39 -17 42l-58 6l8 33l230 29l6 -6l-103 -381q-13 -47 11 -47q16 0 40 29.5t46 68.5l30 -17q-80 -161 -200 -161q-102 0 -70 119zM171 541l145 149q28 29 43.5 39.5t30.5 10.5q18 0 35.5 -20.5t17.5 -39.5q0 -18 -17.5 -33t-50.5 -33l-183 -103z" />
    <glyph glyph-name="icircumflex" unicode="i&#x302;" horiz-adv-x="339" 
d="M73 547l180 173q27 27 48 27q17 0 36 -28l114 -172l-29 -27l-113 96q-19 17 -30 17q-12 0 -38 -17l-145 -96zM108 107l77 285q10 39 -17 42l-58 6l8 33l230 29l6 -6l-103 -381q-13 -47 11 -47q16 0 40 29.5t46 68.5l30 -17q-80 -161 -200 -161q-102 0 -70 119z" />
    <glyph glyph-name="idieresis" unicode="i&#x308;" horiz-adv-x="339" 
d="M108 107l77 285q10 39 -17 42l-58 6l8 33l230 29l6 -6l-103 -381q-13 -47 11 -47q16 0 40 29.5t46 68.5l30 -17q-80 -161 -200 -161q-102 0 -70 119zM321 635q0 30 21.5 52.5t57.5 22.5q37 0 58 -22t21 -53q0 -30 -21 -52t-58 -22q-36 0 -57.5 22t-21.5 52zM81 635
q0 30 21.5 52.5t57.5 22.5q37 0 58 -22t21 -53q0 -30 -21 -52t-58 -22q-36 0 -57.5 22t-21.5 52z" />
    <glyph glyph-name="Aogonek" unicode="A&#x328;" 
d="M-24 0l7 38l27 3q23 2 36.5 11.5t28.5 34.5q39 63 151 262l194 343h118l34 -317q4 -37 15 -144.5t15 -144.5q3 -24 9 -34t22 -11l41 -3l-8 -38h-115q-83 -67 -83 -133q0 -55 49 -55q24 0 50 13l14 -27q-59 -40 -107 -40q-64 0 -86 25.5t-22 65.5q0 39 43.5 82.5
t95.5 68.5h-139l8 38l52 4q26 1 23 37l-15 167h-200q-18 -33 -47 -90.5t-39 -76.5q-18 -36 13 -37l56 -4l-7 -38h-234zM260 294h169l-24 261h-2q-11 -18 -70 -126t-73 -135z" />
    <glyph glyph-name="imacron" unicode="i&#x304;" horiz-adv-x="339" 
d="M140 592l15 72h311l-15 -72h-311zM108 107l77 285q10 39 -17 42l-58 6l8 33l230 29l6 -6l-103 -381q-13 -47 11 -47q16 0 40 29.5t46 68.5l30 -17q-80 -161 -200 -161q-102 0 -70 119z" />
    <glyph glyph-name="ibreve" unicode="i&#x306;" horiz-adv-x="339" 
d="M167 714h34q-4 -10 -0.5 -23t11 -24.5t31 -19.5t58.5 -8q115 0 144 75h34q-14 -73 -56.5 -115.5t-137.5 -42.5q-40 0 -67.5 9.5t-41 25t-18 37t-2 42t10.5 44.5zM108 107l77 285q10 39 -17 42l-58 6l8 33l230 29l6 -6l-103 -381q-13 -47 11 -47q16 0 40 29.5t46 68.5
l30 -17q-80 -161 -200 -161q-102 0 -70 119z" />
    <glyph glyph-name="jcircumflex" unicode="j&#x302;" horiz-adv-x="333" 
d="M118 547l180 173q27 27 48 27q17 0 36 -28l114 -172l-29 -27l-113 96q-19 17 -30 17q-12 0 -38 -17l-145 -96zM-85 -174q0 21 19.5 40.5t40.5 19.5q9 0 17 -6.5t10.5 -10t11.5 -16.5q32 -49 45 -49q11 0 19 34l122 553q9 40 -15 43l-64 6l7 33l232 29l7 -5l-115 -502
q-34 -146 -91 -196q-49 -41 -120 -41q-61 0 -93.5 19.5t-32.5 48.5z" />
    <glyph glyph-name="uni01D0" unicode="i&#x30c;" horiz-adv-x="339" 
d="M128 720l29 27l113 -96q19 -17 30 -17q12 0 38 17l145 96l23 -27l-180 -173q-27 -27 -48 -27q-17 0 -36 28zM108 107l77 285q10 39 -17 42l-58 6l8 33l230 29l6 -6l-103 -381q-13 -47 11 -47q16 0 40 29.5t46 68.5l30 -17q-80 -161 -200 -161q-102 0 -70 119z" />
    <glyph glyph-name="uni01F0" unicode="j&#x30c;" horiz-adv-x="333" 
d="M151 720l29 27l113 -96q19 -17 30 -17q12 0 38 17l145 96l23 -27l-180 -173q-27 -27 -48 -27q-17 0 -36 28zM-85 -174q0 21 19.5 40.5t40.5 19.5q9 0 17 -6.5t10.5 -10t11.5 -16.5q32 -49 45 -49q11 0 19 34l122 553q9 40 -15 43l-64 6l7 33l232 29l7 -5l-115 -502
q-34 -146 -91 -196q-49 -41 -120 -41q-61 0 -93.5 19.5t-32.5 48.5z" />
    <glyph glyph-name="f_b" unicode="fb" horiz-adv-x="934" 
d="M-94 -168q0 23 18 41t42 18q22 0 39 -31q31 -56 47 -56q13 0 19 27l123 611h-89l14 48h86l4 15q10 38 21 67t32 62.5t47.5 55.5t69 37t94.5 15q73 0 125 -41l110 41l16 -10l-109 -428h5q108 198 243 198q56 0 84 -34.5t28 -92.5q0 -38 -16 -100t-49 -121
q-92 -166 -265 -166q-96 0 -143 56l-37 -44l-48 5l132 586q-5 55 -28 80t-50 25q-36 0 -62.5 -35t-47.5 -127l-10 -44h118l-12 -48h-115l-97 -414q-33 -139 -83 -204.5t-136 -65.5q-56 0 -88 20.5t-32 53.5zM785 422q-40 0 -86.5 -57t-77 -131t-30.5 -125q0 -75 59 -75
q39 0 73 40t54.5 95.5t32 108t11.5 85.5q0 59 -36 59z" />
    <glyph glyph-name="f_h" unicode="fh" horiz-adv-x="965" 
d="M-94 -168q0 23 18 41t42 18q10 0 18.5 -5.5t11 -9.5t9.5 -16q32 -56 47 -56q13 0 19 27l123 611h-89l14 48h86l4 15q12 45 27.5 80t45 74t78 61t113.5 22q73 0 125 -41l110 41l16 -10l-105 -437h5q46 88 110.5 147.5t137.5 59.5q58 0 78.5 -43t-2.5 -112l-72 -232
q-13 -47 11 -47q16 0 40.5 30t45.5 69l29 -15q-75 -164 -196 -164q-49 0 -69 32t-2 93l74 251q8 28 2.5 43t-22.5 15q-36 0 -88 -65.5t-82 -143.5q-25 -62 -65 -213l-139 -12l134 603q-5 55 -28 80t-50 25q-35 0 -62.5 -35.5t-47.5 -126.5l-10 -44h118l-12 -48h-115
l-97 -414q-33 -139 -83 -204.5t-136 -65.5q-56 0 -88 20.5t-32 53.5z" />
    <glyph glyph-name="f_j" unicode="fj" horiz-adv-x="636" 
d="M-94 -168q0 23 18 41t42 18q10 0 18.5 -5.5t11 -9.5t9.5 -16q32 -56 47 -56q13 0 19 27l123 611h-89l14 48h87l6 26q54 226 271 226q90 0 142.5 -33t52.5 -78q0 -35 -27 -52.5t-61 -17.5q-17 0 -27.5 8t-13.5 15.5t-6 20.5q-19 91 -73 91q-71 0 -108 -161l-10 -45h96
q97 0 215 11l6 -7l-109 -478q-32 -138 -89 -192q-50 -48 -125 -48q-46 0 -78.5 18.5t-32.5 48.5q0 20 18.5 38t40.5 18q24 0 37 -29t20 -37t15 -8q12 0 20 34l117 533q6 30 -2.5 40t-35.5 10h-123l-97 -414q-63 -270 -219 -270q-56 0 -88 20.5t-32 53.5z" />
    <glyph glyph-name="f_k" unicode="fk" horiz-adv-x="907" 
d="M-94 -168q0 23 18 41t42 18q22 0 39 -31q31 -56 47 -56q13 0 19 27l123 611h-89l14 48h86l4 15q62 237 264 237q73 0 125 -41l110 41l16 -10l-171 -732l-142 -12l138 603q-5 55 -28 80t-50 25q-73 0 -110 -162l-10 -44h118l-12 -48h-115l-97 -414q-33 -139 -83 -204.5
t-136 -65.5q-56 0 -88 20.5t-32 53.5zM622 254q17 27 50 64q35 40 59 65t58.5 56.5t65.5 47t59 15.5q29 0 45.5 -17.5t16.5 -41.5q0 -32 -17 -55t-44 -23q-20 0 -45 18q-28 21 -44 21q-27 0 -90 -72q27 -108 69 -215q19 -49 41 -49q23 0 73 85l31 -16q-63 -149 -168 -149
q-74 0 -108 91q-29 75 -52 175z" />
    <glyph glyph-name="longs_b" unicode="&#x17f;b" horiz-adv-x="920" 
d="M-94 -168q0 23 18 41t42 18q10 0 18.5 -5.5t11 -9.5t9.5 -16q32 -56 47 -56q13 0 19 27l123 611h-89l14 48h86l4 16q7 30 17.5 58t31.5 62t48 58.5t69 41t92 16.5q71 0 119 -41l110 41l16 -10l-111 -428h5q108 198 243 198q56 0 84 -34.5t28 -92.5q0 -38 -16 -100
t-49 -121q-92 -166 -265 -166q-96 0 -143 56l-37 -44l-48 5l134 586q-4 54 -26 79.5t-46 25.5q-67 0 -103 -160l-117 -508q-32 -139 -82.5 -204.5t-136.5 -65.5q-56 0 -88 20.5t-32 53.5zM577 109q0 -75 59 -75q39 0 73 40t54.5 95.5t32 108t11.5 85.5q0 59 -36 59
q-65 0 -140 -138q-23 -44 -38.5 -93.5t-15.5 -81.5z" />
    <glyph glyph-name="longs_h" unicode="&#x17f;h" horiz-adv-x="955" 
d="M-94 -168q0 23 18 41t42 18q10 0 18.5 -5.5t11 -9.5t9.5 -16q32 -56 47 -56q13 0 19 27l123 611h-89l14 48h86l4 16q9 39 25 74.5t45 75t78 63t111 23.5q72 0 120 -41l110 41l16 -10l-105 -437h5q46 88 110.5 147.5t137.5 59.5q58 0 78.5 -43t-2.5 -112l-72 -232
q-13 -47 11 -47q16 0 40.5 30t45.5 69l29 -15q-75 -164 -196 -164q-49 0 -69 32t-2 93l74 251q8 28 2.5 43t-22.5 15q-36 0 -88 -65.5t-82 -143.5q-25 -62 -65 -213l-139 -12l134 603q-4 54 -26.5 79.5t-46.5 25.5q-68 0 -104 -160l-117 -508q-32 -139 -82.5 -204.5
t-136.5 -65.5q-56 0 -88 20.5t-32 53.5z" />
    <glyph glyph-name="longs_i" unicode="&#x17f;i" horiz-adv-x="643" 
d="M-94 -168q0 23 18 41t42 18q10 0 18.5 -5.5t11 -9.5t9.5 -16q32 -56 47 -56q13 0 19 27l123 611h-89l14 48h87l6 26q51 226 268 226q88 0 140 -33t52 -78q0 -35 -27.5 -52.5t-62.5 -17.5q-18 0 -28 8t-12.5 15.5t-4.5 20.5q-6 44 -26 67.5t-44 23.5q-69 0 -105 -160
l-117 -508q-33 -140 -82 -204t-137 -66q-56 0 -88 20.5t-32 53.5zM413 107l77 285q10 39 -17 42l-58 6l8 33l230 29l6 -6l-103 -381q-13 -47 11 -47q16 0 40 29.5t46 68.5l29 -15q-76 -163 -199 -163q-102 0 -70 119z" />
    <glyph glyph-name="longs_k" unicode="&#x17f;k" horiz-adv-x="897" 
d="M-94 -168q0 23 18 41t42 18q10 0 18.5 -5.5t11 -9.5t9.5 -16q32 -56 47 -56q13 0 19 27l123 611h-89l14 48h86l4 16q9 39 25 74.5t45 75t78 63t111 23.5q72 0 120 -41l110 41l16 -10l-171 -732l-142 -12l138 603q-4 54 -26.5 79.5t-46.5 25.5q-68 0 -104 -160l-117 -508
q-32 -139 -82.5 -204.5t-136.5 -65.5q-56 0 -88 20.5t-32 53.5zM612 254q17 27 50 64q35 40 59 65t58.5 56.5t65.5 47t59 15.5q29 0 45.5 -17.5t16.5 -41.5q0 -32 -17 -55t-44 -23q-20 0 -45 18q-28 21 -44 21q-27 0 -90 -72q27 -108 69 -215q19 -49 41 -49q23 0 73 85
l31 -16q-63 -149 -168 -149q-74 0 -108 91q-29 75 -52 175z" />
    <glyph glyph-name="longs_l" unicode="&#x17f;l" horiz-adv-x="644" 
d="M-94 -168q0 23 18 41t42 18q10 0 18.5 -5.5t11 -9.5t9.5 -16q32 -56 47 -56q13 0 19 27l123 611h-89l14 48h86l4 16q7 30 17.5 58t31.5 62t48 58.5t69 41t92 16.5q71 0 119 -41l110 41l16 -10l-150 -617q-12 -47 11 -47q16 0 41 29.5t46 68.5l31 -18q-79 -160 -197 -160
q-103 0 -72 127l115 476q-4 54 -26 79.5t-46 25.5q-67 0 -103 -160l-117 -508q-32 -139 -82.5 -204.5t-136.5 -65.5q-56 0 -88 20.5t-32 53.5z" />
    <glyph glyph-name="longs_longs" unicode="&#x17f;&#x17f;" horiz-adv-x="659" 
d="M-94 -168q0 23 18 41t42 18q10 0 18.5 -5.5t11 -9.5t9.5 -16q32 -56 47 -56q13 0 19 27l123 611h-89l14 48h87l5 21q6 26 16.5 51.5t31.5 57t48 54.5t70.5 38.5t95.5 15.5q40 0 77 -18t54 -40q63 72 159 72q63 0 103.5 -25.5t40.5 -61.5q0 -26 -22 -43t-47 -17
q-27 0 -42 30q-19 41 -31.5 56t-24.5 15q-23 0 -37 -60l-140 -608q-31 -135 -79.5 -193.5t-131.5 -58.5q-48 0 -81.5 20.5t-33.5 47.5q0 18 19.5 37t40.5 19q18 0 36 -30q18 -31 25 -39.5t15 -8.5q12 0 19 32l120 588h-88l13 48h86q12 47 28 89q-10 48 -35 75.5t-50 27.5
q-32 0 -57 -31.5t-48 -121.5l-116 -501q-63 -270 -224 -270q-49 0 -82 21.5t-33 52.5z" />
    <glyph glyph-name="longs_longs_i" unicode="&#x17f;&#x17f;i" horiz-adv-x="961" 
d="M-94 -168q0 23 18 41t42 18q10 0 18.5 -5.5t11 -9.5t9.5 -16q32 -56 47 -56q13 0 19 27l123 611h-89l14 48h87l5 21q6 26 16.5 51.5t31.5 57t48 54.5t70.5 38.5t95.5 15.5q40 0 78 -19t55 -41q70 74 192 74q88 0 140 -33t52 -78q0 -35 -27.5 -52.5t-62.5 -17.5
q-18 0 -28 8t-12.5 15.5t-4.5 20.5q-6 44 -26 67.5t-44 23.5q-69 0 -105 -160l-117 -508q-31 -135 -79.5 -193.5t-131.5 -58.5q-48 0 -81.5 20.5t-33.5 47.5q0 18 19.5 37t40.5 19q18 0 36 -30q18 -31 25 -39.5t15 -8.5q12 0 19 32l120 588h-88l13 48h86q12 47 28 89
q-10 48 -35 75.5t-50 27.5q-32 0 -57 -31.5t-48 -121.5l-116 -501q-63 -270 -224 -270q-49 0 -82 21.5t-33 52.5zM731 107l77 285q10 39 -17 42l-58 6l8 33l230 29l6 -6l-103 -381q-13 -47 11 -47q16 0 40 29.5t46 68.5l29 -15q-76 -163 -199 -163q-102 0 -70 119z" />
    <glyph glyph-name="longs_longs_l" unicode="&#x17f;&#x17f;l" horiz-adv-x="963" 
d="M-94 -168q0 23 18 41t42 18q10 0 18.5 -5.5t11 -9.5t9.5 -16q32 -56 47 -56q13 0 19 27l123 611h-89l14 48h87l5 21q6 26 16.5 51.5t31.5 57t48 54.5t70.5 38.5t95.5 15.5q40 0 78.5 -19.5t55.5 -41.5q65 75 178 75q71 0 119 -41l110 41l16 -10l-150 -617q-12 -47 11 -47
q16 0 41 29.5t46 68.5l31 -18q-79 -160 -197 -160q-103 0 -72 127l115 476q-4 54 -26 79.5t-46 25.5q-66 0 -103 -160l-117 -508q-31 -135 -79.5 -193.5t-131.5 -58.5q-48 0 -81.5 20.5t-33.5 47.5q0 18 19.5 37t40.5 19q18 0 36 -30q18 -31 25 -39.5t15 -8.5q12 0 19 32
l120 588h-88l13 48h86q12 47 28 89q-10 48 -35 75.5t-50 27.5q-32 0 -57 -31.5t-48 -121.5l-116 -501q-63 -270 -224 -270q-49 0 -82 21.5t-33 52.5z" />
    <glyph glyph-name="ff" unicode="ff" horiz-adv-x="670" 
d="M-94 -168q0 23 18 41t42 18q10 0 18.5 -5.5t11 -9.5t9.5 -16q32 -56 47 -56q13 0 19 27l123 611h-89l14 48h87l5 21q8 34 23.5 66.5t45 69t80 59t115.5 22.5q41 0 77.5 -18t55.5 -40q63 72 159 72q63 0 103 -26t40 -62q0 -26 -22 -43t-47 -17q-27 0 -42 30
q-20 42 -31.5 57t-23.5 15q-22 0 -36 -60l-35 -146h128l-12 -48h-125l-97 -414q-32 -136 -80 -194t-131 -58q-48 0 -82.5 20.5t-34.5 47.5q0 18 19.5 37t40.5 19q20 0 38 -30q18 -31 25 -39.5t15 -8.5q12 0 19 32l120 588h-174l-97 -414q-63 -270 -224 -270q-49 0 -82 21.5
t-33 52.5zM351 490h176q12 47 28 89q-11 49 -36 76t-51 27q-34 0 -59 -31.5t-48 -121.5z" />
    <glyph glyph-name="fi" unicode="fi" horiz-adv-x="651" 
d="M-94 -168q0 23 18 41t42 18q10 0 18.5 -5.5t11 -9.5t9.5 -16q32 -56 47 -56q13 0 19 27l123 611h-89l14 48h86h1l6 26q54 226 272 226q91 0 143.5 -32.5t52.5 -78.5q0 -35 -27.5 -52.5t-62.5 -17.5q-18 0 -28 8.5t-12 14.5t-5 21q-19 91 -74 91q-35 0 -62 -35.5
t-47 -124.5l-10 -46h94q97 0 215 11l6 -7l-103 -379q-13 -47 11 -47q16 0 40 29.5t46 68.5l29 -14q-75 -164 -197 -164q-104 0 -72 119l77 286q7 29 -1 39t-34 10h-121l-97 -414q-33 -140 -82 -204t-137 -66q-56 0 -88 20.5t-32 53.5z" />
    <glyph glyph-name="fl" unicode="fl" horiz-adv-x="652" 
d="M-94 -168q0 23 18 41t42 18q10 0 18.5 -5.5t11 -9.5t9.5 -16q32 -56 47 -56q13 0 19 27l123 611h-89l14 48h86l4 16q55 236 262 236q71 0 123 -41l110 41l16 -10l-150 -617q-12 -47 11 -47q16 0 41 29.5t46 68.5l31 -18q-79 -160 -197 -160q-103 0 -72 127l115 476
q-5 55 -27.5 80t-48.5 25q-34 0 -61 -35.5t-47 -124.5l-10 -46h118l-12 -48h-115l-97 -414q-33 -139 -83 -204.5t-136 -65.5q-56 0 -88 20.5t-32 53.5z" />
    <glyph glyph-name="ffi" unicode="ffi" horiz-adv-x="973" 
d="M-94 -168q0 23 18 41t42 18q10 0 18.5 -5.5t11 -9.5t9.5 -16q32 -56 47 -56q13 0 19 27l123 611h-89l14 48h87l5 21q8 34 23.5 66.5t45 69t80 59t115.5 22.5q41 0 79 -19t57 -41q30 35 82.5 54.5t112.5 19.5q91 0 143.5 -32.5t52.5 -78.5q0 -35 -27.5 -52.5t-62.5 -17.5
q-18 0 -28 8.5t-12 14.5t-5 21q-19 91 -74 91q-35 0 -62 -35.5t-47 -124.5l-10 -46h94q97 0 215 11l6 -7l-103 -379q-13 -47 11 -47q16 0 40 29.5t46 68.5l29 -14q-75 -164 -197 -164q-104 0 -72 119l77 286q7 29 -1 39t-34 10h-121l-97 -414q-32 -136 -80 -194t-131 -58
q-48 0 -82.5 20.5t-34.5 47.5q0 18 19.5 37t40.5 19q20 0 38 -30q18 -31 25 -39.5t15 -8.5q12 0 19 32l120 588h-174l-97 -414q-63 -270 -224 -270q-49 0 -82 21.5t-33 52.5zM351 490h176q12 47 28 89q-11 49 -36 76t-51 27q-34 0 -59 -31.5t-48 -121.5z" />
    <glyph glyph-name="ffl" unicode="ffl" horiz-adv-x="974" 
d="M-94 -168q0 23 18 41t42 18q10 0 18.5 -5.5t11 -9.5t9.5 -16q32 -56 47 -56q13 0 19 27l123 611h-89l14 48h87l5 21q8 34 23.5 66.5t45 69t80 59t115.5 22.5q41 0 79 -19t57 -41q63 74 182 74q71 0 123 -41l110 41l16 -10l-150 -617q-12 -47 11 -47q16 0 41 29.5t46 68.5
l31 -18q-79 -160 -197 -160q-103 0 -72 127l115 476q-5 55 -27.5 80t-48.5 25q-34 0 -61 -35.5t-47 -124.5l-10 -46h118l-12 -48h-115l-97 -414q-32 -136 -80 -194t-131 -58q-48 0 -82.5 20.5t-34.5 47.5q0 18 19.5 37t40.5 19q20 0 38 -30q18 -31 25 -39.5t15 -8.5
q12 0 19 32l120 588h-174l-97 -414q-63 -270 -224 -270q-49 0 -82 21.5t-33 52.5zM351 490h176q12 47 28 89q-11 49 -36 76t-51 27q-34 0 -59 -31.5t-48 -121.5z" />
    <glyph glyph-name="esh_i" unicode="&#x283;i" horiz-adv-x="643" 
d="M-96 -168q0 23 18.5 42t42.5 19q23 0 40 -33q27 -56 47 -56q13 0 19 27l37 195l98 468q7 33 17.5 62t32 65t50 61t74 42.5t100.5 17.5q88 0 140 -33t52 -78q0 -35 -27.5 -52.5t-62.5 -17.5q-18 0 -28 8t-12.5 15.5t-4.5 20.5q-6 45 -26 68t-47 23q-66 0 -106 -175
l-113 -493q-32 -138 -83.5 -204t-135.5 -66q-58 0 -90 19.5t-32 54.5zM413 107l77 285q10 39 -17 42l-58 6l8 33l230 29l6 -6l-103 -381q-13 -47 11 -47q16 0 40 29.5t46 68.5l29 -15q-76 -163 -199 -163q-102 0 -70 119z" />
    <glyph glyph-name="esh_k" unicode="&#x283;k" horiz-adv-x="897" 
d="M-96 -168q0 23 18.5 42t42.5 19q23 0 40 -33q27 -56 47 -56q13 0 19 27l37 195l98 468q9 41 25.5 79.5t46 79t78.5 65t112 24.5q72 0 120 -41l110 41l16 -10l-171 -732l-142 -12l138 603q-4 54 -26.5 79.5t-46.5 25.5q-67 0 -104 -160l-117 -508q-32 -138 -83.5 -204
t-135.5 -66q-58 0 -90 19.5t-32 54.5zM612 254q17 27 50 64q35 40 59 65t58.5 56.5t65.5 47t59 15.5q29 0 45.5 -17.5t16.5 -41.5q0 -32 -17 -55t-44 -23q-20 0 -45 18q-28 21 -44 21q-27 0 -90 -72q27 -108 69 -215q19 -49 41 -49q23 0 73 85l31 -16q-63 -149 -168 -149
q-74 0 -108 91q-29 75 -52 175z" />
    <glyph glyph-name="esh_l" unicode="&#x283;l" horiz-adv-x="645" 
d="M-96 -168q0 23 18.5 42t42.5 19q23 0 40 -33q27 -56 47 -56q13 0 19 27l37 195l98 468q7 32 18 62.5t32 65.5t48.5 60.5t70 42.5t92.5 17q71 0 119 -41l110 41l16 -10l-150 -617q-12 -47 11 -47q16 0 41 29.5t46 68.5l31 -18q-79 -160 -197 -160q-103 0 -72 127l115 476
q-4 54 -26 79.5t-46 25.5q-66 0 -103 -160l-117 -508q-32 -138 -83.5 -204t-135.5 -66q-58 0 -90 19.5t-32 54.5z" />
    <glyph glyph-name=".notdef" horiz-adv-x="608" 
d="M170 0v692h428v-692h-428zM213 93l147 253l-147 254v-507zM233 43h302l-151 261zM233 649l151 -260l150 260h-301zM408 346l147 -253v507z" />
    <glyph glyph-name=".notdef" horiz-adv-x="608" 
d="M170 0v692h428v-692h-428zM213 93l147 253l-147 254v-507zM233 43h302l-151 261zM233 649l151 -260l150 260h-301zM408 346l147 -253v507z" />
    <glyph glyph-name=".null" horiz-adv-x="0" 
 />
    <glyph glyph-name="nonmarkingreturn" horiz-adv-x="333" 
 />
    <glyph glyph-name="space" unicode=" " horiz-adv-x="210" 
 />
    <glyph glyph-name="exclam" unicode="!" horiz-adv-x="285" 
d="M160 217l36 386q6 57 25.5 80.5t77.5 23.5q59 0 69.5 -25.5t-12.5 -78.5l-141 -386h-55zM70 67q0 45 27.5 72t68.5 27t62.5 -22.5t21.5 -55.5q0 -45 -27 -72.5t-66 -27.5q-43 0 -65 22.5t-22 56.5z" />
    <glyph glyph-name="quotedbl" unicode="&#x22;" horiz-adv-x="455" 
d="M177 407l8 223q1 40 19.5 58.5t63.5 18.5t56.5 -18.5t-6.5 -58.5l-95 -223h-46zM380 407l8 223q1 40 19.5 58.5t63.5 18.5t56.5 -18.5t-6.5 -58.5l-95 -223h-46z" />
    <glyph glyph-name="numbersign" unicode="#" horiz-adv-x="560" 
d="M72 219l26 72h106l38 107h-107l26 72h106l70 198h76l-69 -198h112l70 198h75l-69 -198h109l-26 -72h-108l-38 -107h109l-26 -72h-108l-77 -219h-76l77 219h-112l-77 -219h-77l77 219h-107zM281 291h112l38 107h-112z" />
    <glyph glyph-name="dollar" unicode="$" horiz-adv-x="560" 
d="M67 120q1 32 22.5 51t50.5 19q34 0 44 -33q31 -106 76 -108l55 242q-159 72 -157 182q1 88 68.5 141.5t175.5 53.5l19 80h54l-19 -82q62 -4 115 -35.5t52 -79.5q-1 -21 -22.5 -36.5t-48.5 -15.5q-28 0 -39 35q-25 79 -68 85l-49 -214q86 -37 130 -83t43 -124
q0 -36 -14 -69.5t-43 -63.5t-82.5 -47.5t-124.5 -17.5l-23 -104h-55l23 106q-80 4 -132 38t-51 80zM281 522q0 -59 66 -91l44 191q-42 0 -75.5 -27.5t-34.5 -72.5zM314 46q47 -4 86 23t40 86q1 76 -76 112z" />
    <glyph glyph-name="percent" unicode="%" horiz-adv-x="896" 
d="M141 447q0 39 16.5 90t55.5 89q55 54 144 54q57 0 110 -33q23 -14 78 -14h122q59 0 97 44l21 25l43 -36l-573 -697l-41 38l478 581h-193q6 -32 6 -49q0 -73 -38 -137q-55 -94 -180 -94q-78 0 -112 39t-34 100zM250 417q0 -69 45 -69q29 0 50 28t31.5 68t15 72t4.5 52
q0 72 -43 72q-28 0 -49.5 -29t-32.5 -70t-16 -73.5t-5 -50.5zM531 127q0 39 16.5 90t55.5 89q55 54 144 54q149 0 149 -141q0 -73 -37 -137q-55 -94 -182 -94q-78 0 -112 39t-34 100zM640 97q0 -69 46 -69q28 0 49.5 28t31.5 68t15 72t5 52q0 72 -44 72q-28 0 -49.5 -29
t-32.5 -70t-16 -73.5t-5 -50.5z" />
    <glyph glyph-name="ampersand" unicode="&#x26;" horiz-adv-x="752" 
d="M97 171q0 36 13 67.5t28 50t44.5 38t44 26.5t44.5 21q-27 54 -27 106q0 89 56.5 144.5t138.5 55.5q71 0 117.5 -37.5t46.5 -99.5q0 -37 -15 -65.5t-44.5 -48.5t-55.5 -31.5t-65 -24.5q66 -108 152 -200q59 70 73 244q23 17 56 23.5t57 3.5q13 -26 10.5 -57.5t-16.5 -56.5
q-61 -115 -147 -192q79 -84 143 -112l-5 -33l-27 1q-126 4 -201 63q-38 -33 -95.5 -51t-113.5 -18q-100 0 -156 53t-56 130zM236 199q0 -63 41.5 -102.5t104.5 -39.5q27 0 56 9.5t43 22.5q-108 90 -188 239q-18 -12 -37.5 -45.5t-19.5 -83.5zM367 520q0 -52 34 -106
q40 17 68 58.5t28 95.5q0 28 -14.5 47t-37.5 19q-32 0 -55 -31t-23 -83z" />
    <glyph glyph-name="quotesingle" unicode="'" horiz-adv-x="246" 
d="M169 376l11 254q2 41 19 59t62 18t55.5 -18.5t-5.5 -58.5l-96 -254h-46z" />
    <glyph glyph-name="parenleft" unicode="(" horiz-adv-x="350" 
d="M128 37q-18 109 17 264q38 164 91 253q95 152 237 145l-1 -34q-38 -7 -72.5 -39.5t-59 -75t-45 -96.5t-32 -94.5t-19.5 -77.5q-15 -64 -22 -138t8.5 -151.5t61.5 -93.5l-12 -34q-126 14 -152 172z" />
    <glyph glyph-name="parenright" unicode=")" horiz-adv-x="350" 
d="M3 -135l1 34q38 7 72.5 39.5t59 75t45 96.5t32 94.5t19.5 77.5q15 64 22 138t-8.5 151.5t-61.5 93.5l12 34q126 -14 152 -172q18 -109 -17 -264q-38 -164 -91 -253q-95 -152 -237 -145z" />
    <glyph glyph-name="asterisk" unicode="*" horiz-adv-x="500" 
d="M164 413q-11 21 -6.5 39t25.5 23l116 28q12 3 16.5 8.5t0 11.5t-17.5 9l-79 21q-21 6 -23.5 27.5t10.5 37.5q14 19 33.5 23.5t30.5 -8.5l55 -64q12 -13 20.5 -7.5t6.5 23.5l-8 80q-2 21 11.5 31.5t42.5 10.5q30 0 41.5 -12.5t0.5 -32.5l-45 -82q-8 -16 1 -21.5t23 7.5
l75 65q16 13 33 8t28 -25q12 -23 7 -41t-25 -23l-112 -22q-12 -2 -18 -8t-3.5 -11.5t13.5 -8.5l81 -25q24 -7 26 -28t-15 -42q-30 -40 -64 -1l-52 62q-10 12 -17.5 6t-6.5 -25l7 -90q4 -42 -49 -42q-32 0 -44.5 14.5t-0.5 36.5l45 86q5 10 3 16.5t-10 6t-17 -9.5l-69 -67
q-22 -18 -40 -13.5t-30 28.5z" />
    <glyph glyph-name="plus" unicode="+" horiz-adv-x="600" 
d="M118 210v80h194v200h96v-200h194v-80h-194v-210h-96v210h-194z" />
    <glyph glyph-name="comma" unicode="," horiz-adv-x="280" 
d="M26 -138q79 77 79 139q0 23 -12 49q-13 28 -13 49q0 34 23.5 57.5t58.5 23.5q39 1 59.5 -25t20.5 -64q0 -39 -17.5 -77.5t-49 -72.5t-59 -57.5t-64.5 -50.5z" />
    <glyph glyph-name="hyphen" unicode="-" horiz-adv-x="392" 
d="M106 203l20 95h263l-20 -95h-263z" />
    <glyph glyph-name="period" unicode="." horiz-adv-x="280" 
d="M67 67q0 45 27.5 72t68.5 27t62.5 -22.5t21.5 -55.5q0 -45 -27 -72.5t-66 -27.5q-43 0 -65 22.5t-22 56.5z" />
    <glyph glyph-name="slash" unicode="/" horiz-adv-x="260" 
d="M19 -15l286 722h100l-286 -722h-100z" />
    <glyph glyph-name="zero" unicode="0" horiz-adv-x="560" 
d="M92 218q0 146 57 270q90 192 258 192q65 0 109.5 -22t65 -58.5t28.5 -70.5t8 -73q0 -136 -53 -263q-42 -98 -101.5 -151.5t-157.5 -53.5q-113 0 -163.5 66t-50.5 164zM232 133q0 -48 17.5 -73.5t47.5 -25.5q43 0 74 57t59 160q23 80 35.5 162.5t12.5 124.5q0 96 -61 96
q-65 0 -121 -160q-64 -184 -64 -341z" />
    <glyph glyph-name="one" unicode="1" horiz-adv-x="560" 
d="M107 0l8 38l72 5q18 2 27.5 9.5t13.5 28.5l106 475q4 23 0.5 30.5t-16.5 9.5l-76 13l8 33l247 38l8 -7l-131 -592q-4 -21 2.5 -29t25.5 -9l73 -5l-8 -38h-360z" />
    <glyph glyph-name="two" unicode="2" horiz-adv-x="560" 
d="M39 16q13 70 69 129t160 132q91 63 140 130t49 148q0 79 -61 79q-33 0 -59 -30.5t-53 -94.5q-10 -25 -21.5 -37.5t-33.5 -12.5q-28 0 -50.5 19.5t-22.5 51.5q0 58 65.5 104t169.5 46q107 0 164.5 -46.5t57.5 -129.5q0 -80 -51 -134t-151 -96q-59 -24 -127.5 -71.5
t-78.5 -86.5h234q33 0 48.5 10.5t38.5 46.5l40 -4l-60 -169h-454z" />
    <glyph glyph-name="three" unicode="3" horiz-adv-x="560" 
d="M56 118q-1 33 24 55t53 22q36 0 49 -46q18 -64 42.5 -89.5t61.5 -25.5q48 0 82 49t34 133q0 119 -79 119q-26 0 -59.5 -7t-39.5 -7q-25 0 -25 31q0 20 8.5 35.5t22.5 15.5q8 0 40.5 -7.5t56.5 -7.5q54 0 89 52.5t35 117.5q0 34 -17 55t-46 21q-32 0 -57.5 -26.5
t-50.5 -82.5q-8 -18 -18 -27.5t-29 -9.5q-28 0 -49.5 17.5t-22.5 44.5q-2 45 58.5 87.5t163.5 42.5q105 0 162 -44t57 -119q0 -66 -47 -104t-128 -46v-4q67 -17 101 -60.5t34 -102.5q0 -105 -85 -163q-71 -49 -189 -49q-107 0 -168.5 39.5t-63.5 90.5z" />
    <glyph glyph-name="four" unicode="4" horiz-adv-x="560" 
d="M63 205q201 259 411 463h118l-95 -429h93l-15 -65h-92l-23 -102q-7 -28 19 -30l48 -4l-9 -38h-306l9 38l65 5q26 2 33 29l22 102h-264zM175 239h180l71 304h-2q-130 -145 -249 -304z" />
    <glyph glyph-name="five" unicode="5" horiz-adv-x="560" 
d="M58 118q-1 32 24 54.5t57 22.5q20 0 29.5 -12t16.5 -37q18 -63 41 -87.5t59 -24.5q49 0 85 56.5t36 151.5q0 57 -27 91.5t-76 34.5q-67 0 -121 -64l-36 25l67 328l15 11h393l7 -12l-61 -104h-275q-17 0 -24 -5.5t-14 -25.5l-45 -139l2 -2q74 51 153 51q100 0 150.5 -52.5
t50.5 -140.5q0 -120 -81 -185t-202 -65q-107 0 -164.5 39t-59.5 91z" />
    <glyph glyph-name="six" unicode="6" horiz-adv-x="560" 
d="M91 222q0 110 39.5 220t109.5 170q78 68 189 68q94 0 143 -41.5t49 -80.5q0 -32 -23 -48.5t-50 -16.5q-35 0 -42 41q-20 100 -80 100q-48 0 -93.5 -77t-73.5 -197h2q26 30 65.5 50t74.5 20q90 0 138 -51.5t48 -139.5q0 -106 -71 -178.5t-193 -72.5q-124 0 -178 65.5
t-54 168.5zM236 162q0 -57 20.5 -92.5t63.5 -35.5q50 0 82 61.5t32 150.5q0 51 -22.5 79t-60.5 28q-52 0 -87 -53q-28 -43 -28 -138z" />
    <glyph glyph-name="seven" unicode="7" horiz-adv-x="560" 
d="M147 507l58 161h452l10 -12q-16 -59 -66.5 -128.5t-138.5 -169.5q-56 -63 -85.5 -137t-42.5 -174q-7 -59 -77 -59q-81 0 -81 59q0 29 13.5 62.5t28.5 58t51 66.5t54.5 61.5t66.5 68.5q52 53 90.5 109t46.5 79h-252q-34 0 -51.5 -9t-29.5 -28l-12 -19z" />
    <glyph glyph-name="eight" unicode="8" horiz-adv-x="560" 
d="M72 171q0 78 51 133.5t131 61.5v3q-36 10 -63 42t-27 82q0 79 56 130q62 57 183 57q116 0 166 -46.5t50 -113.5q0 -70 -43.5 -108t-105.5 -49v-4q47 -13 78 -52t31 -96q0 -100 -65 -159q-72 -64 -205 -64q-120 0 -178.5 52t-58.5 131zM227 133q0 -46 20.5 -72.5
t57.5 -26.5q52 0 85.5 59t33.5 143q0 97 -76 97q-47 0 -84 -57.5t-37 -142.5zM310 459q0 -80 61 -80q42 0 72 54t30 134q0 26 -14 46.5t-44 20.5q-48 0 -76.5 -56t-28.5 -119z" />
    <glyph glyph-name="nine" unicode="9" horiz-adv-x="560" 
d="M83 112q-1 29 22 49t54 20q33 0 46 -48q13 -53 32.5 -75t48.5 -22q63 0 113 118q11 25 20 56.5t18 67.5t11 43l-2 1q-61 -66 -136 -66q-76 0 -128 48t-52 126q0 107 66 176q74 74 185 74q224 0 224 -246q0 -66 -17.5 -146t-52.5 -149q-38 -75 -95 -113t-150 -38
q-90 0 -147.5 38t-59.5 86zM276 438q0 -48 23 -79t64 -31q50 0 79 49q25 42 25 144q0 53 -18.5 85t-57.5 32q-49 0 -82 -59.5t-33 -140.5z" />
    <glyph glyph-name="colon" unicode=":" horiz-adv-x="280" 
d="M67 67q0 45 27.5 72t68.5 27t62.5 -22.5t21.5 -55.5q0 -45 -27 -72.5t-66 -27.5q-43 0 -65 22.5t-22 56.5zM135 391q0 45 27.5 72t68.5 27t62.5 -22.5t21.5 -55.5q0 -45 -27 -72.5t-66 -27.5q-43 0 -65 22.5t-22 56.5z" />
    <glyph glyph-name="semicolon" unicode=";" horiz-adv-x="280" 
d="M135 391q0 45 27.5 72t68.5 27t62.5 -22.5t21.5 -55.5q0 -45 -27 -72.5t-66 -27.5q-43 0 -65 22.5t-22 56.5zM26 -138q79 77 79 139q0 23 -12 49q-13 28 -13 49q0 34 23.5 57.5t58.5 23.5q39 1 59.5 -25t20.5 -64q0 -39 -17.5 -77.5t-49 -72.5t-59 -57.5t-64.5 -50.5z
" />
    <glyph glyph-name="less" unicode="&#x3c;" horiz-adv-x="600" 
d="M101 209v82l478 204v-91l-381 -154l381 -154v-91z" />
    <glyph glyph-name="equal" unicode="=" horiz-adv-x="600" 
d="M118 103v80h484v-80h-484zM118 317v80h484v-80h-484z" />
    <glyph glyph-name="greater" unicode="&#x3e;" horiz-adv-x="600" 
d="M121 5v91l381 154l-381 154v91l478 -204v-82z" />
    <glyph glyph-name="question" unicode="?" horiz-adv-x="454" 
d="M153 585q0 44 53 83t149 39q97 0 146 -35.5t49 -98.5q0 -54 -36.5 -88.5t-101.5 -59.5q-106 -40 -106 -96q0 -21 15.5 -33t33.5 -14q26 -3 43 0l7 -29q-52 -35 -127 -35q-51 0 -83.5 26t-32.5 69q0 67 107 124q132 71 132 178q0 46 -34 46q-43 0 -89 -105
q-15 -34 -49 -34q-27 0 -51.5 16t-24.5 47zM150 67q0 45 27.5 72t68.5 27t62.5 -22.5t21.5 -55.5q0 -45 -27 -72.5t-66 -27.5q-43 0 -65 22.5t-22 56.5z" />
    <glyph glyph-name="at" unicode="@" horiz-adv-x="828" 
d="M125 307q0 121 60.5 213.5t156.5 139.5t210 47q147 0 236 -84.5t89 -208.5q0 -44 -14.5 -87.5t-42 -81t-73.5 -61t-103 -23.5q-59 0 -77 27.5t-8 66.5l12 54l-3 2q-71 -150 -184 -150q-38 0 -59 25t-21 65q0 33 14.5 78.5t43 95.5t84 84.5t125.5 34.5q27 0 47 -10l3 6
h110q-48 -173 -72 -281q-10 -46 31 -46q48 0 80 67.5t32 128.5q0 113 -73.5 175.5t-184.5 62.5q-129 0 -219.5 -101.5t-90.5 -238.5q0 -45 14 -88.5t43.5 -85.5t86 -68t132.5 -26q100 0 182 35l11 -35q-37 -26 -97 -40t-111 -14q-160 0 -265 82.5t-105 239.5zM426 253
q0 -40 23 -40q26 0 65 65t58 122l36 98q-12 9 -29 9q-40 0 -77 -51t-56.5 -109t-19.5 -94z" />
    <glyph glyph-name="A" unicode="A" 
d="M-24 0l7 38l27 3q23 2 36.5 11.5t28.5 34.5q39 63 151 262l194 343h118l34 -317q4 -37 15 -144.5t15 -144.5q3 -24 9 -34t22 -11l41 -3l-8 -38h-300l8 38l52 4q26 1 23 37l-15 167h-200q-18 -33 -47 -90.5t-39 -76.5q-18 -36 13 -37l56 -4l-7 -38h-234zM260 294h169
l-24 261h-2q-11 -18 -70 -126t-73 -135z" />
    <glyph glyph-name="B" unicode="B" horiz-adv-x="680" 
d="M40 0l9 38l45 4q20 1 28.5 13.5t15.5 42.5l111 496q7 27 4 40.5t-23 14.5l-51 5l10 38h267q155 1 214 -45q54 -41 54 -114q0 -66 -48 -112t-142 -56v-2q61 -11 106 -52t45 -115q0 -97 -80 -150q-71 -46 -232 -46h-333zM295 111q-7 -33 3.5 -49t52.5 -16q84 0 126.5 49
t42.5 125q0 59 -34 91t-98 32h-41zM357 389h44q75 0 121.5 41.5t46.5 113.5q0 102 -108 102q-32 0 -40.5 -6.5t-14.5 -30.5z" />
    <glyph glyph-name="C" unicode="C" horiz-adv-x="672" 
d="M111 275q0 143 69 249q120 183 375 183q53 0 117.5 -11.5t104.5 -36.5l-39 -179h-38q-2 181 -143 181q-72 0 -128 -41t-87 -106.5t-46.5 -136.5t-15.5 -142q0 -101 42 -152.5t112 -51.5q40 0 73 13.5t62 44t47.5 56.5t48.5 75h38l-55 -194q-80 -41 -214 -41
q-83 0 -145 22t-95 53t-53 74t-25 75t-5 66z" />
    <glyph glyph-name="D" unicode="D" horiz-adv-x="774" 
d="M40 0l9 38l45 4q20 1 28.5 13.5t15.5 42.5l111 496q7 27 4 40.5t-23 14.5l-51 5l10 38h275q180 -2 263 -65q92 -70 92 -224q0 -43 -15 -104t-51 -117q-56 -89 -147 -135.5t-245 -46.5h-321zM292 97q-7 -30 10.5 -40.5t57.5 -10.5q66 0 119.5 31.5t85.5 78t53.5 104.5
t29.5 106t8 88t-6 70.5t-23 60t-51.5 45.5t-85.5 16q-48 0 -64 -7.5t-21 -32.5z" />
    <glyph glyph-name="E" unicode="E" horiz-adv-x="622" 
d="M40 0l9 38l45 4q20 1 28.5 13.5t15.5 42.5l111 496q7 27 4 40.5t-23 14.5l-51 5l11 38h532l-40 -185h-38l-5 55q-3 40 -28 62t-86 22h-69q-26 0 -35 -5.5t-14 -27.5l-50 -226h94q46 0 66 17t45 73h38l-50 -228h-38q2 49 -12 69.5t-60 20.5h-94l-53 -236q-9 -39 12 -48
t96 -9q62 0 101.5 22.5t76.5 85.5l32 54h38l-59 -208h-550z" />
    <glyph glyph-name="F" unicode="F" horiz-adv-x="585" 
d="M40 0l9 38l45 4q20 1 28.5 13.5t15.5 42.5l111 496q7 27 4 40.5t-23 14.5l-51 5l10 38h529l-40 -183h-38l-5 53q-3 42 -27.5 63t-86.5 21h-74q-19 0 -27 -6t-12 -23l-55 -249h113q46 0 66.5 17.5t45.5 73.5h38l-50 -230h-38q2 50 -12 70.5t-60 20.5h-115l-51 -225
q-7 -27 -0.5 -39t29.5 -14l55 -4l-8 -38h-326z" />
    <glyph glyph-name="G" unicode="G" horiz-adv-x="726" 
d="M111 284q0 154 92 274q51 68 139.5 108.5t208.5 40.5q148 0 224 -52l-35 -175h-38q-16 181 -153 181q-69 0 -123 -40.5t-84.5 -104.5t-46 -134.5t-15.5 -140.5q0 -104 37.5 -157t119.5 -53q44 0 59 10.5t22 40.5l33 134q13 52 -16 55l-64 5l8 38h312l-9 -38l-41 -6
q-16 -2 -22.5 -13t-13.5 -41l-42 -178q-93 -53 -236 -53q-149 0 -232.5 73t-83.5 226z" />
    <glyph glyph-name="H" unicode="H" horiz-adv-x="800" 
d="M40 0l9 38l45 4q20 1 28.5 13.5t15.5 42.5l111 496q7 27 4 40.5t-23 14.5l-51 5l10 38h312l-10 -38l-44 -4q-20 -1 -28.5 -13.5t-15.5 -42.5l-46 -207h260l46 207q7 27 4 40.5t-23 14.5l-51 5l10 38h312l-10 -38l-44 -4q-20 -1 -28.5 -13.5t-15.5 -42.5l-111 -496
q-7 -27 -4 -40.5t23 -15.5l50 -4l-9 -38h-312l9 38l45 4q20 1 28.5 13.5t15.5 42.5l54 241h-260l-54 -241q-7 -27 -4 -40.5t23 -15.5l50 -4l-9 -38h-312z" />
    <glyph glyph-name="I" unicode="I" horiz-adv-x="386" 
d="M40 0l9 38l45 4q20 1 28.5 13.5t15.5 42.5l111 496q7 27 4 40.5t-23 14.5l-51 5l10 38h312l-10 -38l-44 -4q-20 -1 -28.5 -13.5t-15.5 -42.5l-111 -496q-7 -27 -4 -40.5t23 -15.5l50 -4l-9 -38h-312z" />
    <glyph glyph-name="J" unicode="J" horiz-adv-x="388" 
d="M-15 -79q67 11 99 48q46 52 77 189l99 436q7 27 4 40.5t-23 14.5l-51 5l10 38h312l-10 -38l-44 -4q-20 -1 -28.5 -13.5t-15.5 -42.5l-111 -488q-26 -112 -79 -160q-66 -60 -196 -60q-32 0 -41 2z" />
    <glyph glyph-name="K" unicode="K" horiz-adv-x="688" 
d="M40 0l9 38l45 4q20 1 28.5 13.5t15.5 42.5l111 496q7 27 4 40.5t-23 14.5l-51 5l10 38h312l-10 -38l-44 -4q-20 -1 -28.5 -13.5t-15.5 -42.5l-52 -232l2 -2l125 121q31 29 76 75t58 58q12 12 16 19t-1 11.5t-20 6.5l-25 3l7 38h269l-7 -38q-50 -5 -71.5 -11t-54.5 -29
q-85 -57 -211 -175l-40 -36l11 -26q26 -65 68.5 -146t82.5 -135q35 -49 71 -62l12 -4l-6 -36l-42 1q-100 2 -145 28t-81 92q-52 93 -98 221h-2l-53 -238q-7 -27 -4 -40.5t23 -15.5l50 -4l-9 -38h-312z" />
    <glyph glyph-name="L" unicode="L" horiz-adv-x="586" 
d="M40 0l9 38l45 4q20 2 28.5 14t15.5 42l111 496q7 27 4 41t-23 15l-51 4l10 38h312l-10 -38l-44 -4q-20 -2 -28.5 -14t-15.5 -42l-110 -493q-8 -35 11.5 -45t79.5 -10q57 0 96.5 23t77.5 84l30 48h38l-58 -201h-528z" />
    <glyph glyph-name="M" unicode="M" horiz-adv-x="921" 
d="M35 0l7 38l37 3q35 3 49 50q17 57 35 148l76 355q7 27 4 40.5t-23 14.5l-51 5l10 38h243q12 -77 40 -231l45 -255h3l145 255q95 167 127 231h251l-10 -38l-44 -4q-20 -1 -28.5 -13.5t-15.5 -42.5l-110 -496q-7 -27 -4 -40.5t23 -15.5l50 -4l-9 -38h-302l9 38l44 4
q20 1 28.5 13.5t15.5 42.5l109 487h-3l-328 -573h-65l-94 573h-3l-72 -346q-22 -102 -26 -148q-2 -25 6 -37t29 -13l53 -3l-8 -38h-243z" />
    <glyph glyph-name="N" unicode="N" horiz-adv-x="741" 
d="M30 0l8 38l37 3q35 3 50 50q15 46 38 148l78 355q7 27 4 40.5t-23 14.5l-50 5l10 38h222q90 -219 213 -509h3l59 270q25 117 28 148q2 25 -5.5 37t-28.5 13l-54 3l8 38h246l-8 -38l-37 -3q-35 -3 -50 -50q-15 -46 -38 -148l-100 -453h-104q-117 280 -237 561h-4l-72 -322
q-23 -114 -27 -148q-2 -25 5.5 -37t28.5 -13l54 -3l-8 -38h-246z" />
    <glyph glyph-name="O" unicode="O" horiz-adv-x="761" 
d="M113 264q0 134 57 244q104 199 337 199q134 0 215 -71.5t81 -216.5q0 -130 -59 -243q-99 -191 -324 -191q-148 0 -227.5 75t-79.5 204zM278 190q0 -159 125 -159q70 0 125.5 79.5t82.5 186.5t27 209q0 155 -116 155q-58 0 -107 -50.5t-77.5 -126t-44 -153t-15.5 -141.5z
" />
    <glyph glyph-name="P" unicode="P" horiz-adv-x="660" 
d="M40 0l9 38l45 4q20 1 28.5 13.5t15.5 42.5l112 496q7 27 4 40.5t-23 14.5l-51 5l10 38h252q140 0 205 -38q82 -48 82 -154q0 -111 -87 -175q-82 -61 -249 -61h-63l-38 -166q-8 -25 -4 -39.5t25 -15.5l65 -5l-8 -38h-330zM348 343q-2 -10 -1.5 -17.5t11.5 -11.5t33 -4
q84 0 131.5 68t47.5 153q0 115 -106 115q-31 0 -41 -7.5t-16 -30.5z" />
    <glyph glyph-name="Q" unicode="Q" horiz-adv-x="761" 
d="M113 264q0 134 57 244q104 199 337 199q134 0 215 -71.5t81 -216.5q0 -130 -59 -243q-78 -150 -229 -180q19 -37 54 -75q66 -71 117 -71h12l5 -24q-35 -19 -93 -19q-102 0 -172.5 57t-95.5 128q-111 18 -170 89.5t-59 182.5zM278 190q0 -159 125 -159q70 0 125.5 79.5
t82.5 186.5t27 209q0 155 -116 155q-58 0 -107 -50.5t-77.5 -126t-44 -153t-15.5 -141.5z" />
    <glyph glyph-name="R" unicode="R" horiz-adv-x="681" 
d="M40 0l9 38l45 4q20 1 28.5 13.5t15.5 42.5l111 496q7 27 4 40.5t-23 14.5l-51 5l10 38h282q130 0 190 -35q70 -42 70 -130q0 -77 -58.5 -127.5t-153.5 -56.5v-2q30 -7 50 -19t30.5 -27t16 -34.5t5.5 -41v-45.5q-4 -69 19 -108q14 -23 61 -28l-9 -38h-96q-105 0 -121 83
q-7 38 -4 103t0 78q-6 29 -21 41t-51 12h-58l-49 -219q-7 -27 -4 -40.5t23 -15.5l50 -4l-9 -38h-312zM351 363h63q63 0 110.5 49t47.5 131q0 103 -104 103q-34 0 -45 -7.5t-16 -28.5z" />
    <glyph glyph-name="S" unicode="S" horiz-adv-x="551" 
d="M66 70l23 177h37q10 -101 60 -158.5t112 -57.5q58 0 89 34t31 86q0 89 -103 148q-77 45 -117.5 90t-40.5 108q0 36 12.5 70t39.5 67t79.5 53t123.5 20q125 0 193 -54l-34 -161h-38q-2 84 -36 126.5t-89 42.5q-52 0 -81.5 -32.5t-29.5 -75.5q0 -40 30 -71t85 -62
q77 -43 114 -93t37 -117q0 -99 -66.5 -161.5t-196.5 -63.5q-67 0 -132.5 21t-101.5 64z" />
    <glyph glyph-name="T" unicode="T" horiz-adv-x="616" 
d="M126 501l43 191h588l-43 -191h-38l-3 61q-5 84 -93 84h-48l-124 -548q-7 -27 -4 -40.5t23 -14.5l64 -5l-9 -38h-340l9 38l59 4q20 1 28.5 13.5t15.5 42.5l124 548h-52q-88 0 -131 -84l-31 -61h-38z" />
    <glyph glyph-name="U" unicode="U" horiz-adv-x="776" 
d="M159 241l79 353q7 27 4 40.5t-23 14.5l-51 5l10 38h312l-10 -38l-44 -4q-20 -1 -28.5 -13.5t-15.5 -42.5l-80 -361q-44 -202 95 -202q64 0 103 54t65 173l75 336q7 27 4 40.5t-23 14.5l-51 5l10 38h312l-10 -38l-44 -4q-20 -1 -28.5 -13.5t-15.5 -42.5l-78 -341
q-36 -159 -114 -215q-75 -53 -210 -53q-153 0 -217 70q-54 61 -26 186z" />
    <glyph glyph-name="V" unicode="V" horiz-adv-x="630" 
d="M127 654l7 38h292l-7 -38l-60 -6q-23 -2 -19 -31l24 -240l26 -241h2q20 34 123 225q99 188 130 255q14 31 -13 34l-56 4l8 38h234l-7 -38l-37 -4q-16 -2 -28 -14t-29 -38q-39 -59 -154 -265l-184 -333h-120l-33 310q-6 55 -35 294q-3 23 -9.5 33.5t-20.5 12.5z" />
    <glyph glyph-name="W" unicode="W" horiz-adv-x="920" 
d="M115 654l7 38h288l-7 -38l-55 -5q-22 -2 -20 -34l12 -469h5l231 530h112l31 -530h5q18 38 103 228q60 134 97 231q15 42 -12 44l-53 5l7 38h231l-7 -38l-28 -3q-23 -2 -37 -15t-31 -48q-9 -19 -56.5 -115.5t-75.5 -156.5l-149 -316h-123l-28 497h-5l-222 -497h-123
l-22 398q-7 144 -13 212q-2 22 -6 30.5t-16 9.5z" />
    <glyph glyph-name="X" unicode="X" horiz-adv-x="630" 
d="M-21 0l7 38l35 4q45 5 83 44q78 78 220 248q-5 13 -48.5 120.5t-66.5 159.5q-15 33 -42 36l-43 4l10 38h307l-7 -38l-51 -7q-25 -3 -13 -33l64 -164h3q121 147 139 170q20 27 -5 30l-47 4l9 38h246l-9 -38l-30 -2q-40 -2 -76 -37q-97 -87 -207 -216q23 -52 65 -157.5
t62 -150.5t57 -49l38 -4l-7 -38h-328l8 38l54 6q33 3 22 32l-80 201h-2q-101 -125 -157 -203q-20 -29 4 -31l62 -5l-8 -38h-268z" />
    <glyph glyph-name="Y" unicode="Y" horiz-adv-x="622" 
d="M127 656l8 36h301l-8 -38l-55 -6q-23 -2 -17 -29l70 -272h2q117 167 178 268q19 31 -13 34l-53 5l8 38h252l-7 -38l-29 -3q-18 -2 -31 -8.5t-20.5 -13.5t-24.5 -26q-86 -96 -211 -280q-27 -38 -34 -72l-35 -153q-7 -27 -4 -40.5t23 -14.5l64 -5l-9 -38h-339l9 38l59 4
q20 1 28.5 13.5t15.5 42.5l32 148q7 31 -2 65q-35 144 -83 298q-7 25 -15.5 33.5t-25.5 10.5z" />
    <glyph glyph-name="Z" unicode="Z" horiz-adv-x="618" 
d="M5 20q283 327 535 626h-141q-69 0 -108.5 -20.5t-63.5 -73.5l-21 -47h-38l39 187h534l8 -19q-252 -290 -538 -627h198q60 0 99.5 23t76.5 85l32 54h38l-59 -208h-584z" />
    <glyph glyph-name="bracketleft" unicode="[" horiz-adv-x="350" 
d="M91 -128l186 820h186l-8 -34l-62 -7q-20 -2 -27.5 -12.5t-13.5 -34.5l-145 -644q-6 -22 -2 -33.5t22 -13.5l58 -7l-8 -34h-186z" />
    <glyph glyph-name="backslash" unicode="\" horiz-adv-x="460" 
d="M149 707h100l211 -722h-100z" />
    <glyph glyph-name="bracketright" unicode="]" horiz-adv-x="350" 
d="M13 -128l8 34l62 7q20 2 27.5 12.5t13.5 34.5l145 644q6 22 2 33.5t-22 13.5l-58 7l8 34h186l-186 -820h-186z" />
    <glyph glyph-name="asciicircum" unicode="^" horiz-adv-x="600" 
d="M114 215l197 453h99l192 -453h-104l-138 341l-142 -341h-104z" />
    <glyph glyph-name="underscore" unicode="_" horiz-adv-x="500" 
d="M0 -75h500v-50h-500v50z" />
    <glyph glyph-name="grave" unicode="`" horiz-adv-x="400" 
d="M144 680q0 19 17.5 39.5t35.5 20.5q15 0 30.5 -10.5t43.5 -39.5l145 -149l-21 -30l-183 103q-33 18 -50.5 33t-17.5 33z" />
    <glyph glyph-name="a" unicode="a" horiz-adv-x="596" 
d="M61 108q0 41 13 91t41.5 104t68 98t98.5 72.5t127 28.5q43 0 71 -17l4 9h137l-101 -379q-12 -47 11 -47q32 0 87 97l29 -16q-81 -161 -199 -161q-98 0 -62 126l25 88h-6q-21 -36 -35 -58t-40 -55.5t-49 -52.5t-55.5 -33.5t-66.5 -14.5q-50 0 -74 34.5t-24 85.5zM215 115
q0 -47 29 -47q41 0 120 126q68 112 103 248q-20 14 -49 14q-40 0 -79 -38.5t-65.5 -93t-42.5 -112t-16 -97.5z" />
    <glyph glyph-name="b" unicode="b" horiz-adv-x="586" 
d="M69 5l141 621q6 27 2.5 37.5t-17.5 12.5l-50 7l5 32l223 27l6 -6l-112 -432h5q108 198 243 198q56 0 84 -34.5t28 -92.5q0 -38 -16 -100t-49 -121q-92 -166 -265 -166q-96 0 -143 56l-37 -44zM243 109q0 -75 59 -75q39 0 73 40t54.5 95.5t32 108t11.5 85.5q0 59 -36 59
q-65 0 -140 -138q-23 -44 -38.5 -93.5t-15.5 -81.5z" />
    <glyph glyph-name="c" unicode="c" horiz-adv-x="456" 
d="M73 155q0 47 12.5 95.5t38.5 93.5t62 80.5t87.5 56.5t110.5 21q68 0 108.5 -27t40.5 -70q0 -25 -29 -44t-58 -19q-30 0 -41 47q-10 39 -19.5 53t-24.5 14q-47 0 -91 -96t-44 -198q0 -108 71 -108q44 0 79.5 34t71.5 92l30 -21q-86 -171 -244 -171q-72 0 -116.5 40.5
t-44.5 126.5z" />
    <glyph glyph-name="d" unicode="d" horiz-adv-x="609" 
d="M64 120q0 38 12 85.5t39.5 100t65.5 96t96 72t126 28.5q51 0 80 -17l2 1l35 149q5 20 1.5 30t-16.5 12l-51 7l7 31l218 27l7 -6l-146 -621q-12 -47 12 -47q15 0 39 29.5t46 68.5l29 -14q-76 -165 -196 -165q-101 0 -70 116l30 108l-4 1q-23 -40 -37 -63t-40.5 -58
t-50 -54t-57 -34t-70.5 -15q-58 0 -82.5 37.5t-24.5 94.5zM218 126q0 -58 38 -58q50 0 119 117t99 255q-19 16 -53 16q-55 0 -104 -64t-74 -139.5t-25 -126.5z" />
    <glyph glyph-name="e" unicode="e" horiz-adv-x="476" 
d="M73 161q0 125 81 227q91 114 230 114q65 0 106.5 -32t41.5 -84q0 -58 -46 -100q-69 -61 -264 -99v-24q0 -46 18.5 -77.5t59.5 -31.5q43 0 80 30t80 92l30 -24q-91 -164 -254 -164q-30 0 -56.5 8t-51.5 26.5t-40 54t-15 84.5zM226 232q84 17 131 67.5t47 112.5
q0 44 -37 44q-44 0 -87 -69t-54 -155z" />
    <glyph glyph-name="f" unicode="f" horiz-adv-x="348" 
d="M-94 -168q0 23 18 41t42 18q10 0 18.5 -5.5t11 -9.5t9.5 -16q32 -56 47 -56q13 0 19 27l123 611h-89l14 48h86l7 26q13 48 29.5 84.5t43 70.5t67.5 52.5t93 18.5q63 0 103 -26t40 -62q0 -26 -22 -43t-47 -17q-27 0 -42 30q-20 42 -31.5 57t-23.5 15q-22 0 -36 -60
l-35 -146h128l-12 -48h-125l-97 -414q-33 -139 -83.5 -204.5t-135.5 -65.5q-56 0 -88 20.5t-32 53.5z" />
    <glyph glyph-name="g" unicode="g" horiz-adv-x="522" 
d="M21 -105q0 55 47.5 85t110.5 38v2q-43 13 -67 34.5t-24 45.5q0 43 74 74q12 5 40 15v2q-37 12 -66 43t-30 79q-1 32 11 62.5t39 60t78.5 48t120.5 18.5q81 0 139 -30l144 40l6 -9l-31 -75l-76 -12q17 -26 17 -64q0 -81 -66 -127.5t-173 -47.5q-35 0 -60 2
q-32 -11 -32 -32q1 -16 24 -25.5t98 -27.5q180 -42 180 -164q0 -85 -70.5 -128.5t-194.5 -43.5q-107 0 -172 38t-67 99zM158 -93q1 -49 37.5 -76t88.5 -27q45 0 80 23.5t34 67.5q-1 27 -17 47.5t-45.5 31.5t-50.5 16t-52 10q-25 -4 -50 -27.5t-25 -65.5zM258 291
q0 -31 14.5 -49.5t43.5 -18.5q43 0 71 48q31 54 31 124q-1 33 -18.5 47t-40.5 14q-45 0 -73 -53t-28 -112z" />
    <glyph glyph-name="h" unicode="h" horiz-adv-x="629" 
d="M79 -12l143 645q10 40 -16 43l-58 7l8 32l229 27l5 -5l-107 -442h5q46 88 110.5 147.5t137.5 59.5q58 0 78.5 -43t-2.5 -112l-72 -232q-13 -47 11 -47q16 0 40.5 30t45.5 69l29 -15q-75 -164 -196 -164q-49 0 -69 32t-2 93l74 251q8 28 2.5 43t-22.5 15q-36 0 -88 -65.5
t-82 -143.5q-25 -62 -65 -213z" />
    <glyph glyph-name="i" unicode="i" horiz-adv-x="339" 
d="M225 632q0 35 22.5 61.5t64.5 26.5q35 0 57.5 -19t22.5 -54q0 -41 -23.5 -64.5t-62.5 -23.5q-36 0 -58.5 20t-22.5 53zM108 107l77 285q10 39 -17 42l-58 6l8 33l230 29l6 -6l-103 -381q-13 -47 11 -47q16 0 40 29.5t46 68.5l30 -17q-80 -161 -200 -161q-102 0 -70 119z
" />
    <glyph glyph-name="j" unicode="j" horiz-adv-x="333" 
d="M232 632q0 35 22.5 61.5t64.5 26.5q35 0 57.5 -19t22.5 -54q0 -41 -23.5 -64.5t-62.5 -23.5q-36 0 -58.5 20t-22.5 53zM-85 -174q0 21 19.5 40.5t40.5 19.5q9 0 17 -6.5t10.5 -10t11.5 -16.5q32 -49 45 -49q11 0 19 34l122 553q9 40 -15 43l-64 6l7 33l232 29l7 -5
l-115 -502q-34 -146 -91 -196q-49 -41 -120 -41q-61 0 -93.5 19.5t-32.5 48.5z" />
    <glyph glyph-name="k" unicode="k" horiz-adv-x="570" 
d="M74 -12l148 645q10 40 -16 43l-58 7l11 32l224 27l5 -5l-172 -737zM285 254q17 27 50 64q35 40 59 65t58.5 56.5t65.5 47t59 15.5q29 0 45.5 -17.5t16.5 -41.5q0 -32 -17 -55t-44 -23q-20 0 -45 18q-28 21 -44 21q-27 0 -90 -72q27 -108 69 -215q19 -49 41 -49
q23 0 73 85l31 -16q-63 -149 -168 -149q-74 0 -108 91q-29 75 -52 175z" />
    <glyph glyph-name="l" unicode="l" horiz-adv-x="327" 
d="M104 115l125 518q10 40 -16 43l-58 7l7 32l227 27l6 -5l-151 -622q-10 -47 11 -47q16 0 41 29.5t46 68.5l31 -18q-79 -160 -197 -160q-103 0 -72 127z" />
    <glyph glyph-name="m" unicode="m" horiz-adv-x="914" 
d="M81 -12l101 403q10 40 -15 43l-58 6l7 33l228 29l5 -6l-64 -213h5q50 95 115.5 157t129.5 62q105 0 61 -146l-21 -72l5 -1q51 97 115.5 158t134.5 61q56 0 74 -43t-3 -102l-73 -242q-16 -47 10 -47q17 0 41 29.5t46 68.5l27 -18q-77 -160 -198 -160q-45 0 -63.5 31
t-3.5 88l76 257q17 58 -18 58q-33 0 -86.5 -72t-80.5 -136q-37 -92 -70 -214l-138 -12l105 386q7 26 2.5 37t-22.5 11q-33 0 -87 -73t-80 -137q-32 -80 -69 -212z" />
    <glyph glyph-name="n" unicode="n" horiz-adv-x="635" 
d="M80 -12l103 403q12 40 -15 43l-60 6l8 33l233 29l5 -5l-68 -217h6q52 97 118 159.5t138 62.5q40 0 61.5 -20t22.5 -52.5t-9 -72.5l-75 -242q-14 -47 11 -47q17 0 41 29.5t45 68.5l29 -18q-78 -160 -201 -160q-47 0 -65.5 31t-2.5 88l76 256q18 59 -20 59
q-33 0 -87.5 -72.5t-80.5 -136.5q-40 -102 -72 -213z" />
    <glyph glyph-name="o" unicode="o" horiz-adv-x="562" 
d="M77 174q0 106 59 197q84 131 245 131q42 0 77 -9t66 -30t49 -60.5t18 -94.5q0 -95 -62 -193q-80 -127 -245 -127q-104 0 -155.5 50.5t-51.5 135.5zM222 107q0 -73 60 -73q37 0 69.5 42t52 100.5t31 112.5t11.5 85q0 82 -57 82q-62 0 -115 -117q-52 -119 -52 -232z" />
    <glyph glyph-name="p" unicode="p" horiz-adv-x="606" 
d="M35 -242l138 633q9 40 -15 43l-59 6l7 33l229 29l5 -5l-57 -211h4q116 216 249 216q56 0 84 -34t28 -94q0 -30 -8.5 -74t-31.5 -99.5t-56.5 -102t-89 -78.5t-123.5 -32q-72 0 -107 21l-57 -239zM243 64q30 -30 75 -30q40 0 75.5 40t56 96t32.5 109.5t12 87.5q0 55 -37 55
q-28 0 -64.5 -38t-71.5 -101q-49 -89 -78 -219z" />
    <glyph glyph-name="q" unicode="q" horiz-adv-x="584" 
d="M64 98q-1 36 7.5 78.5t25.5 88t47 87.5t68 76t91.5 54t115.5 20q70 0 124 -23l40 34h56l-174 -734l-145 -21l98 432h-3q-120 -202 -244 -202q-45 0 -75 27.5t-32 82.5zM218 122q0 -54 34 -54q42 0 108 93q85 120 123 281q-22 14 -52 14q-48 0 -90 -38.5t-68 -93.5
t-40.5 -109.5t-14.5 -92.5z" />
    <glyph glyph-name="r" unicode="r" horiz-adv-x="440" 
d="M86 -12l93 403q9 40 -15 43l-59 6l7 33l213 29l5 -5l-37 -145h5q39 70 83 110t89 40q62 0 62 -59q0 -31 -19.5 -58.5t-48.5 -27.5q-21 0 -48 19q-23 16 -38 16q-46 0 -97 -179q-10 -35 -28.5 -109t-26.5 -104z" />
    <glyph glyph-name="s" unicode="s" horiz-adv-x="417" 
d="M45 89q0 27 21.5 48t44.5 21q29 0 44 -30q26 -53 48.5 -73.5t47.5 -20.5q23 0 37.5 14.5t14.5 37.5q-3 49 -86 116q-87 70 -90 138q-3 67 46 114.5t136 47.5q77 0 117.5 -28.5t40.5 -58.5q0 -28 -21 -43.5t-45 -15.5q-26 0 -39 26q-21 40 -37.5 57t-36.5 17t-34 -14.5
t-13 -37.5q1 -27 21 -51.5t64 -57.5q91 -69 91 -150q0 -68 -47.5 -112.5t-144.5 -44.5q-86 0 -133 31.5t-47 69.5z" />
    <glyph glyph-name="t" unicode="t" horiz-adv-x="359" 
d="M109 111l84 331h-83l12 48h81l20 74l151 77l13 -8l-44 -143h120l-12 -48h-118l-82 -331q-10 -43 14 -43q40 0 99 98l28 -19q-84 -159 -211 -159q-46 0 -67 30.5t-5 92.5z" />
    <glyph glyph-name="u" unicode="u" 
d="M109 443l8 33l231 26l5 -5l-94 -369q-16 -60 19 -60q33 0 83.5 71.5t81.5 145.5q25 56 67 205l142 12l-101 -387q-14 -47 12 -47q29 0 86 98l29 -18q-79 -160 -199 -160q-41 0 -59 29t-5 79l31 114h-4q-121 -222 -259 -222q-105 0 -67 145l67 258q12 43 -15 46z" />
    <glyph glyph-name="v" unicode="v" horiz-adv-x="518" 
d="M103 443l7 33l226 26l5 -5l-83 -360q-8 -32 1 -50.5t32 -18.5q52 -1 105.5 89.5t59.5 197.5q0 84 -12 126q53 21 107 21q4 0 11.5 -10t13.5 -29t6 -39q-1 -48 -35 -122.5t-90 -144.5q-134 -169 -252 -169q-121 0 -89 140l61 263q10 43 -15 46z" />
    <glyph glyph-name="w" unicode="w" horiz-adv-x="795" 
d="M105 443l7 33l227 26l5 -5l-85 -357q-17 -72 25 -72q36 0 92 91q60 100 118 328l136 6l-69 -308q-14 -59 -7 -88t38 -29q48 0 96.5 91.5t52.5 195.5q0 71 -14 126q60 21 103 21q4 0 11.5 -10.5t13.5 -29t6 -37.5q-1 -47 -32 -121.5t-82 -145.5q-124 -170 -235 -170
q-46 0 -68 25.5t-22 67.5q0 40 17 114h-4q-49 -95 -112 -151t-130 -56q-47 0 -70 36t-7 104l63 263q10 43 -15 46z" />
    <glyph glyph-name="x" unicode="x" horiz-adv-x="516" 
d="M9 50q0 29 17.5 51.5t40.5 22.5q17 0 48 -21q18 -13 32 -13q24 0 76 100q2 3 10.5 19.5t11.5 22.5l-39 161q-4 19 -12.5 24.5t-27.5 5.5l-60 -2l-3 31l210 50l7 -4l31 -146h2q21 37 46 72q57 78 121 78q26 0 43.5 -14.5t17.5 -42.5t-17 -48.5t-39 -20.5q-16 0 -42 12
q-22 11 -36 11q-28 0 -84 -98l43 -173q8 -34 16 -47t20 -13q31 1 81 111l31 -15q-63 -176 -182 -176q-42 0 -63 29t-34 85l-16 68h-3q-4 -8 -17 -32t-16 -31q-33 -60 -62.5 -89.5t-73.5 -29.5q-36 0 -57 17.5t-21 44.5z" />
    <glyph glyph-name="y" unicode="y" horiz-adv-x="489" 
d="M-14 -180q-2 29 19.5 54.5t48.5 26.5q15 0 24 -7t23 -26q25 -37 44 -37q27 0 44 57q11 37 11 102t-15 183t-29 190q-6 35 -13.5 48.5t-23.5 12.5h-62v30l217 48l8 -4q11 -41 22.5 -178t12.5 -248h3q95 171 113 267q11 59 9 138q56 25 104 25q6 0 13.5 -18.5t7.5 -35.5
q0 -15 -8.5 -38.5t-29.5 -61t-35 -61.5t-44 -74q-35 -58 -84 -145t-55 -97q-39 -63 -58.5 -92t-49.5 -62.5t-59 -46t-67 -12.5q-41 0 -66 18.5t-25 43.5z" />
    <glyph glyph-name="z" unicode="z" horiz-adv-x="466" 
d="M18 19q0 28 27 59q94 102 325 316v2h-145q-39 0 -59 -19.5t-48 -70.5l-25 12q31 122 77 172h363l8 -16q-267 -245 -334 -318v-6q18 -3 71 -22q69 -23 102 -23q18 0 33 8t26.5 22.5t21.5 30.5t21 37q3 5 4 8l29 -10q-12 -50 -22 -82.5t-26 -65.5t-37 -49t-48 -16
q-47 0 -151 40q-101 40 -102 40q-10 0 -10 -18l4 -30q1 -16 -17 -24t-50 -8q-38 0 -38 31z" />
    <glyph glyph-name="braceleft" unicode="{" horiz-adv-x="340" 
d="M125 265l7 34q65 0 85 25t28 87l12 94q5 39 12 65.5t24.5 57.5t52.5 47.5t85 16.5h43l-8 -34q-55 -4 -75.5 -32.5t-28.5 -86.5l-10 -77q-5 -39 -7.5 -55.5t-11 -42t-21 -37t-35 -23.5t-56.5 -19l-1 -6q17 -4 29.5 -9t21.5 -10.5t14.5 -14.5t9 -15.5t3 -18.5t-0.5 -18.5
t-4 -21.5t-6 -21.5t-8 -24t-8 -23.5l-27 -77q-13 -37 -15 -59.5t13.5 -39.5t53.5 -20l-7 -34h-27q-45 0 -74 12t-41 29.5t-13 44.5t3.5 49t14.5 52l32 94q20 53 8 82.5t-67 29.5z" />
    <glyph glyph-name="bar" unicode="|" horiz-adv-x="265" 
d="M152 -250v1000h104v-1000h-104z" />
    <glyph glyph-name="braceright" unicode="}" horiz-adv-x="340" 
d="M-7 -128l8 34q55 4 75.5 32.5t28.5 86.5l10 77q5 39 7.5 55.5t11 42t21 37t35 23.5t56.5 19l1 6q-17 4 -29.5 9t-21.5 10.5t-14.5 14.5t-9 15.5t-3 18.5t0.5 18.5t4 21.5t6 21.5t8 24t8 23.5l27 77q13 37 15 59.5t-13.5 39.5t-53.5 20l7 34h27q45 0 74 -12t41 -29.5
t13 -44.5t-3.5 -49t-14.5 -52l-32 -94q-20 -53 -8 -82.5t67 -29.5l-7 -34q-36 0 -58 -6.5t-33 -24t-14.5 -32.5t-7.5 -49l-12 -94q-5 -39 -12 -65.5t-24.5 -57.5t-52.5 -47.5t-85 -16.5h-43z" />
    <glyph glyph-name="asciitilde" unicode="~" horiz-adv-x="600" 
d="M105 185q12 27 22.5 46.5t29 43t44.5 36t59 12.5q38 0 106 -28q66 -29 99 -29q27 0 46 16t41 56l54 -28q-26 -61 -61.5 -97t-94.5 -36q-48 0 -108 29q-64 28 -98 28q-47 0 -83 -77z" />
    <glyph glyph-name="uni00A0" unicode="&#xa0;" horiz-adv-x="210" 
 />
    <glyph glyph-name="exclamdown" unicode="&#xa1;" horiz-adv-x="285" 
d="M37 -113l141 386h55l-36 -386q-6 -57 -25.5 -80.5t-77.5 -23.5q-59 0 -69.5 25.5t12.5 78.5zM143 402q0 45 27 72.5t66 27.5q43 0 65 -22.5t22 -56.5q0 -45 -27.5 -72t-68.5 -27t-62.5 22.5t-21.5 55.5z" />
    <glyph glyph-name="cent" unicode="&#xa2;" horiz-adv-x="560" 
d="M115 280q0 112 68 204q85 114 245 115l15 69h54l-15 -71q55 0 110 -31t54 -76q-1 -28 -24.5 -43.5t-49.5 -14.5q-30 0 -40 35q-26 88 -61 86l-92 -413q104 -7 179 94l28 -22q-71 -123 -219 -125l-25 -108h-55l25 108q-83 3 -140 49t-57 144zM260 269q-2 -102 65 -120
l93 404q-45 0 -82.5 -51.5t-56 -115.5t-19.5 -117z" />
    <glyph glyph-name="sterling" unicode="&#xa3;" horiz-adv-x="560" 
d="M31 9l30 63q72 17 120.5 51.5t52.5 83.5q4 39 -8 83h-122l11 48h100q-20 57 -20 124q0 85 59.5 151t172.5 66q54 0 94 -13t59.5 -32.5t28.5 -37.5t9 -33q-1 -29 -25 -44t-49 -15q-36 0 -47 34q-18 50 -38.5 72.5t-47.5 22.5q-32 0 -54.5 -27.5t-23.5 -75.5q0 -48 11 -96
q4 -18 26 -96h146l-9 -48h-132q1 -28 -4 -52q-7 -37 -39 -70t-74 -52l-1 -3h184q53 0 78 30l20 25l33 -17l-70 -151h-461z" />
    <glyph glyph-name="currency" unicode="&#xa4;" horiz-adv-x="560" 
d="M114 88q-20 22 -18.5 40.5t18.5 32.5l49 39q-43 49 -43 134t43 134l-49 39q-17 14 -18.5 32.5t18.5 40.5q19 17 39.5 15.5t32.5 -17.5l38 -49q48 41 130 41t130 -41l38 49q12 16 32.5 17.5t39.5 -15.5q20 -22 18.5 -40.5t-18.5 -32.5l-49 -39q43 -49 43 -134t-43 -134
l49 -39q17 -14 18.5 -32.5t-18.5 -40.5q-19 -17 -39.5 -15.5t-32.5 17.5l-38 49q-48 -41 -130 -41t-130 41l-38 -49q-12 -16 -32.5 -17.5t-39.5 15.5zM222 334q0 -62 38 -104.5t94 -42.5t94 42.5t38 104.5t-38 104.5t-94 42.5t-94 -42.5t-38 -104.5z" />
    <glyph glyph-name="yen" unicode="&#xa5;" horiz-adv-x="560" 
d="M100 179l11 48h148l8 35q6 25 2 52h-135l11 48h113q-25 107 -57 227q-6 21 -13 28.5t-20 9.5l-30 5l9 36h277l-9 -36l-47 -4q-14 -1 -18 -7.5t-2 -20.5q8 -57 47 -239h2q73 112 143 237q15 26 -8 29l-55 5l9 36h225l-8 -36l-29 -3q-18 -2 -30 -12t-33 -36
q-43 -52 -152 -219h128l-10 -48h-148q-12 -24 -18 -51l-8 -36h163l-10 -48h-164l-22 -100q-8 -36 20 -38l59 -5l-7 -36h-315l7 36l57 4q27 2 36 39l22 100h-149z" />
    <glyph glyph-name="brokenbar" unicode="&#xa6;" horiz-adv-x="265" 
d="M152 -175v350h104v-350h-104zM152 325v350h104v-350h-104z" />
    <glyph glyph-name="section" unicode="&#xa7;" horiz-adv-x="568" 
d="M99 -12q0 26 18.5 44t47.5 18q27 0 40 -32q39 -87 96 -87q28 0 48.5 19t20.5 49q0 38 -24.5 71.5t-89.5 74.5q-137 86 -137 199q0 133 139 217q3 52 49 99t131 47q73 0 114.5 -26.5t41.5 -60.5q0 -23 -19.5 -38t-42.5 -15q-21 0 -38 29q-36 65 -82 65q-26 0 -43 -17
t-17 -44q0 -28 23 -58t90 -73q66 -42 93.5 -90.5t27.5 -110.5q0 -58 -36 -117t-84 -102q-4 -71 -55 -117.5t-134 -46.5q-80 0 -129 31t-49 72zM197 409q0 -79 130 -162q51 -33 86.5 -71t41.5 -67q50 38 50 95q0 86 -110 162q-57 39 -90.5 72t-40.5 68q-28 -9 -47.5 -36
t-19.5 -61z" />
    <glyph glyph-name="dieresis" unicode="&#xa8;" horiz-adv-x="400" 
d="M381 635q0 30 21.5 52.5t57.5 22.5q37 0 58 -22t21 -53q0 -30 -21 -52t-58 -22q-36 0 -57.5 22t-21.5 52zM141 635q0 30 21.5 52.5t57.5 22.5q37 0 58 -22t21 -53q0 -30 -21 -52t-58 -22q-36 0 -57.5 22t-21.5 52z" />
    <glyph glyph-name="copyright" unicode="&#xa9;" horiz-adv-x="824" 
d="M126 346q0 150 106.5 255.5t257.5 105.5t257.5 -105.5t106.5 -255.5t-106.5 -255.5t-257.5 -105.5t-257.5 105.5t-106.5 255.5zM209 346q0 -125 82 -211.5t199 -86.5t199 86.5t82 211.5t-82 211.5t-199 86.5t-199 -86.5t-82 -211.5zM297 348q0 88 53 144t160 56
q89 0 138 -29v-104h-27q-32 101 -104 101q-49 0 -74.5 -45.5t-25.5 -116.5q0 -75 26 -123t80 -48q38 0 62.5 29t45.5 78h27l-11 -108q-50 -31 -138 -31q-111 0 -161.5 53t-50.5 144z" />
    <glyph glyph-name="ordfeminine" unicode="&#xaa;" horiz-adv-x="444" 
d="M97 341q0 33 15 74t42.5 81t76 67t107.5 27q33 0 53 -11l2 6h104l-66 -232q-8 -30 5 -30q20 0 59 62l22 -12q-56 -108 -145 -108q-29 0 -40.5 21t0.5 62l15 49l-4 1q-48 -69 -75 -93q-45 -40 -100 -40q-33 0 -52 21.5t-19 54.5zM207 350q0 -27 18 -27q22 0 68 58
q10 13 19.5 29.5t15.5 28.5t13 31t10 27.5t9 28t7 21.5q-12 9 -31 9q-46 0 -87.5 -76t-41.5 -130z" />
    <glyph glyph-name="guillemotleft" unicode="&#xab;" horiz-adv-x="560" 
d="M332 231q-14 19 7 39l205 194l24 -21l-110 -171q-13 -22 -8 -40l47 -178l-28 -17zM132 231q-14 19 7 39l205 194l24 -21l-110 -171q-13 -22 -8 -40l47 -178l-28 -17z" />
    <glyph glyph-name="logicalnot" unicode="&#xac;" horiz-adv-x="600" 
d="M118 317v80h484v-302h-96v222h-388z" />
    <glyph glyph-name="uni00AD" unicode="&#xad;" horiz-adv-x="392" 
d="M106 203l20 95h263l-20 -95h-263z" />
    <glyph glyph-name="registered" unicode="&#xae;" horiz-adv-x="824" 
d="M126 346q0 150 106.5 255.5t257.5 105.5t257.5 -105.5t106.5 -255.5t-106.5 -255.5t-257.5 -105.5t-257.5 105.5t-106.5 255.5zM209 346q0 -125 82 -211.5t199 -86.5t199 86.5t82 211.5t-82 211.5t-199 86.5t-199 -86.5t-82 -211.5zM311 159v26l27 4q19 2 19 30v262
q0 27 -19 29l-27 4v26h208q132 0 132 -92q0 -38 -24 -63.5t-65 -33.5v-2q24 -7 39 -22t19.5 -26.5t11.5 -40.5q1 -5 2 -7q11 -45 27 -57q7 -6 24 -11v-26h-55q-41 0 -60 10.5t-29 34.5q-7 15 -15 52t-9 39q-10 36 -42 36h-18v-112q0 -27 20 -30l27 -4v-26h-193zM457 363h24
q34 0 50 19q15 20 15 55q0 36 -16.5 53.5t-41.5 17.5q-20 0 -25.5 -4t-5.5 -16v-125z" />
    <glyph glyph-name="macron" unicode="&#xaf;" horiz-adv-x="400" 
d="M168 592l15 72h311l-15 -72h-311z" />
    <glyph glyph-name="degree" unicode="&#xb0;" horiz-adv-x="375" 
d="M128 519q0 67 48.5 114t117.5 47t117.5 -47t48.5 -114t-48.5 -113t-117.5 -46t-117.5 46t-48.5 113zM205 520q0 -44 26 -73t63 -29t63 29t26 73t-26 73t-63 29t-63 -29t-26 -73z" />
    <glyph glyph-name="plusminus" unicode="&#xb1;" horiz-adv-x="600" 
d="M118 298v80h195v171h96v-171h193v-80h-193v-169h-96v169h-195zM118 0v80h484v-80h-484z" />
    <glyph glyph-name="twosuperior" unicode="&#xb2;" horiz-adv-x="402" 
d="M64 282q5 71 160 161q53 31 81 72.5t28 78.5q0 48 -28 48q-36 0 -73 -81q-13 -30 -40 -30q-21 0 -39 14t-18 34q0 38 46 69.5t119 31.5q83 0 120.5 -32.5t37.5 -81.5q0 -53 -35.5 -83t-102.5 -54q-94 -33 -125 -75h151q21 0 32 6t26 27l28 -8l-47 -107h-311z" />
    <glyph glyph-name="threesuperior" unicode="&#xb3;" horiz-adv-x="402" 
d="M94 349q0 22 19 38t41 16q26 0 37 -30q12 -37 25.5 -53.5t33.5 -16.5q21 0 39 26.5t18 78.5q0 60 -41 60q-12 0 -34 -5.5t-28 -5.5q-20 0 -20 24q0 15 6 25.5t16 10.5q7 0 30.5 -7t37.5 -7q27 0 44 32t17 64q0 43 -32 43q-27 0 -64 -64q-18 -30 -41 -30q-17 0 -33 12.5
t-16 32.5q0 33 43.5 60t113.5 27q62 0 106 -28t44 -73q0 -78 -111 -92l-1 -2q40 -9 65.5 -33.5t25.5 -61.5q0 -59 -49 -92t-136 -33q-71 0 -113.5 24.5t-42.5 59.5z" />
    <glyph glyph-name="acute" unicode="&#xb4;" horiz-adv-x="400" 
d="M221 541l145 149q28 29 43.5 39.5t30.5 10.5q18 0 35.5 -20.5t17.5 -39.5q0 -18 -17.5 -33t-50.5 -33l-183 -103z" />
    <glyph glyph-name="uni00B5" unicode="&#xb5;" 
d="M35 -180l148 571q12 43 -15 46l-59 6l8 33l231 26l5 -5l-94 -369q-16 -60 19 -60q33 0 83.5 71.5t81.5 145.5q25 56 67 205l142 12l-101 -387q-14 -47 12 -47q29 0 86 98l29 -18q-79 -160 -199 -160q-41 0 -59 29t-5 79l31 114h-4q-121 -223 -246 -220q-18 0 -36 14
l-6 -23q-9 -35 2 -83q10 -38 10 -59q0 -26 -33.5 -47.5t-69.5 -21.5q-41 0 -28 50z" />
    <glyph glyph-name="paragraph" unicode="&#xb6;" horiz-adv-x="580" 
d="M145 422q0 117 83.5 193.5t216.5 76.5l-103 -454q-88 0 -142.5 47.5t-54.5 136.5zM231 -101l7 33l83 11q22 2 32 50l159 699h176l-7 -33l-68 -9q-14 -1 -19.5 -10t-10.5 -32l-161 -709h-191z" />
    <glyph glyph-name="periodcentered" unicode="&#xb7;" horiz-adv-x="280" 
d="M102 240q0 45 27.5 72t68.5 27t62.5 -22.5t21.5 -55.5q0 -45 -27 -72.5t-66 -27.5q-43 0 -65 22.5t-22 56.5z" />
    <glyph glyph-name="cedilla" unicode="&#xb8;" horiz-adv-x="400" 
d="M120 -243l2 32q96 0 101 58q3 29 -16 41t-44 14l-3 8l66 90h58l-44 -56q20 -3 38.5 -10t35 -29.5t13.5 -55.5q-3 -28 -21 -48.5t-44.5 -29.5t-49.5 -13t-44 -4q-22 0 -48 3z" />
    <glyph glyph-name="onesuperior" unicode="&#xb9;" horiz-adv-x="402" 
d="M119 272l6 27l39 5q17 2 25 9.5t12 26.5l57 250q7 29 -16 34l-40 6l6 26l182 24l6 -7l-76 -333q-4 -19 1 -26.5t20 -9.5l37 -5l-6 -27h-253z" />
    <glyph glyph-name="ordmasculine" unicode="&#xba;" horiz-adv-x="412" 
d="M121 391q0 65 37 119q55 80 165 80q158 0 158 -132q0 -66 -36 -117q-55 -76 -172 -76q-77 0 -114.5 34.5t-37.5 91.5zM230 340q0 -19 10 -30t27 -11q42 0 73.5 81.5t31.5 131.5q0 44 -35 44q-42 0 -74 -74q-33 -74 -33 -142z" />
    <glyph glyph-name="guillemotright" unicode="&#xbb;" horiz-adv-x="560" 
d="M294 58l110 171q13 22 8 40l-47 178l28 17l137 -194q14 -19 -7 -39l-205 -194zM93 58l110 171q13 22 8 40l-47 178l28 17l137 -194q14 -19 -7 -39l-205 -194z" />
    <glyph glyph-name="onequarter" unicode="&#xbc;" horiz-adv-x="940" 
d="M523 126q190 204 269 275h92l-57 -256h56l-10 -43h-56l-10 -48q-4 -22 16 -24l24 -3l-5 -27h-221l5 27l40 3q25 2 29 24l10 48h-169zM601 145h115l39 168h-2q-6 -7 -65 -71t-87 -97zM268 11l502 684l44 -34l-505 -688zM139 272l6 27l39 5q17 2 25 9.5t12 26.5l57 250
q7 29 -16 34l-40 6l6 26l182 24l6 -7l-76 -333q-4 -19 1 -26.5t20 -9.5l37 -5l-6 -27h-253z" />
    <glyph glyph-name="onehalf" unicode="&#xbd;" horiz-adv-x="940" 
d="M238 11l502 684l44 -34l-505 -688zM125 272l6 27l39 5q17 2 25 9.5t12 26.5l57 250q7 29 -16 34l-40 6l6 26l182 24l6 -7l-76 -333q-4 -19 1 -26.5t20 -9.5l37 -5l-6 -27h-253zM539 10q5 71 160 161q53 31 81 72.5t28 78.5q0 48 -28 48q-36 0 -73 -81q-13 -30 -40 -30
q-21 0 -39 14t-18 34q0 38 46 69.5t119 31.5q83 0 120.5 -32.5t37.5 -81.5q0 -53 -35.5 -83t-102.5 -54q-94 -33 -125 -75h151q21 0 32 6t26 27l28 -8l-47 -107h-311z" />
    <glyph glyph-name="threequarters" unicode="&#xbe;" horiz-adv-x="940" 
d="M550 126q190 204 269 275h92l-57 -256h56l-10 -43h-56l-10 -48q-4 -22 16 -24l24 -3l-5 -27h-221l5 27l40 3q25 2 29 24l10 48h-169zM628 145h115l39 168h-2q-6 -7 -65 -71t-87 -97zM302 11l502 684l44 -34l-505 -688zM130 349q0 22 19 38t41 16q26 0 37 -30
q12 -37 25.5 -53.5t33.5 -16.5q21 0 39 26.5t18 78.5q0 60 -41 60q-12 0 -34 -5.5t-28 -5.5q-20 0 -20 24q0 15 6 25.5t16 10.5q7 0 30.5 -7t37.5 -7q27 0 44 32t17 64q0 43 -32 43q-27 0 -64 -64q-18 -30 -41 -30q-17 0 -33 12.5t-16 32.5q0 33 43.5 60t113.5 27
q62 0 106 -28t44 -73q0 -78 -111 -92l-1 -2q40 -9 65.5 -33.5t25.5 -61.5q0 -59 -49 -92t-136 -33q-71 0 -113.5 24.5t-42.5 59.5z" />
    <glyph glyph-name="questiondown" unicode="&#xbf;" horiz-adv-x="454" 
d="M25 -83q0 54 36.5 88.5t101.5 59.5q106 40 106 96q0 21 -15.5 33t-33.5 14q-26 3 -43 0l-7 29q52 35 127 35q51 0 83.5 -26t32.5 -69q0 -67 -107 -124q-132 -71 -132 -178q0 -46 34 -46q43 0 89 105q15 34 49 34q27 0 51.5 -16t24.5 -47q0 -44 -53 -83t-149 -39
q-97 0 -146 35.5t-49 98.5zM246 402q0 45 27 72.5t66 27.5q43 0 65 -22.5t22 -56.5q0 -45 -27.5 -72t-68.5 -27t-62.5 22.5t-21.5 55.5z" />
    <glyph glyph-name="Agrave" unicode="&#xc0;" 
d="M293 840q0 18 16 41t38 23q24 0 64 -30l172 -123l-14 -32l-203 64q-42 13 -57.5 24.5t-15.5 32.5zM-24 0l7 38l27 3q23 2 36.5 11.5t28.5 34.5q39 63 151 262l194 343h118l34 -317q4 -37 15 -144.5t15 -144.5q3 -24 9 -34t22 -11l41 -3l-8 -38h-300l8 38l52 4q26 1 23 37
l-15 167h-200q-18 -33 -47 -90.5t-39 -76.5q-18 -36 13 -37l56 -4l-7 -38h-234zM260 294h169l-24 261h-2q-11 -18 -70 -126t-73 -135z" />
    <glyph glyph-name="Aacute" unicode="&#xc1;" 
d="M373 751l172 123q40 30 64 30q22 0 38 -23t16 -41q0 -21 -15.5 -32.5t-57.5 -24.5l-203 -64zM-24 0l7 38l27 3q23 2 36.5 11.5t28.5 34.5q39 63 151 262l194 343h118l34 -317q4 -37 15 -144.5t15 -144.5q3 -24 9 -34t22 -11l41 -3l-8 -38h-300l8 38l52 4q26 1 23 37
l-15 167h-200q-18 -33 -47 -90.5t-39 -76.5q-18 -36 13 -37l56 -4l-7 -38h-234zM260 294h169l-24 261h-2q-11 -18 -70 -126t-73 -135z" />
    <glyph glyph-name="Acircumflex" unicode="&#xc2;" 
d="M290 755l172 124q36 26 52 26q19 0 45 -28l112 -122l-24 -30l-106 60q-26 15 -41 15q-11 0 -42 -13l-151 -62zM-24 0l7 38l27 3q23 2 36.5 11.5t28.5 34.5q39 63 151 262l194 343h118l34 -317q4 -37 15 -144.5t15 -144.5q3 -24 9 -34t22 -11l41 -3l-8 -38h-300l8 38l52 4
q26 1 23 37l-15 167h-200q-18 -33 -47 -90.5t-39 -76.5q-18 -36 13 -37l56 -4l-7 -38h-234zM260 294h169l-24 261h-2q-11 -18 -70 -126t-73 -135z" />
    <glyph glyph-name="Atilde" unicode="&#xc3;" 
d="M272 741q9 23 17.5 38.5t25 37.5t40 34t52.5 12q31 0 92 -21q69 -21 91 -21q27 0 42.5 12t32.5 43l32 -18q-9 -23 -17.5 -38.5t-25 -37.5t-40 -34t-52.5 -12q-21 0 -88 21q-61 21 -95 21q-27 0 -42.5 -12t-32.5 -43zM-24 0l7 38l27 3q23 2 36.5 11.5t28.5 34.5
q39 63 151 262l194 343h118l34 -317q4 -37 15 -144.5t15 -144.5q3 -24 9 -34t22 -11l41 -3l-8 -38h-300l8 38l52 4q26 1 23 37l-15 167h-200q-18 -33 -47 -90.5t-39 -76.5q-18 -36 13 -37l56 -4l-7 -38h-234zM260 294h169l-24 261h-2q-11 -18 -70 -126t-73 -135z" />
    <glyph glyph-name="Adieresis" unicode="&#xc4;" 
d="M529 806q0 30 21.5 52.5t57.5 22.5q37 0 58 -22t21 -53q0 -30 -21 -52t-58 -22q-36 0 -57.5 22t-21.5 52zM277 806q0 30 21.5 52.5t57.5 22.5q37 0 58 -22t21 -53q0 -30 -21 -52t-58 -22q-36 0 -57.5 22t-21.5 52zM-24 0l7 38l27 3q23 2 36.5 11.5t28.5 34.5
q39 63 151 262l194 343h118l34 -317q4 -37 15 -144.5t15 -144.5q3 -24 9 -34t22 -11l41 -3l-8 -38h-300l8 38l52 4q26 1 23 37l-15 167h-200q-18 -33 -47 -90.5t-39 -76.5q-18 -36 13 -37l56 -4l-7 -38h-234zM260 294h169l-24 261h-2q-11 -18 -70 -126t-73 -135z" />
    <glyph glyph-name="Aring" unicode="&#xc5;" 
d="M-24 0l7 38l27 3q23 2 36.5 11.5t28.5 34.5q39 63 151 262l182 318q-44 23 -44 76q0 59 36 97.5t108 38.5q49 0 78 -25.5t29 -71.5q0 -82 -75 -115l32 -292q4 -37 15 -144.5t15 -144.5q3 -24 9 -34t22 -11l41 -3l-8 -38h-300l8 38l52 4q26 1 23 37l-15 167h-202
q-14 -27 -41.5 -83t-42.5 -84q-18 -36 13 -37l56 -4l-7 -38h-234zM258 294h171l-24 261h-4q-11 -18 -70 -126t-73 -135zM430 741q0 -24 13.5 -36.5t34.5 -12.5q30 0 50.5 28.5t20.5 68.5q0 23 -12.5 37t-34.5 14q-29 0 -50.5 -28t-21.5 -71z" />
    <glyph glyph-name="AE" unicode="&#xc6;" horiz-adv-x="890" 
d="M-72 0l7 38l36 5q21 3 36.5 16t39.5 41q26 31 355 471q48 64 33 73q-3 2 -10 3l-68 7l10 38h626l-40 -185h-38l-5 55q-3 40 -28 62t-86 22h-74q-24 0 -32 -6t-13 -29l-50 -224h92q46 0 66 17.5t45 73.5h38l-50 -230h-38q2 50 -12 70.5t-60 20.5h-92l-53 -234
q-9 -40 12 -49.5t94 -9.5q60 0 99.5 23t76.5 85l32 54h38l-59 -208h-545l9 38l45 4q20 1 28.5 13.5t15.5 42.5l56 241h-165q-40 -59 -80.5 -118.5t-60 -88t-34.5 -52.5q-21 -33 6 -36l68 -6l-7 -38h-264zM336 387h140l56 253h-10q-170 -230 -186 -253z" />
    <glyph glyph-name="Ccedilla" unicode="&#xc7;" horiz-adv-x="672" 
d="M111 275q0 143 69 249q120 183 375 183q53 0 117.5 -11.5t104.5 -36.5l-39 -179h-38q-2 181 -143 181q-72 0 -128 -41t-87 -106.5t-46.5 -136.5t-15.5 -142q0 -101 42 -152.5t112 -51.5q40 0 73 13.5t62 44t47.5 56.5t48.5 75h38l-55 -194q-79 -41 -207 -41l-30 -38
q99 -15 91 -94q-2 -29 -21 -50.5t-47 -31t-52 -13.5t-46 -4q-23 0 -50 3l3 33q98 0 105 61q3 26 -17.5 38t-45.5 14l-3 8l55 76q-70 6 -122 30.5t-80 55t-44.5 71t-21 70t-4.5 61.5z" />
    <glyph glyph-name="Egrave" unicode="&#xc8;" horiz-adv-x="622" 
d="M303 840q0 18 16 41t38 23q24 0 64 -30l172 -123l-14 -32l-203 64q-42 13 -57.5 24.5t-15.5 32.5zM40 0l9 38l45 4q20 1 28.5 13.5t15.5 42.5l111 496q7 27 4 40.5t-23 14.5l-51 5l11 38h532l-40 -185h-38l-5 55q-3 40 -28 62t-86 22h-69q-26 0 -35 -5.5t-14 -27.5
l-50 -226h94q46 0 66 17t45 73h38l-50 -228h-38q2 49 -12 69.5t-60 20.5h-94l-53 -236q-9 -39 12 -48t96 -9q62 0 101.5 22.5t76.5 85.5l32 54h38l-59 -208h-550z" />
    <glyph glyph-name="Eacute" unicode="&#xc9;" horiz-adv-x="622" 
d="M387 751l172 123q40 30 64 30q22 0 38 -23t16 -41q0 -21 -15.5 -32.5t-57.5 -24.5l-203 -64zM40 0l9 38l45 4q20 1 28.5 13.5t15.5 42.5l111 496q7 27 4 40.5t-23 14.5l-51 5l11 38h532l-40 -185h-38l-5 55q-3 40 -28 62t-86 22h-69q-26 0 -35 -5.5t-14 -27.5l-50 -226
h94q46 0 66 17t45 73h38l-50 -228h-38q2 49 -12 69.5t-60 20.5h-94l-53 -236q-9 -39 12 -48t96 -9q62 0 101.5 22.5t76.5 85.5l32 54h38l-59 -208h-550z" />
    <glyph glyph-name="Ecircumflex" unicode="&#xca;" horiz-adv-x="622" 
d="M294 755l172 124q36 26 52 26q19 0 45 -28l112 -122l-24 -30l-106 60q-26 15 -41 15q-11 0 -42 -13l-151 -62zM40 0l9 38l45 4q20 1 28.5 13.5t15.5 42.5l111 496q7 27 4 40.5t-23 14.5l-51 5l11 38h532l-40 -185h-38l-5 55q-3 40 -28 62t-86 22h-69q-26 0 -35 -5.5
t-14 -27.5l-50 -226h94q46 0 66 17t45 73h38l-50 -228h-38q2 49 -12 69.5t-60 20.5h-94l-53 -236q-9 -39 12 -48t96 -9q62 0 101.5 22.5t76.5 85.5l32 54h38l-59 -208h-550z" />
    <glyph glyph-name="Edieresis" unicode="&#xcb;" horiz-adv-x="622" 
d="M531 806q0 30 21.5 52.5t57.5 22.5q37 0 58 -22t21 -53q0 -30 -21 -52t-58 -22q-36 0 -57.5 22t-21.5 52zM279 806q0 30 21.5 52.5t57.5 22.5q37 0 58 -22t21 -53q0 -30 -21 -52t-58 -22q-36 0 -57.5 22t-21.5 52zM40 0l9 38l45 4q20 1 28.5 13.5t15.5 42.5l111 496
q7 27 4 40.5t-23 14.5l-51 5l11 38h532l-40 -185h-38l-5 55q-3 40 -28 62t-86 22h-69q-26 0 -35 -5.5t-14 -27.5l-50 -226h94q46 0 66 17t45 73h38l-50 -228h-38q2 49 -12 69.5t-60 20.5h-94l-53 -236q-9 -39 12 -48t96 -9q62 0 101.5 22.5t76.5 85.5l32 54h38l-59 -208
h-550z" />
    <glyph glyph-name="Igrave" unicode="&#xcc;" horiz-adv-x="386" 
d="M181 840q0 18 16 41t38 23q24 0 64 -30l172 -123l-14 -32l-203 64q-42 13 -57.5 24.5t-15.5 32.5zM40 0l9 38l45 4q20 1 28.5 13.5t15.5 42.5l111 496q7 27 4 40.5t-23 14.5l-51 5l10 38h312l-10 -38l-44 -4q-20 -1 -28.5 -13.5t-15.5 -42.5l-111 -496q-7 -27 -4 -40.5
t23 -15.5l50 -4l-9 -38h-312z" />
    <glyph glyph-name="Iacute" unicode="&#xcd;" horiz-adv-x="386" 
d="M244 751l172 123q40 30 64 30q22 0 38 -23t16 -41q0 -21 -15.5 -32.5t-57.5 -24.5l-203 -64zM40 0l9 38l45 4q20 1 28.5 13.5t15.5 42.5l111 496q7 27 4 40.5t-23 14.5l-51 5l10 38h312l-10 -38l-44 -4q-20 -1 -28.5 -13.5t-15.5 -42.5l-111 -496q-7 -27 -4 -40.5
t23 -15.5l50 -4l-9 -38h-312z" />
    <glyph glyph-name="Icircumflex" unicode="&#xce;" horiz-adv-x="386" 
d="M160 755l172 124q36 26 52 26q19 0 45 -28l112 -122l-24 -30l-106 60q-26 15 -41 15q-11 0 -42 -13l-151 -62zM40 0l9 38l45 4q20 1 28.5 13.5t15.5 42.5l111 496q7 27 4 40.5t-23 14.5l-51 5l10 38h312l-10 -38l-44 -4q-20 -1 -28.5 -13.5t-15.5 -42.5l-111 -496
q-7 -27 -4 -40.5t23 -15.5l50 -4l-9 -38h-312z" />
    <glyph glyph-name="Idieresis" unicode="&#xcf;" horiz-adv-x="386" 
d="M410 806q0 30 21.5 52.5t57.5 22.5q37 0 58 -22t21 -53q0 -30 -21 -52t-58 -22q-36 0 -57.5 22t-21.5 52zM158 806q0 30 21.5 52.5t57.5 22.5q37 0 58 -22t21 -53q0 -30 -21 -52t-58 -22q-36 0 -57.5 22t-21.5 52zM40 0l9 38l45 4q20 1 28.5 13.5t15.5 42.5l111 496
q7 27 4 40.5t-23 14.5l-51 5l10 38h312l-10 -38l-44 -4q-20 -1 -28.5 -13.5t-15.5 -42.5l-111 -496q-7 -27 -4 -40.5t23 -15.5l50 -4l-9 -38h-312z" />
    <glyph glyph-name="Eth" unicode="&#xd0;" horiz-adv-x="780" 
d="M46 0l9 38l45 4q20 1 28.5 13.5t15.5 42.5l54 241h-95l12 48h94l46 207q7 27 4 40.5t-23 14.5l-51 5l10 38h275q180 -2 263 -65q92 -70 92 -224q0 -43 -15 -104t-51 -117q-56 -89 -147 -135.5t-245 -46.5h-321zM298 97q-7 -30 10.5 -40.5t57.5 -10.5q66 0 119.5 31.5
t85.5 78t53.5 104.5t29.5 106t8 88t-6 70.5t-23 60t-51.5 45.5t-85.5 16q-48 0 -64 -7.5t-21 -32.5l-48 -219h144l-12 -48h-143z" />
    <glyph glyph-name="Ntilde" unicode="&#xd1;" horiz-adv-x="741" 
d="M337 741q9 23 17.5 38.5t25 37.5t40 34t52.5 12q31 0 92 -21q69 -21 91 -21q27 0 42.5 12t32.5 43l32 -18q-9 -23 -17.5 -38.5t-25 -37.5t-40 -34t-52.5 -12q-21 0 -88 21q-61 21 -95 21q-27 0 -42.5 -12t-32.5 -43zM30 0l8 38l37 3q35 3 50 50q15 46 38 148l78 355
q7 27 4 40.5t-23 14.5l-50 5l10 38h222q90 -219 213 -509h3l59 270q25 117 28 148q2 25 -5.5 37t-28.5 13l-54 3l8 38h246l-8 -38l-37 -3q-35 -3 -50 -50q-15 -46 -38 -148l-100 -453h-104q-117 280 -237 561h-4l-72 -322q-23 -114 -27 -148q-2 -25 5.5 -37t28.5 -13l54 -3
l-8 -38h-246z" />
    <glyph glyph-name="Ograve" unicode="&#xd2;" horiz-adv-x="761" 
d="M307 840q0 18 16 41t38 23q24 0 64 -30l172 -123l-14 -32l-203 64q-42 13 -57.5 24.5t-15.5 32.5zM113 264q0 134 57 244q104 199 337 199q134 0 215 -71.5t81 -216.5q0 -130 -59 -243q-99 -191 -324 -191q-148 0 -227.5 75t-79.5 204zM278 190q0 -159 125 -159
q70 0 125.5 79.5t82.5 186.5t27 209q0 155 -116 155q-58 0 -107 -50.5t-77.5 -126t-44 -153t-15.5 -141.5z" />
    <glyph glyph-name="Oacute" unicode="&#xd3;" horiz-adv-x="761" 
d="M422 751l172 123q40 30 64 30q22 0 38 -23t16 -41q0 -21 -15.5 -32.5t-57.5 -24.5l-203 -64zM113 264q0 134 57 244q104 199 337 199q134 0 215 -71.5t81 -216.5q0 -130 -59 -243q-99 -191 -324 -191q-148 0 -227.5 75t-79.5 204zM278 190q0 -159 125 -159
q70 0 125.5 79.5t82.5 186.5t27 209q0 155 -116 155q-58 0 -107 -50.5t-77.5 -126t-44 -153t-15.5 -141.5z" />
    <glyph glyph-name="Ocircumflex" unicode="&#xd4;" horiz-adv-x="761" 
d="M344 755l172 124q36 26 52 26q19 0 45 -28l112 -122l-24 -30l-106 60q-26 15 -41 15q-11 0 -42 -13l-151 -62zM113 264q0 134 57 244q104 199 337 199q134 0 215 -71.5t81 -216.5q0 -130 -59 -243q-99 -191 -324 -191q-148 0 -227.5 75t-79.5 204zM278 190
q0 -159 125 -159q70 0 125.5 79.5t82.5 186.5t27 209q0 155 -116 155q-58 0 -107 -50.5t-77.5 -126t-44 -153t-15.5 -141.5z" />
    <glyph glyph-name="Otilde" unicode="&#xd5;" horiz-adv-x="761" 
d="M329 741q9 23 17.5 38.5t25 37.5t40 34t52.5 12q31 0 92 -21q69 -21 91 -21q27 0 42.5 12t32.5 43l32 -18q-9 -23 -17.5 -38.5t-25 -37.5t-40 -34t-52.5 -12q-21 0 -88 21q-61 21 -95 21q-27 0 -42.5 -12t-32.5 -43zM113 264q0 134 57 244q104 199 337 199
q134 0 215 -71.5t81 -216.5q0 -130 -59 -243q-99 -191 -324 -191q-148 0 -227.5 75t-79.5 204zM278 190q0 -159 125 -159q70 0 125.5 79.5t82.5 186.5t27 209q0 155 -116 155q-58 0 -107 -50.5t-77.5 -126t-44 -153t-15.5 -141.5z" />
    <glyph glyph-name="Odieresis" unicode="&#xd6;" horiz-adv-x="761" 
d="M589 806q0 30 21.5 52.5t57.5 22.5q37 0 58 -22t21 -53q0 -30 -21 -52t-58 -22q-36 0 -57.5 22t-21.5 52zM337 806q0 30 21.5 52.5t57.5 22.5q37 0 58 -22t21 -53q0 -30 -21 -52t-58 -22q-36 0 -57.5 22t-21.5 52zM113 264q0 134 57 244q104 199 337 199q134 0 215 -71.5
t81 -216.5q0 -130 -59 -243q-99 -191 -324 -191q-148 0 -227.5 75t-79.5 204zM278 190q0 -159 125 -159q70 0 125.5 79.5t82.5 186.5t27 209q0 155 -116 155q-58 0 -107 -50.5t-77.5 -126t-44 -153t-15.5 -141.5z" />
    <glyph glyph-name="multiply" unicode="&#xd7;" horiz-adv-x="600" 
d="M145 83l165 166l-165 166l58 63l167 -168l166 168l59 -63l-165 -166l165 -166l-59 -61l-166 167l-167 -167z" />
    <glyph glyph-name="Oslash" unicode="&#xd8;" horiz-adv-x="761" 
d="M112 260q0 136 58 248q104 199 337 199q95 0 168 -37l49 64l39 -32l-47 -60q88 -77 88 -223q0 -130 -59 -243q-101 -191 -325 -191q-106 0 -179 39l-58 -75l-36 35l53 69q-88 73 -88 207zM274 188q0 -7 2 -19t2 -15l345 448q-26 59 -100 59q-59 0 -108.5 -50.5t-79 -126
t-45.5 -154t-16 -142.5zM294 94q31 -63 107 -63q71 0 128 79.5t85 187t28 210.5q0 13 -4 33z" />
    <glyph glyph-name="Ugrave" unicode="&#xd9;" horiz-adv-x="776" 
d="M304 840q0 18 16 41t38 23q24 0 64 -30l172 -123l-14 -32l-203 64q-42 13 -57.5 24.5t-15.5 32.5zM159 241l79 353q7 27 4 40.5t-23 14.5l-51 5l10 38h312l-10 -38l-44 -4q-20 -1 -28.5 -13.5t-15.5 -42.5l-80 -361q-44 -202 95 -202q64 0 103 54t65 173l75 336
q7 27 4 40.5t-23 14.5l-51 5l10 38h312l-10 -38l-44 -4q-20 -1 -28.5 -13.5t-15.5 -42.5l-78 -341q-36 -159 -114 -215q-75 -53 -210 -53q-153 0 -217 70q-54 61 -26 186z" />
    <glyph glyph-name="Uacute" unicode="&#xda;" horiz-adv-x="776" 
d="M519 751l172 123q40 30 64 30q22 0 38 -23t16 -41q0 -21 -15.5 -32.5t-57.5 -24.5l-203 -64zM159 241l79 353q7 27 4 40.5t-23 14.5l-51 5l10 38h312l-10 -38l-44 -4q-20 -1 -28.5 -13.5t-15.5 -42.5l-80 -361q-44 -202 95 -202q64 0 103 54t65 173l75 336q7 27 4 40.5
t-23 14.5l-51 5l10 38h312l-10 -38l-44 -4q-20 -1 -28.5 -13.5t-15.5 -42.5l-78 -341q-36 -159 -114 -215q-75 -53 -210 -53q-153 0 -217 70q-54 61 -26 186z" />
    <glyph glyph-name="Ucircumflex" unicode="&#xdb;" horiz-adv-x="776" 
d="M351 755l172 124q36 26 52 26q19 0 45 -28l112 -122l-24 -30l-106 60q-26 15 -41 15q-11 0 -42 -13l-151 -62zM159 241l79 353q7 27 4 40.5t-23 14.5l-51 5l10 38h312l-10 -38l-44 -4q-20 -1 -28.5 -13.5t-15.5 -42.5l-80 -361q-44 -202 95 -202q64 0 103 54t65 173
l75 336q7 27 4 40.5t-23 14.5l-51 5l10 38h312l-10 -38l-44 -4q-20 -1 -28.5 -13.5t-15.5 -42.5l-78 -341q-36 -159 -114 -215q-75 -53 -210 -53q-153 0 -217 70q-54 61 -26 186z" />
    <glyph glyph-name="Udieresis" unicode="&#xdc;" horiz-adv-x="776" 
d="M595 806q0 30 21.5 52.5t57.5 22.5q37 0 58 -22t21 -53q0 -30 -21 -52t-58 -22q-36 0 -57.5 22t-21.5 52zM343 806q0 30 21.5 52.5t57.5 22.5q37 0 58 -22t21 -53q0 -30 -21 -52t-58 -22q-36 0 -57.5 22t-21.5 52zM159 241l79 353q7 27 4 40.5t-23 14.5l-51 5l10 38h312
l-10 -38l-44 -4q-20 -1 -28.5 -13.5t-15.5 -42.5l-80 -361q-44 -202 95 -202q64 0 103 54t65 173l75 336q7 27 4 40.5t-23 14.5l-51 5l10 38h312l-10 -38l-44 -4q-20 -1 -28.5 -13.5t-15.5 -42.5l-78 -341q-36 -159 -114 -215q-75 -53 -210 -53q-153 0 -217 70
q-54 61 -26 186z" />
    <glyph glyph-name="Yacute" unicode="&#xdd;" horiz-adv-x="622" 
d="M472 751l172 123q40 30 64 30q22 0 38 -23t16 -41q0 -21 -15.5 -32.5t-57.5 -24.5l-203 -64zM127 656l8 36h301l-8 -38l-55 -6q-23 -2 -17 -29l70 -272h2q117 167 178 268q19 31 -13 34l-53 5l8 38h252l-7 -38l-29 -3q-18 -2 -31 -8.5t-20.5 -13.5t-24.5 -26
q-86 -96 -211 -280q-27 -38 -34 -72l-35 -153q-7 -27 -4 -40.5t23 -14.5l64 -5l-9 -38h-339l9 38l59 4q20 1 28.5 13.5t15.5 42.5l32 148q7 31 -2 65q-35 144 -83 298q-7 25 -15.5 33.5t-25.5 10.5z" />
    <glyph glyph-name="Thorn" unicode="&#xde;" horiz-adv-x="629" 
d="M40 0l9 38l45 4q20 1 28.5 13.5t15.5 42.5l112 496q7 27 4 40.5t-23 14.5l-51 5l10 38h311l-10 -38l-44 -4q-20 -1 -28.5 -13.5t-15.5 -42.5l-11 -46h64q109 0 174.5 -42t64.5 -133q-3 -93 -81 -147q-72 -50 -208 -50h-96l-18 -78q-8 -25 -4 -39.5t25 -15.5l65 -5l-8 -38
h-330zM327 261q-5 -22 3 -30.5t34 -8.5q87 0 128.5 51.5t43.5 124.5q1 49 -25.5 76.5t-73.5 27.5q-33 0 -45.5 -8.5t-17.5 -29.5z" />
    <glyph glyph-name="germandbls" unicode="&#xdf;" horiz-adv-x="628" 
d="M-94 -168q0 23 18 41t42 18q10 0 18.5 -5.5t11 -9.5t9.5 -16q32 -56 47 -56q13 0 19 27l123 611h-89l14 48h86l7 22q70 230 300 230q105 0 160 -40.5t55 -100.5q0 -74 -66 -122q-130 0 -130 -87q0 -8 2 -16.5t6 -18t7.5 -16t10.5 -17t10 -15.5t11 -15.5t9 -12.5
q53 -73 53 -134t-46 -109t-138 -48q-57 0 -95 20t-38 48q-1 22 16 37.5t39 15.5q21 0 34 -20q36 -55 66 -55q18 0 30.5 13t12.5 35q0 6 -1 12t-2.5 11t-4.5 12t-5 11.5t-7 13t-7.5 12.5t-9.5 13.5t-9.5 13t-10.5 14.5t-11 15q-56 76 -56 130q0 62 42.5 104.5t99.5 45.5
q63 49 63 119q0 37 -24 61t-61 24q-113 0 -178 -270l-94 -398q-33 -140 -82 -204t-137 -66q-56 0 -88 20.5t-32 53.5z" />
    <glyph glyph-name="agrave" unicode="&#xe0;" horiz-adv-x="596" 
d="M61 108q0 41 13 91t41.5 104t68 98t98.5 72.5t127 28.5q43 0 71 -17l4 9h137l-101 -379q-12 -47 11 -47q32 0 87 97l29 -16q-81 -161 -199 -161q-98 0 -62 126l25 88h-6q-21 -36 -35 -58t-40 -55.5t-49 -52.5t-55.5 -33.5t-66.5 -14.5q-50 0 -74 34.5t-24 85.5zM215 115
q0 -47 29 -47q41 0 120 126q68 112 103 248q-20 14 -49 14q-40 0 -79 -38.5t-65.5 -93t-42.5 -112t-16 -97.5zM232 680q0 19 17.5 39.5t35.5 20.5q15 0 30.5 -10.5t43.5 -39.5l145 -149l-21 -30l-183 103q-33 18 -50.5 33t-17.5 33z" />
    <glyph glyph-name="aacute" unicode="&#xe1;" horiz-adv-x="596" 
d="M344 541l145 149q28 29 43.5 39.5t30.5 10.5q18 0 35.5 -20.5t17.5 -39.5q0 -18 -17.5 -33t-50.5 -33l-183 -103zM61 108q0 41 13 91t41.5 104t68 98t98.5 72.5t127 28.5q43 0 71 -17l4 9h137l-101 -379q-12 -47 11 -47q32 0 87 97l29 -16q-81 -161 -199 -161
q-98 0 -62 126l25 88h-6q-21 -36 -35 -58t-40 -55.5t-49 -52.5t-55.5 -33.5t-66.5 -14.5q-50 0 -74 34.5t-24 85.5zM215 115q0 -47 29 -47q41 0 120 126q68 112 103 248q-20 14 -49 14q-40 0 -79 -38.5t-65.5 -93t-42.5 -112t-16 -97.5z" />
    <glyph glyph-name="acircumflex" unicode="&#xe2;" horiz-adv-x="596" 
d="M231 547l180 173q27 27 48 27q17 0 36 -28l114 -172l-29 -27l-113 96q-19 17 -30 17q-12 0 -38 -17l-145 -96zM61 108q0 41 13 91t41.5 104t68 98t98.5 72.5t127 28.5q43 0 71 -17l4 9h137l-101 -379q-12 -47 11 -47q32 0 87 97l29 -16q-81 -161 -199 -161q-98 0 -62 126
l25 88h-6q-21 -36 -35 -58t-40 -55.5t-49 -52.5t-55.5 -33.5t-66.5 -14.5q-50 0 -74 34.5t-24 85.5zM215 115q0 -47 29 -47q41 0 120 126q68 112 103 248q-20 14 -49 14q-40 0 -79 -38.5t-65.5 -93t-42.5 -112t-16 -97.5z" />
    <glyph glyph-name="atilde" unicode="&#xe3;" horiz-adv-x="596" 
d="M227 567q8 43 39.5 82t85.5 39q28 0 94 -22q69 -21 92 -20q33 3 75 51l22 -13q-2 -3 -10.5 -20.5t-10.5 -21t-10 -18t-11.5 -18t-11.5 -14t-15 -13.5t-16 -8.5t-19.5 -7t-22.5 -1.5q-16 0 -85 21q-63 21 -99 21q-27 0 -42.5 -12t-32.5 -43zM61 108q0 41 13 91t41.5 104
t68 98t98.5 72.5t127 28.5q43 0 71 -17l4 9h137l-101 -379q-12 -47 11 -47q32 0 87 97l29 -16q-81 -161 -199 -161q-98 0 -62 126l25 88h-6q-21 -36 -35 -58t-40 -55.5t-49 -52.5t-55.5 -33.5t-66.5 -14.5q-50 0 -74 34.5t-24 85.5zM215 115q0 -47 29 -47q41 0 120 126
q68 112 103 248q-20 14 -49 14q-40 0 -79 -38.5t-65.5 -93t-42.5 -112t-16 -97.5z" />
    <glyph glyph-name="adieresis" unicode="&#xe4;" horiz-adv-x="596" 
d="M479 635q0 30 21.5 52.5t57.5 22.5q37 0 58 -22t21 -53q0 -30 -21 -52t-58 -22q-36 0 -57.5 22t-21.5 52zM239 635q0 30 21.5 52.5t57.5 22.5q37 0 58 -22t21 -53q0 -30 -21 -52t-58 -22q-36 0 -57.5 22t-21.5 52zM61 108q0 41 13 91t41.5 104t68 98t98.5 72.5t127 28.5
q43 0 71 -17l4 9h137l-101 -379q-12 -47 11 -47q32 0 87 97l29 -16q-81 -161 -199 -161q-98 0 -62 126l25 88h-6q-21 -36 -35 -58t-40 -55.5t-49 -52.5t-55.5 -33.5t-66.5 -14.5q-50 0 -74 34.5t-24 85.5zM215 115q0 -47 29 -47q41 0 120 126q68 112 103 248q-20 14 -49 14
q-40 0 -79 -38.5t-65.5 -93t-42.5 -112t-16 -97.5z" />
    <glyph glyph-name="aring" unicode="&#xe5;" horiz-adv-x="596" 
d="M299 627q0 59 36 97t108 38q53 0 83 -28t30 -74q0 -64 -40.5 -97.5t-102.5 -33.5q-52 0 -83 26.5t-31 71.5zM367 624q0 -27 15 -41t37 -14q29 0 49 26t20 72q0 24 -14 39.5t-37 15.5q-29 0 -49.5 -27t-20.5 -71zM61 108q0 41 13 91t41.5 104t68 98t98.5 72.5t127 28.5
q43 0 71 -17l4 9h137l-101 -379q-12 -47 11 -47q32 0 87 97l29 -16q-81 -161 -199 -161q-98 0 -62 126l25 88h-6q-21 -36 -35 -58t-40 -55.5t-49 -52.5t-55.5 -33.5t-66.5 -14.5q-50 0 -74 34.5t-24 85.5zM215 115q0 -47 29 -47q41 0 120 126q68 112 103 248q-20 14 -49 14
q-40 0 -79 -38.5t-65.5 -93t-42.5 -112t-16 -97.5z" />
    <glyph glyph-name="ae" unicode="&#xe6;" horiz-adv-x="789" 
d="M61 108q0 41 13 91t41.5 104t68 98t99 72.5t127.5 28.5q39 0 75 -17l29 24h54l-20 -66l2 -2q65 61 145 61q67 0 108.5 -31.5t41.5 -84.5q0 -58 -46 -100q-70 -62 -265 -99v-24q0 -109 80 -109q43 0 80 30t80 92l30 -24q-91 -164 -252 -164q-63 0 -108.5 39.5t-45.5 133.5
q0 8 2 26l-2 2q-25 -42 -44.5 -70t-50 -62t-67 -51.5t-76.5 -17.5q-50 0 -74.5 34.5t-24.5 85.5zM215 115q0 -47 29 -47q41 0 120 126q68 112 103 248q-20 14 -49 14q-40 0 -79 -38.5t-65.5 -93t-42.5 -112t-16 -97.5zM538 232q84 17 131.5 68t48.5 113q-2 43 -39 43
q-44 0 -87 -69t-54 -155z" />
    <glyph glyph-name="ccedilla" unicode="&#xe7;" horiz-adv-x="456" 
d="M73 155q0 47 12.5 95.5t38.5 93.5t62 80.5t87.5 56.5t110.5 21q68 0 108.5 -27t40.5 -70q0 -25 -29 -44t-58 -19q-30 0 -41 47q-10 39 -19.5 53t-24.5 14q-47 0 -91 -96t-44 -198q0 -108 71 -108q44 0 79.5 34t71.5 92l30 -21q-75 -148 -201 -167l-38 -48q20 -3 38.5 -10
t35 -29.5t13.5 -55.5q-3 -28 -21 -48.5t-44.5 -29.5t-49.5 -13t-44 -4q-23 0 -48 3l2 32q96 0 101 58q3 29 -16 41t-44 14l-3 8l58 79q-65 5 -104.5 45.5t-39.5 120.5z" />
    <glyph glyph-name="egrave" unicode="&#xe8;" horiz-adv-x="476" 
d="M73 161q0 125 81 227q91 114 230 114q65 0 106.5 -32t41.5 -84q0 -58 -46 -100q-69 -61 -264 -99v-24q0 -46 18.5 -77.5t59.5 -31.5q43 0 80 30t80 92l30 -24q-91 -164 -254 -164q-30 0 -56.5 8t-51.5 26.5t-40 54t-15 84.5zM226 232q84 17 131 67.5t47 112.5
q0 44 -37 44q-44 0 -87 -69t-54 -155zM192 680q0 19 17.5 39.5t35.5 20.5q15 0 30.5 -10.5t43.5 -39.5l145 -149l-21 -30l-183 103q-33 18 -50.5 33t-17.5 33z" />
    <glyph glyph-name="eacute" unicode="&#xe9;" horiz-adv-x="476" 
d="M294 541l145 149q28 29 43.5 39.5t30.5 10.5q18 0 35.5 -20.5t17.5 -39.5q0 -18 -17.5 -33t-50.5 -33l-183 -103zM73 161q0 125 81 227q91 114 230 114q65 0 106.5 -32t41.5 -84q0 -58 -46 -100q-69 -61 -264 -99v-24q0 -46 18.5 -77.5t59.5 -31.5q43 0 80 30t80 92
l30 -24q-91 -164 -254 -164q-30 0 -56.5 8t-51.5 26.5t-40 54t-15 84.5zM226 232q84 17 131 67.5t47 112.5q0 44 -37 44q-44 0 -87 -69t-54 -155z" />
    <glyph glyph-name="ecircumflex" unicode="&#xea;" horiz-adv-x="476" 
d="M181 547l180 173q27 27 48 27q17 0 36 -28l114 -172l-29 -27l-113 96q-19 17 -30 17q-12 0 -38 -17l-145 -96zM73 161q0 125 81 227q91 114 230 114q65 0 106.5 -32t41.5 -84q0 -58 -46 -100q-69 -61 -264 -99v-24q0 -46 18.5 -77.5t59.5 -31.5q43 0 80 30t80 92l30 -24
q-91 -164 -254 -164q-30 0 -56.5 8t-51.5 26.5t-40 54t-15 84.5zM226 232q84 17 131 67.5t47 112.5q0 44 -37 44q-44 0 -87 -69t-54 -155z" />
    <glyph glyph-name="edieresis" unicode="&#xeb;" horiz-adv-x="476" 
d="M419 635q0 30 21.5 52.5t57.5 22.5q37 0 58 -22t21 -53q0 -30 -21 -52t-58 -22q-36 0 -57.5 22t-21.5 52zM179 635q0 30 21.5 52.5t57.5 22.5q37 0 58 -22t21 -53q0 -30 -21 -52t-58 -22q-36 0 -57.5 22t-21.5 52zM73 161q0 125 81 227q91 114 230 114q65 0 106.5 -32
t41.5 -84q0 -58 -46 -100q-69 -61 -264 -99v-24q0 -46 18.5 -77.5t59.5 -31.5q43 0 80 30t80 92l30 -24q-91 -164 -254 -164q-30 0 -56.5 8t-51.5 26.5t-40 54t-15 84.5zM226 232q84 17 131 67.5t47 112.5q0 44 -37 44q-44 0 -87 -69t-54 -155z" />
    <glyph glyph-name="eth" unicode="&#xf0;" horiz-adv-x="562" 
d="M77 174q0 105 58 197q82 131 256 131q21 0 34 -5v3q-15 39 -53 88l-137 -56l-29 40l133 54q-34 43 -92 90l1 11l57 15q69 -43 115 -83l146 59l27 -40l-135 -55q133 -137 133 -300q0 -110 -62 -208q-80 -127 -245 -127q-105 0 -156 50t-51 136zM222 107q0 -73 59 -73
q37 0 70 42t52.5 100.5t31 112.5t11.5 85q0 82 -57 82q-63 0 -115 -117q-52 -119 -52 -232z" />
    <glyph glyph-name="ntilde" unicode="&#xf1;" horiz-adv-x="635" 
d="M232 567q8 43 39.5 82t85.5 39q28 0 94 -22q69 -21 92 -20q33 3 75 51l22 -13q-2 -3 -10.5 -20.5t-10.5 -21t-10 -18t-11.5 -18t-11.5 -14t-15 -13.5t-16 -8.5t-19.5 -7t-22.5 -1.5q-16 0 -85 21q-63 21 -99 21q-27 0 -42.5 -12t-32.5 -43zM80 -12l103 403q12 40 -15 43
l-60 6l8 33l233 29l5 -5l-68 -217h6q52 97 118 159.5t138 62.5q40 0 61.5 -20t22.5 -52.5t-9 -72.5l-75 -242q-14 -47 11 -47q17 0 41 29.5t45 68.5l29 -18q-78 -160 -201 -160q-47 0 -65.5 31t-2.5 88l76 256q18 59 -20 59q-33 0 -87.5 -72.5t-80.5 -136.5
q-40 -102 -72 -213z" />
    <glyph glyph-name="ograve" unicode="&#xf2;" horiz-adv-x="562" 
d="M77 174q0 106 59 197q84 131 245 131q42 0 77 -9t66 -30t49 -60.5t18 -94.5q0 -95 -62 -193q-80 -127 -245 -127q-104 0 -155.5 50.5t-51.5 135.5zM222 107q0 -73 60 -73q37 0 69.5 42t52 100.5t31 112.5t11.5 85q0 82 -57 82q-62 0 -115 -117q-52 -119 -52 -232z
M215 680q0 19 17.5 39.5t35.5 20.5q15 0 30.5 -10.5t43.5 -39.5l145 -149l-21 -30l-183 103q-33 18 -50.5 33t-17.5 33z" />
    <glyph glyph-name="oacute" unicode="&#xf3;" horiz-adv-x="562" 
d="M317 541l145 149q28 29 43.5 39.5t30.5 10.5q18 0 35.5 -20.5t17.5 -39.5q0 -18 -17.5 -33t-50.5 -33l-183 -103zM77 174q0 106 59 197q84 131 245 131q42 0 77 -9t66 -30t49 -60.5t18 -94.5q0 -95 -62 -193q-80 -127 -245 -127q-104 0 -155.5 50.5t-51.5 135.5zM222 107
q0 -73 60 -73q37 0 69.5 42t52 100.5t31 112.5t11.5 85q0 82 -57 82q-62 0 -115 -117q-52 -119 -52 -232z" />
    <glyph glyph-name="ocircumflex" unicode="&#xf4;" horiz-adv-x="562" 
d="M194 547l180 173q27 27 48 27q17 0 36 -28l114 -172l-29 -27l-113 96q-19 17 -30 17q-12 0 -38 -17l-145 -96zM77 174q0 106 59 197q84 131 245 131q42 0 77 -9t66 -30t49 -60.5t18 -94.5q0 -95 -62 -193q-80 -127 -245 -127q-104 0 -155.5 50.5t-51.5 135.5zM222 107
q0 -73 60 -73q37 0 69.5 42t52 100.5t31 112.5t11.5 85q0 82 -57 82q-62 0 -115 -117q-52 -119 -52 -232z" />
    <glyph glyph-name="otilde" unicode="&#xf5;" horiz-adv-x="562" 
d="M210 567q8 43 39.5 82t85.5 39q28 0 94 -22q69 -21 92 -20q33 3 75 51l22 -13q-2 -3 -10.5 -20.5t-10.5 -21t-10 -18t-11.5 -18t-11.5 -14t-15 -13.5t-16 -8.5t-19.5 -7t-22.5 -1.5q-16 0 -85 21q-63 21 -99 21q-27 0 -42.5 -12t-32.5 -43zM77 174q0 106 59 197
q84 131 245 131q42 0 77 -9t66 -30t49 -60.5t18 -94.5q0 -95 -62 -193q-80 -127 -245 -127q-104 0 -155.5 50.5t-51.5 135.5zM222 107q0 -73 60 -73q37 0 69.5 42t52 100.5t31 112.5t11.5 85q0 82 -57 82q-62 0 -115 -117q-52 -119 -52 -232z" />
    <glyph glyph-name="odieresis" unicode="&#xf6;" horiz-adv-x="562" 
d="M462 635q0 30 21.5 52.5t57.5 22.5q37 0 58 -22t21 -53q0 -30 -21 -52t-58 -22q-36 0 -57.5 22t-21.5 52zM222 635q0 30 21.5 52.5t57.5 22.5q37 0 58 -22t21 -53q0 -30 -21 -52t-58 -22q-36 0 -57.5 22t-21.5 52zM77 174q0 106 59 197q84 131 245 131q42 0 77 -9t66 -30
t49 -60.5t18 -94.5q0 -95 -62 -193q-80 -127 -245 -127q-104 0 -155.5 50.5t-51.5 135.5zM222 107q0 -73 60 -73q37 0 69.5 42t52 100.5t31 112.5t11.5 85q0 82 -57 82q-62 0 -115 -117q-52 -119 -52 -232z" />
    <glyph glyph-name="divide" unicode="&#xf7;" horiz-adv-x="600" 
d="M272 77q0 28 19.5 48.5t48.5 20.5t49.5 -20t21.5 -48l-1 -1q0 -29 -20 -49.5t-50 -20.5q-29 0 -48.5 20.5t-19.5 49.5zM272 424q0 28 19.5 48.5t48.5 20.5t49.5 -20t21.5 -48l-1 -1q0 -29 -20 -49.5t-50 -20.5q-29 0 -48.5 20.5t-19.5 49.5zM98 210v80h484v-80h-484z" />
    <glyph glyph-name="oslash" unicode="&#xf8;" horiz-adv-x="562" 
d="M77 174q0 105 58 197q82 131 246 131q52 0 90 -13l39 60l34 -24l-34 -52q81 -44 81 -161q0 -99 -62 -197q-80 -127 -245 -127q-48 0 -84 12l-45 -69l-32 27l38 57q-84 45 -84 159zM212 107q0 -11 2 -13l224 343q-17 19 -50 19q-71 0 -124 -117q-52 -119 -52 -232zM234 50
q16 -16 47 -16q41 0 76 42t55.5 100.5t32 112.5t11.5 85q0 10 -1 13z" />
    <glyph glyph-name="ugrave" unicode="&#xf9;" 
d="M109 443l8 33l231 26l5 -5l-94 -369q-16 -60 19 -60q33 0 83.5 71.5t81.5 145.5q25 56 67 205l142 12l-101 -387q-14 -47 12 -47q29 0 86 98l29 -18q-79 -160 -199 -160q-41 0 -59 29t-5 79l31 114h-4q-121 -222 -259 -222q-105 0 -67 145l67 258q12 43 -15 46zM211 680
q0 19 17.5 39.5t35.5 20.5q15 0 30.5 -10.5t43.5 -39.5l145 -149l-21 -30l-183 103q-33 18 -50.5 33t-17.5 33z" />
    <glyph glyph-name="uacute" unicode="&#xfa;" 
d="M388 541l145 149q28 29 43.5 39.5t30.5 10.5q18 0 35.5 -20.5t17.5 -39.5q0 -18 -17.5 -33t-50.5 -33l-183 -103zM109 443l8 33l231 26l5 -5l-94 -369q-16 -60 19 -60q33 0 83.5 71.5t81.5 145.5q25 56 67 205l142 12l-101 -387q-14 -47 12 -47q29 0 86 98l29 -18
q-79 -160 -199 -160q-41 0 -59 29t-5 79l31 114h-4q-121 -222 -259 -222q-105 0 -67 145l67 258q12 43 -15 46z" />
    <glyph glyph-name="ucircumflex" unicode="&#xfb;" 
d="M225 547l180 173q27 27 48 27q17 0 36 -28l114 -172l-29 -27l-113 96q-19 17 -30 17q-12 0 -38 -17l-145 -96zM109 443l8 33l231 26l5 -5l-94 -369q-16 -60 19 -60q33 0 83.5 71.5t81.5 145.5q25 56 67 205l142 12l-101 -387q-14 -47 12 -47q29 0 86 98l29 -18
q-79 -160 -199 -160q-41 0 -59 29t-5 79l31 114h-4q-121 -222 -259 -222q-105 0 -67 145l67 258q12 43 -15 46z" />
    <glyph glyph-name="udieresis" unicode="&#xfc;" 
d="M488 635q0 30 21.5 52.5t57.5 22.5q37 0 58 -22t21 -53q0 -30 -21 -52t-58 -22q-36 0 -57.5 22t-21.5 52zM248 635q0 30 21.5 52.5t57.5 22.5q37 0 58 -22t21 -53q0 -30 -21 -52t-58 -22q-36 0 -57.5 22t-21.5 52zM109 443l8 33l231 26l5 -5l-94 -369q-16 -60 19 -60
q33 0 83.5 71.5t81.5 145.5q25 56 67 205l142 12l-101 -387q-14 -47 12 -47q29 0 86 98l29 -18q-79 -160 -199 -160q-41 0 -59 29t-5 79l31 114h-4q-121 -222 -259 -222q-105 0 -67 145l67 258q12 43 -15 46z" />
    <glyph glyph-name="yacute" unicode="&#xfd;" horiz-adv-x="489" 
d="M291 541l145 149q28 29 43.5 39.5t30.5 10.5q18 0 35.5 -20.5t17.5 -39.5q0 -18 -17.5 -33t-50.5 -33l-183 -103zM-14 -180q-2 29 19.5 54.5t48.5 26.5q15 0 24 -7t23 -26q25 -37 44 -37q27 0 44 57q11 37 11 102t-15 183t-29 190q-6 35 -13.5 48.5t-23.5 12.5h-62v30
l217 48l8 -4q11 -41 22.5 -178t12.5 -248h3q95 171 113 267q11 59 9 138q56 25 104 25q6 0 13.5 -18.5t7.5 -35.5q0 -15 -8.5 -38.5t-29.5 -61t-35 -61.5t-44 -74q-35 -58 -84 -145t-55 -97q-39 -63 -58.5 -92t-49.5 -62.5t-59 -46t-67 -12.5q-41 0 -66 18.5t-25 43.5z" />
    <glyph glyph-name="thorn" unicode="&#xfe;" horiz-adv-x="600" 
d="M29 -242l180 822q6 23 4 37t-16 15l-59 6l9 33l232 29l5 -5l-107 -409h4q116 216 249 216q107 0 112 -128q1 -25 -7 -68.5t-31 -99t-56.5 -104t-90 -81.5t-124.5 -33q-72 0 -107 21l-57 -239zM237 64q30 -30 75 -30q41 0 77 42t56.5 99.5t32 110.5t10.5 81q0 55 -37 55
q-28 0 -64.5 -38t-71.5 -101q-49 -89 -78 -219z" />
    <glyph glyph-name="ydieresis" unicode="&#xff;" horiz-adv-x="489" 
d="M406 635q0 30 21.5 52.5t57.5 22.5q37 0 58 -22t21 -53q0 -30 -21 -52t-58 -22q-36 0 -57.5 22t-21.5 52zM166 635q0 30 21.5 52.5t57.5 22.5q37 0 58 -22t21 -53q0 -30 -21 -52t-58 -22q-36 0 -57.5 22t-21.5 52zM-14 -180q-2 29 19.5 54.5t48.5 26.5q15 0 24 -7t23 -26
q25 -37 44 -37q27 0 44 57q11 37 11 102t-15 183t-29 190q-6 35 -13.5 48.5t-23.5 12.5h-62v30l217 48l8 -4q11 -41 22.5 -178t12.5 -248h3q95 171 113 267q11 59 9 138q56 25 104 25q6 0 13.5 -18.5t7.5 -35.5q0 -15 -8.5 -38.5t-29.5 -61t-35 -61.5t-44 -74
q-35 -58 -84 -145t-55 -97q-39 -63 -58.5 -92t-49.5 -62.5t-59 -46t-67 -12.5q-41 0 -66 18.5t-25 43.5z" />
    <glyph glyph-name="Amacron" unicode="&#x100;" 
d="M321 770l18 77h350l-18 -77h-350zM-24 0l7 38l27 3q23 2 36.5 11.5t28.5 34.5q39 63 151 262l194 343h118l34 -317q4 -37 15 -144.5t15 -144.5q3 -24 9 -34t22 -11l41 -3l-8 -38h-300l8 38l52 4q26 1 23 37l-15 167h-200q-18 -33 -47 -90.5t-39 -76.5q-18 -36 13 -37
l56 -4l-7 -38h-234zM260 294h169l-24 261h-2q-11 -18 -70 -126t-73 -135z" />
    <glyph glyph-name="amacron" unicode="&#x101;" horiz-adv-x="596" 
d="M275 592l15 72h311l-15 -72h-311zM61 108q0 41 13 91t41.5 104t68 98t98.5 72.5t127 28.5q43 0 71 -17l4 9h137l-101 -379q-12 -47 11 -47q32 0 87 97l29 -16q-81 -161 -199 -161q-98 0 -62 126l25 88h-6q-21 -36 -35 -58t-40 -55.5t-49 -52.5t-55.5 -33.5t-66.5 -14.5
q-50 0 -74 34.5t-24 85.5zM215 115q0 -47 29 -47q41 0 120 126q68 112 103 248q-20 14 -49 14q-40 0 -79 -38.5t-65.5 -93t-42.5 -112t-16 -97.5z" />
    <glyph glyph-name="Abreve" unicode="&#x102;" 
d="M-24 0l7 38l27 3q23 2 36.5 11.5t28.5 34.5q39 63 151 262l194 343h118l34 -317q4 -37 15 -144.5t15 -144.5q3 -24 9 -34t22 -11l41 -3l-8 -38h-300l8 38l52 4q26 1 23 37l-15 167h-200q-18 -33 -47 -90.5t-39 -76.5q-18 -36 13 -37l56 -4l-7 -38h-234zM260 294h169
l-24 261h-2q-11 -18 -70 -126t-73 -135zM360 892h41q-4 -24 20.5 -46.5t87.5 -22.5t97.5 22t42.5 47h41q-34 -146 -199 -146t-131 146z" />
    <glyph glyph-name="abreve" unicode="&#x103;" horiz-adv-x="596" 
d="M61 108q0 41 13 91t41.5 104t68 98t98.5 72.5t127 28.5q43 0 71 -17l4 9h137l-101 -379q-12 -47 11 -47q32 0 87 97l29 -16q-81 -161 -199 -161q-98 0 -62 126l25 88h-6q-21 -36 -35 -58t-40 -55.5t-49 -52.5t-55.5 -33.5t-66.5 -14.5q-50 0 -74 34.5t-24 85.5zM215 115
q0 -47 29 -47q41 0 120 126q68 112 103 248q-20 14 -49 14q-40 0 -79 -38.5t-65.5 -93t-42.5 -112t-16 -97.5zM302 714h34q-4 -10 -0.5 -23t11 -24.5t31 -19.5t58.5 -8q115 0 144 75h34q-14 -73 -56.5 -115.5t-137.5 -42.5q-40 0 -67.5 9.5t-41 25t-18 37t-2 42t10.5 44.5z
" />
    <glyph glyph-name="aogonek" unicode="&#x105;" horiz-adv-x="596" 
d="M61 108q0 41 13 91t41.5 104t68 98t98.5 72.5t127 28.5q43 0 71 -17l4 9h137l-101 -379q-12 -47 11 -47q32 0 87 97l29 -16q-36 -72 -82 -114t-119 -52q-32 -4 -56.5 -46t-24.5 -70q0 -55 49 -55q24 0 50 13l14 -27q-59 -40 -107 -40q-64 0 -86 25.5t-22 65.5
q0 39 46 85.5t96 64.5q-47 19 -19 115l25 88h-6q-21 -36 -35 -58t-40 -55.5t-49 -52.5t-55.5 -33.5t-66.5 -14.5q-50 0 -74 34.5t-24 85.5zM215 115q0 -47 29 -47q41 0 120 126q68 112 103 248q-20 14 -49 14q-40 0 -79 -38.5t-65.5 -93t-42.5 -112t-16 -97.5z" />
    <glyph glyph-name="Cacute" unicode="&#x106;" horiz-adv-x="672" 
d="M471 751l172 123q40 30 64 30q22 0 38 -23t16 -41q0 -21 -15.5 -32.5t-57.5 -24.5l-203 -64zM111 275q0 143 69 249q120 183 375 183q53 0 117.5 -11.5t104.5 -36.5l-39 -179h-38q-2 181 -143 181q-72 0 -128 -41t-87 -106.5t-46.5 -136.5t-15.5 -142q0 -101 42 -152.5
t112 -51.5q40 0 73 13.5t62 44t47.5 56.5t48.5 75h38l-55 -194q-80 -41 -214 -41q-83 0 -145 22t-95 53t-53 74t-25 75t-5 66z" />
    <glyph glyph-name="cacute" unicode="&#x107;" horiz-adv-x="456" 
d="M320 541l145 149q28 29 43.5 39.5t30.5 10.5q18 0 35.5 -20.5t17.5 -39.5q0 -18 -17.5 -33t-50.5 -33l-183 -103zM73 155q0 47 12.5 95.5t38.5 93.5t62 80.5t87.5 56.5t110.5 21q68 0 108.5 -27t40.5 -70q0 -25 -29 -44t-58 -19q-30 0 -41 47q-10 39 -19.5 53t-24.5 14
q-47 0 -91 -96t-44 -198q0 -108 71 -108q44 0 79.5 34t71.5 92l30 -21q-86 -171 -244 -171q-72 0 -116.5 40.5t-44.5 126.5z" />
    <glyph glyph-name="Ccircumflex" unicode="&#x108;" horiz-adv-x="672" 
d="M376 755l172 124q36 26 52 26q19 0 45 -28l112 -122l-24 -30l-106 60q-26 15 -41 15q-11 0 -42 -13l-151 -62zM111 275q0 143 69 249q120 183 375 183q53 0 117.5 -11.5t104.5 -36.5l-39 -179h-38q-2 181 -143 181q-72 0 -128 -41t-87 -106.5t-46.5 -136.5t-15.5 -142
q0 -101 42 -152.5t112 -51.5q40 0 73 13.5t62 44t47.5 56.5t48.5 75h38l-55 -194q-80 -41 -214 -41q-83 0 -145 22t-95 53t-53 74t-25 75t-5 66z" />
    <glyph glyph-name="ccircumflex" unicode="&#x109;" horiz-adv-x="456" 
d="M205 547l180 173q27 27 48 27q17 0 36 -28l114 -172l-29 -27l-113 96q-19 17 -30 17q-12 0 -38 -17l-145 -96zM73 155q0 47 12.5 95.5t38.5 93.5t62 80.5t87.5 56.5t110.5 21q68 0 108.5 -27t40.5 -70q0 -25 -29 -44t-58 -19q-30 0 -41 47q-10 39 -19.5 53t-24.5 14
q-47 0 -91 -96t-44 -198q0 -108 71 -108q44 0 79.5 34t71.5 92l30 -21q-86 -171 -244 -171q-72 0 -116.5 40.5t-44.5 126.5z" />
    <glyph glyph-name="Cdotaccent" unicode="&#x10a;" horiz-adv-x="672" 
d="M499 806q0 30 21.5 52.5t57.5 22.5q37 0 58 -22t21 -53q0 -30 -21 -52t-58 -22q-36 0 -57.5 22t-21.5 52zM111 275q0 143 69 249q120 183 375 183q53 0 117.5 -11.5t104.5 -36.5l-39 -179h-38q-2 181 -143 181q-72 0 -128 -41t-87 -106.5t-46.5 -136.5t-15.5 -142
q0 -101 42 -152.5t112 -51.5q40 0 73 13.5t62 44t47.5 56.5t48.5 75h38l-55 -194q-80 -41 -214 -41q-83 0 -145 22t-95 53t-53 74t-25 75t-5 66z" />
    <glyph glyph-name="cdotaccent" unicode="&#x10b;" horiz-adv-x="456" 
d="M336 635q0 30 21.5 52.5t57.5 22.5q37 0 58 -22t21 -53q0 -30 -21 -52t-58 -22q-36 0 -57.5 22t-21.5 52zM73 155q0 47 12.5 95.5t38.5 93.5t62 80.5t87.5 56.5t110.5 21q68 0 108.5 -27t40.5 -70q0 -25 -29 -44t-58 -19q-30 0 -41 47q-10 39 -19.5 53t-24.5 14
q-47 0 -91 -96t-44 -198q0 -108 71 -108q44 0 79.5 34t71.5 92l30 -21q-86 -171 -244 -171q-72 0 -116.5 40.5t-44.5 126.5z" />
    <glyph glyph-name="Ccaron" unicode="&#x10c;" horiz-adv-x="672" 
d="M406 886l24 30l106 -60q26 -15 41 -15q11 0 42 13l151 62l17 -30l-172 -124q-36 -26 -52 -26q-19 0 -45 28zM111 275q0 143 69 249q120 183 375 183q53 0 117.5 -11.5t104.5 -36.5l-39 -179h-38q-2 181 -143 181q-72 0 -128 -41t-87 -106.5t-46.5 -136.5t-15.5 -142
q0 -101 42 -152.5t112 -51.5q40 0 73 13.5t62 44t47.5 56.5t48.5 75h38l-55 -194q-80 -41 -214 -41q-83 0 -145 22t-95 53t-53 74t-25 75t-5 66z" />
    <glyph glyph-name="ccaron" unicode="&#x10d;" horiz-adv-x="456" 
d="M238 720l29 27l113 -96q19 -17 30 -17q12 0 38 17l145 96l23 -27l-180 -173q-27 -27 -48 -27q-17 0 -36 28zM73 155q0 47 12.5 95.5t38.5 93.5t62 80.5t87.5 56.5t110.5 21q68 0 108.5 -27t40.5 -70q0 -25 -29 -44t-58 -19q-30 0 -41 47q-10 39 -19.5 53t-24.5 14
q-47 0 -91 -96t-44 -198q0 -108 71 -108q44 0 79.5 34t71.5 92l30 -21q-86 -171 -244 -171q-72 0 -116.5 40.5t-44.5 126.5z" />
    <glyph glyph-name="Dcaron" unicode="&#x10e;" horiz-adv-x="774" 
d="M382 886l24 30l106 -60q26 -15 41 -15q11 0 42 13l151 62l17 -30l-172 -124q-36 -26 -52 -26q-19 0 -45 28zM40 0l9 38l45 4q20 1 28.5 13.5t15.5 42.5l111 496q7 27 4 40.5t-23 14.5l-51 5l10 38h275q180 -2 263 -65q92 -70 92 -224q0 -43 -15 -104t-51 -117
q-56 -89 -147 -135.5t-245 -46.5h-321zM292 97q-7 -30 10.5 -40.5t57.5 -10.5q66 0 119.5 31.5t85.5 78t53.5 104.5t29.5 106t8 88t-6 70.5t-23 60t-51.5 45.5t-85.5 16q-48 0 -64 -7.5t-21 -32.5z" />
    <glyph glyph-name="dcaron" unicode="&#x10f;" horiz-adv-x="650" 
d="M64 120q0 38 12 85.5t39.5 100t65.5 96t96 72t126 28.5q51 0 80 -17l2 1l35 149q5 20 1.5 30t-16.5 12l-51 7l7 31l218 27l7 -6l-146 -621q-12 -47 12 -47q15 0 39 29.5t46 68.5l29 -14q-76 -165 -196 -165q-101 0 -70 116l30 108l-4 1q-23 -40 -37 -63t-40.5 -58
t-50 -54t-57 -34t-70.5 -15q-58 0 -82.5 37.5t-24.5 94.5zM218 126q0 -58 38 -58q50 0 119 117t99 255q-19 16 -53 16q-55 0 -104 -64t-74 -139.5t-25 -126.5zM713 742q0 23 17.5 46t56.5 23q32 0 49.5 -22.5t17.5 -57.5q0 -54 -32 -108t-72 -91l-28 23q14 23 21.5 54
t7.5 45q0 17 -19 43.5t-19 44.5z" />
    <glyph glyph-name="Dcroat" unicode="&#x110;" horiz-adv-x="774" 
d="M40 0l9 38l45 4q20 1 28.5 13.5t15.5 42.5l49 221h-69l15 72h70l46 203q7 27 4 40.5t-23 14.5l-51 5l10 38h275q180 -2 263 -65q92 -70 92 -224q0 -43 -15 -104t-51 -117q-56 -89 -147 -135.5t-245 -46.5h-321zM292 97q-7 -30 10.5 -40.5t57.5 -10.5q66 0 119.5 31.5
t85.5 78t53.5 104.5t29.5 106t8 88t-6 70.5t-23 60t-51.5 45.5t-85.5 16q-48 0 -64 -7.5t-21 -32.5l-48 -215h87l-15 -72h-88z" />
    <glyph glyph-name="dcroat" unicode="&#x111;" horiz-adv-x="609" 
d="M64 120q0 38 12 85.5t39.5 100t65.5 96t96 72t126 28.5q51 0 80 -17l2 1l18 79h-105l16 72h106q9 36 -15 40l-51 7l7 31l218 27l7 -6l-23 -99h62l-16 -72h-63l-106 -450q-12 -47 12 -47q15 0 39 29.5t46 68.5l29 -14q-77 -167 -196 -167q-102 0 -70 118l30 108l-4 1
q-23 -40 -37 -63t-40.5 -58t-50 -54t-57 -34t-70.5 -15q-58 0 -82.5 37.5t-24.5 94.5zM218 126q0 -58 38 -58q50 0 119 117t99 255q-19 16 -53 16q-55 0 -104 -64t-74 -139.5t-25 -126.5z" />
    <glyph glyph-name="Emacron" unicode="&#x112;" horiz-adv-x="622" 
d="M317 770l18 77h350l-18 -77h-350zM40 0l9 38l45 4q20 1 28.5 13.5t15.5 42.5l111 496q7 27 4 40.5t-23 14.5l-51 5l11 38h532l-40 -185h-38l-5 55q-3 40 -28 62t-86 22h-69q-26 0 -35 -5.5t-14 -27.5l-50 -226h94q46 0 66 17t45 73h38l-50 -228h-38q2 49 -12 69.5
t-60 20.5h-94l-53 -236q-9 -39 12 -48t96 -9q62 0 101.5 22.5t76.5 85.5l32 54h38l-59 -208h-550z" />
    <glyph glyph-name="emacron" unicode="&#x113;" horiz-adv-x="476" 
d="M250 592l15 72h311l-15 -72h-311zM73 161q0 125 81 227q91 114 230 114q65 0 106.5 -32t41.5 -84q0 -58 -46 -100q-69 -61 -264 -99v-24q0 -46 18.5 -77.5t59.5 -31.5q43 0 80 30t80 92l30 -24q-91 -164 -254 -164q-30 0 -56.5 8t-51.5 26.5t-40 54t-15 84.5zM226 232
q84 17 131 67.5t47 112.5q0 44 -37 44q-44 0 -87 -69t-54 -155z" />
    <glyph glyph-name="Ebreve" unicode="&#x114;" horiz-adv-x="622" 
d="M356 892h41q-4 -24 20.5 -46.5t87.5 -22.5t97.5 22t42.5 47h41q-34 -146 -199 -146t-131 146zM40 0l9 38l45 4q20 1 28.5 13.5t15.5 42.5l111 496q7 27 4 40.5t-23 14.5l-51 5l11 38h532l-40 -185h-38l-5 55q-3 40 -28 62t-86 22h-69q-26 0 -35 -5.5t-14 -27.5l-50 -226
h94q46 0 66 17t45 73h38l-50 -228h-38q2 49 -12 69.5t-60 20.5h-94l-53 -236q-9 -39 12 -48t96 -9q62 0 101.5 22.5t76.5 85.5l32 54h38l-59 -208h-550z" />
    <glyph glyph-name="ebreve" unicode="&#x115;" horiz-adv-x="476" 
d="M277 714h34q-4 -10 -0.5 -23t11 -24.5t31 -19.5t58.5 -8q115 0 144 75h34q-14 -73 -56.5 -115.5t-137.5 -42.5q-40 0 -67.5 9.5t-41 25t-18 37t-2 42t10.5 44.5zM73 161q0 125 81 227q91 114 230 114q65 0 106.5 -32t41.5 -84q0 -58 -46 -100q-69 -61 -264 -99v-24
q0 -46 18.5 -77.5t59.5 -31.5q43 0 80 30t80 92l30 -24q-91 -164 -254 -164q-30 0 -56.5 8t-51.5 26.5t-40 54t-15 84.5zM226 232q84 17 131 67.5t47 112.5q0 44 -37 44q-44 0 -87 -69t-54 -155z" />
    <glyph glyph-name="Edotaccent" unicode="&#x116;" horiz-adv-x="622" 
d="M422 806q0 30 21.5 52.5t57.5 22.5q37 0 58 -22t21 -53q0 -30 -21 -52t-58 -22q-36 0 -57.5 22t-21.5 52zM40 0l9 38l45 4q20 1 28.5 13.5t15.5 42.5l111 496q7 27 4 40.5t-23 14.5l-51 5l11 38h532l-40 -185h-38l-5 55q-3 40 -28 62t-86 22h-69q-26 0 -35 -5.5
t-14 -27.5l-50 -226h94q46 0 66 17t45 73h38l-50 -228h-38q2 49 -12 69.5t-60 20.5h-94l-53 -236q-9 -39 12 -48t96 -9q62 0 101.5 22.5t76.5 85.5l32 54h38l-59 -208h-550z" />
    <glyph glyph-name="edotaccent" unicode="&#x117;" horiz-adv-x="476" 
d="M336 635q0 30 21.5 52.5t57.5 22.5q37 0 58 -22t21 -53q0 -30 -21 -52t-58 -22q-36 0 -57.5 22t-21.5 52zM73 161q0 125 81 227q91 114 230 114q65 0 106.5 -32t41.5 -84q0 -58 -46 -100q-69 -61 -264 -99v-24q0 -46 18.5 -77.5t59.5 -31.5q43 0 80 30t80 92l30 -24
q-91 -164 -254 -164q-30 0 -56.5 8t-51.5 26.5t-40 54t-15 84.5zM226 232q84 17 131 67.5t47 112.5q0 44 -37 44q-44 0 -87 -69t-54 -155z" />
    <glyph glyph-name="Eogonek" unicode="&#x118;" horiz-adv-x="622" 
d="M40 0l9 38l45 4q20 1 28.5 13.5t15.5 42.5l111 496q7 27 4 40.5t-23 14.5l-51 5l11 38h532l-40 -185h-38l-5 55q-3 40 -28 62t-86 22h-69q-26 0 -35 -5.5t-14 -27.5l-50 -226h94q46 0 66 17t45 73h38l-50 -228h-38q2 49 -12 69.5t-60 20.5h-94l-53 -236q-9 -39 12 -48
t96 -9q62 0 101.5 22.5t76.5 85.5l32 54h38l-59 -208h-82q-83 -67 -83 -133q0 -55 49 -55q24 0 50 13l14 -27q-59 -40 -107 -40q-64 0 -86 25.5t-22 65.5q0 39 43.5 82.5t95.5 68.5h-422z" />
    <glyph glyph-name="eogonek" unicode="&#x119;" horiz-adv-x="476" 
d="M73 161q0 125 81 227q91 114 230 114q65 0 106.5 -32t41.5 -84q0 -58 -46 -100q-69 -61 -264 -99v-24q0 -46 18.5 -77.5t59.5 -31.5q43 0 80 30t80 92l30 -24q-14 -25 -26 -43t-27.5 -34t-22.5 -22t-28 -22t-26 -20q-41 -33 -67.5 -72t-26.5 -72q0 -55 49 -55q24 0 50 13
l14 -27q-59 -40 -107 -40q-64 0 -86 25.5t-22 65.5q0 36 38 76t90 69q-32 -6 -56 -6q-30 0 -56.5 8t-51.5 26.5t-40 54t-15 84.5zM226 232q84 17 131 67.5t47 112.5q0 44 -37 44q-44 0 -87 -69t-54 -155z" />
    <glyph glyph-name="Ecaron" unicode="&#x11a;" horiz-adv-x="622" 
d="M329 886l24 30l106 -60q26 -15 41 -15q11 0 42 13l151 62l17 -30l-172 -124q-36 -26 -52 -26q-19 0 -45 28zM40 0l9 38l45 4q20 1 28.5 13.5t15.5 42.5l111 496q7 27 4 40.5t-23 14.5l-51 5l11 38h532l-40 -185h-38l-5 55q-3 40 -28 62t-86 22h-69q-26 0 -35 -5.5
t-14 -27.5l-50 -226h94q46 0 66 17t45 73h38l-50 -228h-38q2 49 -12 69.5t-60 20.5h-94l-53 -236q-9 -39 12 -48t96 -9q62 0 101.5 22.5t76.5 85.5l32 54h38l-59 -208h-550z" />
    <glyph glyph-name="ecaron" unicode="&#x11b;" horiz-adv-x="476" 
d="M238 720l29 27l113 -96q19 -17 30 -17q12 0 38 17l145 96l23 -27l-180 -173q-27 -27 -48 -27q-17 0 -36 28zM73 161q0 125 81 227q91 114 230 114q65 0 106.5 -32t41.5 -84q0 -58 -46 -100q-69 -61 -264 -99v-24q0 -46 18.5 -77.5t59.5 -31.5q43 0 80 30t80 92l30 -24
q-91 -164 -254 -164q-30 0 -56.5 8t-51.5 26.5t-40 54t-15 84.5zM226 232q84 17 131 67.5t47 112.5q0 44 -37 44q-44 0 -87 -69t-54 -155z" />
    <glyph glyph-name="Gcircumflex" unicode="&#x11c;" horiz-adv-x="726" 
d="M372 755l172 124q36 26 52 26q19 0 45 -28l112 -122l-24 -30l-106 60q-26 15 -41 15q-11 0 -42 -13l-151 -62zM111 284q0 154 92 274q51 68 139.5 108.5t208.5 40.5q148 0 224 -52l-35 -175h-38q-16 181 -153 181q-69 0 -123 -40.5t-84.5 -104.5t-46 -134.5t-15.5 -140.5
q0 -104 37.5 -157t119.5 -53q44 0 59 10.5t22 40.5l33 134q13 52 -16 55l-64 5l8 38h312l-9 -38l-41 -6q-16 -2 -22.5 -13t-13.5 -41l-42 -178q-93 -53 -236 -53q-149 0 -232.5 73t-83.5 226z" />
    <glyph glyph-name="gcircumflex" unicode="&#x11d;" horiz-adv-x="522" 
d="M199 547l180 173q27 27 48 27q17 0 36 -28l114 -172l-29 -27l-113 96q-19 17 -30 17q-12 0 -38 -17l-145 -96zM21 -105q0 55 47.5 85t110.5 38v2q-43 13 -67 34.5t-24 45.5q0 43 74 74q12 5 40 15v2q-37 12 -66 43t-30 79q-1 32 11 62.5t39 60t78.5 48t120.5 18.5
q81 0 139 -30l144 40l6 -9l-31 -75l-76 -12q17 -26 17 -64q0 -81 -66 -127.5t-173 -47.5q-35 0 -60 2q-32 -11 -32 -32q1 -16 24 -25.5t98 -27.5q180 -42 180 -164q0 -85 -70.5 -128.5t-194.5 -43.5q-107 0 -172 38t-67 99zM158 -93q1 -49 37.5 -76t88.5 -27q45 0 80 23.5
t34 67.5q-1 27 -17 47.5t-45.5 31.5t-50.5 16t-52 10q-25 -4 -50 -27.5t-25 -65.5zM258 291q0 -31 14.5 -49.5t43.5 -18.5q43 0 71 48q31 54 31 124q-1 33 -18.5 47t-40.5 14q-45 0 -73 -53t-28 -112z" />
    <glyph glyph-name="Gbreve" unicode="&#x11e;" horiz-adv-x="726" 
d="M429 892h41q-4 -24 20.5 -46.5t87.5 -22.5t97.5 22t42.5 47h41q-34 -146 -199 -146t-131 146zM111 284q0 154 92 274q51 68 139.5 108.5t208.5 40.5q148 0 224 -52l-35 -175h-38q-16 181 -153 181q-69 0 -123 -40.5t-84.5 -104.5t-46 -134.5t-15.5 -140.5
q0 -104 37.5 -157t119.5 -53q44 0 59 10.5t22 40.5l33 134q13 52 -16 55l-64 5l8 38h312l-9 -38l-41 -6q-16 -2 -22.5 -13t-13.5 -41l-42 -178q-93 -53 -236 -53q-149 0 -232.5 73t-83.5 226z" />
    <glyph glyph-name="gbreve" unicode="&#x11f;" horiz-adv-x="522" 
d="M271 714h34q-4 -10 -0.5 -23t11 -24.5t31 -19.5t58.5 -8q115 0 144 75h34q-14 -73 -56.5 -115.5t-137.5 -42.5q-40 0 -67.5 9.5t-41 25t-18 37t-2 42t10.5 44.5zM21 -105q0 55 47.5 85t110.5 38v2q-43 13 -67 34.5t-24 45.5q0 43 74 74q12 5 40 15v2q-37 12 -66 43
t-30 79q-1 32 11 62.5t39 60t78.5 48t120.5 18.5q81 0 139 -30l144 40l6 -9l-31 -75l-76 -12q17 -26 17 -64q0 -81 -66 -127.5t-173 -47.5q-35 0 -60 2q-32 -11 -32 -32q1 -16 24 -25.5t98 -27.5q180 -42 180 -164q0 -85 -70.5 -128.5t-194.5 -43.5q-107 0 -172 38t-67 99z
M158 -93q1 -49 37.5 -76t88.5 -27q45 0 80 23.5t34 67.5q-1 27 -17 47.5t-45.5 31.5t-50.5 16t-52 10q-25 -4 -50 -27.5t-25 -65.5zM258 291q0 -31 14.5 -49.5t43.5 -18.5q43 0 71 48q31 54 31 124q-1 33 -18.5 47t-40.5 14q-45 0 -73 -53t-28 -112z" />
    <glyph glyph-name="Gdotaccent" unicode="&#x120;" horiz-adv-x="726" 
d="M495 806q0 30 21.5 52.5t57.5 22.5q37 0 58 -22t21 -53q0 -30 -21 -52t-58 -22q-36 0 -57.5 22t-21.5 52zM111 284q0 154 92 274q51 68 139.5 108.5t208.5 40.5q148 0 224 -52l-35 -175h-38q-16 181 -153 181q-69 0 -123 -40.5t-84.5 -104.5t-46 -134.5t-15.5 -140.5
q0 -104 37.5 -157t119.5 -53q44 0 59 10.5t22 40.5l33 134q13 52 -16 55l-64 5l8 38h312l-9 -38l-41 -6q-16 -2 -22.5 -13t-13.5 -41l-42 -178q-93 -53 -236 -53q-149 0 -232.5 73t-83.5 226z" />
    <glyph glyph-name="gdotaccent" unicode="&#x121;" horiz-adv-x="522" 
d="M330 635q0 30 21.5 52.5t57.5 22.5q37 0 58 -22t21 -53q0 -30 -21 -52t-58 -22q-36 0 -57.5 22t-21.5 52zM21 -105q0 55 47.5 85t110.5 38v2q-43 13 -67 34.5t-24 45.5q0 43 74 74q12 5 40 15v2q-37 12 -66 43t-30 79q-1 32 11 62.5t39 60t78.5 48t120.5 18.5
q81 0 139 -30l144 40l6 -9l-31 -75l-76 -12q17 -26 17 -64q0 -81 -66 -127.5t-173 -47.5q-35 0 -60 2q-32 -11 -32 -32q1 -16 24 -25.5t98 -27.5q180 -42 180 -164q0 -85 -70.5 -128.5t-194.5 -43.5q-107 0 -172 38t-67 99zM158 -93q1 -49 37.5 -76t88.5 -27q45 0 80 23.5
t34 67.5q-1 27 -17 47.5t-45.5 31.5t-50.5 16t-52 10q-25 -4 -50 -27.5t-25 -65.5zM258 291q0 -31 14.5 -49.5t43.5 -18.5q43 0 71 48q31 54 31 124q-1 33 -18.5 47t-40.5 14q-45 0 -73 -53t-28 -112z" />
    <glyph glyph-name="Hcircumflex" unicode="&#x124;" horiz-adv-x="800" 
d="M381 755l172 124q36 26 52 26q19 0 45 -28l112 -122l-24 -30l-106 60q-26 15 -41 15q-11 0 -42 -13l-151 -62zM40 0l9 38l45 4q20 1 28.5 13.5t15.5 42.5l111 496q7 27 4 40.5t-23 14.5l-51 5l10 38h312l-10 -38l-44 -4q-20 -1 -28.5 -13.5t-15.5 -42.5l-46 -207h260
l46 207q7 27 4 40.5t-23 14.5l-51 5l10 38h312l-10 -38l-44 -4q-20 -1 -28.5 -13.5t-15.5 -42.5l-111 -496q-7 -27 -4 -40.5t23 -15.5l50 -4l-9 -38h-312l9 38l45 4q20 1 28.5 13.5t15.5 42.5l54 241h-260l-54 -241q-7 -27 -4 -40.5t23 -15.5l50 -4l-9 -38h-312z" />
    <glyph glyph-name="hcircumflex" unicode="&#x125;" horiz-adv-x="629" 
d="M294 787l180 173q27 27 48 27q17 0 36 -28l114 -172l-29 -27l-113 96q-19 17 -30 17q-12 0 -38 -17l-145 -96zM79 -12l143 645q10 40 -16 43l-58 7l8 32l229 27l5 -5l-107 -442h5q46 88 110.5 147.5t137.5 59.5q58 0 78.5 -43t-2.5 -112l-72 -232q-13 -47 11 -47
q16 0 40.5 30t45.5 69l29 -15q-75 -164 -196 -164q-49 0 -69 32t-2 93l74 251q8 28 2.5 43t-22.5 15q-36 0 -88 -65.5t-82 -143.5q-25 -62 -65 -213z" />
    <glyph glyph-name="Hbar" unicode="&#x126;" horiz-adv-x="800" 
d="M40 0l9 38l45 4q20 1 28.5 13.5t15.5 42.5l102 455h-70l10 46h70q6 25 2.5 37t-22.5 13l-51 5l10 38h312l-10 -38l-44 -4q-20 -1 -28 -12.5t-15 -38.5h260q6 25 2.5 37t-22.5 13l-51 5l10 38h312l-10 -38l-44 -4q-20 -1 -28 -12.5t-15 -38.5h70l-10 -46h-70l-102 -455
q-7 -27 -4 -40.5t23 -15.5l50 -4l-9 -38h-312l9 38l45 4q20 1 28.5 13.5t15.5 42.5l54 241h-260l-54 -241q-7 -27 -4 -40.5t23 -15.5l50 -4l-9 -38h-312zM357 387h260l37 166h-260z" />
    <glyph glyph-name="hbar" unicode="&#x127;" horiz-adv-x="629" 
d="M79 -12l127 572h-68l11 45h67l6 28q10 40 -16 43l-58 7l8 32l229 27l5 -5l-32 -132h203l-11 -45h-203l-64 -265h5q46 88 110.5 147.5t137.5 59.5q58 0 78.5 -43t-2.5 -112l-72 -232q-13 -47 11 -47q16 0 40.5 30t45.5 69l29 -15q-75 -164 -196 -164q-49 0 -69 32t-2 93
l74 251q8 28 2.5 43t-22.5 15q-36 0 -88 -65.5t-82 -143.5q-25 -62 -65 -213z" />
    <glyph glyph-name="Itilde" unicode="&#x128;" horiz-adv-x="386" 
d="M40 0l9 38l45 4q20 1 28.5 13.5t15.5 42.5l111 496q7 27 4 40.5t-23 14.5l-51 5l10 38h312l-10 -38l-44 -4q-20 -1 -28.5 -13.5t-15.5 -42.5l-111 -496q-7 -27 -4 -40.5t23 -15.5l50 -4l-9 -38h-312zM162 741q9 23 17.5 38.5t25 37.5t40 34t52.5 12q31 0 92 -21
q69 -21 91 -21q27 0 42.5 12t32.5 43l32 -18q-9 -23 -17.5 -38.5t-25 -37.5t-40 -34t-52.5 -12q-21 0 -88 21q-61 21 -95 21q-27 0 -42.5 -12t-32.5 -43z" />
    <glyph glyph-name="itilde" unicode="&#x129;" horiz-adv-x="339" 
d="M99 567q8 43 39.5 82t85.5 39q28 0 94 -22q69 -21 92 -20q33 3 75 51l22 -13q-2 -3 -10.5 -20.5t-10.5 -21t-10 -18t-11.5 -18t-11.5 -14t-15 -13.5t-16 -8.5t-19.5 -7t-22.5 -1.5q-16 0 -85 21q-63 21 -99 21q-27 0 -42.5 -12t-32.5 -43zM108 107l77 285q10 39 -17 42
l-58 6l8 33l230 29l6 -6l-103 -381q-13 -47 11 -47q16 0 40 29.5t46 68.5l30 -17q-80 -161 -200 -161q-102 0 -70 119z" />
    <glyph glyph-name="Imacron" unicode="&#x12a;" horiz-adv-x="386" 
d="M192 770l18 77h350l-18 -77h-350zM40 0l9 38l45 4q20 1 28.5 13.5t15.5 42.5l111 496q7 27 4 40.5t-23 14.5l-51 5l10 38h312l-10 -38l-44 -4q-20 -1 -28.5 -13.5t-15.5 -42.5l-111 -496q-7 -27 -4 -40.5t23 -15.5l50 -4l-9 -38h-312z" />
    <glyph glyph-name="Ibreve" unicode="&#x12c;" horiz-adv-x="386" 
d="M231 892h41q-4 -24 20.5 -46.5t87.5 -22.5t97.5 22t42.5 47h41q-34 -146 -199 -146t-131 146zM40 0l9 38l45 4q20 1 28.5 13.5t15.5 42.5l111 496q7 27 4 40.5t-23 14.5l-51 5l10 38h312l-10 -38l-44 -4q-20 -1 -28.5 -13.5t-15.5 -42.5l-111 -496q-7 -27 -4 -40.5
t23 -15.5l50 -4l-9 -38h-312z" />
    <glyph glyph-name="Idotaccent" unicode="&#x130;" horiz-adv-x="386" 
d="M297 806q0 30 21.5 52.5t57.5 22.5q37 0 58 -22t21 -53q0 -30 -21 -52t-58 -22q-36 0 -57.5 22t-21.5 52zM40 0l9 38l45 4q20 1 28.5 13.5t15.5 42.5l111 496q7 27 4 40.5t-23 14.5l-51 5l10 38h312l-10 -38l-44 -4q-20 -1 -28.5 -13.5t-15.5 -42.5l-111 -496
q-7 -27 -4 -40.5t23 -15.5l50 -4l-9 -38h-312z" />
    <glyph glyph-name="dotlessi" unicode="&#x131;" horiz-adv-x="339" 
d="M108 107l77 285q10 39 -17 42l-58 6l8 33l230 29l6 -6l-103 -381q-13 -47 11 -47q16 0 40 29.5t46 68.5l30 -17q-80 -161 -200 -161q-102 0 -70 119z" />
    <glyph glyph-name="Jcircumflex" unicode="&#x134;" horiz-adv-x="388" 
d="M184 755l172 124q36 26 52 26q19 0 45 -28l112 -122l-24 -30l-106 60q-26 15 -41 15q-11 0 -42 -13l-151 -62zM-15 -79q67 11 99 48q46 52 77 189l99 436q7 27 4 40.5t-23 14.5l-51 5l10 38h312l-10 -38l-44 -4q-20 -1 -28.5 -13.5t-15.5 -42.5l-111 -488
q-26 -112 -79 -160q-66 -60 -196 -60q-32 0 -41 2z" />
    <glyph glyph-name="Lacute" unicode="&#x139;" horiz-adv-x="586" 
d="M383 751l172 123q40 30 64 30q22 0 38 -23t16 -41q0 -21 -15.5 -32.5t-57.5 -24.5l-203 -64zM40 0l9 38l45 4q20 2 28.5 14t15.5 42l111 496q7 27 4 41t-23 15l-51 4l10 38h312l-10 -38l-44 -4q-20 -2 -28.5 -14t-15.5 -42l-110 -493q-8 -35 11.5 -45t79.5 -10
q57 0 96.5 23t77.5 84l30 48h38l-58 -201h-528z" />
    <glyph glyph-name="lacute" unicode="&#x13a;" horiz-adv-x="327" 
d="M256 781l145 149q28 29 43.5 39.5t30.5 10.5q18 0 35.5 -20.5t17.5 -39.5q0 -18 -17.5 -33t-50.5 -33l-183 -103zM104 115l125 518q10 40 -16 43l-58 7l7 32l227 27l6 -5l-151 -622q-10 -47 11 -47q16 0 41 29.5t46 68.5l31 -18q-79 -160 -197 -160q-103 0 -72 127z" />
    <glyph glyph-name="Lcaron" unicode="&#x13d;" horiz-adv-x="586" 
d="M40 0l9 38l45 4q20 2 28.5 14t15.5 42l111 496q7 27 4 41t-23 15l-51 4l10 38h312l-10 -38l-44 -4q-20 -2 -28.5 -14t-15.5 -42l-110 -493q-8 -35 11.5 -45t79.5 -10q57 0 96.5 23t77.5 84l30 48h38l-58 -201h-528zM552 742q0 23 17.5 46t56.5 23q32 0 49.5 -22.5
t17.5 -57.5q0 -54 -32 -108t-72 -91l-28 23q14 23 21.5 54t7.5 45q0 17 -19 43.5t-19 44.5z" />
    <glyph glyph-name="lcaron" unicode="&#x13e;" horiz-adv-x="354" 
d="M104 115l125 518q10 40 -16 43l-58 7l7 32l227 27l6 -5l-151 -622q-10 -47 11 -47q16 0 41 29.5t46 68.5l31 -18q-79 -160 -197 -160q-103 0 -72 127zM417 742q0 23 17.5 46t56.5 23q32 0 49.5 -22.5t17.5 -57.5q0 -54 -32 -108t-72 -91l-28 23q14 23 21.5 54t7.5 45
q0 17 -19 43.5t-19 44.5z" />
    <glyph glyph-name="Lslash" unicode="&#x141;" horiz-adv-x="592" 
d="M46 0l9 38l45 4q20 2 28.5 14t15.5 42l33 148l-107 -68l15 66l107 67l63 283q7 27 4 41t-23 15l-51 4l10 38h312l-10 -38l-44 -4q-20 -2 -28.5 -14t-15.5 -42l-37 -169l148 94l-15 -66l-148 -94l-58 -258q-8 -35 11.5 -45t79.5 -10q57 0 96.5 23t77.5 84l30 48h38
l-58 -201h-528z" />
    <glyph glyph-name="lslash" unicode="&#x142;" horiz-adv-x="339" 
d="M53 216l14 60l96 58l72 299q10 40 -16 43l-58 7l7 32l227 27l6 -5l-75 -312l129 79l-15 -60l-129 -79l-61 -250q-10 -47 11 -47q16 0 41 29.5t46 68.5l31 -18q-79 -160 -197 -160q-103 0 -72 127l39 159z" />
    <glyph glyph-name="Nacute" unicode="&#x143;" horiz-adv-x="741" 
d="M450 751l172 123q40 30 64 30q22 0 38 -23t16 -41q0 -21 -15.5 -32.5t-57.5 -24.5l-203 -64zM30 0l8 38l37 3q35 3 50 50q15 46 38 148l78 355q7 27 4 40.5t-23 14.5l-50 5l10 38h222q90 -219 213 -509h3l59 270q25 117 28 148q2 25 -5.5 37t-28.5 13l-54 3l8 38h246
l-8 -38l-37 -3q-35 -3 -50 -50q-15 -46 -38 -148l-100 -453h-104q-117 280 -237 561h-4l-72 -322q-23 -114 -27 -148q-2 -25 5.5 -37t28.5 -13l54 -3l-8 -38h-246z" />
    <glyph glyph-name="nacute" unicode="&#x144;" horiz-adv-x="635" 
d="M362 541l145 149q28 29 43.5 39.5t30.5 10.5q18 0 35.5 -20.5t17.5 -39.5q0 -18 -17.5 -33t-50.5 -33l-183 -103zM80 -12l103 403q12 40 -15 43l-60 6l8 33l233 29l5 -5l-68 -217h6q52 97 118 159.5t138 62.5q40 0 61.5 -20t22.5 -52.5t-9 -72.5l-75 -242q-14 -47 11 -47
q17 0 41 29.5t45 68.5l29 -18q-78 -160 -201 -160q-47 0 -65.5 31t-2.5 88l76 256q18 59 -20 59q-33 0 -87.5 -72.5t-80.5 -136.5q-40 -102 -72 -213z" />
    <glyph glyph-name="Ncommaaccent" unicode="&#x145;" horiz-adv-x="741" 
d="M30 0l8 38l37 3q35 3 50 50q15 46 38 148l78 355q7 27 4 40.5t-23 14.5l-50 5l10 38h222q90 -219 213 -509h3l59 270q25 117 28 148q2 25 -5.5 37t-28.5 13l-54 3l8 38h246l-8 -38l-37 -3q-35 -3 -50 -50q-15 -46 -38 -148l-100 -453h-104q-117 280 -237 561h-4l-72 -322
q-23 -114 -27 -148q-2 -25 5.5 -37t28.5 -13l54 -3l-8 -38h-246zM256 -274q54 52 54 91q0 16 -10 38t-10 38q0 29 18.5 47t49.5 18q30 0 47 -21t17 -50q0 -52 -38.5 -94.5t-107.5 -89.5z" />
    <glyph glyph-name="ncommaaccent" unicode="&#x146;" horiz-adv-x="635" 
d="M80 -12l103 403q12 40 -15 43l-60 6l8 33l233 29l5 -5l-68 -217h6q52 97 118 159.5t138 62.5q40 0 61.5 -20t22.5 -52.5t-9 -72.5l-75 -242q-14 -47 11 -47q17 0 41 29.5t45 68.5l29 -18q-78 -160 -201 -160q-47 0 -65.5 31t-2.5 88l76 256q18 59 -20 59
q-33 0 -87.5 -72.5t-80.5 -136.5q-40 -102 -72 -213zM196 -274q54 52 54 91q0 16 -10 38t-10 38q0 29 18.5 47t49.5 18q30 0 47 -21t17 -50q0 -52 -38.5 -94.5t-107.5 -89.5z" />
    <glyph glyph-name="Ncaron" unicode="&#x147;" horiz-adv-x="741" 
d="M385 886l24 30l106 -60q26 -15 41 -15q11 0 42 13l151 62l17 -30l-172 -124q-36 -26 -52 -26q-19 0 -45 28zM30 0l8 38l37 3q35 3 50 50q15 46 38 148l78 355q7 27 4 40.5t-23 14.5l-50 5l10 38h222q90 -219 213 -509h3l59 270q25 117 28 148q2 25 -5.5 37t-28.5 13
l-54 3l8 38h246l-8 -38l-37 -3q-35 -3 -50 -50q-15 -46 -38 -148l-100 -453h-104q-117 280 -237 561h-4l-72 -322q-23 -114 -27 -148q-2 -25 5.5 -37t28.5 -13l54 -3l-8 -38h-246z" />
    <glyph glyph-name="ncaron" unicode="&#x148;" horiz-adv-x="635" 
d="M280 720l29 27l113 -96q19 -17 30 -17q12 0 38 17l145 96l23 -27l-180 -173q-27 -27 -48 -27q-17 0 -36 28zM80 -12l103 403q12 40 -15 43l-60 6l8 33l233 29l5 -5l-68 -217h6q52 97 118 159.5t138 62.5q40 0 61.5 -20t22.5 -52.5t-9 -72.5l-75 -242q-14 -47 11 -47
q17 0 41 29.5t45 68.5l29 -18q-78 -160 -201 -160q-47 0 -65.5 31t-2.5 88l76 256q18 59 -20 59q-33 0 -87.5 -72.5t-80.5 -136.5q-40 -102 -72 -213z" />
    <glyph glyph-name="Eng" unicode="&#x14a;" horiz-adv-x="765" 
d="M40 0l9 38l45 4q20 1 28.5 13.5t15.5 42.5l111 496q7 27 4 40.5t-23 14.5l-51 5l10 38h236l-24 -111h2q142 126 273 126q176 0 123 -221l-109 -459q-16 -68 -41 -117.5t-53 -78t-64.5 -45.5t-69.5 -22.5t-74 -5.5q-71 0 -111.5 33t-40.5 69q0 29 24 45.5t55 16.5
q24 0 36.5 -18.5t15 -40.5t12.5 -40.5t29 -18.5q78 0 133 243l107 459q14 58 1 88.5t-57 30.5q-66 0 -154 -82q-57 -52 -72 -118l-74 -327q-7 -27 -4 -41t23 -15l52 -4l-9 -38h-314z" />
    <glyph glyph-name="eng" unicode="&#x14b;" horiz-adv-x="623" 
d="M80 -12l103 403q12 40 -15 43l-60 6l8 33l233 29l5 -5l-68 -217h6q52 97 118 159.5t138 62.5q59 0 77 -43t-2 -102l-91 -331q-51 -181 -99 -224q-52 -44 -117 -44q-61 0 -92.5 19.5t-31.5 48.5q0 21 19.5 40.5t40.5 19.5q22 0 37 -29q27 -53 45 -53q11 0 19 34l58 270
l70 255q16 59 -20 59q-33 0 -87.5 -72.5t-80.5 -136.5q-40 -102 -72 -213z" />
    <glyph glyph-name="Omacron" unicode="&#x14c;" horiz-adv-x="761" 
d="M346 770l18 77h350l-18 -77h-350zM113 264q0 134 57 244q104 199 337 199q134 0 215 -71.5t81 -216.5q0 -130 -59 -243q-99 -191 -324 -191q-148 0 -227.5 75t-79.5 204zM278 190q0 -159 125 -159q70 0 125.5 79.5t82.5 186.5t27 209q0 155 -116 155q-58 0 -107 -50.5
t-77.5 -126t-44 -153t-15.5 -141.5z" />
    <glyph glyph-name="omacron" unicode="&#x14d;" horiz-adv-x="562" 
d="M247 592l15 72h311l-15 -72h-311zM77 174q0 106 59 197q84 131 245 131q42 0 77 -9t66 -30t49 -60.5t18 -94.5q0 -95 -62 -193q-80 -127 -245 -127q-104 0 -155.5 50.5t-51.5 135.5zM222 107q0 -73 60 -73q37 0 69.5 42t52 100.5t31 112.5t11.5 85q0 82 -57 82
q-62 0 -115 -117q-52 -119 -52 -232z" />
    <glyph glyph-name="Obreve" unicode="&#x14e;" horiz-adv-x="761" 
d="M385 892h41q-4 -24 20.5 -46.5t87.5 -22.5t97.5 22t42.5 47h41q-34 -146 -199 -146t-131 146zM113 264q0 134 57 244q104 199 337 199q134 0 215 -71.5t81 -216.5q0 -130 -59 -243q-99 -191 -324 -191q-148 0 -227.5 75t-79.5 204zM278 190q0 -159 125 -159
q70 0 125.5 79.5t82.5 186.5t27 209q0 155 -116 155q-58 0 -107 -50.5t-77.5 -126t-44 -153t-15.5 -141.5z" />
    <glyph glyph-name="obreve" unicode="&#x14f;" horiz-adv-x="562" 
d="M274 714h34q-4 -10 -0.5 -23t11 -24.5t31 -19.5t58.5 -8q115 0 144 75h34q-14 -73 -56.5 -115.5t-137.5 -42.5q-40 0 -67.5 9.5t-41 25t-18 37t-2 42t10.5 44.5zM77 174q0 106 59 197q84 131 245 131q42 0 77 -9t66 -30t49 -60.5t18 -94.5q0 -95 -62 -193
q-80 -127 -245 -127q-104 0 -155.5 50.5t-51.5 135.5zM222 107q0 -73 60 -73q37 0 69.5 42t52 100.5t31 112.5t11.5 85q0 82 -57 82q-62 0 -115 -117q-52 -119 -52 -232z" />
    <glyph glyph-name="Ohungarumlaut" unicode="&#x150;" horiz-adv-x="761" 
d="M113 264q0 134 57 244q104 199 337 199q134 0 215 -71.5t81 -216.5q0 -130 -59 -243q-99 -191 -324 -191q-148 0 -227.5 75t-79.5 204zM278 190q0 -159 125 -159q70 0 125.5 79.5t82.5 186.5t27 209q0 155 -116 155q-58 0 -107 -50.5t-77.5 -126t-44 -153t-15.5 -141.5z
M401 754l103 117q32 36 49 36q20 0 39.5 -24.5t19.5 -43.5q0 -12 -11.5 -22.5t-37.5 -23.5l-139 -70zM600 754l103 117q32 36 49 36q20 0 39.5 -24.5t19.5 -43.5q0 -12 -11.5 -22.5t-37.5 -23.5l-139 -70z" />
    <glyph glyph-name="ohungarumlaut" unicode="&#x151;" horiz-adv-x="562" 
d="M77 174q0 106 59 197q84 131 245 131q42 0 77 -9t66 -30t49 -60.5t18 -94.5q0 -95 -62 -193q-80 -127 -245 -127q-104 0 -155.5 50.5t-51.5 135.5zM222 107q0 -73 60 -73q37 0 69.5 42t52 100.5t31 112.5t11.5 85q0 82 -57 82q-62 0 -115 -117q-52 -119 -52 -232z
M295 563l54 140q17 47 43 47q19 0 40 -11.5t21 -26.5q0 -25 -34 -62l-96 -104zM462 563l54 140q17 47 43 47q18 0 39 -11.5t21 -26.5q0 -26 -33 -62l-96 -104z" />
    <glyph glyph-name="OE" unicode="&#x152;" horiz-adv-x="1016" 
d="M111 287q0 24 2.5 48.5t13.5 66.5t30 78.5t56.5 77t87 69t127.5 47t174 18.5h517l-40 -185h-38l-5 55q-3 40 -28 62t-86 22h-69q-26 0 -35 -5.5t-14 -27.5l-51 -226h92q46 0 66 17.5t45 73.5h38l-50 -229h-38q2 49 -12 69.5t-60 20.5h-92l-53 -234q-9 -39 12.5 -49
t93.5 -10q61 0 100 22.5t76 85.5l32 54h38l-59 -208h-509q-179 0 -270.5 75t-91.5 212zM276 255q0 -109 51.5 -159t131.5 -50q63 0 75 54l113 499q6 26 -5.5 36.5t-45.5 10.5q-63 0 -117 -25t-90.5 -65.5t-62.5 -92.5t-38 -105t-12 -103z" />
    <glyph glyph-name="oe" unicode="&#x153;" horiz-adv-x="811" 
d="M77 174q0 105 58 197q85 131 246 131q46 0 89.5 -20t67.5 -61q89 81 179 81q66 0 108 -31.5t42 -84.5q0 -58 -46 -100q-69 -61 -262 -99v-24q0 -109 78 -109q41 0 78 30.5t80 91.5l30 -24q-91 -164 -244 -164q-89 0 -128 77q-31 -36 -79.5 -56.5t-93.5 -20.5
q-101 0 -152 50.5t-51 135.5zM221 107q0 -73 59 -73q37 0 70 42t52.5 100.5t31 112.5t11.5 85q0 82 -57 82q-62 0 -115 -117q-52 -119 -52 -232zM563 232q81 17 129 68t48 113q0 43 -38 43q-44 0 -86 -68.5t-53 -155.5z" />
    <glyph glyph-name="Racute" unicode="&#x154;" horiz-adv-x="681" 
d="M390 751l172 123q40 30 64 30q22 0 38 -23t16 -41q0 -21 -15.5 -32.5t-57.5 -24.5l-203 -64zM40 0l9 38l45 4q20 1 28.5 13.5t15.5 42.5l111 496q7 27 4 40.5t-23 14.5l-51 5l10 38h282q130 0 190 -35q70 -42 70 -130q0 -77 -58.5 -127.5t-153.5 -56.5v-2q30 -7 50 -19
t30.5 -27t16 -34.5t5.5 -41v-45.5q-4 -69 19 -108q14 -23 61 -28l-9 -38h-96q-105 0 -121 83q-7 38 -4 103t0 78q-6 29 -21 41t-51 12h-58l-49 -219q-7 -27 -4 -40.5t23 -15.5l50 -4l-9 -38h-312zM351 363h63q63 0 110.5 49t47.5 131q0 103 -104 103q-34 0 -45 -7.5
t-16 -28.5z" />
    <glyph glyph-name="racute" unicode="&#x155;" horiz-adv-x="440" 
d="M336 541l145 149q28 29 43.5 39.5t30.5 10.5q18 0 35.5 -20.5t17.5 -39.5q0 -18 -17.5 -33t-50.5 -33l-183 -103zM86 -12l93 403q9 40 -15 43l-59 6l7 33l213 29l5 -5l-37 -145h5q39 70 83 110t89 40q62 0 62 -59q0 -31 -19.5 -58.5t-48.5 -27.5q-21 0 -48 19
q-23 16 -38 16q-46 0 -97 -179q-10 -35 -28.5 -109t-26.5 -104z" />
    <glyph glyph-name="Rcaron" unicode="&#x158;" horiz-adv-x="681" 
d="M325 886l24 30l106 -60q26 -15 41 -15q11 0 42 13l151 62l17 -30l-172 -124q-36 -26 -52 -26q-19 0 -45 28zM40 0l9 38l45 4q20 1 28.5 13.5t15.5 42.5l111 496q7 27 4 40.5t-23 14.5l-51 5l10 38h282q130 0 190 -35q70 -42 70 -130q0 -77 -58.5 -127.5t-153.5 -56.5v-2
q30 -7 50 -19t30.5 -27t16 -34.5t5.5 -41v-45.5q-4 -69 19 -108q14 -23 61 -28l-9 -38h-96q-105 0 -121 83q-7 38 -4 103t0 78q-6 29 -21 41t-51 12h-58l-49 -219q-7 -27 -4 -40.5t23 -15.5l50 -4l-9 -38h-312zM351 363h63q63 0 110.5 49t47.5 131q0 103 -104 103
q-34 0 -45 -7.5t-16 -28.5z" />
    <glyph glyph-name="rcaron" unicode="&#x159;" horiz-adv-x="440" 
d="M254 720l29 27l113 -96q19 -17 30 -17q12 0 38 17l145 96l23 -27l-180 -173q-27 -27 -48 -27q-17 0 -36 28zM86 -12l93 403q9 40 -15 43l-59 6l7 33l213 29l5 -5l-37 -145h5q39 70 83 110t89 40q62 0 62 -59q0 -31 -19.5 -58.5t-48.5 -27.5q-21 0 -48 19q-23 16 -38 16
q-46 0 -97 -179q-10 -35 -28.5 -109t-26.5 -104z" />
    <glyph glyph-name="Sacute" unicode="&#x15a;" horiz-adv-x="551" 
d="M328 751l172 123q40 30 64 30q22 0 38 -23t16 -41q0 -21 -15.5 -32.5t-57.5 -24.5l-203 -64zM66 70l23 177h37q10 -101 60 -158.5t112 -57.5q58 0 89 34t31 86q0 89 -103 148q-77 45 -117.5 90t-40.5 108q0 36 12.5 70t39.5 67t79.5 53t123.5 20q125 0 193 -54l-34 -161
h-38q-2 84 -36 126.5t-89 42.5q-52 0 -81.5 -32.5t-29.5 -75.5q0 -40 30 -71t85 -62q77 -43 114 -93t37 -117q0 -99 -66.5 -161.5t-196.5 -63.5q-67 0 -132.5 21t-101.5 64z" />
    <glyph glyph-name="sacute" unicode="&#x15b;" horiz-adv-x="417" 
d="M245 541l145 149q28 29 43.5 39.5t30.5 10.5q18 0 35.5 -20.5t17.5 -39.5q0 -18 -17.5 -33t-50.5 -33l-183 -103zM45 89q0 27 21.5 48t44.5 21q29 0 44 -30q26 -53 48.5 -73.5t47.5 -20.5q23 0 37.5 14.5t14.5 37.5q-3 49 -86 116q-87 70 -90 138q-3 67 46 114.5
t136 47.5q77 0 117.5 -28.5t40.5 -58.5q0 -28 -21 -43.5t-45 -15.5q-26 0 -39 26q-21 40 -37.5 57t-36.5 17t-34 -14.5t-13 -37.5q1 -27 21 -51.5t64 -57.5q91 -69 91 -150q0 -68 -47.5 -112.5t-144.5 -44.5q-86 0 -133 31.5t-47 69.5z" />
    <glyph glyph-name="Scircumflex" unicode="&#x15c;" horiz-adv-x="551" 
d="M233 755l172 124q36 26 52 26q19 0 45 -28l112 -122l-24 -30l-106 60q-26 15 -41 15q-11 0 -42 -13l-151 -62zM66 70l23 177h37q10 -101 60 -158.5t112 -57.5q58 0 89 34t31 86q0 89 -103 148q-77 45 -117.5 90t-40.5 108q0 36 12.5 70t39.5 67t79.5 53t123.5 20
q125 0 193 -54l-34 -161h-38q-2 84 -36 126.5t-89 42.5q-52 0 -81.5 -32.5t-29.5 -75.5q0 -40 30 -71t85 -62q77 -43 114 -93t37 -117q0 -99 -66.5 -161.5t-196.5 -63.5q-67 0 -132.5 21t-101.5 64z" />
    <glyph glyph-name="scircumflex" unicode="&#x15d;" horiz-adv-x="417" 
d="M130 547l180 173q27 27 48 27q17 0 36 -28l114 -172l-29 -27l-113 96q-19 17 -30 17q-12 0 -38 -17l-145 -96zM45 89q0 27 21.5 48t44.5 21q29 0 44 -30q26 -53 48.5 -73.5t47.5 -20.5q23 0 37.5 14.5t14.5 37.5q-3 49 -86 116q-87 70 -90 138q-3 67 46 114.5t136 47.5
q77 0 117.5 -28.5t40.5 -58.5q0 -28 -21 -43.5t-45 -15.5q-26 0 -39 26q-21 40 -37.5 57t-36.5 17t-34 -14.5t-13 -37.5q1 -27 21 -51.5t64 -57.5q91 -69 91 -150q0 -68 -47.5 -112.5t-144.5 -44.5q-86 0 -133 31.5t-47 69.5z" />
    <glyph glyph-name="Scedilla" unicode="&#x15e;" horiz-adv-x="551" 
d="M66 70l23 177h37q10 -101 60 -158.5t112 -57.5q58 0 89 34t31 86q0 89 -103 148q-77 45 -117.5 90t-40.5 108q0 36 12.5 70t39.5 67t79.5 53t123.5 20q125 0 193 -54l-34 -161h-38q-2 84 -36 126.5t-89 42.5q-52 0 -81.5 -32.5t-29.5 -75.5q0 -40 30 -71t85 -62
q77 -43 114 -93t37 -117q0 -99 -66.5 -161.5t-196.5 -63.5q-67 0 -132.5 21t-101.5 64zM168 -243l2 32q96 0 101 58q3 29 -16 41t-44 14l-3 8l66 90h58l-44 -56q20 -3 38.5 -10t35 -29.5t13.5 -55.5q-3 -28 -21 -48.5t-44.5 -29.5t-49.5 -13t-44 -4q-22 0 -48 3z" />
    <glyph glyph-name="scedilla" unicode="&#x15f;" horiz-adv-x="417" 
d="M45 89q0 27 21.5 48t44.5 21q29 0 44 -30q26 -53 48.5 -73.5t47.5 -20.5q23 0 37.5 14.5t14.5 37.5q-3 49 -86 116q-87 70 -90 138q-3 67 46 114.5t136 47.5q77 0 117.5 -28.5t40.5 -58.5q0 -28 -21 -43.5t-45 -15.5q-26 0 -39 26q-21 40 -37.5 57t-36.5 17t-34 -14.5
t-13 -37.5q1 -27 21 -51.5t64 -57.5q91 -69 91 -150q0 -68 -47.5 -112.5t-144.5 -44.5q-86 0 -133 31.5t-47 69.5zM93 -243l2 32q96 0 101 58q3 29 -16 41t-44 14l-3 8l66 90h58l-44 -56q20 -3 38.5 -10t35 -29.5t13.5 -55.5q-3 -28 -21 -48.5t-44.5 -29.5t-49.5 -13t-44 -4
q-23 0 -48 3z" />
    <glyph glyph-name="Scaron" unicode="&#x160;" horiz-adv-x="551" 
d="M266 886l24 30l106 -60q26 -15 41 -15q11 0 42 13l151 62l17 -30l-172 -124q-36 -26 -52 -26q-19 0 -45 28zM66 70l23 177h37q10 -101 60 -158.5t112 -57.5q58 0 89 34t31 86q0 89 -103 148q-77 45 -117.5 90t-40.5 108q0 36 12.5 70t39.5 67t79.5 53t123.5 20
q125 0 193 -54l-34 -161h-38q-2 84 -36 126.5t-89 42.5q-52 0 -81.5 -32.5t-29.5 -75.5q0 -40 30 -71t85 -62q77 -43 114 -93t37 -117q0 -99 -66.5 -161.5t-196.5 -63.5q-67 0 -132.5 21t-101.5 64z" />
    <glyph glyph-name="scaron" unicode="&#x161;" horiz-adv-x="417" 
d="M179 720l29 27l113 -96q19 -17 30 -17q12 0 38 17l145 96l23 -27l-180 -173q-27 -27 -48 -27q-17 0 -36 28zM45 89q0 27 21.5 48t44.5 21q29 0 44 -30q26 -53 48.5 -73.5t47.5 -20.5q23 0 37.5 14.5t14.5 37.5q-3 49 -86 116q-87 70 -90 138q-3 67 46 114.5t136 47.5
q77 0 117.5 -28.5t40.5 -58.5q0 -28 -21 -43.5t-45 -15.5q-26 0 -39 26q-21 40 -37.5 57t-36.5 17t-34 -14.5t-13 -37.5q1 -27 21 -51.5t64 -57.5q91 -69 91 -150q0 -68 -47.5 -112.5t-144.5 -44.5q-86 0 -133 31.5t-47 69.5z" />
    <glyph glyph-name="Tcommaaccent" unicode="&#x162;" horiz-adv-x="616" 
d="M126 501l43 191h588l-43 -191h-38l-3 61q-5 84 -93 84h-48l-124 -548q-7 -27 -4 -40.5t23 -14.5l64 -5l-9 -38h-340l9 38l59 4q20 1 28.5 13.5t15.5 42.5l124 548h-52q-88 0 -131 -84l-31 -61h-38zM172 -243l2 32q96 0 101 58q3 29 -16 41t-44 14l-3 8l66 90h58l-44 -56
q20 -3 38.5 -10t35 -29.5t13.5 -55.5q-3 -28 -21 -48.5t-44.5 -29.5t-49.5 -13t-44 -4q-22 0 -48 3z" />
    <glyph glyph-name="tcommaaccent" unicode="&#x163;" horiz-adv-x="359" 
d="M109 111l84 331h-83l12 48h81l20 74l151 77l13 -8l-44 -143h120l-12 -48h-118l-82 -331q-10 -43 14 -43q40 0 99 98l28 -19q-84 -159 -211 -159q-46 0 -67 30.5t-5 92.5zM35 -243l2 32q96 0 101 58q3 29 -16 41t-44 14l-3 8l66 90h58l-44 -56q20 -3 38.5 -10t35 -29.5
t13.5 -55.5q-3 -28 -21 -48.5t-44.5 -29.5t-49.5 -13t-44 -4q-23 0 -48 3z" />
    <glyph glyph-name="Tcaron" unicode="&#x164;" horiz-adv-x="616" 
d="M321 886l24 30l106 -60q26 -15 41 -15q11 0 42 13l151 62l17 -30l-172 -124q-36 -26 -52 -26q-19 0 -45 28zM126 501l43 191h588l-43 -191h-38l-3 61q-5 84 -93 84h-48l-124 -548q-7 -27 -4 -40.5t23 -14.5l64 -5l-9 -38h-340l9 38l59 4q20 1 28.5 13.5t15.5 42.5
l124 548h-52q-88 0 -131 -84l-31 -61h-38z" />
    <glyph glyph-name="tcaron" unicode="&#x165;" horiz-adv-x="362" 
d="M109 111l84 331h-83l12 48h81l20 74l151 77l13 -8l-44 -143h120l-12 -48h-118l-82 -331q-10 -43 14 -43q40 0 99 98l28 -19q-84 -159 -211 -159q-46 0 -67 30.5t-5 92.5zM425 742q0 23 17.5 46t56.5 23q32 0 49.5 -22.5t17.5 -57.5q0 -54 -32 -108t-72 -91l-28 23
q14 23 21.5 54t7.5 45q0 17 -19 43.5t-19 44.5z" />
    <glyph glyph-name="Utilde" unicode="&#x168;" horiz-adv-x="776" 
d="M159 241l79 353q7 27 4 40.5t-23 14.5l-51 5l10 38h312l-10 -38l-44 -4q-20 -1 -28.5 -13.5t-15.5 -42.5l-80 -361q-44 -202 95 -202q64 0 103 54t65 173l75 336q7 27 4 40.5t-23 14.5l-51 5l10 38h312l-10 -38l-44 -4q-20 -1 -28.5 -13.5t-15.5 -42.5l-78 -341
q-36 -159 -114 -215q-75 -53 -210 -53q-153 0 -217 70q-54 61 -26 186zM357 741q9 23 17.5 38.5t25 37.5t40 34t52.5 12q31 0 92 -21q69 -21 91 -21q27 0 42.5 12t32.5 43l32 -18q-9 -23 -17.5 -38.5t-25 -37.5t-40 -34t-52.5 -12q-21 0 -88 21q-61 21 -95 21
q-27 0 -42.5 -12t-32.5 -43z" />
    <glyph glyph-name="utilde" unicode="&#x169;" 
d="M109 443l8 33l231 26l5 -5l-94 -369q-16 -60 19 -60q33 0 83.5 71.5t81.5 145.5q25 56 67 205l142 12l-101 -387q-14 -47 12 -47q29 0 86 98l29 -18q-79 -160 -199 -160q-41 0 -59 29t-5 79l31 114h-4q-121 -222 -259 -222q-105 0 -67 145l67 258q12 43 -15 46zM249 567
q8 43 39.5 82t85.5 39q28 0 94 -22q69 -21 92 -20q33 3 75 51l22 -13q-2 -3 -10.5 -20.5t-10.5 -21t-10 -18t-11.5 -18t-11.5 -14t-15 -13.5t-16 -8.5t-19.5 -7t-22.5 -1.5q-16 0 -85 21q-63 21 -99 21q-27 0 -42.5 -12t-32.5 -43z" />
    <glyph glyph-name="Umacron" unicode="&#x16a;" horiz-adv-x="776" 
d="M387 770l18 77h350l-18 -77h-350zM159 241l79 353q7 27 4 40.5t-23 14.5l-51 5l10 38h312l-10 -38l-44 -4q-20 -1 -28.5 -13.5t-15.5 -42.5l-80 -361q-44 -202 95 -202q64 0 103 54t65 173l75 336q7 27 4 40.5t-23 14.5l-51 5l10 38h312l-10 -38l-44 -4
q-20 -1 -28.5 -13.5t-15.5 -42.5l-78 -341q-36 -159 -114 -215q-75 -53 -210 -53q-153 0 -217 70q-54 61 -26 186z" />
    <glyph glyph-name="umacron" unicode="&#x16b;" 
d="M290 592l15 72h311l-15 -72h-311zM109 443l8 33l231 26l5 -5l-94 -369q-16 -60 19 -60q33 0 83.5 71.5t81.5 145.5q25 56 67 205l142 12l-101 -387q-14 -47 12 -47q29 0 86 98l29 -18q-79 -160 -199 -160q-41 0 -59 29t-5 79l31 114h-4q-121 -222 -259 -222
q-105 0 -67 145l67 258q12 43 -15 46z" />
    <glyph glyph-name="Ubreve" unicode="&#x16c;" horiz-adv-x="776" 
d="M426 892h41q-4 -24 20.5 -46.5t87.5 -22.5t97.5 22t42.5 47h41q-34 -146 -199 -146t-131 146zM159 241l79 353q7 27 4 40.5t-23 14.5l-51 5l10 38h312l-10 -38l-44 -4q-20 -1 -28.5 -13.5t-15.5 -42.5l-80 -361q-44 -202 95 -202q64 0 103 54t65 173l75 336q7 27 4 40.5
t-23 14.5l-51 5l10 38h312l-10 -38l-44 -4q-20 -1 -28.5 -13.5t-15.5 -42.5l-78 -341q-36 -159 -114 -215q-75 -53 -210 -53q-153 0 -217 70q-54 61 -26 186z" />
    <glyph glyph-name="ubreve" unicode="&#x16d;" 
d="M317 714h34q-4 -10 -0.5 -23t11 -24.5t31 -19.5t58.5 -8q115 0 144 75h34q-14 -73 -56.5 -115.5t-137.5 -42.5q-40 0 -67.5 9.5t-41 25t-18 37t-2 42t10.5 44.5zM109 443l8 33l231 26l5 -5l-94 -369q-16 -60 19 -60q33 0 83.5 71.5t81.5 145.5q25 56 67 205l142 12
l-101 -387q-14 -47 12 -47q29 0 86 98l29 -18q-79 -160 -199 -160q-41 0 -59 29t-5 79l31 114h-4q-121 -222 -259 -222q-105 0 -67 145l67 258q12 43 -15 46z" />
    <glyph glyph-name="Uring" unicode="&#x16e;" horiz-adv-x="776" 
d="M448 800q0 54 36.5 91.5t107.5 37.5q52 0 79.5 -26.5t27.5 -70.5q0 -54 -36.5 -91.5t-107.5 -37.5q-52 0 -79.5 26.5t-27.5 70.5zM514 795q0 -53 47 -53q29 0 50.5 27.5t21.5 67.5q0 53 -47 53q-29 0 -50.5 -27.5t-21.5 -67.5zM159 241l79 353q7 27 4 40.5t-23 14.5
l-51 5l10 38h312l-10 -38l-44 -4q-20 -1 -28.5 -13.5t-15.5 -42.5l-80 -361q-44 -202 95 -202q64 0 103 54t65 173l75 336q7 27 4 40.5t-23 14.5l-51 5l10 38h312l-10 -38l-44 -4q-20 -1 -28.5 -13.5t-15.5 -42.5l-78 -341q-36 -159 -114 -215q-75 -53 -210 -53
q-153 0 -217 70q-54 61 -26 186z" />
    <glyph glyph-name="uring" unicode="&#x16f;" 
d="M316 627q0 59 36 97t108 38q53 0 83 -28t30 -74q0 -64 -40.5 -97.5t-102.5 -33.5q-52 0 -83 26.5t-31 71.5zM384 624q0 -27 15 -41t37 -14q29 0 49 26t20 72q0 24 -14 39.5t-37 15.5q-29 0 -49.5 -27t-20.5 -71zM109 443l8 33l231 26l5 -5l-94 -369q-16 -60 19 -60
q33 0 83.5 71.5t81.5 145.5q25 56 67 205l142 12l-101 -387q-14 -47 12 -47q29 0 86 98l29 -18q-79 -160 -199 -160q-41 0 -59 29t-5 79l31 114h-4q-121 -222 -259 -222q-105 0 -67 145l67 258q12 43 -15 46z" />
    <glyph glyph-name="Uhungarumlaut" unicode="&#x170;" horiz-adv-x="776" 
d="M442 754l103 117q32 36 49 36q20 0 39.5 -24.5t19.5 -43.5q0 -12 -11.5 -22.5t-37.5 -23.5l-139 -70zM641 754l103 117q32 36 49 36q20 0 39.5 -24.5t19.5 -43.5q0 -12 -11.5 -22.5t-37.5 -23.5l-139 -70zM159 241l79 353q7 27 4 40.5t-23 14.5l-51 5l10 38h312l-10 -38
l-44 -4q-20 -1 -28.5 -13.5t-15.5 -42.5l-80 -361q-44 -202 95 -202q64 0 103 54t65 173l75 336q7 27 4 40.5t-23 14.5l-51 5l10 38h312l-10 -38l-44 -4q-20 -1 -28.5 -13.5t-15.5 -42.5l-78 -341q-36 -159 -114 -215q-75 -53 -210 -53q-153 0 -217 70q-54 61 -26 186z" />
    <glyph glyph-name="uhungarumlaut" unicode="&#x171;" 
d="M338 563l54 140q17 47 43 47q19 0 40 -11.5t21 -26.5q0 -25 -34 -62l-96 -104zM505 563l54 140q17 47 43 47q18 0 39 -11.5t21 -26.5q0 -26 -33 -62l-96 -104zM109 443l8 33l231 26l5 -5l-94 -369q-16 -60 19 -60q33 0 83.5 71.5t81.5 145.5q25 56 67 205l142 12
l-101 -387q-14 -47 12 -47q29 0 86 98l29 -18q-79 -160 -199 -160q-41 0 -59 29t-5 79l31 114h-4q-121 -222 -259 -222q-105 0 -67 145l67 258q12 43 -15 46z" />
    <glyph glyph-name="Wcircumflex" unicode="&#x174;" horiz-adv-x="920" 
d="M438 755l172 124q36 26 52 26q19 0 45 -28l112 -122l-24 -30l-106 60q-26 15 -41 15q-11 0 -42 -13l-151 -62zM115 654l7 38h288l-7 -38l-55 -5q-22 -2 -20 -34l12 -469h5l231 530h112l31 -530h5q18 38 103 228q60 134 97 231q15 42 -12 44l-53 5l7 38h231l-7 -38l-28 -3
q-23 -2 -37 -15t-31 -48q-9 -19 -56.5 -115.5t-75.5 -156.5l-149 -316h-123l-28 497h-5l-222 -497h-123l-22 398q-7 144 -13 212q-2 22 -6 30.5t-16 9.5z" />
    <glyph glyph-name="wcircumflex" unicode="&#x175;" horiz-adv-x="795" 
d="M353 547l180 173q27 27 48 27q17 0 36 -28l114 -172l-29 -27l-113 96q-19 17 -30 17q-12 0 -38 -17l-145 -96zM105 443l7 33l227 26l5 -5l-85 -357q-17 -72 25 -72q36 0 92 91q60 100 118 328l136 6l-69 -308q-14 -59 -7 -88t38 -29q48 0 96.5 91.5t52.5 195.5
q0 71 -14 126q60 21 103 21q4 0 11.5 -10.5t13.5 -29t6 -37.5q-1 -47 -32 -121.5t-82 -145.5q-124 -170 -235 -170q-46 0 -68 25.5t-22 67.5q0 40 17 114h-4q-49 -95 -112 -151t-130 -56q-47 0 -70 36t-7 104l63 263q10 43 -15 46z" />
    <glyph glyph-name="Ycircumflex" unicode="&#x176;" horiz-adv-x="622" 
d="M288 755l172 124q36 26 52 26q19 0 45 -28l112 -122l-24 -30l-106 60q-26 15 -41 15q-11 0 -42 -13l-151 -62zM127 656l8 36h301l-8 -38l-55 -6q-23 -2 -17 -29l70 -272h2q117 167 178 268q19 31 -13 34l-53 5l8 38h252l-7 -38l-29 -3q-18 -2 -31 -8.5t-20.5 -13.5
t-24.5 -26q-86 -96 -211 -280q-27 -38 -34 -72l-35 -153q-7 -27 -4 -40.5t23 -14.5l64 -5l-9 -38h-339l9 38l59 4q20 1 28.5 13.5t15.5 42.5l32 148q7 31 -2 65q-35 144 -83 298q-7 25 -15.5 33.5t-25.5 10.5z" />
    <glyph glyph-name="ycircumflex" unicode="&#x177;" horiz-adv-x="489" 
d="M202 547l180 173q27 27 48 27q17 0 36 -28l114 -172l-29 -27l-113 96q-19 17 -30 17q-12 0 -38 -17l-145 -96zM-14 -180q-2 29 19.5 54.5t48.5 26.5q15 0 24 -7t23 -26q25 -37 44 -37q27 0 44 57q11 37 11 102t-15 183t-29 190q-6 35 -13.5 48.5t-23.5 12.5h-62v30
l217 48l8 -4q11 -41 22.5 -178t12.5 -248h3q95 171 113 267q11 59 9 138q56 25 104 25q6 0 13.5 -18.5t7.5 -35.5q0 -15 -8.5 -38.5t-29.5 -61t-35 -61.5t-44 -74q-35 -58 -84 -145t-55 -97q-39 -63 -58.5 -92t-49.5 -62.5t-59 -46t-67 -12.5q-41 0 -66 18.5t-25 43.5z" />
    <glyph glyph-name="Ydieresis" unicode="&#x178;" horiz-adv-x="622" 
d="M538 806q0 30 21.5 52.5t57.5 22.5q37 0 58 -22t21 -53q0 -30 -21 -52t-58 -22q-36 0 -57.5 22t-21.5 52zM286 806q0 30 21.5 52.5t57.5 22.5q37 0 58 -22t21 -53q0 -30 -21 -52t-58 -22q-36 0 -57.5 22t-21.5 52zM127 656l8 36h301l-8 -38l-55 -6q-23 -2 -17 -29
l70 -272h2q117 167 178 268q19 31 -13 34l-53 5l8 38h252l-7 -38l-29 -3q-18 -2 -31 -8.5t-20.5 -13.5t-24.5 -26q-86 -96 -211 -280q-27 -38 -34 -72l-35 -153q-7 -27 -4 -40.5t23 -14.5l64 -5l-9 -38h-339l9 38l59 4q20 1 28.5 13.5t15.5 42.5l32 148q7 31 -2 65
q-35 144 -83 298q-7 25 -15.5 33.5t-25.5 10.5z" />
    <glyph glyph-name="Zacute" unicode="&#x179;" horiz-adv-x="618" 
d="M383 751l172 123q40 30 64 30q22 0 38 -23t16 -41q0 -21 -15.5 -32.5t-57.5 -24.5l-203 -64zM5 20q283 327 535 626h-141q-69 0 -108.5 -20.5t-63.5 -73.5l-21 -47h-38l39 187h534l8 -19q-252 -290 -538 -627h198q60 0 99.5 23t76.5 85l32 54h38l-59 -208h-584z" />
    <glyph glyph-name="zacute" unicode="&#x17a;" horiz-adv-x="466" 
d="M292 541l145 149q28 29 43.5 39.5t30.5 10.5q18 0 35.5 -20.5t17.5 -39.5q0 -18 -17.5 -33t-50.5 -33l-183 -103zM18 19q0 28 27 59q94 102 325 316v2h-145q-39 0 -59 -19.5t-48 -70.5l-25 12q31 122 77 172h363l8 -16q-267 -245 -334 -318v-6q18 -3 71 -22
q69 -23 102 -23q18 0 33 8t26.5 22.5t21.5 30.5t21 37q3 5 4 8l29 -10q-12 -50 -22 -82.5t-26 -65.5t-37 -49t-48 -16q-47 0 -151 40q-101 40 -102 40q-10 0 -10 -18l4 -30q1 -16 -17 -24t-50 -8q-38 0 -38 31z" />
    <glyph glyph-name="Zdotaccent" unicode="&#x17b;" horiz-adv-x="618" 
d="M411 806q0 30 21.5 52.5t57.5 22.5q37 0 58 -22t21 -53q0 -30 -21 -52t-58 -22q-36 0 -57.5 22t-21.5 52zM5 20q283 327 535 626h-141q-69 0 -108.5 -20.5t-63.5 -73.5l-21 -47h-38l39 187h534l8 -19q-252 -290 -538 -627h198q60 0 99.5 23t76.5 85l32 54h38l-59 -208
h-584z" />
    <glyph glyph-name="zdotaccent" unicode="&#x17c;" horiz-adv-x="466" 
d="M308 635q0 30 21.5 52.5t57.5 22.5q37 0 58 -22t21 -53q0 -30 -21 -52t-58 -22q-36 0 -57.5 22t-21.5 52zM18 19q0 28 27 59q94 102 325 316v2h-145q-39 0 -59 -19.5t-48 -70.5l-25 12q31 122 77 172h363l8 -16q-267 -245 -334 -318v-6q18 -3 71 -22q69 -23 102 -23
q18 0 33 8t26.5 22.5t21.5 30.5t21 37q3 5 4 8l29 -10q-12 -50 -22 -82.5t-26 -65.5t-37 -49t-48 -16q-47 0 -151 40q-101 40 -102 40q-10 0 -10 -18l4 -30q1 -16 -17 -24t-50 -8q-38 0 -38 31z" />
    <glyph glyph-name="Zcaron" unicode="&#x17d;" horiz-adv-x="618" 
d="M303 886l24 30l106 -60q26 -15 41 -15q11 0 42 13l151 62l17 -30l-172 -124q-36 -26 -52 -26q-19 0 -45 28zM5 20q283 327 535 626h-141q-69 0 -108.5 -20.5t-63.5 -73.5l-21 -47h-38l39 187h534l8 -19q-252 -290 -538 -627h198q60 0 99.5 23t76.5 85l32 54h38l-59 -208
h-584z" />
    <glyph glyph-name="zcaron" unicode="&#x17e;" horiz-adv-x="466" 
d="M183 720l29 27l113 -96q19 -17 30 -17q12 0 38 17l145 96l23 -27l-180 -173q-27 -27 -48 -27q-17 0 -36 28zM18 19q0 28 27 59q94 102 325 316v2h-145q-39 0 -59 -19.5t-48 -70.5l-25 12q31 122 77 172h363l8 -16q-267 -245 -334 -318v-6q18 -3 71 -22q69 -23 102 -23
q18 0 33 8t26.5 22.5t21.5 30.5t21 37q3 5 4 8l29 -10q-12 -50 -22 -82.5t-26 -65.5t-37 -49t-48 -16q-47 0 -151 40q-101 40 -102 40q-10 0 -10 -18l4 -30q1 -16 -17 -24t-50 -8q-38 0 -38 31z" />
    <glyph glyph-name="longs" unicode="&#x17f;" horiz-adv-x="342" 
d="M-94 -168q0 23 18 41t42 18q10 0 18.5 -5.5t11 -9.5t9.5 -16q32 -56 47 -56q13 0 19 27l123 611h-89l14 48h86l7 26q13 48 30 84.5t44 70.5t68 52.5t93 18.5q63 0 103 -26t40 -62q0 -26 -22 -43t-47 -17q-27 0 -42 30q-20 42 -31.5 57t-23.5 15q-23 0 -41 -76l-138 -592
q-33 -139 -83.5 -204.5t-135.5 -65.5q-56 0 -88 20.5t-32 53.5z" />
    <glyph glyph-name="uni0186" unicode="&#x186;" horiz-adv-x="672" 
d="M48 33l31 179h38q0 -181 151 -181q72 0 128 41t87 106.5t46.5 136.5t15.5 142q0 100 -41.5 152t-106.5 52q-71 0 -120.5 -46t-101.5 -143h-38l47 194q85 41 213 41q81 0 141.5 -22t93 -53t52 -73.5t25 -75t5.5 -66.5q0 -143 -69 -249q-120 -183 -375 -183
q-53 0 -117.5 11.5t-104.5 36.5z" />
    <glyph glyph-name="uni0189" unicode="&#x189;" horiz-adv-x="780" 
d="M46 0l9 38l45 4q20 1 28.5 13.5t15.5 42.5l54 241h-95l12 48h94l46 207q7 27 4 40.5t-23 14.5l-51 5l10 38h275q180 -2 263 -65q92 -70 92 -224q0 -43 -15 -104t-51 -117q-56 -89 -147 -135.5t-245 -46.5h-321zM298 97q-7 -30 10.5 -40.5t57.5 -10.5q66 0 119.5 31.5
t85.5 78t53.5 104.5t29.5 106t8 88t-6 70.5t-23 60t-51.5 45.5t-85.5 16q-48 0 -64 -7.5t-21 -32.5l-48 -219h144l-12 -48h-143z" />
    <glyph glyph-name="uni018F" unicode="&#x18f;" horiz-adv-x="731" 
d="M113 304q0 20 13.5 33.5t33.5 13.5h432q16 77 16 155q0 75 -27 115t-104 40q-75 0 -133.5 -48.5t-91.5 -118.5h-38l36 151q45 29 113.5 45.5t113.5 16.5q134 0 215 -71.5t81 -216.5q0 -50 -9.5 -103.5t-35.5 -114t-66 -107.5t-107.5 -78t-152.5 -31q-148 0 -218.5 74.5
t-70.5 244.5zM278 210q0 -91 25.5 -135t81.5 -44q46 0 86 41.5t65.5 99t45.5 131.5h-263q-31 0 -35 -30q-6 -36 -6 -63z" />
    <glyph glyph-name="uni0190" unicode="&#x190;" horiz-adv-x="595" 
d="M77 170q0 81 67.5 139.5t145.5 68.5v2q-50 18 -80.5 51t-30.5 77q0 90 81 144.5t205 54.5q140 0 227 -53l-33 -152h-38q0 79 -33.5 119t-114.5 40q-63 0 -101 -42t-38 -104q0 -117 111 -117h64l-10 -48h-68q-76 0 -132.5 -58t-56.5 -131q0 -68 37 -99t82 -31q44 0 77 11
t59.5 37t45 55.5t42.5 78.5h38l-54 -187q-76 -41 -215 -41q-28 0 -53 2t-59 8t-61.5 19t-52 32.5t-38 51t-13.5 72.5z" />
    <glyph glyph-name="uni0191" unicode="&#x191;" horiz-adv-x="585" 
d="M-175 -140q0 29 24 45.5t55 16.5q24 0 36.5 -18.5t15 -40.5t12 -40.5t28.5 -18.5q74 0 129 243l124 547q7 27 4 40.5t-23 14.5l-51 5l10 38h529l-40 -183h-38l-5 53q-3 42 -27.5 63t-86.5 21h-74q-19 0 -27 -6t-12 -23l-55 -249h113q46 0 66.5 17.5t45.5 73.5h38
l-50 -230h-38q2 50 -12 70.5t-60 20.5h-115l-67 -293q-15 -67 -40 -117t-53 -78.5t-64.5 -45.5t-68.5 -22.5t-72 -5.5q-70 0 -110.5 33t-40.5 69z" />
    <glyph glyph-name="florin" unicode="&#x192;" horiz-adv-x="560" 
d="M19 -64q1 23 18.5 39t39.5 16q21 0 35 -27q29 -53 47 -53q13 0 20 31l85 419h-104l11 48h104l12 53q26 108 81 167q59 62 148 62q44 0 77 -10t48.5 -25.5t22.5 -29.5t6 -25q-1 -25 -22.5 -39.5t-47.5 -14.5q-27 0 -42 32q-17 37 -28 51.5t-23 14.5q-26 0 -41 -70
l-37 -166h125l-10 -48h-127l-27 -116q-54 -233 -117 -316q-49 -64 -132 -64q-59 0 -90.5 23t-31.5 48z" />
    <glyph glyph-name="uni0194" unicode="&#x194;" horiz-adv-x="620" 
d="M131 656l8 36h297l-8 -38l-51 -6q-23 -2 -17 -29l64 -270h2q105 149 175 266q19 31 -13 34l-50 5l8 38h249l-7 -38l-29 -3q-26 -3 -40 -12.5t-36 -35.5q-76 -90 -241 -319q32 -98 32 -155q0 -65 -41.5 -104t-112.5 -39q-52 0 -78.5 20t-26.5 76q0 53 93 148
q-57 234 -102 379q-7 25 -15.5 33.5t-25.5 10.5zM276 70q0 -39 32 -39q16 0 31 16t15 46q0 31 -19 79h-2q-57 -65 -57 -102z" />
    <glyph glyph-name="uni0196" unicode="&#x196;" horiz-adv-x="444" 
d="M153 220l85 374q7 27 4 40.5t-23 14.5l-51 5l10 38h235l-107 -486q-32 -142 39 -142q30 0 90 31l16 -34q-107 -76 -173 -76q-88 0 -119 62t-6 173z" />
    <glyph glyph-name="uni0197" unicode="&#x197;" horiz-adv-x="404" 
d="M49 0l9 38l45 4q20 1 28.5 13.5t15.5 42.5l54 243h-86l11 48h86l46 205q7 27 4 40.5t-23 14.5l-51 5l10 38h312l-10 -38l-44 -4q-20 -1 -28.5 -13.5t-15.5 -42.5l-46 -205h86l-11 -48h-86l-54 -243q-7 -27 -4 -40.5t23 -15.5l50 -4l-9 -38h-312z" />
    <glyph glyph-name="uni019F" unicode="&#x19f;" horiz-adv-x="761" 
d="M113 264q0 134 57 244q104 199 337 199q134 0 215 -71.5t81 -216.5q0 -130 -59 -243q-99 -191 -324 -191q-148 0 -227.5 75t-79.5 204zM278 190q0 -159 125 -159q51 0 96 45.5t74.5 112.5t46.5 150h-325q-17 -85 -17 -149zM306 387h323q9 61 9 119q0 155 -116 155
q-76 0 -130.5 -78.5t-85.5 -195.5z" />
    <glyph glyph-name="Ohorn" unicode="&#x1a0;" horiz-adv-x="761" 
d="M113 264q0 134 57 244q104 199 337 199q149 0 227 -84q51 36 51 59q0 18 -10.5 30t-23.5 17.5t-23.5 18.5t-10.5 32q0 30 21.5 47.5t54.5 17.5q37 0 55.5 -23t18.5 -59q0 -89 -111 -169q47 -69 47 -175q0 -130 -59 -243q-99 -191 -324 -191q-148 0 -227.5 75t-79.5 204z
M278 190q0 -159 125 -159q70 0 125.5 79.5t82.5 186.5t27 209q0 155 -116 155q-58 0 -107 -50.5t-77.5 -126t-44 -153t-15.5 -141.5z" />
    <glyph glyph-name="ohorn" unicode="&#x1a1;" horiz-adv-x="599" 
d="M77 174q0 106 59 197q84 131 245 131q118 0 171 -66q41 32 41 64q0 26 -23.5 45.5t-23.5 44.5q0 26 18 45.5t48 19.5q69 0 69 -82q0 -88 -110 -168q20 -43 20 -97q0 -95 -62 -193q-80 -127 -245 -127q-104 0 -155.5 50.5t-51.5 135.5zM222 107q0 -73 60 -73q37 0 69.5 42
t52 100.5t31 112.5t11.5 85q0 82 -57 82q-62 0 -115 -117q-52 -119 -52 -232z" />
    <glyph glyph-name="uni01A9" unicode="&#x1a9;" horiz-adv-x="586" 
d="M14 21l276 321l-119 331l13 19h511l-40 -186h-38l-3 55q-2 45 -34 66t-97 21h-153v-2l86 -240l-253 -294v-2h195q87 0 132.5 19.5t69.5 68.5l22 45h38l-69 -243h-528z" />
    <glyph glyph-name="Uhorn" unicode="&#x1af;" horiz-adv-x="841" 
d="M159 241l79 353q7 27 4 40.5t-23 14.5l-51 5l10 38h312l-10 -38l-44 -4q-20 -1 -28.5 -13.5t-15.5 -42.5l-80 -361q-44 -202 95 -202q64 0 103 54t65 173l75 336q7 27 4 40.5t-23 14.5l-51 5l10 38h237l-22 -96q28 17 44 28t31.5 28t15.5 30q0 18 -10.5 30t-23.5 17.5
t-23.5 18.5t-10.5 32q0 30 21.5 47.5t54.5 17.5q37 0 55.5 -23t18.5 -59t-16.5 -69.5t-48 -61t-57 -46t-62.5 -39.5l-68 -294q-36 -159 -114 -215q-75 -53 -210 -53q-153 0 -217 70q-54 61 -26 186z" />
    <glyph glyph-name="uhorn" unicode="&#x1b0;" horiz-adv-x="689" 
d="M116 133l67 258q12 43 -15 46l-59 6l8 33l231 26l5 -5l-94 -369q-16 -60 19 -60q33 0 83.5 71.5t81.5 145.5q25 56 67 205l142 12l-24 -91q76 47 76 89q0 26 -23.5 45.5t-23.5 44.5q0 26 18 45.5t48 19.5q69 0 69 -82q0 -37 -15.5 -69.5t-45.5 -59.5t-54.5 -44t-61.5 -39
l-64 -246q-14 -47 12 -47q29 0 86 98l29 -18q-79 -160 -199 -160q-41 0 -59 29t-5 79l31 114h-4q-121 -222 -259 -222q-105 0 -67 145z" />
    <glyph glyph-name="uni01B2" unicode="&#x1b2;" horiz-adv-x="704" 
d="M168 654l10 38h312l-10 -38l-44 -4q-20 -1 -28.5 -13.5t-15.5 -42.5l-78 -348q-26 -115 2 -165t91 -50q69 0 128 54t91 134.5t32 164.5q0 53 -10.5 92t-38.5 88q-25 44 -25 66q0 29 27.5 53t76.5 24q78 0 78 -246q0 -57 -13 -119t-42.5 -126.5t-71 -115t-106 -83
t-140.5 -32.5q-134 0 -199 63.5t-33 205.5l77 340q7 27 4 40.5t-23 14.5z" />
    <glyph glyph-name="uni01B7" unicode="&#x1b7;" horiz-adv-x="604" 
d="M65 129q0 83 69 83q71 0 71 -54q0 -12 -4 -28.5t-4 -38.5q0 -27 22 -43.5t64 -16.5q35 0 70 15t63 54.5t28 96.5q0 68 -26.5 106t-75.5 38q-33 0 -61 -14l-18 33l9 22l242 200h-124q-85 0 -118 -22.5t-76 -108.5h-38l56 241h447l8 -21l-6 -14q-16 -37 -81 -90l-214 -175
l1 -2q20 8 47 8q87 0 140 -55t53 -149q0 -101 -86 -155t-243 -54q-102 0 -158.5 39.5t-56.5 104.5z" />
    <glyph glyph-name="uni01CD" unicode="&#x1cd;" 
d="M333 886l24 30l106 -60q26 -15 41 -15q11 0 42 13l151 62l17 -30l-172 -124q-36 -26 -52 -26q-19 0 -45 28zM-24 0l7 38l27 3q23 2 36.5 11.5t28.5 34.5q39 63 151 262l194 343h118l34 -317q4 -37 15 -144.5t15 -144.5q3 -24 9 -34t22 -11l41 -3l-8 -38h-300l8 38l52 4
q26 1 23 37l-15 167h-200q-18 -33 -47 -90.5t-39 -76.5q-18 -36 13 -37l56 -4l-7 -38h-234zM260 294h169l-24 261h-2q-11 -18 -70 -126t-73 -135z" />
    <glyph glyph-name="uni01CE" unicode="&#x1ce;" horiz-adv-x="596" 
d="M263 720l29 27l113 -96q19 -17 30 -17q12 0 38 17l145 96l23 -27l-180 -173q-27 -27 -48 -27q-17 0 -36 28zM61 108q0 41 13 91t41.5 104t68 98t98.5 72.5t127 28.5q43 0 71 -17l4 9h137l-101 -379q-12 -47 11 -47q32 0 87 97l29 -16q-81 -161 -199 -161q-98 0 -62 126
l25 88h-6q-21 -36 -35 -58t-40 -55.5t-49 -52.5t-55.5 -33.5t-66.5 -14.5q-50 0 -74 34.5t-24 85.5zM215 115q0 -47 29 -47q41 0 120 126q68 112 103 248q-20 14 -49 14q-40 0 -79 -38.5t-65.5 -93t-42.5 -112t-16 -97.5z" />
    <glyph glyph-name="uni01CF" unicode="&#x1cf;" horiz-adv-x="386" 
d="M204 886l24 30l106 -60q26 -15 41 -15q11 0 42 13l151 62l17 -30l-172 -124q-36 -26 -52 -26q-19 0 -45 28zM40 0l9 38l45 4q20 1 28.5 13.5t15.5 42.5l111 496q7 27 4 40.5t-23 14.5l-51 5l10 38h312l-10 -38l-44 -4q-20 -1 -28.5 -13.5t-15.5 -42.5l-111 -496
q-7 -27 -4 -40.5t23 -15.5l50 -4l-9 -38h-312z" />
    <glyph glyph-name="uni01D1" unicode="&#x1d1;" horiz-adv-x="761" 
d="M358 886l24 30l106 -60q26 -15 41 -15q11 0 42 13l151 62l17 -30l-172 -124q-36 -26 -52 -26q-19 0 -45 28zM113 264q0 134 57 244q104 199 337 199q134 0 215 -71.5t81 -216.5q0 -130 -59 -243q-99 -191 -324 -191q-148 0 -227.5 75t-79.5 204zM278 190q0 -159 125 -159
q70 0 125.5 79.5t82.5 186.5t27 209q0 155 -116 155q-58 0 -107 -50.5t-77.5 -126t-44 -153t-15.5 -141.5z" />
    <glyph glyph-name="uni01D2" unicode="&#x1d2;" horiz-adv-x="562" 
d="M235 720l29 27l113 -96q19 -17 30 -17q12 0 38 17l145 96l23 -27l-180 -173q-27 -27 -48 -27q-17 0 -36 28zM77 174q0 106 59 197q84 131 245 131q42 0 77 -9t66 -30t49 -60.5t18 -94.5q0 -95 -62 -193q-80 -127 -245 -127q-104 0 -155.5 50.5t-51.5 135.5zM222 107
q0 -73 60 -73q37 0 69.5 42t52 100.5t31 112.5t11.5 85q0 82 -57 82q-62 0 -115 -117q-52 -119 -52 -232z" />
    <glyph glyph-name="uni01D3" unicode="&#x1d3;" horiz-adv-x="776" 
d="M399 886l24 30l106 -60q26 -15 41 -15q11 0 42 13l151 62l17 -30l-172 -124q-36 -26 -52 -26q-19 0 -45 28zM159 241l79 353q7 27 4 40.5t-23 14.5l-51 5l10 38h312l-10 -38l-44 -4q-20 -1 -28.5 -13.5t-15.5 -42.5l-80 -361q-44 -202 95 -202q64 0 103 54t65 173l75 336
q7 27 4 40.5t-23 14.5l-51 5l10 38h312l-10 -38l-44 -4q-20 -1 -28.5 -13.5t-15.5 -42.5l-78 -341q-36 -159 -114 -215q-75 -53 -210 -53q-153 0 -217 70q-54 61 -26 186z" />
    <glyph glyph-name="uni01D4" unicode="&#x1d4;" 
d="M278 720l29 27l113 -96q19 -17 30 -17q12 0 38 17l145 96l23 -27l-180 -173q-27 -27 -48 -27q-17 0 -36 28zM109 443l8 33l231 26l5 -5l-94 -369q-16 -60 19 -60q33 0 83.5 71.5t81.5 145.5q25 56 67 205l142 12l-101 -387q-14 -47 12 -47q29 0 86 98l29 -18
q-79 -160 -199 -160q-41 0 -59 29t-5 79l31 114h-4q-121 -222 -259 -222q-105 0 -67 145l67 258q12 43 -15 46z" />
    <glyph glyph-name="uni01DD" unicode="&#x1dd;" horiz-adv-x="476" 
d="M46 104q0 58 46 100q69 61 264 99v24q0 46 -18.5 77.5t-59.5 31.5q-43 0 -80 -30t-80 -92l-30 24q91 164 254 164q30 0 56.5 -8t51.5 -26.5t40 -54t15 -84.5q0 -125 -81 -227q-91 -114 -230 -114q-65 0 -106.5 32t-41.5 84zM174 78q0 -44 37 -44q44 0 87 69t54 155
q-84 -17 -131 -67.5t-47 -112.5z" />
    <glyph glyph-name="uni01E2" unicode="&#x1e2;" horiz-adv-x="890" 
d="M461 770l18 77h350l-18 -77h-350zM-72 0l7 38l36 5q21 3 36.5 16t39.5 41q26 31 355 471q48 64 33 73q-3 2 -10 3l-68 7l10 38h626l-40 -185h-38l-5 55q-3 40 -28 62t-86 22h-74q-24 0 -32 -6t-13 -29l-50 -224h92q46 0 66 17.5t45 73.5h38l-50 -230h-38q2 50 -12 70.5
t-60 20.5h-92l-53 -234q-9 -40 12 -49.5t94 -9.5q60 0 99.5 23t76.5 85l32 54h38l-59 -208h-545l9 38l45 4q20 1 28.5 13.5t15.5 42.5l56 241h-165q-40 -59 -80.5 -118.5t-60 -88t-34.5 -52.5q-21 -33 6 -36l68 -6l-7 -38h-264zM336 387h140l56 253h-10q-170 -230 -186 -253
z" />
    <glyph glyph-name="uni01E3" unicode="&#x1e3;" horiz-adv-x="789" 
d="M416 592l15 72h311l-15 -72h-311zM61 108q0 41 13 91t41.5 104t68 98t99 72.5t127.5 28.5q39 0 75 -17l29 24h54l-20 -66l2 -2q65 61 145 61q67 0 108.5 -31.5t41.5 -84.5q0 -58 -46 -100q-70 -62 -265 -99v-24q0 -109 80 -109q43 0 80 30t80 92l30 -24
q-91 -164 -252 -164q-63 0 -108.5 39.5t-45.5 133.5q0 8 2 26l-2 2q-25 -42 -44.5 -70t-50 -62t-67 -51.5t-76.5 -17.5q-50 0 -74.5 34.5t-24.5 85.5zM215 115q0 -47 29 -47q41 0 120 126q68 112 103 248q-20 14 -49 14q-40 0 -79 -38.5t-65.5 -93t-42.5 -112t-16 -97.5z
M538 232q84 17 131.5 68t48.5 113q-2 43 -39 43q-44 0 -87 -69t-54 -155z" />
    <glyph glyph-name="Gcaron" unicode="&#x1e6;" horiz-adv-x="726" 
d="M402 886l24 30l106 -60q26 -15 41 -15q11 0 42 13l151 62l17 -30l-172 -124q-36 -26 -52 -26q-19 0 -45 28zM111 284q0 154 92 274q51 68 139.5 108.5t208.5 40.5q148 0 224 -52l-35 -175h-38q-16 181 -153 181q-69 0 -123 -40.5t-84.5 -104.5t-46 -134.5t-15.5 -140.5
q0 -104 37.5 -157t119.5 -53q44 0 59 10.5t22 40.5l33 134q13 52 -16 55l-64 5l8 38h312l-9 -38l-41 -6q-16 -2 -22.5 -13t-13.5 -41l-42 -178q-93 -53 -236 -53q-149 0 -232.5 73t-83.5 226z" />
    <glyph glyph-name="gcaron" unicode="&#x1e7;" horiz-adv-x="522" 
d="M232 720l29 27l113 -96q19 -17 30 -17q12 0 38 17l145 96l23 -27l-180 -173q-27 -27 -48 -27q-17 0 -36 28zM21 -105q0 55 47.5 85t110.5 38v2q-43 13 -67 34.5t-24 45.5q0 43 74 74q12 5 40 15v2q-37 12 -66 43t-30 79q-1 32 11 62.5t39 60t78.5 48t120.5 18.5
q81 0 139 -30l144 40l6 -9l-31 -75l-76 -12q17 -26 17 -64q0 -81 -66 -127.5t-173 -47.5q-35 0 -60 2q-32 -11 -32 -32q1 -16 24 -25.5t98 -27.5q180 -42 180 -164q0 -85 -70.5 -128.5t-194.5 -43.5q-107 0 -172 38t-67 99zM158 -93q1 -49 37.5 -76t88.5 -27q45 0 80 23.5
t34 67.5q-1 27 -17 47.5t-45.5 31.5t-50.5 16t-52 10q-25 -4 -50 -27.5t-25 -65.5zM258 291q0 -31 14.5 -49.5t43.5 -18.5q43 0 71 48q31 54 31 124q-1 33 -18.5 47t-40.5 14q-45 0 -73 -53t-28 -112z" />
    <glyph glyph-name="uni01E8" unicode="&#x1e8;" horiz-adv-x="688" 
d="M385 886l24 30l106 -60q26 -15 41 -15q11 0 42 13l151 62l17 -30l-172 -124q-36 -26 -52 -26q-19 0 -45 28zM40 0l9 38l45 4q20 1 28.5 13.5t15.5 42.5l111 496q7 27 4 40.5t-23 14.5l-51 5l10 38h312l-10 -38l-44 -4q-20 -1 -28.5 -13.5t-15.5 -42.5l-52 -232l2 -2
l125 121q31 29 76 75t58 58q12 12 16 19t-1 11.5t-20 6.5l-25 3l7 38h269l-7 -38q-50 -5 -71.5 -11t-54.5 -29q-85 -57 -211 -175l-40 -36l11 -26q26 -65 68.5 -146t82.5 -135q35 -49 71 -62l12 -4l-6 -36l-42 1q-100 2 -145 28t-81 92q-52 93 -98 221h-2l-53 -238
q-7 -27 -4 -40.5t23 -15.5l50 -4l-9 -38h-312z" />
    <glyph glyph-name="uni01E9" unicode="&#x1e9;" horiz-adv-x="570" 
d="M311 960l29 27l113 -96q19 -17 30 -17q12 0 38 17l145 96l23 -27l-180 -173q-27 -27 -48 -27q-17 0 -36 28zM74 -12l148 645q10 40 -16 43l-58 7l11 32l224 27l5 -5l-172 -737zM285 254q17 27 50 64q35 40 59 65t58.5 56.5t65.5 47t59 15.5q29 0 45.5 -17.5t16.5 -41.5
q0 -32 -17 -55t-44 -23q-20 0 -45 18q-28 21 -44 21q-27 0 -90 -72q27 -108 69 -215q19 -49 41 -49q23 0 73 85l31 -16q-63 -149 -168 -149q-74 0 -108 91q-29 75 -52 175z" />
    <glyph glyph-name="uni01EE" unicode="&#x1ee;" horiz-adv-x="604" 
d="M314 886l24 30l106 -60q26 -15 41 -15q11 0 42 13l151 62l17 -30l-172 -124q-36 -26 -52 -26q-19 0 -45 28zM65 129q0 83 69 83q71 0 71 -54q0 -12 -4 -28.5t-4 -38.5q0 -27 22 -43.5t64 -16.5q35 0 70 15t63 54.5t28 96.5q0 68 -26.5 106t-75.5 38q-33 0 -61 -14l-18 33
l9 22l242 200h-124q-85 0 -118 -22.5t-76 -108.5h-38l56 241h447l8 -21l-6 -14q-16 -37 -81 -90l-214 -175l1 -2q20 8 47 8q87 0 140 -55t53 -149q0 -101 -86 -155t-243 -54q-102 0 -158.5 39.5t-56.5 104.5z" />
    <glyph glyph-name="uni01EF" unicode="&#x1ef;" horiz-adv-x="503" 
d="M207 720l29 27l113 -96q19 -17 30 -17q12 0 38 17l145 96l23 -27l-180 -173q-27 -27 -48 -27q-17 0 -36 28zM-21 -140q0 -103 197 -103q37 0 73.5 7t74.5 24t66.5 42.5t47 67t18.5 92.5q0 85 -38.5 136.5t-111.5 51.5q-40 0 -54 -6l-2 2l237 223q40 37 49 54l10 18
l-10 21h-351q-23 -21 -48.5 -73t-41.5 -115l25 -12q28 51 48 70.5t59 19.5h167l-227 -214l-10 -22l19 -36q29 14 65 14q34 0 53.5 -37t19.5 -80q0 -68 -39 -134.5t-96 -66.5q-32 0 -48 12t-20 29t-7.5 34t-16.5 29t-41 12q-24 0 -45.5 -13t-21.5 -47z" />
    <glyph glyph-name="uni01F4" unicode="&#x1f4;" horiz-adv-x="726" 
d="M467 751l172 123q40 30 64 30q22 0 38 -23t16 -41q0 -21 -15.5 -32.5t-57.5 -24.5l-203 -64zM111 284q0 154 92 274q51 68 139.5 108.5t208.5 40.5q148 0 224 -52l-35 -175h-38q-16 181 -153 181q-69 0 -123 -40.5t-84.5 -104.5t-46 -134.5t-15.5 -140.5
q0 -104 37.5 -157t119.5 -53q44 0 59 10.5t22 40.5l33 134q13 52 -16 55l-64 5l8 38h312l-9 -38l-41 -6q-16 -2 -22.5 -13t-13.5 -41l-42 -178q-93 -53 -236 -53q-149 0 -232.5 73t-83.5 226z" />
    <glyph glyph-name="uni01F5" unicode="&#x1f5;" horiz-adv-x="522" 
d="M314 541l145 149q28 29 43.5 39.5t30.5 10.5q18 0 35.5 -20.5t17.5 -39.5q0 -18 -17.5 -33t-50.5 -33l-183 -103zM21 -105q0 55 47.5 85t110.5 38v2q-43 13 -67 34.5t-24 45.5q0 43 74 74q12 5 40 15v2q-37 12 -66 43t-30 79q-1 32 11 62.5t39 60t78.5 48t120.5 18.5
q81 0 139 -30l144 40l6 -9l-31 -75l-76 -12q17 -26 17 -64q0 -81 -66 -127.5t-173 -47.5q-35 0 -60 2q-32 -11 -32 -32q1 -16 24 -25.5t98 -27.5q180 -42 180 -164q0 -85 -70.5 -128.5t-194.5 -43.5q-107 0 -172 38t-67 99zM158 -93q1 -49 37.5 -76t88.5 -27q45 0 80 23.5
t34 67.5q-1 27 -17 47.5t-45.5 31.5t-50.5 16t-52 10q-25 -4 -50 -27.5t-25 -65.5zM258 291q0 -31 14.5 -49.5t43.5 -18.5q43 0 71 48q31 54 31 124q-1 33 -18.5 47t-40.5 14q-45 0 -73 -53t-28 -112z" />
    <glyph glyph-name="uni01F8" unicode="&#x1f8;" horiz-adv-x="741" 
d="M335 840q0 18 16 41t38 23q24 0 64 -30l172 -123l-14 -32l-203 64q-42 13 -57.5 24.5t-15.5 32.5zM30 0l8 38l37 3q35 3 50 50q15 46 38 148l78 355q7 27 4 40.5t-23 14.5l-50 5l10 38h222q90 -219 213 -509h3l59 270q25 117 28 148q2 25 -5.5 37t-28.5 13l-54 3l8 38
h246l-8 -38l-37 -3q-35 -3 -50 -50q-15 -46 -38 -148l-100 -453h-104q-117 280 -237 561h-4l-72 -322q-23 -114 -27 -148q-2 -25 5.5 -37t28.5 -13l54 -3l-8 -38h-246z" />
    <glyph glyph-name="uni01F9" unicode="&#x1f9;" horiz-adv-x="635" 
d="M261 680q0 19 17.5 39.5t35.5 20.5q15 0 30.5 -10.5t43.5 -39.5l145 -149l-21 -30l-183 103q-33 18 -50.5 33t-17.5 33zM80 -12l103 403q12 40 -15 43l-60 6l8 33l233 29l5 -5l-68 -217h6q52 97 118 159.5t138 62.5q40 0 61.5 -20t22.5 -52.5t-9 -72.5l-75 -242
q-14 -47 11 -47q17 0 41 29.5t45 68.5l29 -18q-78 -160 -201 -160q-47 0 -65.5 31t-2.5 88l76 256q18 59 -20 59q-33 0 -87.5 -72.5t-80.5 -136.5q-40 -102 -72 -213z" />
    <glyph glyph-name="AEacute" unicode="&#x1fc;" horiz-adv-x="890" 
d="M538 751l172 123q40 30 64 30q22 0 38 -23t16 -41q0 -21 -15.5 -32.5t-57.5 -24.5l-203 -64zM-72 0l7 38l36 5q21 3 36.5 16t39.5 41q26 31 355 471q48 64 33 73q-3 2 -10 3l-68 7l10 38h626l-40 -185h-38l-5 55q-3 40 -28 62t-86 22h-74q-24 0 -32 -6t-13 -29l-50 -224
h92q46 0 66 17.5t45 73.5h38l-50 -230h-38q2 50 -12 70.5t-60 20.5h-92l-53 -234q-9 -40 12 -49.5t94 -9.5q60 0 99.5 23t76.5 85l32 54h38l-59 -208h-545l9 38l45 4q20 1 28.5 13.5t15.5 42.5l56 241h-165q-40 -59 -80.5 -118.5t-60 -88t-34.5 -52.5q-21 -33 6 -36l68 -6
l-7 -38h-264zM336 387h140l56 253h-10q-170 -230 -186 -253z" />
    <glyph glyph-name="aeacute" unicode="&#x1fd;" horiz-adv-x="789" 
d="M486 541l145 149q28 29 43.5 39.5t30.5 10.5q18 0 35.5 -20.5t17.5 -39.5q0 -18 -17.5 -33t-50.5 -33l-183 -103zM61 108q0 41 13 91t41.5 104t68 98t99 72.5t127.5 28.5q39 0 75 -17l29 24h54l-20 -66l2 -2q65 61 145 61q67 0 108.5 -31.5t41.5 -84.5q0 -58 -46 -100
q-70 -62 -265 -99v-24q0 -109 80 -109q43 0 80 30t80 92l30 -24q-91 -164 -252 -164q-63 0 -108.5 39.5t-45.5 133.5q0 8 2 26l-2 2q-25 -42 -44.5 -70t-50 -62t-67 -51.5t-76.5 -17.5q-50 0 -74.5 34.5t-24.5 85.5zM215 115q0 -47 29 -47q41 0 120 126q68 112 103 248
q-20 14 -49 14q-40 0 -79 -38.5t-65.5 -93t-42.5 -112t-16 -97.5zM538 232q84 17 131.5 68t48.5 113q-2 43 -39 43q-44 0 -87 -69t-54 -155z" />
    <glyph glyph-name="Oslashacute" unicode="&#x1fe;" horiz-adv-x="761" 
d="M549 826l172 123q40 30 64 30q22 0 38 -23t16 -41q0 -21 -15.5 -32.5t-57.5 -24.5l-203 -64zM112 260q0 136 58 248q104 199 337 199q95 0 168 -37l49 64l39 -32l-47 -60q88 -77 88 -223q0 -130 -59 -243q-101 -191 -325 -191q-106 0 -179 39l-58 -75l-36 35l53 69
q-88 73 -88 207zM274 188q0 -7 2 -19t2 -15l345 448q-26 59 -100 59q-59 0 -108.5 -50.5t-79 -126t-45.5 -154t-16 -142.5zM294 94q31 -63 107 -63q71 0 128 79.5t85 187t28 210.5q0 13 -4 33z" />
    <glyph glyph-name="oslashacute" unicode="&#x1ff;" horiz-adv-x="562" 
d="M398 639l145 149q28 29 43.5 39.5t30.5 10.5q18 0 35.5 -20.5t17.5 -39.5q0 -18 -17.5 -33t-50.5 -33l-183 -103zM77 174q0 105 58 197q82 131 246 131q52 0 90 -13l39 60l34 -24l-34 -52q81 -44 81 -161q0 -99 -62 -197q-80 -127 -245 -127q-48 0 -84 12l-45 -69l-32 27
l38 57q-84 45 -84 159zM212 107q0 -11 2 -13l224 343q-17 19 -50 19q-71 0 -124 -117q-52 -119 -52 -232zM234 50q16 -16 47 -16q41 0 76 42t55.5 100.5t32 112.5t11.5 85q0 10 -1 13z" />
    <glyph glyph-name="uni0200" unicode="&#x200;" 
d="M230 839q0 19 19.5 43.5t39.5 24.5q17 0 49 -36l103 -117l-23 -31l-139 70q-26 13 -37.5 23.5t-11.5 22.5zM429 839q0 19 19.5 43.5t39.5 24.5q17 0 49 -36l103 -117l-23 -31l-139 70q-26 13 -37.5 23.5t-11.5 22.5zM-24 0l7 38l27 3q23 2 36.5 11.5t28.5 34.5
q39 63 151 262l194 343h118l34 -317q4 -37 15 -144.5t15 -144.5q3 -24 9 -34t22 -11l41 -3l-8 -38h-300l8 38l52 4q26 1 23 37l-15 167h-200q-18 -33 -47 -90.5t-39 -76.5q-18 -36 13 -37l56 -4l-7 -38h-234zM260 294h169l-24 261h-2q-11 -18 -70 -126t-73 -135z" />
    <glyph glyph-name="uni0201" unicode="&#x201;" horiz-adv-x="596" 
d="M210 712q0 15 21 26.5t39 11.5q26 0 43 -47l54 -140l-28 -17l-96 104q-33 36 -33 62zM376 712q0 15 21 26.5t40 11.5q26 0 43 -47l54 -140l-28 -17l-96 104q-34 37 -34 62zM61 108q0 41 13 91t41.5 104t68 98t98.5 72.5t127 28.5q43 0 71 -17l4 9h137l-101 -379
q-12 -47 11 -47q32 0 87 97l29 -16q-81 -161 -199 -161q-98 0 -62 126l25 88h-6q-21 -36 -35 -58t-40 -55.5t-49 -52.5t-55.5 -33.5t-66.5 -14.5q-50 0 -74 34.5t-24 85.5zM215 115q0 -47 29 -47q41 0 120 126q68 112 103 248q-20 14 -49 14q-40 0 -79 -38.5t-65.5 -93
t-42.5 -112t-16 -97.5z" />
    <glyph glyph-name="uni0202" unicode="&#x202;" 
d="M326 746q34 146 199 146t131 -146h-41q4 24 -20.5 46.5t-87.5 22.5t-97.5 -22t-42.5 -47h-41zM-24 0l7 38l27 3q23 2 36.5 11.5t28.5 34.5q39 63 151 262l194 343h118l34 -317q4 -37 15 -144.5t15 -144.5q3 -24 9 -34t22 -11l41 -3l-8 -38h-300l8 38l52 4q26 1 23 37
l-15 167h-200q-18 -33 -47 -90.5t-39 -76.5q-18 -36 13 -37l56 -4l-7 -38h-234zM260 294h169l-24 261h-2q-11 -18 -70 -126t-73 -135z" />
    <glyph glyph-name="uni0203" unicode="&#x203;" horiz-adv-x="596" 
d="M61 108q0 41 13 91t41.5 104t68 98t98.5 72.5t127 28.5q43 0 71 -17l4 9h137l-101 -379q-12 -47 11 -47q32 0 87 97l29 -16q-81 -161 -199 -161q-98 0 -62 126l25 88h-6q-21 -36 -35 -58t-40 -55.5t-49 -52.5t-55.5 -33.5t-66.5 -14.5q-50 0 -74 34.5t-24 85.5zM215 115
q0 -47 29 -47q41 0 120 126q68 112 103 248q-20 14 -49 14q-40 0 -79 -38.5t-65.5 -93t-42.5 -112t-16 -97.5zM577 556h-34q4 10 0.5 23t-11 24.5t-31 19.5t-58.5 8q-115 0 -144 -75h-34q14 73 56.5 115.5t137.5 42.5q40 0 67.5 -9.5t41 -25t18 -37t2 -42t-10.5 -44.5z" />
    <glyph glyph-name="uni0204" unicode="&#x204;" horiz-adv-x="622" 
d="M226 839q0 19 19.5 43.5t39.5 24.5q17 0 49 -36l103 -117l-23 -31l-139 70q-26 13 -37.5 23.5t-11.5 22.5zM425 839q0 19 19.5 43.5t39.5 24.5q17 0 49 -36l103 -117l-23 -31l-139 70q-26 13 -37.5 23.5t-11.5 22.5zM40 0l9 38l45 4q20 1 28.5 13.5t15.5 42.5l111 496
q7 27 4 40.5t-23 14.5l-51 5l11 38h532l-40 -185h-38l-5 55q-3 40 -28 62t-86 22h-69q-26 0 -35 -5.5t-14 -27.5l-50 -226h94q46 0 66 17t45 73h38l-50 -228h-38q2 49 -12 69.5t-60 20.5h-94l-53 -236q-9 -39 12 -48t96 -9q62 0 101.5 22.5t76.5 85.5l32 54h38l-59 -208
h-550z" />
    <glyph glyph-name="uni0205" unicode="&#x205;" horiz-adv-x="476" 
d="M185 712q0 15 21 26.5t39 11.5q26 0 43 -47l54 -140l-28 -17l-96 104q-33 36 -33 62zM351 712q0 15 21 26.5t40 11.5q26 0 43 -47l54 -140l-28 -17l-96 104q-34 37 -34 62zM73 161q0 125 81 227q91 114 230 114q65 0 106.5 -32t41.5 -84q0 -58 -46 -100q-69 -61 -264 -99
v-24q0 -46 18.5 -77.5t59.5 -31.5q43 0 80 30t80 92l30 -24q-91 -164 -254 -164q-30 0 -56.5 8t-51.5 26.5t-40 54t-15 84.5zM226 232q84 17 131 67.5t47 112.5q0 44 -37 44q-44 0 -87 -69t-54 -155z" />
    <glyph glyph-name="uni0206" unicode="&#x206;" horiz-adv-x="622" 
d="M322 746q34 146 199 146t131 -146h-41q4 24 -20.5 46.5t-87.5 22.5t-97.5 -22t-42.5 -47h-41zM40 0l9 38l45 4q20 1 28.5 13.5t15.5 42.5l111 496q7 27 4 40.5t-23 14.5l-51 5l11 38h532l-40 -185h-38l-5 55q-3 40 -28 62t-86 22h-69q-26 0 -35 -5.5t-14 -27.5l-50 -226
h94q46 0 66 17t45 73h38l-50 -228h-38q2 49 -12 69.5t-60 20.5h-94l-53 -236q-9 -39 12 -48t96 -9q62 0 101.5 22.5t76.5 85.5l32 54h38l-59 -208h-550z" />
    <glyph glyph-name="uni0207" unicode="&#x207;" horiz-adv-x="476" 
d="M552 556h-34q4 10 0.5 23t-11 24.5t-31 19.5t-58.5 8q-115 0 -144 -75h-34q14 73 56.5 115.5t137.5 42.5q40 0 67.5 -9.5t41 -25t18 -37t2 -42t-10.5 -44.5zM73 161q0 125 81 227q91 114 230 114q65 0 106.5 -32t41.5 -84q0 -58 -46 -100q-69 -61 -264 -99v-24
q0 -46 18.5 -77.5t59.5 -31.5q43 0 80 30t80 92l30 -24q-91 -164 -254 -164q-30 0 -56.5 8t-51.5 26.5t-40 54t-15 84.5zM226 232q84 17 131 67.5t47 112.5q0 44 -37 44q-44 0 -87 -69t-54 -155z" />
    <glyph glyph-name="uni0208" unicode="&#x208;" horiz-adv-x="386" 
d="M101 839q0 19 19.5 43.5t39.5 24.5q17 0 49 -36l103 -117l-23 -31l-139 70q-26 13 -37.5 23.5t-11.5 22.5zM300 839q0 19 19.5 43.5t39.5 24.5q17 0 49 -36l103 -117l-23 -31l-139 70q-26 13 -37.5 23.5t-11.5 22.5zM40 0l9 38l45 4q20 1 28.5 13.5t15.5 42.5l111 496
q7 27 4 40.5t-23 14.5l-51 5l10 38h312l-10 -38l-44 -4q-20 -1 -28.5 -13.5t-15.5 -42.5l-111 -496q-7 -27 -4 -40.5t23 -15.5l50 -4l-9 -38h-312z" />
    <glyph glyph-name="uni0209" unicode="&#x209;" horiz-adv-x="339" 
d="M75 712q0 15 21 26.5t39 11.5q26 0 43 -47l54 -140l-28 -17l-96 104q-33 36 -33 62zM241 712q0 15 21 26.5t40 11.5q26 0 43 -47l54 -140l-28 -17l-96 104q-34 37 -34 62zM108 107l77 285q10 39 -17 42l-58 6l8 33l230 29l6 -6l-103 -381q-13 -47 11 -47q16 0 40 29.5
t46 68.5l30 -17q-80 -161 -200 -161q-102 0 -70 119z" />
    <glyph glyph-name="uni020A" unicode="&#x20a;" horiz-adv-x="386" 
d="M197 746q34 146 199 146t131 -146h-41q4 24 -20.5 46.5t-87.5 22.5t-97.5 -22t-42.5 -47h-41zM40 0l9 38l45 4q20 1 28.5 13.5t15.5 42.5l111 496q7 27 4 40.5t-23 14.5l-51 5l10 38h312l-10 -38l-44 -4q-20 -1 -28.5 -13.5t-15.5 -42.5l-111 -496q-7 -27 -4 -40.5
t23 -15.5l50 -4l-9 -38h-312z" />
    <glyph glyph-name="uni020B" unicode="&#x20b;" horiz-adv-x="339" 
d="M442 556h-34q4 10 0.5 23t-11 24.5t-31 19.5t-58.5 8q-115 0 -144 -75h-34q14 73 56.5 115.5t137.5 42.5q40 0 67.5 -9.5t41 -25t18 -37t2 -42t-10.5 -44.5zM108 107l77 285q10 39 -17 42l-58 6l8 33l230 29l6 -6l-103 -381q-13 -47 11 -47q16 0 40 29.5t46 68.5l30 -17
q-80 -161 -200 -161q-102 0 -70 119z" />
    <glyph glyph-name="uni020C" unicode="&#x20c;" horiz-adv-x="761" 
d="M113 264q0 134 57 244q104 199 337 199q134 0 215 -71.5t81 -216.5q0 -130 -59 -243q-99 -191 -324 -191q-148 0 -227.5 75t-79.5 204zM278 190q0 -159 125 -159q70 0 125.5 79.5t82.5 186.5t27 209q0 155 -116 155q-58 0 -107 -50.5t-77.5 -126t-44 -153t-15.5 -141.5z
M254 839q0 19 19.5 43.5t39.5 24.5q17 0 49 -36l103 -117l-23 -31l-139 70q-26 13 -37.5 23.5t-11.5 22.5zM453 839q0 19 19.5 43.5t39.5 24.5q17 0 49 -36l103 -117l-23 -31l-139 70q-26 13 -37.5 23.5t-11.5 22.5z" />
    <glyph glyph-name="uni020D" unicode="&#x20d;" horiz-adv-x="562" 
d="M77 174q0 106 59 197q84 131 245 131q42 0 77 -9t66 -30t49 -60.5t18 -94.5q0 -95 -62 -193q-80 -127 -245 -127q-104 0 -155.5 50.5t-51.5 135.5zM222 107q0 -73 60 -73q37 0 69.5 42t52 100.5t31 112.5t11.5 85q0 82 -57 82q-62 0 -115 -117q-52 -119 -52 -232z
M182 712q0 15 21 26.5t39 11.5q26 0 43 -47l54 -140l-28 -17l-96 104q-33 36 -33 62zM348 712q0 15 21 26.5t40 11.5q26 0 43 -47l54 -140l-28 -17l-96 104q-34 37 -34 62z" />
    <glyph glyph-name="uni020E" unicode="&#x20e;" horiz-adv-x="761" 
d="M351 746q34 146 199 146t131 -146h-41q4 24 -20.5 46.5t-87.5 22.5t-97.5 -22t-42.5 -47h-41zM113 264q0 134 57 244q104 199 337 199q134 0 215 -71.5t81 -216.5q0 -130 -59 -243q-99 -191 -324 -191q-148 0 -227.5 75t-79.5 204zM278 190q0 -159 125 -159
q70 0 125.5 79.5t82.5 186.5t27 209q0 155 -116 155q-58 0 -107 -50.5t-77.5 -126t-44 -153t-15.5 -141.5z" />
    <glyph glyph-name="uni020F" unicode="&#x20f;" horiz-adv-x="562" 
d="M549 556h-34q4 10 0.5 23t-11 24.5t-31 19.5t-58.5 8q-115 0 -144 -75h-34q14 73 56.5 115.5t137.5 42.5q40 0 67.5 -9.5t41 -25t18 -37t2 -42t-10.5 -44.5zM77 174q0 106 59 197q84 131 245 131q42 0 77 -9t66 -30t49 -60.5t18 -94.5q0 -95 -62 -193q-80 -127 -245 -127
q-104 0 -155.5 50.5t-51.5 135.5zM222 107q0 -73 60 -73q37 0 69.5 42t52 100.5t31 112.5t11.5 85q0 82 -57 82q-62 0 -115 -117q-52 -119 -52 -232z" />
    <glyph glyph-name="uni0210" unicode="&#x210;" horiz-adv-x="681" 
d="M222 839q0 19 19.5 43.5t39.5 24.5q17 0 49 -36l103 -117l-23 -31l-139 70q-26 13 -37.5 23.5t-11.5 22.5zM421 839q0 19 19.5 43.5t39.5 24.5q17 0 49 -36l103 -117l-23 -31l-139 70q-26 13 -37.5 23.5t-11.5 22.5zM40 0l9 38l45 4q20 1 28.5 13.5t15.5 42.5l111 496
q7 27 4 40.5t-23 14.5l-51 5l10 38h282q130 0 190 -35q70 -42 70 -130q0 -77 -58.5 -127.5t-153.5 -56.5v-2q30 -7 50 -19t30.5 -27t16 -34.5t5.5 -41v-45.5q-4 -69 19 -108q14 -23 61 -28l-9 -38h-96q-105 0 -121 83q-7 38 -4 103t0 78q-6 29 -21 41t-51 12h-58l-49 -219
q-7 -27 -4 -40.5t23 -15.5l50 -4l-9 -38h-312zM351 363h63q63 0 110.5 49t47.5 131q0 103 -104 103q-34 0 -45 -7.5t-16 -28.5z" />
    <glyph glyph-name="uni0211" unicode="&#x211;" horiz-adv-x="440" 
d="M201 712q0 15 21 26.5t39 11.5q26 0 43 -47l54 -140l-28 -17l-96 104q-33 36 -33 62zM367 712q0 15 21 26.5t40 11.5q26 0 43 -47l54 -140l-28 -17l-96 104q-34 37 -34 62zM86 -12l93 403q9 40 -15 43l-59 6l7 33l213 29l5 -5l-37 -145h5q39 70 83 110t89 40q62 0 62 -59
q0 -31 -19.5 -58.5t-48.5 -27.5q-21 0 -48 19q-23 16 -38 16q-46 0 -97 -179q-10 -35 -28.5 -109t-26.5 -104z" />
    <glyph glyph-name="uni0212" unicode="&#x212;" horiz-adv-x="681" 
d="M318 746q34 146 199 146t131 -146h-41q4 24 -20.5 46.5t-87.5 22.5t-97.5 -22t-42.5 -47h-41zM40 0l9 38l45 4q20 1 28.5 13.5t15.5 42.5l111 496q7 27 4 40.5t-23 14.5l-51 5l10 38h282q130 0 190 -35q70 -42 70 -130q0 -77 -58.5 -127.5t-153.5 -56.5v-2q30 -7 50 -19
t30.5 -27t16 -34.5t5.5 -41v-45.5q-4 -69 19 -108q14 -23 61 -28l-9 -38h-96q-105 0 -121 83q-7 38 -4 103t0 78q-6 29 -21 41t-51 12h-58l-49 -219q-7 -27 -4 -40.5t23 -15.5l50 -4l-9 -38h-312zM351 363h63q63 0 110.5 49t47.5 131q0 103 -104 103q-34 0 -45 -7.5
t-16 -28.5z" />
    <glyph glyph-name="uni0213" unicode="&#x213;" horiz-adv-x="440" 
d="M86 -12l93 403q9 40 -15 43l-59 6l7 33l213 29l5 -5l-37 -145h5q39 70 83 110t89 40q62 0 62 -59q0 -31 -19.5 -58.5t-48.5 -27.5q-21 0 -48 19q-23 16 -38 16q-46 0 -97 -179q-10 -35 -28.5 -109t-26.5 -104zM568 556h-34q4 10 0.5 23t-11 24.5t-31 19.5t-58.5 8
q-115 0 -144 -75h-34q14 73 56.5 115.5t137.5 42.5q40 0 67.5 -9.5t41 -25t18 -37t2 -42t-10.5 -44.5z" />
    <glyph glyph-name="uni0214" unicode="&#x214;" horiz-adv-x="776" 
d="M296 839q0 19 19.5 43.5t39.5 24.5q17 0 49 -36l103 -117l-23 -31l-139 70q-26 13 -37.5 23.5t-11.5 22.5zM495 839q0 19 19.5 43.5t39.5 24.5q17 0 49 -36l103 -117l-23 -31l-139 70q-26 13 -37.5 23.5t-11.5 22.5zM159 241l79 353q7 27 4 40.5t-23 14.5l-51 5l10 38
h312l-10 -38l-44 -4q-20 -1 -28.5 -13.5t-15.5 -42.5l-80 -361q-44 -202 95 -202q64 0 103 54t65 173l75 336q7 27 4 40.5t-23 14.5l-51 5l10 38h312l-10 -38l-44 -4q-20 -1 -28.5 -13.5t-15.5 -42.5l-78 -341q-36 -159 -114 -215q-75 -53 -210 -53q-153 0 -217 70
q-54 61 -26 186z" />
    <glyph glyph-name="uni0215" unicode="&#x215;" 
d="M225 712q0 15 21 26.5t39 11.5q26 0 43 -47l54 -140l-28 -17l-96 104q-33 36 -33 62zM391 712q0 15 21 26.5t40 11.5q26 0 43 -47l54 -140l-28 -17l-96 104q-34 37 -34 62zM109 443l8 33l231 26l5 -5l-94 -369q-16 -60 19 -60q33 0 83.5 71.5t81.5 145.5q25 56 67 205
l142 12l-101 -387q-14 -47 12 -47q29 0 86 98l29 -18q-79 -160 -199 -160q-41 0 -59 29t-5 79l31 114h-4q-121 -222 -259 -222q-105 0 -67 145l67 258q12 43 -15 46z" />
    <glyph glyph-name="uni0216" unicode="&#x216;" horiz-adv-x="776" 
d="M392 746q34 146 199 146t131 -146h-41q4 24 -20.5 46.5t-87.5 22.5t-97.5 -22t-42.5 -47h-41zM159 241l79 353q7 27 4 40.5t-23 14.5l-51 5l10 38h312l-10 -38l-44 -4q-20 -1 -28.5 -13.5t-15.5 -42.5l-80 -361q-44 -202 95 -202q64 0 103 54t65 173l75 336q7 27 4 40.5
t-23 14.5l-51 5l10 38h312l-10 -38l-44 -4q-20 -1 -28.5 -13.5t-15.5 -42.5l-78 -341q-36 -159 -114 -215q-75 -53 -210 -53q-153 0 -217 70q-54 61 -26 186z" />
    <glyph glyph-name="uni0217" unicode="&#x217;" 
d="M592 556h-34q4 10 0.5 23t-11 24.5t-31 19.5t-58.5 8q-115 0 -144 -75h-34q14 73 56.5 115.5t137.5 42.5q40 0 67.5 -9.5t41 -25t18 -37t2 -42t-10.5 -44.5zM109 443l8 33l231 26l5 -5l-94 -369q-16 -60 19 -60q33 0 83.5 71.5t81.5 145.5q25 56 67 205l142 12l-101 -387
q-14 -47 12 -47q29 0 86 98l29 -18q-79 -160 -199 -160q-41 0 -59 29t-5 79l31 114h-4q-121 -222 -259 -222q-105 0 -67 145l67 258q12 43 -15 46z" />
    <glyph glyph-name="Scommaaccent" unicode="&#x218;" horiz-adv-x="551" 
d="M66 70l23 177h37q10 -101 60 -158.5t112 -57.5q58 0 89 34t31 86q0 89 -103 148q-77 45 -117.5 90t-40.5 108q0 36 12.5 70t39.5 67t79.5 53t123.5 20q125 0 193 -54l-34 -161h-38q-2 84 -36 126.5t-89 42.5q-52 0 -81.5 -32.5t-29.5 -75.5q0 -40 30 -71t85 -62
q77 -43 114 -93t37 -117q0 -99 -66.5 -161.5t-196.5 -63.5q-67 0 -132.5 21t-101.5 64zM188 -274q54 52 54 91q0 16 -10 38t-10 38q0 29 18.5 47t49.5 18q30 0 47 -21t17 -50q0 -52 -38.5 -94.5t-107.5 -89.5z" />
    <glyph glyph-name="scommaaccent" unicode="&#x219;" horiz-adv-x="417" 
d="M45 89q0 27 21.5 48t44.5 21q29 0 44 -30q26 -53 48.5 -73.5t47.5 -20.5q23 0 37.5 14.5t14.5 37.5q-3 49 -86 116q-87 70 -90 138q-3 67 46 114.5t136 47.5q77 0 117.5 -28.5t40.5 -58.5q0 -28 -21 -43.5t-45 -15.5q-26 0 -39 26q-21 40 -37.5 57t-36.5 17t-34 -14.5
t-13 -37.5q1 -27 21 -51.5t64 -57.5q91 -69 91 -150q0 -68 -47.5 -112.5t-144.5 -44.5q-86 0 -133 31.5t-47 69.5zM113 -274q54 52 54 91q0 16 -10 38t-10 38q0 29 18.5 47t49.5 18q30 0 47 -21t17 -50q0 -52 -38.5 -94.5t-107.5 -89.5z" />
    <glyph glyph-name="uni021A" unicode="&#x21a;" horiz-adv-x="616" 
d="M126 501l43 191h588l-43 -191h-38l-3 61q-5 84 -93 84h-48l-124 -548q-7 -27 -4 -40.5t23 -14.5l64 -5l-9 -38h-340l9 38l59 4q20 1 28.5 13.5t15.5 42.5l124 548h-52q-88 0 -131 -84l-31 -61h-38zM192 -274q54 52 54 91q0 16 -10 38t-10 38q0 29 18.5 47t49.5 18
q30 0 47 -21t17 -50q0 -52 -38.5 -94.5t-107.5 -89.5z" />
    <glyph glyph-name="uni021B" unicode="&#x21b;" horiz-adv-x="359" 
d="M109 111l84 331h-83l12 48h81l20 74l151 77l13 -8l-44 -143h120l-12 -48h-118l-82 -331q-10 -43 14 -43q40 0 99 98l28 -19q-84 -159 -211 -159q-46 0 -67 30.5t-5 92.5zM55 -274q54 52 54 91q0 16 -10 38t-10 38q0 29 18.5 47t49.5 18q30 0 47 -21t17 -50
q0 -52 -38.5 -94.5t-107.5 -89.5z" />
    <glyph glyph-name="uni021E" unicode="&#x21e;" horiz-adv-x="800" 
d="M411 886l24 30l106 -60q26 -15 41 -15q11 0 42 13l151 62l17 -30l-172 -124q-36 -26 -52 -26q-19 0 -45 28zM40 0l9 38l45 4q20 1 28.5 13.5t15.5 42.5l111 496q7 27 4 40.5t-23 14.5l-51 5l10 38h312l-10 -38l-44 -4q-20 -1 -28.5 -13.5t-15.5 -42.5l-46 -207h260
l46 207q7 27 4 40.5t-23 14.5l-51 5l10 38h312l-10 -38l-44 -4q-20 -1 -28.5 -13.5t-15.5 -42.5l-111 -496q-7 -27 -4 -40.5t23 -15.5l50 -4l-9 -38h-312l9 38l45 4q20 1 28.5 13.5t15.5 42.5l54 241h-260l-54 -241q-7 -27 -4 -40.5t23 -15.5l50 -4l-9 -38h-312z" />
    <glyph glyph-name="uni021F" unicode="&#x21f;" horiz-adv-x="629" 
d="M327 960l29 27l113 -96q19 -17 30 -17q12 0 38 17l145 96l23 -27l-180 -173q-27 -27 -48 -27q-17 0 -36 28zM79 -12l143 645q10 40 -16 43l-58 7l8 32l229 27l5 -5l-107 -442h5q46 88 110.5 147.5t137.5 59.5q58 0 78.5 -43t-2.5 -112l-72 -232q-13 -47 11 -47
q16 0 40.5 30t45.5 69l29 -15q-75 -164 -196 -164q-49 0 -69 32t-2 93l74 251q8 28 2.5 43t-22.5 15q-36 0 -88 -65.5t-82 -143.5q-25 -62 -65 -213z" />
    <glyph glyph-name="uni0226" unicode="&#x226;" 
d="M426 806q0 30 21.5 52.5t57.5 22.5q37 0 58 -22t21 -53q0 -30 -21 -52t-58 -22q-36 0 -57.5 22t-21.5 52zM-24 0l7 38l27 3q23 2 36.5 11.5t28.5 34.5q39 63 151 262l194 343h118l34 -317q4 -37 15 -144.5t15 -144.5q3 -24 9 -34t22 -11l41 -3l-8 -38h-300l8 38l52 4
q26 1 23 37l-15 167h-200q-18 -33 -47 -90.5t-39 -76.5q-18 -36 13 -37l56 -4l-7 -38h-234zM260 294h169l-24 261h-2q-11 -18 -70 -126t-73 -135z" />
    <glyph glyph-name="uni0227" unicode="&#x227;" horiz-adv-x="596" 
d="M361 635q0 30 21.5 52.5t57.5 22.5q37 0 58 -22t21 -53q0 -30 -21 -52t-58 -22q-36 0 -57.5 22t-21.5 52zM61 108q0 41 13 91t41.5 104t68 98t98.5 72.5t127 28.5q43 0 71 -17l4 9h137l-101 -379q-12 -47 11 -47q32 0 87 97l29 -16q-81 -161 -199 -161q-98 0 -62 126
l25 88h-6q-21 -36 -35 -58t-40 -55.5t-49 -52.5t-55.5 -33.5t-66.5 -14.5q-50 0 -74 34.5t-24 85.5zM215 115q0 -47 29 -47q41 0 120 126q68 112 103 248q-20 14 -49 14q-40 0 -79 -38.5t-65.5 -93t-42.5 -112t-16 -97.5z" />
    <glyph glyph-name="uni022E" unicode="&#x22e;" horiz-adv-x="761" 
d="M451 806q0 30 21.5 52.5t57.5 22.5q37 0 58 -22t21 -53q0 -30 -21 -52t-58 -22q-36 0 -57.5 22t-21.5 52zM113 264q0 134 57 244q104 199 337 199q134 0 215 -71.5t81 -216.5q0 -130 -59 -243q-99 -191 -324 -191q-148 0 -227.5 75t-79.5 204zM278 190q0 -159 125 -159
q70 0 125.5 79.5t82.5 186.5t27 209q0 155 -116 155q-58 0 -107 -50.5t-77.5 -126t-44 -153t-15.5 -141.5z" />
    <glyph glyph-name="uni022F" unicode="&#x22f;" horiz-adv-x="562" 
d="M333 635q0 30 21.5 52.5t57.5 22.5q37 0 58 -22t21 -53q0 -30 -21 -52t-58 -22q-36 0 -57.5 22t-21.5 52zM77 174q0 106 59 197q84 131 245 131q42 0 77 -9t66 -30t49 -60.5t18 -94.5q0 -95 -62 -193q-80 -127 -245 -127q-104 0 -155.5 50.5t-51.5 135.5zM222 107
q0 -73 60 -73q37 0 69.5 42t52 100.5t31 112.5t11.5 85q0 82 -57 82q-62 0 -115 -117q-52 -119 -52 -232z" />
    <glyph glyph-name="uni0232" unicode="&#x232;" horiz-adv-x="622" 
d="M306 770l18 77h350l-18 -77h-350zM127 656l8 36h301l-8 -38l-55 -6q-23 -2 -17 -29l70 -272h2q117 167 178 268q19 31 -13 34l-53 5l8 38h252l-7 -38l-29 -3q-18 -2 -31 -8.5t-20.5 -13.5t-24.5 -26q-86 -96 -211 -280q-27 -38 -34 -72l-35 -153q-7 -27 -4 -40.5
t23 -14.5l64 -5l-9 -38h-339l9 38l59 4q20 1 28.5 13.5t15.5 42.5l32 148q7 31 -2 65q-35 144 -83 298q-7 25 -15.5 33.5t-25.5 10.5z" />
    <glyph glyph-name="uni0233" unicode="&#x233;" horiz-adv-x="489" 
d="M247 592l15 72h311l-15 -72h-311zM-14 -180q-2 29 19.5 54.5t48.5 26.5q15 0 24 -7t23 -26q25 -37 44 -37q27 0 44 57q11 37 11 102t-15 183t-29 190q-6 35 -13.5 48.5t-23.5 12.5h-62v30l217 48l8 -4q11 -41 22.5 -178t12.5 -248h3q95 171 113 267q11 59 9 138
q56 25 104 25q6 0 13.5 -18.5t7.5 -35.5q0 -15 -8.5 -38.5t-29.5 -61t-35 -61.5t-44 -74q-35 -58 -84 -145t-55 -97q-39 -63 -58.5 -92t-49.5 -62.5t-59 -46t-67 -12.5q-41 0 -66 18.5t-25 43.5z" />
    <glyph glyph-name="uni0237" unicode="&#x237;" horiz-adv-x="333" 
d="M-85 -174q0 21 19.5 40.5t40.5 19.5q9 0 17 -6.5t10.5 -10t11.5 -16.5q32 -49 45 -49q11 0 19 34l122 553q9 40 -15 43l-64 6l7 33l232 29l7 -5l-115 -502q-34 -146 -91 -196q-49 -41 -120 -41q-61 0 -93.5 19.5t-32.5 48.5z" />
    <glyph glyph-name="uni0241" unicode="&#x241;" horiz-adv-x="563" 
d="M172 595q0 41 69.5 76.5t179.5 35.5q94 0 152 -34t58 -96q0 -44 -19 -85.5t-47.5 -76t-58.5 -67.5t-56 -73.5t-35 -80.5l-22 -96q-7 -27 -4 -40.5t23 -14.5l64 -5l-9 -38h-340l9 38l59 4q20 1 28.5 13.5t15.5 42.5l15 67q12 54 39.5 104.5t57 87.5t57.5 74t46 79.5
t18 87.5q0 36 -15.5 49.5t-43.5 13.5q-53 0 -119 -110q-10 -17 -20 -23t-31 -6q-22 0 -46.5 21t-24.5 52z" />
    <glyph glyph-name="uni0244" unicode="&#x244;" horiz-adv-x="802" 
d="M108 341l11 48h86l46 205q7 27 4 40.5t-23 14.5l-51 5l10 38h312l-10 -38l-44 -4q-20 -1 -28.5 -13.5t-15.5 -42.5l-45 -205h257l46 205q7 27 4 40.5t-23 14.5l-51 5l10 38h312l-10 -38l-44 -4q-20 -1 -28.5 -13.5t-15.5 -42.5l-47 -205h86l-11 -48h-86l-20 -88
q-33 -146 -104 -207t-220 -61q-153 0 -217 70q-54 61 -26 186l22 100h-86zM325 233q-44 -202 95 -202q64 0 103 54t65 173l19 83h-258z" />
    <glyph glyph-name="uni0245" unicode="&#x245;" horiz-adv-x="630" 
d="M-24 0l7 38l27 3q23 2 36.5 11.5t28.5 34.5l342 605h117q41 -321 64 -606q3 -43 31 -45l41 -3l-8 -38h-301l8 38l52 4q15 1 20.5 9.5t3.5 27.5l-43 474h-2q-101 -176 -252 -474q-17 -34 13 -37l57 -4l-7 -38h-235z" />
    <glyph glyph-name="uni0254" unicode="&#x254;" horiz-adv-x="456" 
d="M31 108q0 27 27.5 43.5t66.5 16.5q28 0 36 -51q5 -32 9 -46t12 -25.5t21 -11.5q45 0 88.5 96t43.5 198q0 108 -71 108q-30 0 -57 -17.5t-43.5 -37.5t-41.5 -56l-30 21q88 156 235 156q72 0 116.5 -40.5t44.5 -126.5q0 -60 -20.5 -120t-57.5 -111.5t-97.5 -83.5
t-132.5 -32q-71 0 -110 34.5t-39 85.5z" />
    <glyph glyph-name="uni0256" unicode="&#x256;" horiz-adv-x="609" 
d="M64 120q0 38 12 85.5t39.5 100t65.5 96t96 72t126 28.5q51 0 80 -17l2 1l35 149q5 20 1.5 30t-16.5 12l-51 7l7 31l218 27l7 -6l-170 -726q-5 -20 -32.5 -90.5t-28.5 -89.5q0 -21 15 -21q18 0 48 43.5t49 43.5q27 0 45.5 -22.5t18.5 -49.5q0 -28 -34.5 -47t-111.5 -19
q-64 0 -103 57t-14 152l62 244l-4 1q-23 -40 -37 -63t-40.5 -58t-50 -54t-57 -34t-70.5 -15q-58 0 -82.5 37.5t-24.5 94.5zM218 126q0 -58 38 -58q50 0 119 117t99 255q-19 16 -53 16q-55 0 -104 -64t-74 -139.5t-25 -126.5z" />
    <glyph glyph-name="uni0259" unicode="&#x259;" horiz-adv-x="476" 
d="M46 104q0 58 46 100q69 61 264 99v24q0 46 -18.5 77.5t-59.5 31.5q-43 0 -80 -30t-80 -92l-30 24q91 164 254 164q30 0 56.5 -8t51.5 -26.5t40 -54t15 -84.5q0 -125 -81 -227q-91 -114 -230 -114q-65 0 -106.5 32t-41.5 84zM174 78q0 -44 37 -44q44 0 87 69t54 155
q-84 -17 -131 -67.5t-47 -112.5z" />
    <glyph glyph-name="uni025B" unicode="&#x25b;" horiz-adv-x="454" 
d="M65 118q0 56 42 94.5t115 52.5v3q-48 9 -68.5 31t-20.5 59q0 71 65 107.5t163 36.5q77 0 121 -24.5t44 -67.5q0 -30 -31 -47.5t-59 -17.5q-25 0 -34 35q-11 45 -22.5 60.5t-41.5 15.5q-35 0 -60 -24.5t-25 -64.5q0 -86 80 -86h39l-10 -46h-36q-58 0 -89 -29.5t-31 -77.5
q0 -36 19.5 -55.5t53.5 -19.5q79 0 162 106l29 -22q-99 -149 -232 -149q-173 0 -173 130z" />
    <glyph glyph-name="uni025C" unicode="&#x25c;" horiz-adv-x="454" 
d="M45 137l40 22q15 -52 41 -79t69 -27q34 0 63.5 19.5t46.5 55.5q24 46 7 76.5t-75 30.5h-36l13 46h39q80 0 122 86q19 41 6 65t-48 24q-30 0 -49 -15.5t-52 -60.5q-26 -35 -51 -35q-28 0 -50.5 17.5t-8.5 47.5q21 43 76.5 67.5t133.5 24.5q98 0 145.5 -36.5t12.5 -107.5
q-35 -74 -133 -90l-1 -3q66 -14 89 -52.5t-4 -94.5q-64 -130 -236 -130q-133 0 -160 149z" />
    <glyph glyph-name="uni0261" unicode="&#x261;" horiz-adv-x="584" 
d="M17 -140q0 34 18.5 47t41.5 13q28 0 44.5 -12t23.5 -29t14 -34.5t24 -29.5t46 -12q48 0 94 85.5t74 208.5l21 93h-3q-116 -195 -238 -195q-45 0 -79 24t-34 87q0 45 12.5 95.5t40.5 104.5t68 97.5t101 71t133 27.5q70 0 124 -23l40 34h56l-113 -476q-33 -138 -111 -209
t-190 -71q-23 0 -49 2.5t-66.5 11.5t-66.5 32t-26 57zM218 122q0 -54 34 -54q42 0 108 93q85 120 123 281q-22 14 -52 14q-48 0 -90 -38.5t-68 -93.5t-40.5 -109.5t-14.5 -92.5z" />
    <glyph glyph-name="uni0263" unicode="&#x263;" horiz-adv-x="480" 
d="M57 424v30l209 48l8 -4q12 -45 29.5 -162.5t23.5 -208.5h3q81 115 100 215q9 50 7 135q56 25 100 25q6 0 13.5 -18.5t7.5 -35.5q0 -47 -113 -226q-61 -96 -106 -156q19 -125 19 -174q0 -59 -47.5 -96t-116.5 -37q-103 0 -103 97q0 54 123 173q-15 111 -58 334
q-6 35 -13.5 48.5t-23.5 12.5h-62zM149 -149q0 -46 36 -46q27 0 40 16t13 40q0 33 -12 112h-2q-42 -45 -58.5 -70t-16.5 -52z" />
    <glyph glyph-name="uni0265" unicode="&#x265;" horiz-adv-x="600" 
d="M109 443l8 33l231 26l5 -5l-94 -369q-16 -60 19 -60q33 0 83.5 71.5t81.5 145.5q25 56 67 205l142 12l-171 -723l-145 -21l110 452h-4q-121 -222 -259 -222q-105 0 -67 145l67 258q12 43 -15 46z" />
    <glyph glyph-name="uni0268" unicode="&#x268;" horiz-adv-x="349" 
d="M229 632q0 35 22.5 61.5t64.5 26.5q35 0 57.5 -19t22.5 -54q0 -41 -23.5 -64.5t-62.5 -23.5q-36 0 -58.5 20t-22.5 53zM73 231l10 46h75l31 115q10 39 -17 42l-58 6l8 33l230 29l6 -6l-59 -219h72l-10 -46h-75l-31 -116q-13 -47 11 -47q16 0 40 29.5t46 68.5l30 -17
q-80 -161 -200 -161q-102 0 -70 119l34 124h-73z" />
    <glyph glyph-name="uni0269" unicode="&#x269;" horiz-adv-x="369" 
d="M108 117l73 265q13 49 -23 54l-51 4l9 33l231 29l7 -7l-88 -334q-13 -64 -5.5 -80.5t35.5 -16.5q26 0 75 18l7 -30q-54 -34 -93 -49t-82 -15q-52 0 -82 33t-13 96z" />
    <glyph glyph-name="uni026A" unicode="&#x26a;" horiz-adv-x="331" 
d="M34 0l9 38q41 2 53.5 10t19.5 39l73 316q7 30 -6 38.5t-55 10.5l9 38h273l-9 -38q-42 -3 -54 -10.5t-19 -38.5l-73 -316q-7 -30 6 -38.5t55 -10.5l-9 -38h-273z" />
    <glyph glyph-name="uni026F" unicode="&#x26f;" horiz-adv-x="914" 
d="M109 443l8 33l231 26l5 -5l-104 -371q-17 -58 18 -58q33 0 86.5 72t80.5 136q37 92 70 214l138 12l-105 -386q-7 -26 -2.5 -37t22.5 -11q33 0 87 73t80 137q32 80 69 212l138 12l-106 -387q-13 -47 12 -47q29 0 86 98l29 -18q-78 -160 -199 -160q-42 0 -61 29.5t-3 78.5
l37 112h-4q-50 -95 -115.5 -157.5t-129.5 -62.5q-105 0 -61 146l21 72l-5 1q-51 -97 -115.5 -158t-134.5 -61q-56 0 -73.5 43t2.5 102l72 258q12 43 -15 46z" />
    <glyph glyph-name="uni0271" unicode="&#x271;" horiz-adv-x="903" 
d="M81 -12l101 403q10 40 -15 43l-58 6l7 33l228 29l5 -6l-64 -213h5q50 95 115.5 157t129.5 62q105 0 61 -146l-21 -72l5 -1q51 97 115.5 158t134.5 61q56 0 73 -43t-2 -102l-89 -331q-48 -179 -99 -224q-52 -44 -117 -44q-61 0 -92.5 19.5t-31.5 48.5q0 21 19.5 40.5
t40.5 19.5q22 0 37 -29q27 -53 45 -53q11 0 19 34l59 270l71 256q15 58 -18 58t-86.5 -72t-80.5 -136q-37 -92 -70 -214l-138 -12l105 386q7 26 2.5 37t-22.5 11q-33 0 -87 -73t-80 -137q-32 -80 -69 -212z" />
    <glyph glyph-name="uni0275" unicode="&#x275;" horiz-adv-x="562" 
d="M77 174q0 106 59 197q84 131 245 131q42 0 77 -9t66 -30t49 -60.5t18 -94.5q0 -95 -62 -193q-80 -127 -245 -127q-104 0 -155.5 50.5t-51.5 135.5zM222 107q0 -73 60 -73q45 0 80 57t59 140h-183q-16 -70 -16 -124zM251 277h181q14 64 14 97q0 82 -57 82q-62 0 -115 -117
q-9 -20 -23 -62z" />
    <glyph glyph-name="uni0279" unicode="&#x279;" horiz-adv-x="440" 
d="M10 47q0 31 19.5 58.5t48.5 27.5q21 0 48 -19q23 -16 38 -16q46 0 97 179q10 35 28.5 109t26.5 104l140 12l-93 -403q-9 -40 15 -43l59 -6l-7 -33l-213 -29l-5 5l37 145h-5q-39 -70 -83 -110t-89 -40q-62 0 -62 59z" />
    <glyph glyph-name="uni0283" unicode="&#x283;" horiz-adv-x="342" 
d="M-94 -168q0 23 18 41t42 18q10 0 18.5 -5.5t11 -9.5t9.5 -16q32 -56 47 -56q14 0 19 27l37 195l104 490q21 97 77 161.5t156 64.5q63 0 103 -26t40 -62q0 -26 -22 -43t-47 -17q-27 0 -42 30q-20 42 -31.5 57t-23.5 15q-29 0 -46 -79l-128 -589q-31 -141 -83 -205.5
t-139 -64.5q-56 0 -88 20.5t-32 53.5z" />
    <glyph glyph-name="uni0287" unicode="&#x287;" horiz-adv-x="359" 
d="M-3 0l12 48h118l82 331q10 43 -14 43q-40 0 -99 -98l-28 19q84 159 211 159q46 0 67 -30.5t5 -92.5l-84 -331h83l-12 -48h-81l-20 -74l-151 -77l-13 8l44 143h-120z" />
    <glyph glyph-name="uni0289" unicode="&#x289;" horiz-adv-x="642" 
d="M73 231l10 46h75l30 114q12 43 -15 46l-59 6l8 33l231 26l5 -5l-56 -220h145q34 96 68 213l142 12l-59 -225h73l-10 -46h-75l-30 -116q-14 -47 12 -47q29 0 86 98l29 -18q-79 -160 -199 -160q-41 0 -59 29t-5 79l31 114h-4q-121 -222 -259 -222q-105 0 -67 145l25 98h-73
zM264 128q-16 -60 19 -60q26 0 65 48.5t74 114.5h-132z" />
    <glyph glyph-name="uni028B" unicode="&#x28b;" horiz-adv-x="562" 
d="M103 443l7 33l226 26l5 -5l-66 -278q-25 -98 -11 -141.5t76 -43.5q86 0 129 64.5t43 168.5q0 62 -11 98.5t-37 78.5q17 26 45 42t50 16q25 0 43 -33t18 -105q0 -59 -19.5 -123t-54.5 -121.5t-93 -94.5t-128 -37q-101 0 -158.5 57t-32.5 162l43 184q10 43 -15 46z" />
    <glyph glyph-name="uni028C" unicode="&#x28c;" horiz-adv-x="596" 
d="M8 50q0 29 15 50.5t37 21.5q24 0 43.5 -17t32.5 -17q38 0 87 114l122 288h98l39 -314q8 -65 18 -86.5t30 -21.5q31 0 80 90l32 -14q-64 -158 -167 -158q-46 0 -77 26t-35 84l-19 271h-2l-82 -209q-67 -170 -176 -170q-36 0 -56 17.5t-20 44.5z" />
    <glyph glyph-name="uni0292" unicode="&#x292;" horiz-adv-x="503" 
d="M-21 -140q0 -103 197 -103q37 0 73.5 7t74.5 24t66.5 42.5t47 67t18.5 92.5q0 85 -38.5 136.5t-111.5 51.5q-40 0 -54 -6l-2 2l237 223q40 37 49 54l10 18l-10 21h-351q-23 -21 -48.5 -73t-41.5 -115l25 -12q28 51 48 70.5t59 19.5h167l-227 -214l-10 -22l19 -36
q29 14 65 14q34 0 53.5 -37t19.5 -80q0 -68 -39 -134.5t-96 -66.5q-32 0 -48 12t-20 29t-7.5 34t-16.5 29t-41 12q-24 0 -45.5 -13t-21.5 -47z" />
    <glyph glyph-name="uni0294" unicode="&#x294;" horiz-adv-x="524" 
d="M173 627q0 41 63.5 78t162.5 37q204 0 204 -153q0 -38 -19 -75t-47.5 -68t-58 -61.5t-55 -68.5t-34.5 -76l-57 -240l-142 -12l52 217q14 57 40.5 107.5t54 86t53.5 69.5t42.5 72.5t16.5 80.5q0 75 -52 75q-31 0 -59 -26.5t-42 -79.5q-6 -20 -15 -28.5t-32 -8.5
q-22 0 -49 23t-27 51z" />
    <glyph glyph-name="uni0295" unicode="&#x295;" horiz-adv-x="524" 
d="M-79 589q0 153 204 153q99 0 162.5 -37t63.5 -78q0 -28 -27 -51t-49 -23q-23 0 -32 8.5t-15 28.5q-14 53 -42 79.5t-59 26.5q-52 0 -52 -75q0 -42 16.5 -80.5t42.5 -72.5t53.5 -69.5t54 -86t40.5 -107.5l52 -217l-142 12l-57 240q-9 38 -34.5 76t-55 68.5t-58 61.5
t-47.5 68t-19 75z" />
    <glyph glyph-name="uni0296" unicode="&#x296;" horiz-adv-x="524" 
d="M89 141q0 38 19 75t47.5 68t58 61.5t55 68.5t34.5 76l57 240l142 12l-52 -217q-14 -57 -40.5 -107.5t-54 -86t-53.5 -69.5t-42.5 -72.5t-16.5 -80.5q0 -75 52 -75q31 0 59 26.5t42 79.5q6 20 15 28.5t32 8.5q22 0 49 -23t27 -51q0 -41 -63.5 -78t-162.5 -37
q-204 0 -204 153z" />
    <glyph glyph-name="uni02B9" unicode="&#x2b9;" horiz-adv-x="304" 
d="M165 469l46 188q10 41 20 64q13 29 45 29q12 0 33 -8q40 -18 40 -51q0 -13 -4 -21q-14 -31 -33 -58l-110 -160z" />
    <glyph glyph-name="uni02BA" unicode="&#x2ba;" horiz-adv-x="515" 
d="M165 469l46 188q10 41 20 64q13 29 45 29q12 0 33 -8q40 -18 40 -51q0 -13 -4 -21q-14 -31 -33 -58l-110 -160zM376 469l46 188q10 41 20 64q13 29 45 29q12 0 33 -8q40 -18 40 -51q0 -13 -4 -21q-14 -31 -33 -58l-110 -160z" />
    <glyph glyph-name="circumflex" unicode="&#x2c6;" horiz-adv-x="400" 
d="M128 547l180 173q27 27 48 27q17 0 36 -28l114 -172l-29 -27l-113 96q-19 17 -30 17q-12 0 -38 -17l-145 -96z" />
    <glyph glyph-name="caron" unicode="&#x2c7;" horiz-adv-x="400" 
d="M165 720l29 27l113 -96q19 -17 30 -17q12 0 38 17l145 96l23 -27l-180 -173q-27 -27 -48 -27q-17 0 -36 28z" />
    <glyph glyph-name="uni02CA" unicode="&#x2ca;" horiz-adv-x="400" 
d="M221 541l145 149q28 29 43.5 39.5t30.5 10.5q18 0 35.5 -20.5t17.5 -39.5q0 -18 -17.5 -33t-50.5 -33l-183 -103z" />
    <glyph glyph-name="uni02CB" unicode="&#x2cb;" horiz-adv-x="400" 
d="M144 680q0 19 17.5 39.5t35.5 20.5q15 0 30.5 -10.5t43.5 -39.5l145 -149l-21 -30l-183 103q-33 18 -50.5 33t-17.5 33z" />
    <glyph glyph-name="uni02CE" unicode="&#x2ce;" horiz-adv-x="400" 
d="M-61 -208q0 19 17.5 39.5t35.5 20.5q15 0 30.5 -10.5t43.5 -39.5l145 -149l-21 -30l-183 103q-33 18 -50.5 33t-17.5 33z" />
    <glyph glyph-name="uni02CF" unicode="&#x2cf;" horiz-adv-x="400" 
d="M16 -347l145 149q28 29 43.5 39.5t30.5 10.5q18 0 35.5 -20.5t17.5 -39.5q0 -18 -17.5 -33t-50.5 -33l-183 -103z" />
    <glyph glyph-name="breve" unicode="&#x2d8;" horiz-adv-x="400" 
d="M192 714h34q-4 -10 -0.5 -23t11 -24.5t31 -19.5t58.5 -8q115 0 144 75h34q-14 -73 -56.5 -115.5t-137.5 -42.5q-40 0 -67.5 9.5t-41 25t-18 37t-2 42t10.5 44.5z" />
    <glyph glyph-name="dotaccent" unicode="&#x2d9;" horiz-adv-x="402" 
d="M255 635q0 30 21.5 52.5t57.5 22.5q37 0 58 -22t21 -53q0 -30 -21 -52t-58 -22q-36 0 -57.5 22t-21.5 52z" />
    <glyph glyph-name="ring" unicode="&#x2da;" horiz-adv-x="400" 
d="M201 627q0 59 36 97t108 38q53 0 83 -28t30 -74q0 -64 -40.5 -97.5t-102.5 -33.5q-52 0 -83 26.5t-31 71.5zM269 624q0 -27 15 -41t37 -14q29 0 49 26t20 72q0 24 -14 39.5t-37 15.5q-29 0 -49.5 -27t-20.5 -71z" />
    <glyph glyph-name="ogonek" unicode="&#x2db;" horiz-adv-x="350" 
d="M73 -149q3 37 42 79.5t92 69.5h57q-88 -66 -94 -128q-1 -30 13.5 -47t40.5 -17q29 0 50 13l14 -27q-52 -40 -107 -40q-37 0 -61 10t-33.5 26.5t-12 31t-1.5 29.5z" />
    <glyph glyph-name="tilde" unicode="&#x2dc;" horiz-adv-x="400" 
d="M129 567q8 43 39.5 82t85.5 39q28 0 94 -22q69 -21 92 -20q33 3 75 51l22 -13q-2 -3 -10.5 -20.5t-10.5 -21t-10 -18t-11.5 -18t-11.5 -14t-15 -13.5t-16 -8.5t-19.5 -7t-22.5 -1.5q-16 0 -85 21q-63 21 -99 21q-27 0 -42.5 -12t-32.5 -43z" />
    <glyph glyph-name="hungarumlaut" unicode="&#x2dd;" horiz-adv-x="400" 
d="M193 563l54 140q17 47 43 47q19 0 40 -11.5t21 -26.5q0 -25 -34 -62l-96 -104zM360 563l54 140q17 47 43 47q18 0 39 -11.5t21 -26.5q0 -26 -33 -62l-96 -104z" />
    <glyph glyph-name="uni02EE" unicode="&#x2ee;" horiz-adv-x="455" 
d="M339 414q72 72 72 128q0 19 -11.5 46t-11.5 44q0 32 22 53.5t54 21.5q36 1 55 -23t19 -59q0 -112 -176 -238zM130 414q72 72 72 128q0 19 -11.5 46t-11.5 44q0 32 22 53.5t54 21.5q36 1 55 -23t19 -59q0 -112 -176 -238z" />
    <glyph glyph-name="gravecomb" unicode="&#x300;" horiz-adv-x="0" 
d="M-256 680q0 19 17.5 39.5t35.5 20.5q15 0 30.5 -10.5t43.5 -39.5l145 -149l-21 -30l-183 103q-33 18 -50.5 33t-17.5 33z" />
    <glyph glyph-name="acutecomb" unicode="&#x301;" horiz-adv-x="0" 
d="M-179 541l145 149q28 29 43.5 39.5t30.5 10.5q18 0 35.5 -20.5t17.5 -39.5q0 -18 -17.5 -33t-50.5 -33l-183 -103z" />
    <glyph glyph-name="uni0302" unicode="&#x302;" horiz-adv-x="0" 
d="M-272 547l180 173q27 27 48 27q17 0 36 -28l114 -172l-29 -27l-113 96q-19 17 -30 17q-12 0 -38 -17l-145 -96z" />
    <glyph glyph-name="tildecomb" unicode="&#x303;" horiz-adv-x="0" 
d="M-271 567q8 43 39.5 82t85.5 39q28 0 94 -22q69 -21 92 -20q33 3 75 51l22 -13q-2 -3 -10.5 -20.5t-10.5 -21t-10 -18t-11.5 -18t-11.5 -14t-15 -13.5t-16 -8.5t-19.5 -7t-22.5 -1.5q-16 0 -85 21q-63 21 -99 21q-27 0 -42.5 -12t-32.5 -43z" />
    <glyph glyph-name="uni0304" unicode="&#x304;" horiz-adv-x="0" 
d="M-232 592l15 72h311l-15 -72h-311z" />
    <glyph glyph-name="uni0305" unicode="&#x305;" horiz-adv-x="0" 
d="M-329 664h500v-50h-500v50z" />
    <glyph glyph-name="uni0306" unicode="&#x306;" horiz-adv-x="0" 
d="M-208 714h34q-4 -10 -0.5 -23t11 -24.5t31 -19.5t58.5 -8q115 0 144 75h34q-14 -73 -56.5 -115.5t-137.5 -42.5q-40 0 -67.5 9.5t-41 25t-18 37t-2 42t10.5 44.5z" />
    <glyph glyph-name="uni0307" unicode="&#x307;" horiz-adv-x="0" 
d="M-147 635q0 30 21.5 52.5t57.5 22.5q37 0 58 -22t21 -53q0 -30 -21 -52t-58 -22q-36 0 -57.5 22t-21.5 52z" />
    <glyph glyph-name="uni0308" unicode="&#x308;" horiz-adv-x="0" 
d="M-19 635q0 30 21.5 52.5t57.5 22.5q37 0 58 -22t21 -53q0 -30 -21 -52t-58 -22q-36 0 -57.5 22t-21.5 52zM-259 635q0 30 21.5 52.5t57.5 22.5q37 0 58 -22t21 -53q0 -30 -21 -52t-58 -22q-36 0 -57.5 22t-21.5 52z" />
    <glyph glyph-name="hookabovecomb" unicode="&#x309;" horiz-adv-x="0" 
d="M-147 787q0 20 36 39t99 19q56 0 88 -19t32 -51q0 -30 -26.5 -50t-59 -28t-59 -21.5t-26.5 -31.5q0 -21 30 -21l-4 -19q-36 0 -59 11.5t-23 33.5q0 25 21.5 43.5t46.5 28t46.5 28t21.5 42.5q0 8 -9.5 15t-24.5 7q-33 0 -60 -47q-6 -12 -29 -12q-17 0 -29 8.5t-12 24.5z
" />
    <glyph glyph-name="uni030A" unicode="&#x30a;" horiz-adv-x="0" 
d="M-199 627q0 59 36 97t108 38q53 0 83 -28t30 -74q0 -64 -40.5 -97.5t-102.5 -33.5q-52 0 -83 26.5t-31 71.5zM-131 624q0 -27 15 -41t37 -14q29 0 49 26t20 72q0 24 -14 39.5t-37 15.5q-29 0 -49.5 -27t-20.5 -71z" />
    <glyph glyph-name="uni030B" unicode="&#x30b;" horiz-adv-x="0" 
d="M-207 563l54 140q17 47 43 47q19 0 40 -11.5t21 -26.5q0 -25 -34 -62l-96 -104zM-40 563l54 140q17 47 43 47q18 0 39 -11.5t21 -26.5q0 -26 -33 -62l-96 -104z" />
    <glyph glyph-name="uni030C" unicode="&#x30c;" horiz-adv-x="0" 
d="M-235 720l29 27l113 -96q19 -17 30 -17q12 0 38 17l145 96l23 -27l-180 -173q-27 -27 -48 -27q-17 0 -36 28z" />
    <glyph glyph-name="uni030F" unicode="&#x30f;" horiz-adv-x="0" 
d="M-222 712q0 15 21 26.5t39 11.5q26 0 43 -47l54 -140l-28 -17l-96 104q-33 36 -33 62zM-56 712q0 15 21 26.5t40 11.5q26 0 43 -47l54 -140l-28 -17l-96 104q-34 37 -34 62z" />
    <glyph glyph-name="uni0311" unicode="&#x311;" horiz-adv-x="0" 
d="M93 556h-34q4 10 0.5 23t-11 24.5t-31 19.5t-58.5 8q-115 0 -144 -75h-34q14 73 56.5 115.5t137.5 42.5q40 0 67.5 -9.5t41 -25t18 -37t2 -42t-10.5 -44.5z" />
    <glyph glyph-name="uni0315" unicode="&#x315;" horiz-adv-x="0" 
d="M40 555q72 72 72 128q0 19 -11.5 46t-11.5 44q0 32 22 53.5t54 21.5q36 1 55 -23t19 -59q0 -112 -176 -238z" />
    <glyph glyph-name="uni0316" unicode="&#x316;" horiz-adv-x="0" 
d="M-461 -208q0 19 17.5 39.5t35.5 20.5q15 0 30.5 -10.5t43.5 -39.5l145 -149l-21 -30l-183 103q-33 18 -50.5 33t-17.5 33z" />
    <glyph glyph-name="uni0317" unicode="&#x317;" horiz-adv-x="0" 
d="M-384 -347l145 149q28 29 43.5 39.5t30.5 10.5q18 0 35.5 -20.5t17.5 -39.5q0 -18 -17.5 -33t-50.5 -33l-183 -103z" />
    <glyph glyph-name="dotbelowcomb" unicode="&#x323;" horiz-adv-x="0" 
d="M-327 -146q0 30 21.5 52.5t57.5 22.5q37 0 58 -22t21 -53q0 -30 -21 -52t-58 -22q-36 0 -57.5 22t-21.5 52z" />
    <glyph glyph-name="uni0324" unicode="&#x324;" horiz-adv-x="0" 
d="M-199 -146q0 30 21.5 52.5t57.5 22.5q37 0 58 -22t21 -53q0 -30 -21 -52t-58 -22q-36 0 -57.5 22t-21.5 52zM-439 -146q0 30 21.5 52.5t57.5 22.5q37 0 58 -22t21 -53q0 -30 -21 -52t-58 -22q-36 0 -57.5 22t-21.5 52z" />
    <glyph glyph-name="uni0325" unicode="&#x325;" horiz-adv-x="0" 
d="M-393 -211q0 59 36 97t108 38q53 0 83 -28t30 -74q0 -64 -40.5 -97.5t-102.5 -33.5q-52 0 -83 26.5t-31 71.5zM-325 -214q0 -27 15 -41t37 -14q29 0 49 26t20 72q0 24 -14 39.5t-37 15.5q-29 0 -49.5 -27t-20.5 -71z" />
    <glyph glyph-name="uni0326" unicode="&#x326;" horiz-adv-x="0" 
d="M-319 -274q54 52 54 91q0 16 -10 38t-10 38q0 29 18.5 47t49.5 18q30 0 47 -21t17 -50q0 -52 -38.5 -94.5t-107.5 -89.5z" />
    <glyph glyph-name="uni0327" unicode="&#x327;" horiz-adv-x="0" 
d="M-280 -243l2 32q96 0 101 58q3 29 -16 41t-44 14l-3 8l66 90h58l-44 -56q20 -3 38.5 -10t35 -29.5t13.5 -55.5q-3 -28 -21 -48.5t-44.5 -29.5t-49.5 -13t-44 -4q-22 0 -48 3z" />
    <glyph glyph-name="uni0328" unicode="&#x328;" horiz-adv-x="0" 
d="M-277 -149q3 37 42 79.5t92 69.5h57q-88 -66 -94 -128q-1 -30 13.5 -47t40.5 -17q29 0 50 13l14 -27q-52 -40 -107 -40q-37 0 -61 10t-33.5 26.5t-12 31t-1.5 29.5z" />
    <glyph glyph-name="uni032C" unicode="&#x32c;" horiz-adv-x="0" 
d="M-425 -102l29 27l113 -96q19 -17 30 -17q12 0 38 17l145 96l23 -27l-180 -173q-27 -27 -48 -27q-17 0 -36 28z" />
    <glyph glyph-name="uni032D" unicode="&#x32d;" horiz-adv-x="0" 
d="M-462 -275l180 173q27 27 48 27q17 0 36 -28l114 -172l-29 -27l-113 96q-19 17 -30 17q-12 0 -38 -17l-145 -96z" />
    <glyph glyph-name="uni032E" unicode="&#x32e;" horiz-adv-x="0" 
d="M-389 -71h34q-4 -10 -0.5 -23t11 -24.5t31 -19.5t58.5 -8q115 0 144 75h34q-14 -73 -56.5 -115.5t-137.5 -42.5q-40 0 -67.5 9.5t-41 25t-18 37t-2 42t10.5 44.5z" />
    <glyph glyph-name="uni032F" unicode="&#x32f;" horiz-adv-x="0" 
d="M-105 -301h-34q4 10 0.5 23t-11 24.5t-31 19.5t-58.5 8q-115 0 -144 -75h-34q14 73 56.5 115.5t137.5 42.5q40 0 67.5 -9.5t41 -25t18 -37t2 -42t-10.5 -44.5z" />
    <glyph glyph-name="uni0330" unicode="&#x330;" horiz-adv-x="0" 
d="M-464 -269q8 43 39.5 82t85.5 39q28 0 94 -22q69 -21 92 -20q33 3 75 51l22 -13q-2 -3 -10.5 -20.5t-10.5 -21t-10 -18t-11.5 -18t-11.5 -14t-15 -13.5t-16 -8.5t-19.5 -7t-22.5 -1.5q-16 0 -85 21q-63 21 -99 21q-27 0 -42.5 -12t-32.5 -43z" />
    <glyph glyph-name="uni0331" unicode="&#x331;" horiz-adv-x="0" 
d="M-416 -205l15 72h311l-15 -72h-311z" />
    <glyph glyph-name="uni0332" unicode="&#x332;" horiz-adv-x="0" 
d="M-500 -75h500v-50h-500v50z" />
    <glyph glyph-name="uni0334" unicode="&#x334;" horiz-adv-x="0" 
d="M-351 219q8 43 39.5 82t85.5 39q28 0 94 -22q69 -21 92 -20q33 3 75 51l22 -13q-2 -3 -10.5 -20.5t-10.5 -21t-10 -18t-11.5 -18t-11.5 -14t-15 -13.5t-16 -8.5t-19.5 -7t-22.5 -1.5q-16 0 -85 21q-63 21 -99 21q-27 0 -42.5 -12t-32.5 -43z" />
    <glyph glyph-name="uni0338" unicode="&#x338;" horiz-adv-x="0" 
d="M-241 -15l286 722h100l-286 -722h-100z" />
    <glyph glyph-name="uni0400" unicode="&#x400;" horiz-adv-x="622" 
d="M279 840q0 18 16 41t38 23q24 0 64 -30l172 -123l-14 -32l-203 64q-42 13 -57.5 24.5t-15.5 32.5zM40 0l9 38l45 4q20 1 28.5 13.5t15.5 42.5l111 496q7 27 4 40.5t-23 14.5l-51 5l11 38h532l-40 -185h-38l-5 55q-3 40 -28 62t-86 22h-69q-26 0 -35 -5.5t-14 -27.5
l-50 -226h94q46 0 66 17t45 73h38l-50 -228h-38q2 49 -12 69.5t-60 20.5h-94l-53 -236q-9 -39 12 -48t96 -9q62 0 101.5 22.5t76.5 85.5l32 54h38l-59 -208h-550z" />
    <glyph glyph-name="afii10023" unicode="&#x401;" horiz-adv-x="622" 
d="M531 806q0 30 21.5 52.5t57.5 22.5q37 0 58 -22t21 -53q0 -30 -21 -52t-58 -22q-36 0 -57.5 22t-21.5 52zM279 806q0 30 21.5 52.5t57.5 22.5q37 0 58 -22t21 -53q0 -30 -21 -52t-58 -22q-36 0 -57.5 22t-21.5 52zM40 0l9 38l45 4q20 1 28.5 13.5t15.5 42.5l111 496
q7 27 4 40.5t-23 14.5l-51 5l11 38h532l-40 -185h-38l-5 55q-3 40 -28 62t-86 22h-69q-26 0 -35 -5.5t-14 -27.5l-50 -226h94q46 0 66 17t45 73h38l-50 -228h-38q2 49 -12 69.5t-60 20.5h-94l-53 -236q-9 -39 12 -48t96 -9q62 0 101.5 22.5t76.5 85.5l32 54h38l-59 -208
h-550z" />
    <glyph glyph-name="afii10051" unicode="&#x402;" horiz-adv-x="824" 
d="M122 0l9 38l59 4q20 1 28.5 13.5t15.5 42.5l124 548h-34q-47 0 -77.5 -21t-53.5 -63l-27 -51h-38l41 181h588l-41 -181h-38l-3 51q-4 42 -25 63t-68 21h-70l-61 -267h2q91 66 180 66q98 0 148 -46.5t50 -166.5q0 -54 -29.5 -109.5t-90.5 -96.5t-137 -41q-63 0 -90.5 35
t-27.5 80q0 31 16 53.5t50 22.5q27 0 44 -14t17 -35q0 -17 -8 -45t-8 -34q0 -17 15 -17q22 0 39.5 21.5t26.5 55.5t13.5 69.5t4.5 70.5q0 56 -19.5 85.5t-77.5 29.5q-44 0 -73 -12q-35 -15 -48.5 -31.5t-19.5 -42.5l-62 -277h-244z" />
    <glyph glyph-name="afii10052" unicode="&#x403;" horiz-adv-x="566" 
d="M366 751l172 123q40 30 64 30q22 0 38 -23t16 -41q0 -21 -15.5 -32.5t-57.5 -24.5l-203 -64zM40 0l9 38l45 4q20 1 28.5 13.5t15.5 42.5l111 496q7 27 4 40.5t-23 14.5l-51 5l10 38h520l-42 -193h-38l-5 55q-4 45 -30.5 68.5t-86.5 23.5h-60q-19 0 -27 -6t-12 -23
l-118 -522q-7 -27 -0.5 -39t29.5 -14l55 -4l-8 -38h-326z" />
    <glyph glyph-name="afii10053" unicode="&#x404;" horiz-adv-x="672" 
d="M111 275q0 54 11.5 108.5t43 114.5t79.5 105t128 74.5t182 29.5q53 0 117.5 -11.5t104.5 -36.5l-39 -179h-38q-2 181 -143 181q-102 0 -166 -75.5t-92 -191.5h247l-12 -48h-245q-9 -57 -9 -111q0 -101 42 -152.5t112 -51.5q75 0 123.5 43t100.5 131h41l-51 -179
q-80 -41 -214 -41q-83 0 -145 22t-95 53t-53 74t-25 75t-5 66z" />
    <glyph glyph-name="afii10054" unicode="&#x405;" horiz-adv-x="551" 
d="M66 70l23 177h37q10 -101 60 -158.5t112 -57.5q58 0 89 34t31 86q0 89 -103 148q-77 45 -117.5 90t-40.5 108q0 36 12.5 70t39.5 67t79.5 53t123.5 20q125 0 193 -54l-34 -161h-38q-2 84 -36 126.5t-89 42.5q-52 0 -81.5 -32.5t-29.5 -75.5q0 -40 30 -71t85 -62
q77 -43 114 -93t37 -117q0 -99 -66.5 -161.5t-196.5 -63.5q-67 0 -132.5 21t-101.5 64z" />
    <glyph glyph-name="afii10055" unicode="&#x406;" horiz-adv-x="386" 
d="M40 0l9 38l45 4q20 1 28.5 13.5t15.5 42.5l111 496q7 27 4 40.5t-23 14.5l-51 5l10 38h312l-10 -38l-44 -4q-20 -1 -28.5 -13.5t-15.5 -42.5l-111 -496q-7 -27 -4 -40.5t23 -15.5l50 -4l-9 -38h-312z" />
    <glyph glyph-name="afii10056" unicode="&#x407;" horiz-adv-x="386" 
d="M410 806q0 30 21.5 52.5t57.5 22.5q37 0 58 -22t21 -53q0 -30 -21 -52t-58 -22q-36 0 -57.5 22t-21.5 52zM158 806q0 30 21.5 52.5t57.5 22.5q37 0 58 -22t21 -53q0 -30 -21 -52t-58 -22q-36 0 -57.5 22t-21.5 52zM40 0l9 38l45 4q20 1 28.5 13.5t15.5 42.5l111 496
q7 27 4 40.5t-23 14.5l-51 5l10 38h312l-10 -38l-44 -4q-20 -1 -28.5 -13.5t-15.5 -42.5l-111 -496q-7 -27 -4 -40.5t23 -15.5l50 -4l-9 -38h-312z" />
    <glyph glyph-name="afii10057" unicode="&#x408;" horiz-adv-x="388" 
d="M-15 -79q67 11 99 48q46 52 77 189l99 436q7 27 4 40.5t-23 14.5l-51 5l10 38h312l-10 -38l-44 -4q-20 -1 -28.5 -13.5t-15.5 -42.5l-111 -488q-26 -112 -79 -160q-66 -60 -196 -60q-32 0 -41 2z" />
    <glyph glyph-name="afii10058" unicode="&#x409;" horiz-adv-x="1093" 
d="M42 100q0 35 16 61.5t53 26.5q29 0 50 -13.5t21 -36.5q0 -20 -13 -51.5t-13 -38.5q0 -17 15 -17q50 0 125.5 160.5t131.5 402.5q7 27 4 40.5t-23 14.5l-51 5l10 38h560l-10 -38l-58 -4q-20 -1 -28.5 -13.5t-15.5 -42.5l-46 -205q35 8 81 8q23 0 47.5 -2.5t63 -14.5
t66.5 -32t49 -59.5t21 -92.5q0 -97 -80 -150q-71 -46 -232 -46h-333l9 38l45 4q20 1 28.5 13.5t15.5 42.5l110 492q7 34 -4.5 42.5t-66.5 13.5h-14q-51 -5 -65 -13.5t-22 -42.5q-39 -167 -86.5 -299t-108.5 -219t-121 -87q-69 0 -100 35.5t-31 79.5zM708 111q-7 -33 3.5 -49
t52.5 -16q84 0 126.5 49t42.5 125q0 56 -28 93.5t-73 37.5q-52 0 -73 -12z" />
    <glyph glyph-name="afii10059" unicode="&#x40a;" horiz-adv-x="1094" 
d="M40 0l9 38l45 4q20 1 28.5 13.5t15.5 42.5l111 496q7 27 4 40.5t-23 14.5l-51 5l10 38h312l-10 -38l-44 -4q-20 -1 -28.5 -13.5t-15.5 -42.5l-46 -207h260l46 207q5 22 5 32q0 22 -24 23l-51 5l10 38h326l-10 -38l-58 -4q-20 -1 -28.5 -13.5t-15.5 -42.5l-46 -205
q35 8 81 8q23 0 47.5 -2.5t63 -14.5t66.5 -32t49 -59.5t21 -92.5q0 -97 -80 -150q-71 -46 -232 -46h-333l9 38l45 4q20 1 28.5 13.5t15.5 42.5l54 241h-260l-54 -241q-7 -27 -4 -40.5t23 -15.5l50 -4l-9 -38h-312zM709 111q-7 -33 3.5 -49t52.5 -16q84 0 126.5 49t42.5 125
q0 56 -28 93.5t-73 37.5q-52 0 -73 -12z" />
    <glyph glyph-name="afii10060" unicode="&#x40b;" horiz-adv-x="860" 
d="M122 0l9 38l59 4q20 1 28.5 13.5t15.5 42.5l124 548h-34q-47 0 -77.5 -21t-53.5 -63l-27 -51h-38l41 181h588l-41 -181h-38l-3 51q-4 42 -25 63t-68 21h-70l-61 -267h2q128 66 221 66q80 0 116 -59.5t15 -146.5l-33 -141q-7 -27 -4 -40.5t23 -15.5l50 -4l-9 -38h-304
l9 38l37 3q20 2 28.5 14.5t15.5 42.5l37 161q11 52 -4.5 78t-72.5 26q-42 0 -76 -14q-39 -16 -53.5 -31.5t-20.5 -40.5l-40 -179q-7 -27 -4 -40.5t23 -14.5l64 -5l-9 -38h-340z" />
    </font>
</defs>
</svg>
